<?xml version="1.0" encoding="UTF-8"?>
<svg xmlns="http://www.w3.org/2000/svg" xmlns:xlink="http://www.w3.org/1999/xlink" version="1.2">
<font id="Flanders Art Sans b2">
<font-face font-family="Flanders Art Sans b2" units-per-em="2048" ascent="1536" descent="-512" font-style="normal" font-weight="400" font-stretch="normal" cap-height="1318" x-height="1038" underline-position="-155" underline-thickness="50"/>
<missing-glyph horiz-adv-x="600" d=""/>
<glyph glyph-name="NULL" horiz-adv-x="600" d=""/>
<glyph glyph-name="&amp;#x0;" d=""/>
<glyph glyph-name="&amp;#xd;" unicode="" d=""/>
<glyph glyph-name="space" unicode=" " horiz-adv-x="600" d=""/>
<glyph glyph-name="exclam" unicode="!" horiz-adv-x="467" d="M180 406 C173 454 169 555 166 677 C162 799 160 942 158 1078 C156 1213 155 1340 155 1428 L319 1428 C319 1340 319 1213 316 1078 C315 1010 313 941 312 872 C309 733 305 609 300 514 C297 466 295 430 292 406 L180 406 Z M120 92 C120 123 133 151 154 171 C174 191 202 204 233 204 C264 204 293 191 314 171 C334 151 347 123 347 92 C347 61 334 33 314 13 C293 -7 264 -20 233 -20 C202 -20 174 -7 154 13 C133 33 120 61 120 92 L120 92 Z "/>
<glyph glyph-name="quotedbl" unicode="&quot;" horiz-adv-x="718" d="M80 1099 C111 1152 129 1190 129 1229 C129 1262 115 1293 84 1336 C84 1367 97 1395 117 1415 C137 1435 165 1448 196 1448 C220 1448 248 1440 272 1421 C295 1401 311 1370 311 1325 C311 1268 285 1210 248 1160 C211 1110 163 1068 122 1045 L80 1099 Z M407 1099 C439 1152 456 1190 456 1229 C456 1262 443 1293 412 1336 C412 1367 425 1395 445 1415 C465 1435 493 1448 524 1448 C548 1448 576 1440 599 1421 C622 1401 638 1370 638 1325 C638 1268 612 1210 576 1160 C539 1110 491 1068 450 1045 L407 1099 Z "/>
<glyph glyph-name="numbersign" unicode="#" horiz-adv-x="1153" d="M1113 935 L1060 791 L916 791 L846 530 L1067 530 L1072 524 L1019 380 L806 380 L727 81 L723 79 L582 131 L648 380 L372 380 L293 81 L289 79 L148 131 L214 380 L46 380 L40 386 L93 530 L254 530 L324 791 L87 791 L81 797 L134 941 L364 941 L439 1221 L445 1224 L584 1173 L522 941 L798 941 L873 1221 L879 1224 L1018 1173 L956 941 L1108 941 L1113 935 Z M412 530 L688 530 L758 791 L482 791 L412 530 Z "/>
<glyph glyph-name="dollar" unicode="$" horiz-adv-x="919" d="M90 178 L93 179 C126 164 173 151 223 141 C273 131 328 124 383 124 C460 124 536 138 592 171 C648 204 685 258 685 341 C685 429 644 481 569 528 C517 561 445 596 376 631 C307 666 240 699 201 731 C137 782 97 864 97 983 C97 1088 129 1166 181 1222 C232 1278 303 1310 382 1326 L382 1448 L536 1448 L536 1337 C607 1334 674 1322 737 1303 L737 1171 L734 1169 C674 1181 589 1196 505 1196 C437 1196 371 1186 321 1156 C271 1126 238 1075 238 995 C238 930 259 889 295 857 C330 826 389 796 457 762 C525 728 600 691 664 650 C711 619 753 589 782 546 C811 502 829 448 829 375 C829 275 796 194 744 133 C691 72 617 29 536 5 L536 -149 L382 -149 L382 -19 C378 -20 374 -20 370 -20 L359 -20 C263 -20 170 -1 90 38 L90 178 Z "/>
<glyph glyph-name="percent" unicode="%" horiz-adv-x="1638" d="M80 1000 C80 1093 114 1179 172 1240 C230 1300 313 1338 410 1338 C507 1338 589 1300 646 1240 C702 1179 734 1096 734 1005 C734 910 701 827 643 766 C585 705 501 668 404 668 C307 668 225 706 169 766 C112 826 80 909 80 1000 L80 1000 Z M220 1001 C220 949 239 902 271 867 C303 832 349 811 405 811 C461 811 509 832 542 868 C574 903 594 950 594 1005 C594 1057 575 1104 543 1139 C511 1174 465 1195 409 1195 C353 1195 305 1174 273 1139 C240 1103 220 1054 220 1001 L220 1001 Z M432 241 L1078 1165 L1204 1077 L558 153 L432 241 Z M904 312 C904 405 938 491 996 552 C1054 612 1137 650 1234 650 C1331 650 1413 612 1470 552 C1526 491 1558 408 1558 317 C1558 222 1525 139 1467 78 C1409 17 1325 -20 1228 -20 C1131 -20 1049 18 993 78 C936 138 904 221 904 312 L904 312 Z M1044 313 C1044 261 1063 214 1095 179 C1127 144 1173 123 1229 123 C1285 123 1333 144 1366 180 C1398 215 1418 262 1418 317 C1418 369 1399 416 1367 451 C1335 486 1289 507 1233 507 C1177 507 1129 486 1097 451 C1064 415 1044 366 1044 313 L1044 313 Z "/>
<glyph glyph-name="ampersand" unicode="&amp;" horiz-adv-x="1252" d="M986 730 L1120 676 C1093 515 1049 382 986 275 L1172 89 L1065 -20 L894 150 C790 37 658 -20 502 -20 C381 -20 275 16 200 82 C125 148 80 244 80 365 C80 521 155 629 314 725 C246 796 196 892 196 1016 C196 1112 227 1193 284 1249 C340 1305 421 1338 521 1338 C604 1338 682 1316 739 1269 C795 1221 832 1150 832 1051 C832 951 795 881 741 829 C687 776 617 740 552 709 L874 386 C930 498 959 623 978 730 L986 730 Z M350 1029 C350 980 363 937 384 899 C404 861 431 828 459 801 C462 802 464 804 467 805 L475 808 C519 827 570 851 610 888 C650 924 680 975 680 1048 C680 1104 663 1140 635 1163 C607 1186 569 1194 525 1194 C406 1194 350 1129 350 1029 L350 1029 Z M409 635 C364 607 320 572 288 528 C255 483 234 429 234 362 C234 291 258 232 303 190 C348 148 415 124 499 124 C626 124 717 176 788 256 L409 635 Z "/>
<glyph glyph-name="quotesingle" unicode="'" horiz-adv-x="391" d="M80 1099 C111 1152 129 1190 129 1229 C129 1262 115 1293 84 1336 C84 1367 97 1395 117 1415 C137 1435 165 1448 196 1448 C220 1448 248 1440 272 1421 C295 1401 311 1370 311 1325 C311 1268 285 1210 248 1160 C211 1110 163 1068 122 1045 L80 1099 Z "/>
<glyph glyph-name="parenleft" unicode="(" horiz-adv-x="570" d="M336 -20 L332 -20 C185 199 120 436 120 680 C120 944 196 1205 335 1448 L339 1448 L450 1350 C347 1138 289 914 289 686 C289 477 338 272 450 81 L336 -20 Z "/>
<glyph glyph-name="parenright" unicode=")" horiz-adv-x="570" d="M234 -20 L120 81 C232 272 281 477 281 686 C281 914 223 1138 120 1350 L231 1448 L235 1448 C374 1205 450 944 450 680 C450 436 385 199 238 -20 L234 -20 Z "/>
<glyph glyph-name="asterisk" unicode="*" horiz-adv-x="909" d="M613 166 C565 234 512 319 455 434 C398 321 344 234 296 166 L162 260 C209 328 271 406 359 498 C234 479 133 475 50 475 L50 639 C134 639 234 633 361 613 C273 705 210 785 162 854 L296 948 C344 879 398 794 455 679 C512 794 565 880 613 948 L747 854 C699 785 638 706 550 614 C675 633 775 639 859 639 L859 475 C776 475 678 479 553 498 C640 406 700 328 747 260 L613 166 Z M371 505 L455 446 L540 506 L538 610 L453 668 L371 609 L371 505 Z "/>
<glyph glyph-name="plus" unicode="+" horiz-adv-x="1030" d="M592 910 L592 592 L910 592 L910 438 L592 438 L592 120 L438 120 L438 438 L120 438 L120 592 L438 592 L438 910 L592 910 Z "/>
<glyph glyph-name="comma" unicode="," horiz-adv-x="392" d="M80 -145 C112 -92 130 -54 130 -15 C130 18 116 49 85 92 C85 123 98 151 118 171 C138 191 166 204 197 204 C221 204 249 196 273 177 C296 157 312 126 312 81 C312 24 286 -34 249 -84 C212 -134 164 -176 123 -199 L80 -145 Z "/>
<glyph glyph-name="hyphen" unicode="-" horiz-adv-x="600" d="M50 618 L550 618 L550 474 L50 474 L50 618 Z "/>
<glyph glyph-name="period" unicode="." horiz-adv-x="387" d="M80 92 C80 123 93 151 114 171 C134 191 162 204 193 204 C224 204 253 191 274 171 C294 151 307 123 307 92 C307 61 294 33 274 13 C253 -7 224 -20 193 -20 C162 -20 134 -7 114 13 C93 33 80 61 80 92 L80 92 Z "/>
<glyph glyph-name="slash" unicode="/" horiz-adv-x="971" d="M708 1448 L852 1395 L264 -221 L120 -168 L708 1448 Z "/>
<glyph glyph-name="zero" unicode="0" horiz-adv-x="1112" d="M1032 646 C1029 417 979 250 895 141 C811 32 692 -20 552 -20 C431 -20 338 22 268 89 C198 156 150 249 121 350 C92 450 80 560 80 663 C80 887 127 1055 210 1168 C293 1281 411 1338 552 1338 C692 1338 812 1282 897 1167 C982 1052 1032 879 1032 646 L1032 646 Z M877 665 C877 857 848 989 793 1073 C737 1157 656 1194 553 1194 C340 1194 235 1022 235 662 C235 299 340 124 553 124 C657 124 738 156 793 240 C848 324 877 460 877 665 L877 665 Z "/>
<glyph glyph-name="one" unicode="1" horiz-adv-x="618" d="M40 1224 C109 1224 165 1233 213 1250 C261 1266 302 1290 345 1318 L458 1318 L458 0 L304 0 L304 1125 C217 1094 129 1079 40 1079 L40 1224 Z "/>
<glyph glyph-name="two" unicode="2" horiz-adv-x="1008" d="M928 0 L30 0 L30 144 C225 281 369 401 474 504 C578 607 644 693 684 766 C723 839 736 900 736 949 C736 1024 707 1086 656 1128 C605 1170 534 1193 450 1193 C399 1193 348 1185 298 1170 C248 1155 200 1134 160 1110 L151 1117 L109 1232 C158 1264 223 1290 290 1309 C357 1328 427 1338 488 1338 C592 1338 689 1307 761 1246 C832 1185 877 1090 877 965 C877 820 816 686 708 552 C600 418 445 285 254 144 L928 144 L928 0 Z "/>
<glyph glyph-name="three" unicode="3" horiz-adv-x="973" d="M224 617 L224 757 L380 757 C441 757 515 773 574 812 C633 851 675 911 675 998 C675 1065 647 1115 601 1148 C555 1180 493 1197 425 1197 C332 1197 227 1168 132 1112 L124 1119 L92 1234 C148 1269 211 1295 273 1312 C335 1329 395 1338 448 1338 C499 1338 558 1330 615 1310 C671 1290 724 1257 764 1209 C803 1160 828 1093 828 1008 C828 933 810 872 780 822 C750 772 707 731 662 702 C731 677 791 639 835 584 C878 529 904 457 904 364 C904 269 875 195 830 139 C785 82 723 42 656 17 C589 -8 517 -20 453 -20 C396 -20 323 -10 249 8 C175 26 101 54 45 91 L77 211 L85 218 C132 189 192 165 254 149 C316 132 379 122 432 122 C521 122 601 149 658 194 C715 239 750 303 750 376 C750 463 700 523 626 562 C552 601 453 617 356 617 L224 617 Z "/>
<glyph glyph-name="four" unicode="4" horiz-adv-x="970" d="M613 1318 L789 1318 L789 443 L941 443 L941 300 L789 300 L789 0 L635 0 L635 300 L20 300 L20 443 L613 1318 Z M635 443 L635 1077 L203 443 L635 443 Z "/>
<glyph glyph-name="five" unicode="5" horiz-adv-x="973" d="M202 1291 L202 1318 L847 1318 L847 1176 L330 1176 L290 807 C378 807 475 804 566 787 C657 770 742 739 804 681 C866 623 904 538 904 415 C904 262 847 154 764 83 C681 12 573 -20 473 -20 C409 -20 336 -10 265 8 C194 26 126 54 70 91 L102 211 L110 218 C158 187 220 164 282 148 C344 131 405 122 453 122 C544 122 618 155 670 208 C721 261 749 336 749 419 C749 512 710 574 631 613 C551 652 433 666 273 666 L133 666 L202 1291 Z "/>
<glyph glyph-name="six" unicode="6" horiz-adv-x="968" d="M834 1194 C706 1194 605 1164 526 1116 C446 1068 388 1002 345 931 C302 860 275 783 258 714 C345 782 433 807 518 807 C623 807 716 763 783 693 C850 623 889 527 889 424 C889 369 878 302 852 236 C826 170 784 106 723 59 C662 11 581 -20 477 -20 C338 -20 239 34 175 122 C110 209 80 328 80 457 C80 594 102 737 153 868 C204 999 281 1116 393 1201 C505 1286 650 1338 834 1338 L834 1194 Z M497 662 C418 662 340 631 233 562 C228 515 228 481 228 458 C228 347 261 264 311 209 C361 153 429 125 500 125 C580 125 639 162 678 215 C717 268 735 338 735 405 C735 488 705 552 661 596 C617 639 557 662 497 662 L497 662 Z "/>
<glyph glyph-name="seven" unicode="7" horiz-adv-x="838" d="M50 1318 L818 1318 L286 0 L132 0 L605 1174 L50 1174 L50 1318 Z "/>
<glyph glyph-name="eight" unicode="8" horiz-adv-x="988" d="M870 1001 C870 925 848 864 811 814 C774 764 721 724 657 688 C726 656 794 616 845 561 C896 505 929 434 929 339 C929 219 875 129 793 69 C711 9 602 -20 494 -20 C385 -20 276 10 195 70 C114 130 60 220 60 339 C60 438 97 511 149 567 C201 622 269 660 332 688 C269 723 216 763 179 813 C142 863 119 924 119 1001 C119 1110 165 1195 234 1252 C303 1309 398 1338 494 1338 C589 1338 682 1310 753 1254 C824 1197 870 1113 870 1001 L870 1001 Z M715 1001 C715 1068 686 1116 645 1148 C604 1179 547 1194 494 1194 C439 1194 384 1179 343 1148 C302 1116 274 1067 274 1002 C274 939 298 893 338 854 C378 815 433 785 494 758 C558 786 613 816 653 855 C692 894 715 941 715 1001 L715 1001 Z M214 333 C214 265 249 213 301 178 C353 142 423 124 494 124 C563 124 634 142 687 178 C739 213 775 265 775 336 C775 405 740 456 687 499 C634 542 563 575 494 608 C422 573 352 540 300 498 C248 456 214 404 214 333 L214 333 Z "/>
<glyph glyph-name="nine" unicode="9" horiz-adv-x="968" d="M135 124 C263 124 363 154 443 202 C523 250 581 315 624 387 C667 458 694 534 711 603 C624 535 536 511 451 511 C344 511 253 556 186 626 C119 696 80 791 80 894 C80 949 92 1017 118 1083 C144 1149 185 1212 246 1260 C307 1307 388 1338 492 1338 C631 1338 730 1284 795 1197 C859 1109 889 990 889 861 C889 724 867 581 816 450 C765 319 688 202 576 117 C464 32 319 -20 135 -20 L135 124 Z M472 656 C549 656 629 685 736 756 C740 801 741 837 741 860 C741 971 709 1054 659 1110 C609 1165 540 1193 469 1193 C389 1193 330 1156 291 1103 C252 1050 234 980 234 913 C234 830 264 766 308 723 C352 679 412 656 472 656 L472 656 Z "/>
<glyph glyph-name="colon" unicode=":" horiz-adv-x="387" d="M80 946 C80 977 93 1005 114 1025 C134 1045 162 1058 193 1058 C224 1058 253 1045 274 1025 C294 1005 307 977 307 946 C307 915 294 887 274 867 C253 847 224 834 193 834 C162 834 134 847 114 867 C93 887 80 915 80 946 L80 946 Z M80 92 C80 123 93 151 114 171 C134 191 162 204 193 204 C224 204 253 191 274 171 C294 151 307 123 307 92 C307 61 294 33 274 13 C253 -7 224 -20 193 -20 C162 -20 134 -7 114 13 C93 33 80 61 80 92 L80 92 Z "/>
<glyph glyph-name="semicolon" unicode=";" horiz-adv-x="392" d="M84 946 C84 977 97 1005 118 1025 C138 1045 166 1058 197 1058 C228 1058 257 1045 278 1025 C298 1005 311 977 311 946 C311 915 298 887 278 867 C257 847 228 834 197 834 C166 834 138 847 118 867 C97 887 84 915 84 946 L84 946 Z M80 -145 C112 -92 130 -54 130 -15 C130 18 116 49 85 92 C85 123 98 151 118 171 C138 191 166 204 197 204 C221 204 249 196 273 177 C296 157 312 126 312 81 C312 24 286 -34 249 -84 C212 -134 164 -176 123 -199 L80 -145 Z "/>
<glyph glyph-name="less" unicode="&lt;" horiz-adv-x="918" d="M710 931 L798 806 L387 518 L798 230 L710 105 L120 518 L710 931 Z "/>
<glyph glyph-name="equal" unicode="=" horiz-adv-x="1030" d="M910 592 L120 592 L120 746 L910 746 L910 592 Z M910 284 L120 284 L120 438 L910 438 L910 284 Z "/>
<glyph glyph-name="greater" unicode="&gt;" horiz-adv-x="918" d="M208 105 L120 230 L531 518 L120 806 L208 931 L798 518 L208 105 Z "/>
<glyph glyph-name="question" unicode="?" horiz-adv-x="975" d="M162 1191 L120 1306 C152 1347 203 1384 263 1409 C323 1433 393 1448 465 1448 C562 1448 660 1422 733 1366 C806 1310 856 1224 856 1107 C856 1026 832 967 796 916 C778 891 758 867 735 846 C690 802 640 757 595 704 C550 651 513 583 491 492 C480 447 474 394 474 334 L320 334 C320 463 344 560 380 637 C416 713 465 770 513 818 C537 842 561 864 584 885 C631 926 668 968 690 1016 C701 1040 706 1067 706 1098 C706 1157 684 1208 641 1244 C598 1280 534 1301 453 1301 C394 1301 337 1290 287 1271 C237 1252 195 1224 171 1191 L162 1191 Z M285 92 C285 123 298 151 319 171 C339 191 367 204 398 204 C429 204 458 191 479 171 C499 151 512 123 512 92 C512 61 499 33 479 13 C458 -7 429 -20 398 -20 C367 -20 339 -7 319 13 C298 33 285 61 285 92 L285 92 Z "/>
<glyph glyph-name="at" unicode="@" horiz-adv-x="1422" d="M1234 190 C1161 214 1110 267 1077 335 C1041 294 995 258 942 232 C889 206 826 190 757 190 C688 190 604 205 537 253 C469 301 420 381 420 509 C420 606 448 681 512 732 C576 783 675 810 816 810 C872 810 933 806 1025 798 L1025 860 C1025 936 1003 985 960 1016 C917 1047 854 1058 771 1058 C607 1058 473 1013 380 926 C287 839 234 711 234 544 C234 385 282 248 368 149 C454 50 580 -9 737 -9 C872 -9 981 13 1062 88 L1166 -6 C1110 -59 1040 -96 966 -119 C892 -143 812 -153 737 -153 C534 -153 369 -81 256 42 C143 165 80 336 80 535 C80 691 119 817 184 916 C248 1015 338 1085 441 1132 C544 1179 659 1201 774 1201 C907 1201 1009 1182 1077 1130 C1145 1078 1179 993 1179 860 L1179 597 C1179 542 1182 487 1202 440 C1222 392 1258 355 1322 335 L1234 190 Z M1025 667 C1007 667 989 667 972 668 L922 668 C810 668 723 665 664 643 C604 621 573 581 573 510 C573 451 594 407 629 378 C664 349 712 334 767 334 C792 334 831 337 869 350 C907 362 946 384 976 421 C1006 458 1025 510 1025 583 L1025 667 Z "/>
<glyph glyph-name="A" unicode="A" horiz-adv-x="1164" d="M873 307 L291 307 L185 0 L25 0 L478 1318 L685 1318 L1139 0 L979 0 L873 307 Z M340 451 L824 451 L582 1152 L340 451 Z "/>
<glyph glyph-name="B" unicode="B" horiz-adv-x="1106" d="M160 0 L160 1318 L360 1318 C568 1318 718 1297 817 1242 C916 1187 963 1100 963 967 C963 831 920 747 845 694 C982 638 1046 541 1046 384 C1046 265 1013 183 954 127 C895 70 814 38 716 21 C618 4 505 0 386 0 L160 0 Z M315 1174 L315 751 L372 751 C517 751 627 752 700 778 C772 804 809 853 809 952 C809 1055 771 1110 698 1140 C625 1170 517 1174 380 1174 L315 1174 Z M315 605 L315 146 L416 146 C575 146 693 151 773 181 C852 211 891 267 891 370 C891 471 853 531 781 564 C708 597 600 605 463 605 L315 605 Z "/>
<glyph glyph-name="C" unicode="C" horiz-adv-x="1081" d="M1041 163 L1041 21 C996 8 943 -2 891 -9 C838 -17 784 -20 737 -20 C517 -20 352 52 244 176 C135 300 80 475 80 680 C84 865 138 1031 246 1149 C354 1267 517 1338 737 1338 C784 1338 838 1334 891 1327 C943 1320 996 1310 1041 1297 L1041 1155 L1034 1151 C987 1166 935 1176 884 1183 C833 1190 785 1193 745 1193 C574 1193 446 1138 362 1045 C277 952 234 817 234 660 C234 504 276 371 361 276 C446 181 573 125 745 125 C785 125 833 128 884 135 C935 142 987 152 1034 167 L1041 163 Z "/>
<glyph glyph-name="D" unicode="D" horiz-adv-x="1298" d="M160 0 L160 1318 L533 1318 C725 1318 897 1249 1020 1133 C1143 1016 1218 852 1218 660 C1218 468 1147 303 1028 187 C909 70 741 0 549 0 L160 0 Z M315 1174 L315 144 L549 144 C709 144 837 196 926 284 C1014 372 1063 497 1063 644 C1063 801 1003 934 907 1027 C811 1120 678 1174 533 1174 L315 1174 Z "/>
<glyph glyph-name="E" unicode="E" horiz-adv-x="998" d="M160 1318 L954 1318 L954 1174 L315 1174 L315 731 L954 731 L954 587 L315 587 L315 144 L954 144 L954 0 L160 0 L160 1318 Z "/>
<glyph glyph-name="F" unicode="F" horiz-adv-x="1011" d="M160 1318 L966 1318 L966 1174 L315 1174 L315 736 L966 736 L966 582 L315 582 L315 0 L160 0 L160 1318 Z "/>
<glyph glyph-name="G" unicode="G" horiz-adv-x="1268" d="M1128 -2 L1069 -2 L977 69 C892 10 805 -20 686 -20 C503 -20 353 54 247 176 C141 298 80 470 80 667 C80 851 132 1019 240 1141 C348 1263 512 1338 733 1338 C782 1338 838 1334 891 1327 C944 1320 997 1310 1042 1297 L1042 1155 L1034 1151 C987 1166 936 1176 885 1183 C833 1190 785 1193 745 1193 C573 1193 446 1135 362 1042 C277 949 235 819 235 676 C235 521 283 384 367 285 C450 185 567 124 703 124 C780 124 843 144 888 168 C933 192 962 221 977 238 L977 569 L692 569 L692 724 L1128 724 L1128 -2 Z "/>
<glyph glyph-name="H" unicode="H" horiz-adv-x="1273" d="M958 582 L315 582 L315 0 L160 0 L160 1318 L315 1318 L315 736 L958 736 L958 1318 L1113 1318 L1113 0 L958 0 L958 582 Z "/>
<glyph glyph-name="I" unicode="I" horiz-adv-x="474" d="M160 1318 L314 1318 L314 0 L160 0 L160 1318 Z "/>
<glyph glyph-name="J" unicode="J" horiz-adv-x="731" d="M167 123 L172 123 C225 123 272 141 305 183 C338 225 359 289 359 384 L359 1318 L514 1318 L514 384 C514 277 493 176 439 102 C385 28 298 -20 167 -20 L167 123 Z "/>
<glyph glyph-name="K" unicode="K" horiz-adv-x="1101" d="M1076 0 L887 0 L315 682 L315 0 L160 0 L160 1318 L315 1318 L315 700 L834 1318 L1024 1318 L1024 1309 L504 691 L1076 9 L1076 0 Z "/>
<glyph glyph-name="L" unicode="L" horiz-adv-x="968" d="M150 1318 L305 1318 L305 144 L924 144 L924 0 L150 0 L150 1318 Z "/>
<glyph glyph-name="M" unicode="M" horiz-adv-x="1413" d="M715 654 L1052 1318 L1263 1318 L1263 0 L1103 0 L1103 1103 L731 380 L695 380 L315 1112 L315 0 L165 0 L165 1318 L374 1318 L711 654 L715 654 Z "/>
<glyph glyph-name="N" unicode="N" horiz-adv-x="1263" d="M315 1028 L315 0 L160 0 L160 1318 L321 1318 L958 299 L958 1318 L1113 1318 L1113 0 L958 0 L315 1028 Z "/>
<glyph glyph-name="O" unicode="O" horiz-adv-x="1383" d="M80 660 C80 852 143 1021 252 1143 C361 1265 515 1338 698 1338 C881 1338 1032 1265 1138 1143 C1244 1021 1303 852 1303 660 C1303 468 1240 299 1132 177 C1024 55 870 -20 687 -20 C504 -20 353 54 247 176 C141 298 80 468 80 660 L80 660 Z M234 672 C234 517 276 381 355 283 C434 185 551 124 699 124 C843 124 956 180 1032 273 C1108 366 1149 497 1149 648 C1149 803 1109 940 1032 1038 C955 1136 842 1194 694 1194 C550 1194 435 1138 356 1045 C276 952 234 821 234 672 L234 672 Z "/>
<glyph glyph-name="P" unicode="P" horiz-adv-x="1130" d="M160 0 L160 1318 L419 1318 C634 1318 797 1286 906 1218 C1014 1149 1070 1042 1070 890 C1070 771 1037 680 978 612 C919 543 838 495 740 466 C642 437 529 424 410 424 L315 424 L315 0 L160 0 Z M315 1172 L315 570 L439 570 C583 570 702 587 786 633 C869 679 915 751 915 866 C915 986 862 1062 777 1109 C692 1156 572 1172 439 1172 L315 1172 Z "/>
<glyph glyph-name="Q" unicode="Q" horiz-adv-x="1383" d="M1092 -282 C1041 -275 978 -244 918 -196 C858 -148 801 -86 765 -15 C738 -18 714 -20 687 -20 C504 -20 353 54 247 176 C141 298 80 468 80 660 C80 852 143 1021 252 1143 C361 1265 515 1338 698 1338 C881 1338 1032 1265 1138 1143 C1244 1021 1303 852 1303 660 C1303 512 1266 377 1199 267 C1131 157 1035 72 918 24 C953 -23 996 -61 1040 -90 C1083 -119 1126 -141 1162 -153 L1092 -282 Z M232 672 C232 517 274 381 354 283 C434 185 551 124 699 124 C843 124 956 180 1033 273 C1110 366 1151 497 1151 648 C1151 803 1110 940 1033 1038 C956 1136 842 1194 694 1194 C550 1194 434 1138 355 1045 C275 952 232 821 232 672 L232 672 Z "/>
<glyph glyph-name="R" unicode="R" horiz-adv-x="1233" d="M160 0 L160 1318 L483 1318 C703 1318 849 1284 941 1213 C1033 1141 1070 1034 1070 887 C1070 786 1050 706 1011 643 C972 579 916 534 847 502 C863 461 891 409 927 356 C962 303 1004 249 1049 205 C1093 160 1139 123 1183 106 L1098 -20 C1046 -9 992 31 941 86 C889 141 840 208 798 275 C756 342 721 406 698 454 C613 437 516 431 411 431 L315 431 L315 0 L160 0 Z M315 1173 L315 576 L448 576 C592 576 709 594 791 640 C873 686 918 761 918 874 C918 994 875 1069 797 1114 C719 1158 608 1173 473 1173 L315 1173 Z "/>
<glyph glyph-name="S" unicode="S" horiz-adv-x="919" d="M90 178 L93 179 C126 164 173 151 223 141 C273 131 328 124 383 124 C460 124 536 138 592 171 C648 204 685 258 685 341 C685 429 644 481 569 528 C517 561 445 596 376 631 C307 666 240 699 201 731 C137 782 97 864 97 983 C97 1115 147 1204 223 1260 C299 1316 401 1338 505 1338 C586 1338 665 1324 737 1303 L737 1171 L734 1169 C674 1181 589 1196 505 1196 C437 1196 371 1186 321 1156 C271 1126 238 1075 238 995 C238 930 259 889 295 857 C330 826 389 796 457 762 C525 728 600 691 664 650 C711 619 753 589 782 546 C811 502 829 448 829 375 C829 240 770 141 682 76 C594 11 476 -20 359 -20 C263 -20 170 -1 90 38 L90 178 Z "/>
<glyph glyph-name="T" unicode="T" horiz-adv-x="1060" d="M45 1318 L1015 1318 L1015 1174 L607 1174 L607 0 L453 0 L453 1174 L45 1174 L45 1318 Z "/>
<glyph glyph-name="U" unicode="U" horiz-adv-x="1403" d="M1036 1318 L1190 1318 L1190 490 C1190 341 1160 233 1112 158 C1064 82 998 37 925 12 C852 -13 772 -20 697 -20 C622 -20 544 -13 472 12 C399 37 334 81 286 157 C238 233 209 339 209 490 L209 1318 L363 1318 L363 540 C363 409 382 318 414 257 C445 196 490 162 539 143 C588 124 643 122 696 122 C755 122 812 125 863 145 C914 164 956 198 987 260 C1018 322 1036 411 1036 540 L1036 1318 Z "/>
<glyph glyph-name="V" unicode="V" horiz-adv-x="1164" d="M25 1318 L185 1318 L582 165 L979 1318 L1139 1318 L685 0 L478 0 L25 1318 Z "/>
<glyph glyph-name="W" unicode="W" horiz-adv-x="1716" d="M858 1045 L559 0 L403 0 L25 1318 L182 1318 L480 272 L780 1318 L936 1318 L1235 272 L1534 1318 L1691 1318 L1313 0 L1157 0 L858 1045 Z "/>
<glyph glyph-name="X" unicode="X" horiz-adv-x="1138" d="M569 837 L881 1318 L1061 1318 L659 699 L1113 0 L933 0 L569 560 L205 0 L25 0 L479 699 L77 1318 L257 1318 L569 837 Z "/>
<glyph glyph-name="Y" unicode="Y" horiz-adv-x="1010" d="M505 650 L831 1318 L985 1318 L582 492 L582 0 L428 0 L428 492 L25 1318 L179 1318 L505 650 Z "/>
<glyph glyph-name="Z" unicode="Z" horiz-adv-x="950" d="M65 5 L658 1174 L87 1174 L87 1318 L880 1318 L884 1313 L288 144 L885 144 L885 0 L69 0 L65 5 Z "/>
<glyph glyph-name="bracketleft" unicode="[" horiz-adv-x="580" d="M120 1448 L460 1448 L460 1304 L274 1304 L274 144 L460 144 L460 0 L120 0 L120 1448 Z "/>
<glyph glyph-name="backslash" unicode="\" horiz-adv-x="971" d="M852 -168 L708 -221 L120 1395 L264 1448 L852 -168 Z "/>
<glyph glyph-name="bracketright" unicode="]" horiz-adv-x="580" d="M460 0 L120 0 L120 144 L306 144 L306 1304 L120 1304 L120 1448 L460 1448 L460 0 Z "/>
<glyph glyph-name="underscore" unicode="_" horiz-adv-x="800" d="M0 144 L800 144 L800 0 L0 0 L0 144 Z "/>
<glyph glyph-name="grave" unicode="`" horiz-adv-x="667" d="M182 1558 C210 1534 259 1493 325 1447 C391 1401 474 1349 573 1305 C570 1285 564 1260 556 1238 C548 1216 539 1197 531 1190 C442 1207 344 1253 262 1301 C180 1349 115 1401 94 1433 C102 1488 139 1535 182 1558 L182 1558 Z "/>
<glyph glyph-name="a" unicode="a" horiz-adv-x="1022" d="M894 -20 C821 4 770 57 737 125 C701 84 655 48 602 22 C549 -4 486 -20 417 -20 C348 -20 264 -5 197 43 C129 91 80 171 80 300 C80 396 108 471 172 523 C236 574 335 600 476 600 C532 600 593 596 685 588 L685 717 C685 794 663 845 628 875 C592 905 542 915 489 915 C436 915 386 910 335 899 C284 887 233 869 177 841 L137 976 C206 1004 260 1024 317 1038 C373 1052 433 1058 516 1058 C601 1058 683 1039 742 987 C801 935 839 850 839 717 L839 387 C839 332 842 277 862 230 C882 182 918 145 982 125 L894 -20 Z M685 457 C542 458 429 460 352 441 C275 421 233 381 233 300 C233 224 268 180 308 155 C347 130 389 124 405 124 C460 124 530 131 586 167 C642 202 685 264 685 373 L685 457 Z "/>
<glyph glyph-name="b" unicode="b" horiz-adv-x="1110" d="M160 1428 L305 1448 L315 1448 L315 967 C388 1023 474 1058 582 1058 C718 1058 830 1000 908 905 C986 809 1030 676 1030 525 C1030 378 989 242 903 143 C817 43 686 -20 507 -20 C378 -20 256 14 160 54 L160 1428 Z M315 154 C383 127 450 122 518 122 C622 122 711 161 775 233 C838 304 875 408 875 539 C875 642 852 735 801 803 C750 871 672 914 561 914 C457 914 368 877 315 801 L315 154 Z "/>
<glyph glyph-name="c" unicode="c" horiz-adv-x="899" d="M859 190 L859 54 C752 1 658 -20 562 -20 C438 -20 317 20 228 108 C139 196 80 333 80 526 C80 717 136 850 224 935 C312 1020 433 1058 562 1058 C658 1058 752 1037 859 984 L859 848 L852 843 C759 890 667 914 578 914 C483 914 398 888 335 828 C272 767 233 671 233 532 C233 392 272 290 335 223 C398 156 483 124 578 124 C667 124 760 148 852 195 L859 190 Z "/>
<glyph glyph-name="d" unicode="d" horiz-adv-x="1110" d="M950 0 L852 0 L820 92 C741 24 648 -19 528 -19 C392 -19 280 44 202 145 C124 245 80 383 80 534 C80 681 122 811 208 906 C294 1001 424 1058 603 1058 C671 1058 734 1049 795 1037 L795 1428 L940 1448 L950 1448 L950 0 Z M795 875 C725 902 657 916 592 916 C488 916 399 883 336 817 C272 751 235 652 235 521 C235 418 258 319 309 246 C360 173 438 125 549 125 C653 125 740 161 795 238 L795 875 Z "/>
<glyph glyph-name="e" unicode="e" horiz-adv-x="946" d="M881 480 L234 480 C242 360 284 271 345 212 C406 153 488 124 577 124 C670 124 762 150 857 198 L860 197 L860 54 C752 1 658 -20 562 -20 C433 -20 312 23 224 113 C136 203 80 340 80 532 C80 680 114 813 187 907 C259 1001 370 1058 526 1058 C633 1058 707 1031 760 988 C812 945 843 886 860 821 C877 756 881 685 881 620 L881 480 Z M729 620 C728 700 717 773 686 827 C655 881 604 914 523 914 C444 914 381 883 333 831 C285 779 254 705 241 620 L729 620 Z "/>
<glyph glyph-name="f" unicode="f" horiz-adv-x="641" d="M40 1038 L208 1038 L208 1042 C208 1195 241 1297 296 1360 C351 1423 429 1448 518 1448 C594 1448 676 1431 761 1404 L719 1268 C651 1291 588 1305 536 1305 C484 1305 441 1289 411 1249 C381 1208 363 1142 363 1042 L363 1038 L598 1038 L598 895 L363 895 L363 0 L208 0 L208 895 L40 895 L40 1038 Z "/>
<glyph glyph-name="g" unicode="g" horiz-adv-x="1034" d="M569 217 C712 217 817 184 886 130 C954 76 988 2 988 -75 C988 -188 919 -289 818 -361 C717 -434 583 -478 454 -478 C335 -478 239 -441 173 -381 C107 -322 70 -239 70 -147 C70 -63 115 37 194 117 C166 133 145 160 131 191 C117 222 109 255 109 284 C109 340 135 404 184 465 C156 494 134 534 120 578 C106 621 98 668 98 712 C98 811 137 897 205 959 C273 1021 369 1058 482 1058 C559 1058 627 1041 683 1010 C727 1043 777 1070 823 1088 C869 1106 913 1115 948 1115 L994 984 C939 975 867 952 799 909 C838 853 859 788 859 716 C859 617 819 526 751 459 C682 392 585 350 472 350 C399 350 335 368 280 395 C257 366 245 337 245 310 C245 258 290 217 373 217 L569 217 Z M478 920 C401 920 342 891 302 850 C262 809 242 755 242 703 C242 651 263 597 303 556 C343 515 402 487 481 487 C558 487 616 515 655 556 C694 596 713 649 713 701 C713 753 693 808 654 850 C614 892 555 920 478 920 L478 920 Z M314 84 C258 20 222 -61 222 -133 C222 -194 239 -247 279 -284 C319 -321 382 -343 474 -343 C578 -343 667 -309 731 -260 C794 -212 830 -148 830 -85 C830 -8 785 34 713 58 C640 81 540 84 431 84 L314 84 Z "/>
<glyph glyph-name="h" unicode="h" horiz-adv-x="1121" d="M160 1428 L305 1448 L315 1448 L315 956 C356 981 406 1007 457 1026 C508 1045 559 1058 604 1058 C703 1058 794 1033 862 971 C929 909 971 811 971 664 L971 0 L816 0 L816 656 C816 756 790 821 750 861 C709 900 652 915 589 915 C541 915 492 903 445 884 C398 864 355 839 315 815 L315 0 L160 0 L160 1428 Z "/>
<glyph glyph-name="i" unicode="i" horiz-adv-x="535" d="M160 1321 C160 1350 172 1377 192 1397 C211 1416 238 1428 267 1428 C296 1428 323 1416 343 1397 C363 1377 375 1350 375 1321 C375 1292 363 1266 343 1247 C323 1227 296 1215 267 1215 C238 1215 211 1227 192 1247 C172 1266 160 1292 160 1321 L160 1321 Z M190 1038 L344 1038 L344 0 L190 0 L190 1038 Z "/>
<glyph glyph-name="j" unicode="j" horiz-adv-x="530" d="M165 1321 C165 1350 177 1377 197 1397 C216 1416 243 1428 272 1428 C301 1428 328 1416 348 1397 C368 1377 380 1350 380 1321 C380 1292 368 1266 348 1247 C328 1227 301 1215 272 1215 C243 1215 216 1227 197 1247 C177 1266 165 1292 165 1321 L165 1321 Z M194 1038 L349 1038 L349 -74 C349 -219 314 -321 255 -385 C196 -450 115 -478 26 -478 C-55 -478 -142 -455 -230 -415 L-188 -273 C-121 -312 -53 -335 7 -335 C60 -335 107 -317 140 -275 C173 -233 194 -169 194 -74 L194 1038 Z "/>
<glyph glyph-name="k" unicode="k" horiz-adv-x="975" d="M882 -20 C830 -17 769 16 708 64 C647 111 583 175 527 240 C470 304 418 370 381 423 C362 449 347 471 336 490 C324 509 317 521 315 527 L315 0 L160 0 L160 1421 L305 1448 L315 1448 L315 546 L727 1038 L925 1038 L503 536 C508 513 541 465 589 409 C637 352 699 287 763 232 C827 177 893 133 946 117 L882 -20 Z "/>
<glyph glyph-name="l" unicode="l" horiz-adv-x="474" d="M160 1428 L304 1448 L314 1448 L314 0 L160 0 L160 1428 Z "/>
<glyph glyph-name="m" unicode="m" horiz-adv-x="1648" d="M906 0 L752 0 L752 656 C752 752 732 817 698 858 C664 898 616 915 561 915 C474 915 392 876 315 817 L315 0 L160 0 L160 1038 L258 1038 L293 943 C356 984 408 1012 455 1031 C502 1050 545 1058 589 1058 C676 1058 763 1026 826 946 C869 973 921 1001 975 1022 C1029 1043 1083 1058 1131 1058 C1230 1058 1321 1033 1389 971 C1456 909 1498 811 1498 664 L1498 -1 L1343 -1 L1343 655 C1343 755 1317 820 1277 860 C1236 900 1179 915 1116 915 C1035 915 954 878 882 838 C897 790 906 733 906 665 L906 0 Z "/>
<glyph glyph-name="n" unicode="n" horiz-adv-x="1121" d="M160 1038 L264 1038 L293 942 C336 970 388 999 443 1021 C498 1043 555 1058 604 1058 C703 1058 794 1033 862 971 C929 909 971 811 971 664 L971 0 L816 0 L816 655 C816 755 790 820 750 860 C709 900 652 915 589 915 C541 915 492 902 445 883 C398 864 355 839 315 815 L315 0 L160 0 L160 1038 Z "/>
<glyph glyph-name="o" unicode="o" horiz-adv-x="1112" d="M80 516 C80 667 130 802 215 900 C299 998 419 1058 560 1058 C701 1058 821 997 903 900 C985 803 1032 669 1032 521 C1032 370 983 236 899 138 C814 40 693 -20 552 -20 C409 -20 292 41 210 138 C128 234 80 368 80 516 L80 516 Z M235 524 C235 416 262 315 317 243 C372 170 453 124 561 124 C665 124 744 166 797 235 C850 304 877 402 877 513 C877 622 850 723 797 796 C744 869 664 914 556 914 C452 914 372 872 318 802 C264 732 235 633 235 524 L235 524 Z "/>
<glyph glyph-name="p" unicode="p" horiz-adv-x="1110" d="M160 1038 L264 1038 L292 948 C371 1016 463 1058 582 1058 C718 1058 830 1001 908 906 C986 810 1030 677 1030 526 C1030 379 989 243 903 143 C817 43 686 -20 507 -20 C439 -20 375 -12 315 1 L315 -458 L160 -458 L160 1038 Z M315 162 C383 134 450 122 518 122 C622 122 711 161 775 233 C838 304 875 408 875 539 C875 642 852 735 801 803 C750 871 672 914 561 914 C457 914 368 878 315 802 L315 162 Z "/>
<glyph glyph-name="q" unicode="q" horiz-adv-x="1110" d="M950 -458 L795 -458 L795 71 C722 14 635 -20 528 -20 C392 -20 280 43 202 144 C124 245 80 384 80 535 C80 682 122 813 208 907 C294 1001 424 1058 603 1058 C732 1058 854 1024 950 984 L950 -458 Z M795 884 C726 909 659 916 592 916 C488 916 399 883 336 817 C272 751 235 652 235 521 C235 418 258 320 309 246 C360 172 438 123 549 123 C653 123 740 160 795 236 L795 884 Z "/>
<glyph glyph-name="r" unicode="r" horiz-adv-x="813" d="M212 1038 L316 1038 L352 920 C429 1009 511 1058 607 1058 C632 1058 663 1055 694 1049 C725 1043 755 1033 779 1022 L725 883 C686 902 625 915 582 915 C491 915 420 857 367 776 L367 0 L212 0 L212 1038 Z "/>
<glyph glyph-name="s" unicode="s" horiz-adv-x="801" d="M70 172 L76 177 C107 165 147 152 189 142 C231 132 275 125 315 125 C363 125 428 135 481 162 C534 189 576 230 576 293 C576 348 545 384 498 413 C474 428 447 441 417 453 C357 477 293 502 233 534 C173 566 124 610 96 673 C81 704 74 742 74 785 C74 888 119 956 185 999 C251 1042 339 1058 427 1058 C503 1058 577 1046 638 1029 L638 889 L632 886 C613 891 579 899 537 906 C495 913 447 919 403 919 C360 919 316 913 283 895 C250 877 227 846 227 798 C227 741 258 704 306 674 C329 659 356 645 387 634 C447 610 511 587 572 556 C632 525 681 483 710 423 C724 392 731 356 731 313 C731 201 676 117 596 62 C515 7 409 -20 306 -20 C218 -20 138 -2 70 27 L70 172 Z "/>
<glyph glyph-name="t" unicode="t" horiz-adv-x="744" d="M40 1038 L155 1038 L155 1224 L300 1251 L310 1251 L310 1038 L598 1038 L598 894 L310 894 L310 384 C310 289 331 225 364 183 C397 141 444 123 497 123 C557 123 624 146 692 185 L734 43 C646 3 559 -20 478 -20 C387 -20 308 8 249 73 C190 137 155 239 155 384 L155 894 L40 894 L40 1038 Z "/>
<glyph glyph-name="u" unicode="u" horiz-adv-x="1121" d="M961 0 L863 0 L832 99 C789 71 736 41 680 18 C624 -5 566 -20 517 -20 C418 -20 327 6 260 68 C192 130 150 227 150 374 L150 1038 L305 1038 L305 383 C305 283 331 218 372 178 C412 138 469 123 532 123 C580 123 628 135 675 155 C722 174 766 198 806 222 L806 1038 L961 1038 L961 0 Z "/>
<glyph glyph-name="v" unicode="v" horiz-adv-x="979" d="M950 1038 L593 0 L386 0 L30 1038 L190 1038 L490 165 L790 1038 L950 1038 Z "/>
<glyph glyph-name="w" unicode="w" horiz-adv-x="1564" d="M1534 1038 L1205 0 L1013 0 L782 790 L551 0 L358 0 L30 1038 L180 1038 L454 171 L711 1038 L853 1038 L1110 171 L1385 1038 L1534 1038 Z "/>
<glyph glyph-name="x" unicode="x" horiz-adv-x="1023" d="M516 682 L765 1038 L950 1038 L608 549 L993 0 L808 0 L511 424 L215 0 L30 0 L419 556 L82 1038 L267 1038 L516 682 Z "/>
<glyph glyph-name="y" unicode="y" horiz-adv-x="970" d="M424 0 L376 0 L19 1038 L179 1038 L480 165 L781 1038 L941 1038 L496 -252 C440 -413 333 -478 196 -478 C113 -478 27 -454 -60 -415 L-18 -273 C49 -312 116 -335 177 -335 C212 -335 248 -327 278 -309 C308 -291 332 -263 347 -223 L424 0 Z "/>
<glyph glyph-name="z" unicode="z" horiz-adv-x="911" d="M50 5 L596 894 L66 894 L66 1038 L856 1038 L861 1032 L315 144 L858 144 L858 0 L55 0 L50 5 Z "/>
<glyph glyph-name="braceleft" unicode="{" horiz-adv-x="810" d="M690 123 L690 -19 L671 -19 C665 -20 658 -20 651 -20 C564 -20 484 -1 425 51 C366 103 328 188 328 321 L328 445 C328 521 308 569 274 600 C240 631 192 642 140 643 L120 643 L120 785 L132 785 C185 785 235 796 271 826 C306 856 328 906 328 983 L328 1107 C328 1240 366 1325 425 1377 C484 1429 564 1448 651 1448 L671 1448 C677 1447 683 1447 690 1447 L690 1305 L678 1305 C623 1305 575 1295 540 1265 C504 1235 482 1184 482 1107 L482 983 C482 850 446 766 386 714 C446 662 482 578 482 445 L482 321 C482 244 504 194 540 164 C575 134 623 123 678 123 L690 123 Z "/>
<glyph glyph-name="bar" unicode="|" horiz-adv-x="314" d="M80 1448 L234 1448 L234 -270 L80 -270 L80 1448 Z "/>
<glyph glyph-name="braceright" unicode="}" horiz-adv-x="810" d="M120 -19 L120 123 L132 123 C185 123 235 134 271 164 C306 194 328 244 328 321 L328 445 C328 578 364 662 424 714 C364 766 328 850 328 983 L328 1107 C328 1184 306 1235 271 1265 C235 1295 185 1305 132 1305 L120 1305 L120 1447 C127 1447 133 1447 139 1448 L159 1448 C244 1448 326 1429 385 1377 C444 1325 482 1240 482 1107 L482 983 C482 906 504 856 540 826 C575 796 623 785 678 785 L690 785 L690 643 L670 643 C618 642 571 631 537 600 C503 569 482 521 482 445 L482 321 C482 188 444 103 385 51 C326 -1 244 -20 159 -20 C152 -20 145 -20 139 -19 L120 -19 Z "/>
<glyph glyph-name="asciitilde" unicode="~" horiz-adv-x="1031" d="M749 661 C777 665 805 668 833 665 C861 661 888 651 911 630 C903 563 870 508 822 469 C774 430 711 408 644 408 C597 408 564 418 536 433 C522 440 509 448 498 456 C475 472 453 488 428 497 C415 502 401 504 385 504 C358 504 332 497 313 482 C294 467 282 446 282 415 L282 408 C254 404 226 401 198 405 C170 408 143 418 120 439 C128 506 161 561 209 600 C256 639 318 661 382 661 C439 661 481 637 521 613 C560 589 596 565 647 565 C672 565 698 572 717 587 C736 602 749 623 749 654 L749 661 Z "/>
<glyph glyph-name="exclamdown" unicode="¡" horiz-adv-x="467" d="M347 947 C347 916 334 888 314 868 C293 848 265 835 234 835 C203 835 174 848 154 868 C133 888 120 916 120 947 C120 978 133 1006 154 1026 C174 1046 203 1059 234 1059 C265 1059 293 1046 314 1026 C334 1006 347 978 347 947 L347 947 Z M287 633 C292 585 298 485 302 363 C305 241 308 97 310 -38 C312 -174 312 -301 312 -389 L148 -389 C148 -301 148 -174 151 -38 C152 29 154 98 155 167 C158 306 162 430 167 526 C169 573 172 609 175 633 L287 633 Z "/>
<glyph glyph-name="cent" unicode="¢" horiz-adv-x="899" d="M859 190 L859 54 C779 15 709 -7 637 -15 L637 -150 L483 -150 L483 -14 C375 1 273 49 200 137 C127 225 80 353 80 526 C80 697 125 821 198 907 C271 993 371 1038 483 1053 L483 1208 L637 1208 L637 1053 C709 1045 779 1023 859 984 L859 848 L852 843 C759 890 667 914 578 914 C483 914 398 888 335 828 C272 767 233 671 233 532 C233 392 272 290 335 223 C398 156 483 124 578 124 C667 124 760 148 852 195 L859 190 Z "/>
<glyph glyph-name="sterling" unicode="£" horiz-adv-x="1002" d="M40 609 L40 753 L229 753 C218 814 210 877 210 942 C210 1085 251 1184 317 1248 C383 1311 474 1338 577 1338 C677 1338 793 1311 888 1270 L842 1143 C773 1174 693 1193 620 1193 C451 1193 365 1091 365 930 C365 879 374 817 385 753 L742 753 L742 609 L413 609 C428 532 441 459 441 406 C441 305 395 215 330 144 L962 144 L962 0 L42 0 L42 144 C94 144 154 168 202 215 C250 262 284 332 284 427 C284 482 273 542 258 609 L40 609 Z "/>
<glyph glyph-name="yen" unicode="¥" horiz-adv-x="1010" d="M897 150 L582 150 L582 0 L428 0 L428 150 L107 150 L107 304 L428 304 L428 458 L107 458 L107 612 L369 612 L25 1318 L179 1318 L505 650 L831 1318 L985 1318 L640 612 L897 612 L897 458 L582 458 L582 304 L897 304 L897 150 Z "/>
<glyph glyph-name="brokenbar" unicode="¦" horiz-adv-x="314" d="M80 748 L80 1448 L234 1448 L234 748 L80 748 Z M234 430 L234 -270 L80 -270 L80 430 L234 430 Z "/>
<glyph glyph-name="section" unicode="§" horiz-adv-x="930" d="M768 1281 L761 1275 C708 1290 640 1305 567 1305 C508 1305 450 1295 407 1264 C363 1233 335 1183 335 1103 C335 1031 358 996 386 967 C445 903 516 861 585 817 C653 773 720 727 769 658 C818 589 850 494 850 353 C850 268 838 177 814 90 C790 2 752 -80 703 -148 C675 -221 626 -271 567 -302 C507 -334 437 -347 368 -347 C296 -347 226 -333 162 -312 L162 -180 L169 -174 C222 -189 290 -204 363 -204 C422 -204 480 -194 524 -163 C567 -132 595 -82 595 -2 C595 34 589 61 580 82 C571 103 557 119 544 134 C485 198 414 240 346 284 C277 328 210 374 161 443 C112 512 80 607 80 748 C80 833 92 924 116 1012 C140 1099 176 1181 227 1249 C255 1322 304 1372 364 1404 C423 1435 491 1448 562 1448 C634 1448 704 1434 768 1413 L768 1281 Z M293 822 C269 846 250 873 236 904 C227 857 223 814 223 775 C223 670 255 594 302 535 C349 476 412 434 473 395 C534 356 594 322 637 279 C660 256 679 228 694 196 C702 243 707 287 707 326 C707 431 675 507 628 566 C581 625 518 667 457 706 C426 725 397 744 368 762 C339 780 314 800 293 822 L293 822 Z "/>
<glyph glyph-name="dieresis" unicode="¨" horiz-adv-x="791" d="M99 1302 C99 1333 112 1361 133 1381 C153 1401 181 1414 212 1414 C243 1414 272 1401 293 1381 C313 1361 326 1333 326 1302 C326 1271 313 1243 293 1223 C272 1203 243 1190 212 1190 C181 1190 153 1203 133 1223 C112 1243 99 1271 99 1302 L99 1302 Z M465 1302 C465 1333 478 1361 499 1381 C519 1401 547 1414 578 1414 C609 1414 638 1401 659 1381 C679 1361 692 1333 692 1302 C692 1271 679 1243 659 1223 C638 1203 609 1190 578 1190 C547 1190 519 1203 499 1223 C478 1243 465 1271 465 1302 L465 1302 Z "/>
<glyph glyph-name="copyright" unicode="©" horiz-adv-x="1604" d="M80 709 C80 914 155 1100 284 1233 C412 1366 595 1448 808 1448 C1023 1448 1202 1366 1327 1234 C1452 1101 1524 917 1524 716 C1524 511 1449 326 1321 193 C1193 60 1011 -22 796 -22 C581 -22 402 60 277 193 C152 325 80 508 80 709 L80 709 Z M223 710 C223 549 281 402 382 296 C483 190 626 123 798 123 C970 123 1115 189 1218 296 C1321 403 1380 551 1380 715 C1380 876 1322 1023 1222 1130 C1121 1237 978 1303 806 1303 C693 1303 590 1274 503 1223 C416 1171 346 1098 298 1011 C250 923 223 819 223 710 L223 710 Z M1054 487 L1054 346 C971 303 899 288 823 288 C727 288 633 319 564 388 C495 456 449 561 449 712 C449 860 493 962 561 1029 C629 1096 723 1125 823 1125 C899 1125 971 1110 1054 1067 L1054 927 L1049 923 C978 955 908 974 841 974 C774 974 716 955 673 914 C629 873 603 809 603 717 C603 621 630 551 674 506 C718 461 780 440 849 440 C914 440 980 457 1049 490 L1054 487 Z "/>
<glyph glyph-name="guillemotleft" unicode="«" horiz-adv-x="1188" d="M544 1449 L676 1372 L295 714 L676 56 L544 -21 L120 714 L544 1449 Z M936 1449 L1068 1372 L687 714 L1068 56 L936 -21 L512 714 L936 1449 Z "/>
<glyph glyph-name="registered" unicode="®" horiz-adv-x="1218" d="M80 906 C80 1057 135 1192 229 1290 C323 1388 456 1448 613 1448 C770 1448 902 1387 994 1290 C1086 1193 1138 1059 1138 911 C1138 760 1083 626 990 528 C897 430 762 370 605 370 C446 370 316 431 224 528 C132 624 80 758 80 906 L80 906 Z M201 907 C201 792 241 690 312 615 C383 539 483 493 606 493 C727 493 830 539 902 615 C974 690 1016 794 1016 910 C1016 1023 976 1128 906 1203 C836 1278 733 1325 612 1325 C491 1325 388 1279 316 1203 C243 1127 201 1023 201 907 L201 907 Z M876 670 L796 618 C759 635 727 669 700 707 C673 745 653 785 638 816 C617 813 594 812 571 812 L506 812 L506 626 L398 626 L398 1196 L578 1196 C673 1196 737 1181 777 1150 C817 1119 833 1073 833 1010 C833 922 797 872 737 843 C746 818 767 783 792 752 C817 720 846 692 873 677 L876 670 Z M506 1095 L506 914 L574 914 C622 914 659 918 686 931 C713 943 727 966 727 1003 C727 1043 712 1066 687 1079 C662 1091 625 1095 581 1095 L506 1095 Z "/>
<glyph glyph-name="macron" unicode="¯" horiz-adv-x="842" d="M120 1338 L722 1338 L722 1194 L120 1194 L120 1338 Z "/>
<glyph glyph-name="degree" unicode="°" horiz-adv-x="814" d="M80 1000 C80 1093 114 1179 172 1240 C230 1300 313 1338 410 1338 C507 1338 589 1300 646 1240 C702 1179 734 1096 734 1005 C734 910 701 827 643 766 C585 705 501 668 404 668 C307 668 225 706 169 766 C112 826 80 909 80 1000 L80 1000 Z M220 1001 C220 949 239 902 271 867 C303 832 349 811 405 811 C461 811 509 832 542 868 C574 903 594 950 594 1005 C594 1057 575 1104 543 1139 C511 1174 465 1195 409 1195 C353 1195 305 1174 273 1139 C240 1103 220 1054 220 1001 L220 1001 Z "/>
<glyph glyph-name="plusminus" unicode="±" horiz-adv-x="1030" d="M592 1038 L592 720 L910 720 L910 566 L592 566 L592 248 L438 248 L438 566 L120 566 L120 720 L438 720 L438 1038 L592 1038 Z M910 0 L120 0 L120 154 L910 154 L910 0 Z "/>
<glyph glyph-name="acute" unicode="´" horiz-adv-x="662" d="M485 1558 C528 1535 565 1488 573 1433 C552 1401 488 1349 406 1301 C324 1253 225 1207 136 1190 C128 1197 118 1216 110 1238 C102 1260 95 1285 94 1305 C193 1349 277 1401 343 1447 C409 1493 457 1534 485 1558 L485 1558 Z "/>
<glyph glyph-name="paragraph" unicode="¶" horiz-adv-x="1334" d="M672 0 L518 0 L518 536 C453 536 381 540 317 557 C252 574 193 605 150 658 C106 710 80 786 80 893 C80 1024 120 1117 181 1182 C241 1247 322 1286 406 1309 C489 1332 574 1337 642 1337 C782 1337 910 1312 1013 1271 C1116 1230 1193 1172 1234 1108 L1132 1002 L1128 1002 C1083 1053 1028 1096 964 1128 L964 0 L803 0 L803 1181 C760 1188 719 1193 672 1193 L672 0 Z M518 1181 C410 1162 337 1123 290 1072 C243 1021 224 959 224 895 C224 815 256 764 309 733 C362 701 435 689 518 688 L518 1181 Z "/>
<glyph glyph-name="periodcentered" unicode="·" horiz-adv-x="387" d="M80 518 C80 549 93 577 114 597 C134 617 162 630 193 630 C224 630 253 617 274 597 C294 577 307 549 307 518 C307 487 294 459 274 439 C253 419 224 406 193 406 C162 406 134 419 114 439 C93 459 80 487 80 518 L80 518 Z "/>
<glyph glyph-name="cedilla" unicode="¸" horiz-adv-x="543" d="M197 0 L356 0 L356 -80 C397 -92 430 -117 454 -151 C477 -185 489 -228 489 -272 C489 -335 462 -386 418 -422 C373 -458 311 -478 240 -478 C180 -478 118 -462 66 -427 C70 -388 86 -340 113 -320 C156 -339 209 -353 253 -353 C277 -353 303 -346 323 -332 C343 -318 356 -298 356 -270 C356 -233 332 -205 301 -186 C269 -167 229 -159 197 -159 L197 0 Z "/>
<glyph glyph-name="guillemotright" unicode="»" horiz-adv-x="1188" d="M252 -21 L120 56 L500 714 L120 1372 L252 1449 L676 714 L252 -21 Z M644 -21 L512 56 L892 714 L512 1372 L644 1449 L1068 714 L644 -21 Z "/>
<glyph glyph-name="questiondown" unicode="¿" horiz-adv-x="975" d="M691 946 C691 915 678 887 658 867 C637 847 609 834 578 834 C547 834 518 847 498 867 C477 887 464 915 464 946 C464 977 477 1005 498 1025 C518 1045 547 1058 578 1058 C609 1058 637 1045 658 1025 C678 1005 691 977 691 946 L691 946 Z M814 -153 L856 -268 C824 -311 773 -346 713 -370 C653 -395 583 -410 511 -410 C414 -410 316 -384 243 -328 C170 -272 120 -186 120 -69 C120 12 144 71 180 122 C198 147 218 171 241 193 C286 236 336 281 381 334 C426 387 464 455 486 546 C497 591 502 644 502 704 L656 704 C656 575 632 478 596 402 C560 325 511 268 463 220 C439 196 415 174 392 153 C345 112 309 70 287 22 C276 -2 270 -29 270 -60 C270 -119 292 -170 335 -206 C378 -242 440 -263 523 -263 C580 -263 640 -252 690 -233 C740 -214 781 -186 805 -153 L814 -153 Z "/>
<glyph glyph-name="Agrave" unicode="À" horiz-adv-x="1164" d="M430 1838 C458 1814 507 1773 573 1727 C639 1681 722 1629 821 1585 C818 1565 812 1540 804 1518 C796 1496 787 1477 779 1470 C690 1487 592 1533 510 1581 C428 1629 363 1681 342 1713 C350 1768 387 1815 430 1838 L430 1838 Z M873 307 L291 307 L185 0 L25 0 L478 1318 L685 1318 L1139 0 L979 0 L873 307 Z M340 451 L824 451 L582 1152 L340 451 Z "/>
<glyph glyph-name="Aacute" unicode="Á" horiz-adv-x="1164" d="M733 1838 C776 1815 813 1768 821 1713 C800 1681 736 1629 654 1581 C572 1533 473 1487 384 1470 C376 1477 366 1496 358 1518 C350 1540 343 1565 342 1585 C441 1629 525 1681 591 1727 C657 1773 705 1814 733 1838 L733 1838 Z M873 307 L291 307 L185 0 L25 0 L478 1318 L685 1318 L1139 0 L979 0 L873 307 Z M340 451 L824 451 L582 1152 L340 451 Z "/>
<glyph glyph-name="Acircumflex" unicode="Â" horiz-adv-x="1164" d="M579 1666 C532 1623 486 1588 438 1557 C389 1525 339 1498 283 1470 C275 1477 265 1496 257 1518 C249 1540 241 1565 240 1585 C367 1653 474 1734 578 1834 L586 1834 C691 1734 796 1653 924 1585 C921 1565 915 1540 907 1518 C899 1496 889 1477 881 1470 C770 1523 677 1581 584 1666 L579 1666 Z M873 307 L291 307 L185 0 L25 0 L478 1318 L685 1318 L1139 0 L979 0 L873 307 Z M340 451 L824 451 L582 1152 L340 451 Z "/>
<glyph glyph-name="Atilde" unicode="Ã" horiz-adv-x="1164" d="M786 1728 C810 1732 835 1734 859 1731 C883 1728 907 1720 927 1701 C920 1642 892 1595 850 1561 C808 1527 753 1507 694 1507 C633 1507 598 1528 567 1549 C535 1570 509 1591 468 1591 C420 1591 377 1568 377 1513 L377 1507 C353 1503 328 1501 304 1504 C280 1507 256 1515 236 1534 C243 1593 272 1641 313 1675 C354 1709 409 1728 465 1728 C516 1728 552 1707 586 1686 C620 1665 652 1644 696 1644 C719 1644 741 1650 758 1663 C775 1675 786 1695 786 1722 L786 1728 Z M873 307 L291 307 L185 0 L25 0 L478 1318 L685 1318 L1139 0 L979 0 L873 307 Z M340 451 L824 451 L582 1152 L340 451 Z "/>
<glyph glyph-name="Adieresis" unicode="Ä" horiz-adv-x="1164" d="M285 1582 C285 1613 298 1641 319 1661 C339 1681 367 1694 398 1694 C429 1694 458 1681 479 1661 C499 1641 512 1613 512 1582 C512 1551 499 1523 479 1503 C458 1483 429 1470 398 1470 C367 1470 339 1483 319 1503 C298 1523 285 1551 285 1582 L285 1582 Z M651 1582 C651 1613 664 1641 685 1661 C705 1681 733 1694 764 1694 C795 1694 824 1681 845 1661 C865 1641 878 1613 878 1582 C878 1551 865 1523 845 1503 C824 1483 795 1470 764 1470 C733 1470 705 1483 685 1503 C664 1523 651 1551 651 1582 L651 1582 Z M873 307 L291 307 L185 0 L25 0 L478 1318 L685 1318 L1139 0 L979 0 L873 307 Z M340 451 L824 451 L582 1152 L340 451 Z "/>
<glyph glyph-name="Aring" unicode="Å" horiz-adv-x="1164" d="M185 0 L25 0 L477 1317 C420 1352 381 1415 381 1486 C381 1539 404 1589 440 1625 C476 1661 526 1683 581 1683 C634 1683 685 1661 722 1625 C759 1589 782 1539 782 1486 C782 1415 742 1353 685 1317 L1139 0 L979 0 L873 307 L291 307 L185 0 Z M500 1486 C500 1442 537 1405 581 1405 C625 1405 663 1442 663 1486 C663 1507 654 1527 639 1543 C623 1558 602 1567 581 1567 C558 1567 539 1558 524 1543 C509 1527 500 1507 500 1486 L500 1486 Z M340 451 L824 451 L582 1152 L340 451 Z "/>
<glyph glyph-name="AE" unicode="Æ" horiz-adv-x="1421" d="M873 307 L291 307 L185 0 L25 0 L478 1318 L1376 1318 L1376 1174 L734 1174 L887 731 L1376 731 L1376 587 L936 587 L1089 144 L1376 144 L1376 0 L979 0 L873 307 Z M340 451 L824 451 L582 1152 L340 451 Z "/>
<glyph glyph-name="Ccedilla" unicode="Ç" horiz-adv-x="1081" d="M637 -14 C450 6 311 86 219 207 C126 327 80 491 80 680 C84 865 138 1031 246 1149 C354 1267 517 1338 737 1338 C784 1338 838 1334 891 1327 C943 1320 996 1310 1041 1297 L1041 1155 L1034 1151 C987 1166 935 1176 884 1183 C833 1190 785 1193 745 1193 C574 1193 446 1138 362 1045 C277 952 234 817 234 660 C234 504 276 371 361 276 C446 181 573 125 745 125 C785 125 833 128 884 135 C935 142 987 152 1034 167 L1041 163 L1041 21 C969 0 879 -14 796 -18 L796 -80 C837 -92 870 -117 894 -151 C917 -185 929 -228 929 -272 C929 -335 902 -386 858 -422 C813 -458 751 -478 680 -478 C620 -478 558 -462 506 -427 C510 -388 526 -340 553 -320 C596 -339 649 -353 693 -353 C717 -353 743 -346 763 -332 C783 -318 796 -298 796 -270 C796 -233 772 -205 741 -186 C709 -167 669 -159 637 -159 L637 -14 Z "/>
<glyph glyph-name="Egrave" unicode="È" horiz-adv-x="998" d="M429 1838 C457 1814 506 1773 572 1727 C638 1681 721 1629 820 1585 C817 1565 811 1540 803 1518 C795 1496 786 1477 778 1470 C689 1487 591 1533 509 1581 C427 1629 362 1681 341 1713 C349 1768 386 1815 429 1838 L429 1838 Z M160 1318 L954 1318 L954 1174 L315 1174 L315 731 L954 731 L954 587 L315 587 L315 144 L954 144 L954 0 L160 0 L160 1318 Z "/>
<glyph glyph-name="Eacute" unicode="É" horiz-adv-x="998" d="M697 1838 C740 1815 777 1768 785 1713 C764 1681 700 1629 618 1581 C536 1533 437 1487 348 1470 C340 1477 330 1496 322 1518 C314 1540 307 1565 306 1585 C405 1629 489 1681 555 1727 C621 1773 669 1814 697 1838 L697 1838 Z M160 1318 L954 1318 L954 1174 L315 1174 L315 731 L954 731 L954 587 L315 587 L315 144 L954 144 L954 0 L160 0 L160 1318 Z "/>
<glyph glyph-name="Ecircumflex" unicode="Ê" horiz-adv-x="998" d="M565 1666 C518 1623 472 1588 424 1557 C375 1525 325 1498 269 1470 C261 1477 251 1496 243 1518 C235 1540 227 1565 226 1585 C353 1653 460 1734 564 1834 L572 1834 C677 1734 782 1653 910 1585 C907 1565 901 1540 893 1518 C885 1496 875 1477 867 1470 C756 1523 663 1581 570 1666 L565 1666 Z M160 1318 L954 1318 L954 1174 L315 1174 L315 731 L954 731 L954 587 L315 587 L315 144 L954 144 L954 0 L160 0 L160 1318 Z "/>
<glyph glyph-name="Edieresis" unicode="Ë" horiz-adv-x="998" d="M287 1582 C287 1613 300 1641 321 1661 C341 1681 369 1694 400 1694 C431 1694 460 1681 481 1661 C501 1641 514 1613 514 1582 C514 1551 501 1523 481 1503 C460 1483 431 1470 400 1470 C369 1470 341 1483 321 1503 C300 1523 287 1551 287 1582 L287 1582 Z M653 1582 C653 1613 666 1641 687 1661 C707 1681 735 1694 766 1694 C797 1694 826 1681 847 1661 C867 1641 880 1613 880 1582 C880 1551 867 1523 847 1503 C826 1483 797 1470 766 1470 C735 1470 707 1483 687 1503 C666 1523 653 1551 653 1582 L653 1582 Z M160 1318 L954 1318 L954 1174 L315 1174 L315 731 L954 731 L954 587 L315 587 L315 144 L954 144 L954 0 L160 0 L160 1318 Z "/>
<glyph glyph-name="Igrave" unicode="Ì" horiz-adv-x="474" d="M86 1838 C114 1814 163 1773 229 1727 C295 1681 378 1629 477 1585 C474 1565 468 1540 460 1518 C452 1496 443 1477 435 1470 C346 1487 248 1533 166 1581 C84 1629 19 1681 -2 1713 C6 1768 43 1815 86 1838 L86 1838 Z M160 1318 L314 1318 L314 0 L160 0 L160 1318 Z "/>
<glyph glyph-name="Iacute" unicode="Í" horiz-adv-x="474" d="M389 1838 C432 1815 469 1768 477 1713 C456 1681 392 1629 310 1581 C228 1533 129 1487 40 1470 C32 1477 22 1496 14 1518 C6 1540 -1 1565 -2 1585 C97 1629 181 1681 247 1727 C313 1773 361 1814 389 1838 L389 1838 Z M160 1318 L314 1318 L314 0 L160 0 L160 1318 Z "/>
<glyph glyph-name="Icircumflex" unicode="Î" horiz-adv-x="474" d="M234 1666 C187 1623 141 1588 93 1557 C44 1525 -6 1498 -62 1470 C-70 1477 -80 1496 -88 1518 C-96 1540 -104 1565 -105 1585 C22 1653 129 1734 233 1834 L241 1834 C346 1734 451 1653 579 1585 C576 1565 570 1540 562 1518 C554 1496 544 1477 536 1470 C425 1523 332 1581 239 1666 L234 1666 Z M160 1318 L314 1318 L314 0 L160 0 L160 1318 Z "/>
<glyph glyph-name="Idieresis" unicode="Ï" horiz-adv-x="474" d="M-59 1582 C-59 1613 -46 1641 -25 1661 C-5 1681 23 1694 54 1694 C85 1694 114 1681 135 1661 C155 1641 168 1613 168 1582 C168 1551 155 1523 135 1503 C114 1483 85 1470 54 1470 C23 1470 -5 1483 -25 1503 C-46 1523 -59 1551 -59 1582 L-59 1582 Z M307 1582 C307 1613 320 1641 341 1661 C361 1681 389 1694 420 1694 C451 1694 480 1681 501 1661 C521 1641 534 1613 534 1582 C534 1551 521 1523 501 1503 C480 1483 451 1470 420 1470 C389 1470 361 1483 341 1503 C320 1523 307 1551 307 1582 L307 1582 Z M160 1318 L314 1318 L314 0 L160 0 L160 1318 Z "/>
<glyph glyph-name="Eth" unicode="Ð" horiz-adv-x="1298" d="M-12 729 L160 729 L160 1318 L533 1318 C725 1318 897 1249 1020 1133 C1143 1016 1218 852 1218 660 C1218 468 1147 303 1028 187 C909 70 741 0 549 0 L160 0 L160 585 L-12 585 L-12 729 Z M315 1174 L315 729 L488 729 L488 585 L315 585 L315 144 L549 144 C709 144 837 196 926 284 C1014 372 1063 497 1063 644 C1063 801 1003 934 907 1027 C811 1120 678 1174 533 1174 L315 1174 Z "/>
<glyph glyph-name="Ntilde" unicode="Ñ" horiz-adv-x="1263" d="M836 1728 C860 1732 885 1734 909 1731 C933 1728 957 1720 977 1701 C970 1642 942 1595 900 1561 C858 1527 803 1507 744 1507 C683 1507 648 1528 617 1549 C585 1570 559 1591 518 1591 C470 1591 427 1568 427 1513 L427 1507 C403 1503 378 1501 354 1504 C330 1507 306 1515 286 1534 C293 1593 322 1641 363 1675 C404 1709 459 1728 515 1728 C566 1728 602 1707 636 1686 C670 1665 702 1644 746 1644 C769 1644 791 1650 808 1663 C825 1675 836 1695 836 1722 L836 1728 Z M315 1028 L315 0 L160 0 L160 1318 L321 1318 L958 299 L958 1318 L1113 1318 L1113 0 L958 0 L315 1028 Z "/>
<glyph glyph-name="Ograve" unicode="Ò" horiz-adv-x="1383" d="M540 1838 C568 1814 617 1773 683 1727 C749 1681 832 1629 931 1585 C928 1565 922 1540 914 1518 C906 1496 897 1477 889 1470 C800 1487 702 1533 620 1581 C538 1629 473 1681 452 1713 C460 1768 497 1815 540 1838 L540 1838 Z M80 660 C80 852 143 1021 252 1143 C361 1265 515 1338 698 1338 C881 1338 1032 1265 1138 1143 C1244 1021 1303 852 1303 660 C1303 468 1240 299 1132 177 C1024 55 870 -20 687 -20 C504 -20 353 54 247 176 C141 298 80 468 80 660 L80 660 Z M234 672 C234 517 276 381 355 283 C434 185 551 124 699 124 C843 124 956 180 1032 273 C1108 366 1149 497 1149 648 C1149 803 1109 940 1032 1038 C955 1136 842 1194 694 1194 C550 1194 435 1138 356 1045 C276 952 234 821 234 672 L234 672 Z "/>
<glyph glyph-name="Oacute" unicode="Ó" horiz-adv-x="1383" d="M843 1838 C886 1815 923 1768 931 1713 C910 1681 846 1629 764 1581 C682 1533 583 1487 494 1470 C486 1477 476 1496 468 1518 C460 1540 453 1565 452 1585 C551 1629 635 1681 701 1727 C767 1773 815 1814 843 1838 L843 1838 Z M80 660 C80 852 143 1021 252 1143 C361 1265 515 1338 698 1338 C881 1338 1032 1265 1138 1143 C1244 1021 1303 852 1303 660 C1303 468 1240 299 1132 177 C1024 55 870 -20 687 -20 C504 -20 353 54 247 176 C141 298 80 468 80 660 L80 660 Z M234 672 C234 517 276 381 355 283 C434 185 551 124 699 124 C843 124 956 180 1032 273 C1108 366 1149 497 1149 648 C1149 803 1109 940 1032 1038 C955 1136 842 1194 694 1194 C550 1194 435 1138 356 1045 C276 952 234 821 234 672 L234 672 Z "/>
<glyph glyph-name="Ocircumflex" unicode="Ô" horiz-adv-x="1383" d="M688 1666 C641 1623 595 1588 547 1557 C498 1525 448 1498 392 1470 C384 1477 374 1496 366 1518 C358 1540 350 1565 349 1585 C476 1653 583 1734 687 1834 L695 1834 C800 1734 905 1653 1033 1585 C1030 1565 1024 1540 1016 1518 C1008 1496 998 1477 990 1470 C879 1523 786 1581 693 1666 L688 1666 Z M80 660 C80 852 143 1021 252 1143 C361 1265 515 1338 698 1338 C881 1338 1032 1265 1138 1143 C1244 1021 1303 852 1303 660 C1303 468 1240 299 1132 177 C1024 55 870 -20 687 -20 C504 -20 353 54 247 176 C141 298 80 468 80 660 L80 660 Z M234 672 C234 517 276 381 355 283 C434 185 551 124 699 124 C843 124 956 180 1032 273 C1108 366 1149 497 1149 648 C1149 803 1109 940 1032 1038 C955 1136 842 1194 694 1194 C550 1194 435 1138 356 1045 C276 952 234 821 234 672 L234 672 Z "/>
<glyph glyph-name="Otilde" unicode="Õ" horiz-adv-x="1383" d="M896 1728 C920 1732 945 1734 969 1731 C993 1728 1017 1720 1037 1701 C1030 1642 1002 1595 960 1561 C918 1527 863 1507 804 1507 C743 1507 708 1528 677 1549 C645 1570 619 1591 578 1591 C530 1591 487 1568 487 1513 L487 1507 C463 1503 438 1501 414 1504 C390 1507 366 1515 346 1534 C353 1593 382 1641 423 1675 C464 1709 519 1728 575 1728 C626 1728 662 1707 696 1686 C730 1665 762 1644 806 1644 C829 1644 851 1650 868 1663 C885 1675 896 1695 896 1722 L896 1728 Z M80 660 C80 852 143 1021 252 1143 C361 1265 515 1338 698 1338 C881 1338 1032 1265 1138 1143 C1244 1021 1303 852 1303 660 C1303 468 1240 299 1132 177 C1024 55 870 -20 687 -20 C504 -20 353 54 247 176 C141 298 80 468 80 660 L80 660 Z M234 672 C234 517 276 381 355 283 C434 185 551 124 699 124 C843 124 956 180 1032 273 C1108 366 1149 497 1149 648 C1149 803 1109 940 1032 1038 C955 1136 842 1194 694 1194 C550 1194 435 1138 356 1045 C276 952 234 821 234 672 L234 672 Z "/>
<glyph glyph-name="Odieresis" unicode="Ö" horiz-adv-x="1383" d="M395 1582 C395 1613 408 1641 429 1661 C449 1681 477 1694 508 1694 C539 1694 568 1681 589 1661 C609 1641 622 1613 622 1582 C622 1551 609 1523 589 1503 C568 1483 539 1470 508 1470 C477 1470 449 1483 429 1503 C408 1523 395 1551 395 1582 L395 1582 Z M761 1582 C761 1613 774 1641 795 1661 C815 1681 843 1694 874 1694 C905 1694 934 1681 955 1661 C975 1641 988 1613 988 1582 C988 1551 975 1523 955 1503 C934 1483 905 1470 874 1470 C843 1470 815 1483 795 1503 C774 1523 761 1551 761 1582 L761 1582 Z M80 660 C80 852 143 1021 252 1143 C361 1265 515 1338 698 1338 C881 1338 1032 1265 1138 1143 C1244 1021 1303 852 1303 660 C1303 468 1240 299 1132 177 C1024 55 870 -20 687 -20 C504 -20 353 54 247 176 C141 298 80 468 80 660 L80 660 Z M234 672 C234 517 276 381 355 283 C434 185 551 124 699 124 C843 124 956 180 1032 273 C1108 366 1149 497 1149 648 C1149 803 1109 940 1032 1038 C955 1136 842 1194 694 1194 C550 1194 435 1138 356 1045 C276 952 234 821 234 672 L234 672 Z "/>
<glyph glyph-name="multiply" unicode="×" horiz-adv-x="908" d="M120 290 L345 515 L120 740 L229 849 L454 624 L679 849 L788 740 L563 515 L788 290 L679 181 L454 406 L229 181 L120 290 Z "/>
<glyph glyph-name="Oslash" unicode="Ø" horiz-adv-x="1383" d="M486 -221 L342 -168 L418 42 C313 95 229 180 171 286 C113 392 80 520 80 660 C80 852 143 1021 252 1143 C361 1265 515 1338 698 1338 C763 1338 823 1328 880 1311 L930 1448 L1074 1395 L1019 1245 C1108 1186 1179 1104 1228 1004 C1276 904 1303 787 1303 660 C1303 468 1240 299 1132 177 C1024 55 870 -20 687 -20 C644 -20 603 -16 563 -8 L486 -221 Z M830 1174 C788 1187 743 1194 694 1194 C550 1194 435 1138 356 1045 C276 952 234 821 234 672 C234 564 255 463 295 379 C334 295 393 227 469 183 L830 1174 Z M614 131 C639 126 668 124 699 124 C843 124 956 180 1032 273 C1108 366 1149 497 1149 648 C1149 841 1086 1006 967 1103 L614 131 Z "/>
<glyph glyph-name="Ugrave" unicode="Ù" horiz-adv-x="1403" d="M550 1838 C578 1814 627 1773 693 1727 C759 1681 842 1629 941 1585 C938 1565 932 1540 924 1518 C916 1496 907 1477 899 1470 C810 1487 712 1533 630 1581 C548 1629 483 1681 462 1713 C470 1768 507 1815 550 1838 L550 1838 Z M1036 1318 L1190 1318 L1190 490 C1190 341 1160 233 1112 158 C1064 82 998 37 925 12 C852 -13 772 -20 697 -20 C622 -20 544 -13 472 12 C399 37 334 81 286 157 C238 233 209 339 209 490 L209 1318 L363 1318 L363 540 C363 409 382 318 414 257 C445 196 490 162 539 143 C588 124 643 122 696 122 C755 122 812 125 863 145 C914 164 956 198 987 260 C1018 322 1036 411 1036 540 L1036 1318 Z "/>
<glyph glyph-name="Uacute" unicode="Ú" horiz-adv-x="1403" d="M853 1838 C896 1815 933 1768 941 1713 C920 1681 856 1629 774 1581 C692 1533 593 1487 504 1470 C496 1477 486 1496 478 1518 C470 1540 463 1565 462 1585 C561 1629 645 1681 711 1727 C777 1773 825 1814 853 1838 L853 1838 Z M1036 1318 L1190 1318 L1190 490 C1190 341 1160 233 1112 158 C1064 82 998 37 925 12 C852 -13 772 -20 697 -20 C622 -20 544 -13 472 12 C399 37 334 81 286 157 C238 233 209 339 209 490 L209 1318 L363 1318 L363 540 C363 409 382 318 414 257 C445 196 490 162 539 143 C588 124 643 122 696 122 C755 122 812 125 863 145 C914 164 956 198 987 260 C1018 322 1036 411 1036 540 L1036 1318 Z "/>
<glyph glyph-name="Ucircumflex" unicode="Û" horiz-adv-x="1403" d="M698 1666 C651 1623 605 1588 557 1557 C508 1525 458 1498 402 1470 C394 1477 384 1496 376 1518 C368 1540 360 1565 359 1585 C486 1653 593 1734 697 1834 L705 1834 C810 1734 915 1653 1043 1585 C1040 1565 1034 1540 1026 1518 C1018 1496 1008 1477 1000 1470 C889 1523 796 1581 703 1666 L698 1666 Z M1036 1318 L1190 1318 L1190 490 C1190 341 1160 233 1112 158 C1064 82 998 37 925 12 C852 -13 772 -20 697 -20 C622 -20 544 -13 472 12 C399 37 334 81 286 157 C238 233 209 339 209 490 L209 1318 L363 1318 L363 540 C363 409 382 318 414 257 C445 196 490 162 539 143 C588 124 643 122 696 122 C755 122 812 125 863 145 C914 164 956 198 987 260 C1018 322 1036 411 1036 540 L1036 1318 Z "/>
<glyph glyph-name="Udieresis" unicode="Ü" horiz-adv-x="1403" d="M405 1582 C405 1613 418 1641 439 1661 C459 1681 487 1694 518 1694 C549 1694 578 1681 599 1661 C619 1641 632 1613 632 1582 C632 1551 619 1523 599 1503 C578 1483 549 1470 518 1470 C487 1470 459 1483 439 1503 C418 1523 405 1551 405 1582 L405 1582 Z M771 1582 C771 1613 784 1641 805 1661 C825 1681 853 1694 884 1694 C915 1694 944 1681 965 1661 C985 1641 998 1613 998 1582 C998 1551 985 1523 965 1503 C944 1483 915 1470 884 1470 C853 1470 825 1483 805 1503 C784 1523 771 1551 771 1582 L771 1582 Z M1036 1318 L1190 1318 L1190 490 C1190 341 1160 233 1112 158 C1064 82 998 37 925 12 C852 -13 772 -20 697 -20 C622 -20 544 -13 472 12 C399 37 334 81 286 157 C238 233 209 339 209 490 L209 1318 L363 1318 L363 540 C363 409 382 318 414 257 C445 196 490 162 539 143 C588 124 643 122 696 122 C755 122 812 125 863 145 C914 164 956 198 987 260 C1018 322 1036 411 1036 540 L1036 1318 Z "/>
<glyph glyph-name="Yacute" unicode="Ý" horiz-adv-x="1010" d="M656 1838 C699 1815 736 1768 744 1713 C723 1681 659 1629 577 1581 C495 1533 396 1487 307 1470 C299 1477 289 1496 281 1518 C273 1540 266 1565 265 1585 C364 1629 448 1681 514 1727 C580 1773 628 1814 656 1838 L656 1838 Z M505 650 L831 1318 L985 1318 L582 492 L582 0 L428 0 L428 492 L25 1318 L179 1318 L505 650 Z "/>
<glyph glyph-name="Thorn" unicode="Þ" horiz-adv-x="600" d=""/>
<glyph glyph-name="germandbls" unicode="ß" horiz-adv-x="1161" d="M473 172 L479 177 C510 165 550 152 592 142 C634 132 676 125 715 125 C764 125 819 137 862 163 C905 189 936 229 936 288 C936 345 908 381 865 408 C843 421 818 433 791 443 C736 463 677 484 622 512 C567 540 523 581 497 641 C484 671 477 708 477 752 C477 869 511 937 556 981 C578 1002 602 1019 628 1032 C680 1056 727 1077 757 1106 C772 1121 779 1142 779 1169 C779 1217 753 1251 714 1273 C675 1295 624 1304 573 1304 C478 1304 414 1270 374 1218 C333 1166 315 1097 315 1026 L315 0 L160 0 L160 1026 C160 1175 197 1281 268 1349 C339 1417 442 1448 573 1448 C669 1448 761 1431 829 1386 C897 1341 941 1268 941 1155 C941 1080 922 1033 894 998 C866 963 828 944 790 926 L733 899 C696 882 666 859 647 824 C637 807 631 785 630 758 C633 702 662 669 706 643 C728 630 753 618 780 609 C835 590 894 571 948 545 C1002 519 1046 478 1072 418 C1085 388 1091 351 1091 308 C1091 199 1047 117 977 62 C907 7 810 -20 706 -20 C622 -20 541 -2 473 27 L473 172 Z "/>
<glyph glyph-name="agrave" unicode="à" horiz-adv-x="1022" d="M359 1558 C387 1534 436 1493 502 1447 C568 1401 651 1349 750 1305 C747 1285 741 1260 733 1238 C725 1216 716 1197 708 1190 C619 1207 521 1253 439 1301 C357 1349 292 1401 271 1433 C279 1488 316 1535 359 1558 L359 1558 Z M894 -20 C821 4 770 57 737 125 C701 84 655 48 602 22 C549 -4 486 -20 417 -20 C348 -20 264 -5 197 43 C129 91 80 171 80 300 C80 396 108 471 172 523 C236 574 335 600 476 600 C532 600 593 596 685 588 L685 717 C685 794 663 845 628 875 C592 905 542 915 489 915 C436 915 386 910 335 899 C284 887 233 869 177 841 L137 976 C206 1004 260 1024 317 1038 C373 1052 433 1058 516 1058 C601 1058 683 1039 742 987 C801 935 839 850 839 717 L839 387 C839 332 842 277 862 230 C882 182 918 145 982 125 L894 -20 Z M685 457 C542 458 429 460 352 441 C275 421 233 381 233 300 C233 224 268 180 308 155 C347 130 389 124 405 124 C460 124 530 131 586 167 C642 202 685 264 685 373 L685 457 Z "/>
<glyph glyph-name="aacute" unicode="á" horiz-adv-x="1022" d="M662 1558 C705 1535 742 1488 750 1433 C729 1401 665 1349 583 1301 C501 1253 402 1207 313 1190 C305 1197 295 1216 287 1238 C279 1260 272 1285 271 1305 C370 1349 454 1401 520 1447 C586 1493 634 1534 662 1558 L662 1558 Z M894 -20 C821 4 770 57 737 125 C701 84 655 48 602 22 C549 -4 486 -20 417 -20 C348 -20 264 -5 197 43 C129 91 80 171 80 300 C80 396 108 471 172 523 C236 574 335 600 476 600 C532 600 593 596 685 588 L685 717 C685 794 663 845 628 875 C592 905 542 915 489 915 C436 915 386 910 335 899 C284 887 233 869 177 841 L137 976 C206 1004 260 1024 317 1038 C373 1052 433 1058 516 1058 C601 1058 683 1039 742 987 C801 935 839 850 839 717 L839 387 C839 332 842 277 862 230 C882 182 918 145 982 125 L894 -20 Z M685 457 C542 458 429 460 352 441 C275 421 233 381 233 300 C233 224 268 180 308 155 C347 130 389 124 405 124 C460 124 530 131 586 167 C642 202 685 264 685 373 L685 457 Z "/>
<glyph glyph-name="acircumflex" unicode="â" horiz-adv-x="1022" d="M508 1386 C461 1343 415 1308 367 1277 C318 1245 268 1218 212 1190 C204 1197 194 1216 186 1238 C178 1260 170 1285 169 1305 C296 1373 403 1454 507 1554 L515 1554 C620 1454 725 1373 853 1305 C850 1285 844 1260 836 1238 C828 1216 818 1197 810 1190 C699 1243 606 1301 513 1386 L508 1386 Z M894 -20 C821 4 770 57 737 125 C701 84 655 48 602 22 C549 -4 486 -20 417 -20 C348 -20 264 -5 197 43 C129 91 80 171 80 300 C80 396 108 471 172 523 C236 574 335 600 476 600 C532 600 593 596 685 588 L685 717 C685 794 663 845 628 875 C592 905 542 915 489 915 C436 915 386 910 335 899 C284 887 233 869 177 841 L137 976 C206 1004 260 1024 317 1038 C373 1052 433 1058 516 1058 C601 1058 683 1039 742 987 C801 935 839 850 839 717 L839 387 C839 332 842 277 862 230 C882 182 918 145 982 125 L894 -20 Z M685 457 C542 458 429 460 352 441 C275 421 233 381 233 300 C233 224 268 180 308 155 C347 130 389 124 405 124 C460 124 530 131 586 167 C642 202 685 264 685 373 L685 457 Z "/>
<glyph glyph-name="atilde" unicode="ã" horiz-adv-x="1022" d="M715 1448 C739 1452 764 1454 788 1451 C812 1448 836 1440 856 1421 C849 1362 821 1315 779 1281 C737 1247 682 1227 623 1227 C562 1227 527 1248 496 1269 C464 1290 438 1311 397 1311 C349 1311 306 1288 306 1233 L306 1227 C282 1223 257 1221 233 1224 C209 1227 185 1235 165 1254 C172 1313 201 1361 242 1395 C283 1429 338 1448 394 1448 C445 1448 481 1427 515 1406 C549 1385 581 1364 625 1364 C648 1364 670 1370 687 1383 C704 1395 715 1415 715 1442 L715 1448 Z M894 -20 C821 4 770 57 737 125 C701 84 655 48 602 22 C549 -4 486 -20 417 -20 C348 -20 264 -5 197 43 C129 91 80 171 80 300 C80 396 108 471 172 523 C236 574 335 600 476 600 C532 600 593 596 685 588 L685 717 C685 794 663 845 628 875 C592 905 542 915 489 915 C436 915 386 910 335 899 C284 887 233 869 177 841 L137 976 C206 1004 260 1024 317 1038 C373 1052 433 1058 516 1058 C601 1058 683 1039 742 987 C801 935 839 850 839 717 L839 387 C839 332 842 277 862 230 C882 182 918 145 982 125 L894 -20 Z M685 457 C542 458 429 460 352 441 C275 421 233 381 233 300 C233 224 268 180 308 155 C347 130 389 124 405 124 C460 124 530 131 586 167 C642 202 685 264 685 373 L685 457 Z "/>
<glyph glyph-name="adieresis" unicode="ä" horiz-adv-x="1022" d="M214 1302 C214 1333 227 1361 248 1381 C268 1401 296 1414 327 1414 C358 1414 387 1401 408 1381 C428 1361 441 1333 441 1302 C441 1271 428 1243 408 1223 C387 1203 358 1190 327 1190 C296 1190 268 1203 248 1223 C227 1243 214 1271 214 1302 L214 1302 Z M580 1302 C580 1333 593 1361 614 1381 C634 1401 662 1414 693 1414 C724 1414 753 1401 774 1381 C794 1361 807 1333 807 1302 C807 1271 794 1243 774 1223 C753 1203 724 1190 693 1190 C662 1190 634 1203 614 1223 C593 1243 580 1271 580 1302 L580 1302 Z M894 -20 C821 4 770 57 737 125 C701 84 655 48 602 22 C549 -4 486 -20 417 -20 C348 -20 264 -5 197 43 C129 91 80 171 80 300 C80 396 108 471 172 523 C236 574 335 600 476 600 C532 600 593 596 685 588 L685 717 C685 794 663 845 628 875 C592 905 542 915 489 915 C436 915 386 910 335 899 C284 887 233 869 177 841 L137 976 C206 1004 260 1024 317 1038 C373 1052 433 1058 516 1058 C601 1058 683 1039 742 987 C801 935 839 850 839 717 L839 387 C839 332 842 277 862 230 C882 182 918 145 982 125 L894 -20 Z M685 457 C542 458 429 460 352 441 C275 421 233 381 233 300 C233 224 268 180 308 155 C347 130 389 124 405 124 C460 124 530 131 586 167 C642 202 685 264 685 373 L685 457 Z "/>
<glyph glyph-name="aring" unicode="å" horiz-adv-x="1022" d="M316 1367 C316 1420 339 1470 375 1506 C411 1542 461 1564 516 1564 C569 1564 620 1542 657 1506 C694 1470 717 1420 717 1367 C717 1314 694 1264 657 1228 C620 1191 569 1168 516 1168 C461 1168 411 1191 375 1228 C339 1264 316 1314 316 1367 L316 1367 Z M435 1367 C435 1323 472 1286 516 1286 C560 1286 598 1323 598 1367 C598 1388 589 1408 574 1424 C558 1439 537 1448 516 1448 C493 1448 474 1439 459 1424 C444 1408 435 1388 435 1367 L435 1367 Z M894 -20 C821 4 770 57 737 125 C701 84 655 48 602 22 C549 -4 486 -20 417 -20 C348 -20 264 -5 197 43 C129 91 80 171 80 300 C80 396 108 471 172 523 C236 574 335 600 476 600 C532 600 593 596 685 588 L685 717 C685 794 663 845 628 875 C592 905 542 915 489 915 C436 915 386 910 335 899 C284 887 233 869 177 841 L137 976 C206 1004 260 1024 317 1038 C373 1052 433 1058 516 1058 C601 1058 683 1039 742 987 C801 935 839 850 839 717 L839 387 C839 332 842 277 862 230 C882 182 918 145 982 125 L894 -20 Z M685 457 C542 458 429 460 352 441 C275 421 233 381 233 300 C233 224 268 180 308 155 C347 130 389 124 405 124 C460 124 530 131 586 167 C642 202 685 264 685 373 L685 457 Z "/>
<glyph glyph-name="ae" unicode="æ" horiz-adv-x="1535" d="M1485 480 L838 480 C846 360 888 271 949 212 C1010 153 1092 124 1181 124 C1274 124 1366 150 1461 198 L1464 197 L1464 54 C1356 1 1262 -20 1166 -20 C1009 -20 865 42 776 177 C760 149 721 103 676 68 C631 32 578 6 516 -9 C485 -16 452 -20 417 -20 C348 -20 264 -5 197 43 C129 91 80 171 80 300 C80 396 108 471 172 523 C236 574 335 600 476 600 C532 600 593 596 685 588 L685 717 C685 794 663 845 628 875 C592 905 542 915 489 915 C436 915 386 910 335 899 C284 887 233 869 177 841 L137 976 C206 1004 260 1024 317 1038 C373 1052 433 1058 516 1058 C575 1058 631 1050 680 1027 C728 1004 769 968 797 915 C870 1004 978 1058 1130 1058 C1237 1058 1311 1031 1364 988 C1416 945 1447 886 1464 821 C1481 756 1485 685 1485 620 L1485 480 Z M1333 620 C1332 700 1321 773 1290 827 C1259 881 1208 914 1127 914 C1048 914 985 883 937 831 C889 779 858 705 845 620 L1333 620 Z M685 457 C542 458 429 460 352 441 C275 421 233 381 233 300 C233 224 268 180 308 155 C347 130 389 124 405 124 C460 124 530 131 586 167 C642 202 685 264 685 373 L685 457 Z "/>
<glyph glyph-name="ccedilla" unicode="ç" horiz-adv-x="899" d="M459 -10 C355 10 261 60 192 148 C123 235 80 359 80 526 C80 717 136 850 224 935 C312 1020 433 1058 562 1058 C658 1058 752 1037 859 984 L859 848 L852 843 C759 890 667 914 578 914 C483 914 398 888 335 828 C272 767 233 671 233 532 C233 392 272 290 335 223 C398 156 483 124 578 124 C667 124 760 148 852 195 L859 190 L859 54 C772 11 695 -10 618 -17 L618 -80 C659 -92 692 -117 716 -151 C739 -185 751 -228 751 -272 C751 -335 724 -386 680 -422 C635 -458 573 -478 502 -478 C442 -478 380 -462 328 -427 C332 -388 348 -340 375 -320 C418 -339 471 -353 515 -353 C539 -353 565 -346 585 -332 C605 -318 618 -298 618 -270 C618 -233 594 -205 563 -186 C531 -167 491 -159 459 -159 L459 -10 Z "/>
<glyph glyph-name="egrave" unicode="è" horiz-adv-x="931" d="M391 1558 C419 1534 468 1493 534 1447 C600 1401 683 1349 782 1305 C779 1285 773 1260 765 1238 C757 1216 748 1197 740 1190 C651 1207 553 1253 471 1301 C389 1349 324 1401 303 1433 C311 1488 348 1535 391 1558 L391 1558 Z M881 480 L234 480 C242 360 284 271 345 212 C406 153 488 124 577 124 C670 124 762 150 857 198 L860 197 L860 54 C752 1 658 -20 562 -20 C433 -20 312 23 224 113 C136 203 80 340 80 532 C80 680 114 813 187 907 C259 1001 370 1058 526 1058 C633 1058 707 1031 760 988 C812 945 843 886 860 821 C877 756 881 685 881 620 L881 480 Z M729 620 C728 700 717 773 686 827 C655 881 604 914 523 914 C444 914 381 883 333 831 C285 779 254 705 241 620 L729 620 Z "/>
<glyph glyph-name="eacute" unicode="é" horiz-adv-x="931" d="M681 1558 C724 1535 761 1488 769 1433 C748 1401 684 1349 602 1301 C520 1253 421 1207 332 1190 C324 1197 314 1216 306 1238 C298 1260 291 1285 290 1305 C389 1349 473 1401 539 1447 C605 1493 653 1534 681 1558 L681 1558 Z M881 480 L234 480 C242 360 284 271 345 212 C406 153 488 124 577 124 C670 124 762 150 857 198 L860 197 L860 54 C752 1 658 -20 562 -20 C433 -20 312 23 224 113 C136 203 80 340 80 532 C80 680 114 813 187 907 C259 1001 370 1058 526 1058 C633 1058 707 1031 760 988 C812 945 843 886 860 821 C877 756 881 685 881 620 L881 480 Z M729 620 C728 700 717 773 686 827 C655 881 604 914 523 914 C444 914 381 883 333 831 C285 779 254 705 241 620 L729 620 Z "/>
<glyph glyph-name="ecircumflex" unicode="ê" horiz-adv-x="931" d="M523 1386 C476 1343 430 1308 382 1277 C333 1245 283 1218 227 1190 C219 1197 209 1216 201 1238 C193 1260 185 1285 184 1305 C311 1373 418 1454 522 1554 L530 1554 C635 1454 740 1373 868 1305 C865 1285 859 1260 851 1238 C843 1216 833 1197 825 1190 C714 1243 621 1301 528 1386 L523 1386 Z M881 480 L234 480 C242 360 284 271 345 212 C406 153 488 124 577 124 C670 124 762 150 857 198 L860 197 L860 54 C752 1 658 -20 562 -20 C433 -20 312 23 224 113 C136 203 80 340 80 532 C80 680 114 813 187 907 C259 1001 370 1058 526 1058 C633 1058 707 1031 760 988 C812 945 843 886 860 821 C877 756 881 685 881 620 L881 480 Z M729 620 C728 700 717 773 686 827 C655 881 604 914 523 914 C444 914 381 883 333 831 C285 779 254 705 241 620 L729 620 Z "/>
<glyph glyph-name="edieresis" unicode="ë" horiz-adv-x="931" d="M218 1302 C218 1333 231 1361 252 1381 C272 1401 300 1414 331 1414 C362 1414 391 1401 412 1381 C432 1361 445 1333 445 1302 C445 1271 432 1243 412 1223 C391 1203 362 1190 331 1190 C300 1190 272 1203 252 1223 C231 1243 218 1271 218 1302 L218 1302 Z M584 1302 C584 1333 597 1361 618 1381 C638 1401 666 1414 697 1414 C728 1414 757 1401 778 1381 C798 1361 811 1333 811 1302 C811 1271 798 1243 778 1223 C757 1203 728 1190 697 1190 C666 1190 638 1203 618 1223 C597 1243 584 1271 584 1302 L584 1302 Z M881 480 L234 480 C242 360 284 271 345 212 C406 153 488 124 577 124 C670 124 762 150 857 198 L860 197 L860 54 C752 1 658 -20 562 -20 C433 -20 312 23 224 113 C136 203 80 340 80 532 C80 680 114 813 187 907 C259 1001 370 1058 526 1058 C633 1058 707 1031 760 988 C812 945 843 886 860 821 C877 756 881 685 881 620 L881 480 Z M729 620 C728 700 717 773 686 827 C655 881 604 914 523 914 C444 914 381 883 333 831 C285 779 254 705 241 620 L729 620 Z "/>
<glyph glyph-name="igrave" unicode="ì" horiz-adv-x="535" d="M116 1558 C144 1534 193 1493 259 1447 C325 1401 408 1349 507 1305 C504 1285 498 1260 490 1238 C482 1216 473 1197 465 1190 C376 1207 278 1253 196 1301 C114 1349 49 1401 28 1433 C36 1488 73 1535 116 1558 L116 1558 Z M190 1038 L344 1038 L344 0 L190 0 L190 1038 Z "/>
<glyph glyph-name="iacute" unicode="í" horiz-adv-x="535" d="M419 1558 C462 1535 499 1488 507 1433 C486 1401 422 1349 340 1301 C258 1253 159 1207 70 1190 C62 1197 52 1216 44 1238 C36 1260 29 1285 28 1305 C127 1349 211 1401 277 1447 C343 1493 391 1534 419 1558 L419 1558 Z M190 1038 L344 1038 L344 0 L190 0 L190 1038 Z "/>
<glyph glyph-name="icircumflex" unicode="î" horiz-adv-x="535" d="M265 1386 C218 1343 172 1308 124 1277 C75 1245 25 1218 -31 1190 C-39 1197 -49 1216 -57 1238 C-65 1260 -73 1285 -74 1305 C53 1373 160 1454 264 1554 L272 1554 C377 1454 482 1373 610 1305 C607 1285 601 1260 593 1238 C585 1216 575 1197 567 1190 C456 1243 363 1301 270 1386 L265 1386 Z M190 1038 L344 1038 L344 0 L190 0 L190 1038 Z "/>
<glyph glyph-name="idieresis" unicode="ï" horiz-adv-x="535" d="M-29 1302 C-29 1333 -16 1361 5 1381 C25 1401 53 1414 84 1414 C115 1414 144 1401 165 1381 C185 1361 198 1333 198 1302 C198 1271 185 1243 165 1223 C144 1203 115 1190 84 1190 C53 1190 25 1203 5 1223 C-16 1243 -29 1271 -29 1302 L-29 1302 Z M337 1302 C337 1333 350 1361 371 1381 C391 1401 419 1414 450 1414 C481 1414 510 1401 531 1381 C551 1361 564 1333 564 1302 C564 1271 551 1243 531 1223 C510 1203 481 1190 450 1190 C419 1190 391 1203 371 1223 C350 1243 337 1271 337 1302 L337 1302 Z M190 1038 L344 1038 L344 0 L190 0 L190 1038 Z "/>
<glyph glyph-name="eth" unicode="ð" horiz-adv-x="1092" d="M320 1449 C387 1426 493 1374 605 1290 L881 1391 L924 1276 L713 1198 C793 1122 867 1027 922 915 C977 803 1012 672 1012 521 C1012 344 964 209 882 118 C800 26 682 -20 546 -20 C402 -20 285 33 205 122 C124 211 80 338 80 485 C80 637 128 764 210 855 C292 946 410 998 551 998 C614 998 671 988 722 968 C687 1027 639 1085 567 1145 L272 1037 L229 1152 L445 1231 C387 1268 319 1304 240 1339 L320 1449 Z M235 494 C235 386 260 293 312 228 C364 163 444 124 553 124 C656 124 731 158 782 220 C833 282 857 371 857 483 C857 592 833 686 782 751 C731 816 654 854 546 854 C442 854 364 819 313 757 C261 695 235 603 235 494 L235 494 Z "/>
<glyph glyph-name="ntilde" unicode="ñ" horiz-adv-x="1121" d="M765 1448 C789 1452 814 1454 838 1451 C862 1448 886 1440 906 1421 C899 1362 871 1315 829 1281 C787 1247 732 1227 673 1227 C612 1227 577 1248 546 1269 C514 1290 488 1311 447 1311 C399 1311 356 1288 356 1233 L356 1227 C332 1223 307 1221 283 1224 C259 1227 235 1235 215 1254 C222 1313 251 1361 292 1395 C333 1429 388 1448 444 1448 C495 1448 531 1427 565 1406 C599 1385 631 1364 675 1364 C698 1364 720 1370 737 1383 C754 1395 765 1415 765 1442 L765 1448 Z M160 1038 L264 1038 L293 942 C336 970 388 999 443 1021 C498 1043 555 1058 604 1058 C703 1058 794 1033 862 971 C929 909 971 811 971 664 L971 0 L816 0 L816 655 C816 755 790 820 750 860 C709 900 652 915 589 915 C541 915 492 902 445 883 C398 864 355 839 315 815 L315 0 L160 0 L160 1038 Z "/>
<glyph glyph-name="ograve" unicode="ò" horiz-adv-x="1112" d="M421 1558 C449 1534 498 1493 564 1447 C630 1401 713 1349 812 1305 C809 1285 803 1260 795 1238 C787 1216 778 1197 770 1190 C681 1207 583 1253 501 1301 C419 1349 354 1401 333 1433 C341 1488 378 1535 421 1558 L421 1558 Z M80 516 C80 667 130 802 215 900 C299 998 419 1058 560 1058 C701 1058 821 997 903 900 C985 803 1032 669 1032 521 C1032 370 983 236 899 138 C814 40 693 -20 552 -20 C409 -20 292 41 210 138 C128 234 80 368 80 516 L80 516 Z M235 524 C235 416 262 315 317 243 C372 170 453 124 561 124 C665 124 744 166 797 235 C850 304 877 402 877 513 C877 622 850 723 797 796 C744 869 664 914 556 914 C452 914 372 872 318 802 C264 732 235 633 235 524 L235 524 Z "/>
<glyph glyph-name="oacute" unicode="ó" horiz-adv-x="1112" d="M707 1558 C750 1535 787 1488 795 1433 C774 1401 710 1349 628 1301 C546 1253 447 1207 358 1190 C350 1197 340 1216 332 1238 C324 1260 317 1285 316 1305 C415 1349 499 1401 565 1447 C631 1493 679 1534 707 1558 L707 1558 Z M80 516 C80 667 130 802 215 900 C299 998 419 1058 560 1058 C701 1058 821 997 903 900 C985 803 1032 669 1032 521 C1032 370 983 236 899 138 C814 40 693 -20 552 -20 C409 -20 292 41 210 138 C128 234 80 368 80 516 L80 516 Z M235 524 C235 416 262 315 317 243 C372 170 453 124 561 124 C665 124 744 166 797 235 C850 304 877 402 877 513 C877 622 850 723 797 796 C744 869 664 914 556 914 C452 914 372 872 318 802 C264 732 235 633 235 524 L235 524 Z "/>
<glyph glyph-name="ocircumflex" unicode="ô" horiz-adv-x="1112" d="M553 1386 C506 1343 460 1308 412 1277 C363 1245 313 1218 257 1190 C249 1197 239 1216 231 1238 C223 1260 215 1285 214 1305 C341 1373 448 1454 552 1554 L560 1554 C665 1454 770 1373 898 1305 C895 1285 889 1260 881 1238 C873 1216 863 1197 855 1190 C744 1243 651 1301 558 1386 L553 1386 Z M80 516 C80 667 130 802 215 900 C299 998 419 1058 560 1058 C701 1058 821 997 903 900 C985 803 1032 669 1032 521 C1032 370 983 236 899 138 C814 40 693 -20 552 -20 C409 -20 292 41 210 138 C128 234 80 368 80 516 L80 516 Z M235 524 C235 416 262 315 317 243 C372 170 453 124 561 124 C665 124 744 166 797 235 C850 304 877 402 877 513 C877 622 850 723 797 796 C744 869 664 914 556 914 C452 914 372 872 318 802 C264 732 235 633 235 524 L235 524 Z "/>
<glyph glyph-name="otilde" unicode="õ" horiz-adv-x="1112" d="M760 1448 C784 1452 809 1454 833 1451 C857 1448 881 1440 901 1421 C894 1362 866 1315 824 1281 C782 1247 727 1227 668 1227 C607 1227 572 1248 541 1269 C509 1290 483 1311 442 1311 C394 1311 351 1288 351 1233 L351 1227 C327 1223 302 1221 278 1224 C254 1227 230 1235 210 1254 C217 1313 246 1361 287 1395 C328 1429 383 1448 439 1448 C490 1448 526 1427 560 1406 C594 1385 626 1364 670 1364 C693 1364 715 1370 732 1383 C749 1395 760 1415 760 1442 L760 1448 Z M80 516 C80 667 130 802 215 900 C299 998 419 1058 560 1058 C701 1058 821 997 903 900 C985 803 1032 669 1032 521 C1032 370 983 236 899 138 C814 40 693 -20 552 -20 C409 -20 292 41 210 138 C128 234 80 368 80 516 L80 516 Z M235 524 C235 416 262 315 317 243 C372 170 453 124 561 124 C665 124 744 166 797 235 C850 304 877 402 877 513 C877 622 850 723 797 796 C744 869 664 914 556 914 C452 914 372 872 318 802 C264 732 235 633 235 524 L235 524 Z "/>
<glyph glyph-name="odieresis" unicode="ö" horiz-adv-x="1112" d="M259 1302 C259 1333 272 1361 293 1381 C313 1401 341 1414 372 1414 C403 1414 432 1401 453 1381 C473 1361 486 1333 486 1302 C486 1271 473 1243 453 1223 C432 1203 403 1190 372 1190 C341 1190 313 1203 293 1223 C272 1243 259 1271 259 1302 L259 1302 Z M625 1302 C625 1333 638 1361 659 1381 C679 1401 707 1414 738 1414 C769 1414 798 1401 819 1381 C839 1361 852 1333 852 1302 C852 1271 839 1243 819 1223 C798 1203 769 1190 738 1190 C707 1190 679 1203 659 1223 C638 1243 625 1271 625 1302 L625 1302 Z M80 516 C80 667 130 802 215 900 C299 998 419 1058 560 1058 C701 1058 821 997 903 900 C985 803 1032 669 1032 521 C1032 370 983 236 899 138 C814 40 693 -20 552 -20 C409 -20 292 41 210 138 C128 234 80 368 80 516 L80 516 Z M235 524 C235 416 262 315 317 243 C372 170 453 124 561 124 C665 124 744 166 797 235 C850 304 877 402 877 513 C877 622 850 723 797 796 C744 869 664 914 556 914 C452 914 372 872 318 802 C264 732 235 633 235 524 L235 524 Z "/>
<glyph glyph-name="divide" unicode="÷" horiz-adv-x="1030" d="M401 946 C401 977 414 1005 435 1025 C455 1045 483 1058 514 1058 C545 1058 574 1045 595 1025 C615 1005 628 977 628 946 C628 915 615 887 595 867 C574 847 545 834 514 834 C483 834 455 847 435 867 C414 887 401 915 401 946 L401 946 Z M910 438 L120 438 L120 592 L910 592 L910 438 Z M401 92 C401 123 414 151 435 171 C455 191 483 204 514 204 C545 204 574 191 595 171 C615 151 628 123 628 92 C628 61 615 33 595 13 C574 -7 545 -20 514 -20 C483 -20 455 -7 435 13 C414 33 401 61 401 92 L401 92 Z "/>
<glyph glyph-name="oslash" unicode="ø" horiz-adv-x="1112" d="M384 -221 L240 -168 L317 44 C242 89 184 157 143 238 C102 319 80 415 80 516 C80 667 130 802 215 900 C299 998 419 1058 560 1058 C603 1058 641 1053 680 1042 L753 1241 L896 1187 L819 976 C886 928 939 863 976 785 C1012 707 1032 617 1032 521 C1032 370 983 236 899 138 C814 40 693 -20 552 -20 C519 -20 489 -17 460 -11 L384 -221 Z M631 906 C606 911 581 914 556 914 C452 914 372 872 318 802 C264 732 235 633 235 524 C235 385 280 260 369 188 L631 906 Z M511 127 C527 125 544 124 561 124 C665 124 744 166 797 235 C850 304 877 402 877 513 C877 642 840 758 767 831 L511 127 Z "/>
<glyph glyph-name="ugrave" unicode="ù" horiz-adv-x="1121" d="M409 1558 C437 1534 486 1493 552 1447 C618 1401 701 1349 800 1305 C797 1285 791 1260 783 1238 C775 1216 766 1197 758 1190 C669 1207 571 1253 489 1301 C407 1349 342 1401 321 1433 C329 1488 366 1535 409 1558 L409 1558 Z M961 0 L863 0 L832 99 C789 71 736 41 680 18 C624 -5 566 -20 517 -20 C418 -20 327 6 260 68 C192 130 150 227 150 374 L150 1038 L305 1038 L305 383 C305 283 331 218 372 178 C412 138 469 123 532 123 C580 123 628 135 675 155 C722 174 766 198 806 222 L806 1038 L961 1038 L961 0 Z "/>
<glyph glyph-name="uacute" unicode="ú" horiz-adv-x="1121" d="M712 1558 C755 1535 792 1488 800 1433 C779 1401 715 1349 633 1301 C551 1253 452 1207 363 1190 C355 1197 345 1216 337 1238 C329 1260 322 1285 321 1305 C420 1349 504 1401 570 1447 C636 1493 684 1534 712 1558 L712 1558 Z M961 0 L863 0 L832 99 C789 71 736 41 680 18 C624 -5 566 -20 517 -20 C418 -20 327 6 260 68 C192 130 150 227 150 374 L150 1038 L305 1038 L305 383 C305 283 331 218 372 178 C412 138 469 123 532 123 C580 123 628 135 675 155 C722 174 766 198 806 222 L806 1038 L961 1038 L961 0 Z "/>
<glyph glyph-name="ucircumflex" unicode="û" horiz-adv-x="1121" d="M557 1386 C510 1343 464 1308 416 1277 C367 1245 317 1218 261 1190 C253 1197 243 1216 235 1238 C227 1260 219 1285 218 1305 C345 1373 452 1454 556 1554 L564 1554 C669 1454 774 1373 902 1305 C899 1285 893 1260 885 1238 C877 1216 867 1197 859 1190 C748 1243 655 1301 562 1386 L557 1386 Z M961 0 L863 0 L832 99 C789 71 736 41 680 18 C624 -5 566 -20 517 -20 C418 -20 327 6 260 68 C192 130 150 227 150 374 L150 1038 L305 1038 L305 383 C305 283 331 218 372 178 C412 138 469 123 532 123 C580 123 628 135 675 155 C722 174 766 198 806 222 L806 1038 L961 1038 L961 0 Z "/>
<glyph glyph-name="udieresis" unicode="ü" horiz-adv-x="1121" d="M264 1302 C264 1333 277 1361 298 1381 C318 1401 346 1414 377 1414 C408 1414 437 1401 458 1381 C478 1361 491 1333 491 1302 C491 1271 478 1243 458 1223 C437 1203 408 1190 377 1190 C346 1190 318 1203 298 1223 C277 1243 264 1271 264 1302 L264 1302 Z M630 1302 C630 1333 643 1361 664 1381 C684 1401 712 1414 743 1414 C774 1414 803 1401 824 1381 C844 1361 857 1333 857 1302 C857 1271 844 1243 824 1223 C803 1203 774 1190 743 1190 C712 1190 684 1203 664 1223 C643 1243 630 1271 630 1302 L630 1302 Z M961 0 L863 0 L832 99 C789 71 736 41 680 18 C624 -5 566 -20 517 -20 C418 -20 327 6 260 68 C192 130 150 227 150 374 L150 1038 L305 1038 L305 383 C305 283 331 218 372 178 C412 138 469 123 532 123 C580 123 628 135 675 155 C722 174 766 198 806 222 L806 1038 L961 1038 L961 0 Z "/>
<glyph glyph-name="yacute" unicode="ý" horiz-adv-x="970" d="M637 1558 C680 1535 717 1488 725 1433 C704 1401 640 1349 558 1301 C476 1253 377 1207 288 1190 C280 1197 270 1216 262 1238 C254 1260 247 1285 246 1305 C345 1349 429 1401 495 1447 C561 1493 609 1534 637 1558 L637 1558 Z M424 0 L376 0 L19 1038 L179 1038 L480 165 L781 1038 L941 1038 L496 -252 C440 -413 333 -478 196 -478 C113 -478 27 -454 -60 -415 L-18 -273 C49 -312 116 -335 177 -335 C212 -335 248 -327 278 -309 C308 -291 332 -263 347 -223 L424 0 Z "/>
<glyph glyph-name="thorn" unicode="þ" horiz-adv-x="1110" d="M305 1448 L315 1448 L315 967 C388 1023 474 1058 582 1058 C718 1058 830 1000 908 905 C986 809 1030 676 1030 525 C1030 378 989 242 903 143 C817 43 686 -20 507 -20 C439 -20 375 -12 315 3 L315 -458 L160 -458 L160 1428 L305 1448 Z M315 162 C383 134 450 122 518 122 C622 122 711 161 775 233 C838 304 875 408 875 539 C875 642 852 735 801 803 C750 871 672 914 561 914 C457 914 368 878 315 802 L315 162 Z "/>
<glyph glyph-name="ydieresis" unicode="ÿ" horiz-adv-x="970" d="M189 1302 C189 1333 202 1361 223 1381 C243 1401 271 1414 302 1414 C333 1414 362 1401 383 1381 C403 1361 416 1333 416 1302 C416 1271 403 1243 383 1223 C362 1203 333 1190 302 1190 C271 1190 243 1203 223 1223 C202 1243 189 1271 189 1302 L189 1302 Z M555 1302 C555 1333 568 1361 589 1381 C609 1401 637 1414 668 1414 C699 1414 728 1401 749 1381 C769 1361 782 1333 782 1302 C782 1271 769 1243 749 1223 C728 1203 699 1190 668 1190 C637 1190 609 1203 589 1223 C568 1243 555 1271 555 1302 L555 1302 Z M424 0 L376 0 L19 1038 L179 1038 L480 165 L781 1038 L941 1038 L496 -252 C440 -413 333 -478 196 -478 C113 -478 27 -454 -60 -415 L-18 -273 C49 -312 116 -335 177 -335 C212 -335 248 -327 278 -309 C308 -291 332 -263 347 -223 L424 0 Z "/>
<glyph glyph-name="Amacron" unicode="Ā" horiz-adv-x="1164" d="M281 1618 L883 1618 L883 1474 L281 1474 L281 1618 Z M873 307 L291 307 L185 0 L25 0 L478 1318 L685 1318 L1139 0 L979 0 L873 307 Z M340 451 L824 451 L582 1152 L340 451 Z "/>
<glyph glyph-name="amacron" unicode="ā" horiz-adv-x="1022" d="M210 1338 L812 1338 L812 1194 L210 1194 L210 1338 Z M894 -20 C821 4 770 57 737 125 C701 84 655 48 602 22 C549 -4 486 -20 417 -20 C348 -20 264 -5 197 43 C129 91 80 171 80 300 C80 396 108 471 172 523 C236 574 335 600 476 600 C532 600 593 596 685 588 L685 717 C685 794 663 845 628 875 C592 905 542 915 489 915 C436 915 386 910 335 899 C284 887 233 869 177 841 L137 976 C206 1004 260 1024 317 1038 C373 1052 433 1058 516 1058 C601 1058 683 1039 742 987 C801 935 839 850 839 717 L839 387 C839 332 842 277 862 230 C882 182 918 145 982 125 L894 -20 Z M685 457 C542 458 429 460 352 441 C275 421 233 381 233 300 C233 224 268 180 308 155 C347 130 389 124 405 124 C460 124 530 131 586 167 C642 202 685 264 685 373 L685 457 Z "/>
<glyph glyph-name="Abreve" unicode="Ă" horiz-adv-x="1164" d="M318 1724 C374 1649 462 1610 577 1610 C693 1610 785 1651 846 1724 C863 1713 881 1695 896 1675 C911 1654 921 1631 921 1612 C884 1564 831 1529 772 1506 C713 1482 647 1470 586 1470 C522 1470 457 1481 398 1505 C338 1528 284 1563 243 1612 C243 1631 253 1654 268 1675 C283 1695 301 1713 318 1724 L318 1724 Z M873 307 L291 307 L185 0 L25 0 L478 1318 L685 1318 L1139 0 L979 0 L873 307 Z M340 451 L824 451 L582 1152 L340 451 Z "/>
<glyph glyph-name="abreve" unicode="ă" horiz-adv-x="1022" d="M247 1445 C303 1370 391 1331 506 1331 C622 1331 714 1372 775 1445 C792 1434 810 1416 825 1396 C840 1375 850 1352 850 1333 C813 1285 760 1250 701 1227 C642 1203 576 1191 515 1191 C451 1191 386 1202 327 1226 C267 1249 213 1284 172 1333 C172 1352 182 1375 197 1396 C212 1416 230 1434 247 1445 L247 1445 Z M894 -20 C821 4 770 57 737 125 C701 84 655 48 602 22 C549 -4 486 -20 417 -20 C348 -20 264 -5 197 43 C129 91 80 171 80 300 C80 396 108 471 172 523 C236 574 335 600 476 600 C532 600 593 596 685 588 L685 717 C685 794 663 845 628 875 C592 905 542 915 489 915 C436 915 386 910 335 899 C284 887 233 869 177 841 L137 976 C206 1004 260 1024 317 1038 C373 1052 433 1058 516 1058 C601 1058 683 1039 742 987 C801 935 839 850 839 717 L839 387 C839 332 842 277 862 230 C882 182 918 145 982 125 L894 -20 Z M685 457 C542 458 429 460 352 441 C275 421 233 381 233 300 C233 224 268 180 308 155 C347 130 389 124 405 124 C460 124 530 131 586 167 C642 202 685 264 685 373 L685 457 Z "/>
<glyph glyph-name="Aogonek" unicode="Ą" horiz-adv-x="1164" d="M478 1318 L685 1318 L1139 0 C1072 -31 1030 -71 1003 -113 C975 -155 965 -198 965 -233 C965 -272 975 -298 992 -314 C1008 -330 1031 -337 1056 -337 C1105 -337 1164 -314 1208 -291 L1215 -296 L1215 -427 C1163 -464 1110 -478 1059 -478 C994 -478 934 -451 890 -407 C846 -363 818 -302 818 -231 C818 -182 835 -134 863 -92 C890 -50 928 -12 972 20 L873 307 L291 307 L185 0 L25 0 L478 1318 Z M340 451 L824 451 L582 1152 L340 451 Z "/>
<glyph glyph-name="aogonek" unicode="ą" horiz-adv-x="1022" d="M894 -20 C843 -51 809 -89 788 -126 C767 -163 758 -201 758 -233 C758 -272 768 -298 785 -314 C801 -330 824 -337 849 -337 C898 -337 957 -314 1001 -291 L1008 -296 L1008 -427 C956 -464 903 -478 852 -478 C787 -478 727 -451 683 -407 C639 -363 611 -302 611 -231 C611 -175 632 -124 665 -78 C698 -32 744 8 795 41 C772 64 752 92 737 125 C701 84 655 48 602 22 C549 -4 486 -20 417 -20 C348 -20 264 -5 197 43 C129 91 80 171 80 300 C80 396 108 471 172 523 C236 574 335 600 476 600 C532 600 593 596 685 588 L685 717 C685 794 663 845 628 875 C592 905 542 915 489 915 C436 915 386 910 335 899 C284 887 233 869 177 841 L137 976 C206 1004 260 1024 317 1038 C373 1052 433 1058 516 1058 C601 1058 683 1039 742 987 C801 935 839 850 839 717 L839 387 C839 332 842 277 862 230 C882 182 918 145 982 125 L894 -20 Z M685 457 C542 458 429 460 352 441 C275 421 233 381 233 300 C233 224 268 180 308 155 C347 130 389 124 405 124 C460 124 530 131 586 167 C642 202 685 264 685 373 L685 457 Z "/>
<glyph glyph-name="Cacute" unicode="Ć" horiz-adv-x="1081" d="M851 1838 C894 1815 931 1768 939 1713 C918 1681 854 1629 772 1581 C690 1533 591 1487 502 1470 C494 1477 484 1496 476 1518 C468 1540 461 1565 460 1585 C559 1629 643 1681 709 1727 C775 1773 823 1814 851 1838 L851 1838 Z M1041 163 L1041 21 C996 8 943 -2 891 -9 C838 -17 784 -20 737 -20 C517 -20 352 52 244 176 C135 300 80 475 80 680 C84 865 138 1031 246 1149 C354 1267 517 1338 737 1338 C784 1338 838 1334 891 1327 C943 1320 996 1310 1041 1297 L1041 1155 L1034 1151 C987 1166 935 1176 884 1183 C833 1190 785 1193 745 1193 C574 1193 446 1138 362 1045 C277 952 234 817 234 660 C234 504 276 371 361 276 C446 181 573 125 745 125 C785 125 833 128 884 135 C935 142 987 152 1034 167 L1041 163 Z "/>
<glyph glyph-name="cacute" unicode="ć" horiz-adv-x="899" d="M601 1558 C644 1535 681 1488 689 1433 C668 1401 604 1349 522 1301 C440 1253 341 1207 252 1190 C244 1197 234 1216 226 1238 C218 1260 211 1285 210 1305 C309 1349 393 1401 459 1447 C525 1493 573 1534 601 1558 L601 1558 Z M859 190 L859 54 C752 1 658 -20 562 -20 C438 -20 317 20 228 108 C139 196 80 333 80 526 C80 717 136 850 224 935 C312 1020 433 1058 562 1058 C658 1058 752 1037 859 984 L859 848 L852 843 C759 890 667 914 578 914 C483 914 398 888 335 828 C272 767 233 671 233 532 C233 392 272 290 335 223 C398 156 483 124 578 124 C667 124 760 148 852 195 L859 190 Z "/>
<glyph glyph-name="Ccircumflex" unicode="Ĉ" horiz-adv-x="1081" d="M672 1666 C625 1623 579 1588 531 1557 C482 1525 432 1498 376 1470 C368 1477 358 1496 350 1518 C342 1540 334 1565 333 1585 C460 1653 567 1734 671 1834 L679 1834 C784 1734 889 1653 1017 1585 C1014 1565 1008 1540 1000 1518 C992 1496 982 1477 974 1470 C863 1523 770 1581 677 1666 L672 1666 Z M1041 163 L1041 21 C996 8 943 -2 891 -9 C838 -17 784 -20 737 -20 C517 -20 352 52 244 176 C135 300 80 475 80 680 C84 865 138 1031 246 1149 C354 1267 517 1338 737 1338 C784 1338 838 1334 891 1327 C943 1320 996 1310 1041 1297 L1041 1155 L1034 1151 C987 1166 935 1176 884 1183 C833 1190 785 1193 745 1193 C574 1193 446 1138 362 1045 C277 952 234 817 234 660 C234 504 276 371 361 276 C446 181 573 125 745 125 C785 125 833 128 884 135 C935 142 987 152 1034 167 L1041 163 Z "/>
<glyph glyph-name="ccircumflex" unicode="ĉ" horiz-adv-x="899" d="M553 1386 C506 1343 460 1308 412 1277 C363 1245 313 1218 257 1190 C249 1197 239 1216 231 1238 C223 1260 215 1285 214 1305 C341 1373 448 1454 552 1554 L560 1554 C665 1454 770 1373 898 1305 C895 1285 889 1260 881 1238 C873 1216 863 1197 855 1190 C744 1243 651 1301 558 1386 L553 1386 Z M859 190 L859 54 C752 1 658 -20 562 -20 C438 -20 317 20 228 108 C139 196 80 333 80 526 C80 717 136 850 224 935 C312 1020 433 1058 562 1058 C658 1058 752 1037 859 984 L859 848 L852 843 C759 890 667 914 578 914 C483 914 398 888 335 828 C272 767 233 671 233 532 C233 392 272 290 335 223 C398 156 483 124 578 124 C667 124 760 148 852 195 L859 190 Z "/>
<glyph glyph-name="Ccaron" unicode="Č" horiz-adv-x="1081" d="M740 1638 C833 1723 926 1779 1037 1834 C1045 1827 1055 1809 1063 1787 C1071 1765 1077 1739 1080 1719 C952 1651 847 1570 742 1470 L734 1470 C630 1570 523 1651 396 1719 C397 1739 405 1765 413 1787 C421 1809 431 1827 439 1834 C550 1779 642 1723 735 1638 L740 1638 Z M1041 163 L1041 21 C996 8 943 -2 891 -9 C838 -17 784 -20 737 -20 C517 -20 352 52 244 176 C135 300 80 475 80 680 C84 865 138 1031 246 1149 C354 1267 517 1338 737 1338 C784 1338 838 1334 891 1327 C943 1320 996 1310 1041 1297 L1041 1155 L1034 1151 C987 1166 935 1176 884 1183 C833 1190 785 1193 745 1193 C574 1193 446 1138 362 1045 C277 952 234 817 234 660 C234 504 276 371 361 276 C446 181 573 125 745 125 C785 125 833 128 884 135 C935 142 987 152 1034 167 L1041 163 Z "/>
<glyph glyph-name="ccaron" unicode="č" horiz-adv-x="899" d="M561 1358 C654 1443 747 1499 858 1554 C866 1547 876 1529 884 1507 C892 1485 898 1459 901 1439 C773 1371 668 1290 563 1190 L555 1190 C451 1290 344 1371 217 1439 C218 1459 226 1485 234 1507 C242 1529 252 1547 260 1554 C371 1499 463 1443 556 1358 L561 1358 Z M859 190 L859 54 C752 1 658 -20 562 -20 C438 -20 317 20 228 108 C139 196 80 333 80 526 C80 717 136 850 224 935 C312 1020 433 1058 562 1058 C658 1058 752 1037 859 984 L859 848 L852 843 C759 890 667 914 578 914 C483 914 398 888 335 828 C272 767 233 671 233 532 C233 392 272 290 335 223 C398 156 483 124 578 124 C667 124 760 148 852 195 L859 190 Z "/>
<glyph glyph-name="Dcaron" unicode="Ď" horiz-adv-x="1298" d="M538 1638 C631 1723 724 1779 835 1834 C843 1827 853 1809 861 1787 C869 1765 875 1739 878 1719 C750 1651 645 1570 540 1470 L532 1470 C428 1570 321 1651 194 1719 C195 1739 203 1765 211 1787 C219 1809 229 1827 237 1834 C348 1779 440 1723 533 1638 L538 1638 Z M160 0 L160 1318 L533 1318 C725 1318 897 1249 1020 1133 C1143 1016 1218 852 1218 660 C1218 468 1147 303 1028 187 C909 70 741 0 549 0 L160 0 Z M315 1174 L315 144 L549 144 C709 144 837 196 926 284 C1014 372 1063 497 1063 644 C1063 801 1003 934 907 1027 C811 1120 678 1174 533 1174 L315 1174 Z "/>
<glyph glyph-name="dcaron" unicode="ď" horiz-adv-x="1501" d="M950 0 L852 0 L820 92 C741 24 648 -19 528 -19 C392 -19 280 44 202 145 C124 245 80 383 80 534 C80 681 122 811 208 906 C294 1001 424 1058 603 1058 C671 1058 734 1049 795 1037 L795 1428 L940 1448 L950 1448 L950 0 Z M1190 1099 C1221 1152 1239 1190 1239 1229 C1239 1262 1225 1293 1194 1336 C1194 1367 1207 1395 1227 1415 C1247 1435 1275 1448 1306 1448 C1330 1448 1358 1440 1382 1421 C1405 1401 1421 1370 1421 1325 C1421 1268 1395 1210 1358 1160 C1321 1110 1273 1068 1232 1045 L1190 1099 Z M795 875 C725 902 657 916 592 916 C488 916 399 883 336 817 C272 751 235 652 235 521 C235 418 258 319 309 246 C360 173 438 125 549 125 C653 125 740 161 795 238 L795 875 Z "/>
<glyph glyph-name="dcroat" unicode="đ" horiz-adv-x="1110" d="M1091 1174 L1091 1318 L950 1318 L950 1448 L940 1448 L795 1428 L795 1318 L600 1318 L600 1174 L795 1174 L795 1037 C734 1049 671 1058 603 1058 C424 1058 294 1001 208 906 C122 811 80 681 80 534 C80 383 124 245 202 145 C280 44 392 -19 528 -19 C648 -19 741 24 820 92 L852 0 L950 0 L950 1174 L1091 1174 Z M795 238 C740 161 653 125 549 125 C438 125 360 173 309 246 C258 319 235 418 235 521 C235 652 272 751 336 817 C399 883 488 916 592 916 C657 916 725 902 795 875 L795 238 Z "/>
<glyph glyph-name="Emacron" unicode="Ē" horiz-adv-x="998" d="M269 1618 L871 1618 L871 1474 L269 1474 L269 1618 Z M160 1318 L954 1318 L954 1174 L315 1174 L315 731 L954 731 L954 587 L315 587 L315 144 L954 144 L954 0 L160 0 L160 1318 Z "/>
<glyph glyph-name="emacron" unicode="ē" horiz-adv-x="946" d="M209 1338 L811 1338 L811 1194 L209 1194 L209 1338 Z M881 480 L234 480 C242 360 284 271 345 212 C406 153 488 124 577 124 C670 124 762 150 857 198 L860 197 L860 54 C752 1 658 -20 562 -20 C433 -20 312 23 224 113 C136 203 80 340 80 532 C80 680 114 813 187 907 C259 1001 370 1058 526 1058 C633 1058 707 1031 760 988 C812 945 843 886 860 821 C877 756 881 685 881 620 L881 480 Z M729 620 C728 700 717 773 686 827 C655 881 604 914 523 914 C444 914 381 883 333 831 C285 779 254 705 241 620 L729 620 Z "/>
<glyph glyph-name="Edotaccent" unicode="Ė" horiz-adv-x="998" d="M478 1582 C478 1613 491 1641 512 1661 C532 1681 560 1694 591 1694 C622 1694 651 1681 672 1661 C692 1641 705 1613 705 1582 C705 1551 692 1523 672 1503 C651 1483 622 1470 591 1470 C560 1470 532 1483 512 1503 C491 1523 478 1551 478 1582 L478 1582 Z M160 1318 L954 1318 L954 1174 L315 1174 L315 731 L954 731 L954 587 L315 587 L315 144 L954 144 L954 0 L160 0 L160 1318 Z "/>
<glyph glyph-name="edotaccent" unicode="ė" horiz-adv-x="931" d="M427 1302 C427 1333 440 1361 461 1381 C481 1401 509 1414 540 1414 C571 1414 600 1401 621 1381 C641 1361 654 1333 654 1302 C654 1271 641 1243 621 1223 C600 1203 571 1190 540 1190 C509 1190 481 1203 461 1223 C440 1243 427 1271 427 1302 L427 1302 Z M881 480 L234 480 C242 360 284 271 345 212 C406 153 488 124 577 124 C670 124 762 150 857 198 L860 197 L860 54 C752 1 658 -20 562 -20 C433 -20 312 23 224 113 C136 203 80 340 80 532 C80 680 114 813 187 907 C259 1001 370 1058 526 1058 C633 1058 707 1031 760 988 C812 945 843 886 860 821 C877 756 881 685 881 620 L881 480 Z M729 620 C728 700 717 773 686 827 C655 881 604 914 523 914 C444 914 381 883 333 831 C285 779 254 705 241 620 L729 620 Z "/>
<glyph glyph-name="Eogonek" unicode="Ę" horiz-adv-x="998" d="M160 1318 L954 1318 L954 1174 L315 1174 L315 731 L954 731 L954 587 L315 587 L315 144 L954 144 L954 0 C887 -31 845 -71 818 -113 C790 -155 780 -198 780 -233 C780 -272 790 -298 807 -314 C823 -330 846 -337 871 -337 C920 -337 979 -314 1023 -291 L1030 -296 L1030 -427 C978 -464 925 -478 874 -478 C809 -478 749 -451 705 -407 C661 -363 633 -302 633 -231 C633 -140 686 -63 762 0 L160 0 L160 1318 Z "/>
<glyph glyph-name="eogonek" unicode="ę" horiz-adv-x="946" d="M881 480 L234 480 C242 360 284 271 345 212 C406 153 488 124 577 124 C670 124 762 150 857 198 L860 197 L860 54 C809 29 763 12 718 0 C651 -31 609 -71 582 -113 C554 -155 544 -198 544 -233 C544 -272 554 -298 571 -314 C587 -330 610 -337 635 -337 C684 -337 743 -314 787 -291 L794 -296 L794 -427 C742 -464 689 -478 638 -478 C573 -478 513 -451 469 -407 C425 -363 397 -302 397 -231 C397 -148 442 -77 506 -17 C389 -5 282 43 205 133 C128 223 80 353 80 532 C80 680 114 813 187 907 C259 1001 370 1058 526 1058 C633 1058 707 1031 760 988 C812 945 843 886 860 821 C877 756 881 685 881 620 L881 480 Z M729 620 C728 700 717 773 686 827 C655 881 604 914 523 914 C444 914 381 883 333 831 C285 779 254 705 241 620 L729 620 Z "/>
<glyph glyph-name="Ecaron" unicode="Ě" horiz-adv-x="998" d="M567 1638 C660 1723 753 1779 864 1834 C872 1827 882 1809 890 1787 C898 1765 904 1739 907 1719 C779 1651 674 1570 569 1470 L561 1470 C457 1570 350 1651 223 1719 C224 1739 232 1765 240 1787 C248 1809 258 1827 266 1834 C377 1779 469 1723 562 1638 L567 1638 Z M160 1318 L954 1318 L954 1174 L315 1174 L315 731 L954 731 L954 587 L315 587 L315 144 L954 144 L954 0 L160 0 L160 1318 Z "/>
<glyph glyph-name="ecaron" unicode="ě" horiz-adv-x="946" d="M533 1358 C626 1443 719 1499 830 1554 C838 1547 848 1529 856 1507 C864 1485 870 1459 873 1439 C745 1371 640 1290 535 1190 L527 1190 C423 1290 316 1371 189 1439 C190 1459 198 1485 206 1507 C214 1529 224 1547 232 1554 C343 1499 435 1443 528 1358 L533 1358 Z M881 480 L234 480 C242 360 284 271 345 212 C406 153 488 124 577 124 C670 124 762 150 857 198 L860 197 L860 54 C752 1 658 -20 562 -20 C433 -20 312 23 224 113 C136 203 80 340 80 532 C80 680 114 813 187 907 C259 1001 370 1058 526 1058 C633 1058 707 1031 760 988 C812 945 843 886 860 821 C877 756 881 685 881 620 L881 480 Z M729 620 C728 700 717 773 686 827 C655 881 604 914 523 914 C444 914 381 883 333 831 C285 779 254 705 241 620 L729 620 Z "/>
<glyph glyph-name="Gcircumflex" unicode="Ĝ" horiz-adv-x="1268" d="M681 1666 C634 1623 588 1588 540 1557 C491 1525 441 1498 385 1470 C377 1477 367 1496 359 1518 C351 1540 343 1565 342 1585 C469 1653 576 1734 680 1834 L688 1834 C793 1734 898 1653 1026 1585 C1023 1565 1017 1540 1009 1518 C1001 1496 991 1477 983 1470 C872 1523 779 1581 686 1666 L681 1666 Z M1128 -2 L1069 -2 L977 69 C892 10 805 -20 686 -20 C503 -20 353 54 247 176 C141 298 80 470 80 667 C80 851 132 1019 240 1141 C348 1263 512 1338 733 1338 C782 1338 838 1334 891 1327 C944 1320 997 1310 1042 1297 L1042 1155 L1034 1151 C987 1166 936 1176 885 1183 C833 1190 785 1193 745 1193 C573 1193 446 1135 362 1042 C277 949 235 819 235 676 C235 521 283 384 367 285 C450 185 567 124 703 124 C780 124 843 144 888 168 C933 192 962 221 977 238 L977 569 L692 569 L692 724 L1128 724 L1128 -2 Z "/>
<glyph glyph-name="gcircumflex" unicode="ĝ" horiz-adv-x="1034" d="M479 1386 C432 1343 386 1308 338 1277 C289 1245 239 1218 183 1190 C175 1197 165 1216 157 1238 C149 1260 141 1285 140 1305 C267 1373 374 1454 478 1554 L486 1554 C591 1454 696 1373 824 1305 C821 1285 815 1260 807 1238 C799 1216 789 1197 781 1190 C670 1243 577 1301 484 1386 L479 1386 Z M569 217 C712 217 817 184 886 130 C954 76 988 2 988 -75 C988 -188 919 -289 818 -361 C717 -434 583 -478 454 -478 C335 -478 239 -441 173 -381 C107 -322 70 -239 70 -147 C70 -63 115 37 194 117 C166 133 145 160 131 191 C117 222 109 255 109 284 C109 340 135 404 184 465 C156 494 134 534 120 578 C106 621 98 668 98 712 C98 811 137 897 205 959 C273 1021 369 1058 482 1058 C559 1058 627 1041 683 1010 C727 1043 777 1070 823 1088 C869 1106 913 1115 948 1115 L994 984 C939 975 867 952 799 909 C838 853 859 788 859 716 C859 617 819 526 751 459 C682 392 585 350 472 350 C399 350 335 368 280 395 C257 366 245 337 245 310 C245 258 290 217 373 217 L569 217 Z M478 920 C401 920 342 891 302 850 C262 809 242 755 242 703 C242 651 263 597 303 556 C343 515 402 487 481 487 C558 487 616 515 655 556 C694 596 713 649 713 701 C713 753 693 808 654 850 C614 892 555 920 478 920 L478 920 Z M314 84 C258 20 222 -61 222 -133 C222 -194 239 -247 279 -284 C319 -321 382 -343 474 -343 C578 -343 667 -309 731 -260 C794 -212 830 -148 830 -85 C830 -8 785 34 713 58 C640 81 540 84 431 84 L314 84 Z "/>
<glyph glyph-name="Gbreve" unicode="Ğ" horiz-adv-x="1268" d="M452 1704 C508 1629 596 1590 711 1590 C827 1590 919 1631 980 1704 C997 1693 1015 1675 1030 1655 C1045 1634 1055 1611 1055 1592 C1018 1544 965 1509 906 1486 C847 1462 781 1450 720 1450 C656 1450 591 1461 532 1485 C472 1508 418 1543 377 1592 C377 1611 387 1634 402 1655 C417 1675 435 1693 452 1704 L452 1704 Z M1128 -2 L1069 -2 L977 69 C892 10 805 -20 686 -20 C503 -20 353 54 247 176 C141 298 80 470 80 667 C80 851 132 1019 240 1141 C348 1263 512 1338 733 1338 C782 1338 838 1334 891 1327 C944 1320 997 1310 1042 1297 L1042 1155 L1034 1151 C987 1166 936 1176 885 1183 C833 1190 785 1193 745 1193 C573 1193 446 1135 362 1042 C277 949 235 819 235 676 C235 521 283 384 367 285 C450 185 567 124 703 124 C780 124 843 144 888 168 C933 192 962 221 977 238 L977 569 L692 569 L692 724 L1128 724 L1128 -2 Z "/>
<glyph glyph-name="gbreve" unicode="ğ" horiz-adv-x="1034" d="M233 1447 C289 1372 377 1333 492 1333 C608 1333 700 1374 761 1447 C778 1436 796 1418 811 1398 C826 1377 836 1354 836 1335 C799 1287 746 1252 687 1229 C628 1205 562 1193 501 1193 C437 1193 372 1204 313 1228 C253 1251 199 1286 158 1335 C158 1354 168 1377 183 1398 C198 1418 216 1436 233 1447 L233 1447 Z M569 217 C712 217 817 184 886 130 C954 76 988 2 988 -75 C988 -188 919 -289 818 -361 C717 -434 583 -478 454 -478 C335 -478 239 -441 173 -381 C107 -322 70 -239 70 -147 C70 -63 115 37 194 117 C166 133 145 160 131 191 C117 222 109 255 109 284 C109 340 135 404 184 465 C156 494 134 534 120 578 C106 621 98 668 98 712 C98 811 137 897 205 959 C273 1021 369 1058 482 1058 C559 1058 627 1041 683 1010 C727 1043 777 1070 823 1088 C869 1106 913 1115 948 1115 L994 984 C939 975 867 952 799 909 C838 853 859 788 859 716 C859 617 819 526 751 459 C682 392 585 350 472 350 C399 350 335 368 280 395 C257 366 245 337 245 310 C245 258 290 217 373 217 L569 217 Z M478 920 C401 920 342 891 302 850 C262 809 242 755 242 703 C242 651 263 597 303 556 C343 515 402 487 481 487 C558 487 616 515 655 556 C694 596 713 649 713 701 C713 753 693 808 654 850 C614 892 555 920 478 920 L478 920 Z M314 84 C258 20 222 -61 222 -133 C222 -194 239 -247 279 -284 C319 -321 382 -343 474 -343 C578 -343 667 -309 731 -260 C794 -212 830 -148 830 -85 C830 -8 785 34 713 58 C640 81 540 84 431 84 L314 84 Z "/>
<glyph glyph-name="Gdotaccent" unicode="Ġ" horiz-adv-x="1268" d="M577 1560 C577 1591 590 1619 611 1639 C631 1659 659 1672 690 1672 C721 1672 750 1659 771 1639 C791 1619 804 1591 804 1560 C804 1529 791 1501 771 1481 C750 1461 721 1448 690 1448 C659 1448 631 1461 611 1481 C590 1501 577 1529 577 1560 L577 1560 Z M1128 -2 L1069 -2 L977 69 C892 10 805 -20 686 -20 C503 -20 353 54 247 176 C141 298 80 470 80 667 C80 851 132 1019 240 1141 C348 1263 512 1338 733 1338 C782 1338 838 1334 891 1327 C944 1320 997 1310 1042 1297 L1042 1155 L1034 1151 C987 1166 936 1176 885 1183 C833 1190 785 1193 745 1193 C573 1193 446 1135 362 1042 C277 949 235 819 235 676 C235 521 283 384 367 285 C450 185 567 124 703 124 C780 124 843 144 888 168 C933 192 962 221 977 238 L977 569 L692 569 L692 724 L1128 724 L1128 -2 Z "/>
<glyph glyph-name="gdotaccent" unicode="ġ" horiz-adv-x="1034" d="M379 1334 C379 1365 392 1393 413 1413 C433 1433 461 1446 492 1446 C523 1446 552 1433 573 1413 C593 1393 606 1365 606 1334 C606 1303 593 1275 573 1255 C552 1235 523 1222 492 1222 C461 1222 433 1235 413 1255 C392 1275 379 1303 379 1334 L379 1334 Z M569 217 C712 217 817 184 886 130 C954 76 988 2 988 -75 C988 -188 919 -289 818 -361 C717 -434 583 -478 454 -478 C335 -478 239 -441 173 -381 C107 -322 70 -239 70 -147 C70 -63 115 37 194 117 C166 133 145 160 131 191 C117 222 109 255 109 284 C109 340 135 404 184 465 C156 494 134 534 120 578 C106 621 98 668 98 712 C98 811 137 897 205 959 C273 1021 369 1058 482 1058 C559 1058 627 1041 683 1010 C727 1043 777 1070 823 1088 C869 1106 913 1115 948 1115 L994 984 C939 975 867 952 799 909 C838 853 859 788 859 716 C859 617 819 526 751 459 C682 392 585 350 472 350 C399 350 335 368 280 395 C257 366 245 337 245 310 C245 258 290 217 373 217 L569 217 Z M478 920 C401 920 342 891 302 850 C262 809 242 755 242 703 C242 651 263 597 303 556 C343 515 402 487 481 487 C558 487 616 515 655 556 C694 596 713 649 713 701 C713 753 693 808 654 850 C614 892 555 920 478 920 L478 920 Z M314 84 C258 20 222 -61 222 -133 C222 -194 239 -247 279 -284 C319 -321 382 -343 474 -343 C578 -343 667 -309 731 -260 C794 -212 830 -148 830 -85 C830 -8 785 34 713 58 C640 81 540 84 431 84 L314 84 Z "/>
<glyph glyph-name="Gcommaaccent" unicode="Ģ" horiz-adv-x="1268" d="M1128 -2 L1069 -2 L977 69 C892 10 805 -20 686 -20 C503 -20 353 54 247 176 C141 298 80 470 80 667 C80 851 132 1019 240 1141 C348 1263 512 1338 733 1338 C782 1338 838 1334 891 1327 C944 1320 997 1310 1042 1297 L1042 1155 L1034 1151 C987 1166 936 1176 885 1183 C833 1190 785 1193 745 1193 C573 1193 446 1135 362 1042 C277 949 235 819 235 676 C235 521 283 384 367 285 C450 185 567 124 703 124 C780 124 843 144 888 168 C933 192 962 221 977 238 L977 569 L692 569 L692 724 L1128 724 L1128 -2 Z M575 -424 C606 -371 624 -333 624 -294 C624 -261 610 -230 579 -187 C579 -156 592 -128 612 -108 C632 -88 660 -75 691 -75 C715 -75 743 -83 767 -102 C790 -122 806 -153 806 -198 C806 -255 780 -313 743 -363 C706 -413 658 -455 617 -478 L575 -424 Z "/>
<glyph glyph-name="gcommaaccent" unicode="ģ" horiz-adv-x="1034" d="M606 1537 C574 1484 557 1446 557 1407 C557 1374 570 1343 601 1300 C601 1269 588 1241 568 1221 C548 1201 520 1188 489 1188 C465 1188 437 1196 414 1216 C391 1235 375 1266 375 1311 C375 1368 401 1427 438 1477 C474 1527 520 1568 563 1591 L606 1537 Z M569 217 C712 217 817 184 886 130 C954 76 988 2 988 -75 C988 -188 919 -289 818 -361 C717 -434 583 -478 454 -478 C335 -478 239 -441 173 -381 C107 -322 70 -239 70 -147 C70 -63 115 37 194 117 C166 133 145 160 131 191 C117 222 109 255 109 284 C109 340 135 404 184 465 C156 494 134 534 120 578 C106 621 98 668 98 712 C98 811 137 897 205 959 C273 1021 369 1058 482 1058 C559 1058 627 1041 683 1010 C727 1043 777 1070 823 1088 C869 1106 913 1115 948 1115 L994 984 C939 975 867 952 799 909 C838 853 859 788 859 716 C859 617 819 526 751 459 C682 392 585 350 472 350 C399 350 335 368 280 395 C257 366 245 337 245 310 C245 258 290 217 373 217 L569 217 Z M478 920 C401 920 342 891 302 850 C262 809 242 755 242 703 C242 651 263 597 303 556 C343 515 402 487 481 487 C558 487 616 515 655 556 C694 596 713 649 713 701 C713 753 693 808 654 850 C614 892 555 920 478 920 L478 920 Z M314 84 C258 20 222 -61 222 -133 C222 -194 239 -247 279 -284 C319 -321 382 -343 474 -343 C578 -343 667 -309 731 -260 C794 -212 830 -148 830 -85 C830 -8 785 34 713 58 C640 81 540 84 431 84 L314 84 Z "/>
<glyph glyph-name="Hcircumflex" unicode="Ĥ" horiz-adv-x="1273" d="M633 1666 C586 1623 540 1588 492 1557 C443 1525 393 1498 337 1470 C329 1477 319 1496 311 1518 C303 1540 295 1565 294 1585 C421 1653 528 1734 632 1834 L640 1834 C745 1734 850 1653 978 1585 C975 1565 969 1540 961 1518 C953 1496 943 1477 935 1470 C824 1523 731 1581 638 1666 L633 1666 Z M958 582 L315 582 L315 0 L160 0 L160 1318 L315 1318 L315 736 L958 736 L958 1318 L1113 1318 L1113 0 L958 0 L958 582 Z "/>
<glyph glyph-name="hcircumflex" unicode="ĥ" horiz-adv-x="1174" d="M246 1644 C199 1601 153 1566 105 1535 C56 1503 6 1476 -50 1448 C-58 1455 -68 1474 -76 1496 C-84 1518 -92 1543 -93 1563 C34 1631 141 1712 245 1812 L253 1812 C358 1712 463 1631 591 1563 C588 1543 582 1518 574 1496 C566 1474 556 1455 548 1448 C437 1501 344 1559 251 1644 L246 1644 Z M160 1428 L305 1448 L315 1448 L315 956 C356 981 406 1007 457 1026 C508 1045 559 1058 604 1058 C703 1058 794 1033 862 971 C929 909 971 811 971 664 L971 0 L816 0 L816 656 C816 756 790 821 750 861 C709 900 652 915 589 915 C541 915 492 903 445 884 C398 864 355 839 315 815 L315 0 L160 0 L160 1428 Z "/>
<glyph glyph-name="Hbar" unicode="Ħ" horiz-adv-x="1273" d="M958 582 L315 582 L315 0 L160 0 L160 1318 L315 1318 L315 1038 L958 1038 L958 1318 L1113 1318 L1113 0 L958 0 L958 582 Z M958 736 L958 882 L315 882 L315 736 L958 736 Z "/>
<glyph glyph-name="hbar" unicode="ħ" horiz-adv-x="1174" d="M40 1318 L160 1318 L160 1428 L305 1448 L315 1448 L315 1318 L598 1318 L598 1174 L315 1174 L315 956 C356 981 406 1007 457 1026 C508 1045 559 1058 604 1058 C703 1058 794 1033 862 971 C929 909 971 811 971 664 L971 0 L816 0 L816 656 C816 756 790 821 750 861 C709 900 652 915 589 915 C541 915 492 903 445 884 C398 864 355 839 315 815 L315 0 L160 0 L160 1174 L40 1174 L40 1318 Z "/>
<glyph glyph-name="Itilde" unicode="Ĩ" horiz-adv-x="474" d="M442 1728 C466 1732 491 1734 515 1731 C539 1728 563 1720 583 1701 C576 1642 548 1595 506 1561 C464 1527 409 1507 350 1507 C289 1507 254 1528 223 1549 C191 1570 165 1591 124 1591 C76 1591 33 1568 33 1513 L33 1507 C9 1503 -16 1501 -40 1504 C-64 1507 -88 1515 -108 1534 C-101 1593 -72 1641 -31 1675 C10 1709 65 1728 121 1728 C172 1728 208 1707 242 1686 C276 1665 308 1644 352 1644 C375 1644 397 1650 414 1663 C431 1675 442 1695 442 1722 L442 1728 Z M160 1318 L314 1318 L314 0 L160 0 L160 1318 Z "/>
<glyph glyph-name="Imacron" unicode="Ī" horiz-adv-x="474" d="M-64 1618 L538 1618 L538 1474 L-64 1474 L-64 1618 Z M160 1318 L314 1318 L314 0 L160 0 L160 1318 Z "/>
<glyph glyph-name="imacron" unicode="ī" horiz-adv-x="535" d="M-33 1338 L569 1338 L569 1194 L-33 1194 L-33 1338 Z M190 1038 L344 1038 L344 0 L190 0 L190 1038 Z "/>
<glyph glyph-name="Ibreve" unicode="Ĭ" horiz-adv-x="474" d="M-27 1739 C29 1664 117 1625 232 1625 C348 1625 440 1666 501 1739 C518 1728 536 1710 551 1690 C566 1669 576 1646 576 1627 C539 1579 486 1544 427 1521 C368 1497 302 1485 241 1485 C177 1485 112 1496 53 1520 C-7 1543 -61 1578 -102 1627 C-102 1646 -92 1669 -77 1690 C-62 1710 -44 1728 -27 1739 L-27 1739 Z M160 1318 L314 1318 L314 0 L160 0 L160 1318 Z "/>
<glyph glyph-name="ibreve" unicode="ĭ" horiz-adv-x="535" d="M4 1448 C60 1373 148 1334 263 1334 C379 1334 471 1375 532 1448 C549 1437 567 1419 582 1399 C597 1378 607 1355 607 1336 C570 1288 517 1253 458 1230 C399 1206 333 1194 272 1194 C208 1194 143 1205 84 1229 C24 1252 -30 1287 -71 1336 C-71 1355 -61 1378 -46 1399 C-31 1419 -13 1437 4 1448 L4 1448 Z M190 1038 L344 1038 L344 0 L190 0 L190 1038 Z "/>
<glyph glyph-name="Iogonek" unicode="Į" horiz-adv-x="474" d="M160 1318 L314 1318 L314 69 C337 81 357 92 380 101 L404 0 C337 -31 295 -71 268 -113 C240 -155 230 -198 230 -233 C230 -272 240 -298 257 -314 C273 -330 296 -337 321 -337 C370 -337 429 -314 473 -291 L480 -296 L480 -427 C428 -464 375 -478 324 -478 C259 -478 199 -451 155 -407 C111 -363 83 -302 83 -231 C83 -140 136 -63 212 0 L160 0 L160 1318 Z "/>
<glyph glyph-name="iogonek" unicode="į" horiz-adv-x="535" d="M160 1321 C160 1350 172 1377 192 1397 C211 1416 238 1428 267 1428 C296 1428 323 1416 343 1397 C363 1377 375 1350 375 1321 C375 1292 363 1266 343 1247 C323 1227 296 1215 267 1215 C238 1215 211 1227 192 1247 C172 1266 160 1292 160 1321 L160 1321 Z M420 -296 L420 -427 C368 -464 315 -478 264 -478 C199 -478 139 -451 95 -407 C51 -363 23 -302 23 -231 C23 -179 42 -130 72 -86 C102 -42 143 -3 190 29 L190 1038 L344 1038 L344 0 C277 -31 235 -71 208 -113 C180 -155 170 -198 170 -233 C170 -272 180 -298 197 -314 C213 -330 236 -337 261 -337 C310 -337 369 -314 413 -291 L420 -296 Z "/>
<glyph glyph-name="Idotaccent" unicode="İ" horiz-adv-x="474" d="M123 1582 C123 1613 136 1641 157 1661 C177 1681 205 1694 236 1694 C267 1694 296 1681 317 1661 C337 1641 350 1613 350 1582 C350 1551 337 1523 317 1503 C296 1483 267 1470 236 1470 C205 1470 177 1483 157 1503 C136 1523 123 1551 123 1582 L123 1582 Z M160 1318 L314 1318 L314 0 L160 0 L160 1318 Z "/>
<glyph glyph-name="dotlessi" unicode="ı" horiz-adv-x="535" d="M190 1038 L344 1038 L344 0 L190 0 L190 1038 Z "/>
<glyph glyph-name="IJ" unicode="Ĳ" horiz-adv-x="1124" d="M99 1581 C99 1610 111 1637 131 1657 C150 1676 177 1688 206 1688 C235 1688 262 1676 282 1657 C302 1637 314 1610 314 1581 C314 1552 302 1526 282 1507 C262 1487 235 1475 206 1475 C177 1475 150 1487 131 1507 C111 1526 99 1552 99 1581 L99 1581 Z M806 1581 C806 1610 818 1637 838 1657 C857 1676 884 1688 913 1688 C942 1688 969 1676 989 1657 C1009 1637 1021 1610 1021 1581 C1021 1552 1009 1526 989 1507 C969 1487 942 1475 913 1475 C884 1475 857 1487 838 1507 C818 1526 806 1552 806 1581 L806 1581 Z M129 431 L129 1318 L283 1318 L283 431 L129 431 Z M348 139 C395 124 445 122 496 122 C555 122 612 125 663 145 C714 164 756 198 787 260 C818 322 836 411 836 540 L836 1318 L990 1318 L990 490 C990 341 960 233 912 158 C864 82 798 37 725 12 C652 -13 572 -20 497 -20 C428 -20 356 -15 288 6 L348 139 Z "/>
<glyph glyph-name="ij" unicode="ĳ" horiz-adv-x="1181" d="M160 1321 C160 1350 172 1377 192 1397 C211 1416 238 1428 267 1428 C296 1428 323 1416 343 1397 C363 1377 375 1350 375 1321 C375 1292 363 1266 343 1247 C323 1227 296 1215 267 1215 C238 1215 211 1227 192 1247 C172 1266 160 1292 160 1321 L160 1321 Z M816 1321 C816 1350 828 1377 848 1397 C867 1416 894 1428 923 1428 C952 1428 979 1416 999 1397 C1019 1377 1031 1350 1031 1321 C1031 1292 1019 1266 999 1247 C979 1227 952 1215 923 1215 C894 1215 867 1227 848 1247 C828 1266 816 1292 816 1321 L816 1321 Z M845 1038 L1000 1038 L1000 -74 C1000 -219 965 -321 906 -385 C847 -450 766 -478 677 -478 C596 -478 509 -455 421 -415 L463 -273 C530 -312 598 -335 658 -335 C711 -335 758 -317 791 -275 C824 -233 845 -169 845 -74 L845 82 C802 55 754 31 703 12 C652 -8 601 -20 556 -20 C457 -20 366 6 299 68 C231 130 189 227 189 374 L189 1038 L344 1038 L344 383 C344 283 370 218 411 178 C451 138 508 123 571 123 C619 123 667 135 714 155 C761 174 805 198 845 222 L845 1038 Z "/>
<glyph glyph-name="Jcircumflex" unicode="Ĵ" horiz-adv-x="731" d="M432 1666 C385 1623 339 1588 291 1557 C242 1525 192 1498 136 1470 C128 1477 118 1496 110 1518 C102 1540 94 1565 93 1585 C220 1653 327 1734 431 1834 L439 1834 C544 1734 649 1653 777 1585 C774 1565 768 1540 760 1518 C752 1496 742 1477 734 1470 C623 1523 530 1581 437 1666 L432 1666 Z M167 123 L172 123 C225 123 272 141 305 183 C338 225 359 289 359 384 L359 1318 L514 1318 L514 384 C514 277 493 176 439 102 C385 28 298 -20 167 -20 L167 123 Z "/>
<glyph glyph-name="jcircumflex" unicode="ĵ" horiz-adv-x="530" d="M262 1386 C215 1343 169 1308 121 1277 C72 1245 22 1218 -34 1190 C-42 1197 -52 1216 -60 1238 C-68 1260 -76 1285 -77 1305 C50 1373 157 1454 261 1554 L269 1554 C374 1454 479 1373 607 1305 C604 1285 598 1260 590 1238 C582 1216 572 1197 564 1190 C453 1243 360 1301 267 1386 L262 1386 Z M194 1038 L349 1038 L349 -74 C349 -219 314 -321 255 -385 C196 -450 115 -478 26 -478 C-55 -478 -142 -455 -230 -415 L-188 -273 C-121 -312 -53 -335 7 -335 C60 -335 107 -317 140 -275 C173 -233 194 -169 194 -74 L194 1038 Z "/>
<glyph glyph-name="Kcommaaccent" unicode="Ķ" horiz-adv-x="1101" d="M1076 0 L887 0 L315 682 L315 0 L160 0 L160 1318 L315 1318 L315 700 L834 1318 L1024 1318 L1024 1309 L504 691 L1076 9 L1076 0 Z M449 -424 C480 -371 498 -333 498 -294 C498 -261 484 -230 453 -187 C453 -156 466 -128 486 -108 C506 -88 534 -75 565 -75 C589 -75 617 -83 641 -102 C664 -122 680 -153 680 -198 C680 -255 654 -313 617 -363 C580 -413 532 -455 491 -478 L449 -424 Z "/>
<glyph glyph-name="kcommaaccent" unicode="ķ" horiz-adv-x="975" d="M882 -20 C830 -17 769 16 708 64 C647 111 583 175 527 240 C470 304 418 370 381 423 C362 449 347 471 336 490 C324 509 317 521 315 527 L315 0 L160 0 L160 1421 L305 1448 L315 1448 L315 546 L727 1038 L925 1038 L503 536 C508 513 541 465 589 409 C637 352 699 287 763 232 C827 177 893 133 946 117 L882 -20 Z M364 -424 C395 -371 413 -333 413 -294 C413 -261 399 -230 368 -187 C368 -156 381 -128 401 -108 C421 -88 449 -75 480 -75 C504 -75 532 -83 556 -102 C579 -122 595 -153 595 -198 C595 -255 569 -313 532 -363 C495 -413 447 -455 406 -478 L364 -424 Z "/>
<glyph glyph-name="Lacute" unicode="Ĺ" horiz-adv-x="968" d="M382 1838 C425 1815 462 1768 470 1713 C449 1681 385 1629 303 1581 C221 1533 122 1487 33 1470 C25 1477 15 1496 7 1518 C-1 1540 -8 1565 -9 1585 C90 1629 174 1681 240 1727 C306 1773 354 1814 382 1838 L382 1838 Z M150 1318 L305 1318 L305 144 L924 144 L924 0 L150 0 L150 1318 Z "/>
<glyph glyph-name="lacute" unicode="ĺ" horiz-adv-x="474" d="M389 1816 C432 1793 469 1746 477 1691 C456 1659 392 1607 310 1559 C228 1511 129 1465 40 1448 C32 1455 22 1474 14 1496 C6 1518 -1 1543 -2 1563 C97 1607 181 1659 247 1705 C313 1751 361 1792 389 1816 L389 1816 Z M160 1428 L304 1448 L314 1448 L314 0 L160 0 L160 1428 Z "/>
<glyph glyph-name="Lcommaaccent" unicode="Ļ" horiz-adv-x="968" d="M150 1318 L305 1318 L305 144 L924 144 L924 0 L150 0 L150 1318 Z M444 -424 C475 -371 493 -333 493 -294 C493 -261 479 -230 448 -187 C448 -156 461 -128 481 -108 C501 -88 529 -75 560 -75 C584 -75 612 -83 636 -102 C659 -122 675 -153 675 -198 C675 -255 649 -313 612 -363 C575 -413 527 -455 486 -478 L444 -424 Z "/>
<glyph glyph-name="lcommaaccent" unicode="ļ" horiz-adv-x="474" d="M160 1428 L304 1448 L314 1448 L314 0 L160 0 L160 1428 Z M121 -424 C152 -371 170 -333 170 -294 C170 -261 156 -230 125 -187 C125 -156 138 -128 158 -108 C178 -88 206 -75 237 -75 C261 -75 289 -83 313 -102 C336 -122 352 -153 352 -198 C352 -255 326 -313 289 -363 C252 -413 204 -455 163 -478 L121 -424 Z "/>
<glyph glyph-name="Lcaron" unicode="Ľ" horiz-adv-x="968" d="M570 1099 C601 1152 619 1190 619 1229 C619 1262 605 1293 574 1336 C574 1367 587 1395 607 1415 C627 1435 655 1448 686 1448 C710 1448 738 1440 762 1421 C785 1401 801 1370 801 1325 C801 1268 775 1210 738 1160 C701 1110 653 1068 612 1045 L570 1099 Z M150 1318 L305 1318 L305 144 L924 144 L924 0 L150 0 L150 1318 Z "/>
<glyph glyph-name="lcaron" unicode="ľ" horiz-adv-x="865" d="M160 1428 L304 1448 L314 1448 L314 0 L160 0 L160 1428 Z M554 1099 C585 1152 603 1190 603 1229 C603 1262 589 1293 558 1336 C558 1367 571 1395 591 1415 C611 1435 639 1448 670 1448 C694 1448 722 1440 746 1421 C769 1401 785 1370 785 1325 C785 1268 759 1210 722 1160 C685 1110 637 1068 596 1045 L554 1099 Z "/>
<glyph glyph-name="Ldot" unicode="Ŀ" horiz-adv-x="968" d="M150 1318 L305 1318 L305 144 L924 144 L924 0 L150 0 L150 1318 Z M675 729 C675 760 688 788 709 808 C729 828 757 841 788 841 C819 841 848 828 869 808 C889 788 902 760 902 729 C902 698 889 670 869 650 C848 630 819 617 788 617 C757 617 729 630 709 650 C688 670 675 698 675 729 L675 729 Z "/>
<glyph glyph-name="ldot" unicode="ŀ" horiz-adv-x="800" d="M160 1428 L304 1448 L314 1448 L314 0 L160 0 L160 1428 Z M436 729 C436 760 449 788 470 808 C490 828 518 841 549 841 C580 841 609 828 630 808 C650 788 663 760 663 729 C663 698 650 670 630 650 C609 630 580 617 549 617 C518 617 490 630 470 650 C449 670 436 698 436 729 L436 729 Z "/>
<glyph glyph-name="Lslash" unicode="Ł" horiz-adv-x="968" d="M-50 663 L150 735 L150 1318 L305 1318 L305 791 L487 857 L534 730 L305 647 L305 144 L924 144 L924 0 L150 0 L150 591 L-3 536 L-50 663 Z "/>
<glyph glyph-name="lslash" unicode="ł" horiz-adv-x="474" d="M-50 871 L160 947 L160 1428 L304 1448 L314 1448 L314 1002 L487 1065 L534 938 L314 858 L314 0 L160 0 L160 803 L-3 744 L-50 871 Z "/>
<glyph glyph-name="Nacute" unicode="Ń" horiz-adv-x="1263" d="M783 1838 C826 1815 863 1768 871 1713 C850 1681 786 1629 704 1581 C622 1533 523 1487 434 1470 C426 1477 416 1496 408 1518 C400 1540 393 1565 392 1585 C491 1629 575 1681 641 1727 C707 1773 755 1814 783 1838 L783 1838 Z M315 1028 L315 0 L160 0 L160 1318 L321 1318 L958 299 L958 1318 L1113 1318 L1113 0 L958 0 L315 1028 Z "/>
<glyph glyph-name="nacute" unicode="ń" horiz-adv-x="1121" d="M738 1558 C781 1535 818 1488 826 1433 C805 1401 741 1349 659 1301 C577 1253 478 1207 389 1190 C381 1197 371 1216 363 1238 C355 1260 348 1285 347 1305 C446 1349 530 1401 596 1447 C662 1493 710 1534 738 1558 L738 1558 Z M160 1038 L264 1038 L293 942 C336 970 388 999 443 1021 C498 1043 555 1058 604 1058 C703 1058 794 1033 862 971 C929 909 971 811 971 664 L971 0 L816 0 L816 655 C816 755 790 820 750 860 C709 900 652 915 589 915 C541 915 492 902 445 883 C398 864 355 839 315 815 L315 0 L160 0 L160 1038 Z "/>
<glyph glyph-name="Ncommaaccent" unicode="Ņ" horiz-adv-x="1263" d="M315 1028 L315 0 L160 0 L160 1318 L321 1318 L958 299 L958 1318 L1113 1318 L1113 0 L958 0 L315 1028 Z M520 -424 C551 -371 569 -333 569 -294 C569 -261 555 -230 524 -187 C524 -156 537 -128 557 -108 C577 -88 605 -75 636 -75 C660 -75 688 -83 712 -102 C735 -122 751 -153 751 -198 C751 -255 725 -313 688 -363 C651 -413 603 -455 562 -478 L520 -424 Z "/>
<glyph glyph-name="ncommaaccent" unicode="ņ" horiz-adv-x="1121" d="M160 1038 L264 1038 L293 942 C336 970 388 999 443 1021 C498 1043 555 1058 604 1058 C703 1058 794 1033 862 971 C929 909 971 811 971 664 L971 0 L816 0 L816 655 C816 755 790 820 750 860 C709 900 652 915 589 915 C541 915 492 902 445 883 C398 864 355 839 315 815 L315 0 L160 0 L160 1038 Z M438 -424 C469 -371 487 -333 487 -294 C487 -261 473 -230 442 -187 C442 -156 455 -128 475 -108 C495 -88 523 -75 554 -75 C578 -75 606 -83 630 -102 C653 -122 669 -153 669 -198 C669 -255 643 -313 606 -363 C569 -413 521 -455 480 -478 L438 -424 Z "/>
<glyph glyph-name="Ncaron" unicode="Ň" horiz-adv-x="1263" d="M673 1614 C766 1699 859 1755 970 1810 C978 1803 988 1785 996 1763 C1004 1741 1010 1715 1013 1695 C885 1627 780 1546 675 1446 L667 1446 C563 1546 456 1627 329 1695 C330 1715 338 1741 346 1763 C354 1785 364 1803 372 1810 C483 1755 575 1699 668 1614 L673 1614 Z M315 1028 L315 0 L160 0 L160 1318 L321 1318 L958 299 L958 1318 L1113 1318 L1113 0 L958 0 L315 1028 Z "/>
<glyph glyph-name="ncaron" unicode="ň" horiz-adv-x="1121" d="M562 1358 C655 1443 748 1499 859 1554 C867 1547 877 1529 885 1507 C893 1485 899 1459 902 1439 C774 1371 669 1290 564 1190 L556 1190 C452 1290 345 1371 218 1439 C219 1459 227 1485 235 1507 C243 1529 253 1547 261 1554 C372 1499 464 1443 557 1358 L562 1358 Z M160 1038 L264 1038 L293 942 C336 970 388 999 443 1021 C498 1043 555 1058 604 1058 C703 1058 794 1033 862 971 C929 909 971 811 971 664 L971 0 L816 0 L816 655 C816 755 790 820 750 860 C709 900 652 915 589 915 C541 915 492 902 445 883 C398 864 355 839 315 815 L315 0 L160 0 L160 1038 Z "/>
<glyph glyph-name="Eng" unicode="Ŋ" horiz-adv-x="1263" d="M766 -334 L771 -334 C824 -334 871 -316 904 -274 C937 -232 958 -168 958 -73 L958 0 L315 1028 L315 0 L160 0 L160 1318 L321 1318 L958 299 L958 1318 L1113 1318 L1113 -73 C1113 -180 1092 -281 1038 -355 C984 -429 897 -477 766 -477 L766 -334 Z "/>
<glyph glyph-name="eng" unicode="ŋ" horiz-adv-x="1121" d="M816 655 C816 755 790 820 750 860 C709 900 652 915 589 915 C541 915 492 902 445 883 C398 864 355 839 315 815 L315 0 L160 0 L160 1038 L264 1038 L293 942 C336 970 388 999 443 1021 C498 1043 555 1058 604 1058 C703 1058 794 1033 862 971 C929 909 971 811 971 664 L971 -74 C971 -219 936 -321 877 -385 C818 -450 737 -478 648 -478 C567 -478 480 -455 392 -415 L434 -273 C501 -312 569 -335 629 -335 C682 -335 729 -317 762 -275 C795 -233 816 -169 816 -74 L816 655 Z "/>
<glyph glyph-name="Omacron" unicode="Ō" horiz-adv-x="1383" d="M404 1618 L1006 1618 L1006 1474 L404 1474 L404 1618 Z M80 660 C80 852 143 1021 252 1143 C361 1265 515 1338 698 1338 C881 1338 1032 1265 1138 1143 C1244 1021 1303 852 1303 660 C1303 468 1240 299 1132 177 C1024 55 870 -20 687 -20 C504 -20 353 54 247 176 C141 298 80 468 80 660 L80 660 Z M234 672 C234 517 276 381 355 283 C434 185 551 124 699 124 C843 124 956 180 1032 273 C1108 366 1149 497 1149 648 C1149 803 1109 940 1032 1038 C955 1136 842 1194 694 1194 C550 1194 435 1138 356 1045 C276 952 234 821 234 672 L234 672 Z "/>
<glyph glyph-name="omacron" unicode="ō" horiz-adv-x="1112" d="M255 1338 L857 1338 L857 1194 L255 1194 L255 1338 Z M80 516 C80 667 130 802 215 900 C299 998 419 1058 560 1058 C701 1058 821 997 903 900 C985 803 1032 669 1032 521 C1032 370 983 236 899 138 C814 40 693 -20 552 -20 C409 -20 292 41 210 138 C128 234 80 368 80 516 L80 516 Z M235 524 C235 416 262 315 317 243 C372 170 453 124 561 124 C665 124 744 166 797 235 C850 304 877 402 877 513 C877 622 850 723 797 796 C744 869 664 914 556 914 C452 914 372 872 318 802 C264 732 235 633 235 524 L235 524 Z "/>
<glyph glyph-name="Ohungarumlaut" unicode="Ő" horiz-adv-x="1383" d="M723 1927 C770 1918 822 1884 846 1835 C835 1799 790 1730 727 1659 C663 1587 584 1514 505 1470 C496 1474 481 1488 466 1507 C451 1526 437 1546 429 1565 C509 1638 574 1712 623 1776 C671 1840 704 1895 723 1927 L723 1927 Z M1084 1927 C1131 1918 1182 1884 1207 1835 C1199 1811 1177 1772 1144 1728 C1111 1683 1068 1634 1020 1588 C971 1542 918 1499 865 1470 C856 1474 841 1488 827 1507 C813 1526 798 1546 790 1565 C870 1638 934 1712 983 1776 C1031 1840 1064 1895 1084 1927 L1084 1927 Z M80 660 C80 852 143 1021 252 1143 C361 1265 515 1338 698 1338 C881 1338 1032 1265 1138 1143 C1244 1021 1303 852 1303 660 C1303 468 1240 299 1132 177 C1024 55 870 -20 687 -20 C504 -20 353 54 247 176 C141 298 80 468 80 660 L80 660 Z M234 672 C234 517 276 381 355 283 C434 185 551 124 699 124 C843 124 956 180 1032 273 C1108 366 1149 497 1149 648 C1149 803 1109 940 1032 1038 C955 1136 842 1194 694 1194 C550 1194 435 1138 356 1045 C276 952 234 821 234 672 L234 672 Z "/>
<glyph glyph-name="ohungarumlaut" unicode="ő" horiz-adv-x="1112" d="M536 1647 C583 1638 635 1604 659 1555 C648 1519 603 1450 540 1379 C476 1307 397 1234 318 1190 C309 1194 294 1208 279 1227 C264 1246 250 1266 242 1285 C322 1358 387 1432 436 1496 C484 1560 517 1615 536 1647 L536 1647 Z M897 1647 C944 1638 995 1604 1020 1555 C1012 1531 990 1492 957 1448 C924 1403 881 1354 833 1308 C784 1262 731 1219 678 1190 C669 1194 654 1208 640 1227 C626 1246 611 1266 603 1285 C683 1358 747 1432 796 1496 C844 1560 877 1615 897 1647 L897 1647 Z M80 516 C80 667 130 802 215 900 C299 998 419 1058 560 1058 C701 1058 821 997 903 900 C985 803 1032 669 1032 521 C1032 370 983 236 899 138 C814 40 693 -20 552 -20 C409 -20 292 41 210 138 C128 234 80 368 80 516 L80 516 Z M235 524 C235 416 262 315 317 243 C372 170 453 124 561 124 C665 124 744 166 797 235 C850 304 877 402 877 513 C877 622 850 723 797 796 C744 869 664 914 556 914 C452 914 372 872 318 802 C264 732 235 633 235 524 L235 524 Z "/>
<glyph glyph-name="OE" unicode="Œ" horiz-adv-x="1696" d="M1651 0 L857 0 L857 3 C804 -12 747 -20 687 -20 C504 -20 353 54 247 176 C141 298 80 468 80 660 C80 852 143 1021 252 1143 C361 1265 515 1338 698 1338 C753 1338 806 1331 857 1318 L1651 1318 L1651 1174 L1012 1174 L1012 731 L1651 731 L1651 587 L1012 587 L1012 144 L1651 144 L1651 0 Z M857 1166 C808 1185 754 1194 694 1194 C550 1194 435 1138 356 1045 C276 952 234 821 234 672 C234 517 276 381 355 283 C434 185 551 124 699 124 C756 124 809 133 857 150 L857 1166 Z "/>
<glyph glyph-name="oe" unicode="œ" horiz-adv-x="1728" d="M1678 480 L1031 480 C1039 360 1081 271 1142 212 C1203 153 1285 124 1374 124 C1467 124 1559 150 1654 198 L1657 197 L1657 54 C1549 1 1455 -20 1359 -20 C1275 -20 1194 -2 1124 36 C1054 74 993 129 950 208 C909 139 853 82 786 42 C718 2 639 -20 552 -20 C409 -20 292 41 210 138 C128 234 80 368 80 516 C80 667 130 802 215 900 C299 998 419 1058 560 1058 C729 1058 860 974 943 843 C978 908 1025 963 1089 1000 C1152 1037 1228 1058 1323 1058 C1430 1058 1504 1031 1557 988 C1609 945 1640 886 1657 821 C1674 756 1678 685 1678 620 L1678 480 Z M235 524 C235 416 262 315 317 243 C372 170 453 124 561 124 C665 124 744 166 797 235 C850 304 877 402 877 513 C877 622 850 723 797 796 C744 869 664 914 556 914 C452 914 372 872 318 802 C264 732 235 633 235 524 L235 524 Z M1526 620 C1525 700 1514 773 1483 827 C1452 881 1401 914 1320 914 C1241 914 1178 883 1130 831 C1082 779 1051 705 1038 620 L1526 620 Z "/>
<glyph glyph-name="Racute" unicode="Ŕ" horiz-adv-x="1233" d="M699 1838 C742 1815 779 1768 787 1713 C766 1681 702 1629 620 1581 C538 1533 439 1487 350 1470 C342 1477 332 1496 324 1518 C316 1540 309 1565 308 1585 C407 1629 491 1681 557 1727 C623 1773 671 1814 699 1838 L699 1838 Z M160 0 L160 1318 L483 1318 C703 1318 849 1284 941 1213 C1033 1141 1070 1034 1070 887 C1070 786 1050 706 1011 643 C972 579 916 534 847 502 C863 461 891 409 927 356 C962 303 1004 249 1049 205 C1093 160 1139 123 1183 106 L1098 -20 C1046 -9 992 31 941 86 C889 141 840 208 798 275 C756 342 721 406 698 454 C613 437 516 431 411 431 L315 431 L315 0 L160 0 Z M315 1173 L315 576 L448 576 C592 576 709 594 791 640 C873 686 918 761 918 874 C918 994 875 1069 797 1114 C719 1158 608 1173 473 1173 L315 1173 Z "/>
<glyph glyph-name="racute" unicode="ŕ" horiz-adv-x="813" d="M558 1558 C601 1535 638 1488 646 1433 C625 1401 561 1349 479 1301 C397 1253 298 1207 209 1190 C201 1197 191 1216 183 1238 C175 1260 168 1285 167 1305 C266 1349 350 1401 416 1447 C482 1493 530 1534 558 1558 L558 1558 Z M212 1038 L316 1038 L352 920 C429 1009 511 1058 607 1058 C632 1058 663 1055 694 1049 C725 1043 755 1033 779 1022 L725 883 C686 902 625 915 582 915 C491 915 420 857 367 776 L367 0 L212 0 L212 1038 Z "/>
<glyph glyph-name="Rcommaaccent" unicode="Ŗ" horiz-adv-x="1233" d="M160 0 L160 1318 L483 1318 C703 1318 849 1284 941 1213 C1033 1141 1070 1034 1070 887 C1070 786 1050 706 1011 643 C972 579 916 534 847 502 C863 461 891 409 927 356 C962 303 1004 249 1049 205 C1093 160 1139 123 1183 106 L1098 -20 C1046 -9 992 31 941 86 C889 141 840 208 798 275 C756 342 721 406 698 454 C613 437 516 431 411 431 L315 431 L315 0 L160 0 Z M315 1173 L315 576 L448 576 C592 576 709 594 791 640 C873 686 918 761 918 874 C918 994 875 1069 797 1114 C719 1158 608 1173 473 1173 L315 1173 Z M508 -424 C539 -371 557 -333 557 -294 C557 -261 543 -230 512 -187 C512 -156 525 -128 545 -108 C565 -88 593 -75 624 -75 C648 -75 676 -83 700 -102 C723 -122 739 -153 739 -198 C739 -255 713 -313 676 -363 C639 -413 591 -455 550 -478 L508 -424 Z "/>
<glyph glyph-name="rcommaaccent" unicode="ŗ" horiz-adv-x="813" d="M212 1038 L316 1038 L352 920 C429 1009 511 1058 607 1058 C632 1058 663 1055 694 1049 C725 1043 755 1033 779 1022 L725 883 C686 902 625 915 582 915 C491 915 420 857 367 776 L367 0 L212 0 L212 1038 Z M178 -424 C209 -371 227 -333 227 -294 C227 -261 213 -230 182 -187 C182 -156 195 -128 215 -108 C235 -88 263 -75 294 -75 C318 -75 346 -83 370 -102 C393 -122 409 -153 409 -198 C409 -255 383 -313 346 -363 C309 -413 261 -455 220 -478 L178 -424 Z "/>
<glyph glyph-name="Rcaron" unicode="Ř" horiz-adv-x="1233" d="M555 1614 C648 1699 741 1755 852 1810 C860 1803 870 1785 878 1763 C886 1741 892 1715 895 1695 C767 1627 662 1546 557 1446 L549 1446 C445 1546 338 1627 211 1695 C212 1715 220 1741 228 1763 C236 1785 246 1803 254 1810 C365 1755 457 1699 550 1614 L555 1614 Z M160 0 L160 1318 L483 1318 C703 1318 849 1284 941 1213 C1033 1141 1070 1034 1070 887 C1070 786 1050 706 1011 643 C972 579 916 534 847 502 C863 461 891 409 927 356 C962 303 1004 249 1049 205 C1093 160 1139 123 1183 106 L1098 -20 C1046 -9 992 31 941 86 C889 141 840 208 798 275 C756 342 721 406 698 454 C613 437 516 431 411 431 L315 431 L315 0 L160 0 Z M315 1173 L315 576 L448 576 C592 576 709 594 791 640 C873 686 918 761 918 874 C918 994 875 1069 797 1114 C719 1158 608 1173 473 1173 L315 1173 Z "/>
<glyph glyph-name="rcaron" unicode="ř" horiz-adv-x="813" d="M467 1358 C560 1443 653 1499 764 1554 C772 1547 782 1529 790 1507 C798 1485 804 1459 807 1439 C679 1371 574 1290 469 1190 L461 1190 C357 1290 250 1371 123 1439 C124 1459 132 1485 140 1507 C148 1529 158 1547 166 1554 C277 1499 369 1443 462 1358 L467 1358 Z M212 1038 L316 1038 L352 920 C429 1009 511 1058 607 1058 C632 1058 663 1055 694 1049 C725 1043 755 1033 779 1022 L725 883 C686 902 625 915 582 915 C491 915 420 857 367 776 L367 0 L212 0 L212 1038 Z "/>
<glyph glyph-name="Sacute" unicode="Ś" horiz-adv-x="919" d="M611 1838 C654 1815 691 1768 699 1713 C678 1681 614 1629 532 1581 C450 1533 351 1487 262 1470 C254 1477 244 1496 236 1518 C228 1540 221 1565 220 1585 C319 1629 403 1681 469 1727 C535 1773 583 1814 611 1838 L611 1838 Z M90 178 L93 179 C126 164 173 151 223 141 C273 131 328 124 383 124 C460 124 536 138 592 171 C648 204 685 258 685 341 C685 429 644 481 569 528 C517 561 445 596 376 631 C307 666 240 699 201 731 C137 782 97 864 97 983 C97 1115 147 1204 223 1260 C299 1316 401 1338 505 1338 C586 1338 665 1324 737 1303 L737 1171 L734 1169 C674 1181 589 1196 505 1196 C437 1196 371 1186 321 1156 C271 1126 238 1075 238 995 C238 930 259 889 295 857 C330 826 389 796 457 762 C525 728 600 691 664 650 C711 619 753 589 782 546 C811 502 829 448 829 375 C829 240 770 141 682 76 C594 11 476 -20 359 -20 C263 -20 170 -1 90 38 L90 178 Z "/>
<glyph glyph-name="sacute" unicode="ś" horiz-adv-x="771" d="M537 1558 C580 1535 617 1488 625 1433 C604 1401 540 1349 458 1301 C376 1253 277 1207 188 1190 C180 1197 170 1216 162 1238 C154 1260 147 1285 146 1305 C245 1349 329 1401 395 1447 C461 1493 509 1534 537 1558 L537 1558 Z M55 172 L61 177 C92 165 132 152 174 142 C216 132 260 125 300 125 C348 125 413 135 466 162 C519 189 561 230 561 293 C561 348 530 384 483 413 C459 428 432 441 402 453 C342 477 278 502 218 534 C158 566 109 610 81 673 C66 704 59 742 59 785 C59 888 104 956 170 999 C236 1042 324 1058 412 1058 C488 1058 562 1046 623 1029 L623 889 L617 886 C598 891 564 899 522 906 C480 913 432 919 388 919 C345 919 301 913 268 895 C235 877 212 846 212 798 C212 741 243 704 291 674 C314 659 341 645 372 634 C432 610 496 587 557 556 C617 525 666 483 695 423 C709 392 716 356 716 313 C716 201 661 117 581 62 C500 7 394 -20 291 -20 C203 -20 123 -2 55 27 L55 172 Z "/>
<glyph glyph-name="Scircumflex" unicode="Ŝ" horiz-adv-x="919" d="M456 1666 C409 1623 363 1588 315 1557 C266 1525 216 1498 160 1470 C152 1477 142 1496 134 1518 C126 1540 118 1565 117 1585 C244 1653 351 1734 455 1834 L463 1834 C568 1734 673 1653 801 1585 C798 1565 792 1540 784 1518 C776 1496 766 1477 758 1470 C647 1523 554 1581 461 1666 L456 1666 Z M90 178 L93 179 C126 164 173 151 223 141 C273 131 328 124 383 124 C460 124 536 138 592 171 C648 204 685 258 685 341 C685 429 644 481 569 528 C517 561 445 596 376 631 C307 666 240 699 201 731 C137 782 97 864 97 983 C97 1115 147 1204 223 1260 C299 1316 401 1338 505 1338 C586 1338 665 1324 737 1303 L737 1171 L734 1169 C674 1181 589 1196 505 1196 C437 1196 371 1186 321 1156 C271 1126 238 1075 238 995 C238 930 259 889 295 857 C330 826 389 796 457 762 C525 728 600 691 664 650 C711 619 753 589 782 546 C811 502 829 448 829 375 C829 240 770 141 682 76 C594 11 476 -20 359 -20 C263 -20 170 -1 90 38 L90 178 Z "/>
<glyph glyph-name="scircumflex" unicode="ŝ" horiz-adv-x="771" d="M372 1386 C325 1343 279 1308 231 1277 C182 1245 132 1218 76 1190 C68 1197 58 1216 50 1238 C42 1260 34 1285 33 1305 C160 1373 267 1454 371 1554 L379 1554 C484 1454 589 1373 717 1305 C714 1285 708 1260 700 1238 C692 1216 682 1197 674 1190 C563 1243 470 1301 377 1386 L372 1386 Z M55 172 L61 177 C92 165 132 152 174 142 C216 132 260 125 300 125 C348 125 413 135 466 162 C519 189 561 230 561 293 C561 348 530 384 483 413 C459 428 432 441 402 453 C342 477 278 502 218 534 C158 566 109 610 81 673 C66 704 59 742 59 785 C59 888 104 956 170 999 C236 1042 324 1058 412 1058 C488 1058 562 1046 623 1029 L623 889 L617 886 C598 891 564 899 522 906 C480 913 432 919 388 919 C345 919 301 913 268 895 C235 877 212 846 212 798 C212 741 243 704 291 674 C314 659 341 645 372 634 C432 610 496 587 557 556 C617 525 666 483 695 423 C709 392 716 356 716 313 C716 201 661 117 581 62 C500 7 394 -20 291 -20 C203 -20 123 -2 55 27 L55 172 Z "/>
<glyph glyph-name="Scedilla" unicode="Ş" horiz-adv-x="919" d="M90 178 L93 179 C126 164 173 151 223 141 C273 131 328 124 383 124 C460 124 536 138 592 171 C648 204 685 258 685 341 C685 429 644 481 569 528 C517 561 445 596 376 631 C307 666 240 699 201 731 C137 782 97 864 97 983 C97 1115 147 1204 223 1260 C299 1316 401 1338 505 1338 C586 1338 665 1324 737 1303 L737 1171 L734 1169 C674 1181 589 1196 505 1196 C437 1196 371 1186 321 1156 C271 1126 238 1075 238 995 C238 930 259 889 295 857 C330 826 389 796 457 762 C525 728 600 691 664 650 C711 619 753 589 782 546 C811 502 829 448 829 375 C829 240 770 141 682 76 C594 11 476 -20 359 -20 C263 -20 170 -1 90 38 L90 178 Z M346 -424 C377 -371 395 -333 395 -294 C395 -261 381 -230 350 -187 C350 -156 363 -128 383 -108 C403 -88 431 -75 462 -75 C486 -75 514 -83 538 -102 C561 -122 577 -153 577 -198 C577 -255 551 -313 514 -363 C477 -413 429 -455 388 -478 L346 -424 Z "/>
<glyph glyph-name="scedilla" unicode="ş" horiz-adv-x="801" d="M70 172 L76 177 C107 165 147 152 189 142 C231 132 275 125 315 125 C363 125 428 135 481 162 C534 189 576 230 576 293 C576 348 545 384 498 413 C474 428 447 441 417 453 C357 477 293 502 233 534 C173 566 124 610 96 673 C81 704 74 742 74 785 C74 888 119 956 185 999 C251 1042 339 1058 427 1058 C503 1058 577 1046 638 1029 L638 889 L632 886 C613 891 579 899 537 906 C495 913 447 919 403 919 C360 919 316 913 283 895 C250 877 227 846 227 798 C227 741 258 704 306 674 C329 659 356 645 387 634 C447 610 511 587 572 556 C632 525 681 483 710 423 C724 392 731 356 731 313 C731 201 676 117 596 62 C515 7 409 -20 306 -20 C218 -20 138 -2 70 27 L70 172 Z M296 -424 C327 -371 345 -333 345 -294 C345 -261 331 -230 300 -187 C300 -156 313 -128 333 -108 C353 -88 381 -75 412 -75 C436 -75 464 -83 488 -102 C511 -122 527 -153 527 -198 C527 -255 501 -313 464 -363 C427 -413 379 -455 338 -478 L296 -424 Z "/>
<glyph glyph-name="Scaron" unicode="Š" horiz-adv-x="919" d="M481 1614 C574 1699 667 1755 778 1810 C786 1803 796 1785 804 1763 C812 1741 818 1715 821 1695 C693 1627 588 1546 483 1446 L475 1446 C371 1546 264 1627 137 1695 C138 1715 146 1741 154 1763 C162 1785 172 1803 180 1810 C291 1755 383 1699 476 1614 L481 1614 Z M90 178 L93 179 C126 164 173 151 223 141 C273 131 328 124 383 124 C460 124 536 138 592 171 C648 204 685 258 685 341 C685 429 644 481 569 528 C517 561 445 596 376 631 C307 666 240 699 201 731 C137 782 97 864 97 983 C97 1115 147 1204 223 1260 C299 1316 401 1338 505 1338 C586 1338 665 1324 737 1303 L737 1171 L734 1169 C674 1181 589 1196 505 1196 C437 1196 371 1186 321 1156 C271 1126 238 1075 238 995 C238 930 259 889 295 857 C330 826 389 796 457 762 C525 728 600 691 664 650 C711 619 753 589 782 546 C811 502 829 448 829 375 C829 240 770 141 682 76 C594 11 476 -20 359 -20 C263 -20 170 -1 90 38 L90 178 Z "/>
<glyph glyph-name="scaron" unicode="š" horiz-adv-x="801" d="M413 1358 C506 1443 599 1499 710 1554 C718 1547 728 1529 736 1507 C744 1485 750 1459 753 1439 C625 1371 520 1290 415 1190 L407 1190 C303 1290 196 1371 69 1439 C70 1459 78 1485 86 1507 C94 1529 104 1547 112 1554 C223 1499 315 1443 408 1358 L413 1358 Z M70 172 L76 177 C107 165 147 152 189 142 C231 132 275 125 315 125 C363 125 428 135 481 162 C534 189 576 230 576 293 C576 348 545 384 498 413 C474 428 447 441 417 453 C357 477 293 502 233 534 C173 566 124 610 96 673 C81 704 74 742 74 785 C74 888 119 956 185 999 C251 1042 339 1058 427 1058 C503 1058 577 1046 638 1029 L638 889 L632 886 C613 891 579 899 537 906 C495 913 447 919 403 919 C360 919 316 913 283 895 C250 877 227 846 227 798 C227 741 258 704 306 674 C329 659 356 645 387 634 C447 610 511 587 572 556 C632 525 681 483 710 423 C724 392 731 356 731 313 C731 201 676 117 596 62 C515 7 409 -20 306 -20 C218 -20 138 -2 70 27 L70 172 Z "/>
<glyph glyph-name="Tcedilla" unicode="Ţ" horiz-adv-x="1060" d="M45 1318 L1015 1318 L1015 1174 L607 1174 L607 0 L453 0 L453 1174 L45 1174 L45 1318 Z M406 -424 C437 -371 455 -333 455 -294 C455 -261 441 -230 410 -187 C410 -156 423 -128 443 -108 C463 -88 491 -75 522 -75 C546 -75 574 -83 598 -102 C621 -122 637 -153 637 -198 C637 -255 611 -313 574 -363 C537 -413 489 -455 448 -478 L406 -424 Z "/>
<glyph glyph-name="tcedilla" unicode="ţ" horiz-adv-x="744" d="M40 1038 L155 1038 L155 1224 L300 1251 L310 1251 L310 1038 L598 1038 L598 894 L310 894 L310 384 C310 289 331 225 364 183 C397 141 444 123 497 123 C557 123 624 146 692 185 L734 43 C646 3 559 -20 478 -20 C387 -20 308 8 249 73 C190 137 155 239 155 384 L155 894 L40 894 L40 1038 Z M330 -424 C361 -371 379 -333 379 -294 C379 -261 365 -230 334 -187 C334 -156 347 -128 367 -108 C387 -88 415 -75 446 -75 C470 -75 498 -83 522 -102 C545 -122 561 -153 561 -198 C561 -255 535 -313 498 -363 C461 -413 413 -455 372 -478 L330 -424 Z "/>
<glyph glyph-name="Tcaron" unicode="Ť" horiz-adv-x="1060" d="M532 1614 C625 1699 718 1755 829 1810 C837 1803 847 1785 855 1763 C863 1741 869 1715 872 1695 C744 1627 639 1546 534 1446 L526 1446 C422 1546 315 1627 188 1695 C189 1715 197 1741 205 1763 C213 1785 223 1803 231 1810 C342 1755 434 1699 527 1614 L532 1614 Z M45 1318 L1015 1318 L1015 1174 L607 1174 L607 0 L453 0 L453 1174 L45 1174 L45 1318 Z "/>
<glyph glyph-name="tcaron" unicode="ť" horiz-adv-x="1135" d="M824 1099 C855 1152 873 1190 873 1229 C873 1262 859 1293 828 1336 C828 1367 841 1395 861 1415 C881 1435 909 1448 940 1448 C964 1448 992 1440 1016 1421 C1039 1401 1055 1370 1055 1325 C1055 1268 1029 1210 992 1160 C955 1110 907 1068 866 1045 L824 1099 Z M40 1038 L155 1038 L155 1224 L300 1251 L310 1251 L310 1038 L598 1038 L598 894 L310 894 L310 384 C310 289 331 225 364 183 C397 141 444 123 497 123 C557 123 624 146 692 185 L734 43 C646 3 559 -20 478 -20 C387 -20 308 8 249 73 C190 137 155 239 155 384 L155 894 L40 894 L40 1038 Z "/>
<glyph glyph-name="Tbar" unicode="Ŧ" horiz-adv-x="1060" d="M247 755 L453 755 L453 1174 L45 1174 L45 1318 L1015 1318 L1015 1174 L607 1174 L607 755 L805 755 L805 611 L607 611 L607 0 L453 0 L453 611 L247 611 L247 755 Z "/>
<glyph glyph-name="tbar" unicode="ŧ" horiz-adv-x="744" d="M40 1038 L155 1038 L155 1224 L300 1251 L310 1251 L310 1038 L598 1038 L598 894 L310 894 L310 755 L598 755 L598 611 L310 611 L310 384 C310 289 331 225 364 183 C397 141 444 123 497 123 C557 123 624 146 692 185 L734 43 C646 3 559 -20 478 -20 C387 -20 308 8 249 73 C190 137 155 239 155 384 L155 611 L40 611 L40 755 L155 755 L155 894 L40 894 L40 1038 Z "/>
<glyph glyph-name="Utilde" unicode="Ũ" horiz-adv-x="1403" d="M906 1728 C930 1732 955 1734 979 1731 C1003 1728 1027 1720 1047 1701 C1040 1642 1012 1595 970 1561 C928 1527 873 1507 814 1507 C753 1507 718 1528 687 1549 C655 1570 629 1591 588 1591 C540 1591 497 1568 497 1513 L497 1507 C473 1503 448 1501 424 1504 C400 1507 376 1515 356 1534 C363 1593 392 1641 433 1675 C474 1709 529 1728 585 1728 C636 1728 672 1707 706 1686 C740 1665 772 1644 816 1644 C839 1644 861 1650 878 1663 C895 1675 906 1695 906 1722 L906 1728 Z M1036 1318 L1190 1318 L1190 490 C1190 341 1160 233 1112 158 C1064 82 998 37 925 12 C852 -13 772 -20 697 -20 C622 -20 544 -13 472 12 C399 37 334 81 286 157 C238 233 209 339 209 490 L209 1318 L363 1318 L363 540 C363 409 382 318 414 257 C445 196 490 162 539 143 C588 124 643 122 696 122 C755 122 812 125 863 145 C914 164 956 198 987 260 C1018 322 1036 411 1036 540 L1036 1318 Z "/>
<glyph glyph-name="utilde" unicode="ũ" horiz-adv-x="1121" d="M765 1448 C789 1452 814 1454 838 1451 C862 1448 886 1440 906 1421 C899 1362 871 1315 829 1281 C787 1247 732 1227 673 1227 C612 1227 577 1248 546 1269 C514 1290 488 1311 447 1311 C399 1311 356 1288 356 1233 L356 1227 C332 1223 307 1221 283 1224 C259 1227 235 1235 215 1254 C222 1313 251 1361 292 1395 C333 1429 388 1448 444 1448 C495 1448 531 1427 565 1406 C599 1385 631 1364 675 1364 C698 1364 720 1370 737 1383 C754 1395 765 1415 765 1442 L765 1448 Z M961 0 L863 0 L832 99 C789 71 736 41 680 18 C624 -5 566 -20 517 -20 C418 -20 327 6 260 68 C192 130 150 227 150 374 L150 1038 L305 1038 L305 383 C305 283 331 218 372 178 C412 138 469 123 532 123 C580 123 628 135 675 155 C722 174 766 198 806 222 L806 1038 L961 1038 L961 0 Z "/>
<glyph glyph-name="Umacron" unicode="Ū" horiz-adv-x="1403" d="M400 1618 L1002 1618 L1002 1474 L400 1474 L400 1618 Z M1036 1318 L1190 1318 L1190 490 C1190 341 1160 233 1112 158 C1064 82 998 37 925 12 C852 -13 772 -20 697 -20 C622 -20 544 -13 472 12 C399 37 334 81 286 157 C238 233 209 339 209 490 L209 1318 L363 1318 L363 540 C363 409 382 318 414 257 C445 196 490 162 539 143 C588 124 643 122 696 122 C755 122 812 125 863 145 C914 164 956 198 987 260 C1018 322 1036 411 1036 540 L1036 1318 Z "/>
<glyph glyph-name="umacron" unicode="ū" horiz-adv-x="1121" d="M259 1341 L861 1341 L861 1197 L259 1197 L259 1341 Z M961 0 L863 0 L832 99 C789 71 736 41 680 18 C624 -5 566 -20 517 -20 C418 -20 327 6 260 68 C192 130 150 227 150 374 L150 1038 L305 1038 L305 383 C305 283 331 218 372 178 C412 138 469 123 532 123 C580 123 628 135 675 155 C722 174 766 198 806 222 L806 1038 L961 1038 L961 0 Z "/>
<glyph glyph-name="Uring" unicode="Ů" horiz-adv-x="1403" d="M501 1449 C501 1502 524 1552 560 1588 C596 1624 646 1646 701 1646 C754 1646 805 1624 842 1588 C879 1552 902 1502 902 1449 C902 1396 879 1346 842 1310 C805 1273 754 1250 701 1250 C646 1250 596 1273 560 1310 C524 1346 501 1396 501 1449 L501 1449 Z M620 1449 C620 1405 657 1368 701 1368 C745 1368 783 1405 783 1449 C783 1470 774 1490 759 1506 C743 1521 722 1530 701 1530 C678 1530 659 1521 644 1506 C629 1490 620 1470 620 1449 L620 1449 Z M1036 1318 L1190 1318 L1190 490 C1190 341 1160 233 1112 158 C1064 82 998 37 925 12 C852 -13 772 -20 697 -20 C622 -20 544 -13 472 12 C399 37 334 81 286 157 C238 233 209 339 209 490 L209 1318 L363 1318 L363 540 C363 409 382 318 414 257 C445 196 490 162 539 143 C588 124 643 122 696 122 C755 122 812 125 863 145 C914 164 956 198 987 260 C1018 322 1036 411 1036 540 L1036 1318 Z "/>
<glyph glyph-name="uring" unicode="ů" horiz-adv-x="1121" d="M368 1411 C368 1464 391 1514 427 1550 C463 1586 513 1608 568 1608 C621 1608 672 1586 709 1550 C746 1514 769 1464 769 1411 C769 1358 746 1308 709 1272 C672 1235 621 1212 568 1212 C513 1212 463 1235 427 1272 C391 1308 368 1358 368 1411 L368 1411 Z M487 1411 C487 1367 524 1330 568 1330 C612 1330 650 1367 650 1411 C650 1432 641 1452 626 1468 C610 1483 589 1492 568 1492 C545 1492 526 1483 511 1468 C496 1452 487 1432 487 1411 L487 1411 Z M961 0 L863 0 L832 99 C789 71 736 41 680 18 C624 -5 566 -20 517 -20 C418 -20 327 6 260 68 C192 130 150 227 150 374 L150 1038 L305 1038 L305 383 C305 283 331 218 372 178 C412 138 469 123 532 123 C580 123 628 135 675 155 C722 174 766 198 806 222 L806 1038 L961 1038 L961 0 Z "/>
<glyph glyph-name="Uhungarumlaut" unicode="Ű" horiz-adv-x="1403" d="M699 1927 C746 1918 798 1884 822 1835 C811 1799 766 1730 703 1659 C639 1587 560 1514 481 1470 C472 1474 457 1488 442 1507 C427 1526 413 1546 405 1565 C485 1638 550 1712 599 1776 C647 1840 680 1895 699 1927 L699 1927 Z M1060 1927 C1107 1918 1158 1884 1183 1835 C1176 1811 1153 1772 1120 1728 C1087 1683 1044 1634 996 1588 C947 1542 894 1499 841 1470 C832 1474 817 1488 803 1507 C789 1526 774 1546 766 1565 C846 1638 910 1712 959 1776 C1007 1840 1040 1895 1060 1927 L1060 1927 Z M1036 1318 L1190 1318 L1190 490 C1190 341 1160 233 1112 158 C1064 82 998 37 925 12 C852 -13 772 -20 697 -20 C622 -20 544 -13 472 12 C399 37 334 81 286 157 C238 233 209 339 209 490 L209 1318 L363 1318 L363 540 C363 409 382 318 414 257 C445 196 490 162 539 143 C588 124 643 122 696 122 C755 122 812 125 863 145 C914 164 956 198 987 260 C1018 322 1036 411 1036 540 L1036 1318 Z "/>
<glyph glyph-name="uhungarumlaut" unicode="ű" horiz-adv-x="1121" d="M554 1647 C601 1638 653 1604 677 1555 C666 1519 621 1450 558 1379 C494 1307 415 1234 336 1190 C327 1194 312 1208 297 1227 C282 1246 268 1266 260 1285 C340 1358 405 1432 454 1496 C502 1560 535 1615 554 1647 L554 1647 Z M915 1647 C962 1638 1013 1604 1038 1555 C1030 1531 1008 1492 975 1448 C942 1403 899 1354 851 1308 C802 1262 749 1219 696 1190 C687 1194 672 1208 658 1227 C644 1246 629 1266 621 1285 C701 1358 765 1432 814 1496 C862 1560 895 1615 915 1647 L915 1647 Z M961 0 L863 0 L832 99 C789 71 736 41 680 18 C624 -5 566 -20 517 -20 C418 -20 327 6 260 68 C192 130 150 227 150 374 L150 1038 L305 1038 L305 383 C305 283 331 218 372 178 C412 138 469 123 532 123 C580 123 628 135 675 155 C722 174 766 198 806 222 L806 1038 L961 1038 L961 0 Z "/>
<glyph glyph-name="Uogonek" unicode="Ų" horiz-adv-x="1403" d="M1036 1318 L1190 1318 L1190 490 C1190 325 1154 212 1098 136 C1041 60 964 20 881 0 C816 -31 773 -71 746 -113 C719 -155 709 -198 709 -233 C709 -272 719 -298 736 -314 C752 -330 775 -337 800 -337 C849 -337 908 -314 952 -291 L959 -296 L959 -427 C907 -464 854 -478 803 -478 C738 -478 678 -451 634 -407 C590 -363 562 -302 562 -231 C562 -151 605 -79 669 -19 C597 -18 521 -9 453 19 C385 46 324 91 280 166 C236 241 209 345 209 490 L209 1318 L363 1318 L363 540 C363 409 382 318 414 257 C445 196 490 162 539 143 C588 124 643 122 696 122 C755 122 812 125 863 145 C914 164 956 198 987 260 C1018 322 1036 411 1036 540 L1036 1318 Z "/>
<glyph glyph-name="uogonek" unicode="ų" horiz-adv-x="1121" d="M806 1038 L961 1038 L961 0 C894 -31 852 -71 825 -113 C797 -155 787 -198 787 -233 C787 -272 797 -298 814 -314 C830 -330 853 -337 878 -337 C927 -337 986 -314 1030 -291 L1037 -296 L1037 -427 C985 -464 932 -478 881 -478 C816 -478 756 -451 712 -407 C668 -363 640 -302 640 -231 C640 -172 664 -117 702 -69 C740 -21 790 22 846 55 L832 99 C789 71 736 41 680 18 C624 -5 566 -20 517 -20 C418 -20 327 6 260 68 C192 130 150 227 150 374 L150 1038 L305 1038 L305 383 C305 283 331 218 372 178 C412 138 469 123 532 123 C580 123 628 135 675 155 C722 174 766 198 806 222 L806 1038 Z "/>
<glyph glyph-name="Wcircumflex" unicode="Ŵ" horiz-adv-x="1716" d="M855 1666 C808 1623 762 1588 714 1557 C665 1525 615 1498 559 1470 C551 1477 541 1496 533 1518 C525 1540 517 1565 516 1585 C643 1653 750 1734 854 1834 L862 1834 C967 1734 1072 1653 1200 1585 C1197 1565 1191 1540 1183 1518 C1175 1496 1165 1477 1157 1470 C1046 1523 953 1581 860 1666 L855 1666 Z M858 1045 L559 0 L403 0 L25 1318 L182 1318 L480 272 L780 1318 L936 1318 L1235 272 L1534 1318 L1691 1318 L1313 0 L1157 0 L858 1045 Z "/>
<glyph glyph-name="wcircumflex" unicode="ŵ" horiz-adv-x="1564" d="M779 1386 C732 1343 686 1308 638 1277 C589 1245 539 1218 483 1190 C475 1197 465 1216 457 1238 C449 1260 441 1285 440 1305 C567 1373 674 1454 778 1554 L786 1554 C891 1454 996 1373 1124 1305 C1121 1285 1115 1260 1107 1238 C1099 1216 1089 1197 1081 1190 C970 1243 877 1301 784 1386 L779 1386 Z M1534 1038 L1205 0 L1013 0 L782 790 L551 0 L358 0 L30 1038 L180 1038 L454 171 L711 1038 L853 1038 L1110 171 L1385 1038 L1534 1038 Z "/>
<glyph glyph-name="Ycircumflex" unicode="Ŷ" horiz-adv-x="1010" d="M502 1666 C455 1623 409 1588 361 1557 C312 1525 262 1498 206 1470 C198 1477 188 1496 180 1518 C172 1540 164 1565 163 1585 C290 1653 397 1734 501 1834 L509 1834 C614 1734 719 1653 847 1585 C844 1565 838 1540 830 1518 C822 1496 812 1477 804 1470 C693 1523 600 1581 507 1666 L502 1666 Z M505 650 L831 1318 L985 1318 L582 492 L582 0 L428 0 L428 492 L25 1318 L179 1318 L505 650 Z "/>
<glyph glyph-name="ycircumflex" unicode="ŷ" horiz-adv-x="970" d="M482 1386 C435 1343 389 1308 341 1277 C292 1245 242 1218 186 1190 C178 1197 168 1216 160 1238 C152 1260 144 1285 143 1305 C270 1373 377 1454 481 1554 L489 1554 C594 1454 699 1373 827 1305 C824 1285 818 1260 810 1238 C802 1216 792 1197 784 1190 C673 1243 580 1301 487 1386 L482 1386 Z M424 0 L376 0 L19 1038 L179 1038 L480 165 L781 1038 L941 1038 L496 -252 C440 -413 333 -478 196 -478 C113 -478 27 -454 -60 -415 L-18 -273 C49 -312 116 -335 177 -335 C212 -335 248 -327 278 -309 C308 -291 332 -263 347 -223 L424 0 Z "/>
<glyph glyph-name="Ydieresis" unicode="Ÿ" horiz-adv-x="1010" d="M208 1582 C208 1613 221 1641 242 1661 C262 1681 290 1694 321 1694 C352 1694 381 1681 402 1661 C422 1641 435 1613 435 1582 C435 1551 422 1523 402 1503 C381 1483 352 1470 321 1470 C290 1470 262 1483 242 1503 C221 1523 208 1551 208 1582 L208 1582 Z M574 1582 C574 1613 587 1641 608 1661 C628 1681 656 1694 687 1694 C718 1694 747 1681 768 1661 C788 1641 801 1613 801 1582 C801 1551 788 1523 768 1503 C747 1483 718 1470 687 1470 C656 1470 628 1483 608 1503 C587 1523 574 1551 574 1582 L574 1582 Z M505 650 L831 1318 L985 1318 L582 492 L582 0 L428 0 L428 492 L25 1318 L179 1318 L505 650 Z "/>
<glyph glyph-name="Zacute" unicode="Ź" horiz-adv-x="950" d="M626 1838 C669 1815 706 1768 714 1713 C693 1681 629 1629 547 1581 C465 1533 366 1487 277 1470 C269 1477 259 1496 251 1518 C243 1540 236 1565 235 1585 C334 1629 418 1681 484 1727 C550 1773 598 1814 626 1838 L626 1838 Z M65 5 L658 1174 L87 1174 L87 1318 L880 1318 L884 1313 L288 144 L885 144 L885 0 L69 0 L65 5 Z "/>
<glyph glyph-name="zacute" unicode="ź" horiz-adv-x="911" d="M647 1558 C690 1535 727 1488 735 1433 C714 1401 650 1349 568 1301 C486 1253 387 1207 298 1190 C290 1197 280 1216 272 1238 C264 1260 257 1285 256 1305 C355 1349 439 1401 505 1447 C571 1493 619 1534 647 1558 L647 1558 Z M50 5 L596 894 L66 894 L66 1038 L856 1038 L861 1032 L315 144 L858 144 L858 0 L55 0 L50 5 Z "/>
<glyph glyph-name="Zdotaccent" unicode="Ż" horiz-adv-x="950" d="M396 1560 C396 1591 409 1619 430 1639 C450 1659 478 1672 509 1672 C540 1672 569 1659 590 1639 C610 1619 623 1591 623 1560 C623 1529 610 1501 590 1481 C569 1461 540 1448 509 1448 C478 1448 450 1461 430 1481 C409 1501 396 1529 396 1560 L396 1560 Z M65 5 L658 1174 L87 1174 L87 1318 L880 1318 L884 1313 L288 144 L885 144 L885 0 L69 0 L65 5 Z "/>
<glyph glyph-name="zdotaccent" unicode="ż" horiz-adv-x="911" d="M355 1302 C355 1333 368 1361 389 1381 C409 1401 437 1414 468 1414 C499 1414 528 1401 549 1381 C569 1361 582 1333 582 1302 C582 1271 569 1243 549 1223 C528 1203 499 1190 468 1190 C437 1190 409 1203 389 1223 C368 1243 355 1271 355 1302 L355 1302 Z M50 5 L596 894 L66 894 L66 1038 L856 1038 L861 1032 L315 144 L858 144 L858 0 L55 0 L50 5 Z "/>
<glyph glyph-name="Zcaron" unicode="Ž" horiz-adv-x="950" d="M477 1638 C570 1723 663 1779 774 1834 C782 1827 792 1809 800 1787 C808 1765 814 1739 817 1719 C689 1651 584 1570 479 1470 L471 1470 C367 1570 260 1651 133 1719 C134 1739 142 1765 150 1787 C158 1809 168 1827 176 1834 C287 1779 379 1723 472 1638 L477 1638 Z M65 5 L658 1174 L87 1174 L87 1318 L880 1318 L884 1313 L288 144 L885 144 L885 0 L69 0 L65 5 Z "/>
<glyph glyph-name="zcaron" unicode="ž" horiz-adv-x="911" d="M457 1358 C550 1443 643 1499 754 1554 C762 1547 772 1529 780 1507 C788 1485 794 1459 797 1439 C669 1371 564 1290 459 1190 L451 1190 C347 1290 240 1371 113 1439 C114 1459 122 1485 130 1507 C138 1529 148 1547 156 1554 C267 1499 359 1443 452 1358 L457 1358 Z M50 5 L596 894 L66 894 L66 1038 L856 1038 L861 1032 L315 144 L858 144 L858 0 L55 0 L50 5 Z "/>
<glyph glyph-name="florin" unicode="ƒ" horiz-adv-x="627" d="M26 1038 L194 1038 L194 1042 C194 1195 227 1297 282 1360 C337 1423 415 1448 504 1448 C580 1448 662 1431 747 1404 L705 1268 C637 1291 574 1305 522 1305 C470 1305 427 1289 397 1249 C367 1208 349 1142 349 1042 L349 1038 L584 1038 L584 895 L349 895 L349 -74 C349 -219 314 -321 255 -385 C196 -450 115 -478 26 -478 C-55 -478 -142 -455 -230 -415 L-188 -273 C-121 -312 -53 -335 7 -335 C60 -335 107 -317 140 -275 C173 -233 194 -169 194 -74 L194 895 L26 895 L26 1038 Z "/>
<glyph glyph-name="Ezh" unicode="Ʒ" horiz-adv-x="971" d="M588 1172 L188 761 L188 621 L356 621 C552 621 749 526 749 377 C749 231 612 121 430 121 C325 121 180 158 84 218 L79 208 L45 90 C157 15 338 -23 451 -23 C644 -23 902 90 902 373 C902 642 632 761 380 761 L910 1308 L902 1318 L70 1318 L70 1172 L588 1172 Z "/>
<glyph glyph-name="Gstroke" unicode="Ǥ" horiz-adv-x="1268" d="M1128 320 L1290 320 L1290 464 L1128 464 L1128 724 L692 724 L692 569 L977 569 L977 464 L815 464 L815 320 L977 320 L977 238 C962 221 933 192 888 168 C843 144 780 124 703 124 C567 124 450 185 367 285 C283 384 235 521 235 676 C235 819 277 949 362 1042 C446 1135 573 1193 745 1193 C785 1193 833 1190 885 1183 C936 1176 987 1166 1034 1151 L1042 1155 L1042 1297 C997 1310 944 1320 891 1327 C838 1334 782 1338 733 1338 C512 1338 348 1263 240 1141 C132 1019 80 851 80 667 C80 470 141 298 247 176 C353 54 503 -20 686 -20 C805 -20 892 10 977 69 L1069 -2 L1128 -2 L1128 320 Z "/>
<glyph glyph-name="gstroke" unicode="ǥ" horiz-adv-x="1082" d="M1042 -192 L1042 -48 L987 -48 C980 19 946 82 886 130 C817 184 712 217 569 217 L373 217 C290 217 245 258 245 310 C245 337 257 366 280 395 C335 368 399 350 472 350 C585 350 682 392 751 459 C819 526 859 617 859 716 C859 788 838 853 799 909 C867 952 939 975 994 984 L948 1115 C913 1115 869 1106 823 1088 C777 1070 727 1043 683 1010 C627 1041 559 1058 482 1058 C369 1058 273 1021 205 959 C137 897 98 811 98 712 C98 668 106 621 120 578 C134 534 156 494 184 465 C135 404 109 340 109 284 C109 255 117 222 131 191 C145 160 166 133 194 117 C145 67 108 9 88 -48 L3 -48 L3 -192 L73 -192 C83 -266 118 -332 173 -381 C239 -441 335 -478 454 -478 C583 -478 717 -434 818 -361 C883 -315 934 -257 963 -192 L1042 -192 Z M302 850 C342 891 401 920 478 920 C555 920 614 892 654 850 C693 808 713 753 713 701 C713 649 694 596 655 556 C616 515 558 487 481 487 C402 487 343 515 303 556 C263 597 242 651 242 703 C242 755 262 809 302 850 L302 850 Z M431 84 C540 84 640 81 713 58 C773 38 814 6 826 -48 L237 -48 C252 -2 279 44 314 84 L431 84 Z M796 -192 C779 -217 758 -240 731 -260 C667 -309 578 -343 474 -343 C382 -343 319 -321 279 -284 C253 -260 236 -228 228 -192 L796 -192 Z "/>
<glyph glyph-name="Gcaron" unicode="Ǧ" horiz-adv-x="1268" d="M684 1638 C777 1723 870 1779 981 1834 C989 1827 999 1809 1007 1787 C1015 1765 1021 1739 1024 1719 C896 1651 791 1570 686 1470 L678 1470 C574 1570 467 1651 340 1719 C341 1739 349 1765 357 1787 C365 1809 375 1827 383 1834 C494 1779 586 1723 679 1638 L684 1638 Z M1128 -2 L1069 -2 L977 69 C892 10 805 -20 686 -20 C503 -20 353 54 247 176 C141 298 80 470 80 667 C80 851 132 1019 240 1141 C348 1263 512 1338 733 1338 C782 1338 838 1334 891 1327 C944 1320 997 1310 1042 1297 L1042 1155 L1034 1151 C987 1166 936 1176 885 1183 C833 1190 785 1193 745 1193 C573 1193 446 1135 362 1042 C277 949 235 819 235 676 C235 521 283 384 367 285 C450 185 567 124 703 124 C780 124 843 144 888 168 C933 192 962 221 977 238 L977 569 L692 569 L692 724 L1128 724 L1128 -2 Z "/>
<glyph glyph-name="gcaron" unicode="ǧ" horiz-adv-x="1034" d="M496 1358 C589 1443 682 1499 793 1554 C801 1547 811 1529 819 1507 C827 1485 833 1459 836 1439 C708 1371 603 1290 498 1190 L490 1190 C386 1290 279 1371 152 1439 C153 1459 161 1485 169 1507 C177 1529 187 1547 195 1554 C306 1499 398 1443 491 1358 L496 1358 Z M569 217 C712 217 817 184 886 130 C954 76 988 2 988 -75 C988 -188 919 -289 818 -361 C717 -434 583 -478 454 -478 C335 -478 239 -441 173 -381 C107 -322 70 -239 70 -147 C70 -63 115 37 194 117 C166 133 145 160 131 191 C117 222 109 255 109 284 C109 340 135 404 184 465 C156 494 134 534 120 578 C106 621 98 668 98 712 C98 811 137 897 205 959 C273 1021 369 1058 482 1058 C559 1058 627 1041 683 1010 C727 1043 777 1070 823 1088 C869 1106 913 1115 948 1115 L994 984 C939 975 867 952 799 909 C838 853 859 788 859 716 C859 617 819 526 751 459 C682 392 585 350 472 350 C399 350 335 368 280 395 C257 366 245 337 245 310 C245 258 290 217 373 217 L569 217 Z M478 920 C401 920 342 891 302 850 C262 809 242 755 242 703 C242 651 263 597 303 556 C343 515 402 487 481 487 C558 487 616 515 655 556 C694 596 713 649 713 701 C713 753 693 808 654 850 C614 892 555 920 478 920 L478 920 Z M314 84 C258 20 222 -61 222 -133 C222 -194 239 -247 279 -284 C319 -321 382 -343 474 -343 C578 -343 667 -309 731 -260 C794 -212 830 -148 830 -85 C830 -8 785 34 713 58 C640 81 540 84 431 84 L314 84 Z "/>
<glyph glyph-name="Kcaron" unicode="Ǩ" horiz-adv-x="1101" d="M532 1614 C625 1699 718 1755 829 1810 C837 1803 847 1785 855 1763 C863 1741 869 1715 872 1695 C744 1627 639 1546 534 1446 L526 1446 C422 1546 315 1627 188 1695 C189 1715 197 1741 205 1763 C213 1785 223 1803 231 1810 C342 1755 434 1699 527 1614 L532 1614 Z M1076 0 L887 0 L315 682 L315 0 L160 0 L160 1318 L315 1318 L315 700 L834 1318 L1024 1318 L1024 1309 L504 691 L1076 9 L1076 0 Z "/>
<glyph glyph-name="kcaron" unicode="ǩ" horiz-adv-x="975" d="M599 1438 C692 1523 785 1579 896 1634 C904 1627 914 1609 922 1587 C930 1565 936 1539 939 1519 C811 1451 706 1370 601 1270 L593 1270 C489 1370 382 1451 255 1519 C256 1539 264 1565 272 1587 C280 1609 290 1627 298 1634 C409 1579 501 1523 594 1438 L599 1438 Z M882 -20 C830 -17 769 16 708 64 C647 111 583 175 527 240 C470 304 418 370 381 423 C362 449 347 471 336 490 C324 509 317 521 315 527 L315 0 L160 0 L160 1421 L305 1448 L315 1448 L315 546 L727 1038 L925 1038 L503 536 C508 513 541 465 589 409 C637 352 699 287 763 232 C827 177 893 133 946 117 L882 -20 Z "/>
<glyph glyph-name="Ezhcaron" unicode="Ǯ" horiz-adv-x="971" d="M492 1638 C585 1723 678 1779 789 1834 C797 1827 807 1809 815 1787 C823 1765 829 1739 832 1719 C704 1651 599 1570 494 1470 L486 1470 C382 1570 275 1651 148 1719 C149 1739 157 1765 165 1787 C173 1809 183 1827 191 1834 C302 1779 394 1723 487 1638 L492 1638 Z M588 1172 L188 761 L188 621 L356 621 C552 621 749 526 749 377 C749 231 612 121 430 121 C325 121 180 158 84 218 L79 208 L45 90 C157 15 338 -23 451 -23 C644 -23 902 90 902 373 C902 642 632 761 380 761 L910 1308 L902 1318 L70 1318 L70 1172 L588 1172 Z "/>
<glyph glyph-name="ezhcaron" unicode="ǯ" horiz-adv-x="971" d="M468 1358 C561 1443 654 1499 765 1554 C773 1547 783 1529 791 1507 C799 1485 805 1459 808 1439 C680 1371 575 1290 470 1190 L462 1190 C358 1290 251 1371 124 1439 C125 1459 133 1485 141 1507 C149 1529 159 1547 167 1554 C278 1499 370 1443 463 1358 L468 1358 Z M554 892 L188 505 L188 365 L356 365 C552 365 749 270 749 97 C749 -49 612 -159 430 -159 C325 -159 180 -122 84 -62 L79 -72 L45 -190 C157 -265 338 -303 451 -303 C644 -303 902 -190 902 93 C902 386 632 505 380 505 L876 1028 L868 1038 L70 1038 L70 892 L554 892 Z "/>
<glyph glyph-name="AEacute" unicode="Ǽ" horiz-adv-x="1421" d="M929 1817 C972 1794 1009 1747 1017 1692 C996 1660 932 1608 850 1560 C768 1512 669 1466 580 1449 C572 1456 562 1475 554 1497 C546 1519 539 1544 538 1564 C637 1608 721 1660 787 1706 C853 1752 901 1793 929 1817 L929 1817 Z M873 307 L291 307 L185 0 L25 0 L478 1318 L1376 1318 L1376 1174 L734 1174 L887 731 L1376 731 L1376 587 L936 587 L1089 144 L1376 144 L1376 0 L979 0 L873 307 Z M340 451 L824 451 L582 1152 L340 451 Z "/>
<glyph glyph-name="Oslashacute" unicode="Ǿ" horiz-adv-x="1383" d="M843 1838 C886 1815 923 1768 931 1713 C910 1681 846 1629 764 1581 C682 1533 583 1487 494 1470 C486 1477 476 1496 468 1518 C460 1540 453 1565 452 1585 C551 1629 635 1681 701 1727 C767 1773 815 1814 843 1838 L843 1838 Z M469 -221 L325 -168 L404 49 C303 104 222 189 166 294 C110 398 80 524 80 660 C80 852 143 1021 252 1143 C361 1265 515 1338 698 1338 C756 1338 812 1330 865 1315 L913 1448 L1057 1395 L1006 1254 C1099 1197 1173 1114 1224 1012 C1275 910 1303 789 1303 660 C1303 468 1240 299 1132 177 C1024 55 870 -20 687 -20 C638 -20 592 -15 548 -4 L469 -221 Z M815 1179 C776 1188 737 1194 694 1194 C550 1194 435 1138 356 1045 C276 952 234 821 234 672 C234 567 254 470 291 388 C328 306 383 238 455 191 L815 1179 Z M598 134 C629 127 662 124 699 124 C843 124 956 180 1032 273 C1108 366 1149 497 1149 648 C1149 849 1083 1017 954 1113 L598 134 Z "/>
<glyph glyph-name="oslashacute" unicode="ǿ" horiz-adv-x="1112" d="M707 1558 C750 1535 787 1488 795 1433 C774 1401 710 1349 628 1301 C546 1253 447 1207 358 1190 C350 1197 340 1216 332 1238 C324 1260 317 1285 316 1305 C415 1349 499 1401 565 1447 C631 1493 679 1534 707 1558 L707 1558 Z M384 -221 L240 -168 L317 44 C242 89 184 157 143 238 C102 319 80 415 80 516 C80 667 130 802 215 900 C299 998 419 1058 560 1058 C603 1058 641 1053 680 1042 L753 1241 L896 1187 L819 976 C886 928 939 863 976 785 C1012 707 1032 617 1032 521 C1032 370 983 236 899 138 C814 40 693 -20 552 -20 C519 -20 489 -17 460 -11 L384 -221 Z M631 906 C606 911 581 914 556 914 C452 914 372 872 318 802 C264 732 235 633 235 524 C235 385 280 260 369 188 L631 906 Z M511 127 C527 125 544 124 561 124 C665 124 744 166 797 235 C850 304 877 402 877 513 C877 642 840 758 767 831 L511 127 Z "/>
<glyph glyph-name="ezh" unicode="ʒ" horiz-adv-x="971" d="M554 892 L188 505 L188 365 L356 365 C552 365 749 270 749 97 C749 -49 612 -159 430 -159 C325 -159 180 -122 84 -62 L79 -72 L45 -190 C157 -265 338 -303 451 -303 C644 -303 902 -190 902 93 C902 386 632 505 380 505 L876 1028 L868 1038 L70 1038 L70 892 L554 892 Z "/>
<glyph glyph-name="circumflex" unicode="ˆ" horiz-adv-x="892" d="M443 1386 C396 1343 350 1308 302 1277 C253 1245 203 1218 147 1190 C139 1197 129 1216 121 1238 C113 1260 105 1285 104 1305 C231 1373 338 1454 442 1554 L450 1554 C555 1454 660 1373 788 1305 C785 1285 779 1260 771 1238 C763 1216 753 1197 745 1190 C634 1243 541 1301 448 1386 L443 1386 Z "/>
<glyph glyph-name="caron" unicode="ˇ" horiz-adv-x="892" d="M448 1358 C541 1443 634 1499 745 1554 C753 1547 763 1529 771 1507 C779 1485 785 1459 788 1439 C660 1371 555 1290 450 1190 L442 1190 C338 1290 231 1371 104 1439 C105 1459 113 1485 121 1507 C129 1529 139 1547 147 1554 C258 1499 350 1443 443 1358 L448 1358 Z "/>
<glyph glyph-name="breve" unicode="˘" horiz-adv-x="918" d="M195 1580 C251 1505 339 1466 454 1466 C570 1466 662 1507 723 1580 C740 1569 758 1551 773 1531 C788 1510 798 1487 798 1468 C761 1420 708 1385 649 1362 C590 1338 524 1326 463 1326 C399 1326 334 1337 275 1361 C215 1384 161 1419 120 1468 C120 1487 130 1510 145 1531 C160 1551 178 1569 195 1580 L195 1580 Z "/>
<glyph glyph-name="dotaccent" unicode="˙" horiz-adv-x="347" d="M60 1302 C60 1333 73 1361 94 1381 C114 1401 142 1414 173 1414 C204 1414 233 1401 254 1381 C274 1361 287 1333 287 1302 C287 1271 274 1243 254 1223 C233 1203 204 1190 173 1190 C142 1190 114 1203 94 1223 C73 1243 60 1271 60 1302 L60 1302 Z "/>
<glyph glyph-name="ring" unicode="˚" horiz-adv-x="603" d="M101 1411 C101 1464 124 1514 160 1550 C196 1586 246 1608 301 1608 C354 1608 405 1586 442 1550 C479 1514 502 1464 502 1411 C502 1358 479 1308 442 1272 C405 1235 354 1212 301 1212 C246 1212 196 1235 160 1272 C124 1308 101 1358 101 1411 L101 1411 Z M220 1411 C220 1367 257 1330 301 1330 C345 1330 383 1367 383 1411 C383 1432 374 1452 359 1468 C343 1483 322 1492 301 1492 C278 1492 259 1483 244 1468 C229 1452 220 1432 220 1411 L220 1411 Z "/>
<glyph glyph-name="ogonek" unicode="˛" horiz-adv-x="554" d="M398 0 C331 -31 289 -71 262 -113 C234 -155 224 -198 224 -233 C224 -272 234 -298 251 -314 C267 -330 290 -337 315 -337 C364 -337 423 -314 467 -291 L474 -296 L474 -427 C422 -464 369 -478 318 -478 C253 -478 193 -451 149 -407 C105 -363 77 -302 77 -231 C77 -156 116 -88 172 -31 C228 25 302 70 374 101 L398 0 Z "/>
<glyph glyph-name="tilde" unicode="˜" horiz-adv-x="892" d="M651 1448 C675 1452 700 1454 724 1451 C748 1448 772 1440 792 1421 C785 1362 757 1315 715 1281 C673 1247 618 1227 559 1227 C498 1227 463 1248 432 1269 C400 1290 374 1311 333 1311 C285 1311 242 1288 242 1233 L242 1227 C218 1223 193 1221 169 1224 C145 1227 121 1235 101 1254 C108 1313 137 1361 178 1395 C219 1429 274 1448 330 1448 C381 1448 417 1427 451 1406 C485 1385 517 1364 561 1364 C584 1364 606 1370 623 1383 C640 1395 651 1415 651 1442 L651 1448 Z "/>
<glyph glyph-name="hungarumlaut" unicode="˝" horiz-adv-x="993" d="M402 1647 C449 1638 501 1604 525 1555 C514 1519 469 1450 406 1379 C342 1307 263 1234 184 1190 C175 1194 160 1208 145 1227 C130 1246 116 1266 108 1285 C188 1358 253 1432 302 1496 C350 1560 383 1615 402 1647 L402 1647 Z M763 1647 C810 1638 861 1604 886 1555 C879 1531 856 1492 823 1448 C790 1403 747 1354 699 1308 C650 1262 597 1219 544 1190 C535 1194 520 1208 506 1227 C492 1246 477 1266 469 1285 C549 1358 613 1432 662 1496 C710 1560 743 1615 763 1647 L763 1647 Z "/>
<glyph glyph-name="Ygrave" unicode="Ỳ" horiz-adv-x="1010" d="M353 1838 C381 1814 430 1773 496 1727 C562 1681 645 1629 744 1585 C741 1565 735 1540 727 1518 C719 1496 710 1477 702 1470 C613 1487 515 1533 433 1581 C351 1629 286 1681 265 1713 C273 1768 310 1815 353 1838 L353 1838 Z M505 650 L831 1318 L985 1318 L582 492 L582 0 L428 0 L428 492 L25 1318 L179 1318 L505 650 Z "/>
<glyph glyph-name="ygrave" unicode="ỳ" horiz-adv-x="970" d="M334 1558 C362 1534 411 1493 477 1447 C543 1401 626 1349 725 1305 C722 1285 716 1260 708 1238 C700 1216 691 1197 683 1190 C594 1207 496 1253 414 1301 C332 1349 267 1401 246 1433 C254 1488 291 1535 334 1558 L334 1558 Z M424 0 L376 0 L19 1038 L179 1038 L480 165 L781 1038 L941 1038 L496 -252 C440 -413 333 -478 196 -478 C113 -478 27 -454 -60 -415 L-18 -273 C49 -312 116 -335 177 -335 C212 -335 248 -327 278 -309 C308 -291 332 -263 347 -223 L424 0 Z "/>
<glyph glyph-name="endash" unicode="–" horiz-adv-x="1052" d="M50 618 L1002 618 L1002 474 L50 474 L50 618 Z "/>
<glyph glyph-name="emdash" unicode="—" horiz-adv-x="1201" d="M50 618 L1151 618 L1151 474 L50 474 L50 618 Z "/>
<glyph glyph-name="quoteleft" unicode="‘" horiz-adv-x="391" d="M311 1394 C279 1341 262 1303 262 1264 C262 1231 275 1200 306 1157 C306 1126 293 1098 273 1078 C253 1058 225 1045 194 1045 C170 1045 142 1053 119 1073 C96 1092 80 1123 80 1168 C80 1225 106 1284 143 1334 C179 1384 225 1425 268 1448 L311 1394 Z "/>
<glyph glyph-name="quoteright" unicode="’" horiz-adv-x="391" d="M80 1099 C111 1152 129 1190 129 1229 C129 1262 115 1293 84 1336 C84 1367 97 1395 117 1415 C137 1435 165 1448 196 1448 C220 1448 248 1440 272 1421 C295 1401 311 1370 311 1325 C311 1268 285 1210 248 1160 C211 1110 163 1068 122 1045 L80 1099 Z "/>
<glyph glyph-name="quotesinglbase" unicode="‚" horiz-adv-x="391" d="M80 34 C112 87 129 125 129 164 C129 197 116 228 85 271 C85 302 98 330 118 350 C138 370 166 383 197 383 C221 383 249 375 272 356 C295 336 311 305 311 260 C311 203 285 145 249 95 C212 45 164 3 123 -20 L80 34 Z "/>
<glyph glyph-name="quotedblleft" unicode="“" horiz-adv-x="718" d="M311 1394 C279 1341 262 1303 262 1264 C262 1231 275 1200 306 1157 C306 1126 293 1098 273 1078 C253 1058 225 1045 194 1045 C170 1045 142 1053 119 1073 C96 1092 80 1123 80 1168 C80 1225 106 1284 143 1334 C179 1384 225 1425 268 1448 L311 1394 Z M638 1394 C607 1341 589 1303 589 1264 C589 1231 603 1200 634 1157 C634 1126 621 1098 601 1078 C581 1058 553 1045 522 1045 C498 1045 470 1053 447 1073 C423 1092 407 1123 407 1168 C407 1225 433 1284 470 1334 C507 1384 553 1425 596 1448 L638 1394 Z "/>
<glyph glyph-name="quotedblright" unicode="”" horiz-adv-x="718" d="M80 1099 C111 1152 129 1190 129 1229 C129 1262 115 1293 84 1336 C84 1367 97 1395 117 1415 C137 1435 165 1448 196 1448 C220 1448 248 1440 272 1421 C295 1401 311 1370 311 1325 C311 1268 285 1210 248 1160 C211 1110 163 1068 122 1045 L80 1099 Z M407 1099 C439 1152 456 1190 456 1229 C456 1262 443 1293 412 1336 C412 1367 425 1395 445 1415 C465 1435 493 1448 524 1448 C548 1448 576 1440 599 1421 C622 1401 638 1370 638 1325 C638 1268 612 1210 576 1160 C539 1110 491 1068 450 1045 L407 1099 Z "/>
<glyph glyph-name="quotedblbase" unicode="„" horiz-adv-x="718" d="M311 329 C279 276 262 238 262 199 C262 166 275 135 306 92 C306 61 293 33 273 13 C253 -7 225 -20 194 -20 C170 -20 142 -12 119 8 C96 27 80 58 80 103 C80 160 106 219 143 269 C179 319 225 360 268 383 L311 329 Z M638 329 C607 276 589 238 589 199 C589 166 603 135 634 92 C634 61 621 33 601 13 C581 -7 553 -20 522 -20 C498 -20 470 -12 447 8 C423 27 407 58 407 103 C407 160 433 219 470 269 C507 319 553 360 596 383 L638 329 Z "/>
<glyph glyph-name="dagger" unicode="†" horiz-adv-x="890" d="M497 1448 C517 1317 522 1213 522 1128 L358 1128 C358 1213 364 1317 385 1448 L497 1448 Z M840 884 L50 884 L50 1038 L840 1038 L840 884 Z M383 -268 C378 -220 372 -114 369 15 C365 144 363 298 361 441 C359 584 358 716 358 804 L522 804 C522 716 521 584 519 441 C517 298 514 144 510 15 C506 -114 500 -220 495 -268 L383 -268 Z "/>
<glyph glyph-name="daggerdbl" unicode="‡" horiz-adv-x="890" d="M502 1448 C522 1317 527 1213 527 1128 L363 1128 C363 1213 369 1317 390 1448 L502 1448 Z M840 884 L50 884 L50 1038 L840 1038 L840 884 Z M527 839 C527 754 522 650 502 519 C522 388 527 284 527 199 L363 199 C363 284 369 388 390 519 C369 650 363 754 363 839 L527 839 Z M840 0 L50 0 L50 154 L840 154 L840 0 Z M390 -410 C369 -279 363 -175 363 -90 L527 -90 C527 -175 522 -279 502 -410 L390 -410 Z "/>
<glyph glyph-name="bullet" unicode="•" horiz-adv-x="771" d="M80 518 C80 599 113 675 169 731 C224 787 300 822 385 822 C469 822 545 787 601 731 C657 675 691 599 691 518 C691 437 657 361 601 305 C545 249 469 214 385 214 C300 214 224 249 169 305 C113 361 80 437 80 518 L80 518 Z "/>
<glyph glyph-name="ellipsis" unicode="…" horiz-adv-x="1161" d="M80 92 C80 123 93 151 114 171 C134 191 162 204 193 204 C224 204 253 191 274 171 C294 151 307 123 307 92 C307 61 294 33 274 13 C253 -7 224 -20 193 -20 C162 -20 134 -7 114 13 C93 33 80 61 80 92 L80 92 Z M467 92 C467 123 480 151 501 171 C521 191 549 204 580 204 C611 204 640 191 661 171 C681 151 694 123 694 92 C694 61 681 33 661 13 C640 -7 611 -20 580 -20 C549 -20 521 -7 501 13 C480 33 467 61 467 92 L467 92 Z M854 92 C854 123 867 151 888 171 C908 191 936 204 967 204 C998 204 1027 191 1048 171 C1068 151 1081 123 1081 92 C1081 61 1068 33 1048 13 C1027 -7 998 -20 967 -20 C936 -20 908 -7 888 13 C867 33 854 61 854 92 L854 92 Z "/>
<glyph glyph-name="perthousand" unicode="‰" horiz-adv-x="2382" d="M80 1000 C80 1093 114 1179 172 1240 C230 1300 313 1338 410 1338 C507 1338 589 1300 646 1240 C702 1179 734 1096 734 1005 C734 910 701 827 643 766 C585 705 501 668 404 668 C307 668 225 706 169 766 C112 826 80 909 80 1000 L80 1000 Z M220 1001 C220 949 239 902 271 867 C303 832 349 811 405 811 C461 811 509 832 542 868 C574 903 594 950 594 1005 C594 1057 575 1104 543 1139 C511 1174 465 1195 409 1195 C353 1195 305 1174 273 1139 C240 1103 220 1054 220 1001 L220 1001 Z M432 241 L1078 1165 L1204 1077 L558 153 L432 241 Z M904 312 C904 405 938 491 996 552 C1054 612 1137 650 1234 650 C1331 650 1413 612 1470 552 C1526 491 1558 408 1558 317 C1558 222 1525 139 1467 78 C1409 17 1325 -20 1228 -20 C1131 -20 1049 18 993 78 C936 138 904 221 904 312 L904 312 Z M1648 312 C1648 405 1682 491 1740 552 C1798 612 1881 650 1978 650 C2075 650 2157 612 2214 552 C2270 491 2302 408 2302 317 C2302 222 2269 139 2211 78 C2153 17 2069 -20 1972 -20 C1875 -20 1793 18 1737 78 C1680 138 1648 221 1648 312 L1648 312 Z M1044 313 C1044 261 1063 214 1095 179 C1127 144 1173 123 1229 123 C1285 123 1333 144 1366 180 C1398 215 1418 262 1418 317 C1418 369 1399 416 1367 451 C1335 486 1289 507 1233 507 C1177 507 1129 486 1097 451 C1064 415 1044 366 1044 313 L1044 313 Z M1788 313 C1788 261 1807 214 1839 179 C1871 144 1917 123 1973 123 C2029 123 2077 144 2110 180 C2142 215 2162 262 2162 317 C2162 369 2143 416 2111 451 C2079 486 2033 507 1977 507 C1921 507 1873 486 1841 451 C1808 415 1788 366 1788 313 L1788 313 Z "/>
<glyph glyph-name="guilsinglleft" unicode="‹" horiz-adv-x="796" d="M544 1449 L676 1372 L295 714 L676 56 L544 -21 L120 714 L544 1449 Z "/>
<glyph glyph-name="guilsinglright" unicode="›" horiz-adv-x="796" d="M252 -21 L120 56 L500 714 L120 1372 L252 1449 L676 714 L252 -21 Z "/>
<glyph glyph-name="fraction" unicode="⁄" horiz-adv-x="1012" d="M120 241 L766 1165 L892 1077 L246 153 L120 241 Z "/>
<glyph glyph-name="uni2063" unicode="⁣" horiz-adv-x="600" d=""/>
<glyph glyph-name="Euro" unicode="€" horiz-adv-x="1189" d="M40 454 L92 601 L187 601 C186 610 185 620 185 630 C185 640 185 650 185 660 L185 693 C185 704 186 715 187 726 L44 726 L40 730 L92 870 L210 870 C250 1023 336 1140 453 1219 C569 1298 716 1338 880 1338 C959 1338 1057 1329 1149 1297 L1099 1158 C1016 1182 940 1193 864 1193 C745 1193 641 1166 556 1111 C471 1056 407 975 371 870 L1005 870 L1009 866 L957 726 L342 726 C340 704 339 681 339 658 L339 629 C339 620 340 610 341 601 L907 601 L911 590 L859 450 L372 450 C408 346 471 265 552 210 C633 155 734 126 843 126 C935 126 1032 147 1132 191 L1139 187 L1139 45 C1032 1 927 -20 826 -20 C681 -20 546 23 439 104 C331 184 250 302 211 450 L44 450 L40 454 Z "/>
<glyph glyph-name="trademark" unicode="™" horiz-adv-x="1404" d="M45 1337 L570 1337 L570 1225 L366 1225 L366 678 L249 678 L249 1225 L45 1225 L45 1337 Z M980 1005 L1149 1337 L1294 1337 L1294 678 L1174 678 L1174 1166 L1021 868 L936 868 L780 1168 L780 678 L665 678 L665 1337 L810 1337 L978 1005 L980 1005 Z "/>
<glyph glyph-name="estimated" unicode="℮" horiz-adv-x="1712" d="M410 627 L410 261 C526 130 679 65 870 65 C969 65 1052 81 1126 114 C1200 147 1262 197 1321 268 L1474 268 L1474 213 C1326 58 1120 -20 855 -20 C431 -20 90 252 90 661 C90 1073 426 1339 869 1339 C1310 1339 1622 1052 1622 627 L410 627 Z M410 713 L1314 713 L1314 1051 C1243 1123 1181 1173 1110 1206 C1038 1238 959 1254 858 1255 C759 1252 682 1237 611 1205 C540 1172 478 1122 410 1051 L410 713 Z "/>
<glyph glyph-name="minus" unicode="−" horiz-adv-x="1030" d="M910 438 L120 438 L120 592 L910 592 L910 438 Z "/>
<glyph glyph-name="approxequal" unicode="≈" horiz-adv-x="1033" d="M749 814 C777 818 805 821 833 818 C861 814 888 804 911 783 C903 716 870 661 822 622 C774 583 711 561 644 561 C597 561 564 571 536 586 C522 593 509 601 498 609 C475 625 453 641 428 650 C415 655 401 657 385 657 C358 657 332 650 313 635 C294 620 282 599 282 568 L282 561 C254 557 226 554 198 558 C170 561 143 571 120 592 C128 659 161 714 209 753 C256 792 318 814 382 814 C439 814 481 790 521 766 C560 742 596 718 647 718 C672 718 698 725 717 740 C736 755 749 776 749 807 L749 814 Z M749 506 C777 510 805 513 833 510 C861 506 888 496 911 475 C903 408 870 353 822 314 C774 275 711 253 644 253 C597 253 564 263 536 278 C522 285 509 293 498 301 C475 317 453 333 428 342 C415 347 401 349 385 349 C358 349 332 342 313 327 C294 312 282 291 282 260 L282 253 C254 249 226 246 198 250 C170 253 143 263 120 284 C128 351 161 406 209 445 C256 484 318 506 382 506 C439 506 481 482 521 458 C560 434 596 410 647 410 C672 410 698 417 717 432 C736 447 749 468 749 499 L749 506 Z "/>
<glyph glyph-name="notequal" unicode="≠" horiz-adv-x="1030" d="M910 284 L511 284 L425 47 L281 100 L348 284 L120 284 L120 438 L404 438 L460 592 L120 592 L120 746 L516 746 L591 952 L735 899 L679 746 L910 746 L910 592 L623 592 L567 438 L910 438 L910 284 Z "/>
<glyph glyph-name="lessequal" unicode="≤" horiz-adv-x="1030" d="M766 1058 L854 933 L443 645 L854 357 L766 232 L176 645 L766 1058 Z M910 0 L120 0 L120 154 L910 154 L910 0 Z "/>
<glyph glyph-name="greaterequal" unicode="≥" horiz-adv-x="1030" d="M264 232 L176 357 L587 645 L176 933 L264 1058 L854 645 L264 232 Z M910 0 L120 0 L120 154 L910 154 L910 0 Z "/>
<glyph glyph-name="fi" unicode="ﬁ" horiz-adv-x="1145" d="M831 895 L363 895 L363 0 L208 0 L208 895 L40 895 L40 1038 L208 1038 L208 1042 C208 1199 241 1302 298 1364 C355 1426 437 1448 534 1448 C627 1448 728 1428 810 1405 C851 1393 886 1382 917 1371 C948 1360 969 1353 982 1349 L940 1213 C933 1215 922 1219 907 1225 C875 1236 831 1249 779 1264 C727 1279 671 1291 618 1299 C591 1303 567 1305 544 1305 C487 1305 442 1291 411 1251 C379 1211 363 1146 363 1042 L363 1038 L985 1038 L985 0 L831 0 L831 895 Z "/>
<glyph glyph-name="fl" unicode="ﬂ" horiz-adv-x="1140" d="M40 1038 L208 1038 L208 1050 C208 1218 244 1318 307 1375 C370 1432 458 1448 563 1448 C634 1448 730 1441 826 1428 L970 1448 L980 1448 L980 -1 L826 -1 L826 1289 C746 1300 666 1306 606 1306 C535 1306 474 1295 431 1259 C388 1222 363 1158 363 1050 L363 1038 L597 1038 L597 894 L363 894 L363 -1 L208 -1 L208 894 L40 894 L40 1038 Z "/>
</font>
</svg>
