<?xml version="1.0" encoding="UTF-8"?>
<svg xmlns="http://www.w3.org/2000/svg" xmlns:xlink="http://www.w3.org/1999/xlink" version="1.2">
<font id="Flanders Art Serif b2 Light">
<font-face font-family="Flanders Art Serif b2" units-per-em="2048" ascent="1536" descent="-512" font-style="normal" font-weight="300" font-stretch="normal" cap-height="1318" x-height="1038" underline-position="-155" underline-thickness="50"/>
<missing-glyph horiz-adv-x="600" d=""/>
<glyph glyph-name="NULL" d=""/>
<glyph glyph-name="&amp;#x0;" d=""/>
<glyph glyph-name="&amp;#xd;" unicode="" d=""/>
<glyph glyph-name="space" unicode=" " horiz-adv-x="600" d=""/>
<glyph glyph-name="exclam" unicode="!" horiz-adv-x="471" d="M202 405 C195 453 191 553 188 676 C184 799 182 942 180 1078 C178 1213 177 1340 177 1428 L299 1428 C299 1340 299 1213 297 1078 C295 942 291 799 287 676 C283 553 279 453 272 405 L202 405 Z M150 64 C150 111 188 149 235 149 C259 149 280 140 296 125 C311 109 321 88 321 64 C321 41 311 20 296 5 C280 -11 259 -20 235 -20 C211 -20 190 -11 175 5 C159 20 150 41 150 64 L150 64 Z "/>
<glyph glyph-name="quotedbl" unicode="&quot;" horiz-adv-x="624" d="M103 1362 C103 1386 113 1407 129 1423 C144 1438 165 1448 188 1448 C207 1448 229 1442 246 1427 C263 1412 276 1389 276 1354 C276 1311 256 1267 228 1228 C200 1189 164 1158 132 1141 L100 1182 C124 1223 137 1253 137 1281 C137 1308 126 1330 103 1362 L103 1362 Z M352 1362 C352 1386 362 1407 378 1423 C393 1438 414 1448 438 1448 C455 1448 478 1442 495 1427 C511 1412 524 1389 524 1354 C524 1311 504 1267 477 1228 C449 1189 413 1158 381 1141 L348 1182 C373 1223 386 1253 386 1281 C386 1308 376 1330 352 1362 L352 1362 Z "/>
<glyph glyph-name="numbersign" unicode="#" horiz-adv-x="1241" d="M170 908 L407 908 L436 1237 L549 1228 L521 908 L824 908 L853 1237 L966 1228 L938 908 L1121 908 L1121 796 L928 796 L907 553 L1071 553 L1071 441 L898 441 L869 104 L756 113 L784 441 L481 441 L452 104 L339 113 L367 441 L120 441 L120 553 L377 553 L398 796 L170 796 L170 908 Z M490 553 L794 553 L815 796 L511 796 L490 553 Z "/>
<glyph glyph-name="dollar" unicode="$" horiz-adv-x="954" d="M126 38 C126 67 128 123 132 173 C133 198 135 220 136 240 C137 260 138 272 139 276 C162 287 200 289 223 285 C225 281 227 273 230 261 C234 236 240 202 245 163 C248 144 250 125 252 108 C297 97 343 92 388 92 C471 92 553 112 615 153 C677 194 718 255 718 339 C718 419 681 474 625 518 C569 561 494 593 419 629 C344 664 269 703 213 759 C157 815 120 888 120 995 C120 1092 153 1167 208 1223 C263 1278 337 1311 420 1327 L420 1448 L534 1448 L534 1338 C603 1337 674 1325 739 1304 C739 1275 737 1220 734 1170 C732 1145 730 1122 729 1102 C728 1082 727 1070 726 1066 C703 1055 665 1053 642 1057 C638 1065 633 1089 629 1119 C624 1149 618 1185 614 1220 C583 1224 552 1226 523 1226 C439 1226 365 1207 313 1170 C260 1133 229 1078 229 1006 C229 926 267 871 324 827 C380 783 456 750 532 714 C607 678 683 640 740 585 C796 529 834 458 834 357 C834 269 806 191 754 130 C702 69 627 23 534 -1 L534 -148 L420 -148 L420 -19 C413 -20 406 -20 399 -20 L377 -20 C277 -20 205 -1 126 38 L126 38 Z "/>
<glyph glyph-name="percent" unicode="%" horiz-adv-x="1679" d="M100 1000 C100 1093 134 1179 192 1240 C250 1300 333 1338 430 1338 C527 1338 609 1300 666 1240 C722 1179 754 1096 754 1005 C754 910 721 827 663 766 C605 705 521 668 424 668 C327 668 245 706 189 766 C132 826 100 909 100 1000 L100 1000 Z M213 1001 C213 941 234 885 271 844 C307 803 361 777 425 777 C489 777 544 803 582 845 C620 887 641 942 641 1005 C641 1065 620 1121 584 1162 C547 1202 493 1229 429 1229 C365 1229 311 1204 273 1162 C235 1120 213 1062 213 1001 L213 1001 Z M469 230 L1115 1154 L1207 1089 L561 165 L469 230 Z M925 312 C925 405 959 491 1017 552 C1075 612 1158 650 1255 650 C1352 650 1434 612 1491 552 C1547 491 1579 408 1579 317 C1579 222 1546 139 1488 78 C1430 17 1346 -20 1249 -20 C1152 -20 1070 18 1014 78 C957 138 925 221 925 312 L925 312 Z M1038 313 C1038 253 1059 197 1096 156 C1132 115 1186 89 1250 89 C1314 89 1369 115 1407 157 C1445 199 1466 254 1466 317 C1466 377 1445 433 1409 474 C1372 514 1318 541 1254 541 C1190 541 1136 516 1098 474 C1060 432 1038 374 1038 313 L1038 313 Z "/>
<glyph glyph-name="ampersand" unicode="&amp;" horiz-adv-x="1186" d="M1000 717 L1100 676 C1087 596 1064 514 1037 439 C1010 364 979 297 948 244 L1126 63 L1045 -20 L874 150 C770 37 638 -20 482 -20 C361 -20 255 16 180 82 C105 148 60 244 60 365 C60 521 135 629 294 725 C226 796 176 891 176 1020 C176 1113 202 1193 254 1249 C305 1305 381 1338 482 1338 C558 1338 636 1319 695 1275 C754 1231 793 1162 793 1062 C793 959 754 887 696 831 C638 775 562 736 493 701 L864 330 C895 389 923 457 945 525 C967 592 983 658 992 717 L1000 717 Z M293 1032 C293 977 308 931 332 891 C355 850 385 813 417 781 C526 829 591 880 628 928 C665 976 674 1022 674 1061 C674 1126 643 1169 603 1195 C563 1221 513 1231 473 1231 C365 1231 293 1156 293 1032 L293 1032 Z M482 90 C609 90 715 138 795 230 L370 654 C321 623 273 587 238 540 C202 492 179 434 179 362 C179 283 206 215 258 167 C310 119 386 90 482 90 L482 90 Z "/>
<glyph glyph-name="quotesingle" unicode="'" horiz-adv-x="376" d="M103 1362 C103 1386 113 1407 129 1423 C144 1438 165 1448 188 1448 C207 1448 229 1442 246 1427 C263 1412 276 1389 276 1354 C276 1311 256 1267 228 1228 C200 1189 164 1158 132 1141 L100 1182 C124 1223 137 1253 137 1281 C137 1308 126 1330 103 1362 L103 1362 Z "/>
<glyph glyph-name="parenleft" unicode="(" horiz-adv-x="534" d="M336 -20 L332 -20 C185 199 120 436 120 680 C120 944 196 1205 335 1448 L339 1448 L414 1382 C363 1277 319 1157 287 1037 C255 916 236 793 236 680 C236 576 252 465 283 357 C314 249 357 143 413 48 L336 -20 Z "/>
<glyph glyph-name="parenright" unicode=")" horiz-adv-x="534" d="M198 -20 L121 48 C177 143 220 249 251 357 C282 465 298 576 298 680 C298 793 279 916 247 1037 C215 1157 171 1277 120 1382 L195 1448 L199 1448 C338 1205 414 944 414 680 C414 436 349 199 202 -20 L198 -20 Z "/>
<glyph glyph-name="asterisk" unicode="*" horiz-adv-x="1062" d="M450 1062 C366 1165 309 1251 266 1326 L365 1383 C408 1308 456 1217 503 1093 L450 1062 Z M561 1092 C608 1216 654 1308 697 1383 L796 1326 C753 1251 698 1164 614 1061 L561 1092 Z M420 951 C289 930 185 924 100 924 L100 1038 C185 1038 289 1033 420 1013 L420 951 Z M642 1013 C773 1034 877 1038 962 1038 L962 924 C877 924 773 930 642 951 L642 1013 Z M614 901 C698 797 753 711 796 636 L697 579 C654 654 608 746 561 870 L614 901 Z M503 869 C456 745 408 654 365 579 L266 636 C309 711 366 797 450 900 L503 869 Z "/>
<glyph glyph-name="plus" unicode="+" horiz-adv-x="1030" d="M120 622 L459 622 L459 961 L571 961 L571 622 L910 622 L910 510 L571 510 L571 171 L459 171 L459 510 L120 510 L120 622 Z "/>
<glyph glyph-name="comma" unicode="," horiz-adv-x="376" d="M103 62 C103 86 113 107 129 123 C144 138 165 148 189 148 C206 148 229 142 246 127 C263 112 276 89 276 54 C276 11 256 -33 228 -72 C200 -111 164 -142 132 -159 L100 -118 C124 -77 138 -47 138 -19 C138 8 127 30 103 62 L103 62 Z "/>
<glyph glyph-name="hyphen" unicode="-" horiz-adv-x="650" d="M75 638 L575 638 L575 526 L75 526 L75 638 Z "/>
<glyph glyph-name="period" unicode="." horiz-adv-x="371" d="M100 64 C100 87 110 107 126 123 C141 138 162 148 185 148 C208 148 229 138 245 123 C261 107 271 87 271 64 C271 41 261 21 245 6 C229 -10 208 -20 185 -20 C162 -20 141 -10 126 6 C110 21 100 41 100 64 L100 64 Z "/>
<glyph glyph-name="slash" unicode="/" horiz-adv-x="933" d="M708 1448 L813 1409 L225 -207 L120 -168 L708 1448 Z "/>
<glyph glyph-name="zero" unicode="0" horiz-adv-x="1117" d="M1017 654 C1013 425 967 257 887 146 C807 34 693 -20 553 -20 C432 -20 341 23 274 91 C206 159 163 254 136 356 C109 458 100 568 100 671 C100 895 143 1061 221 1172 C299 1283 412 1338 553 1338 C854 1338 1017 1119 1017 654 L1017 654 Z M900 673 C900 878 868 1017 809 1105 C750 1193 663 1229 554 1229 C439 1229 356 1186 300 1095 C244 1003 217 863 217 671 C217 282 325 89 554 89 C665 89 751 125 810 217 C869 308 900 453 900 673 L900 673 Z "/>
<glyph glyph-name="one" unicode="1" horiz-adv-x="646" d="M356 0 C333 0 308 1 286 2 C275 3 265 3 258 4 C251 5 247 6 246 7 C231 27 234 68 242 92 C282 92 315 98 342 109 L342 1205 C237 1190 136 1152 68 1112 L60 1119 L60 1221 C135 1268 235 1303 342 1318 L456 1318 L456 108 C495 103 532 97 556 92 C560 84 562 66 562 49 C562 32 559 15 552 7 C551 6 547 5 540 4 C525 3 502 1 477 1 C464 0 453 0 442 0 L356 0 Z "/>
<glyph glyph-name="two" unicode="2" horiz-adv-x="977" d="M878 0 L30 0 L30 113 C49 128 75 147 106 170 C168 217 244 280 326 353 C408 426 489 509 562 597 C634 685 690 776 723 866 C739 911 747 954 747 997 C747 1081 713 1139 661 1176 C609 1213 539 1229 466 1229 C379 1229 304 1207 236 1179 C232 1143 227 1098 221 1061 C218 1042 215 1026 212 1012 C209 997 207 988 205 984 C182 980 144 982 121 993 C120 997 119 1009 118 1029 C115 1069 112 1122 110 1172 C109 1197 108 1216 108 1231 C211 1295 348 1338 487 1338 C584 1338 680 1315 749 1262 C818 1209 864 1123 864 998 C864 879 824 766 760 659 C695 552 608 452 514 360 C420 268 318 185 227 113 L751 113 C755 149 761 189 766 224 C769 241 771 257 774 270 C777 283 779 291 781 295 C804 299 842 297 865 286 C866 282 867 270 868 250 C871 210 875 158 877 108 C878 83 878 63 878 48 L878 0 Z "/>
<glyph glyph-name="three" unicode="3" horiz-adv-x="989" d="M107 1237 C213 1299 345 1338 460 1338 C574 1338 698 1302 776 1209 C815 1160 840 1093 840 1008 C840 932 821 871 790 821 C759 771 717 731 672 703 C740 680 799 645 842 591 C885 537 910 463 910 364 C910 269 882 195 838 139 C793 82 733 42 667 17 C601 -8 529 -20 465 -20 C409 -20 335 -11 263 7 C190 25 116 52 60 89 C60 98 60 111 61 128 C62 144 62 162 63 181 C64 219 67 260 69 293 C70 310 70 324 71 336 C72 347 72 354 73 357 C96 368 134 370 157 366 C161 355 168 316 175 272 C182 227 188 174 191 141 C283 109 387 89 464 89 C564 89 649 115 708 162 C767 209 801 275 801 358 C801 455 750 523 669 565 C588 607 476 624 355 624 L266 624 L266 744 L399 744 C559 744 722 830 722 1007 C722 1152 592 1229 439 1229 C375 1229 305 1214 236 1189 C232 1153 226 1108 220 1069 C217 1050 214 1033 211 1019 C208 1004 206 995 204 990 C181 986 143 988 120 999 C119 1003 118 1015 117 1035 C114 1075 111 1128 109 1178 C108 1203 107 1222 107 1237 L107 1237 Z "/>
<glyph glyph-name="four" unicode="4" horiz-adv-x="959" d="M30 411 L647 1318 L774 1318 L774 411 L909 411 L909 299 L774 299 L774 0 L659 0 L659 299 L30 299 L30 411 Z M659 411 L659 1136 L165 411 L659 411 Z "/>
<glyph glyph-name="five" unicode="5" horiz-adv-x="977" d="M211 1318 L834 1318 L834 1205 L308 1205 L264 805 C353 805 455 803 549 788 C643 772 730 742 794 683 C858 624 898 539 898 411 C898 260 841 153 758 83 C674 13 565 -20 458 -20 C411 -20 346 -14 278 2 C209 18 137 44 80 83 C80 92 80 105 81 122 C82 138 82 156 83 175 C84 213 87 254 89 287 C90 304 90 318 91 330 C92 341 92 348 93 351 C116 362 154 364 177 360 C181 349 188 312 195 268 C202 224 207 175 211 140 C294 109 380 93 452 93 C553 93 636 126 692 182 C748 238 779 317 779 409 C779 518 735 589 643 633 C551 677 412 693 221 693 L143 693 L211 1318 Z "/>
<glyph glyph-name="six" unicode="6" horiz-adv-x="1009" d="M854 1227 C697 1227 561 1176 456 1085 C351 993 276 862 243 699 C290 742 338 769 386 785 C434 801 481 807 524 807 C641 807 737 763 804 693 C871 623 909 527 909 424 C909 369 899 301 872 236 C845 171 804 106 743 59 C682 11 599 -20 494 -20 C357 -20 258 32 194 121 C130 209 100 335 100 480 C100 605 122 743 173 870 C224 997 301 1114 413 1199 C525 1284 670 1338 854 1338 L854 1227 Z M515 698 C427 698 335 656 222 583 C215 530 216 490 216 466 C216 342 253 248 309 184 C365 120 441 88 521 88 C612 88 679 131 724 192 C768 252 790 331 790 406 C790 498 756 572 705 622 C654 672 584 698 515 698 L515 698 Z "/>
<glyph glyph-name="seven" unicode="7" horiz-adv-x="831" d="M60 1318 L801 1318 L269 0 L146 0 L632 1205 L191 1205 C188 1170 182 1120 175 1076 C172 1054 168 1034 165 1017 C162 1000 159 989 157 984 C134 980 96 982 73 993 C72 997 71 1009 70 1029 C67 1069 64 1122 62 1172 C61 1197 60 1216 60 1231 L60 1318 Z "/>
<glyph glyph-name="eight" unicode="8" horiz-adv-x="1029" d="M890 999 C890 923 868 863 831 813 C794 763 741 724 677 688 C746 656 814 616 865 561 C916 505 949 434 949 339 C949 219 895 129 813 69 C731 9 622 -20 514 -20 C405 -20 296 10 215 70 C134 130 80 220 80 339 C80 438 117 511 169 567 C221 622 289 660 352 688 C289 723 236 762 199 812 C162 862 139 922 139 999 C139 1108 185 1194 254 1251 C323 1308 418 1338 514 1338 C609 1338 702 1309 773 1253 C844 1196 890 1111 890 999 L890 999 Z M772 1002 C772 1078 738 1133 689 1170 C640 1207 575 1225 514 1225 C453 1225 388 1207 340 1171 C291 1134 257 1078 257 1003 C257 934 286 880 334 837 C381 793 445 760 514 729 C586 761 650 794 697 838 C744 881 772 934 772 1002 L772 1002 Z M198 329 C198 253 237 193 296 153 C355 113 434 92 514 92 C593 92 672 113 732 153 C791 193 831 253 831 332 C831 409 791 468 732 516 C672 564 593 601 514 640 C431 601 353 563 295 515 C237 467 198 409 198 329 L198 329 Z "/>
<glyph glyph-name="nine" unicode="9" horiz-adv-x="1009" d="M140 91 C297 91 437 142 546 234 C654 325 731 456 766 619 C718 576 672 549 624 533 C576 517 526 511 471 511 C364 511 273 556 206 626 C139 696 100 791 100 894 C100 949 112 1017 138 1083 C164 1149 205 1212 266 1260 C327 1307 408 1338 512 1338 C651 1338 750 1284 815 1197 C879 1109 909 990 909 861 C909 724 885 581 833 450 C780 319 699 202 585 117 C471 32 324 -20 140 -20 L140 91 Z M490 620 C579 620 667 656 787 735 C794 788 793 828 793 852 C793 976 756 1070 700 1134 C644 1198 568 1230 488 1230 C397 1230 330 1187 286 1127 C241 1066 219 985 219 912 C219 820 253 747 304 697 C355 647 423 620 490 620 L490 620 Z "/>
<glyph glyph-name="colon" unicode=":" horiz-adv-x="371" d="M100 974 C100 997 110 1017 126 1033 C141 1048 162 1058 185 1058 C208 1058 229 1048 245 1033 C261 1017 271 997 271 974 C271 951 261 931 245 916 C229 900 208 890 185 890 C162 890 141 900 126 916 C110 931 100 951 100 974 L100 974 Z M100 64 C100 87 110 107 126 123 C141 138 162 148 185 148 C208 148 229 138 245 123 C261 107 271 87 271 64 C271 41 261 21 245 6 C229 -10 208 -20 185 -20 C162 -20 141 -10 126 6 C110 21 100 41 100 64 L100 64 Z "/>
<glyph glyph-name="semicolon" unicode=";" horiz-adv-x="376" d="M104 974 C104 997 114 1017 130 1033 C145 1048 166 1058 189 1058 C212 1058 233 1048 249 1033 C265 1017 275 997 275 974 C275 951 265 931 249 916 C233 900 212 890 189 890 C166 890 145 900 130 916 C114 931 104 951 104 974 L104 974 Z M103 62 C103 86 113 107 129 123 C144 138 165 148 189 148 C206 148 229 142 246 127 C263 112 276 89 276 54 C276 11 256 -33 228 -72 C200 -111 164 -142 132 -159 L100 -118 C124 -77 138 -47 138 -19 C138 8 127 30 103 62 L103 62 Z "/>
<glyph glyph-name="less" unicode="&lt;" horiz-adv-x="894" d="M774 197 L710 105 L120 518 L710 931 L774 839 L315 518 L774 197 Z "/>
<glyph glyph-name="equal" unicode="=" horiz-adv-x="1030" d="M120 746 L910 746 L910 634 L120 634 L120 746 Z M120 396 L910 396 L910 284 L120 284 L120 396 Z "/>
<glyph glyph-name="greater" unicode="&gt;" horiz-adv-x="894" d="M579 518 L120 839 L184 931 L774 518 L184 105 L120 197 L579 518 Z "/>
<glyph glyph-name="question" unicode="?" horiz-adv-x="975" d="M153 1214 L120 1306 C152 1347 203 1384 263 1409 C323 1433 393 1448 465 1448 C562 1448 660 1421 733 1366 C806 1310 856 1225 856 1109 C856 1026 830 968 793 920 C774 896 753 874 729 853 C681 812 629 769 581 717 C533 664 495 595 472 501 C460 454 454 398 454 334 L338 334 C338 469 364 568 401 645 C438 722 488 777 539 824 C564 847 589 869 613 889 C661 929 699 970 723 1019 C734 1044 740 1072 740 1105 C740 1181 706 1239 653 1279 C600 1319 529 1339 454 1339 C399 1339 342 1327 291 1307 C240 1286 194 1254 162 1214 L153 1214 Z M313 64 C313 87 323 107 339 123 C354 138 375 148 398 148 C421 148 442 138 458 123 C474 107 484 87 484 64 C484 41 474 21 458 6 C442 -10 421 -20 398 -20 C375 -20 354 -10 339 6 C323 21 313 41 313 64 L313 64 Z "/>
<glyph glyph-name="at" unicode="@" horiz-adv-x="1419" d="M1199 881 L1199 575 C1199 514 1211 456 1237 410 C1263 364 1303 328 1359 315 L1294 207 C1218 232 1160 293 1128 369 C1101 322 1060 282 1007 253 C954 224 889 207 816 207 C771 207 717 214 668 233 C619 252 572 282 537 330 C502 377 480 440 480 527 C480 624 508 699 572 750 C636 801 736 827 877 827 C930 827 993 823 1085 815 L1085 880 C1085 960 1057 1014 1008 1047 C959 1079 887 1092 799 1092 C626 1092 480 1044 378 952 C276 859 216 722 216 546 C216 378 269 231 364 125 C459 19 595 -45 763 -45 C906 -45 1020 -18 1107 62 L1186 -6 C1130 -59 1060 -96 986 -119 C912 -143 832 -153 757 -153 C554 -153 389 -81 276 42 C163 165 100 336 100 535 C100 691 139 817 204 916 C268 1015 358 1085 461 1132 C564 1179 679 1201 794 1201 C923 1201 1023 1183 1091 1135 C1159 1086 1194 1005 1198 881 L1199 881 Z M1085 710 C1048 714 1018 717 993 718 C980 718 969 718 958 719 L925 719 C885 719 835 719 787 712 C739 704 691 690 656 662 C621 634 598 593 598 532 C598 473 618 420 658 381 C697 341 753 316 825 316 C936 316 1024 371 1085 488 L1085 710 Z "/>
<glyph glyph-name="A" unicode="A" horiz-adv-x="1240" d="M151 0 C128 0 103 1 81 2 C70 3 60 3 53 4 C38 5 37 9 34 25 C32 32 31 40 31 49 C31 66 33 84 37 92 C62 97 102 104 142 109 L557 1318 L681 1318 L1096 109 C1137 104 1176 97 1203 92 C1207 84 1209 66 1209 49 C1209 32 1206 15 1199 7 C1198 6 1194 5 1187 4 C1172 3 1149 1 1124 1 C1111 0 1100 0 1089 0 L1001 0 C978 0 953 1 931 2 C920 3 910 3 903 4 C888 5 887 9 884 25 C882 32 881 40 881 49 C881 66 883 84 887 92 C908 96 939 102 974 106 L899 323 L338 323 L264 106 C281 104 297 102 312 99 C327 96 340 94 351 92 C355 84 357 66 357 49 C357 32 354 15 347 7 C346 6 342 5 335 4 C320 3 297 1 272 1 C259 0 248 0 237 0 L151 0 Z M377 436 L861 436 L619 1138 L377 436 Z "/>
<glyph glyph-name="B" unicode="B" horiz-adv-x="1086" d="M181 0 C158 0 133 1 111 2 C100 3 90 3 83 4 C68 5 67 9 64 25 C62 32 61 40 61 49 C61 66 63 84 67 92 C92 97 132 104 173 109 L173 1208 C132 1213 92 1219 67 1226 C63 1234 61 1252 61 1269 C61 1286 64 1303 71 1311 C72 1312 76 1313 83 1314 C98 1316 121 1317 146 1318 L181 1318 L455 1318 C596 1318 723 1297 812 1242 C901 1187 956 1100 956 967 C956 831 903 726 790 683 C955 640 1031 541 1031 364 C1031 252 997 175 939 121 C881 67 799 36 704 20 C609 3 502 0 391 0 L181 0 Z M288 1209 L288 728 L376 728 C541 728 657 734 733 765 C808 796 841 849 841 944 C841 1051 790 1117 714 1157 C637 1196 533 1209 425 1209 L288 1209 Z M288 619 L288 109 L450 109 C594 109 713 123 795 163 C877 202 923 267 923 370 C923 471 878 534 798 571 C718 608 604 619 467 619 L288 619 Z "/>
<glyph glyph-name="C" unicode="C" horiz-adv-x="1091" d="M1031 18 C939 -9 835 -19 748 -19 C525 -19 364 55 258 176 C152 297 100 466 100 657 C100 882 171 1053 287 1167 C403 1281 564 1338 747 1338 C787 1338 836 1336 885 1329 C934 1321 986 1311 1031 1295 C1031 1285 1031 1272 1030 1257 C1029 1241 1029 1224 1028 1205 C1027 1168 1025 1127 1023 1095 L1020 1053 C1019 1042 1019 1035 1018 1032 C995 1021 957 1019 934 1023 C932 1027 930 1036 927 1050 C921 1078 914 1117 909 1159 C906 1180 904 1199 902 1217 C854 1226 813 1229 770 1229 C579 1229 442 1171 351 1071 C260 971 217 828 217 660 C217 493 260 350 350 250 C440 149 578 89 773 89 C812 89 855 91 902 98 C906 134 912 179 918 217 C924 255 930 286 934 295 C957 299 995 297 1018 286 C1019 283 1019 276 1020 265 L1023 222 C1025 189 1027 148 1028 110 C1029 91 1029 73 1030 57 C1031 40 1031 27 1031 18 L1031 18 Z "/>
<glyph glyph-name="D" unicode="D" horiz-adv-x="1297" d="M181 0 C158 0 133 1 111 2 C100 3 90 3 83 4 C68 5 67 9 64 25 C62 32 61 40 61 49 C61 66 63 84 67 92 C91 97 128 103 167 108 L167 1209 C128 1214 91 1221 67 1226 C63 1234 61 1252 61 1269 C61 1286 64 1303 71 1311 C72 1312 76 1313 83 1314 C98 1316 121 1317 146 1318 L181 1318 L513 1318 C705 1318 876 1249 1000 1133 C1123 1016 1197 852 1197 660 C1197 468 1126 303 1007 187 C888 70 720 0 528 0 L181 0 Z M282 1209 L282 109 L522 109 C693 109 833 173 930 271 C1026 369 1081 503 1081 644 C1081 812 1015 953 911 1053 C806 1152 661 1209 505 1209 L282 1209 Z "/>
<glyph glyph-name="E" unicode="E" horiz-adv-x="984" d="M181 1318 L925 1318 L925 1270 C925 1241 923 1186 920 1136 C918 1111 916 1088 915 1068 C914 1048 913 1036 912 1032 C889 1021 851 1019 828 1023 C826 1027 824 1035 821 1048 C816 1073 810 1109 805 1149 C802 1168 800 1187 798 1205 L281 1205 L281 715 L718 715 C726 768 737 817 745 828 C777 831 805 830 828 819 C833 783 838 723 839 663 C839 602 837 540 828 499 C805 488 777 487 745 490 C741 495 737 509 732 530 C727 551 722 576 718 603 L281 603 L281 113 L798 113 C802 149 808 189 813 224 C816 241 818 257 821 270 C824 283 826 291 828 295 C851 299 889 297 912 286 C913 282 914 270 915 250 C918 210 922 158 924 108 C925 83 925 63 925 48 L925 0 L181 0 C158 0 133 1 111 2 C100 3 90 3 83 4 C68 5 67 9 64 25 C62 32 61 40 61 49 C61 66 63 84 67 92 C91 97 128 103 167 108 L167 1209 C128 1214 91 1221 67 1226 C63 1234 61 1252 61 1269 C61 1286 64 1303 71 1311 C72 1312 76 1313 83 1314 C98 1316 121 1317 146 1318 L181 1318 Z "/>
<glyph glyph-name="F" unicode="F" horiz-adv-x="984" d="M828 819 C833 783 838 723 839 663 C839 602 837 540 828 499 C805 488 777 487 745 490 C741 495 737 509 732 530 C727 551 722 576 718 603 L282 603 L282 108 C321 103 357 97 381 92 C385 84 387 66 387 49 C387 32 384 15 377 7 C376 6 372 5 365 4 C350 3 327 1 302 1 C289 0 278 0 267 0 L181 0 C158 0 133 1 111 2 C100 3 90 3 83 4 C68 5 67 9 64 25 C62 32 61 40 61 49 C61 66 63 84 67 92 C91 97 128 103 167 108 L167 1209 C128 1214 91 1221 67 1226 C63 1234 61 1252 61 1269 C61 1286 64 1303 71 1311 C72 1312 76 1313 83 1314 C98 1316 121 1317 146 1318 L181 1318 L925 1318 L925 1266 C925 1235 922 1181 919 1132 C918 1107 916 1086 915 1067 C914 1048 913 1036 912 1032 C889 1021 851 1019 828 1023 C826 1027 824 1035 821 1048 C816 1073 810 1109 805 1149 C802 1168 800 1187 798 1205 L282 1205 L282 716 L718 716 C722 743 727 767 732 788 C737 809 741 823 745 828 C777 831 805 830 828 819 L828 819 Z "/>
<glyph glyph-name="G" unicode="G" horiz-adv-x="1274" d="M100 675 C100 888 168 1054 281 1167 C394 1279 553 1338 734 1338 C783 1338 841 1334 899 1326 C957 1318 1014 1305 1065 1288 C1065 1278 1065 1264 1064 1246 C1063 1227 1063 1207 1062 1184 C1061 1139 1059 1089 1057 1049 L1054 997 C1053 983 1053 975 1052 972 C1029 961 991 959 968 963 C963 975 954 1023 947 1076 C939 1128 933 1184 932 1211 C869 1224 822 1229 770 1229 C579 1229 441 1167 350 1067 C259 967 216 828 216 673 C216 504 267 358 355 254 C443 150 567 89 714 89 C825 89 904 124 991 181 L991 610 L724 610 L724 723 L1104 723 L1104 0 L1054 0 L1018 87 C925 24 829 -20 704 -20 C517 -20 366 56 262 181 C158 305 100 479 100 675 L100 675 Z "/>
<glyph glyph-name="H" unicode="H" horiz-adv-x="1244" d="M181 1318 L267 1318 C288 1318 316 1317 338 1316 C349 1315 358 1315 365 1314 C380 1312 381 1309 385 1294 C386 1286 387 1278 387 1269 C387 1252 385 1234 381 1226 C357 1221 321 1214 282 1209 L282 715 L962 715 L962 1209 C923 1214 887 1221 863 1226 C859 1234 857 1252 857 1269 C857 1286 860 1303 867 1311 C868 1312 872 1313 879 1314 C894 1316 917 1317 942 1318 L977 1318 L1063 1318 C1084 1318 1112 1317 1134 1316 C1145 1315 1154 1315 1161 1314 C1176 1312 1177 1309 1181 1294 C1182 1286 1183 1278 1183 1269 C1183 1252 1181 1234 1177 1226 C1153 1221 1116 1214 1077 1209 L1077 108 C1116 103 1153 97 1177 92 C1181 84 1183 66 1183 49 C1183 32 1180 15 1173 7 C1172 6 1168 5 1161 4 C1146 3 1123 1 1098 1 C1085 0 1074 0 1063 0 L977 0 C954 0 929 1 907 2 C896 3 886 3 879 4 C864 5 863 9 860 25 C858 32 857 40 857 49 C857 66 859 84 863 92 C887 97 923 103 962 108 L962 603 L282 603 L282 108 C321 103 357 97 381 92 C385 84 387 66 387 49 C387 32 384 15 377 7 C376 6 372 5 365 4 C350 3 327 1 302 1 C289 0 278 0 267 0 L181 0 C158 0 133 1 111 2 C100 3 90 3 83 4 C68 5 67 9 64 25 C62 32 61 40 61 49 C61 66 63 84 67 92 C91 97 128 103 167 108 L167 1209 C128 1214 91 1221 67 1226 C63 1234 61 1252 61 1269 C61 1286 64 1303 71 1311 C72 1312 76 1313 83 1314 C98 1316 121 1317 146 1318 L181 1318 Z "/>
<glyph glyph-name="I" unicode="I" horiz-adv-x="448" d="M181 1318 L267 1318 C288 1318 316 1317 338 1316 C349 1315 358 1315 365 1314 C380 1312 381 1309 385 1294 C386 1286 387 1278 387 1269 C387 1252 385 1234 381 1226 C357 1221 320 1214 281 1209 L281 108 C320 103 357 97 381 92 C385 84 387 66 387 49 C387 32 384 15 377 7 C376 6 372 5 365 4 C350 3 327 1 302 1 C289 0 278 0 267 0 L181 0 C158 0 133 1 111 2 C100 3 90 3 83 4 C68 5 67 9 64 25 C62 32 61 40 61 49 C61 66 63 84 67 92 C91 97 128 103 167 108 L167 1209 C128 1214 91 1221 67 1226 C63 1234 61 1252 61 1269 C61 1286 64 1303 71 1311 C72 1312 76 1313 83 1314 C98 1316 121 1317 146 1318 L181 1318 Z "/>
<glyph glyph-name="J" unicode="J" horiz-adv-x="703" d="M537 1318 C558 1318 582 1316 600 1315 C609 1314 616 1314 622 1313 C628 1312 631 1312 632 1311 C639 1303 642 1286 642 1269 C642 1252 640 1234 636 1226 C612 1221 576 1214 537 1209 L537 404 C537 301 520 201 472 126 C424 50 345 0 221 0 C176 0 140 6 106 17 C72 28 42 42 10 58 C10 87 12 143 16 193 C17 218 19 240 20 260 C21 280 22 292 23 296 C46 307 84 309 107 305 C109 301 111 293 114 281 C118 256 124 222 129 183 C132 164 134 145 136 128 C169 119 200 114 227 114 C284 114 332 134 367 181 C402 228 422 300 422 407 L422 1209 C383 1214 346 1221 322 1226 C318 1234 316 1252 316 1269 C316 1286 319 1303 326 1311 C327 1312 330 1312 336 1313 C348 1314 366 1316 389 1317 C400 1318 411 1318 422 1318 L537 1318 Z "/>
<glyph glyph-name="K" unicode="K" horiz-adv-x="1095" d="M942 -20 C871 11 784 79 695 163 C606 247 516 347 441 441 C366 535 307 622 282 682 L282 108 C321 103 357 97 381 92 C385 84 387 66 387 49 C387 32 384 15 377 7 C376 6 372 5 365 4 C350 3 327 1 302 1 C289 0 278 0 267 0 L181 0 C158 0 133 1 111 2 C100 3 90 3 83 4 C68 5 67 9 64 25 C62 32 61 40 61 49 C61 66 63 84 67 92 C91 97 128 103 167 108 L167 1209 C128 1214 91 1221 67 1226 C63 1234 61 1252 61 1269 C61 1286 64 1303 71 1311 C72 1312 76 1313 83 1314 C98 1316 121 1317 146 1318 L181 1318 L267 1318 C288 1318 316 1317 338 1316 C349 1315 358 1315 365 1314 C380 1312 381 1309 385 1294 C386 1286 387 1278 387 1269 C387 1252 385 1234 381 1226 C357 1221 321 1214 282 1209 L282 700 L716 1218 C700 1221 687 1223 676 1226 C672 1234 670 1252 670 1269 C670 1286 673 1303 680 1311 C681 1312 685 1313 692 1314 C707 1316 730 1317 755 1318 L790 1318 L876 1318 C897 1318 925 1317 947 1316 C958 1315 967 1315 974 1314 C989 1312 990 1309 994 1294 C995 1286 996 1278 996 1269 C996 1252 994 1234 990 1226 C957 1219 899 1211 848 1204 L423 695 L425 691 C437 651 474 593 525 528 C576 463 641 391 710 323 C778 255 850 191 917 143 C948 178 979 206 992 213 C1017 208 1043 187 1058 170 C1055 158 1040 127 1018 91 C996 55 967 13 942 -20 L942 -20 Z "/>
<glyph glyph-name="L" unicode="L" horiz-adv-x="961" d="M901 48 L901 0 L181 0 C158 0 133 1 111 2 C100 3 90 3 83 4 C68 5 67 9 64 25 C62 32 61 40 61 49 C61 66 63 84 67 92 C91 97 128 103 167 108 L167 1209 C128 1214 91 1221 67 1226 C63 1234 61 1252 61 1269 C61 1286 64 1303 71 1311 C72 1312 76 1313 83 1314 C98 1316 121 1317 146 1318 L181 1318 L267 1318 C288 1318 316 1317 338 1316 C349 1315 358 1315 365 1314 C380 1312 381 1309 385 1294 C386 1286 387 1278 387 1269 C387 1252 385 1234 381 1226 C357 1221 321 1214 282 1209 L282 113 L773 113 C777 149 783 192 788 227 C791 244 794 259 797 272 C800 284 802 292 804 295 C837 298 865 297 888 286 C889 285 890 279 891 270 C893 251 895 221 897 186 C899 151 900 116 901 85 L901 48 Z "/>
<glyph glyph-name="M" unicode="M" horiz-adv-x="1297" d="M646 616 L650 616 L1010 1318 L1116 1318 C1137 1318 1165 1317 1187 1316 C1198 1315 1207 1315 1214 1314 C1229 1312 1230 1309 1234 1294 C1235 1286 1236 1278 1236 1269 C1236 1252 1234 1234 1230 1226 C1205 1219 1165 1214 1125 1209 L1129 108 C1168 103 1205 97 1230 92 C1234 84 1236 66 1236 49 C1236 32 1233 15 1226 7 C1225 6 1221 5 1214 4 C1199 3 1176 1 1151 1 C1138 0 1127 0 1116 0 L1030 0 C1007 0 982 1 960 2 C949 3 939 3 932 4 C917 5 916 9 913 25 C911 32 910 40 910 49 C910 66 912 84 916 92 C940 97 976 103 1015 108 L1011 1095 L657 392 L643 392 L285 1096 L281 108 C320 103 357 97 381 92 C385 84 387 66 387 49 C387 32 384 15 377 7 C376 6 372 5 365 4 C350 3 327 1 302 1 C289 0 278 0 267 0 L181 0 C158 0 133 1 111 2 C100 3 90 3 83 4 C68 5 67 9 64 25 C62 32 61 40 61 49 C61 66 63 84 67 92 C91 97 128 103 167 108 L171 1209 C131 1214 92 1219 67 1226 C63 1234 61 1252 61 1269 C61 1286 64 1303 71 1311 C72 1312 76 1313 83 1314 C98 1316 121 1317 146 1318 L181 1318 L286 1318 L646 616 Z "/>
<glyph glyph-name="N" unicode="N" horiz-adv-x="1257" d="M1076 1318 C1097 1318 1125 1317 1147 1316 C1158 1315 1167 1315 1174 1314 C1189 1312 1190 1309 1194 1294 C1195 1286 1196 1278 1196 1269 C1196 1252 1194 1234 1190 1226 C1166 1221 1129 1214 1090 1209 L1090 0 L976 0 L281 1110 L281 108 C320 103 357 97 381 92 C385 84 387 66 387 49 C387 32 384 15 377 7 C376 6 372 5 365 4 C350 3 327 1 302 1 C289 0 278 0 267 0 L167 0 C146 0 122 1 104 2 C95 3 87 3 81 4 C75 5 72 6 71 7 C64 15 61 32 61 49 C61 66 63 84 67 92 C91 97 128 103 167 108 L167 1209 C128 1214 91 1221 67 1226 C63 1234 61 1252 61 1269 C61 1286 64 1303 71 1311 C72 1312 75 1312 81 1313 C93 1314 111 1316 134 1317 C145 1318 156 1318 167 1318 L281 1318 L976 207 L976 1209 C937 1214 900 1221 876 1226 C872 1234 870 1252 870 1269 C870 1286 873 1303 880 1311 C881 1312 884 1312 890 1313 C902 1314 920 1316 943 1317 C954 1318 965 1318 976 1318 L1076 1318 Z "/>
<glyph glyph-name="O" unicode="O" horiz-adv-x="1410" d="M100 656 C100 849 161 1021 268 1143 C375 1265 526 1338 709 1338 C892 1338 1042 1264 1147 1143 C1251 1022 1310 853 1310 664 C1310 469 1255 299 1151 177 C1047 55 895 -20 700 -20 C517 -20 367 55 263 177 C159 299 100 467 100 656 L100 656 Z M216 667 C216 507 261 363 346 259 C430 154 553 89 712 89 C864 89 984 148 1067 248 C1150 348 1194 489 1194 652 C1194 813 1150 958 1067 1062 C983 1166 861 1229 704 1229 C552 1229 430 1169 346 1069 C262 969 216 828 216 667 L216 667 Z "/>
<glyph glyph-name="P" unicode="P" horiz-adv-x="1132" d="M181 1318 L402 1318 C617 1318 779 1286 888 1218 C997 1149 1052 1042 1052 890 C1052 771 1019 680 961 612 C903 543 819 495 722 466 C625 437 512 424 393 424 L287 424 L287 108 C326 103 363 97 387 92 C391 84 393 66 393 49 C393 32 390 15 383 7 C382 6 378 5 371 4 C356 3 333 1 308 1 C295 0 284 0 273 0 L187 0 C164 0 139 1 117 2 C106 3 96 3 89 4 C74 5 73 9 70 25 C68 32 67 40 67 49 C67 66 69 84 73 92 C97 97 134 103 173 108 L173 1208 C132 1213 92 1219 67 1226 C63 1234 61 1252 61 1269 C61 1286 64 1303 71 1311 C72 1312 76 1313 83 1314 C98 1316 121 1317 146 1318 L181 1318 Z M287 1209 L287 533 L406 533 C566 533 699 553 792 605 C884 656 936 738 936 865 C936 998 878 1084 783 1137 C688 1189 555 1209 406 1209 L287 1209 Z "/>
<glyph glyph-name="Q" unicode="Q" horiz-adv-x="1410" d="M1091 -267 C1048 -262 989 -228 933 -180 C876 -132 823 -72 791 -13 C760 -17 731 -20 700 -20 C517 -20 367 55 263 177 C159 299 100 467 100 656 C100 849 161 1021 268 1143 C375 1265 526 1338 709 1338 C892 1338 1042 1264 1147 1143 C1251 1022 1310 852 1310 663 C1310 512 1273 375 1206 264 C1138 152 1041 68 922 21 C961 -30 1012 -75 1061 -110 C1093 -71 1126 -41 1141 -34 C1166 -39 1192 -60 1207 -77 C1204 -89 1189 -120 1167 -156 C1145 -192 1116 -234 1091 -267 L1091 -267 Z M216 667 C216 507 261 363 346 259 C430 154 553 89 712 89 C864 89 984 148 1067 248 C1150 348 1194 489 1194 652 C1194 813 1150 958 1067 1062 C983 1166 861 1229 704 1229 C552 1229 430 1169 346 1069 C262 969 216 828 216 667 L216 667 Z "/>
<glyph glyph-name="R" unicode="R" horiz-adv-x="1246" d="M187 0 C164 0 139 1 117 2 C106 3 96 3 89 4 C74 5 73 9 70 25 C68 32 67 40 67 49 C67 66 69 84 73 92 C97 97 134 103 173 108 L173 1208 C132 1213 92 1219 67 1226 C63 1234 61 1252 61 1269 C61 1286 64 1303 71 1311 C72 1312 76 1313 83 1314 C98 1316 121 1317 146 1318 L181 1318 L458 1318 C678 1318 826 1284 919 1213 C1012 1141 1051 1034 1051 887 C1051 784 1030 704 990 641 C950 577 892 531 819 499 C834 452 870 388 916 323 C962 258 1018 192 1075 143 C1106 178 1136 206 1149 213 C1174 208 1200 187 1215 170 C1212 158 1197 127 1175 91 C1153 55 1124 13 1099 -20 C1062 -12 1014 27 964 81 C914 135 861 204 815 273 C769 341 729 409 706 461 C614 438 505 431 388 431 L288 431 L288 108 C327 103 363 97 387 92 C391 84 393 66 393 49 C393 32 390 15 383 7 C382 6 378 5 371 4 C356 3 333 1 308 1 C295 0 284 0 273 0 L187 0 Z M288 1209 L288 540 L406 540 C567 540 699 560 791 612 C883 664 935 747 935 874 C935 1009 885 1093 798 1143 C710 1193 585 1209 434 1209 L288 1209 Z "/>
<glyph glyph-name="S" unicode="S" horiz-adv-x="954" d="M126 38 C126 67 128 123 132 173 C133 198 135 220 136 240 C137 260 138 272 139 276 C162 287 200 289 223 285 C225 281 227 273 230 261 C234 236 240 202 245 163 C248 144 250 125 252 108 C297 97 343 92 388 92 C471 92 553 112 615 153 C677 194 718 255 718 339 C718 419 681 474 625 518 C569 561 494 593 419 629 C344 664 269 703 213 759 C157 815 120 888 120 995 C120 1114 170 1200 246 1256 C322 1312 425 1338 530 1338 C602 1338 672 1327 739 1304 C739 1275 737 1220 734 1170 C732 1145 730 1122 729 1102 C728 1082 727 1070 726 1066 C703 1055 665 1053 642 1057 C638 1065 633 1089 629 1119 C624 1149 618 1185 614 1220 C583 1224 552 1226 523 1226 C439 1226 365 1207 313 1170 C260 1133 229 1078 229 1006 C229 926 267 871 324 827 C380 783 456 750 532 714 C607 678 683 640 740 585 C796 529 834 458 834 357 C834 246 789 153 710 86 C630 19 516 -20 377 -20 C277 -20 205 -1 126 38 L126 38 Z "/>
<glyph glyph-name="T" unicode="T" horiz-adv-x="1030" d="M60 1318 L970 1318 L970 1267 C970 1236 967 1182 964 1133 C963 1108 961 1086 960 1067 C959 1048 958 1036 957 1032 C934 1021 896 1019 873 1023 C871 1027 869 1035 866 1048 C861 1073 855 1109 850 1149 C847 1168 845 1187 843 1205 L575 1205 L575 108 C614 103 650 97 674 92 C678 84 680 66 680 49 C680 32 677 15 670 7 C669 6 665 5 658 4 C643 3 620 1 595 1 C582 0 571 0 560 0 L474 0 C451 0 426 1 404 2 C393 3 383 3 376 4 C361 5 360 9 357 25 C355 32 354 40 354 49 C354 66 356 84 360 92 C384 97 421 103 460 108 L460 1205 L187 1205 C183 1169 178 1128 172 1093 C169 1076 166 1061 164 1048 C161 1035 159 1027 157 1023 C134 1019 96 1021 73 1032 C72 1036 71 1048 70 1068 C67 1108 64 1161 62 1211 C61 1236 60 1255 60 1270 L60 1318 Z "/>
<glyph glyph-name="U" unicode="U" horiz-adv-x="1278" d="M1011 1318 L1097 1318 C1118 1318 1146 1317 1168 1316 C1179 1315 1188 1315 1195 1314 C1210 1312 1211 1309 1215 1294 C1216 1286 1217 1278 1217 1269 C1217 1252 1215 1234 1211 1226 C1187 1221 1150 1214 1111 1209 L1111 490 C1111 345 1087 240 1047 165 C1006 89 948 43 878 16 C808 -12 727 -20 640 -20 C509 -20 392 -1 306 72 C220 145 167 273 167 490 L167 1209 C128 1214 91 1221 67 1226 C63 1234 61 1252 61 1269 C61 1286 64 1303 71 1311 C72 1312 76 1313 83 1314 C98 1316 121 1317 146 1318 L181 1318 L267 1318 C288 1318 316 1317 338 1316 C349 1315 358 1315 365 1314 C380 1312 381 1309 385 1294 C386 1286 387 1278 387 1269 C387 1252 385 1234 381 1226 C357 1221 320 1214 281 1209 L281 507 C281 379 302 289 337 228 C372 167 420 131 473 112 C526 93 584 89 640 89 C695 89 754 93 807 112 C859 131 908 167 942 228 C976 289 997 379 997 507 L997 1209 C958 1214 921 1221 897 1226 C893 1234 891 1252 891 1269 C891 1286 894 1303 901 1311 C902 1312 906 1313 913 1314 C928 1316 951 1317 976 1318 L1011 1318 Z "/>
<glyph glyph-name="V" unicode="V" horiz-adv-x="1235" d="M151 1318 L237 1318 C258 1318 286 1317 308 1316 C319 1315 328 1315 335 1314 C350 1312 351 1309 355 1294 C356 1286 357 1278 357 1269 C357 1252 355 1234 351 1226 C328 1221 298 1215 263 1211 L618 182 L972 1211 C955 1214 938 1216 923 1219 C908 1221 895 1223 884 1226 C880 1234 878 1252 878 1269 C878 1286 881 1303 888 1311 C889 1312 893 1313 900 1314 C915 1316 938 1317 963 1318 L998 1318 L1084 1318 C1105 1318 1133 1317 1155 1316 C1166 1315 1175 1315 1182 1314 C1197 1312 1198 1309 1202 1294 C1203 1286 1204 1278 1204 1269 C1204 1252 1202 1234 1198 1226 C1173 1219 1136 1214 1097 1209 L681 0 L555 0 L140 1209 C100 1214 62 1219 37 1226 C33 1234 31 1252 31 1269 C31 1286 34 1303 41 1311 C42 1312 46 1313 53 1314 C68 1316 91 1317 116 1318 L151 1318 Z "/>
<glyph glyph-name="W" unicode="W" horiz-adv-x="1841" d="M151 1318 L237 1318 C258 1318 286 1317 308 1316 C319 1315 328 1315 335 1314 C350 1312 351 1309 355 1294 C356 1286 357 1278 357 1269 C357 1252 355 1234 351 1226 C328 1221 294 1215 258 1210 L543 215 L859 1318 L983 1318 L1298 215 L1583 1210 C1547 1215 1513 1221 1490 1226 C1486 1234 1484 1252 1484 1269 C1484 1286 1487 1303 1494 1311 C1495 1312 1499 1313 1506 1314 C1521 1316 1544 1317 1569 1318 L1604 1318 L1690 1318 C1711 1318 1739 1317 1761 1316 C1772 1315 1781 1315 1788 1314 C1803 1312 1804 1309 1808 1294 C1809 1286 1810 1278 1810 1269 C1810 1252 1808 1234 1804 1226 C1780 1221 1743 1215 1706 1210 L1360 0 L1237 0 L921 1101 L605 0 L482 0 L135 1210 C96 1215 61 1221 37 1226 C33 1234 31 1252 31 1269 C31 1286 34 1303 41 1311 C42 1312 46 1313 53 1314 C68 1316 91 1317 116 1318 L151 1318 Z "/>
<glyph glyph-name="X" unicode="X" horiz-adv-x="1242" d="M202 1318 L288 1318 C309 1318 337 1317 359 1316 C370 1315 379 1315 386 1314 C401 1312 402 1309 406 1294 C407 1286 408 1278 408 1269 C408 1252 406 1234 402 1226 C389 1223 372 1220 353 1217 L625 799 L896 1215 L839 1226 C835 1234 833 1252 833 1269 C833 1286 836 1303 843 1311 C844 1312 848 1313 855 1314 C870 1316 893 1317 918 1318 L953 1318 L1039 1318 C1060 1318 1088 1317 1110 1316 C1121 1315 1130 1315 1137 1314 C1152 1312 1153 1309 1157 1294 C1158 1286 1159 1278 1159 1269 C1159 1252 1157 1234 1153 1226 C1122 1219 1069 1212 1020 1205 L691 699 L1072 112 C1121 107 1174 99 1205 92 C1209 84 1211 66 1211 49 C1211 32 1208 15 1201 7 C1200 6 1196 5 1189 4 C1174 3 1151 1 1126 1 C1113 0 1102 0 1091 0 L1005 0 C982 0 957 1 935 2 C924 3 914 3 907 4 C892 5 891 9 888 25 C886 32 885 40 885 49 C885 66 887 84 891 92 C898 93 907 95 917 97 C926 99 937 101 948 102 L625 599 L302 101 C321 98 338 95 351 92 C355 84 357 66 357 49 C357 32 354 15 347 7 C346 6 342 5 335 4 C320 3 297 1 272 1 C259 0 248 0 237 0 L151 0 C128 0 103 1 81 2 C70 3 60 3 53 4 C38 5 37 9 34 25 C32 32 31 40 31 49 C31 66 33 84 37 92 C70 99 128 108 180 113 L560 699 L231 1204 C180 1211 121 1219 88 1226 C84 1234 82 1252 82 1269 C82 1286 85 1303 92 1311 C93 1312 97 1313 104 1314 C119 1316 142 1317 167 1318 L202 1318 Z "/>
<glyph glyph-name="Y" unicode="Y" horiz-adv-x="1106" d="M553 650 L827 1213 C799 1217 774 1222 755 1226 C751 1234 749 1252 749 1269 C749 1286 752 1303 759 1311 C760 1312 764 1313 771 1314 C786 1316 809 1317 834 1318 L869 1318 L955 1318 C976 1318 1004 1317 1026 1316 C1037 1315 1046 1315 1053 1314 C1068 1312 1069 1309 1073 1294 C1074 1286 1075 1278 1075 1269 C1075 1252 1073 1234 1069 1226 C1042 1219 1002 1213 959 1208 L610 492 L610 108 C649 103 686 97 710 92 C714 84 716 66 716 49 C716 32 713 15 706 7 C705 6 702 5 696 4 C683 3 665 1 643 1 C632 0 621 0 610 0 L496 0 C475 0 451 1 433 2 C424 3 416 3 410 4 C404 5 401 6 400 7 C393 15 390 32 390 49 C390 66 392 84 396 92 C420 97 457 103 496 108 L496 492 L146 1208 C105 1213 64 1219 37 1226 C33 1234 31 1252 31 1269 C31 1286 34 1303 41 1311 C42 1312 46 1313 53 1314 C68 1316 91 1317 116 1318 L151 1318 L237 1318 C258 1318 286 1317 308 1316 C319 1315 328 1315 335 1314 C350 1312 351 1309 355 1294 C356 1286 357 1278 357 1269 C357 1252 355 1234 351 1226 C332 1222 306 1217 278 1213 L553 650 Z "/>
<glyph glyph-name="Z" unicode="Z" horiz-adv-x="1033" d="M948 0 L90 0 L85 5 L694 1205 L235 1205 C231 1169 226 1128 220 1093 C217 1076 214 1061 212 1048 C209 1035 207 1027 205 1023 C182 1019 144 1021 121 1032 C120 1036 119 1047 118 1066 C115 1102 113 1153 110 1202 C109 1226 108 1246 108 1262 L108 1318 L871 1318 L876 1313 L264 113 L821 113 C825 149 831 189 836 224 C839 241 841 257 844 270 C847 283 849 291 851 295 C874 299 912 297 935 286 C936 282 937 270 938 250 C941 210 945 158 947 108 C948 83 948 63 948 48 L948 0 Z "/>
<glyph glyph-name="bracketleft" unicode="[" horiz-adv-x="580" d="M460 0 L120 0 L120 1448 L460 1448 L460 1336 L234 1336 L234 112 L460 112 L460 0 Z "/>
<glyph glyph-name="backslash" unicode="\" horiz-adv-x="933" d="M813 -168 L708 -207 L120 1409 L225 1448 L813 -168 Z "/>
<glyph glyph-name="bracketright" unicode="]" horiz-adv-x="580" d="M120 1448 L460 1448 L460 0 L120 0 L120 112 L346 112 L346 1336 L120 1336 L120 1448 Z "/>
<glyph glyph-name="underscore" unicode="_" horiz-adv-x="800" d="M0 112 L800 112 L800 0 L0 0 L0 112 Z "/>
<glyph glyph-name="grave" unicode="`" horiz-adv-x="670" d="M178 1548 C206 1524 256 1483 322 1437 C388 1391 471 1339 570 1295 C565 1255 553 1221 537 1206 C449 1223 351 1268 269 1317 C187 1365 121 1417 100 1449 C108 1504 137 1525 178 1548 L178 1548 Z "/>
<glyph glyph-name="a" unicode="a" horiz-adv-x="1039" d="M172 984 C269 1029 384 1058 488 1058 C577 1058 660 1037 721 984 C781 931 819 845 819 716 L819 348 C819 287 831 229 857 183 C883 137 923 101 979 88 L914 -20 C838 5 780 66 748 142 C721 95 680 55 627 26 C574 -3 509 -20 436 -20 C391 -20 337 -13 288 6 C239 25 192 55 157 103 C122 150 100 213 100 300 C100 397 128 472 192 523 C256 574 356 600 497 600 C550 600 613 596 705 588 L705 732 C705 812 677 867 636 901 C595 935 538 948 481 948 C429 948 365 937 298 917 C294 881 288 841 283 807 C280 790 278 775 276 762 C273 749 271 741 269 737 C246 733 208 735 185 746 C184 750 183 762 182 782 C179 822 176 875 174 925 C173 950 172 969 172 984 L172 984 Z M705 483 C668 487 638 490 613 491 C600 491 589 491 578 492 L545 492 C505 492 455 492 407 485 C359 477 311 463 276 435 C241 407 218 366 218 305 C218 246 238 193 278 154 C317 114 373 89 445 89 C556 89 644 144 705 261 L705 483 Z "/>
<glyph glyph-name="b" unicode="b" horiz-adv-x="1103" d="M305 1448 L305 967 C378 1023 464 1058 571 1058 C707 1058 816 1000 890 905 C964 809 1003 677 1003 526 C1003 354 951 217 867 124 C782 31 666 -20 538 -20 C438 -20 322 11 191 74 L191 1330 C171 1330 148 1331 129 1332 C110 1333 95 1335 90 1336 C87 1340 84 1356 84 1373 C83 1390 83 1410 87 1421 C123 1433 170 1440 210 1444 L260 1447 C274 1448 283 1448 286 1448 L305 1448 Z M556 949 C448 949 368 907 305 839 L305 151 C384 112 464 91 541 91 C636 91 722 130 785 205 C848 280 887 390 887 533 C887 648 862 751 808 827 C754 902 671 949 556 949 L556 949 Z "/>
<glyph glyph-name="c" unicode="c" horiz-adv-x="919" d="M859 29 C767 -3 673 -20 584 -20 C452 -20 331 19 243 108 C155 196 100 334 100 531 C100 722 155 853 243 937 C330 1021 449 1058 580 1058 C671 1058 764 1042 859 1009 C859 980 857 925 854 875 C852 850 850 827 849 807 C848 787 847 775 846 771 C823 760 785 758 762 762 C760 766 758 774 755 786 C752 798 750 812 748 829 C745 846 743 864 740 883 C737 902 735 920 733 937 C682 944 634 948 595 948 C491 948 397 920 329 854 C261 788 219 684 219 532 C219 380 261 269 329 197 C397 125 491 90 595 90 C631 90 680 93 729 101 C733 137 740 183 746 223 C749 243 752 261 755 276 C758 291 760 301 762 306 C785 310 823 308 846 297 C847 294 847 287 848 276 L851 233 C853 200 855 159 856 121 C857 102 857 84 858 68 C859 51 859 38 859 29 L859 29 Z "/>
<glyph glyph-name="d" unicode="d" horiz-adv-x="1141" d="M863 -20 L831 90 C751 22 659 -20 539 -20 C403 -20 293 43 218 144 C142 245 100 384 100 535 C100 682 139 813 223 907 C307 1001 435 1058 615 1058 C690 1058 763 1042 831 1025 L831 1330 C811 1330 788 1331 769 1332 C750 1333 735 1335 730 1336 C727 1340 724 1356 724 1373 C723 1390 723 1410 727 1421 C763 1433 810 1440 850 1444 L900 1447 C914 1448 923 1448 926 1448 L945 1448 L945 108 C968 108 1000 107 1028 106 C1042 105 1054 105 1064 104 C1084 103 1084 106 1088 83 C1090 71 1091 59 1091 47 C1091 30 1089 17 1084 9 C1044 -3 995 -11 953 -15 C932 -17 913 -18 898 -19 C882 -20 872 -20 869 -20 L863 -20 Z M560 89 C675 89 771 132 831 216 L831 895 C754 927 680 949 608 949 C496 949 398 913 329 841 C260 769 218 662 218 521 C218 410 244 302 300 222 C355 142 440 89 560 89 L560 89 Z "/>
<glyph glyph-name="e" unicode="e" horiz-adv-x="960" d="M870 495 L217 495 C222 358 265 257 332 190 C399 122 488 89 588 89 C639 89 682 95 726 108 C770 120 813 139 864 164 L868 161 L868 54 C761 1 667 -20 571 -20 C442 -20 324 23 239 113 C154 203 100 340 100 532 C100 680 129 813 197 907 C265 1001 372 1058 528 1058 C632 1058 703 1030 754 986 C805 941 833 881 849 814 C865 747 869 675 870 608 L870 495 Z M526 948 C430 948 359 912 309 852 C259 791 230 705 221 608 L751 608 C751 697 742 782 710 845 C677 908 621 948 526 948 L526 948 Z "/>
<glyph glyph-name="f" unicode="f" horiz-adv-x="682" d="M782 1406 C782 1377 780 1322 777 1272 C775 1247 773 1224 772 1204 C771 1184 770 1172 769 1168 C746 1157 708 1155 685 1159 C681 1167 676 1191 671 1223 C666 1254 660 1292 656 1327 C624 1335 594 1339 565 1339 C493 1339 441 1320 406 1274 C370 1228 353 1155 353 1051 L353 1038 L608 1038 L608 925 L353 925 L353 108 C392 103 429 97 453 92 C457 84 459 66 459 49 C459 32 456 15 449 7 C448 6 444 5 437 4 C422 3 399 1 374 1 C361 0 350 0 339 0 L253 0 C230 0 205 1 183 2 C172 3 162 3 155 4 C140 5 139 9 136 25 C134 32 133 40 133 49 C133 66 135 84 139 92 C163 97 200 103 239 108 L239 925 L50 925 L50 1038 L239 1038 L239 1051 C239 1204 272 1304 326 1365 C380 1426 455 1448 543 1448 C618 1448 698 1433 782 1406 L782 1406 Z "/>
<glyph glyph-name="g" unicode="g" horiz-adv-x="1047" d="M116 702 C116 799 155 889 223 954 C291 1018 387 1058 500 1058 C587 1058 663 1036 723 997 C762 1032 807 1059 851 1078 C894 1097 936 1107 968 1107 L1005 1003 C949 996 877 968 809 917 C852 861 877 782 877 705 C877 606 838 518 770 454 C702 390 606 350 493 350 C412 350 341 369 284 402 C253 366 240 331 240 307 C240 287 251 264 272 247 C292 230 324 217 365 217 L600 217 C741 217 844 181 910 126 C976 70 1007 -5 1007 -81 C1007 -190 938 -290 837 -362 C736 -434 602 -478 473 -478 C354 -478 260 -440 193 -380 C126 -321 90 -240 90 -155 C90 -55 139 43 215 123 C158 156 130 215 130 274 C130 330 156 402 205 463 C148 523 116 613 116 702 L116 702 Z M497 948 C409 948 342 916 298 869 C253 822 230 762 230 703 C230 644 253 583 298 537 C343 491 411 459 500 459 C588 459 654 491 698 537 C742 583 763 642 763 701 C763 760 741 821 697 869 C652 916 585 948 497 948 L497 948 Z M314 105 C245 28 204 -54 204 -139 C204 -200 226 -258 272 -299 C318 -340 388 -366 487 -366 C603 -366 705 -332 777 -281 C849 -230 892 -161 892 -93 C892 -8 845 42 768 70 C691 98 583 105 462 105 L314 105 Z "/>
<glyph glyph-name="h" unicode="h" horiz-adv-x="1137" d="M302 1448 L302 944 C350 976 403 1004 457 1025 C511 1045 567 1058 626 1058 C706 1058 789 1034 853 980 C917 926 960 842 960 725 L960 108 C999 103 1036 97 1060 92 C1064 84 1066 66 1066 49 C1066 32 1063 15 1056 7 C1055 6 1051 5 1044 4 C1029 3 1006 1 981 1 C968 0 957 0 946 0 L860 0 C837 0 812 1 790 2 C779 3 769 3 762 4 C747 5 746 9 743 25 C741 32 740 40 740 49 C740 66 742 84 746 92 C770 97 807 103 846 108 L846 683 C846 775 817 842 773 886 C729 929 669 949 606 949 C553 949 497 935 445 913 C393 891 343 861 302 829 L302 108 C341 103 378 97 402 92 C406 84 408 66 408 49 C408 32 405 15 398 7 C397 6 393 5 386 4 C371 3 348 1 323 1 C310 0 299 0 288 0 L202 0 C179 0 154 1 132 2 C121 3 111 3 104 4 C89 5 88 9 85 25 C83 32 82 40 82 49 C82 66 84 84 88 92 C112 97 149 103 188 108 L188 1330 C168 1330 145 1331 126 1332 C107 1333 92 1335 87 1336 C84 1340 81 1356 81 1373 C80 1390 80 1410 84 1421 C120 1433 167 1440 207 1444 L257 1447 C271 1448 280 1448 283 1448 L302 1448 Z "/>
<glyph glyph-name="i" unicode="i" horiz-adv-x="488" d="M160 1295 C160 1318 170 1338 186 1354 C202 1369 223 1379 246 1379 C269 1379 290 1369 306 1354 C322 1338 332 1318 332 1295 C332 1272 322 1252 306 1237 C290 1221 269 1211 246 1211 C223 1211 202 1221 186 1237 C170 1252 160 1272 160 1295 L160 1295 Z M303 1058 L303 108 C342 103 379 97 403 92 C407 84 409 66 409 49 C409 32 406 15 399 7 C398 6 394 5 387 4 C372 3 349 1 324 1 C311 0 300 0 289 0 L203 0 C180 0 155 1 133 2 C122 3 112 3 105 4 C90 5 89 9 86 25 C84 32 83 40 83 49 C83 66 85 84 89 92 C113 97 150 103 189 108 L189 940 C169 940 146 941 127 942 C108 943 93 945 88 946 C85 950 82 966 82 983 C81 1000 81 1020 85 1031 C121 1043 168 1050 208 1054 L258 1057 C272 1058 281 1058 284 1058 L303 1058 Z "/>
<glyph glyph-name="j" unicode="j" horiz-adv-x="599" d="M238 1295 C238 1318 248 1338 264 1354 C279 1369 300 1379 323 1379 C346 1379 367 1369 383 1354 C399 1338 409 1318 409 1295 C409 1272 399 1252 383 1237 C367 1221 346 1211 323 1211 C300 1211 279 1221 264 1237 C248 1252 238 1272 238 1295 L238 1295 Z M380 1058 L380 -74 C380 -229 350 -329 296 -391 C242 -453 165 -478 72 -478 C15 -478 -68 -461 -140 -432 C-140 -423 -140 -410 -139 -393 C-138 -377 -138 -359 -137 -340 C-136 -302 -133 -261 -131 -228 C-130 -211 -130 -197 -129 -185 C-128 -174 -128 -167 -127 -164 C-104 -153 -66 -151 -43 -155 C-41 -160 -38 -170 -35 -185 C-29 -216 -23 -257 -17 -301 C-14 -323 -12 -343 -10 -361 C15 -366 38 -369 59 -369 C124 -369 177 -351 212 -305 C247 -259 266 -186 266 -74 L266 940 C246 940 223 941 204 942 C185 943 170 945 165 946 C162 950 159 966 159 983 C158 1000 158 1020 162 1031 C198 1043 245 1050 285 1054 L335 1057 C349 1058 358 1058 361 1058 L380 1058 Z "/>
<glyph glyph-name="k" unicode="k" horiz-adv-x="946" d="M305 1448 L305 546 L628 932 C597 936 567 941 547 946 C543 954 541 972 541 989 C541 1006 544 1023 551 1031 C552 1032 556 1033 563 1034 C578 1036 601 1037 626 1038 L661 1038 L747 1038 C768 1038 796 1037 818 1036 C829 1035 838 1035 845 1034 C860 1032 861 1029 865 1014 C866 1006 867 998 867 989 C867 972 865 954 861 946 C837 941 800 935 763 930 L434 531 C444 520 458 499 477 469 C514 409 577 329 667 242 C712 199 765 158 828 121 C864 165 906 205 922 213 C947 208 973 187 988 170 C985 158 970 127 948 91 C926 55 897 13 872 -20 C820 -17 760 15 698 63 C636 111 572 174 515 239 C458 303 408 369 370 422 C351 449 335 471 324 490 C313 509 306 521 305 527 L305 108 C344 103 381 97 405 92 C409 84 411 66 411 49 C411 32 408 15 401 7 C400 6 396 5 389 4 C374 3 351 1 326 1 C313 0 302 0 291 0 L205 0 C182 0 157 1 135 2 C124 3 114 3 107 4 C92 5 91 9 88 25 C86 32 85 40 85 49 C85 66 87 84 91 92 C115 97 152 103 191 108 L191 1330 C171 1330 148 1331 129 1332 C110 1333 95 1335 90 1336 C87 1340 84 1356 84 1373 C83 1390 83 1410 87 1421 C123 1433 170 1440 210 1444 L260 1447 C274 1448 283 1448 286 1448 L305 1448 Z "/>
<glyph glyph-name="l" unicode="l" horiz-adv-x="489" d="M302 1448 L302 108 C341 103 378 97 402 92 C406 84 408 66 408 49 C408 32 405 15 398 7 C397 6 393 5 386 4 C371 3 348 1 323 1 C310 0 299 0 288 0 L202 0 C179 0 154 1 132 2 C121 3 111 3 104 4 C89 5 88 9 85 25 C83 32 82 40 82 49 C82 66 84 84 88 92 C112 97 149 103 188 108 L188 1330 C168 1330 145 1331 126 1332 C107 1333 92 1335 87 1336 C84 1340 81 1356 81 1373 C80 1390 80 1410 84 1421 C120 1433 167 1440 207 1444 L257 1447 C271 1448 280 1448 283 1448 L302 1448 Z "/>
<glyph glyph-name="m" unicode="m" horiz-adv-x="1665" d="M299 942 C351 975 400 1005 448 1026 C496 1046 543 1058 594 1058 C682 1058 771 1023 831 943 C879 974 930 1003 985 1024 C1040 1044 1096 1058 1155 1058 C1234 1058 1317 1034 1381 980 C1444 926 1488 842 1488 725 L1488 108 C1527 103 1564 97 1588 92 C1592 84 1594 66 1594 49 C1594 32 1591 15 1584 7 C1583 6 1579 5 1572 4 C1557 3 1534 1 1509 1 C1496 0 1485 0 1474 0 L1388 0 C1365 0 1340 1 1318 2 C1307 3 1297 3 1290 4 C1275 5 1274 9 1271 25 C1269 32 1268 40 1268 49 C1268 66 1270 84 1274 92 C1298 97 1335 103 1374 108 L1374 683 C1374 775 1345 842 1301 885 C1256 928 1196 948 1133 948 C1045 948 951 909 874 858 C888 820 895 776 895 725 L895 108 C934 103 971 97 995 92 C999 84 1001 66 1001 49 C1001 32 998 15 991 7 C990 6 986 5 979 4 C964 3 941 1 916 1 C903 0 892 0 881 0 L795 0 C772 0 747 1 725 2 C714 3 704 3 697 4 C682 5 681 9 678 25 C676 32 675 40 675 49 C675 66 677 84 681 92 C705 97 742 103 781 108 L781 683 C781 775 757 842 719 885 C681 928 629 948 573 948 C526 948 480 934 434 912 C388 890 343 859 302 828 L302 108 C341 103 378 97 402 92 C406 84 408 66 408 49 C408 32 405 15 398 7 C397 6 393 5 386 4 C371 3 348 1 323 1 C310 0 299 0 288 0 L202 0 C179 0 154 1 132 2 C121 3 111 3 104 4 C89 5 88 9 85 25 C83 32 82 40 82 49 C82 66 84 84 88 92 C112 97 149 103 188 108 L188 940 C168 940 146 941 127 942 C108 943 93 945 88 946 C85 950 82 966 82 983 C81 1000 81 1020 85 1031 C114 1040 150 1047 183 1051 C200 1053 215 1055 230 1056 C244 1057 256 1057 265 1058 L299 942 Z "/>
<glyph glyph-name="n" unicode="n" horiz-adv-x="1133" d="M856 0 C833 0 808 1 786 2 C775 3 765 3 758 4 C743 5 742 9 739 25 C737 32 736 40 736 49 C736 66 738 84 742 92 C766 97 803 103 842 108 L842 683 C842 775 813 842 769 885 C725 928 665 948 602 948 C549 948 494 934 443 912 C391 890 342 860 301 828 L301 108 C340 103 377 97 401 92 C405 84 407 66 407 49 C407 32 404 15 397 7 C396 6 392 5 385 4 C370 3 347 1 322 1 C309 0 298 0 287 0 L201 0 C178 0 153 1 131 2 C120 3 110 3 103 4 C88 5 87 9 84 25 C82 32 81 40 81 49 C81 66 83 84 87 92 C111 97 148 103 187 108 L187 940 C167 940 145 941 126 942 C107 943 92 945 87 946 C84 950 81 966 81 983 C80 1000 80 1020 84 1031 C113 1040 149 1047 182 1051 C199 1053 214 1055 229 1056 C243 1057 255 1057 264 1058 L298 942 C397 1006 504 1058 621 1058 C701 1058 785 1034 849 980 C912 926 956 842 956 725 L956 108 C995 103 1032 97 1056 92 C1060 84 1062 66 1062 49 C1062 32 1059 15 1052 7 C1051 6 1047 5 1040 4 C1025 3 1002 1 977 1 C964 0 953 0 942 0 L856 0 Z "/>
<glyph glyph-name="o" unicode="o" horiz-adv-x="1134" d="M100 516 C100 668 147 803 230 901 C313 999 430 1058 571 1058 C712 1058 829 997 909 901 C989 804 1034 670 1034 522 C1034 371 988 237 905 139 C822 41 704 -20 563 -20 C420 -20 305 41 225 138 C145 235 100 369 100 516 L100 516 Z M214 526 C214 407 245 299 306 219 C366 139 456 89 572 89 C684 89 771 136 831 212 C890 288 920 394 920 514 C920 633 890 741 831 821 C771 900 683 949 567 949 C454 949 366 902 306 826 C246 750 214 645 214 526 L214 526 Z "/>
<glyph glyph-name="p" unicode="p" horiz-adv-x="1134" d="M272 1058 L305 948 C385 1016 476 1058 592 1058 C729 1058 840 996 916 898 C992 800 1034 665 1034 521 C1034 361 982 225 893 130 C804 35 676 -20 524 -20 C459 -20 383 -10 303 15 L303 -349 C342 -354 379 -361 403 -366 C407 -374 409 -392 409 -409 C409 -426 406 -443 399 -451 C398 -452 394 -453 387 -454 C372 -455 349 -457 324 -457 C311 -458 300 -458 289 -458 L203 -458 C180 -458 155 -457 133 -456 C122 -455 112 -455 105 -454 C90 -453 89 -449 86 -433 C84 -426 83 -418 83 -409 C83 -392 85 -374 89 -366 C113 -361 150 -354 189 -349 L189 940 C169 940 140 941 113 942 C86 942 64 943 57 946 C54 950 51 966 51 983 C50 1000 50 1020 54 1031 C90 1043 137 1050 177 1054 L227 1057 C241 1058 250 1058 253 1058 L272 1058 Z M573 949 C460 949 363 906 303 822 L303 132 C376 101 451 88 519 88 C628 88 728 125 800 198 C872 271 916 382 916 527 C916 638 891 743 835 821 C779 899 693 949 573 949 L573 949 Z "/>
<glyph glyph-name="q" unicode="q" horiz-adv-x="1069" d="M812 -458 C789 -458 764 -457 742 -456 C731 -455 721 -455 714 -454 C699 -453 698 -449 695 -433 C693 -426 692 -418 692 -409 C692 -392 694 -374 698 -366 C722 -361 759 -354 798 -349 L798 88 C761 60 721 33 674 13 C627 -7 575 -20 512 -20 C380 -20 278 44 208 144 C138 243 100 378 100 522 C100 683 147 817 227 911 C307 1005 420 1058 553 1058 C621 1058 689 1045 751 1027 C813 1009 868 985 912 968 L912 -349 C951 -354 988 -361 1012 -366 C1016 -374 1018 -392 1018 -409 C1018 -426 1015 -443 1008 -451 C1007 -452 1003 -453 996 -454 C981 -455 958 -457 933 -457 C920 -458 909 -458 898 -458 L812 -458 Z M798 887 C719 926 639 947 562 947 C467 947 381 915 318 845 C255 775 216 668 216 523 C216 410 240 301 290 221 C340 141 416 89 523 89 C586 89 639 105 684 130 C729 154 766 187 798 220 L798 887 Z "/>
<glyph glyph-name="r" unicode="r" horiz-adv-x="773" d="M302 931 C379 1015 469 1058 561 1058 C612 1058 656 1047 703 1027 C703 998 701 943 698 893 C696 868 694 845 693 825 C692 805 691 793 690 789 C667 778 629 776 606 780 C602 788 597 812 593 844 C588 875 582 912 578 947 C569 948 560 949 551 949 C450 949 373 899 301 804 L301 108 C340 103 377 97 401 92 C405 84 407 66 407 49 C407 32 404 15 397 7 C396 6 392 5 385 4 C370 3 347 1 322 1 C309 0 298 0 287 0 L201 0 C178 0 153 1 131 2 C120 3 110 3 103 4 C88 5 87 9 84 25 C82 32 81 40 81 49 C81 66 83 84 87 92 C111 97 148 103 187 108 L187 940 C167 940 145 941 126 942 C107 943 93 945 88 946 C85 950 82 966 82 983 C81 1000 81 1020 85 1031 C114 1040 150 1047 183 1051 C200 1053 215 1055 230 1056 C244 1057 256 1057 265 1058 L302 931 Z "/>
<glyph glyph-name="s" unicode="s" horiz-adv-x="770" d="M642 1029 C642 1000 640 945 637 895 C635 870 633 847 632 827 C631 807 630 795 629 791 C606 780 568 778 545 782 C543 785 541 792 539 803 C535 824 529 854 525 889 C522 906 520 923 518 940 C479 945 439 948 406 948 C349 948 296 938 257 915 C217 891 193 854 193 799 C193 736 225 695 273 663 C320 630 383 606 447 580 C510 554 573 525 621 482 C668 438 700 381 700 297 C700 193 651 114 575 61 C498 8 393 -20 284 -20 C217 -20 138 -11 70 20 C70 29 70 42 71 59 C72 75 72 93 73 112 C74 150 77 191 79 224 C80 241 80 255 81 267 C82 278 82 285 83 288 C106 299 144 301 167 297 C169 292 171 283 174 268 C179 239 186 199 192 156 C195 135 197 115 199 97 C230 92 261 90 288 90 C352 90 426 105 483 137 C540 168 581 215 581 282 C581 339 550 379 502 412 C478 428 451 443 421 456 C360 483 296 510 236 543 C175 575 125 619 97 680 C82 710 75 746 75 787 C75 891 119 959 185 1001 C251 1043 339 1058 428 1058 C504 1058 578 1045 642 1029 L642 1029 Z "/>
<glyph glyph-name="t" unicode="t" horiz-adv-x="741" d="M691 29 C622 2 557 -20 477 -20 C402 -20 326 0 269 53 C212 106 173 193 173 329 L173 925 L60 925 L60 1038 L173 1038 L173 1226 L276 1245 L288 1245 L288 1038 L543 1038 L543 925 L288 925 L288 391 C288 282 307 207 342 160 C377 112 426 92 486 92 C511 92 536 95 561 102 C565 138 572 184 578 224 C581 244 584 262 587 277 C590 292 592 301 594 306 C617 310 655 308 678 297 C679 294 679 287 680 276 L683 233 C685 200 687 159 688 121 C689 102 689 84 690 68 C691 51 691 38 691 29 L691 29 Z "/>
<glyph glyph-name="u" unicode="u" horiz-adv-x="1149" d="M941 1058 L941 108 L981 108 C1013 108 1045 106 1069 105 C1093 104 1092 106 1096 83 C1098 71 1099 59 1099 47 C1099 30 1097 17 1092 9 C1052 -3 1003 -11 961 -15 C940 -17 921 -18 906 -19 C890 -20 880 -20 877 -20 L871 -20 L835 98 C786 66 733 36 677 15 C621 -6 562 -20 505 -20 C425 -20 341 5 278 59 C214 113 170 196 170 313 L170 940 C150 940 128 941 109 942 C90 943 75 945 70 946 C67 950 64 966 64 983 C63 1000 63 1020 67 1031 C103 1043 150 1050 190 1054 L240 1057 C254 1058 263 1058 266 1058 L285 1058 L285 355 C285 263 314 196 358 153 C402 109 462 89 525 89 C578 89 633 103 685 126 C736 149 785 178 826 210 L826 940 C806 940 784 941 765 942 C746 943 731 945 726 946 C723 950 720 966 720 983 C719 1000 719 1020 723 1031 C759 1043 806 1050 846 1054 L896 1057 C910 1058 919 1058 922 1058 L941 1058 Z "/>
<glyph glyph-name="v" unicode="v" horiz-adv-x="1092" d="M288 932 L546 182 L803 932 C772 937 745 942 726 946 C722 954 720 972 720 989 C720 1006 723 1023 730 1031 C731 1032 735 1033 742 1034 C757 1036 780 1037 805 1038 L840 1038 L926 1038 C947 1038 975 1037 997 1036 C1008 1035 1017 1035 1024 1034 C1039 1032 1040 1029 1044 1014 C1045 1006 1046 998 1046 989 C1046 972 1044 954 1040 946 C1013 939 971 933 928 928 L609 0 L483 0 L166 928 C123 933 79 939 52 946 C48 954 46 972 46 989 C46 1006 49 1023 56 1031 C57 1032 61 1033 68 1034 C83 1036 106 1037 131 1038 L166 1038 L252 1038 C273 1038 301 1037 323 1036 C334 1035 343 1035 350 1034 C365 1032 366 1029 370 1014 C371 1006 372 998 372 989 C372 972 370 954 366 946 L288 932 Z "/>
<glyph glyph-name="w" unicode="w" horiz-adv-x="1645" d="M166 1038 L252 1038 C273 1038 301 1037 323 1036 C334 1035 343 1035 350 1034 C365 1032 366 1029 370 1014 C371 1006 372 998 372 989 C372 972 370 954 366 946 C346 941 316 936 285 932 L515 202 L764 1038 L880 1038 L1130 203 L1359 932 C1328 936 1299 941 1279 946 C1275 954 1273 972 1273 989 C1273 1006 1276 1023 1283 1031 C1284 1032 1288 1033 1295 1034 C1310 1036 1333 1037 1358 1038 L1393 1038 L1479 1038 C1500 1038 1528 1037 1550 1036 C1561 1035 1570 1035 1577 1034 C1592 1032 1593 1029 1597 1014 C1598 1006 1599 998 1599 989 C1599 972 1597 954 1593 946 C1566 939 1525 933 1484 928 L1191 0 L1065 0 L822 828 L579 0 L454 0 L161 928 C118 933 79 939 52 946 C48 954 46 972 46 989 C46 1006 49 1023 56 1031 C57 1032 61 1033 68 1034 C83 1036 106 1037 131 1038 L166 1038 Z "/>
<glyph glyph-name="x" unicode="x" horiz-adv-x="1091" d="M839 0 C816 0 791 1 769 2 C758 3 748 3 741 4 C726 5 725 9 722 25 C720 32 719 40 719 49 C719 66 721 84 725 92 C738 95 756 98 778 101 L533 452 L289 101 C299 100 308 98 317 97 C326 95 334 93 341 92 C345 84 347 66 347 49 C347 32 344 15 337 7 C336 6 332 5 325 4 C310 3 287 1 262 1 C249 0 238 0 227 0 L141 0 C118 0 93 1 71 2 C60 3 50 3 43 4 C28 5 27 9 24 25 C22 32 21 40 21 49 C21 66 23 84 27 92 C56 99 104 106 151 111 L461 555 L199 929 C160 934 123 941 99 946 C95 954 93 972 93 989 C93 1006 96 1023 103 1031 C104 1032 108 1033 115 1034 C130 1036 153 1037 178 1038 L213 1038 L299 1038 C320 1038 348 1037 370 1036 C381 1035 390 1035 397 1034 C412 1032 413 1029 417 1014 C418 1006 419 998 419 989 C419 972 417 954 413 946 C394 942 369 937 341 933 L538 652 L733 932 C702 937 675 942 656 946 C652 954 650 972 650 989 C650 1006 653 1023 660 1031 C661 1032 665 1033 672 1034 C687 1036 710 1037 735 1038 L770 1038 L856 1038 C877 1038 905 1037 927 1036 C938 1035 947 1035 954 1034 C969 1032 970 1029 974 1014 C975 1006 976 998 976 989 C976 972 974 954 970 946 C947 941 912 935 876 930 L610 548 L916 111 L984 102 C1006 99 1024 95 1039 92 C1043 84 1045 66 1045 49 C1045 32 1042 15 1035 7 C1034 6 1030 5 1023 4 C1008 3 985 1 960 1 C947 0 936 0 925 0 L839 0 Z "/>
<glyph glyph-name="y" unicode="y" horiz-adv-x="1027" d="M775 1038 L861 1038 C882 1038 910 1037 932 1036 C943 1035 952 1035 959 1034 C974 1032 975 1029 979 1014 C980 1006 981 998 981 989 C981 972 979 954 975 946 C950 939 912 934 873 929 L461 -270 C434 -346 395 -398 347 -431 C299 -464 242 -478 185 -478 C117 -478 46 -459 -25 -426 C-25 -417 -25 -404 -24 -387 C-23 -371 -23 -353 -22 -334 C-21 -296 -18 -255 -16 -222 C-15 -205 -15 -191 -14 -179 C-13 -168 -13 -161 -12 -158 C11 -147 49 -145 72 -149 C74 -153 76 -161 79 -173 C83 -198 89 -233 94 -272 C97 -291 99 -310 101 -328 C127 -336 153 -340 178 -340 C261 -340 334 -294 366 -191 L426 0 L105 930 C66 935 31 941 7 946 C3 954 1 972 1 989 C1 1006 4 1023 11 1031 C12 1032 16 1033 23 1034 C38 1036 61 1037 86 1038 L121 1038 L207 1038 C228 1038 256 1037 278 1036 C289 1035 298 1035 305 1034 C320 1032 321 1029 325 1014 C326 1006 327 998 327 989 C327 972 325 954 321 946 C310 943 297 941 282 939 C267 936 251 934 234 931 L491 185 L748 931 C713 936 682 941 661 946 C657 954 655 972 655 989 C655 1006 658 1023 665 1031 C666 1032 670 1033 677 1034 C692 1036 715 1037 740 1038 L775 1038 Z "/>
<glyph glyph-name="z" unicode="z" horiz-adv-x="873" d="M820 0 L55 0 L50 5 L615 925 L190 925 C186 892 180 855 176 827 C173 812 171 800 169 789 L163 768 C140 764 102 766 79 777 C78 781 77 792 76 811 C73 848 70 899 68 948 C67 972 66 992 66 1008 L66 1038 L818 1038 L823 1032 L258 113 L693 113 C697 149 703 189 708 224 C711 241 713 257 716 270 C719 283 721 291 723 295 C746 299 784 297 807 286 C808 282 809 270 810 250 C813 210 817 158 819 108 C820 83 820 63 820 48 L820 0 Z "/>
<glyph glyph-name="braceleft" unicode="{" horiz-adv-x="810" d="M442 961 C442 916 430 862 407 816 C384 770 351 730 310 714 C350 699 383 660 407 613 C430 566 442 512 442 467 L442 321 C442 244 453 186 489 147 C524 108 583 89 678 89 L690 89 L690 -20 L651 -20 C564 -20 484 -1 425 51 C366 103 328 188 328 321 L328 465 C328 542 306 591 269 620 C232 649 180 659 120 659 L120 767 C180 767 232 778 269 807 C306 836 328 886 328 963 L328 1107 C328 1240 366 1325 425 1377 C484 1429 564 1448 651 1448 L690 1448 L690 1339 L678 1339 C583 1339 524 1320 489 1281 C453 1242 442 1184 442 1107 L442 961 Z "/>
<glyph glyph-name="bar" unicode="|" horiz-adv-x="354" d="M234 1448 L234 -270 L120 -270 L120 1448 L234 1448 Z "/>
<glyph glyph-name="braceright" unicode="}" horiz-adv-x="810" d="M368 1107 C368 1184 357 1242 322 1281 C286 1320 227 1339 132 1339 L120 1339 L120 1448 L159 1448 C244 1448 326 1429 385 1377 C444 1325 482 1240 482 1107 L482 963 C482 886 504 836 541 807 C578 778 630 767 690 767 L690 659 C630 659 578 649 541 620 C504 591 482 542 482 465 L482 321 C482 188 444 103 385 51 C326 -1 244 -20 159 -20 L120 -20 L120 89 L132 89 C227 89 286 108 322 147 C357 186 368 244 368 321 L368 467 C368 512 380 566 404 613 C427 660 460 699 500 714 C459 730 426 770 403 816 C380 862 368 916 368 961 L368 1107 Z "/>
<glyph glyph-name="asciitilde" unicode="~" horiz-adv-x="1031" d="M803 661 C843 669 879 659 911 630 C903 565 873 511 829 474 C784 437 725 416 661 416 C606 416 566 431 532 451 C515 461 499 472 486 484 C458 508 432 529 405 542 C391 549 376 552 359 552 C322 552 288 533 264 505 C240 477 226 441 226 408 C187 400 149 412 120 439 C128 506 161 561 206 600 C250 639 306 661 359 661 C403 661 438 646 470 626 C486 616 501 605 515 593 C543 569 572 548 603 535 C618 528 635 525 653 525 C692 525 729 542 757 568 C785 594 803 626 803 661 L803 661 Z "/>
<glyph glyph-name="exclamdown" unicode="" horiz-adv-x="471" d="M321 974 C321 927 283 889 236 889 C212 889 191 898 176 914 C160 929 150 950 150 974 C150 997 160 1018 176 1034 C191 1049 212 1058 236 1058 C260 1058 281 1049 297 1034 C312 1018 321 997 321 974 L321 974 Z M269 633 C274 585 280 485 284 362 C287 239 290 96 292 -39 C294 -175 294 -302 294 -390 L172 -390 C172 -302 173 -175 175 -39 C177 96 180 239 184 362 C188 485 192 585 199 633 L269 633 Z "/>
<glyph glyph-name="cent" unicode="" horiz-adv-x="919" d="M859 29 C781 2 704 -14 629 -18 L629 -148 L515 -148 L515 -16 C399 -3 296 44 221 133 C145 221 100 351 100 531 C100 704 146 830 221 915 C296 999 399 1042 515 1054 L515 1186 L629 1186 L629 1056 C704 1051 781 1036 859 1009 C859 980 857 925 854 875 C852 850 850 827 849 807 C848 787 847 775 846 771 C823 760 785 758 762 762 C760 766 758 774 755 786 C752 798 750 812 748 829 C745 846 743 864 740 883 C737 902 735 920 733 937 C682 944 634 948 595 948 C491 948 397 920 329 854 C261 788 219 684 219 532 C219 380 261 269 329 197 C397 125 491 90 595 90 C631 90 680 93 729 101 C733 137 740 183 746 223 C749 243 752 261 755 276 C758 291 760 301 762 306 C785 310 823 308 846 297 C847 294 847 287 848 276 L851 233 C853 200 855 159 856 121 C857 102 857 84 858 68 C859 51 859 38 859 29 L859 29 Z "/>
<glyph glyph-name="sterling" unicode="" horiz-adv-x="1041" d="M60 628 L60 740 L253 740 C238 807 229 875 229 947 C229 1086 270 1183 336 1247 C402 1310 494 1338 597 1338 C697 1338 812 1313 907 1270 L907 1258 C907 1226 904 1173 901 1127 C900 1104 898 1083 897 1065 C896 1047 895 1036 894 1032 C871 1021 833 1019 810 1023 C806 1031 801 1055 796 1087 C791 1118 785 1156 781 1191 C733 1218 669 1229 616 1229 C521 1229 453 1194 409 1139 C365 1083 344 1008 344 925 C344 866 354 804 367 740 L760 740 L760 628 L390 628 C406 552 420 480 420 416 C420 299 375 186 310 113 L853 113 C857 149 863 192 868 227 C871 244 874 259 877 272 C880 284 882 292 884 295 C917 298 945 297 968 286 C969 284 971 274 972 255 C975 217 978 162 980 111 C981 85 981 65 981 50 L981 0 L61 0 L61 113 L69 113 C121 116 179 147 225 203 C271 258 303 338 303 438 C303 498 292 560 277 628 L60 628 Z "/>
<glyph glyph-name="yen" unicode="" horiz-adv-x="1106" d="M151 1318 L237 1318 C258 1318 286 1317 308 1316 C319 1315 328 1315 335 1314 C350 1312 351 1309 355 1294 C356 1286 357 1278 357 1269 C357 1252 355 1234 351 1226 C332 1222 306 1217 278 1213 L553 650 L827 1213 C799 1217 774 1222 755 1226 C751 1234 749 1252 749 1269 C749 1286 752 1303 759 1311 C760 1312 764 1313 771 1314 C786 1316 809 1317 834 1318 L869 1318 L955 1318 C976 1318 1004 1317 1026 1316 C1037 1315 1046 1315 1053 1314 C1068 1312 1069 1309 1073 1294 C1074 1286 1075 1278 1075 1269 C1075 1252 1073 1234 1069 1226 C1042 1219 1002 1213 959 1208 L652 578 L948 578 L948 466 L610 466 L610 348 L948 348 L948 236 L610 236 L610 108 C649 103 686 97 710 92 C714 84 716 66 716 49 C716 32 713 15 706 7 C705 6 701 5 694 4 C679 3 656 1 631 1 C618 0 607 0 596 0 L496 0 C475 0 451 1 433 2 C424 3 416 3 410 4 C404 5 401 6 400 7 C393 15 390 32 390 49 C390 66 392 84 396 92 C420 97 457 103 496 108 L496 236 L158 236 L158 348 L496 348 L496 466 L158 466 L158 578 L454 578 L146 1208 C105 1213 64 1219 37 1226 C33 1234 31 1252 31 1269 C31 1286 34 1303 41 1311 C42 1312 46 1313 53 1314 C68 1316 91 1317 116 1318 L151 1318 Z "/>
<glyph glyph-name="brokenbar" unicode="" horiz-adv-x="354" d="M120 748 L120 1448 L234 1448 L234 748 L120 748 Z M234 430 L234 -270 L120 -270 L120 430 L234 430 Z "/>
<glyph glyph-name="section" unicode="" horiz-adv-x="971" d="M852 422 C852 301 810 188 725 108 C734 72 740 33 740 -12 C740 -128 704 -211 641 -266 C578 -322 489 -347 384 -347 C312 -347 242 -336 175 -313 L195 -215 L204 -211 C264 -227 333 -235 389 -235 C556 -235 631 -163 631 -30 C631 55 599 118 551 168 C503 218 439 257 376 298 C312 339 248 382 200 442 C152 501 120 575 120 679 C120 800 162 913 247 993 C237 1028 232 1068 232 1113 C232 1229 268 1312 331 1368 C394 1423 483 1448 588 1448 C660 1448 730 1437 797 1414 L777 1316 L768 1312 C708 1328 639 1336 583 1336 C416 1336 341 1264 341 1131 C341 1044 373 984 421 934 C469 884 533 844 597 803 C660 762 724 719 772 660 C820 600 852 526 852 422 L852 422 Z M736 404 C736 488 702 547 653 596 C628 620 600 642 569 663 C506 704 440 746 379 795 C348 820 322 848 299 881 C259 830 236 769 236 697 C236 613 270 553 319 505 C344 480 372 458 403 438 C466 397 532 355 593 306 C623 281 649 253 672 220 C712 271 736 332 736 404 L736 404 Z "/>
<glyph glyph-name="dieresis" unicode="" horiz-adv-x="695" d="M100 1463 C100 1486 110 1507 126 1523 C141 1538 162 1548 186 1548 C210 1548 231 1538 247 1523 C262 1507 272 1486 272 1463 C272 1440 262 1419 247 1404 C231 1388 210 1378 186 1378 C162 1378 141 1388 126 1404 C110 1419 100 1440 100 1463 L100 1463 Z M423 1463 C423 1486 432 1507 448 1523 C463 1538 484 1548 508 1548 C532 1548 553 1538 569 1523 C585 1507 595 1486 595 1463 C595 1440 585 1419 569 1404 C553 1388 532 1378 508 1378 C484 1378 463 1388 448 1404 C432 1419 423 1440 423 1463 L423 1463 Z "/>
<glyph glyph-name="copyright" unicode="" horiz-adv-x="1644" d="M100 709 C100 916 175 1100 304 1233 C433 1366 613 1448 828 1448 C1044 1448 1222 1367 1347 1234 C1472 1101 1544 919 1544 716 C1544 509 1470 326 1341 193 C1212 60 1032 -22 816 -22 C600 -22 422 60 297 193 C172 326 100 506 100 709 L100 709 Z M217 710 C217 539 277 388 382 276 C486 163 635 95 818 95 C999 95 1150 163 1258 276 C1366 389 1426 542 1426 715 C1426 886 1366 1037 1262 1150 C1157 1263 1009 1331 826 1331 C645 1331 495 1263 387 1150 C279 1037 217 885 217 710 L217 710 Z M1073 376 L1073 282 C997 251 931 240 863 240 C755 240 652 274 576 351 C499 427 450 544 450 713 C450 880 497 993 573 1068 C649 1143 749 1174 862 1174 C934 1174 997 1163 1073 1132 L1073 1040 L1064 1031 C996 1054 931 1066 868 1066 C784 1066 710 1044 654 988 C598 932 566 848 566 719 C566 586 601 495 657 435 C713 375 790 348 878 348 C937 348 999 360 1064 383 L1073 376 Z "/>
<glyph glyph-name="guillemotleft" unicode="" horiz-adv-x="1078" d="M641 36 L544 -20 L120 714 L544 1448 L641 1392 L249 714 L641 36 Z M958 36 L861 -20 L437 714 L861 1448 L958 1392 L566 714 L958 36 Z "/>
<glyph glyph-name="registered" unicode="" horiz-adv-x="1218" d="M80 906 C80 1057 135 1192 229 1290 C323 1388 456 1448 613 1448 C770 1448 902 1387 994 1290 C1086 1193 1138 1059 1138 911 C1138 760 1083 626 990 528 C897 430 762 370 605 370 C446 370 316 431 224 528 C132 624 80 758 80 906 L80 906 Z M189 907 C189 790 231 683 304 606 C376 529 481 481 606 481 C731 481 837 529 911 606 C985 683 1028 791 1028 910 C1028 1027 987 1135 915 1212 C842 1289 737 1337 612 1337 C488 1337 382 1290 307 1212 C232 1134 189 1027 189 907 L189 907 Z M876 670 L796 618 C759 635 727 669 700 707 C673 745 653 785 638 816 C617 813 594 812 571 812 L506 812 L506 626 L398 626 L398 1196 L578 1196 C673 1196 737 1181 777 1150 C817 1119 833 1073 833 1010 C833 922 797 872 737 843 C746 818 767 783 792 752 C817 720 846 692 873 677 L876 670 Z M506 1095 L506 914 L574 914 C622 914 659 918 686 931 C713 943 727 966 727 1003 C727 1043 712 1066 687 1079 C662 1091 625 1095 581 1095 L506 1095 Z "/>
<glyph glyph-name="macron" unicode="" horiz-adv-x="700" d="M100 1170 L600 1170 L600 1058 L100 1058 L100 1170 Z "/>
<glyph glyph-name="degree" unicode="" horiz-adv-x="814" d="M80 1000 C80 1093 114 1179 172 1240 C230 1300 313 1338 410 1338 C507 1338 589 1300 646 1240 C702 1179 734 1096 734 1005 C734 910 701 827 643 766 C585 705 501 668 404 668 C307 668 225 706 169 766 C112 826 80 909 80 1000 L80 1000 Z M193 1001 C193 941 215 887 252 848 C288 808 341 784 405 784 C469 784 523 808 561 848 C599 888 621 944 621 1005 C621 1064 599 1118 563 1158 C526 1197 473 1222 409 1222 C345 1222 291 1198 253 1158 C215 1118 193 1062 193 1001 L193 1001 Z "/>
<glyph glyph-name="plusminus" unicode="" horiz-adv-x="1030" d="M120 699 L459 699 L459 1038 L571 1038 L571 699 L910 699 L910 587 L571 587 L571 248 L459 248 L459 587 L120 587 L120 699 Z M120 112 L910 112 L910 0 L120 0 L120 112 Z "/>
<glyph glyph-name="acute" unicode="" horiz-adv-x="670" d="M492 1548 C533 1525 562 1504 570 1449 C549 1417 484 1365 402 1317 C320 1268 221 1223 133 1206 C117 1221 105 1255 100 1295 C199 1339 283 1391 349 1437 C415 1483 464 1524 492 1548 L492 1548 Z "/>
<glyph glyph-name="paragraph" unicode="" horiz-adv-x="1294" d="M653 0 L539 0 L539 536 C407 537 291 552 210 604 C129 655 80 744 80 893 C80 1024 120 1117 181 1182 C241 1247 322 1286 406 1309 C489 1332 574 1337 642 1337 C782 1337 910 1312 1013 1271 C1116 1230 1193 1172 1234 1108 L1164 1035 L1158 1035 C1103 1082 1039 1139 942 1178 L942 0 L828 0 L828 1212 C781 1221 731 1226 672 1226 L663 1226 C660 1225 656 1225 653 1225 L653 0 Z M197 894 C197 810 220 751 275 712 C330 673 415 655 539 652 L539 1218 C390 1199 304 1151 256 1091 C208 1030 197 958 197 894 L197 894 Z "/>
<glyph glyph-name="periodcentered" unicode="" horiz-adv-x="371" d="M100 519 C100 542 110 562 126 578 C141 593 162 603 185 603 C208 603 229 593 245 578 C261 562 271 542 271 519 C271 496 261 476 245 461 C229 445 208 435 185 435 C162 435 141 445 126 461 C110 476 100 496 100 519 L100 519 Z "/>
<glyph glyph-name="cedilla" unicode="" horiz-adv-x="623" d="M222 1 L336 1 L336 -56 C404 -72 448 -106 476 -145 C504 -184 514 -229 514 -269 C514 -333 487 -386 443 -422 C399 -458 337 -478 268 -478 C204 -478 143 -462 91 -427 C95 -388 101 -362 128 -342 C145 -350 173 -359 199 -364 C225 -369 250 -373 269 -373 C296 -373 329 -365 357 -348 C384 -331 404 -304 404 -265 C404 -229 386 -197 355 -173 C323 -150 278 -136 222 -136 L222 1 Z "/>
<glyph glyph-name="guillemotright" unicode="" horiz-adv-x="1078" d="M512 714 L120 1392 L217 1448 L641 714 L217 -20 L120 36 L512 714 Z M829 714 L437 1392 L534 1448 L958 714 L534 -20 L437 36 L829 714 Z "/>
<glyph glyph-name="questiondown" unicode="" horiz-adv-x="975" d="M663 906 C663 883 653 863 638 848 C622 832 601 822 578 822 C555 822 534 832 518 848 C502 863 492 883 492 906 C492 927 502 949 518 965 C534 980 555 990 578 990 C601 990 622 980 638 965 C653 949 663 927 663 906 L663 906 Z M823 -244 L856 -336 C824 -379 773 -414 713 -438 C653 -463 583 -478 511 -478 C414 -478 316 -451 243 -395 C170 -340 120 -255 120 -139 C120 -56 146 2 183 50 C202 74 223 96 247 117 C295 158 347 201 395 254 C443 306 481 376 505 470 C516 517 522 572 522 636 L638 636 C638 501 612 402 575 325 C538 248 488 193 437 146 C412 123 387 101 363 81 C315 41 277 0 254 -49 C242 -74 236 -102 236 -135 C236 -211 270 -269 323 -309 C376 -349 447 -369 522 -369 C577 -369 634 -357 685 -336 C736 -316 782 -284 814 -244 L823 -244 Z "/>
<glyph glyph-name="Agrave" unicode="" horiz-adv-x="1240" d="M463 1791 C491 1767 541 1726 607 1680 C673 1634 756 1582 855 1538 C850 1498 838 1464 822 1449 C734 1466 636 1511 554 1560 C472 1608 406 1660 385 1692 C393 1747 422 1768 463 1791 L463 1791 Z M151 0 C128 0 103 1 81 2 C70 3 60 3 53 4 C38 5 37 9 34 25 C32 32 31 40 31 49 C31 66 33 84 37 92 C62 97 102 104 142 109 L557 1318 L681 1318 L1096 109 C1137 104 1176 97 1203 92 C1207 84 1209 66 1209 49 C1209 32 1206 15 1199 7 C1198 6 1194 5 1187 4 C1172 3 1149 1 1124 1 C1111 0 1100 0 1089 0 L1001 0 C978 0 953 1 931 2 C920 3 910 3 903 4 C888 5 887 9 884 25 C882 32 881 40 881 49 C881 66 883 84 887 92 C908 96 939 102 974 106 L899 323 L338 323 L264 106 C281 104 297 102 312 99 C327 96 340 94 351 92 C355 84 357 66 357 49 C357 32 354 15 347 7 C346 6 342 5 335 4 C320 3 297 1 272 1 C259 0 248 0 237 0 L151 0 Z M377 436 L861 436 L619 1138 L377 436 Z "/>
<glyph glyph-name="Aacute" unicode="" horiz-adv-x="1240" d="M775 1790 C816 1767 845 1746 853 1691 C832 1659 767 1607 685 1559 C603 1510 504 1465 416 1448 C400 1463 388 1497 383 1537 C482 1581 566 1633 632 1679 C698 1725 747 1766 775 1790 L775 1790 Z M151 0 C128 0 103 1 81 2 C70 3 60 3 53 4 C38 5 37 9 34 25 C32 32 31 40 31 49 C31 66 33 84 37 92 C62 97 102 104 142 109 L557 1318 L681 1318 L1096 109 C1137 104 1176 97 1203 92 C1207 84 1209 66 1209 49 C1209 32 1206 15 1199 7 C1198 6 1194 5 1187 4 C1172 3 1149 1 1124 1 C1111 0 1100 0 1089 0 L1001 0 C978 0 953 1 931 2 C920 3 910 3 903 4 C888 5 887 9 884 25 C882 32 881 40 881 49 C881 66 883 84 887 92 C908 96 939 102 974 106 L899 323 L338 323 L264 106 C281 104 297 102 312 99 C327 96 340 94 351 92 C355 84 357 66 357 49 C357 32 354 15 347 7 C346 6 342 5 335 4 C320 3 297 1 272 1 C259 0 248 0 237 0 L151 0 Z M377 436 L861 436 L619 1138 L377 436 Z "/>
<glyph glyph-name="Acircumflex" unicode="" horiz-adv-x="1240" d="M618 1585 C578 1552 531 1515 481 1483 C431 1451 378 1424 329 1409 C310 1421 295 1454 287 1494 C363 1539 429 1587 485 1632 C540 1676 583 1718 615 1750 L631 1750 C663 1718 706 1677 761 1633 C816 1588 882 1539 959 1494 C951 1454 936 1421 917 1409 C868 1424 815 1451 765 1483 C715 1515 666 1552 626 1585 L618 1585 Z M151 0 C128 0 103 1 81 2 C70 3 60 3 53 4 C38 5 37 9 34 25 C32 32 31 40 31 49 C31 66 33 84 37 92 C62 97 102 104 142 109 L557 1318 L681 1318 L1096 109 C1137 104 1176 97 1203 92 C1207 84 1209 66 1209 49 C1209 32 1206 15 1199 7 C1198 6 1194 5 1187 4 C1172 3 1149 1 1124 1 C1111 0 1100 0 1089 0 L1001 0 C978 0 953 1 931 2 C920 3 910 3 903 4 C888 5 887 9 884 25 C882 32 881 40 881 49 C881 66 883 84 887 92 C908 96 939 102 974 106 L899 323 L338 323 L264 106 C281 104 297 102 312 99 C327 96 340 94 351 92 C355 84 357 66 357 49 C357 32 354 15 347 7 C346 6 342 5 335 4 C320 3 297 1 272 1 C259 0 248 0 237 0 L151 0 Z M377 436 L861 436 L619 1138 L377 436 Z "/>
<glyph glyph-name="Atilde" unicode="" horiz-adv-x="1240" d="M858 1626 C901 1633 938 1620 965 1599 C958 1542 929 1496 888 1464 C847 1432 793 1415 738 1415 C671 1415 629 1441 594 1467 C559 1493 531 1519 491 1519 C468 1519 441 1508 419 1489 C397 1470 381 1444 381 1415 C342 1408 306 1413 274 1442 C281 1502 315 1548 359 1580 C402 1612 455 1628 499 1628 C559 1628 598 1602 633 1576 C668 1550 698 1524 738 1524 C763 1524 793 1535 817 1553 C841 1571 858 1595 858 1626 L858 1626 Z M151 0 C128 0 103 1 81 2 C70 3 60 3 53 4 C38 5 37 9 34 25 C32 32 31 40 31 49 C31 66 33 84 37 92 C62 97 102 104 142 109 L557 1318 L681 1318 L1096 109 C1137 104 1176 97 1203 92 C1207 84 1209 66 1209 49 C1209 32 1206 15 1199 7 C1198 6 1194 5 1187 4 C1172 3 1149 1 1124 1 C1111 0 1100 0 1089 0 L1001 0 C978 0 953 1 931 2 C920 3 910 3 903 4 C888 5 887 9 884 25 C882 32 881 40 881 49 C881 66 883 84 887 92 C908 96 939 102 974 106 L899 323 L338 323 L264 106 C281 104 297 102 312 99 C327 96 340 94 351 92 C355 84 357 66 357 49 C357 32 354 15 347 7 C346 6 342 5 335 4 C320 3 297 1 272 1 C259 0 248 0 237 0 L151 0 Z M377 436 L861 436 L619 1138 L377 436 Z "/>
<glyph glyph-name="Adieresis" unicode="" horiz-adv-x="1240" d="M372 1534 C372 1557 382 1578 398 1594 C413 1609 434 1619 458 1619 C482 1619 503 1609 519 1594 C534 1578 544 1557 544 1534 C544 1511 534 1490 519 1475 C503 1459 482 1449 458 1449 C434 1449 413 1459 398 1475 C382 1490 372 1511 372 1534 L372 1534 Z M695 1534 C695 1557 704 1578 720 1594 C735 1609 756 1619 780 1619 C804 1619 825 1609 841 1594 C857 1578 867 1557 867 1534 C867 1511 857 1490 841 1475 C825 1459 804 1449 780 1449 C756 1449 735 1459 720 1475 C704 1490 695 1511 695 1534 L695 1534 Z M151 0 C128 0 103 1 81 2 C70 3 60 3 53 4 C38 5 37 9 34 25 C32 32 31 40 31 49 C31 66 33 84 37 92 C62 97 102 104 142 109 L557 1318 L681 1318 L1096 109 C1137 104 1176 97 1203 92 C1207 84 1209 66 1209 49 C1209 32 1206 15 1199 7 C1198 6 1194 5 1187 4 C1172 3 1149 1 1124 1 C1111 0 1100 0 1089 0 L1001 0 C978 0 953 1 931 2 C920 3 910 3 903 4 C888 5 887 9 884 25 C882 32 881 40 881 49 C881 66 883 84 887 92 C908 96 939 102 974 106 L899 323 L338 323 L264 106 C281 104 297 102 312 99 C327 96 340 94 351 92 C355 84 357 66 357 49 C357 32 354 15 347 7 C346 6 342 5 335 4 C320 3 297 1 272 1 C259 0 248 0 237 0 L151 0 Z M377 436 L861 436 L619 1138 L377 436 Z "/>
<glyph glyph-name="Aring" unicode="" horiz-adv-x="1240" d="M419 1607 C419 1660 442 1710 478 1746 C514 1782 564 1804 619 1804 C672 1804 723 1782 760 1746 C797 1710 820 1660 820 1607 C820 1554 797 1504 760 1468 C723 1431 672 1408 619 1408 C564 1408 514 1431 478 1468 C442 1504 419 1554 419 1607 L419 1607 Z M530 1607 C530 1583 540 1561 557 1545 C573 1528 595 1518 619 1518 C643 1518 666 1528 682 1545 C698 1561 709 1583 709 1607 C709 1631 698 1653 682 1669 C666 1685 643 1696 619 1696 C595 1696 573 1685 557 1669 C540 1653 530 1631 530 1607 L530 1607 Z M151 0 C128 0 103 1 81 2 C70 3 60 3 53 4 C38 5 37 9 34 25 C32 32 31 40 31 49 C31 66 33 84 37 92 C62 97 102 104 142 109 L557 1318 L681 1318 L1096 109 C1137 104 1176 97 1203 92 C1207 84 1209 66 1209 49 C1209 32 1206 15 1199 7 C1198 6 1194 5 1187 4 C1172 3 1149 1 1124 1 C1111 0 1100 0 1089 0 L1001 0 C978 0 953 1 931 2 C920 3 910 3 903 4 C888 5 887 9 884 25 C882 32 881 40 881 49 C881 66 883 84 887 92 C908 96 939 102 974 106 L899 323 L338 323 L264 106 C281 104 297 102 312 99 C327 96 340 94 351 92 C355 84 357 66 357 49 C357 32 354 15 347 7 C346 6 342 5 335 4 C320 3 297 1 272 1 C259 0 248 0 237 0 L151 0 Z M377 436 L861 436 L619 1138 L377 436 Z "/>
<glyph glyph-name="AE" unicode="" horiz-adv-x="1495" d="M151 0 C128 0 103 1 81 2 C70 3 60 3 53 4 C38 5 37 9 34 25 C32 32 31 40 31 49 C31 66 33 84 37 92 C62 97 102 104 142 109 L557 1318 L1435 1318 L1435 1270 C1435 1241 1433 1186 1430 1136 C1428 1111 1426 1088 1425 1068 C1424 1048 1423 1036 1422 1032 C1399 1021 1361 1019 1338 1023 C1336 1027 1334 1035 1331 1048 C1326 1073 1320 1109 1315 1149 C1312 1168 1310 1187 1308 1205 L720 1205 L888 715 L1228 715 C1236 768 1247 817 1255 828 C1287 831 1315 830 1338 819 C1343 783 1348 723 1349 663 C1349 602 1347 540 1338 499 C1315 488 1287 487 1255 490 C1251 495 1247 509 1242 530 C1237 551 1232 576 1228 603 L926 603 L1095 113 L1308 113 C1312 149 1318 189 1323 224 C1326 241 1328 257 1331 270 C1334 283 1336 291 1338 295 C1361 299 1399 297 1422 286 C1423 282 1424 270 1425 251 C1428 211 1430 161 1433 111 C1434 86 1435 66 1435 51 L1435 0 L1001 0 C978 0 953 1 931 2 C920 3 910 3 903 4 C888 5 887 9 884 25 C882 32 881 40 881 49 C881 66 883 84 887 92 C908 96 939 102 974 106 L899 323 L338 323 L264 106 C281 104 297 102 312 99 C327 96 340 94 351 92 C355 84 357 66 357 49 C357 32 354 15 347 7 C346 6 342 5 335 4 C320 3 297 1 272 1 C259 0 248 0 237 0 L151 0 Z M377 436 L861 436 L619 1138 L377 436 Z "/>
<glyph glyph-name="Ccedilla" unicode="" horiz-adv-x="1091" d="M1031 18 C952 -5 866 -15 787 -18 L787 -56 C855 -72 899 -106 927 -145 C955 -184 965 -229 965 -269 C965 -333 938 -386 894 -422 C850 -458 788 -478 719 -478 C655 -478 594 -462 542 -427 C546 -388 552 -362 579 -342 C596 -350 624 -359 650 -364 C676 -369 701 -373 720 -373 C747 -373 780 -365 808 -348 C835 -331 855 -304 855 -265 C855 -229 837 -197 806 -173 C774 -150 729 -136 673 -136 L673 -16 C477 0 334 78 240 198 C146 317 100 477 100 657 C100 882 171 1053 287 1167 C403 1281 564 1338 747 1338 C787 1338 836 1336 885 1329 C934 1321 986 1311 1031 1295 C1031 1285 1031 1272 1030 1257 C1029 1241 1029 1224 1028 1205 C1027 1168 1025 1127 1023 1095 L1020 1053 C1019 1042 1019 1035 1018 1032 C995 1021 957 1019 934 1023 C932 1027 930 1036 927 1050 C921 1078 914 1117 909 1159 C906 1180 904 1199 902 1217 C854 1226 813 1229 770 1229 C579 1229 442 1171 351 1071 C260 971 217 828 217 660 C217 493 260 350 350 250 C440 149 578 89 773 89 C812 89 855 91 902 98 C906 134 912 179 918 217 C924 255 930 286 934 295 C957 299 995 297 1018 286 C1019 283 1019 276 1020 265 L1023 222 C1025 189 1027 148 1028 110 C1029 91 1029 73 1030 57 C1031 40 1031 27 1031 18 L1031 18 Z "/>
<glyph glyph-name="Egrave" unicode="" horiz-adv-x="984" d="M375 1791 C403 1767 453 1726 519 1680 C585 1634 668 1582 767 1538 C762 1498 750 1464 734 1449 C646 1466 548 1511 466 1560 C384 1608 318 1660 297 1692 C305 1747 334 1768 375 1791 L375 1791 Z M181 1318 L925 1318 L925 1270 C925 1241 923 1186 920 1136 C918 1111 916 1088 915 1068 C914 1048 913 1036 912 1032 C889 1021 851 1019 828 1023 C826 1027 824 1035 821 1048 C816 1073 810 1109 805 1149 C802 1168 800 1187 798 1205 L281 1205 L281 715 L718 715 C726 768 737 817 745 828 C777 831 805 830 828 819 C833 783 838 723 839 663 C839 602 837 540 828 499 C805 488 777 487 745 490 C741 495 737 509 732 530 C727 551 722 576 718 603 L281 603 L281 113 L798 113 C802 149 808 189 813 224 C816 241 818 257 821 270 C824 283 826 291 828 295 C851 299 889 297 912 286 C913 282 914 270 915 250 C918 210 922 158 924 108 C925 83 925 63 925 48 L925 0 L181 0 C158 0 133 1 111 2 C100 3 90 3 83 4 C68 5 67 9 64 25 C62 32 61 40 61 49 C61 66 63 84 67 92 C91 97 128 103 167 108 L167 1209 C128 1214 91 1221 67 1226 C63 1234 61 1252 61 1269 C61 1286 64 1303 71 1311 C72 1312 76 1313 83 1314 C98 1316 121 1317 146 1318 L181 1318 Z "/>
<glyph glyph-name="Eacute" unicode="" horiz-adv-x="984" d="M641 1791 C682 1768 711 1747 719 1692 C698 1660 633 1608 551 1560 C469 1511 370 1466 282 1449 C266 1464 254 1498 249 1538 C348 1582 432 1634 498 1680 C564 1726 613 1767 641 1791 L641 1791 Z M181 1318 L925 1318 L925 1270 C925 1241 923 1186 920 1136 C918 1111 916 1088 915 1068 C914 1048 913 1036 912 1032 C889 1021 851 1019 828 1023 C826 1027 824 1035 821 1048 C816 1073 810 1109 805 1149 C802 1168 800 1187 798 1205 L281 1205 L281 715 L718 715 C726 768 737 817 745 828 C777 831 805 830 828 819 C833 783 838 723 839 663 C839 602 837 540 828 499 C805 488 777 487 745 490 C741 495 737 509 732 530 C727 551 722 576 718 603 L281 603 L281 113 L798 113 C802 149 808 189 813 224 C816 241 818 257 821 270 C824 283 826 291 828 295 C851 299 889 297 912 286 C913 282 914 270 915 250 C918 210 922 158 924 108 C925 83 925 63 925 48 L925 0 L181 0 C158 0 133 1 111 2 C100 3 90 3 83 4 C68 5 67 9 64 25 C62 32 61 40 61 49 C61 66 63 84 67 92 C91 97 128 103 167 108 L167 1209 C128 1214 91 1221 67 1226 C63 1234 61 1252 61 1269 C61 1286 64 1303 71 1311 C72 1312 76 1313 83 1314 C98 1316 121 1317 146 1318 L181 1318 Z "/>
<glyph glyph-name="Ecircumflex" unicode="" horiz-adv-x="984" d="M510 1584 C470 1551 423 1514 373 1482 C323 1450 270 1423 221 1408 C202 1420 187 1453 179 1493 C255 1538 321 1586 377 1631 C432 1675 475 1717 507 1749 L523 1749 C555 1717 598 1676 653 1632 C708 1587 774 1538 851 1493 C843 1453 828 1420 809 1408 C760 1423 707 1450 657 1482 C607 1514 558 1551 518 1584 L510 1584 Z M181 1318 L925 1318 L925 1270 C925 1241 923 1186 920 1136 C918 1111 916 1088 915 1068 C914 1048 913 1036 912 1032 C889 1021 851 1019 828 1023 C826 1027 824 1035 821 1048 C816 1073 810 1109 805 1149 C802 1168 800 1187 798 1205 L281 1205 L281 715 L718 715 C726 768 737 817 745 828 C777 831 805 830 828 819 C833 783 838 723 839 663 C839 602 837 540 828 499 C805 488 777 487 745 490 C741 495 737 509 732 530 C727 551 722 576 718 603 L281 603 L281 113 L798 113 C802 149 808 189 813 224 C816 241 818 257 821 270 C824 283 826 291 828 295 C851 299 889 297 912 286 C913 282 914 270 915 250 C918 210 922 158 924 108 C925 83 925 63 925 48 L925 0 L181 0 C158 0 133 1 111 2 C100 3 90 3 83 4 C68 5 67 9 64 25 C62 32 61 40 61 49 C61 66 63 84 67 92 C91 97 128 103 167 108 L167 1209 C128 1214 91 1221 67 1226 C63 1234 61 1252 61 1269 C61 1286 64 1303 71 1311 C72 1312 76 1313 83 1314 C98 1316 121 1317 146 1318 L181 1318 Z "/>
<glyph glyph-name="Edieresis" unicode="" horiz-adv-x="984" d="M274 1533 C274 1556 284 1577 300 1593 C315 1608 336 1618 360 1618 C384 1618 405 1608 421 1593 C436 1577 446 1556 446 1533 C446 1510 436 1489 421 1474 C405 1458 384 1448 360 1448 C336 1448 315 1458 300 1474 C284 1489 274 1510 274 1533 L274 1533 Z M597 1533 C597 1556 606 1577 622 1593 C637 1608 658 1618 682 1618 C706 1618 727 1608 743 1593 C759 1577 769 1556 769 1533 C769 1510 759 1489 743 1474 C727 1458 706 1448 682 1448 C658 1448 637 1458 622 1474 C606 1489 597 1510 597 1533 L597 1533 Z M181 1318 L925 1318 L925 1270 C925 1241 923 1186 920 1136 C918 1111 916 1088 915 1068 C914 1048 913 1036 912 1032 C889 1021 851 1019 828 1023 C826 1027 824 1035 821 1048 C816 1073 810 1109 805 1149 C802 1168 800 1187 798 1205 L281 1205 L281 715 L718 715 C726 768 737 817 745 828 C777 831 805 830 828 819 C833 783 838 723 839 663 C839 602 837 540 828 499 C805 488 777 487 745 490 C741 495 737 509 732 530 C727 551 722 576 718 603 L281 603 L281 113 L798 113 C802 149 808 189 813 224 C816 241 818 257 821 270 C824 283 826 291 828 295 C851 299 889 297 912 286 C913 282 914 270 915 250 C918 210 922 158 924 108 C925 83 925 63 925 48 L925 0 L181 0 C158 0 133 1 111 2 C100 3 90 3 83 4 C68 5 67 9 64 25 C62 32 61 40 61 49 C61 66 63 84 67 92 C91 97 128 103 167 108 L167 1209 C128 1214 91 1221 67 1226 C63 1234 61 1252 61 1269 C61 1286 64 1303 71 1311 C72 1312 76 1313 83 1314 C98 1316 121 1317 146 1318 L181 1318 Z "/>
<glyph glyph-name="Igrave" unicode="" horiz-adv-x="448" d="M70 1792 C98 1768 148 1727 214 1681 C280 1635 363 1583 462 1539 C457 1499 445 1465 429 1450 C341 1467 243 1512 161 1561 C79 1609 13 1661 -8 1693 C0 1748 29 1769 70 1792 L70 1792 Z M181 1318 L267 1318 C288 1318 316 1317 338 1316 C349 1315 358 1315 365 1314 C380 1312 381 1309 385 1294 C386 1286 387 1278 387 1269 C387 1252 385 1234 381 1226 C357 1221 320 1214 281 1209 L281 108 C320 103 357 97 381 92 C385 84 387 66 387 49 C387 32 384 15 377 7 C376 6 372 5 365 4 C350 3 327 1 302 1 C289 0 278 0 267 0 L181 0 C158 0 133 1 111 2 C100 3 90 3 83 4 C68 5 67 9 64 25 C62 32 61 40 61 49 C61 66 63 84 67 92 C91 97 128 103 167 108 L167 1209 C128 1214 91 1221 67 1226 C63 1234 61 1252 61 1269 C61 1286 64 1303 71 1311 C72 1312 76 1313 83 1314 C98 1316 121 1317 146 1318 L181 1318 Z "/>
<glyph glyph-name="Iacute" unicode="" horiz-adv-x="448" d="M384 1790 C425 1767 454 1746 462 1691 C441 1659 376 1607 294 1559 C212 1510 113 1465 25 1448 C9 1463 -3 1497 -8 1537 C91 1581 175 1633 241 1679 C307 1725 356 1766 384 1790 L384 1790 Z M181 1318 L267 1318 C288 1318 316 1317 338 1316 C349 1315 358 1315 365 1314 C380 1312 381 1309 385 1294 C386 1286 387 1278 387 1269 C387 1252 385 1234 381 1226 C357 1221 320 1214 281 1209 L281 108 C320 103 357 97 381 92 C385 84 387 66 387 49 C387 32 384 15 377 7 C376 6 372 5 365 4 C350 3 327 1 302 1 C289 0 278 0 267 0 L181 0 C158 0 133 1 111 2 C100 3 90 3 83 4 C68 5 67 9 64 25 C62 32 61 40 61 49 C61 66 63 84 67 92 C91 97 128 103 167 108 L167 1209 C128 1214 91 1221 67 1226 C63 1234 61 1252 61 1269 C61 1286 64 1303 71 1311 C72 1312 76 1313 83 1314 C98 1316 121 1317 146 1318 L181 1318 Z "/>
<glyph glyph-name="Icircumflex" unicode="" horiz-adv-x="448" d="M219 1626 C179 1593 132 1556 82 1524 C32 1492 -21 1465 -70 1450 C-89 1462 -104 1495 -112 1535 C-36 1580 30 1628 86 1673 C141 1717 184 1759 216 1791 L232 1791 C264 1759 307 1718 362 1674 C417 1629 483 1580 560 1535 C552 1495 537 1462 518 1450 C469 1465 416 1492 366 1524 C316 1556 267 1593 227 1626 L219 1626 Z M181 1318 L267 1318 C288 1318 316 1317 338 1316 C349 1315 358 1315 365 1314 C380 1312 381 1309 385 1294 C386 1286 387 1278 387 1269 C387 1252 385 1234 381 1226 C357 1221 320 1214 281 1209 L281 108 C320 103 357 97 381 92 C385 84 387 66 387 49 C387 32 384 15 377 7 C376 6 372 5 365 4 C350 3 327 1 302 1 C289 0 278 0 267 0 L181 0 C158 0 133 1 111 2 C100 3 90 3 83 4 C68 5 67 9 64 25 C62 32 61 40 61 49 C61 66 63 84 67 92 C91 97 128 103 167 108 L167 1209 C128 1214 91 1221 67 1226 C63 1234 61 1252 61 1269 C61 1286 64 1303 71 1311 C72 1312 76 1313 83 1314 C98 1316 121 1317 146 1318 L181 1318 Z "/>
<glyph glyph-name="Idieresis" unicode="" horiz-adv-x="448" d="M-29 1535 C-29 1558 -19 1579 -3 1595 C12 1610 33 1620 57 1620 C81 1620 102 1610 118 1595 C133 1579 143 1558 143 1535 C143 1512 133 1491 118 1476 C102 1460 81 1450 57 1450 C33 1450 12 1460 -3 1476 C-19 1491 -29 1512 -29 1535 L-29 1535 Z M294 1535 C294 1558 303 1579 319 1595 C334 1610 355 1620 379 1620 C403 1620 424 1610 440 1595 C456 1579 466 1558 466 1535 C466 1512 456 1491 440 1476 C424 1460 403 1450 379 1450 C355 1450 334 1460 319 1476 C303 1491 294 1512 294 1535 L294 1535 Z M181 1318 L267 1318 C288 1318 316 1317 338 1316 C349 1315 358 1315 365 1314 C380 1312 381 1309 385 1294 C386 1286 387 1278 387 1269 C387 1252 385 1234 381 1226 C357 1221 320 1214 281 1209 L281 108 C320 103 357 97 381 92 C385 84 387 66 387 49 C387 32 384 15 377 7 C376 6 372 5 365 4 C350 3 327 1 302 1 C289 0 278 0 267 0 L181 0 C158 0 133 1 111 2 C100 3 90 3 83 4 C68 5 67 9 64 25 C62 32 61 40 61 49 C61 66 63 84 67 92 C91 97 128 103 167 108 L167 1209 C128 1214 91 1221 67 1226 C63 1234 61 1252 61 1269 C61 1286 64 1303 71 1311 C72 1312 76 1313 83 1314 C98 1316 121 1317 146 1318 L181 1318 Z "/>
<glyph glyph-name="Eth" unicode="" horiz-adv-x="1297" d="M32 716 L167 716 L167 1209 C128 1214 91 1221 67 1226 C63 1234 61 1252 61 1269 C61 1286 64 1303 71 1311 C72 1312 76 1313 83 1314 C98 1316 121 1317 146 1318 L181 1318 L513 1318 C705 1318 876 1249 1000 1133 C1123 1016 1197 852 1197 660 C1197 468 1126 303 1007 187 C888 70 720 0 528 0 L181 0 C158 0 133 1 111 2 C100 3 90 3 83 4 C68 5 67 9 64 25 C62 32 61 40 61 49 C61 66 63 84 67 92 C91 97 128 103 167 108 L167 604 L32 604 L32 716 Z M282 1209 L282 716 L451 716 L451 604 L282 604 L282 109 L522 109 C693 109 833 173 930 271 C1026 369 1081 503 1081 644 C1081 812 1015 953 911 1053 C806 1152 661 1209 505 1209 L282 1209 Z "/>
<glyph glyph-name="Ntilde" unicode="" horiz-adv-x="1257" d="M867 1626 C910 1633 947 1620 974 1599 C967 1542 938 1496 897 1464 C856 1432 802 1415 747 1415 C680 1415 638 1441 603 1467 C568 1493 540 1519 500 1519 C477 1519 450 1508 428 1489 C406 1470 390 1444 390 1415 C351 1408 315 1413 283 1442 C290 1502 324 1548 368 1580 C411 1612 464 1628 508 1628 C568 1628 607 1602 642 1576 C677 1550 707 1524 747 1524 C772 1524 802 1535 826 1553 C850 1571 867 1595 867 1626 L867 1626 Z M1076 1318 C1097 1318 1125 1317 1147 1316 C1158 1315 1167 1315 1174 1314 C1189 1312 1190 1309 1194 1294 C1195 1286 1196 1278 1196 1269 C1196 1252 1194 1234 1190 1226 C1166 1221 1129 1214 1090 1209 L1090 0 L976 0 L281 1110 L281 108 C320 103 357 97 381 92 C385 84 387 66 387 49 C387 32 384 15 377 7 C376 6 372 5 365 4 C350 3 327 1 302 1 C289 0 278 0 267 0 L167 0 C146 0 122 1 104 2 C95 3 87 3 81 4 C75 5 72 6 71 7 C64 15 61 32 61 49 C61 66 63 84 67 92 C91 97 128 103 167 108 L167 1209 C128 1214 91 1221 67 1226 C63 1234 61 1252 61 1269 C61 1286 64 1303 71 1311 C72 1312 75 1312 81 1313 C93 1314 111 1316 134 1317 C145 1318 156 1318 167 1318 L281 1318 L976 207 L976 1209 C937 1214 900 1221 876 1226 C872 1234 870 1252 870 1269 C870 1286 873 1303 880 1311 C881 1312 884 1312 890 1313 C902 1314 920 1316 943 1317 C954 1318 965 1318 976 1318 L1076 1318 Z "/>
<glyph glyph-name="Ograve" unicode="" horiz-adv-x="1410" d="M621 1791 C649 1767 699 1726 765 1680 C831 1634 914 1582 1013 1538 C1008 1498 996 1464 980 1449 C892 1466 794 1511 712 1560 C630 1608 564 1660 543 1692 C551 1747 580 1768 621 1791 L621 1791 Z M100 656 C100 849 161 1021 268 1143 C375 1265 526 1338 709 1338 C892 1338 1042 1264 1147 1143 C1251 1022 1310 853 1310 664 C1310 469 1255 299 1151 177 C1047 55 895 -20 700 -20 C517 -20 367 55 263 177 C159 299 100 467 100 656 L100 656 Z M216 667 C216 507 261 363 346 259 C430 154 553 89 712 89 C864 89 984 148 1067 248 C1150 348 1194 489 1194 652 C1194 813 1150 958 1067 1062 C983 1166 861 1229 704 1229 C552 1229 430 1169 346 1069 C262 969 216 828 216 667 L216 667 Z "/>
<glyph glyph-name="Oacute" unicode="" horiz-adv-x="1410" d="M879 1791 C920 1768 949 1747 957 1692 C936 1660 871 1608 789 1560 C707 1511 608 1466 520 1449 C504 1464 492 1498 487 1538 C586 1582 670 1634 736 1680 C802 1726 851 1767 879 1791 L879 1791 Z M100 656 C100 849 161 1021 268 1143 C375 1265 526 1338 709 1338 C892 1338 1042 1264 1147 1143 C1251 1022 1310 853 1310 664 C1310 469 1255 299 1151 177 C1047 55 895 -20 700 -20 C517 -20 367 55 263 177 C159 299 100 467 100 656 L100 656 Z M216 667 C216 507 261 363 346 259 C430 154 553 89 712 89 C864 89 984 148 1067 248 C1150 348 1194 489 1194 652 C1194 813 1150 958 1067 1062 C983 1166 861 1229 704 1229 C552 1229 430 1169 346 1069 C262 969 216 828 216 667 L216 667 Z "/>
<glyph glyph-name="Ocircumflex" unicode="" horiz-adv-x="1410" d="M700 1626 C660 1593 613 1556 563 1524 C513 1492 460 1465 411 1450 C392 1462 377 1495 369 1535 C445 1580 511 1628 567 1673 C622 1717 665 1759 697 1791 L713 1791 C745 1759 788 1718 843 1674 C898 1629 964 1580 1041 1535 C1033 1495 1018 1462 999 1450 C950 1465 897 1492 847 1524 C797 1556 748 1593 708 1626 L700 1626 Z M100 656 C100 849 161 1021 268 1143 C375 1265 526 1338 709 1338 C892 1338 1042 1264 1147 1143 C1251 1022 1310 853 1310 664 C1310 469 1255 299 1151 177 C1047 55 895 -20 700 -20 C517 -20 367 55 263 177 C159 299 100 467 100 656 L100 656 Z M216 667 C216 507 261 363 346 259 C430 154 553 89 712 89 C864 89 984 148 1067 248 C1150 348 1194 489 1194 652 C1194 813 1150 958 1067 1062 C983 1166 861 1229 704 1229 C552 1229 430 1169 346 1069 C262 969 216 828 216 667 L216 667 Z "/>
<glyph glyph-name="Otilde" unicode="" horiz-adv-x="1410" d="M943 1625 C986 1632 1023 1619 1050 1598 C1043 1541 1014 1495 973 1463 C932 1431 878 1414 823 1414 C756 1414 714 1440 679 1466 C644 1492 616 1518 576 1518 C553 1518 526 1507 504 1488 C482 1469 466 1443 466 1414 C427 1407 391 1412 359 1441 C366 1501 400 1547 444 1579 C487 1611 540 1627 584 1627 C644 1627 683 1601 718 1575 C753 1549 783 1523 823 1523 C848 1523 878 1534 902 1552 C926 1570 943 1594 943 1625 L943 1625 Z M100 656 C100 849 161 1021 268 1143 C375 1265 526 1338 709 1338 C892 1338 1042 1264 1147 1143 C1251 1022 1310 853 1310 664 C1310 469 1255 299 1151 177 C1047 55 895 -20 700 -20 C517 -20 367 55 263 177 C159 299 100 467 100 656 L100 656 Z M216 667 C216 507 261 363 346 259 C430 154 553 89 712 89 C864 89 984 148 1067 248 C1150 348 1194 489 1194 652 C1194 813 1150 958 1067 1062 C983 1166 861 1229 704 1229 C552 1229 430 1169 346 1069 C262 969 216 828 216 667 L216 667 Z "/>
<glyph glyph-name="Odieresis" unicode="" horiz-adv-x="1410" d="M447 1534 C447 1557 457 1578 473 1594 C488 1609 509 1619 533 1619 C557 1619 578 1609 594 1594 C609 1578 619 1557 619 1534 C619 1511 609 1490 594 1475 C578 1459 557 1449 533 1449 C509 1449 488 1459 473 1475 C457 1490 447 1511 447 1534 L447 1534 Z M770 1534 C770 1557 779 1578 795 1594 C810 1609 831 1619 855 1619 C879 1619 900 1609 916 1594 C932 1578 942 1557 942 1534 C942 1511 932 1490 916 1475 C900 1459 879 1449 855 1449 C831 1449 810 1459 795 1475 C779 1490 770 1511 770 1534 L770 1534 Z M100 656 C100 849 161 1021 268 1143 C375 1265 526 1338 709 1338 C892 1338 1042 1264 1147 1143 C1251 1022 1310 853 1310 664 C1310 469 1255 299 1151 177 C1047 55 895 -20 700 -20 C517 -20 367 55 263 177 C159 299 100 467 100 656 L100 656 Z M216 667 C216 507 261 363 346 259 C430 154 553 89 712 89 C864 89 984 148 1067 248 C1150 348 1194 489 1194 652 C1194 813 1150 958 1067 1062 C983 1166 861 1229 704 1229 C552 1229 430 1169 346 1069 C262 969 216 828 216 667 L216 667 Z "/>
<glyph glyph-name="multiply" unicode="" horiz-adv-x="878" d="M758 806 L518 566 L758 326 L679 247 L439 487 L199 247 L120 326 L360 566 L120 806 L199 885 L439 645 L679 885 L758 806 Z "/>
<glyph glyph-name="Oslash" unicode="" horiz-adv-x="1410" d="M946 1448 L1051 1409 L998 1265 C1095 1209 1174 1126 1228 1023 C1282 919 1310 796 1310 664 C1310 469 1255 299 1151 177 C1047 55 895 -20 700 -20 C643 -20 589 -13 539 1 L463 -207 L358 -168 L434 41 C330 94 246 179 189 285 C132 391 100 517 100 656 C100 849 161 1021 268 1143 C375 1265 526 1338 709 1338 C777 1338 837 1329 896 1310 L946 1448 Z M216 667 C216 554 239 447 283 359 C326 270 390 197 473 149 L858 1206 C810 1221 759 1229 704 1229 C552 1229 430 1169 346 1069 C262 969 216 828 216 667 L216 667 Z M712 89 C864 89 984 148 1067 248 C1150 348 1194 489 1194 652 C1194 763 1174 864 1134 952 C1094 1039 1036 1110 960 1158 L577 106 C620 95 665 89 712 89 L712 89 Z "/>
<glyph glyph-name="Ugrave" unicode="" horiz-adv-x="1278" d="M502 1791 C530 1767 580 1726 646 1680 C712 1634 795 1582 894 1538 C889 1498 877 1464 861 1449 C773 1466 675 1511 593 1560 C511 1608 445 1660 424 1692 C432 1747 461 1768 502 1791 L502 1791 Z M1011 1318 L1097 1318 C1118 1318 1146 1317 1168 1316 C1179 1315 1188 1315 1195 1314 C1210 1312 1211 1309 1215 1294 C1216 1286 1217 1278 1217 1269 C1217 1252 1215 1234 1211 1226 C1187 1221 1150 1214 1111 1209 L1111 490 C1111 345 1087 240 1047 165 C1006 89 948 43 878 16 C808 -12 727 -20 640 -20 C509 -20 392 -1 306 72 C220 145 167 273 167 490 L167 1209 C128 1214 91 1221 67 1226 C63 1234 61 1252 61 1269 C61 1286 64 1303 71 1311 C72 1312 76 1313 83 1314 C98 1316 121 1317 146 1318 L181 1318 L267 1318 C288 1318 316 1317 338 1316 C349 1315 358 1315 365 1314 C380 1312 381 1309 385 1294 C386 1286 387 1278 387 1269 C387 1252 385 1234 381 1226 C357 1221 320 1214 281 1209 L281 507 C281 379 302 289 337 228 C372 167 420 131 473 112 C526 93 584 89 640 89 C695 89 754 93 807 112 C859 131 908 167 942 228 C976 289 997 379 997 507 L997 1209 C958 1214 921 1221 897 1226 C893 1234 891 1252 891 1269 C891 1286 894 1303 901 1311 C902 1312 906 1313 913 1314 C928 1316 951 1317 976 1318 L1011 1318 Z "/>
<glyph glyph-name="Uacute" unicode="" horiz-adv-x="1278" d="M825 1791 C866 1768 895 1747 903 1692 C882 1660 817 1608 735 1560 C653 1511 554 1466 466 1449 C450 1464 438 1498 433 1538 C532 1582 616 1634 682 1680 C748 1726 797 1767 825 1791 L825 1791 Z M1011 1318 L1097 1318 C1118 1318 1146 1317 1168 1316 C1179 1315 1188 1315 1195 1314 C1210 1312 1211 1309 1215 1294 C1216 1286 1217 1278 1217 1269 C1217 1252 1215 1234 1211 1226 C1187 1221 1150 1214 1111 1209 L1111 490 C1111 345 1087 240 1047 165 C1006 89 948 43 878 16 C808 -12 727 -20 640 -20 C509 -20 392 -1 306 72 C220 145 167 273 167 490 L167 1209 C128 1214 91 1221 67 1226 C63 1234 61 1252 61 1269 C61 1286 64 1303 71 1311 C72 1312 76 1313 83 1314 C98 1316 121 1317 146 1318 L181 1318 L267 1318 C288 1318 316 1317 338 1316 C349 1315 358 1315 365 1314 C380 1312 381 1309 385 1294 C386 1286 387 1278 387 1269 C387 1252 385 1234 381 1226 C357 1221 320 1214 281 1209 L281 507 C281 379 302 289 337 228 C372 167 420 131 473 112 C526 93 584 89 640 89 C695 89 754 93 807 112 C859 131 908 167 942 228 C976 289 997 379 997 507 L997 1209 C958 1214 921 1221 897 1226 C893 1234 891 1252 891 1269 C891 1286 894 1303 901 1311 C902 1312 906 1313 913 1314 C928 1316 951 1317 976 1318 L1011 1318 Z "/>
<glyph glyph-name="Ucircumflex" unicode="" horiz-adv-x="1278" d="M637 1625 C597 1592 550 1555 500 1523 C450 1491 397 1464 348 1449 C329 1461 314 1494 306 1534 C382 1579 448 1627 504 1672 C559 1716 602 1758 634 1790 L650 1790 C682 1758 725 1717 780 1673 C835 1628 901 1579 978 1534 C970 1494 955 1461 936 1449 C887 1464 834 1491 784 1523 C734 1555 685 1592 645 1625 L637 1625 Z M1011 1318 L1097 1318 C1118 1318 1146 1317 1168 1316 C1179 1315 1188 1315 1195 1314 C1210 1312 1211 1309 1215 1294 C1216 1286 1217 1278 1217 1269 C1217 1252 1215 1234 1211 1226 C1187 1221 1150 1214 1111 1209 L1111 490 C1111 345 1087 240 1047 165 C1006 89 948 43 878 16 C808 -12 727 -20 640 -20 C509 -20 392 -1 306 72 C220 145 167 273 167 490 L167 1209 C128 1214 91 1221 67 1226 C63 1234 61 1252 61 1269 C61 1286 64 1303 71 1311 C72 1312 76 1313 83 1314 C98 1316 121 1317 146 1318 L181 1318 L267 1318 C288 1318 316 1317 338 1316 C349 1315 358 1315 365 1314 C380 1312 381 1309 385 1294 C386 1286 387 1278 387 1269 C387 1252 385 1234 381 1226 C357 1221 320 1214 281 1209 L281 507 C281 379 302 289 337 228 C372 167 420 131 473 112 C526 93 584 89 640 89 C695 89 754 93 807 112 C859 131 908 167 942 228 C976 289 997 379 997 507 L997 1209 C958 1214 921 1221 897 1226 C893 1234 891 1252 891 1269 C891 1286 894 1303 901 1311 C902 1312 906 1313 913 1314 C928 1316 951 1317 976 1318 L1011 1318 Z "/>
<glyph glyph-name="Udieresis" unicode="" horiz-adv-x="1278" d="M404 1534 C404 1557 414 1578 430 1594 C445 1609 466 1619 490 1619 C514 1619 535 1609 551 1594 C566 1578 576 1557 576 1534 C576 1511 566 1490 551 1475 C535 1459 514 1449 490 1449 C466 1449 445 1459 430 1475 C414 1490 404 1511 404 1534 L404 1534 Z M727 1534 C727 1557 736 1578 752 1594 C767 1609 788 1619 812 1619 C836 1619 857 1609 873 1594 C889 1578 899 1557 899 1534 C899 1511 889 1490 873 1475 C857 1459 836 1449 812 1449 C788 1449 767 1459 752 1475 C736 1490 727 1511 727 1534 L727 1534 Z M1011 1318 L1097 1318 C1118 1318 1146 1317 1168 1316 C1179 1315 1188 1315 1195 1314 C1210 1312 1211 1309 1215 1294 C1216 1286 1217 1278 1217 1269 C1217 1252 1215 1234 1211 1226 C1187 1221 1150 1214 1111 1209 L1111 490 C1111 345 1087 240 1047 165 C1006 89 948 43 878 16 C808 -12 727 -20 640 -20 C509 -20 392 -1 306 72 C220 145 167 273 167 490 L167 1209 C128 1214 91 1221 67 1226 C63 1234 61 1252 61 1269 C61 1286 64 1303 71 1311 C72 1312 76 1313 83 1314 C98 1316 121 1317 146 1318 L181 1318 L267 1318 C288 1318 316 1317 338 1316 C349 1315 358 1315 365 1314 C380 1312 381 1309 385 1294 C386 1286 387 1278 387 1269 C387 1252 385 1234 381 1226 C357 1221 320 1214 281 1209 L281 507 C281 379 302 289 337 228 C372 167 420 131 473 112 C526 93 584 89 640 89 C695 89 754 93 807 112 C859 131 908 167 942 228 C976 289 997 379 997 507 L997 1209 C958 1214 921 1221 897 1226 C893 1234 891 1252 891 1269 C891 1286 894 1303 901 1311 C902 1312 906 1313 913 1314 C928 1316 951 1317 976 1318 L1011 1318 Z "/>
<glyph glyph-name="Yacute" unicode="" horiz-adv-x="1106" d="M748 1790 C789 1767 818 1746 826 1691 C805 1659 740 1607 658 1559 C576 1510 477 1465 389 1448 C373 1463 361 1497 356 1537 C455 1581 539 1633 605 1679 C671 1725 720 1766 748 1790 L748 1790 Z M553 650 L827 1213 C799 1217 774 1222 755 1226 C751 1234 749 1252 749 1269 C749 1286 752 1303 759 1311 C760 1312 764 1313 771 1314 C786 1316 809 1317 834 1318 L869 1318 L955 1318 C976 1318 1004 1317 1026 1316 C1037 1315 1046 1315 1053 1314 C1068 1312 1069 1309 1073 1294 C1074 1286 1075 1278 1075 1269 C1075 1252 1073 1234 1069 1226 C1042 1219 1002 1213 959 1208 L610 492 L610 108 C649 103 686 97 710 92 C714 84 716 66 716 49 C716 32 713 15 706 7 C705 6 702 5 696 4 C683 3 665 1 643 1 C632 0 621 0 610 0 L496 0 C475 0 451 1 433 2 C424 3 416 3 410 4 C404 5 401 6 400 7 C393 15 390 32 390 49 C390 66 392 84 396 92 C420 97 457 103 496 108 L496 492 L146 1208 C105 1213 64 1219 37 1226 C33 1234 31 1252 31 1269 C31 1286 34 1303 41 1311 C42 1312 46 1313 53 1314 C68 1316 91 1317 116 1318 L151 1318 L237 1318 C258 1318 286 1317 308 1316 C319 1315 328 1315 335 1314 C350 1312 351 1309 355 1294 C356 1286 357 1278 357 1269 C357 1252 355 1234 351 1226 C332 1222 306 1217 278 1213 L553 650 Z "/>
<glyph glyph-name="Thorn" unicode="" horiz-adv-x="600" d=""/>
<glyph glyph-name="germandbls" unicode="" horiz-adv-x="1191" d="M228 0 C205 0 180 1 158 2 C147 3 137 3 130 4 C115 5 114 9 111 25 C109 32 108 40 108 49 C108 66 110 84 114 92 C138 97 175 103 214 108 L214 926 L171 926 C148 926 123 927 101 928 C90 929 80 929 73 930 C58 931 57 935 54 951 C52 958 51 966 51 975 C51 992 53 1010 57 1018 C74 1022 100 1027 128 1031 C156 1035 186 1038 214 1041 L214 1051 C214 1210 253 1309 317 1369 C380 1428 466 1448 559 1448 C635 1448 729 1431 805 1388 C881 1344 938 1273 938 1168 C938 1096 902 1050 854 1014 C830 996 804 980 776 966 C720 937 670 908 638 870 C622 851 614 827 614 799 C614 736 646 695 694 663 C741 630 804 606 868 580 C931 554 994 525 1042 482 C1089 438 1121 381 1121 297 C1121 193 1072 114 996 61 C919 8 814 -20 705 -20 C638 -20 559 -11 491 20 C491 29 491 42 492 59 C493 75 493 93 494 112 C495 150 498 191 500 224 C501 241 501 255 502 267 C503 278 503 285 504 288 C527 299 565 301 588 297 C590 292 592 283 595 268 C600 239 607 199 613 156 C616 135 618 115 620 97 C651 92 682 90 709 90 C773 90 847 105 904 137 C961 168 1002 215 1002 282 C1002 339 971 379 923 412 C899 428 872 443 842 456 C781 483 717 510 657 543 C596 575 546 619 518 680 C503 710 496 746 496 787 C496 874 532 928 580 968 C604 988 630 1005 659 1020 C715 1048 765 1076 797 1112 C813 1130 821 1153 821 1180 C821 1232 778 1272 725 1299 C672 1326 606 1339 562 1339 C490 1339 432 1320 392 1274 C351 1228 328 1155 328 1051 L328 108 C367 103 404 97 428 92 C432 84 434 66 434 49 C434 32 431 15 424 7 C423 6 419 5 412 4 C397 3 374 1 349 1 C336 0 325 0 314 0 L228 0 Z "/>
<glyph glyph-name="agrave" unicode="" horiz-adv-x="1039" d="M362 1548 C390 1524 440 1483 506 1437 C572 1391 655 1339 754 1295 C749 1255 737 1221 721 1206 C633 1223 535 1268 453 1317 C371 1365 305 1417 284 1449 C292 1504 321 1525 362 1548 L362 1548 Z M172 984 C269 1029 384 1058 488 1058 C577 1058 660 1037 721 984 C781 931 819 845 819 716 L819 348 C819 287 831 229 857 183 C883 137 923 101 979 88 L914 -20 C838 5 780 66 748 142 C721 95 680 55 627 26 C574 -3 509 -20 436 -20 C391 -20 337 -13 288 6 C239 25 192 55 157 103 C122 150 100 213 100 300 C100 397 128 472 192 523 C256 574 356 600 497 600 C550 600 613 596 705 588 L705 732 C705 812 677 867 636 901 C595 935 538 948 481 948 C429 948 365 937 298 917 C294 881 288 841 283 807 C280 790 278 775 276 762 C273 749 271 741 269 737 C246 733 208 735 185 746 C184 750 183 762 182 782 C179 822 176 875 174 925 C173 950 172 969 172 984 L172 984 Z M705 483 C668 487 638 490 613 491 C600 491 589 491 578 492 L545 492 C505 492 455 492 407 485 C359 477 311 463 276 435 C241 407 218 366 218 305 C218 246 238 193 278 154 C317 114 373 89 445 89 C556 89 644 144 705 261 L705 483 Z "/>
<glyph glyph-name="aacute" unicode="" horiz-adv-x="1039" d="M643 1548 C684 1525 713 1504 721 1449 C700 1417 635 1365 553 1317 C471 1268 372 1223 284 1206 C268 1221 256 1255 251 1295 C350 1339 434 1391 500 1437 C566 1483 615 1524 643 1548 L643 1548 Z M172 984 C269 1029 384 1058 488 1058 C577 1058 660 1037 721 984 C781 931 819 845 819 716 L819 348 C819 287 831 229 857 183 C883 137 923 101 979 88 L914 -20 C838 5 780 66 748 142 C721 95 680 55 627 26 C574 -3 509 -20 436 -20 C391 -20 337 -13 288 6 C239 25 192 55 157 103 C122 150 100 213 100 300 C100 397 128 472 192 523 C256 574 356 600 497 600 C550 600 613 596 705 588 L705 732 C705 812 677 867 636 901 C595 935 538 948 481 948 C429 948 365 937 298 917 C294 881 288 841 283 807 C280 790 278 775 276 762 C273 749 271 741 269 737 C246 733 208 735 185 746 C184 750 183 762 182 782 C179 822 176 875 174 925 C173 950 172 969 172 984 L172 984 Z M705 483 C668 487 638 490 613 491 C600 491 589 491 578 492 L545 492 C505 492 455 492 407 485 C359 477 311 463 276 435 C241 407 218 366 218 305 C218 246 238 193 278 154 C317 114 373 89 445 89 C556 89 644 144 705 261 L705 483 Z "/>
<glyph glyph-name="acircumflex" unicode="" horiz-adv-x="1039" d="M489 1383 C449 1350 402 1313 352 1281 C302 1249 249 1222 200 1207 C181 1219 166 1252 158 1292 C234 1337 300 1385 356 1430 C411 1474 454 1516 486 1548 L502 1548 C534 1516 577 1475 632 1431 C687 1386 753 1337 830 1292 C822 1252 807 1219 788 1207 C739 1222 686 1249 636 1281 C586 1313 537 1350 497 1383 L489 1383 Z M172 984 C269 1029 384 1058 488 1058 C577 1058 660 1037 721 984 C781 931 819 845 819 716 L819 348 C819 287 831 229 857 183 C883 137 923 101 979 88 L914 -20 C838 5 780 66 748 142 C721 95 680 55 627 26 C574 -3 509 -20 436 -20 C391 -20 337 -13 288 6 C239 25 192 55 157 103 C122 150 100 213 100 300 C100 397 128 472 192 523 C256 574 356 600 497 600 C550 600 613 596 705 588 L705 732 C705 812 677 867 636 901 C595 935 538 948 481 948 C429 948 365 937 298 917 C294 881 288 841 283 807 C280 790 278 775 276 762 C273 749 271 741 269 737 C246 733 208 735 185 746 C184 750 183 762 182 782 C179 822 176 875 174 925 C173 950 172 969 172 984 L172 984 Z M705 483 C668 487 638 490 613 491 C600 491 589 491 578 492 L545 492 C505 492 455 492 407 485 C359 477 311 463 276 435 C241 407 218 366 218 305 C218 246 238 193 278 154 C317 114 373 89 445 89 C556 89 644 144 705 261 L705 483 Z "/>
<glyph glyph-name="atilde" unicode="" horiz-adv-x="1039" d="M736 1331 C779 1338 816 1325 843 1304 C836 1247 807 1201 766 1169 C725 1137 671 1120 616 1120 C549 1120 507 1146 472 1172 C437 1198 409 1224 369 1224 C346 1224 319 1213 297 1194 C275 1175 259 1149 259 1120 C220 1113 184 1118 152 1147 C159 1207 193 1253 237 1285 C280 1317 333 1333 377 1333 C437 1333 476 1307 511 1281 C546 1255 576 1229 616 1229 C641 1229 671 1240 695 1258 C719 1276 736 1300 736 1331 L736 1331 Z M172 984 C269 1029 384 1058 488 1058 C577 1058 660 1037 721 984 C781 931 819 845 819 716 L819 348 C819 287 831 229 857 183 C883 137 923 101 979 88 L914 -20 C838 5 780 66 748 142 C721 95 680 55 627 26 C574 -3 509 -20 436 -20 C391 -20 337 -13 288 6 C239 25 192 55 157 103 C122 150 100 213 100 300 C100 397 128 472 192 523 C256 574 356 600 497 600 C550 600 613 596 705 588 L705 732 C705 812 677 867 636 901 C595 935 538 948 481 948 C429 948 365 937 298 917 C294 881 288 841 283 807 C280 790 278 775 276 762 C273 749 271 741 269 737 C246 733 208 735 185 746 C184 750 183 762 182 782 C179 822 176 875 174 925 C173 950 172 969 172 984 L172 984 Z M705 483 C668 487 638 490 613 491 C600 491 589 491 578 492 L545 492 C505 492 455 492 407 485 C359 477 311 463 276 435 C241 407 218 366 218 305 C218 246 238 193 278 154 C317 114 373 89 445 89 C556 89 644 144 705 261 L705 483 Z "/>
<glyph glyph-name="adieresis" unicode="" horiz-adv-x="1039" d="M252 1324 C252 1347 262 1368 278 1384 C293 1399 314 1409 338 1409 C362 1409 383 1399 399 1384 C414 1368 424 1347 424 1324 C424 1301 414 1280 399 1265 C383 1249 362 1239 338 1239 C314 1239 293 1249 278 1265 C262 1280 252 1301 252 1324 L252 1324 Z M575 1324 C575 1347 584 1368 600 1384 C615 1399 636 1409 660 1409 C684 1409 705 1399 721 1384 C737 1368 747 1347 747 1324 C747 1301 737 1280 721 1265 C705 1249 684 1239 660 1239 C636 1239 615 1249 600 1265 C584 1280 575 1301 575 1324 L575 1324 Z M172 984 C269 1029 384 1058 488 1058 C577 1058 660 1037 721 984 C781 931 819 845 819 716 L819 348 C819 287 831 229 857 183 C883 137 923 101 979 88 L914 -20 C838 5 780 66 748 142 C721 95 680 55 627 26 C574 -3 509 -20 436 -20 C391 -20 337 -13 288 6 C239 25 192 55 157 103 C122 150 100 213 100 300 C100 397 128 472 192 523 C256 574 356 600 497 600 C550 600 613 596 705 588 L705 732 C705 812 677 867 636 901 C595 935 538 948 481 948 C429 948 365 937 298 917 C294 881 288 841 283 807 C280 790 278 775 276 762 C273 749 271 741 269 737 C246 733 208 735 185 746 C184 750 183 762 182 782 C179 822 176 875 174 925 C173 950 172 969 172 984 L172 984 Z M705 483 C668 487 638 490 613 491 C600 491 589 491 578 492 L545 492 C505 492 455 492 407 485 C359 477 311 463 276 435 C241 407 218 366 218 305 C218 246 238 193 278 154 C317 114 373 89 445 89 C556 89 644 144 705 261 L705 483 Z "/>
<glyph glyph-name="aring" unicode="" horiz-adv-x="1039" d="M321 1319 C321 1372 344 1422 380 1458 C416 1494 466 1516 521 1516 C574 1516 625 1494 662 1458 C699 1422 722 1372 722 1319 C722 1266 699 1216 662 1180 C625 1143 574 1120 521 1120 C466 1120 416 1143 380 1180 C344 1216 321 1266 321 1319 L321 1319 Z M432 1319 C432 1295 442 1273 459 1257 C475 1240 497 1230 521 1230 C545 1230 568 1240 584 1257 C600 1273 611 1295 611 1319 C611 1343 600 1365 584 1381 C568 1397 545 1408 521 1408 C497 1408 475 1397 459 1381 C442 1365 432 1343 432 1319 L432 1319 Z M172 984 C269 1029 384 1058 488 1058 C577 1058 660 1037 721 984 C781 931 819 845 819 716 L819 348 C819 287 831 229 857 183 C883 137 923 101 979 88 L914 -20 C838 5 780 66 748 142 C721 95 680 55 627 26 C574 -3 509 -20 436 -20 C391 -20 337 -13 288 6 C239 25 192 55 157 103 C122 150 100 213 100 300 C100 397 128 472 192 523 C256 574 356 600 497 600 C550 600 613 596 705 588 L705 732 C705 812 677 867 636 901 C595 935 538 948 481 948 C429 948 365 937 298 917 C294 881 288 841 283 807 C280 790 278 775 276 762 C273 749 271 741 269 737 C246 733 208 735 185 746 C184 750 183 762 182 782 C179 822 176 875 174 925 C173 950 172 969 172 984 L172 984 Z M705 483 C668 487 638 490 613 491 C600 491 589 491 578 492 L545 492 C505 492 455 492 407 485 C359 477 311 463 276 435 C241 407 218 366 218 305 C218 246 238 193 278 154 C317 114 373 89 445 89 C556 89 644 144 705 261 L705 483 Z "/>
<glyph glyph-name="ae" unicode="" horiz-adv-x="1564" d="M1474 495 L821 495 C826 358 869 257 936 190 C1003 122 1092 89 1192 89 C1243 89 1286 95 1330 108 C1374 120 1417 139 1468 164 L1472 161 L1472 54 C1365 1 1271 -20 1175 -20 C1092 -20 1016 -3 948 33 C880 68 823 122 780 197 C756 137 713 82 654 43 C595 4 521 -20 436 -20 C391 -20 337 -13 288 6 C239 25 192 55 157 103 C122 150 100 213 100 300 C100 397 128 472 192 523 C256 574 356 600 497 600 C550 600 613 596 705 588 L705 732 C705 812 677 867 636 901 C595 935 538 948 481 948 C429 948 365 937 298 917 C294 881 288 841 283 807 C280 790 278 775 276 762 C273 749 271 741 269 737 C246 733 208 735 185 746 C184 750 183 762 182 782 C179 822 176 875 174 925 C173 950 172 969 172 984 C269 1029 384 1058 488 1058 C553 1058 615 1047 667 1020 C719 993 762 951 789 888 C857 993 965 1058 1132 1058 C1236 1058 1307 1030 1358 986 C1409 941 1437 881 1453 814 C1469 747 1473 675 1474 608 L1474 495 Z M1355 608 C1355 697 1346 782 1314 845 C1281 908 1225 948 1130 948 C1034 948 963 912 913 852 C863 791 834 705 825 608 L1355 608 Z M445 89 C506 89 565 108 615 147 C665 186 705 243 730 322 C717 370 708 422 705 481 L705 483 C668 487 638 490 613 491 C600 491 589 491 578 492 L545 492 C505 492 455 492 407 485 C359 477 311 463 276 435 C241 407 218 366 218 305 C218 246 238 193 278 154 C317 114 373 89 445 89 L445 89 Z "/>
<glyph glyph-name="ccedilla" unicode="" horiz-adv-x="919" d="M859 29 C784 3 710 -13 636 -18 L636 -56 C704 -72 748 -106 776 -145 C804 -184 814 -229 814 -269 C814 -333 787 -386 743 -422 C699 -458 637 -478 568 -478 C504 -478 443 -462 391 -427 C395 -388 401 -362 428 -342 C445 -350 473 -359 499 -364 C525 -369 550 -373 569 -373 C596 -373 629 -365 657 -348 C684 -331 704 -304 704 -265 C704 -229 686 -197 655 -173 C623 -150 578 -136 522 -136 L522 -17 C403 -5 298 41 222 130 C146 218 100 348 100 531 C100 722 155 853 243 937 C330 1021 449 1058 580 1058 C671 1058 764 1042 859 1009 C859 980 857 925 854 875 C852 850 850 827 849 807 C848 787 847 775 846 771 C823 760 785 758 762 762 C760 766 758 774 755 786 C752 798 750 812 748 829 C745 846 743 864 740 883 C737 902 735 920 733 937 C682 944 634 948 595 948 C491 948 397 920 329 854 C261 788 219 684 219 532 C219 380 261 269 329 197 C397 125 491 90 595 90 C631 90 680 93 729 101 C733 137 740 183 746 223 C749 243 752 261 755 276 C758 291 760 301 762 306 C785 310 823 308 846 297 C847 294 847 287 848 276 L851 233 C853 200 855 159 856 121 C857 102 857 84 858 68 C859 51 859 38 859 29 L859 29 Z "/>
<glyph glyph-name="egrave" unicode="" horiz-adv-x="960" d="M352 1548 C380 1524 430 1483 496 1437 C562 1391 645 1339 744 1295 C739 1255 727 1221 711 1206 C623 1223 525 1268 443 1317 C361 1365 295 1417 274 1449 C282 1504 311 1525 352 1548 L352 1548 Z M870 495 L217 495 C222 358 265 257 332 190 C399 122 488 89 588 89 C639 89 682 95 726 108 C770 120 813 139 864 164 L868 161 L868 54 C761 1 667 -20 571 -20 C442 -20 324 23 239 113 C154 203 100 340 100 532 C100 680 129 813 197 907 C265 1001 372 1058 528 1058 C632 1058 703 1030 754 986 C805 941 833 881 849 814 C865 747 869 675 870 608 L870 495 Z M526 948 C430 948 359 912 309 852 C259 791 230 705 221 608 L751 608 C751 697 742 782 710 845 C677 908 621 948 526 948 L526 948 Z "/>
<glyph glyph-name="eacute" unicode="" horiz-adv-x="960" d="M683 1548 C724 1525 753 1504 761 1449 C740 1417 675 1365 593 1317 C511 1268 412 1223 324 1206 C308 1221 296 1255 291 1295 C390 1339 474 1391 540 1437 C606 1483 655 1524 683 1548 L683 1548 Z M870 495 L217 495 C222 358 265 257 332 190 C399 122 488 89 588 89 C639 89 682 95 726 108 C770 120 813 139 864 164 L868 161 L868 54 C761 1 667 -20 571 -20 C442 -20 324 23 239 113 C154 203 100 340 100 532 C100 680 129 813 197 907 C265 1001 372 1058 528 1058 C632 1058 703 1030 754 986 C805 941 833 881 849 814 C865 747 869 675 870 608 L870 495 Z M526 948 C430 948 359 912 309 852 C259 791 230 705 221 608 L751 608 C751 697 742 782 710 845 C677 908 621 948 526 948 L526 948 Z "/>
<glyph glyph-name="ecircumflex" unicode="" horiz-adv-x="960" d="M516 1383 C476 1350 429 1313 379 1281 C329 1249 276 1222 227 1207 C208 1219 193 1252 185 1292 C261 1337 327 1385 383 1430 C438 1474 481 1516 513 1548 L529 1548 C561 1516 604 1475 659 1431 C714 1386 780 1337 857 1292 C849 1252 834 1219 815 1207 C766 1222 713 1249 663 1281 C613 1313 564 1350 524 1383 L516 1383 Z M870 495 L217 495 C222 358 265 257 332 190 C399 122 488 89 588 89 C639 89 682 95 726 108 C770 120 813 139 864 164 L868 161 L868 54 C761 1 667 -20 571 -20 C442 -20 324 23 239 113 C154 203 100 340 100 532 C100 680 129 813 197 907 C265 1001 372 1058 528 1058 C632 1058 703 1030 754 986 C805 941 833 881 849 814 C865 747 869 675 870 608 L870 495 Z M526 948 C430 948 359 912 309 852 C259 791 230 705 221 608 L751 608 C751 697 742 782 710 845 C677 908 621 948 526 948 L526 948 Z "/>
<glyph glyph-name="edieresis" unicode="" horiz-adv-x="960" d="M264 1324 C264 1347 274 1368 290 1384 C305 1399 326 1409 350 1409 C374 1409 395 1399 411 1384 C426 1368 436 1347 436 1324 C436 1301 426 1280 411 1265 C395 1249 374 1239 350 1239 C326 1239 305 1249 290 1265 C274 1280 264 1301 264 1324 L264 1324 Z M587 1324 C587 1347 596 1368 612 1384 C627 1399 648 1409 672 1409 C696 1409 717 1399 733 1384 C749 1368 759 1347 759 1324 C759 1301 749 1280 733 1265 C717 1249 696 1239 672 1239 C648 1239 627 1249 612 1265 C596 1280 587 1301 587 1324 L587 1324 Z M870 495 L217 495 C222 358 265 257 332 190 C399 122 488 89 588 89 C639 89 682 95 726 108 C770 120 813 139 864 164 L868 161 L868 54 C761 1 667 -20 571 -20 C442 -20 324 23 239 113 C154 203 100 340 100 532 C100 680 129 813 197 907 C265 1001 372 1058 528 1058 C632 1058 703 1030 754 986 C805 941 833 881 849 814 C865 747 869 675 870 608 L870 495 Z M526 948 C430 948 359 912 309 852 C259 791 230 705 221 608 L751 608 C751 697 742 782 710 845 C677 908 621 948 526 948 L526 948 Z "/>
<glyph glyph-name="igrave" unicode="" horiz-adv-x="488" d="M69 1548 C97 1524 147 1483 213 1437 C279 1391 362 1339 461 1295 C456 1255 444 1221 428 1206 C340 1223 242 1268 160 1317 C78 1365 12 1417 -9 1449 C-1 1504 28 1525 69 1548 L69 1548 Z M303 1058 L303 108 C342 103 379 97 403 92 C407 84 409 66 409 49 C409 32 406 15 399 7 C398 6 394 5 387 4 C372 3 349 1 324 1 C311 0 300 0 289 0 L203 0 C180 0 155 1 133 2 C122 3 112 3 105 4 C90 5 89 9 86 25 C84 32 83 40 83 49 C83 66 85 84 89 92 C113 97 150 103 189 108 L189 940 C169 940 146 941 127 942 C108 943 93 945 88 946 C85 950 82 966 82 983 C81 1000 81 1020 85 1031 C121 1043 168 1050 208 1054 L258 1057 C272 1058 281 1058 284 1058 L303 1058 Z "/>
<glyph glyph-name="iacute" unicode="" horiz-adv-x="488" d="M345 1548 C386 1525 415 1504 423 1449 C402 1417 337 1365 255 1317 C173 1268 74 1223 -14 1206 C-30 1221 -42 1255 -47 1295 C52 1339 136 1391 202 1437 C268 1483 317 1524 345 1548 L345 1548 Z M303 1058 L303 108 C342 103 379 97 403 92 C407 84 409 66 409 49 C409 32 406 15 399 7 C398 6 394 5 387 4 C372 3 349 1 324 1 C311 0 300 0 289 0 L203 0 C180 0 155 1 133 2 C122 3 112 3 105 4 C90 5 89 9 86 25 C84 32 83 40 83 49 C83 66 85 84 89 92 C113 97 150 103 189 108 L189 940 C169 940 146 941 127 942 C108 943 93 945 88 946 C85 950 82 966 82 983 C81 1000 81 1020 85 1031 C121 1043 168 1050 208 1054 L258 1057 C272 1058 281 1058 284 1058 L303 1058 Z "/>
<glyph glyph-name="icircumflex" unicode="" horiz-adv-x="488" d="M196 1383 C156 1350 109 1313 59 1281 C9 1249 -44 1222 -93 1207 C-112 1219 -127 1252 -135 1292 C-59 1337 7 1385 63 1430 C118 1474 161 1516 193 1548 L209 1548 C241 1516 284 1475 339 1431 C394 1386 460 1337 537 1292 C529 1252 514 1219 495 1207 C446 1222 393 1249 343 1281 C293 1313 244 1350 204 1383 L196 1383 Z M303 1058 L303 108 C342 103 379 97 403 92 C407 84 409 66 409 49 C409 32 406 15 399 7 C398 6 394 5 387 4 C372 3 349 1 324 1 C311 0 300 0 289 0 L203 0 C180 0 155 1 133 2 C122 3 112 3 105 4 C90 5 89 9 86 25 C84 32 83 40 83 49 C83 66 85 84 89 92 C113 97 150 103 189 108 L189 940 C169 940 146 941 127 942 C108 943 93 945 88 946 C85 950 82 966 82 983 C81 1000 81 1020 85 1031 C121 1043 168 1050 208 1054 L258 1057 C272 1058 281 1058 284 1058 L303 1058 Z "/>
<glyph glyph-name="idieresis" unicode="" horiz-adv-x="488" d="M-31 1364 C-31 1387 -21 1408 -5 1424 C10 1439 31 1449 55 1449 C79 1449 100 1439 116 1424 C131 1408 141 1387 141 1364 C141 1341 131 1320 116 1305 C100 1289 79 1279 55 1279 C31 1279 10 1289 -5 1305 C-21 1320 -31 1341 -31 1364 L-31 1364 Z M292 1364 C292 1387 301 1408 317 1424 C332 1439 353 1449 377 1449 C401 1449 422 1439 438 1424 C454 1408 464 1387 464 1364 C464 1341 454 1320 438 1305 C422 1289 401 1279 377 1279 C353 1279 332 1289 317 1305 C301 1320 292 1341 292 1364 L292 1364 Z M303 1058 L303 108 C342 103 379 97 403 92 C407 84 409 66 409 49 C409 32 406 15 399 7 C398 6 394 5 387 4 C372 3 349 1 324 1 C311 0 300 0 289 0 L203 0 C180 0 155 1 133 2 C122 3 112 3 105 4 C90 5 89 9 86 25 C84 32 83 40 83 49 C83 66 85 84 89 92 C113 97 150 103 189 108 L189 940 C169 940 146 941 127 942 C108 943 93 945 88 946 C85 950 82 966 82 983 C81 1000 81 1020 85 1031 C121 1043 168 1050 208 1054 L258 1057 C272 1058 281 1058 284 1058 L303 1058 Z "/>
<glyph glyph-name="eth" unicode="" horiz-adv-x="1134" d="M1031 550 C1033 531 1034 511 1034 490 C1034 339 988 213 905 123 C822 33 704 -20 563 -20 C420 -20 305 33 225 122 C145 211 100 337 100 484 C100 636 147 764 230 855 C313 946 430 998 571 998 C655 998 727 980 791 947 C750 1010 692 1081 608 1153 L383 1070 C380 1035 376 1005 373 994 C350 983 312 981 289 985 C284 997 275 1026 267 1058 C259 1089 254 1122 254 1143 L266 1148 L502 1234 C437 1279 363 1322 276 1361 L340 1448 C373 1436 419 1417 470 1390 C521 1362 577 1327 634 1283 L823 1352 C831 1384 839 1414 846 1426 C869 1430 907 1428 930 1417 L938 1362 C941 1336 943 1305 943 1276 L732 1198 C809 1123 883 1034 937 926 C991 818 1027 694 1031 550 L1031 550 Z M572 89 C684 89 771 128 831 196 C890 264 920 362 920 482 C920 601 890 703 831 775 C771 847 683 889 567 889 C454 889 366 849 306 781 C246 712 214 613 214 494 C214 375 245 275 306 203 C366 131 456 89 572 89 L572 89 Z "/>
<glyph glyph-name="ntilde" unicode="" horiz-adv-x="1134" d="M799 1441 C842 1448 879 1435 906 1414 C899 1357 870 1311 829 1279 C788 1247 734 1230 679 1230 C612 1230 570 1256 535 1282 C500 1308 472 1334 432 1334 C409 1334 382 1323 360 1304 C338 1285 322 1259 322 1230 C283 1223 247 1228 215 1257 C222 1317 256 1363 300 1395 C343 1427 396 1443 440 1443 C500 1443 539 1417 574 1391 C609 1365 639 1339 679 1339 C704 1339 734 1350 758 1368 C782 1386 799 1410 799 1441 L799 1441 Z M857 0 C834 0 809 1 787 2 C776 3 766 3 759 4 C744 5 743 9 740 25 C738 32 737 40 737 49 C737 66 739 84 743 92 C767 97 804 103 843 108 L843 683 C843 775 814 842 770 885 C726 928 666 948 603 948 C550 948 495 934 444 912 C392 890 343 860 302 828 L302 108 C341 103 378 97 402 92 C406 84 408 66 408 49 C408 32 405 15 398 7 C397 6 393 5 386 4 C371 3 348 1 323 1 C310 0 299 0 288 0 L202 0 C179 0 154 1 132 2 C121 3 111 3 104 4 C89 5 88 9 85 25 C83 32 82 40 82 49 C82 66 84 84 88 92 C112 97 149 103 188 108 L188 940 C168 940 146 941 127 942 C108 943 93 945 88 946 C85 950 82 966 82 983 C81 1000 81 1020 85 1031 C114 1040 150 1047 183 1051 C200 1053 215 1055 230 1056 C244 1057 256 1057 265 1058 L299 942 C398 1006 505 1058 622 1058 C702 1058 786 1034 850 980 C913 926 957 842 957 725 L957 108 C996 103 1033 97 1057 92 C1061 84 1063 66 1063 49 C1063 32 1060 15 1053 7 C1052 6 1048 5 1041 4 C1026 3 1003 1 978 1 C965 0 954 0 943 0 L857 0 Z "/>
<glyph glyph-name="ograve" unicode="" horiz-adv-x="1134" d="M410 1548 C438 1524 488 1483 554 1437 C620 1391 703 1339 802 1295 C797 1255 785 1221 769 1206 C681 1223 583 1268 501 1317 C419 1365 353 1417 332 1449 C340 1504 369 1525 410 1548 L410 1548 Z M100 516 C100 668 147 803 230 901 C313 999 430 1058 571 1058 C712 1058 829 997 909 901 C989 804 1034 670 1034 522 C1034 371 988 237 905 139 C822 41 704 -20 563 -20 C420 -20 305 41 225 138 C145 235 100 369 100 516 L100 516 Z M214 526 C214 407 245 299 306 219 C366 139 456 89 572 89 C684 89 771 136 831 212 C890 288 920 394 920 514 C920 633 890 741 831 821 C771 900 683 949 567 949 C454 949 366 902 306 826 C246 750 214 645 214 526 L214 526 Z "/>
<glyph glyph-name="oacute" unicode="" horiz-adv-x="1134" d="M724 1548 C765 1525 794 1504 802 1449 C781 1417 716 1365 634 1317 C552 1268 453 1223 365 1206 C349 1221 337 1255 332 1295 C431 1339 515 1391 581 1437 C647 1483 696 1524 724 1548 L724 1548 Z M100 516 C100 668 147 803 230 901 C313 999 430 1058 571 1058 C712 1058 829 997 909 901 C989 804 1034 670 1034 522 C1034 371 988 237 905 139 C822 41 704 -20 563 -20 C420 -20 305 41 225 138 C145 235 100 369 100 516 L100 516 Z M214 526 C214 407 245 299 306 219 C366 139 456 89 572 89 C684 89 771 136 831 212 C890 288 920 394 920 514 C920 633 890 741 831 821 C771 900 683 949 567 949 C454 949 366 902 306 826 C246 750 214 645 214 526 L214 526 Z "/>
<glyph glyph-name="ocircumflex" unicode="" horiz-adv-x="1134" d="M562 1383 C522 1350 475 1313 425 1281 C375 1249 322 1222 273 1207 C254 1219 239 1252 231 1292 C307 1337 373 1385 429 1430 C484 1474 527 1516 559 1548 L575 1548 C607 1516 650 1475 705 1431 C760 1386 826 1337 903 1292 C895 1252 880 1219 861 1207 C812 1222 759 1249 709 1281 C659 1313 610 1350 570 1383 L562 1383 Z M100 516 C100 668 147 803 230 901 C313 999 430 1058 571 1058 C712 1058 829 997 909 901 C989 804 1034 670 1034 522 C1034 371 988 237 905 139 C822 41 704 -20 563 -20 C420 -20 305 41 225 138 C145 235 100 369 100 516 L100 516 Z M214 526 C214 407 245 299 306 219 C366 139 456 89 572 89 C684 89 771 136 831 212 C890 288 920 394 920 514 C920 633 890 741 831 821 C771 900 683 949 567 949 C454 949 366 902 306 826 C246 750 214 645 214 526 L214 526 Z "/>
<glyph glyph-name="otilde" unicode="" horiz-adv-x="1134" d="M820 1441 C863 1448 900 1435 927 1414 C920 1357 891 1311 850 1279 C809 1247 755 1230 700 1230 C633 1230 591 1256 556 1282 C521 1308 493 1334 453 1334 C430 1334 403 1323 381 1304 C359 1285 343 1259 343 1230 C304 1223 268 1228 236 1257 C243 1317 277 1363 321 1395 C364 1427 417 1443 461 1443 C521 1443 560 1417 595 1391 C630 1365 660 1339 700 1339 C725 1339 755 1350 779 1368 C803 1386 820 1410 820 1441 L820 1441 Z M100 516 C100 668 147 803 230 901 C313 999 430 1058 571 1058 C712 1058 829 997 909 901 C989 804 1034 670 1034 522 C1034 371 988 237 905 139 C822 41 704 -20 563 -20 C420 -20 305 41 225 138 C145 235 100 369 100 516 L100 516 Z M214 526 C214 407 245 299 306 219 C366 139 456 89 572 89 C684 89 771 136 831 212 C890 288 920 394 920 514 C920 633 890 741 831 821 C771 900 683 949 567 949 C454 949 366 902 306 826 C246 750 214 645 214 526 L214 526 Z "/>
<glyph glyph-name="odieresis" unicode="" horiz-adv-x="1134" d="M328 1365 C328 1388 338 1409 354 1425 C369 1440 390 1450 414 1450 C438 1450 459 1440 475 1425 C490 1409 500 1388 500 1365 C500 1342 490 1321 475 1306 C459 1290 438 1280 414 1280 C390 1280 369 1290 354 1306 C338 1321 328 1342 328 1365 L328 1365 Z M651 1365 C651 1388 660 1409 676 1425 C691 1440 712 1450 736 1450 C760 1450 781 1440 797 1425 C813 1409 823 1388 823 1365 C823 1342 813 1321 797 1306 C781 1290 760 1280 736 1280 C712 1280 691 1290 676 1306 C660 1321 651 1342 651 1365 L651 1365 Z M100 516 C100 668 147 803 230 901 C313 999 430 1058 571 1058 C712 1058 829 997 909 901 C989 804 1034 670 1034 522 C1034 371 988 237 905 139 C822 41 704 -20 563 -20 C420 -20 305 41 225 138 C145 235 100 369 100 516 L100 516 Z M214 526 C214 407 245 299 306 219 C366 139 456 89 572 89 C684 89 771 136 831 212 C890 288 920 394 920 514 C920 633 890 741 831 821 C771 900 683 949 567 949 C454 949 366 902 306 826 C246 750 214 645 214 526 L214 526 Z "/>
<glyph glyph-name="divide" unicode="" horiz-adv-x="1030" d="M428 924 C428 947 438 967 454 983 C469 998 490 1008 513 1008 C536 1008 557 998 573 983 C589 967 599 947 599 924 C599 901 589 881 573 866 C557 850 536 840 513 840 C490 840 469 850 454 866 C438 881 428 901 428 924 L428 924 Z M120 622 L910 622 L910 510 L120 510 L120 622 Z M428 208 C428 231 438 251 454 267 C469 282 490 292 513 292 C536 292 557 282 573 267 C589 251 599 231 599 208 C599 185 589 165 573 150 C557 134 536 124 513 124 C490 124 469 134 454 150 C438 165 428 185 428 208 L428 208 Z "/>
<glyph glyph-name="oslash" unicode="" horiz-adv-x="1134" d="M777 1256 L882 1217 L801 995 C874 950 933 882 973 801 C1013 720 1034 623 1034 522 C1034 371 988 237 905 139 C822 41 704 -20 563 -20 C520 -20 478 -14 438 -3 L364 -207 L259 -168 L335 42 C260 87 202 155 162 236 C122 317 100 413 100 516 C100 668 147 803 230 901 C313 999 430 1058 571 1058 C616 1058 659 1052 699 1040 L777 1256 Z M214 526 C214 447 227 373 255 309 C282 244 322 189 375 150 L661 937 C632 945 600 949 567 949 C454 949 366 902 306 826 C246 750 214 645 214 526 L214 526 Z M572 89 C684 89 771 136 831 212 C890 288 920 394 920 514 C920 593 907 668 881 732 C855 796 814 849 762 888 L476 102 C505 93 537 89 572 89 L572 89 Z "/>
<glyph glyph-name="ugrave" unicode="" horiz-adv-x="1149" d="M417 1548 C445 1524 495 1483 561 1437 C627 1391 710 1339 809 1295 C804 1255 792 1221 776 1206 C688 1223 590 1268 508 1317 C426 1365 360 1417 339 1449 C347 1504 376 1525 417 1548 L417 1548 Z M941 1058 L941 108 L981 108 C1013 108 1045 106 1069 105 C1093 104 1092 106 1096 83 C1098 71 1099 59 1099 47 C1099 30 1097 17 1092 9 C1052 -3 1003 -11 961 -15 C940 -17 921 -18 906 -19 C890 -20 880 -20 877 -20 L871 -20 L835 98 C786 66 733 36 677 15 C621 -6 562 -20 505 -20 C425 -20 341 5 278 59 C214 113 170 196 170 313 L170 940 C150 940 128 941 109 942 C90 943 75 945 70 946 C67 950 64 966 64 983 C63 1000 63 1020 67 1031 C103 1043 150 1050 190 1054 L240 1057 C254 1058 263 1058 266 1058 L285 1058 L285 355 C285 263 314 196 358 153 C402 109 462 89 525 89 C578 89 633 103 685 126 C736 149 785 178 826 210 L826 940 C806 940 784 941 765 942 C746 943 731 945 726 946 C723 950 720 966 720 983 C719 1000 719 1020 723 1031 C759 1043 806 1050 846 1054 L896 1057 C910 1058 919 1058 922 1058 L941 1058 Z "/>
<glyph glyph-name="uacute" unicode="" horiz-adv-x="1149" d="M731 1548 C772 1525 801 1504 809 1449 C788 1417 723 1365 641 1317 C559 1268 460 1223 372 1206 C356 1221 344 1255 339 1295 C438 1339 522 1391 588 1437 C654 1483 703 1524 731 1548 L731 1548 Z M941 1058 L941 108 L981 108 C1013 108 1045 106 1069 105 C1093 104 1092 106 1096 83 C1098 71 1099 59 1099 47 C1099 30 1097 17 1092 9 C1052 -3 1003 -11 961 -15 C940 -17 921 -18 906 -19 C890 -20 880 -20 877 -20 L871 -20 L835 98 C786 66 733 36 677 15 C621 -6 562 -20 505 -20 C425 -20 341 5 278 59 C214 113 170 196 170 313 L170 940 C150 940 128 941 109 942 C90 943 75 945 70 946 C67 950 64 966 64 983 C63 1000 63 1020 67 1031 C103 1043 150 1050 190 1054 L240 1057 C254 1058 263 1058 266 1058 L285 1058 L285 355 C285 263 314 196 358 153 C402 109 462 89 525 89 C578 89 633 103 685 126 C736 149 785 178 826 210 L826 940 C806 940 784 941 765 942 C746 943 731 945 726 946 C723 950 720 966 720 983 C719 1000 719 1020 723 1031 C759 1043 806 1050 846 1054 L896 1057 C910 1058 919 1058 922 1058 L941 1058 Z "/>
<glyph glyph-name="ucircumflex" unicode="" horiz-adv-x="1149" d="M531 1383 C491 1350 444 1313 394 1281 C344 1249 291 1222 242 1207 C223 1219 208 1252 200 1292 C276 1337 342 1385 398 1430 C453 1474 496 1516 528 1548 L544 1548 C576 1516 619 1475 674 1431 C729 1386 795 1337 872 1292 C864 1252 849 1219 830 1207 C781 1222 728 1249 678 1281 C628 1313 579 1350 539 1383 L531 1383 Z M941 1058 L941 108 L981 108 C1013 108 1045 106 1069 105 C1093 104 1092 106 1096 83 C1098 71 1099 59 1099 47 C1099 30 1097 17 1092 9 C1052 -3 1003 -11 961 -15 C940 -17 921 -18 906 -19 C890 -20 880 -20 877 -20 L871 -20 L835 98 C786 66 733 36 677 15 C621 -6 562 -20 505 -20 C425 -20 341 5 278 59 C214 113 170 196 170 313 L170 940 C150 940 128 941 109 942 C90 943 75 945 70 946 C67 950 64 966 64 983 C63 1000 63 1020 67 1031 C103 1043 150 1050 190 1054 L240 1057 C254 1058 263 1058 266 1058 L285 1058 L285 355 C285 263 314 196 358 153 C402 109 462 89 525 89 C578 89 633 103 685 126 C736 149 785 178 826 210 L826 940 C806 940 784 941 765 942 C746 943 731 945 726 946 C723 950 720 966 720 983 C719 1000 719 1020 723 1031 C759 1043 806 1050 846 1054 L896 1057 C910 1058 919 1058 922 1058 L941 1058 Z "/>
<glyph glyph-name="udieresis" unicode="" horiz-adv-x="1149" d="M284 1364 C284 1387 294 1408 310 1424 C325 1439 346 1449 370 1449 C394 1449 415 1439 431 1424 C446 1408 456 1387 456 1364 C456 1341 446 1320 431 1305 C415 1289 394 1279 370 1279 C346 1279 325 1289 310 1305 C294 1320 284 1341 284 1364 L284 1364 Z M607 1364 C607 1387 616 1408 632 1424 C647 1439 668 1449 692 1449 C716 1449 737 1439 753 1424 C769 1408 779 1387 779 1364 C779 1341 769 1320 753 1305 C737 1289 716 1279 692 1279 C668 1279 647 1289 632 1305 C616 1320 607 1341 607 1364 L607 1364 Z M941 1058 L941 108 L981 108 C1013 108 1045 106 1069 105 C1093 104 1092 106 1096 83 C1098 71 1099 59 1099 47 C1099 30 1097 17 1092 9 C1052 -3 1003 -11 961 -15 C940 -17 921 -18 906 -19 C890 -20 880 -20 877 -20 L871 -20 L835 98 C786 66 733 36 677 15 C621 -6 562 -20 505 -20 C425 -20 341 5 278 59 C214 113 170 196 170 313 L170 940 C150 940 128 941 109 942 C90 943 75 945 70 946 C67 950 64 966 64 983 C63 1000 63 1020 67 1031 C103 1043 150 1050 190 1054 L240 1057 C254 1058 263 1058 266 1058 L285 1058 L285 355 C285 263 314 196 358 153 C402 109 462 89 525 89 C578 89 633 103 685 126 C736 149 785 178 826 210 L826 940 C806 940 784 941 765 942 C746 943 731 945 726 946 C723 950 720 966 720 983 C719 1000 719 1020 723 1031 C759 1043 806 1050 846 1054 L896 1057 C910 1058 919 1058 922 1058 L941 1058 Z "/>
<glyph glyph-name="yacute" unicode="" horiz-adv-x="1027" d="M670 1548 C711 1525 740 1504 748 1449 C727 1417 662 1365 580 1317 C498 1268 399 1223 311 1206 C295 1221 283 1255 278 1295 C377 1339 461 1391 527 1437 C593 1483 642 1524 670 1548 L670 1548 Z M775 1038 L861 1038 C882 1038 910 1037 932 1036 C943 1035 952 1035 959 1034 C974 1032 975 1029 979 1014 C980 1006 981 998 981 989 C981 972 979 954 975 946 C950 939 912 934 873 929 L461 -270 C434 -346 395 -398 347 -431 C299 -464 242 -478 185 -478 C117 -478 46 -459 -25 -426 C-25 -417 -25 -404 -24 -387 C-23 -371 -23 -353 -22 -334 C-21 -296 -18 -255 -16 -222 C-15 -205 -15 -191 -14 -179 C-13 -168 -13 -161 -12 -158 C11 -147 49 -145 72 -149 C74 -153 76 -161 79 -173 C83 -198 89 -233 94 -272 C97 -291 99 -310 101 -328 C127 -336 153 -340 178 -340 C261 -340 334 -294 366 -191 L426 0 L105 930 C66 935 31 941 7 946 C3 954 1 972 1 989 C1 1006 4 1023 11 1031 C12 1032 16 1033 23 1034 C38 1036 61 1037 86 1038 L121 1038 L207 1038 C228 1038 256 1037 278 1036 C289 1035 298 1035 305 1034 C320 1032 321 1029 325 1014 C326 1006 327 998 327 989 C327 972 325 954 321 946 C310 943 297 941 282 939 C267 936 251 934 234 931 L491 185 L748 931 C713 936 682 941 661 946 C657 954 655 972 655 989 C655 1006 658 1023 665 1031 C666 1032 670 1033 677 1034 C692 1036 715 1037 740 1038 L775 1038 Z "/>
<glyph glyph-name="thorn" unicode="" horiz-adv-x="1103" d="M305 1448 L305 967 C378 1023 464 1058 571 1058 C707 1058 816 1000 890 905 C964 809 1003 677 1003 526 C1003 354 951 217 867 124 C782 31 666 -20 538 -20 C466 -20 390 -5 305 26 L305 -349 C344 -354 381 -361 405 -366 C409 -374 411 -392 411 -409 C411 -426 408 -443 401 -451 C400 -452 396 -453 389 -454 C374 -455 351 -457 326 -457 C313 -458 302 -458 291 -458 L205 -458 C182 -458 157 -457 135 -456 C124 -455 114 -455 107 -454 C92 -453 91 -449 88 -433 C86 -426 85 -418 85 -409 C85 -392 87 -374 91 -366 C115 -361 152 -354 191 -349 L191 1330 C171 1330 148 1331 129 1332 C110 1333 95 1335 90 1336 C87 1340 84 1356 84 1373 C83 1390 83 1410 87 1421 C123 1433 170 1440 210 1444 L260 1447 C274 1448 283 1448 286 1448 L305 1448 Z M556 949 C448 949 368 907 305 839 L305 151 C384 112 464 91 541 91 C636 91 722 130 785 205 C848 280 887 390 887 533 C887 648 862 751 808 827 C754 902 671 949 556 949 L556 949 Z "/>
<glyph glyph-name="ydieresis" unicode="" horiz-adv-x="1027" d="M247 1365 C247 1388 257 1409 273 1425 C288 1440 309 1450 333 1450 C357 1450 378 1440 394 1425 C409 1409 419 1388 419 1365 C419 1342 409 1321 394 1306 C378 1290 357 1280 333 1280 C309 1280 288 1290 273 1306 C257 1321 247 1342 247 1365 L247 1365 Z M570 1365 C570 1388 579 1409 595 1425 C610 1440 631 1450 655 1450 C679 1450 700 1440 716 1425 C732 1409 742 1388 742 1365 C742 1342 732 1321 716 1306 C700 1290 679 1280 655 1280 C631 1280 610 1290 595 1306 C579 1321 570 1342 570 1365 L570 1365 Z M775 1038 L861 1038 C882 1038 910 1037 932 1036 C943 1035 952 1035 959 1034 C974 1032 975 1029 979 1014 C980 1006 981 998 981 989 C981 972 979 954 975 946 C950 939 912 934 873 929 L461 -270 C434 -346 395 -398 347 -431 C299 -464 242 -478 185 -478 C117 -478 46 -459 -25 -426 C-25 -417 -25 -404 -24 -387 C-23 -371 -23 -353 -22 -334 C-21 -296 -18 -255 -16 -222 C-15 -205 -15 -191 -14 -179 C-13 -168 -13 -161 -12 -158 C11 -147 49 -145 72 -149 C74 -153 76 -161 79 -173 C83 -198 89 -233 94 -272 C97 -291 99 -310 101 -328 C127 -336 153 -340 178 -340 C261 -340 334 -294 366 -191 L426 0 L105 930 C66 935 31 941 7 946 C3 954 1 972 1 989 C1 1006 4 1023 11 1031 C12 1032 16 1033 23 1034 C38 1036 61 1037 86 1038 L121 1038 L207 1038 C228 1038 256 1037 278 1036 C289 1035 298 1035 305 1034 C320 1032 321 1029 325 1014 C326 1006 327 998 327 989 C327 972 325 954 321 946 C310 943 297 941 282 939 C267 936 251 934 234 931 L491 185 L748 931 C713 936 682 941 661 946 C657 954 655 972 655 989 C655 1006 658 1023 665 1031 C666 1032 670 1033 677 1034 C692 1036 715 1037 740 1038 L775 1038 Z "/>
<glyph glyph-name="Amacron" unicode="" horiz-adv-x="1240" d="M369 1520 L869 1520 L869 1408 L369 1408 L369 1520 Z M151 0 C128 0 103 1 81 2 C70 3 60 3 53 4 C38 5 37 9 34 25 C32 32 31 40 31 49 C31 66 33 84 37 92 C62 97 102 104 142 109 L557 1318 L681 1318 L1096 109 C1137 104 1176 97 1203 92 C1207 84 1209 66 1209 49 C1209 32 1206 15 1199 7 C1198 6 1194 5 1187 4 C1172 3 1149 1 1124 1 C1111 0 1100 0 1089 0 L1001 0 C978 0 953 1 931 2 C920 3 910 3 903 4 C888 5 887 9 884 25 C882 32 881 40 881 49 C881 66 883 84 887 92 C908 96 939 102 974 106 L899 323 L338 323 L264 106 C281 104 297 102 312 99 C327 96 340 94 351 92 C355 84 357 66 357 49 C357 32 354 15 347 7 C346 6 342 5 335 4 C320 3 297 1 272 1 C259 0 248 0 237 0 L151 0 Z M377 436 L861 436 L619 1138 L377 436 Z "/>
<glyph glyph-name="amacron" unicode="" horiz-adv-x="1039" d="M248 1318 L748 1318 L748 1206 L248 1206 L248 1318 Z M172 984 C269 1029 384 1058 488 1058 C577 1058 660 1037 721 984 C781 931 819 845 819 716 L819 348 C819 287 831 229 857 183 C883 137 923 101 979 88 L914 -20 C838 5 780 66 748 142 C721 95 680 55 627 26 C574 -3 509 -20 436 -20 C391 -20 337 -13 288 6 C239 25 192 55 157 103 C122 150 100 213 100 300 C100 397 128 472 192 523 C256 574 356 600 497 600 C550 600 613 596 705 588 L705 732 C705 812 677 867 636 901 C595 935 538 948 481 948 C429 948 365 937 298 917 C294 881 288 841 283 807 C280 790 278 775 276 762 C273 749 271 741 269 737 C246 733 208 735 185 746 C184 750 183 762 182 782 C179 822 176 875 174 925 C173 950 172 969 172 984 L172 984 Z M705 483 C668 487 638 490 613 491 C600 491 589 491 578 492 L545 492 C505 492 455 492 407 485 C359 477 311 463 276 435 C241 407 218 366 218 305 C218 246 238 193 278 154 C317 114 373 89 445 89 C556 89 644 144 705 261 L705 483 Z "/>
<glyph glyph-name="Abreve" unicode="" horiz-adv-x="1240" d="M341 1638 C369 1601 411 1572 460 1552 C509 1532 566 1521 625 1521 C738 1521 833 1561 894 1634 C907 1627 924 1616 937 1601 C949 1586 958 1567 958 1550 C921 1502 868 1467 809 1444 C750 1420 684 1408 620 1408 C557 1408 494 1419 435 1443 C375 1466 321 1501 280 1550 C283 1589 308 1622 341 1638 L341 1638 Z M151 0 C128 0 103 1 81 2 C70 3 60 3 53 4 C38 5 37 9 34 25 C32 32 31 40 31 49 C31 66 33 84 37 92 C62 97 102 104 142 109 L557 1318 L681 1318 L1096 109 C1137 104 1176 97 1203 92 C1207 84 1209 66 1209 49 C1209 32 1206 15 1199 7 C1198 6 1194 5 1187 4 C1172 3 1149 1 1124 1 C1111 0 1100 0 1089 0 L1001 0 C978 0 953 1 931 2 C920 3 910 3 903 4 C888 5 887 9 884 25 C882 32 881 40 881 49 C881 66 883 84 887 92 C908 96 939 102 974 106 L899 323 L338 323 L264 106 C281 104 297 102 312 99 C327 96 340 94 351 92 C355 84 357 66 357 49 C357 32 354 15 347 7 C346 6 342 5 335 4 C320 3 297 1 272 1 C259 0 248 0 237 0 L151 0 Z M377 436 L861 436 L619 1138 L377 436 Z "/>
<glyph glyph-name="abreve" unicode="" horiz-adv-x="1039" d="M241 1408 C269 1371 311 1342 360 1322 C409 1302 466 1291 525 1291 C638 1291 733 1331 794 1404 C807 1397 824 1386 837 1371 C849 1356 858 1337 858 1320 C821 1272 768 1237 709 1214 C650 1190 584 1178 520 1178 C457 1178 394 1189 335 1213 C275 1236 221 1271 180 1320 C183 1359 208 1392 241 1408 L241 1408 Z M172 984 C269 1029 384 1058 488 1058 C577 1058 660 1037 721 984 C781 931 819 845 819 716 L819 348 C819 287 831 229 857 183 C883 137 923 101 979 88 L914 -20 C838 5 780 66 748 142 C721 95 680 55 627 26 C574 -3 509 -20 436 -20 C391 -20 337 -13 288 6 C239 25 192 55 157 103 C122 150 100 213 100 300 C100 397 128 472 192 523 C256 574 356 600 497 600 C550 600 613 596 705 588 L705 732 C705 812 677 867 636 901 C595 935 538 948 481 948 C429 948 365 937 298 917 C294 881 288 841 283 807 C280 790 278 775 276 762 C273 749 271 741 269 737 C246 733 208 735 185 746 C184 750 183 762 182 782 C179 822 176 875 174 925 C173 950 172 969 172 984 L172 984 Z M705 483 C668 487 638 490 613 491 C600 491 589 491 578 492 L545 492 C505 492 455 492 407 485 C359 477 311 463 276 435 C241 407 218 366 218 305 C218 246 238 193 278 154 C317 114 373 89 445 89 C556 89 644 144 705 261 L705 483 Z "/>
<glyph glyph-name="Aogonek" unicode="" horiz-adv-x="1240" d="M1203 92 C1207 84 1209 66 1209 49 C1209 32 1206 15 1199 7 C1198 6 1195 5 1189 4 C1183 3 1176 3 1167 3 C1158 2 1149 2 1138 1 C1127 0 1117 0 1106 0 C1039 -31 989 -70 954 -112 C919 -154 901 -197 901 -232 C901 -271 919 -297 943 -313 C967 -330 998 -337 1023 -337 C1072 -337 1128 -314 1172 -291 L1179 -296 L1179 -395 C1127 -432 1074 -446 1023 -446 C958 -446 899 -427 856 -391 C812 -355 785 -302 785 -231 C785 -138 843 -60 920 3 C912 4 905 4 900 5 C895 5 892 6 891 7 C884 15 881 32 881 49 C881 66 883 84 887 92 C908 96 939 102 974 106 L899 323 L338 323 L264 106 C281 104 297 102 312 99 C327 96 340 94 351 92 C355 84 357 66 357 49 C357 32 354 15 347 7 C346 6 342 5 335 4 C320 3 297 1 272 1 C259 0 248 0 237 0 L151 0 C128 0 103 1 81 2 C70 3 60 3 53 4 C38 5 37 9 34 25 C32 32 31 40 31 49 C31 66 33 84 37 92 C62 97 102 104 142 109 L557 1318 L681 1318 L1096 109 C1137 104 1176 97 1203 92 L1203 92 Z M377 436 L861 436 L619 1138 L377 436 Z "/>
<glyph glyph-name="aogonek" unicode="" horiz-adv-x="1039" d="M987 -316 L987 -415 C935 -452 882 -466 831 -466 C766 -466 707 -447 664 -411 C620 -375 593 -322 593 -251 C593 -188 619 -131 660 -82 C701 -34 757 8 816 40 C788 69 764 103 748 142 C721 95 680 55 627 26 C574 -3 509 -20 436 -20 C391 -20 337 -13 288 6 C239 25 192 55 157 103 C122 150 100 213 100 300 C100 397 128 472 192 523 C256 574 356 600 497 600 C550 600 613 596 705 588 L705 732 C705 812 677 867 636 901 C595 935 538 948 481 948 C429 948 365 937 298 917 C294 881 288 841 283 807 C280 790 278 775 276 762 C273 749 271 741 269 737 C246 733 208 735 185 746 C184 750 183 762 182 782 C179 822 176 875 174 925 C173 950 172 969 172 984 C269 1029 384 1058 488 1058 C577 1058 660 1037 721 984 C781 931 819 845 819 716 L819 348 C819 287 831 229 857 183 C883 137 923 101 979 88 L914 -20 C847 -51 797 -90 762 -132 C727 -174 709 -217 709 -252 C709 -291 727 -317 751 -333 C775 -350 806 -357 831 -357 C880 -357 936 -334 980 -311 L987 -316 Z M705 483 C668 487 638 490 613 491 C600 491 589 491 578 492 L545 492 C505 492 455 492 407 485 C359 477 311 463 276 435 C241 407 218 366 218 305 C218 246 238 193 278 154 C317 114 373 89 445 89 C556 89 644 144 705 261 L705 483 Z "/>
<glyph glyph-name="Cacute" unicode="" horiz-adv-x="1091" d="M933 1791 C974 1768 1003 1747 1011 1692 C990 1660 925 1608 843 1560 C761 1511 662 1466 574 1449 C558 1464 546 1498 541 1538 C640 1582 724 1634 790 1680 C856 1726 905 1767 933 1791 L933 1791 Z M1031 18 C939 -9 835 -19 748 -19 C525 -19 364 55 258 176 C152 297 100 466 100 657 C100 882 171 1053 287 1167 C403 1281 564 1338 747 1338 C787 1338 836 1336 885 1329 C934 1321 986 1311 1031 1295 C1031 1285 1031 1272 1030 1257 C1029 1241 1029 1224 1028 1205 C1027 1168 1025 1127 1023 1095 L1020 1053 C1019 1042 1019 1035 1018 1032 C995 1021 957 1019 934 1023 C932 1027 930 1036 927 1050 C921 1078 914 1117 909 1159 C906 1180 904 1199 902 1217 C854 1226 813 1229 770 1229 C579 1229 442 1171 351 1071 C260 971 217 828 217 660 C217 493 260 350 350 250 C440 149 578 89 773 89 C812 89 855 91 902 98 C906 134 912 179 918 217 C924 255 930 286 934 295 C957 299 995 297 1018 286 C1019 283 1019 276 1020 265 L1023 222 C1025 189 1027 148 1028 110 C1029 91 1029 73 1030 57 C1031 40 1031 27 1031 18 L1031 18 Z "/>
<glyph glyph-name="cacute" unicode="" horiz-adv-x="919" d="M715 1548 C756 1525 785 1504 793 1449 C772 1417 707 1365 625 1317 C543 1268 444 1223 356 1206 C340 1221 328 1255 323 1295 C422 1339 506 1391 572 1437 C638 1483 687 1524 715 1548 L715 1548 Z M859 29 C767 -3 673 -20 584 -20 C452 -20 331 19 243 108 C155 196 100 334 100 531 C100 722 155 853 243 937 C330 1021 449 1058 580 1058 C671 1058 764 1042 859 1009 C859 980 857 925 854 875 C852 850 850 827 849 807 C848 787 847 775 846 771 C823 760 785 758 762 762 C760 766 758 774 755 786 C752 798 750 812 748 829 C745 846 743 864 740 883 C737 902 735 920 733 937 C682 944 634 948 595 948 C491 948 397 920 329 854 C261 788 219 684 219 532 C219 380 261 269 329 197 C397 125 491 90 595 90 C631 90 680 93 729 101 C733 137 740 183 746 223 C749 243 752 261 755 276 C758 291 760 301 762 306 C785 310 823 308 846 297 C847 294 847 287 848 276 L851 233 C853 200 855 159 856 121 C857 102 857 84 858 68 C859 51 859 38 859 29 L859 29 Z "/>
<glyph glyph-name="Ccircumflex" unicode="" horiz-adv-x="1091" d="M684 1625 C644 1592 597 1555 547 1523 C497 1491 444 1464 395 1449 C376 1461 361 1494 353 1534 C429 1579 495 1627 551 1672 C606 1716 649 1758 681 1790 L697 1790 C729 1758 772 1717 827 1673 C882 1628 948 1579 1025 1534 C1017 1494 1002 1461 983 1449 C934 1464 881 1491 831 1523 C781 1555 732 1592 692 1625 L684 1625 Z M1031 18 C939 -9 835 -19 748 -19 C525 -19 364 55 258 176 C152 297 100 466 100 657 C100 882 171 1053 287 1167 C403 1281 564 1338 747 1338 C787 1338 836 1336 885 1329 C934 1321 986 1311 1031 1295 C1031 1285 1031 1272 1030 1257 C1029 1241 1029 1224 1028 1205 C1027 1168 1025 1127 1023 1095 L1020 1053 C1019 1042 1019 1035 1018 1032 C995 1021 957 1019 934 1023 C932 1027 930 1036 927 1050 C921 1078 914 1117 909 1159 C906 1180 904 1199 902 1217 C854 1226 813 1229 770 1229 C579 1229 442 1171 351 1071 C260 971 217 828 217 660 C217 493 260 350 350 250 C440 149 578 89 773 89 C812 89 855 91 902 98 C906 134 912 179 918 217 C924 255 930 286 934 295 C957 299 995 297 1018 286 C1019 283 1019 276 1020 265 L1023 222 C1025 189 1027 148 1028 110 C1029 91 1029 73 1030 57 C1031 40 1031 27 1031 18 L1031 18 Z "/>
<glyph glyph-name="ccircumflex" unicode="" horiz-adv-x="919" d="M578 1383 C538 1350 491 1313 441 1281 C391 1249 338 1222 289 1207 C270 1219 255 1252 247 1292 C323 1337 389 1385 445 1430 C500 1474 543 1516 575 1548 L591 1548 C623 1516 666 1475 721 1431 C776 1386 842 1337 919 1292 C911 1252 896 1219 877 1207 C828 1222 775 1249 725 1281 C675 1313 626 1350 586 1383 L578 1383 Z M859 29 C767 -3 673 -20 584 -20 C452 -20 331 19 243 108 C155 196 100 334 100 531 C100 722 155 853 243 937 C330 1021 449 1058 580 1058 C671 1058 764 1042 859 1009 C859 980 857 925 854 875 C852 850 850 827 849 807 C848 787 847 775 846 771 C823 760 785 758 762 762 C760 766 758 774 755 786 C752 798 750 812 748 829 C745 846 743 864 740 883 C737 902 735 920 733 937 C682 944 634 948 595 948 C491 948 397 920 329 854 C261 788 219 684 219 532 C219 380 261 269 329 197 C397 125 491 90 595 90 C631 90 680 93 729 101 C733 137 740 183 746 223 C749 243 752 261 755 276 C758 291 760 301 762 306 C785 310 823 308 846 297 C847 294 847 287 848 276 L851 233 C853 200 855 159 856 121 C857 102 857 84 858 68 C859 51 859 38 859 29 L859 29 Z "/>
<glyph glyph-name="Ccaron" unicode="" horiz-adv-x="1091" d="M690 1573 C730 1606 779 1643 829 1675 C879 1707 932 1734 981 1749 C1000 1737 1015 1704 1023 1664 C946 1619 880 1570 825 1526 C770 1481 727 1440 695 1408 L679 1408 C647 1440 604 1482 549 1527 C493 1571 427 1619 351 1664 C359 1704 374 1737 393 1749 C442 1734 495 1707 545 1675 C595 1643 642 1606 682 1573 L690 1573 Z M1031 18 C939 -9 835 -19 748 -19 C525 -19 364 55 258 176 C152 297 100 466 100 657 C100 882 171 1053 287 1167 C403 1281 564 1338 747 1338 C787 1338 836 1336 885 1329 C934 1321 986 1311 1031 1295 C1031 1285 1031 1272 1030 1257 C1029 1241 1029 1224 1028 1205 C1027 1168 1025 1127 1023 1095 L1020 1053 C1019 1042 1019 1035 1018 1032 C995 1021 957 1019 934 1023 C932 1027 930 1036 927 1050 C921 1078 914 1117 909 1159 C906 1180 904 1199 902 1217 C854 1226 813 1229 770 1229 C579 1229 442 1171 351 1071 C260 971 217 828 217 660 C217 493 260 350 350 250 C440 149 578 89 773 89 C812 89 855 91 902 98 C906 134 912 179 918 217 C924 255 930 286 934 295 C957 299 995 297 1018 286 C1019 283 1019 276 1020 265 L1023 222 C1025 189 1027 148 1028 110 C1029 91 1029 73 1030 57 C1031 40 1031 27 1031 18 L1031 18 Z "/>
<glyph glyph-name="ccaron" unicode="" horiz-adv-x="919" d="M583 1338 C623 1371 672 1408 722 1440 C772 1472 825 1499 874 1514 C893 1502 908 1469 916 1429 C839 1384 773 1335 718 1291 C663 1246 620 1205 588 1173 L572 1173 C540 1205 497 1247 442 1292 C386 1336 320 1384 244 1429 C252 1469 267 1502 286 1514 C335 1499 388 1472 438 1440 C488 1408 535 1371 575 1338 L583 1338 Z M859 29 C767 -3 673 -20 584 -20 C452 -20 331 19 243 108 C155 196 100 334 100 531 C100 722 155 853 243 937 C330 1021 449 1058 580 1058 C671 1058 764 1042 859 1009 C859 980 857 925 854 875 C852 850 850 827 849 807 C848 787 847 775 846 771 C823 760 785 758 762 762 C760 766 758 774 755 786 C752 798 750 812 748 829 C745 846 743 864 740 883 C737 902 735 920 733 937 C682 944 634 948 595 948 C491 948 397 920 329 854 C261 788 219 684 219 532 C219 380 261 269 329 197 C397 125 491 90 595 90 C631 90 680 93 729 101 C733 137 740 183 746 223 C749 243 752 261 755 276 C758 291 760 301 762 306 C785 310 823 308 846 297 C847 294 847 287 848 276 L851 233 C853 200 855 159 856 121 C857 102 857 84 858 68 C859 51 859 38 859 29 L859 29 Z "/>
<glyph glyph-name="Dcaron" unicode="" horiz-adv-x="1297" d="M423 1572 C463 1605 512 1642 562 1674 C612 1706 665 1733 714 1748 C733 1736 748 1703 756 1663 C679 1618 613 1569 558 1525 C503 1480 460 1439 428 1407 L412 1407 C380 1439 337 1481 282 1526 C226 1570 160 1618 84 1663 C92 1703 107 1736 126 1748 C175 1733 228 1706 278 1674 C328 1642 375 1605 415 1572 L423 1572 Z M181 0 C158 0 133 1 111 2 C100 3 90 3 83 4 C68 5 67 9 64 25 C62 32 61 40 61 49 C61 66 63 84 67 92 C91 97 128 103 167 108 L167 1209 C128 1214 91 1221 67 1226 C63 1234 61 1252 61 1269 C61 1286 64 1303 71 1311 C72 1312 76 1313 83 1314 C98 1316 121 1317 146 1318 L181 1318 L513 1318 C705 1318 876 1249 1000 1133 C1123 1016 1197 852 1197 660 C1197 468 1126 303 1007 187 C888 70 720 0 528 0 L181 0 Z M282 1209 L282 109 L522 109 C693 109 833 173 930 271 C1026 369 1081 503 1081 644 C1081 812 1015 953 911 1053 C806 1152 661 1209 505 1209 L282 1209 Z "/>
<glyph glyph-name="dcaron" unicode="" horiz-adv-x="1517" d="M863 -20 L831 90 C751 22 659 -20 539 -20 C403 -20 293 43 218 144 C142 245 100 384 100 535 C100 682 139 813 223 907 C307 1001 435 1058 615 1058 C690 1058 763 1042 831 1025 L831 1330 C811 1330 788 1331 769 1332 C750 1333 735 1335 730 1336 C727 1340 724 1356 724 1373 C723 1390 723 1410 727 1421 C763 1433 810 1440 850 1444 L900 1447 C914 1448 923 1448 926 1448 L945 1448 L945 108 C968 108 1000 107 1028 106 C1042 105 1054 105 1064 104 C1084 103 1084 106 1088 83 C1090 71 1091 59 1091 47 C1091 30 1089 17 1084 9 C1044 -3 995 -11 953 -15 C932 -17 913 -18 898 -19 C882 -20 872 -20 869 -20 L863 -20 Z M1244 1362 C1244 1386 1254 1407 1270 1423 C1285 1438 1306 1448 1329 1448 C1348 1448 1370 1442 1387 1427 C1404 1412 1417 1389 1417 1354 C1417 1311 1397 1267 1369 1228 C1341 1189 1305 1158 1273 1141 L1241 1182 C1265 1223 1278 1253 1278 1281 C1278 1308 1267 1330 1244 1362 L1244 1362 Z M560 89 C675 89 771 132 831 216 L831 895 C754 927 680 949 608 949 C496 949 398 913 329 841 C260 769 218 662 218 521 C218 410 244 302 300 222 C355 142 440 89 560 89 L560 89 Z "/>
<glyph glyph-name="Emacron" unicode="" horiz-adv-x="984" d="M242 1520 L742 1520 L742 1408 L242 1408 L242 1520 Z M181 1318 L925 1318 L925 1270 C925 1241 923 1186 920 1136 C918 1111 916 1088 915 1068 C914 1048 913 1036 912 1032 C889 1021 851 1019 828 1023 C826 1027 824 1035 821 1048 C816 1073 810 1109 805 1149 C802 1168 800 1187 798 1205 L281 1205 L281 715 L718 715 C726 768 737 817 745 828 C777 831 805 830 828 819 C833 783 838 723 839 663 C839 602 837 540 828 499 C805 488 777 487 745 490 C741 495 737 509 732 530 C727 551 722 576 718 603 L281 603 L281 113 L798 113 C802 149 808 189 813 224 C816 241 818 257 821 270 C824 283 826 291 828 295 C851 299 889 297 912 286 C913 282 914 270 915 250 C918 210 922 158 924 108 C925 83 925 63 925 48 L925 0 L181 0 C158 0 133 1 111 2 C100 3 90 3 83 4 C68 5 67 9 64 25 C62 32 61 40 61 49 C61 66 63 84 67 92 C91 97 128 103 167 108 L167 1209 C128 1214 91 1221 67 1226 C63 1234 61 1252 61 1269 C61 1286 64 1303 71 1311 C72 1312 76 1313 83 1314 C98 1316 121 1317 146 1318 L181 1318 Z "/>
<glyph glyph-name="emacron" unicode="" horiz-adv-x="960" d="M267 1430 L767 1430 L767 1318 L267 1318 L267 1430 Z M870 495 L217 495 C222 358 265 257 332 190 C399 122 488 89 588 89 C639 89 682 95 726 108 C770 120 813 139 864 164 L868 161 L868 54 C761 1 667 -20 571 -20 C442 -20 324 23 239 113 C154 203 100 340 100 532 C100 680 129 813 197 907 C265 1001 372 1058 528 1058 C632 1058 703 1030 754 986 C805 941 833 881 849 814 C865 747 869 675 870 608 L870 495 Z M526 948 C430 948 359 912 309 852 C259 791 230 705 221 608 L751 608 C751 697 742 782 710 845 C677 908 621 948 526 948 L526 948 Z "/>
<glyph glyph-name="Edotaccent" unicode="" horiz-adv-x="984" d="M468 1534 C468 1557 478 1577 494 1593 C509 1608 530 1618 553 1618 C576 1618 597 1608 613 1593 C629 1577 639 1557 639 1534 C639 1511 629 1491 613 1476 C597 1460 576 1450 553 1450 C530 1450 509 1460 494 1476 C478 1491 468 1511 468 1534 L468 1534 Z M181 1318 L925 1318 L925 1270 C925 1241 923 1186 920 1136 C918 1111 916 1088 915 1068 C914 1048 913 1036 912 1032 C889 1021 851 1019 828 1023 C826 1027 824 1035 821 1048 C816 1073 810 1109 805 1149 C802 1168 800 1187 798 1205 L281 1205 L281 715 L718 715 C726 768 737 817 745 828 C777 831 805 830 828 819 C833 783 838 723 839 663 C839 602 837 540 828 499 C805 488 777 487 745 490 C741 495 737 509 732 530 C727 551 722 576 718 603 L281 603 L281 113 L798 113 C802 149 808 189 813 224 C816 241 818 257 821 270 C824 283 826 291 828 295 C851 299 889 297 912 286 C913 282 914 270 915 250 C918 210 922 158 924 108 C925 83 925 63 925 48 L925 0 L181 0 C158 0 133 1 111 2 C100 3 90 3 83 4 C68 5 67 9 64 25 C62 32 61 40 61 49 C61 66 63 84 67 92 C91 97 128 103 167 108 L167 1209 C128 1214 91 1221 67 1226 C63 1234 61 1252 61 1269 C61 1286 64 1303 71 1311 C72 1312 76 1313 83 1314 C98 1316 121 1317 146 1318 L181 1318 Z "/>
<glyph glyph-name="edotaccent" unicode="" horiz-adv-x="960" d="M417 1324 C417 1347 427 1367 443 1383 C458 1398 479 1408 502 1408 C525 1408 546 1398 562 1383 C578 1367 588 1347 588 1324 C588 1301 578 1281 562 1266 C546 1250 525 1240 502 1240 C479 1240 458 1250 443 1266 C427 1281 417 1301 417 1324 L417 1324 Z M870 495 L217 495 C222 358 265 257 332 190 C399 122 488 89 588 89 C639 89 682 95 726 108 C770 120 813 139 864 164 L868 161 L868 54 C761 1 667 -20 571 -20 C442 -20 324 23 239 113 C154 203 100 340 100 532 C100 680 129 813 197 907 C265 1001 372 1058 528 1058 C632 1058 703 1030 754 986 C805 941 833 881 849 814 C865 747 869 675 870 608 L870 495 Z M526 948 C430 948 359 912 309 852 C259 791 230 705 221 608 L751 608 C751 697 742 782 710 845 C677 908 621 948 526 948 L526 948 Z "/>
<glyph glyph-name="Eogonek" unicode="" horiz-adv-x="984" d="M998 -296 L998 -395 C946 -432 893 -446 842 -446 C777 -446 718 -427 675 -391 C631 -355 604 -302 604 -231 C604 -139 660 -61 736 0 L181 0 C158 0 133 1 111 2 C100 3 90 3 83 4 C68 5 67 9 64 25 C62 32 61 40 61 49 C61 66 63 84 67 92 C91 97 128 103 167 108 L167 1209 C128 1214 91 1221 67 1226 C63 1234 61 1252 61 1269 C61 1286 64 1303 71 1311 C72 1312 76 1313 83 1314 C98 1316 121 1317 146 1318 L181 1318 L925 1318 L925 1270 C925 1241 923 1186 920 1136 C918 1111 916 1088 915 1068 C914 1048 913 1036 912 1032 C889 1021 851 1019 828 1023 C826 1027 824 1035 821 1048 C816 1073 810 1109 805 1149 C802 1168 800 1187 798 1205 L281 1205 L281 715 L718 715 C726 768 737 817 745 828 C777 831 805 830 828 819 C833 783 838 723 839 663 C839 602 837 540 828 499 C805 488 777 487 745 490 C741 495 737 509 732 530 C727 551 722 576 718 603 L281 603 L281 113 L798 113 C802 149 808 189 813 224 C816 241 818 257 821 270 C824 283 826 291 828 295 C851 299 889 297 912 286 C913 282 914 270 915 250 C918 210 922 158 924 108 C925 83 925 63 925 48 L925 0 C858 -31 808 -70 773 -112 C738 -154 720 -197 720 -232 C720 -271 738 -297 762 -313 C786 -330 817 -337 842 -337 C891 -337 947 -314 991 -291 L998 -296 Z "/>
<glyph glyph-name="eogonek" unicode="" horiz-adv-x="1001" d="M941 -242 L941 -341 C889 -378 836 -392 785 -392 C720 -392 661 -373 618 -337 C574 -301 547 -248 547 -177 C547 -118 570 -66 606 -19 C600 -20 594 -20 589 -20 L571 -20 C442 -20 324 23 239 113 C154 203 100 340 100 532 C100 680 129 813 197 907 C265 1001 372 1058 528 1058 C632 1058 703 1030 754 986 C805 941 833 881 849 814 C865 747 869 675 870 608 L870 495 L217 495 C222 358 265 257 332 190 C399 122 488 89 588 89 C639 89 682 95 726 108 C770 120 813 139 864 164 L868 161 L868 54 L850 45 C790 14 743 -24 711 -64 C679 -104 663 -145 663 -178 C663 -217 681 -243 705 -259 C729 -276 760 -283 785 -283 C834 -283 890 -260 934 -237 L941 -242 Z M526 948 C430 948 359 912 309 852 C259 791 230 705 221 608 L751 608 C751 697 742 782 710 845 C677 908 621 948 526 948 L526 948 Z "/>
<glyph glyph-name="Ecaron" unicode="" horiz-adv-x="984" d="M495 1573 C535 1606 584 1643 634 1675 C684 1707 737 1734 786 1749 C805 1737 820 1704 828 1664 C751 1619 685 1570 630 1526 C575 1481 532 1440 500 1408 L484 1408 C452 1440 409 1482 354 1527 C298 1571 232 1619 156 1664 C164 1704 179 1737 198 1749 C247 1734 300 1707 350 1675 C400 1643 447 1606 487 1573 L495 1573 Z M181 1318 L925 1318 L925 1270 C925 1241 923 1186 920 1136 C918 1111 916 1088 915 1068 C914 1048 913 1036 912 1032 C889 1021 851 1019 828 1023 C826 1027 824 1035 821 1048 C816 1073 810 1109 805 1149 C802 1168 800 1187 798 1205 L281 1205 L281 715 L718 715 C726 768 737 817 745 828 C777 831 805 830 828 819 C833 783 838 723 839 663 C839 602 837 540 828 499 C805 488 777 487 745 490 C741 495 737 509 732 530 C727 551 722 576 718 603 L281 603 L281 113 L798 113 C802 149 808 189 813 224 C816 241 818 257 821 270 C824 283 826 291 828 295 C851 299 889 297 912 286 C913 282 914 270 915 250 C918 210 922 158 924 108 C925 83 925 63 925 48 L925 0 L181 0 C158 0 133 1 111 2 C100 3 90 3 83 4 C68 5 67 9 64 25 C62 32 61 40 61 49 C61 66 63 84 67 92 C91 97 128 103 167 108 L167 1209 C128 1214 91 1221 67 1226 C63 1234 61 1252 61 1269 C61 1286 64 1303 71 1311 C72 1312 76 1313 83 1314 C98 1316 121 1317 146 1318 L181 1318 Z "/>
<glyph glyph-name="ecaron" unicode="" horiz-adv-x="960" d="M533 1338 C573 1371 622 1408 672 1440 C722 1472 775 1499 824 1514 C843 1502 858 1469 866 1429 C789 1384 723 1335 668 1291 C613 1246 570 1205 538 1173 L522 1173 C490 1205 447 1247 392 1292 C336 1336 270 1384 194 1429 C202 1469 217 1502 236 1514 C285 1499 338 1472 388 1440 C438 1408 485 1371 525 1338 L533 1338 Z M870 495 L217 495 C222 358 265 257 332 190 C399 122 488 89 588 89 C639 89 682 95 726 108 C770 120 813 139 864 164 L868 161 L868 54 C761 1 667 -20 571 -20 C442 -20 324 23 239 113 C154 203 100 340 100 532 C100 680 129 813 197 907 C265 1001 372 1058 528 1058 C632 1058 703 1030 754 986 C805 941 833 881 849 814 C865 747 869 675 870 608 L870 495 Z M526 948 C430 948 359 912 309 852 C259 791 230 705 221 608 L751 608 C751 697 742 782 710 845 C677 908 621 948 526 948 L526 948 Z "/>
<glyph glyph-name="Gcircumflex" unicode="" horiz-adv-x="1274" d="M693 1625 C653 1592 606 1555 556 1523 C506 1491 453 1464 404 1449 C385 1461 370 1494 362 1534 C438 1579 504 1627 560 1672 C615 1716 658 1758 690 1790 L706 1790 C738 1758 781 1717 836 1673 C891 1628 957 1579 1034 1534 C1026 1494 1011 1461 992 1449 C943 1464 890 1491 840 1523 C790 1555 741 1592 701 1625 L693 1625 Z M100 675 C100 888 168 1054 281 1167 C394 1279 553 1338 734 1338 C783 1338 841 1334 899 1326 C957 1318 1014 1305 1065 1288 C1065 1278 1065 1264 1064 1246 C1063 1227 1063 1207 1062 1184 C1061 1139 1059 1089 1057 1049 L1054 997 C1053 983 1053 975 1052 972 C1029 961 991 959 968 963 C963 975 954 1023 947 1076 C939 1128 933 1184 932 1211 C869 1224 822 1229 770 1229 C579 1229 441 1167 350 1067 C259 967 216 828 216 673 C216 504 267 358 355 254 C443 150 567 89 714 89 C825 89 904 124 991 181 L991 610 L724 610 L724 723 L1104 723 L1104 0 L1054 0 L1018 87 C925 24 829 -20 704 -20 C517 -20 366 56 262 181 C158 305 100 479 100 675 L100 675 Z "/>
<glyph glyph-name="gcircumflex" unicode="" horiz-adv-x="1047" d="M483 1383 C443 1350 396 1313 346 1281 C296 1249 243 1222 194 1207 C175 1219 160 1252 152 1292 C228 1337 294 1385 350 1430 C405 1474 448 1516 480 1548 L496 1548 C528 1516 571 1475 626 1431 C681 1386 747 1337 824 1292 C816 1252 801 1219 782 1207 C733 1222 680 1249 630 1281 C580 1313 531 1350 491 1383 L483 1383 Z M116 702 C116 799 155 889 223 954 C291 1018 387 1058 500 1058 C587 1058 663 1036 723 997 C762 1032 807 1059 851 1078 C894 1097 936 1107 968 1107 L1005 1003 C949 996 877 968 809 917 C852 861 877 782 877 705 C877 606 838 518 770 454 C702 390 606 350 493 350 C412 350 341 369 284 402 C253 366 240 331 240 307 C240 287 251 264 272 247 C292 230 324 217 365 217 L600 217 C741 217 844 181 910 126 C976 70 1007 -5 1007 -81 C1007 -190 938 -290 837 -362 C736 -434 602 -478 473 -478 C354 -478 260 -440 193 -380 C126 -321 90 -240 90 -155 C90 -55 139 43 215 123 C158 156 130 215 130 274 C130 330 156 402 205 463 C148 523 116 613 116 702 L116 702 Z M497 948 C409 948 342 916 298 869 C253 822 230 762 230 703 C230 644 253 583 298 537 C343 491 411 459 500 459 C588 459 654 491 698 537 C742 583 763 642 763 701 C763 760 741 821 697 869 C652 916 585 948 497 948 L497 948 Z M314 105 C245 28 204 -54 204 -139 C204 -200 226 -258 272 -299 C318 -340 388 -366 487 -366 C603 -366 705 -332 777 -281 C849 -230 892 -161 892 -93 C892 -8 845 42 768 70 C691 98 583 105 462 105 L314 105 Z "/>
<glyph glyph-name="Gbreve" unicode="" horiz-adv-x="1274" d="M406 1637 C434 1600 476 1571 525 1551 C574 1531 631 1520 690 1520 C803 1520 898 1560 959 1633 C972 1626 989 1615 1002 1600 C1014 1585 1023 1566 1023 1549 C986 1501 933 1466 874 1443 C815 1419 749 1407 685 1407 C622 1407 559 1418 500 1442 C440 1465 386 1500 345 1549 C348 1588 373 1621 406 1637 L406 1637 Z M100 675 C100 888 168 1054 281 1167 C394 1279 553 1338 734 1338 C783 1338 841 1334 899 1326 C957 1318 1014 1305 1065 1288 C1065 1278 1065 1264 1064 1246 C1063 1227 1063 1207 1062 1184 C1061 1139 1059 1089 1057 1049 L1054 997 C1053 983 1053 975 1052 972 C1029 961 991 959 968 963 C963 975 954 1023 947 1076 C939 1128 933 1184 932 1211 C869 1224 822 1229 770 1229 C579 1229 441 1167 350 1067 C259 967 216 828 216 673 C216 504 267 358 355 254 C443 150 567 89 714 89 C825 89 904 124 991 181 L991 610 L724 610 L724 723 L1104 723 L1104 0 L1054 0 L1018 87 C925 24 829 -20 704 -20 C517 -20 366 56 262 181 C158 305 100 479 100 675 L100 675 Z "/>
<glyph glyph-name="gbreve" unicode="" horiz-adv-x="1047" d="M238 1448 C266 1411 308 1382 357 1362 C406 1342 463 1331 522 1331 C635 1331 730 1371 791 1444 C804 1437 821 1426 834 1411 C846 1396 855 1377 855 1360 C818 1312 765 1277 706 1254 C647 1230 581 1218 517 1218 C454 1218 391 1229 332 1253 C272 1276 218 1311 177 1360 C180 1399 205 1432 238 1448 L238 1448 Z M116 702 C116 799 155 889 223 954 C291 1018 387 1058 500 1058 C587 1058 663 1036 723 997 C762 1032 807 1059 851 1078 C894 1097 936 1107 968 1107 L1005 1003 C949 996 877 968 809 917 C852 861 877 782 877 705 C877 606 838 518 770 454 C702 390 606 350 493 350 C412 350 341 369 284 402 C253 366 240 331 240 307 C240 287 251 264 272 247 C292 230 324 217 365 217 L600 217 C741 217 844 181 910 126 C976 70 1007 -5 1007 -81 C1007 -190 938 -290 837 -362 C736 -434 602 -478 473 -478 C354 -478 260 -440 193 -380 C126 -321 90 -240 90 -155 C90 -55 139 43 215 123 C158 156 130 215 130 274 C130 330 156 402 205 463 C148 523 116 613 116 702 L116 702 Z M497 948 C409 948 342 916 298 869 C253 822 230 762 230 703 C230 644 253 583 298 537 C343 491 411 459 500 459 C588 459 654 491 698 537 C742 583 763 642 763 701 C763 760 741 821 697 869 C652 916 585 948 497 948 L497 948 Z M314 105 C245 28 204 -54 204 -139 C204 -200 226 -258 272 -299 C318 -340 388 -366 487 -366 C603 -366 705 -332 777 -281 C849 -230 892 -161 892 -93 C892 -8 845 42 768 70 C691 98 583 105 462 105 L314 105 Z "/>
<glyph glyph-name="Gdotaccent" unicode="" horiz-adv-x="1274" d="M647 1492 C647 1515 657 1535 673 1551 C688 1566 709 1576 732 1576 C755 1576 776 1566 792 1551 C808 1535 818 1515 818 1492 C818 1469 808 1449 792 1434 C776 1418 755 1408 732 1408 C709 1408 688 1418 673 1434 C657 1449 647 1469 647 1492 L647 1492 Z M100 675 C100 888 168 1054 281 1167 C394 1279 553 1338 734 1338 C783 1338 841 1334 899 1326 C957 1318 1014 1305 1065 1288 C1065 1278 1065 1264 1064 1246 C1063 1227 1063 1207 1062 1184 C1061 1139 1059 1089 1057 1049 L1054 997 C1053 983 1053 975 1052 972 C1029 961 991 959 968 963 C963 975 954 1023 947 1076 C939 1128 933 1184 932 1211 C869 1224 822 1229 770 1229 C579 1229 441 1167 350 1067 C259 967 216 828 216 673 C216 504 267 358 355 254 C443 150 567 89 714 89 C825 89 904 124 991 181 L991 610 L724 610 L724 723 L1104 723 L1104 0 L1054 0 L1018 87 C978 62 940 35 892 15 C843 -6 784 -20 704 -20 C517 -20 366 56 262 181 C158 305 100 479 100 675 L100 675 Z "/>
<glyph glyph-name="gdotaccent" unicode="" horiz-adv-x="1047" d="M411 1364 C411 1387 421 1407 437 1423 C452 1438 473 1448 496 1448 C519 1448 540 1438 556 1423 C572 1407 582 1387 582 1364 C582 1341 572 1321 556 1306 C540 1290 519 1280 496 1280 C473 1280 452 1290 437 1306 C421 1321 411 1341 411 1364 L411 1364 Z M116 702 C116 799 155 889 223 954 C291 1018 387 1058 500 1058 C587 1058 663 1036 723 997 C762 1032 807 1059 851 1078 C894 1097 936 1107 968 1107 L1005 1003 C949 996 877 968 809 917 C852 861 877 782 877 705 C877 606 838 518 770 454 C702 390 606 350 493 350 C412 350 341 369 284 402 C253 366 240 331 240 307 C240 287 251 264 272 247 C292 230 324 217 365 217 L600 217 C741 217 844 181 910 126 C976 70 1007 -5 1007 -81 C1007 -190 938 -290 837 -362 C736 -434 602 -478 473 -478 C354 -478 260 -440 193 -380 C126 -321 90 -240 90 -155 C90 -55 139 43 215 123 C158 156 130 215 130 274 C130 330 156 402 205 463 C148 523 116 613 116 702 L116 702 Z M497 948 C409 948 342 916 298 869 C253 822 230 762 230 703 C230 644 253 583 298 537 C343 491 411 459 500 459 C588 459 654 491 698 537 C742 583 763 642 763 701 C763 760 741 821 697 869 C652 916 585 948 497 948 L497 948 Z M314 105 C245 28 204 -54 204 -139 C204 -200 226 -258 272 -299 C318 -340 388 -366 487 -366 C603 -366 705 -332 777 -281 C849 -230 892 -161 892 -93 C892 -8 845 42 768 70 C691 98 583 105 462 105 L314 105 Z "/>
<glyph glyph-name="Gcommaaccent" unicode="" horiz-adv-x="1274" d="M100 675 C100 888 168 1054 281 1167 C394 1279 553 1338 734 1338 C783 1338 841 1334 899 1326 C957 1318 1014 1305 1065 1288 C1065 1278 1065 1264 1064 1246 C1063 1227 1063 1207 1062 1184 C1061 1139 1059 1089 1057 1049 L1054 997 C1053 983 1053 975 1052 972 C1029 961 991 959 968 963 C963 975 954 1023 947 1076 C939 1128 933 1184 932 1211 C869 1224 822 1229 770 1229 C579 1229 441 1167 350 1067 C259 967 216 828 216 673 C216 504 267 358 355 254 C443 150 567 89 714 89 C825 89 904 124 991 181 L991 610 L724 610 L724 723 L1104 723 L1104 0 L1054 0 L1018 87 C978 62 940 35 892 15 C843 -6 784 -20 704 -20 C517 -20 366 56 262 181 C158 305 100 479 100 675 L100 675 Z M618 -186 C618 -162 628 -141 644 -125 C659 -110 680 -100 704 -100 C721 -100 744 -106 761 -121 C778 -136 791 -159 791 -194 C791 -237 771 -281 743 -320 C715 -359 679 -390 647 -407 L615 -366 C639 -325 653 -295 653 -267 C653 -240 642 -218 618 -186 L618 -186 Z "/>
<glyph glyph-name="gcommaaccent" unicode="" horiz-adv-x="1047" d="M593 1227 C593 1203 583 1182 568 1167 C552 1151 531 1141 508 1141 C489 1141 467 1147 450 1162 C433 1177 420 1200 420 1235 C420 1278 440 1322 468 1361 C496 1400 532 1431 564 1448 L596 1407 C572 1366 559 1336 559 1308 C559 1281 570 1259 593 1227 L593 1227 Z M116 702 C116 799 155 889 223 954 C291 1018 387 1058 500 1058 C587 1058 663 1036 723 997 C762 1032 807 1059 851 1078 C894 1097 936 1107 968 1107 L1005 1003 C949 996 877 968 809 917 C852 861 877 782 877 705 C877 606 838 518 770 454 C702 390 606 350 493 350 C412 350 341 369 284 402 C253 366 240 331 240 307 C240 287 251 264 272 247 C292 230 324 217 365 217 L600 217 C741 217 844 181 910 126 C976 70 1007 -5 1007 -81 C1007 -190 938 -290 837 -362 C736 -434 602 -478 473 -478 C354 -478 260 -440 193 -380 C126 -321 90 -240 90 -155 C90 -55 139 43 215 123 C158 156 130 215 130 274 C130 330 156 402 205 463 C148 523 116 613 116 702 L116 702 Z M497 948 C409 948 342 916 298 869 C253 822 230 762 230 703 C230 644 253 583 298 537 C343 491 411 459 500 459 C588 459 654 491 698 537 C742 583 763 642 763 701 C763 760 741 821 697 869 C652 916 585 948 497 948 L497 948 Z M314 105 C245 28 204 -54 204 -139 C204 -200 226 -258 272 -299 C318 -340 388 -366 487 -366 C603 -366 705 -332 777 -281 C849 -230 892 -161 892 -93 C892 -8 845 42 768 70 C691 98 583 105 462 105 L314 105 Z "/>
<glyph glyph-name="Hcircumflex" unicode="" horiz-adv-x="1244" d="M617 1626 C577 1593 530 1556 480 1524 C430 1492 377 1465 328 1450 C309 1462 294 1495 286 1535 C362 1580 428 1628 484 1673 C539 1717 582 1759 614 1791 L630 1791 C662 1759 705 1718 760 1674 C815 1629 881 1580 958 1535 C950 1495 935 1462 916 1450 C867 1465 814 1492 764 1524 C714 1556 665 1593 625 1626 L617 1626 Z M181 1318 L267 1318 C288 1318 316 1317 338 1316 C349 1315 358 1315 365 1314 C380 1312 381 1309 385 1294 C386 1286 387 1278 387 1269 C387 1252 385 1234 381 1226 C357 1221 321 1214 282 1209 L282 715 L962 715 L962 1209 C923 1214 887 1221 863 1226 C859 1234 857 1252 857 1269 C857 1286 860 1303 867 1311 C868 1312 872 1313 879 1314 C894 1316 917 1317 942 1318 L977 1318 L1063 1318 C1084 1318 1112 1317 1134 1316 C1145 1315 1154 1315 1161 1314 C1176 1312 1177 1309 1181 1294 C1182 1286 1183 1278 1183 1269 C1183 1252 1181 1234 1177 1226 C1153 1221 1116 1214 1077 1209 L1077 108 C1116 103 1153 97 1177 92 C1181 84 1183 66 1183 49 C1183 32 1180 15 1173 7 C1172 6 1168 5 1161 4 C1146 3 1123 1 1098 1 C1085 0 1074 0 1063 0 L977 0 C954 0 929 1 907 2 C896 3 886 3 879 4 C864 5 863 9 860 25 C858 32 857 40 857 49 C857 66 859 84 863 92 C887 97 923 103 962 108 L962 603 L282 603 L282 108 C321 103 357 97 381 92 C385 84 387 66 387 49 C387 32 384 15 377 7 C376 6 372 5 365 4 C350 3 327 1 302 1 C289 0 278 0 267 0 L181 0 C158 0 133 1 111 2 C100 3 90 3 83 4 C68 5 67 9 64 25 C62 32 61 40 61 49 C61 66 63 84 67 92 C91 97 128 103 167 108 L167 1209 C128 1214 91 1221 67 1226 C63 1234 61 1252 61 1269 C61 1286 64 1303 71 1311 C72 1312 76 1313 83 1314 C98 1316 121 1317 146 1318 L181 1318 Z "/>
<glyph glyph-name="hcircumflex" unicode="" horiz-adv-x="1137" d="M218 1626 C178 1593 131 1556 81 1524 C31 1492 -22 1465 -71 1450 C-90 1462 -105 1495 -113 1535 C-37 1580 29 1628 85 1673 C140 1717 183 1759 215 1791 L231 1791 C263 1759 306 1718 361 1674 C416 1629 482 1580 559 1535 C551 1495 536 1462 517 1450 C468 1465 415 1492 365 1524 C315 1556 266 1593 226 1626 L218 1626 Z M302 1448 L302 944 C350 976 403 1004 457 1025 C511 1045 567 1058 626 1058 C706 1058 789 1034 853 980 C917 926 960 842 960 725 L960 108 C999 103 1036 97 1060 92 C1064 84 1066 66 1066 49 C1066 32 1063 15 1056 7 C1055 6 1051 5 1044 4 C1029 3 1006 1 981 1 C968 0 957 0 946 0 L860 0 C837 0 812 1 790 2 C779 3 769 3 762 4 C747 5 746 9 743 25 C741 32 740 40 740 49 C740 66 742 84 746 92 C770 97 807 103 846 108 L846 683 C846 775 817 842 773 886 C729 929 669 949 606 949 C553 949 497 935 445 913 C393 891 343 861 302 829 L302 108 C341 103 378 97 402 92 C406 84 408 66 408 49 C408 32 405 15 398 7 C397 6 393 5 386 4 C371 3 348 1 323 1 C310 0 299 0 288 0 L202 0 C179 0 154 1 132 2 C121 3 111 3 104 4 C89 5 88 9 85 25 C83 32 82 40 82 49 C82 66 84 84 88 92 C112 97 149 103 188 108 L188 1330 C168 1330 145 1331 126 1332 C107 1333 92 1335 87 1336 C84 1340 81 1356 81 1373 C80 1390 80 1410 84 1421 C120 1433 167 1440 207 1444 L257 1447 C271 1448 280 1448 283 1448 L302 1448 Z "/>
<glyph glyph-name="Hbar" unicode="" horiz-adv-x="1244" d="M977 0 C954 0 929 1 907 2 C896 3 886 3 879 4 C864 5 863 9 860 25 C858 32 857 40 857 49 C857 66 859 84 863 92 C887 97 923 103 962 108 L962 493 L282 493 L282 108 C321 103 357 97 381 92 C385 84 387 66 387 49 C387 32 384 15 377 7 C376 6 372 5 365 4 C350 3 327 1 302 1 C289 0 278 0 267 0 L181 0 C158 0 133 1 111 2 C100 3 90 3 83 4 C68 5 67 9 64 25 C62 32 61 40 61 49 C61 66 63 84 67 92 C91 97 128 103 167 108 L167 1209 C128 1214 91 1221 67 1226 C63 1234 61 1252 61 1269 C61 1286 64 1303 71 1311 C72 1312 76 1313 83 1314 C98 1316 121 1317 146 1318 L181 1318 L267 1318 C288 1318 316 1317 338 1316 C349 1315 358 1315 365 1314 C380 1312 381 1309 385 1294 C386 1286 387 1278 387 1269 C387 1252 385 1234 381 1226 C357 1221 321 1214 282 1209 L282 893 L962 893 L962 1209 C923 1214 887 1221 863 1226 C859 1234 857 1252 857 1269 C857 1286 860 1303 867 1311 C868 1312 872 1313 879 1314 C894 1316 917 1317 942 1318 L977 1318 L1063 1318 C1084 1318 1112 1317 1134 1316 C1145 1315 1154 1315 1161 1314 C1176 1312 1177 1309 1181 1294 C1182 1286 1183 1278 1183 1269 C1183 1252 1181 1234 1177 1226 C1153 1221 1116 1214 1077 1209 L1077 108 C1116 103 1153 97 1177 92 C1181 84 1183 66 1183 49 C1183 32 1180 15 1173 7 C1172 6 1168 5 1161 4 C1146 3 1123 1 1098 1 C1085 0 1074 0 1063 0 L977 0 Z M962 605 L962 781 L282 781 L282 605 L962 605 Z "/>
<glyph glyph-name="hbar" unicode="" horiz-adv-x="1167" d="M1090 92 C1094 84 1096 66 1096 49 C1096 32 1093 15 1086 7 C1085 6 1081 5 1074 4 C1059 3 1036 1 1011 1 C998 0 987 0 976 0 L890 0 C867 0 842 1 820 2 C809 3 799 3 792 4 C777 5 776 9 773 25 C771 32 770 40 770 49 C770 66 772 84 776 92 C800 97 837 103 876 108 L876 683 C876 775 847 842 803 886 C759 929 699 949 636 949 C583 949 527 935 475 913 C423 891 373 861 332 829 L332 108 C371 103 408 97 432 92 C436 84 438 66 438 49 C438 32 435 15 428 7 C427 6 423 5 416 4 C401 3 378 1 353 1 C340 0 329 0 318 0 L232 0 C209 0 184 1 162 2 C151 3 141 3 134 4 C119 5 118 9 115 25 C113 32 112 40 112 49 C112 66 114 84 118 92 C142 97 179 103 218 108 L218 1108 L62 1108 L62 1220 L218 1220 L218 1330 C198 1330 175 1331 156 1332 C137 1333 122 1335 117 1336 C114 1340 111 1356 111 1373 C110 1390 110 1410 114 1421 C150 1433 197 1440 237 1444 L287 1447 C301 1448 310 1448 313 1448 L332 1448 L332 1220 L535 1220 L535 1108 L332 1108 L332 944 C380 976 433 1004 487 1025 C541 1045 597 1058 656 1058 C736 1058 819 1034 883 980 C947 926 990 842 990 725 L990 108 C1029 103 1066 97 1090 92 L1090 92 Z "/>
<glyph glyph-name="Itilde" unicode="" horiz-adv-x="448" d="M463 1624 C506 1631 543 1618 570 1597 C563 1540 534 1494 493 1462 C452 1430 398 1413 343 1413 C276 1413 234 1439 199 1465 C164 1491 136 1517 96 1517 C73 1517 46 1506 24 1487 C2 1468 -14 1442 -14 1413 C-53 1406 -89 1411 -121 1440 C-114 1500 -80 1546 -36 1578 C7 1610 60 1626 104 1626 C164 1626 203 1600 238 1574 C273 1548 303 1522 343 1522 C368 1522 398 1533 422 1551 C446 1569 463 1593 463 1624 L463 1624 Z M181 1318 L267 1318 C288 1318 316 1317 338 1316 C349 1315 358 1315 365 1314 C380 1312 381 1309 385 1294 C386 1286 387 1278 387 1269 C387 1252 385 1234 381 1226 C357 1221 320 1214 281 1209 L281 108 C320 103 357 97 381 92 C385 84 387 66 387 49 C387 32 384 15 377 7 C376 6 372 5 365 4 C350 3 327 1 302 1 C289 0 278 0 267 0 L181 0 C158 0 133 1 111 2 C100 3 90 3 83 4 C68 5 67 9 64 25 C62 32 61 40 61 49 C61 66 63 84 67 92 C91 97 128 103 167 108 L167 1209 C128 1214 91 1221 67 1226 C63 1234 61 1252 61 1269 C61 1286 64 1303 71 1311 C72 1312 76 1313 83 1314 C98 1316 121 1317 146 1318 L181 1318 Z "/>
<glyph glyph-name="Imacron" unicode="" horiz-adv-x="448" d="M-26 1520 L474 1520 L474 1408 L-26 1408 L-26 1520 Z M181 1318 L267 1318 C288 1318 316 1317 338 1316 C349 1315 358 1315 365 1314 C380 1312 381 1309 385 1294 C386 1286 387 1278 387 1269 C387 1252 385 1234 381 1226 C357 1221 320 1214 281 1209 L281 108 C320 103 357 97 381 92 C385 84 387 66 387 49 C387 32 384 15 377 7 C376 6 372 5 365 4 C350 3 327 1 302 1 C289 0 278 0 267 0 L181 0 C158 0 133 1 111 2 C100 3 90 3 83 4 C68 5 67 9 64 25 C62 32 61 40 61 49 C61 66 63 84 67 92 C91 97 128 103 167 108 L167 1209 C128 1214 91 1221 67 1226 C63 1234 61 1252 61 1269 C61 1286 64 1303 71 1311 C72 1312 76 1313 83 1314 C98 1316 121 1317 146 1318 L181 1318 Z "/>
<glyph glyph-name="imacron" unicode="" horiz-adv-x="488" d="M-6 1430 L494 1430 L494 1318 L-6 1318 L-6 1430 Z M303 1058 L303 108 C342 103 379 97 403 92 C407 84 409 66 409 49 C409 32 406 15 399 7 C398 6 394 5 387 4 C372 3 349 1 324 1 C311 0 300 0 289 0 L203 0 C180 0 155 1 133 2 C122 3 112 3 105 4 C90 5 89 9 86 25 C84 32 83 40 83 49 C83 66 85 84 89 92 C113 97 150 103 189 108 L189 940 C169 940 146 941 127 942 C108 943 93 945 88 946 C85 950 82 966 82 983 C81 1000 81 1020 85 1031 C121 1043 168 1050 208 1054 L258 1057 C272 1058 281 1058 284 1058 L303 1058 Z "/>
<glyph glyph-name="Ibreve" unicode="" horiz-adv-x="448" d="M-54 1638 C-26 1601 16 1572 65 1552 C114 1532 171 1521 230 1521 C343 1521 438 1561 499 1634 C512 1627 529 1616 542 1601 C554 1586 563 1567 563 1550 C526 1502 473 1467 414 1444 C355 1420 289 1408 225 1408 C162 1408 99 1419 40 1443 C-20 1466 -74 1501 -115 1550 C-112 1589 -87 1622 -54 1638 L-54 1638 Z M181 1318 L267 1318 C288 1318 316 1317 338 1316 C349 1315 358 1315 365 1314 C380 1312 381 1309 385 1294 C386 1286 387 1278 387 1269 C387 1252 385 1234 381 1226 C357 1221 320 1214 281 1209 L281 108 C320 103 357 97 381 92 C385 84 387 66 387 49 C387 32 384 15 377 7 C376 6 372 5 365 4 C350 3 327 1 302 1 C289 0 278 0 267 0 L181 0 C158 0 133 1 111 2 C100 3 90 3 83 4 C68 5 67 9 64 25 C62 32 61 40 61 49 C61 66 63 84 67 92 C91 97 128 103 167 108 L167 1209 C128 1214 91 1221 67 1226 C63 1234 61 1252 61 1269 C61 1286 64 1303 71 1311 C72 1312 76 1313 83 1314 C98 1316 121 1317 146 1318 L181 1318 Z "/>
<glyph glyph-name="ibreve" unicode="" horiz-adv-x="488" d="M-34 1448 C-6 1411 36 1382 85 1362 C134 1342 191 1331 250 1331 C363 1331 458 1371 519 1444 C532 1437 549 1426 562 1411 C574 1396 583 1377 583 1360 C546 1312 493 1277 434 1254 C375 1230 309 1218 245 1218 C182 1218 119 1229 60 1253 C0 1276 -54 1311 -95 1360 C-92 1399 -67 1432 -34 1448 L-34 1448 Z M303 1058 L303 108 C342 103 379 97 403 92 C407 84 409 66 409 49 C409 32 406 15 399 7 C398 6 394 5 387 4 C372 3 349 1 324 1 C311 0 300 0 289 0 L203 0 C180 0 155 1 133 2 C122 3 112 3 105 4 C90 5 89 9 86 25 C84 32 83 40 83 49 C83 66 85 84 89 92 C113 97 150 103 189 108 L189 940 C169 940 146 941 127 942 C108 943 93 945 88 946 C85 950 82 966 82 983 C81 1000 81 1020 85 1031 C121 1043 168 1050 208 1054 L258 1057 C272 1058 281 1058 284 1058 L303 1058 Z "/>
<glyph glyph-name="Iogonek" unicode="" horiz-adv-x="448" d="M281 108 C320 103 357 97 381 92 C385 84 387 66 387 49 C387 32 384 15 377 7 C376 6 373 5 367 4 C360 3 352 3 343 3 C334 2 323 2 312 1 C301 0 290 0 279 0 C212 -31 162 -70 127 -112 C92 -154 74 -197 74 -232 C74 -271 92 -297 116 -313 C140 -330 171 -337 196 -337 C245 -337 301 -314 345 -291 L352 -296 L352 -395 C300 -432 247 -446 196 -446 C131 -446 72 -427 29 -391 C-15 -355 -42 -302 -42 -231 C-42 -138 15 -58 94 3 C66 6 67 9 64 25 C62 32 61 40 61 49 C61 66 63 84 67 92 C91 97 128 103 167 108 L167 1209 C128 1214 91 1221 67 1226 C63 1234 61 1252 61 1269 C61 1286 64 1303 71 1311 C72 1312 76 1313 83 1314 C98 1316 121 1317 146 1318 L181 1318 L267 1318 C288 1318 316 1317 338 1316 C349 1315 358 1315 365 1314 C380 1312 381 1309 385 1294 C386 1286 387 1278 387 1269 C387 1252 385 1234 381 1226 C357 1221 320 1214 281 1209 L281 108 Z "/>
<glyph glyph-name="iogonek" unicode="" horiz-adv-x="488" d="M246 1211 C223 1211 202 1221 186 1237 C170 1252 160 1272 160 1295 C160 1318 170 1338 186 1354 C202 1369 223 1379 246 1379 C269 1379 290 1369 306 1354 C322 1338 332 1318 332 1295 C332 1272 322 1252 306 1237 C290 1221 269 1211 246 1211 L246 1211 Z M469 -289 L469 -388 C417 -425 364 -439 313 -439 C248 -439 189 -420 146 -384 C102 -348 75 -295 75 -224 C75 -135 127 -60 200 0 C177 0 152 1 131 2 C120 3 112 3 105 4 C91 5 89 9 86 25 C84 32 83 40 83 49 C83 66 85 84 89 92 C113 97 150 103 189 108 L189 940 C169 940 146 941 127 942 C108 943 93 945 88 946 C85 950 82 966 82 983 C81 1000 81 1020 85 1031 C121 1043 168 1050 208 1054 L258 1057 C272 1058 281 1058 284 1058 L303 1058 L303 108 C342 103 379 97 403 92 C407 84 409 66 409 49 C409 32 406 15 399 7 C399 7 397 6 393 5 C328 -26 277 -66 243 -106 C209 -147 191 -190 191 -225 C191 -264 209 -290 233 -306 C257 -323 288 -330 313 -330 C362 -330 418 -307 462 -284 L469 -289 Z "/>
<glyph glyph-name="Idotaccent" unicode="" horiz-adv-x="448" d="M138 1492 C138 1515 148 1535 164 1551 C179 1566 200 1576 223 1576 C246 1576 267 1566 283 1551 C299 1535 309 1515 309 1492 C309 1469 299 1449 283 1434 C267 1418 246 1408 223 1408 C200 1408 179 1418 164 1434 C148 1449 138 1469 138 1492 L138 1492 Z M181 1318 L267 1318 C288 1318 316 1317 338 1316 C349 1315 358 1315 365 1314 C380 1312 381 1309 385 1294 C386 1286 387 1278 387 1269 C387 1252 385 1234 381 1226 C357 1221 320 1214 281 1209 L281 108 C320 103 357 97 381 92 C385 84 387 66 387 49 C387 32 384 15 377 7 C376 6 372 5 365 4 C350 3 327 1 302 1 C289 0 278 0 267 0 L181 0 C158 0 133 1 111 2 C100 3 90 3 83 4 C68 5 67 9 64 25 C62 32 61 40 61 49 C61 66 63 84 67 92 C91 97 128 103 167 108 L167 1209 C128 1214 91 1221 67 1226 C63 1234 61 1252 61 1269 C61 1286 64 1303 71 1311 C72 1312 76 1313 83 1314 C98 1316 121 1317 146 1318 L181 1318 Z "/>
<glyph glyph-name="dotlessi" unicode="" horiz-adv-x="488" d="M303 1058 L303 108 C342 103 379 97 403 92 C407 84 409 66 409 49 C409 32 406 15 399 7 C398 6 394 5 387 4 C372 3 349 1 324 1 C311 0 300 0 289 0 L203 0 C180 0 155 1 133 2 C122 3 112 3 105 4 C90 5 89 9 86 25 C84 32 83 40 83 49 C83 66 85 84 89 92 C113 97 150 103 189 108 L189 940 C169 940 146 941 127 942 C108 943 93 945 88 946 C85 950 82 966 82 983 C81 1000 81 1020 85 1031 C121 1043 168 1050 208 1054 L258 1057 C272 1058 281 1058 284 1058 L303 1058 Z "/>
<glyph glyph-name="IJ" unicode="" horiz-adv-x="1151" d="M181 1318 L267 1318 C288 1318 316 1317 338 1316 C349 1315 358 1315 365 1314 C380 1312 381 1309 385 1294 C386 1286 387 1278 387 1269 C387 1252 385 1234 381 1226 C357 1221 320 1214 281 1209 L281 525 C320 520 357 514 381 509 C385 501 387 483 387 466 C387 449 384 432 377 424 C376 423 372 422 365 421 C350 420 327 418 302 418 C289 417 278 417 267 417 L181 417 C158 417 133 418 111 419 C100 420 90 420 83 421 C68 422 67 426 64 442 C62 449 61 457 61 466 C61 483 63 501 67 509 C91 514 128 520 167 525 L167 1209 C128 1214 91 1221 67 1226 C63 1234 61 1252 61 1269 C61 1286 64 1303 71 1311 C72 1312 76 1313 83 1314 C98 1316 121 1317 146 1318 L181 1318 Z M985 1318 C1006 1318 1030 1316 1048 1315 C1057 1314 1064 1314 1070 1313 C1076 1312 1079 1312 1080 1311 C1087 1303 1090 1286 1090 1269 C1090 1252 1088 1234 1084 1226 C1060 1221 1024 1214 985 1209 L985 404 C985 247 938 141 863 74 C788 7 687 -20 578 -20 C438 -20 314 15 175 58 C175 87 177 143 181 193 C182 218 184 240 185 260 C186 280 187 292 188 296 C211 307 249 309 272 305 C274 301 276 293 279 281 C283 256 289 222 294 183 C297 164 299 145 301 128 C393 101 475 78 568 78 C644 78 720 96 776 146 C832 196 870 278 870 407 L870 1209 C831 1214 794 1221 770 1226 C766 1234 764 1252 764 1269 C764 1286 767 1303 774 1311 C775 1312 778 1312 784 1313 C796 1314 816 1316 838 1317 C849 1318 859 1318 870 1318 L985 1318 Z "/>
<glyph glyph-name="ij" unicode="" horiz-adv-x="1020" d="M142 1295 C142 1318 152 1338 168 1354 C184 1369 205 1379 228 1379 C251 1379 272 1369 288 1354 C304 1338 314 1318 314 1295 C314 1272 304 1252 288 1237 C272 1221 251 1211 228 1211 C205 1211 184 1221 168 1237 C152 1252 142 1272 142 1295 L142 1295 Z M799 1295 C799 1318 809 1338 825 1354 C840 1369 861 1379 884 1379 C907 1379 928 1369 944 1354 C960 1338 970 1318 970 1295 C970 1272 960 1252 944 1237 C928 1221 907 1211 884 1211 C861 1211 840 1221 825 1237 C809 1252 799 1272 799 1295 L799 1295 Z M167 -432 C167 -423 167 -410 168 -393 C169 -377 169 -359 170 -340 C171 -302 174 -261 176 -228 C177 -211 177 -197 178 -185 C179 -174 179 -167 180 -164 C203 -153 241 -151 264 -155 C266 -159 268 -167 271 -180 C275 -206 282 -243 287 -282 C290 -302 292 -321 294 -339 C398 -356 504 -371 583 -371 C655 -371 716 -358 760 -314 C803 -271 827 -197 827 -74 L827 92 C730 31 618 -20 505 -20 C425 -20 341 5 278 59 C214 113 170 196 170 313 L170 940 C150 940 128 941 109 942 C90 943 75 945 70 946 C67 950 64 966 64 983 C63 1000 63 1020 67 1031 C103 1043 150 1050 190 1054 L240 1057 C254 1058 263 1058 266 1058 L285 1058 L285 355 C285 263 314 196 358 153 C402 109 462 89 525 89 C578 89 633 103 685 126 C736 149 785 178 826 210 L826 940 C806 940 784 941 765 942 C746 943 731 945 726 946 C723 950 720 966 720 983 C719 1000 719 1020 723 1031 C759 1043 806 1050 846 1054 L896 1057 C910 1058 919 1058 922 1058 L941 1058 L941 -74 C941 -242 905 -343 845 -402 C784 -462 696 -478 595 -478 C542 -478 474 -474 399 -466 C324 -458 243 -447 167 -432 L167 -432 Z "/>
<glyph glyph-name="Jcircumflex" unicode="" horiz-adv-x="703" d="M480 1626 C440 1593 393 1556 343 1524 C293 1492 240 1465 191 1450 C172 1462 157 1495 149 1535 C225 1580 291 1628 347 1673 C402 1717 445 1759 477 1791 L493 1791 C525 1759 568 1718 623 1674 C678 1629 744 1580 821 1535 C813 1495 798 1462 779 1450 C730 1465 677 1492 627 1524 C577 1556 528 1593 488 1626 L480 1626 Z M537 1318 C558 1318 582 1316 600 1315 C609 1314 616 1314 622 1313 C628 1312 631 1312 632 1311 C639 1303 642 1286 642 1269 C642 1252 640 1234 636 1226 C612 1221 576 1214 537 1209 L537 404 C537 301 520 201 472 126 C424 50 345 0 221 0 C176 0 140 6 106 17 C72 28 42 42 10 58 C10 87 12 143 16 193 C17 218 19 240 20 260 C21 280 22 292 23 296 C46 307 84 309 107 305 C109 301 111 293 114 281 C118 256 124 222 129 183 C132 164 134 145 136 128 C169 119 200 114 227 114 C284 114 332 134 367 181 C402 228 422 300 422 407 L422 1209 C383 1214 346 1221 322 1226 C318 1234 316 1252 316 1269 C316 1286 319 1303 326 1311 C327 1312 330 1312 336 1313 C348 1314 366 1316 389 1317 C400 1318 411 1318 422 1318 L537 1318 Z "/>
<glyph glyph-name="jcircumflex" unicode="" horiz-adv-x="599" d="M295 1383 C255 1350 208 1313 158 1281 C108 1249 55 1222 6 1207 C-13 1219 -28 1252 -36 1292 C40 1337 106 1385 162 1430 C217 1474 260 1516 292 1548 L308 1548 C340 1516 383 1475 438 1431 C493 1386 559 1337 636 1292 C628 1252 613 1219 594 1207 C545 1222 492 1249 442 1281 C392 1313 343 1350 303 1383 L295 1383 Z M380 1038 L380 -74 C380 -229 350 -329 296 -391 C242 -453 165 -478 72 -478 C15 -478 -68 -461 -140 -432 C-140 -423 -140 -410 -139 -393 C-138 -377 -138 -359 -137 -340 C-136 -302 -133 -261 -131 -228 C-130 -211 -130 -197 -129 -185 C-128 -174 -128 -167 -127 -164 C-104 -153 -66 -151 -43 -155 C-41 -160 -38 -170 -35 -185 C-29 -216 -23 -257 -17 -301 C-14 -323 -12 -343 -10 -361 C15 -366 38 -369 59 -369 C124 -369 177 -351 212 -305 C247 -259 266 -186 266 -74 L266 920 C246 920 223 921 204 922 C185 923 170 925 165 926 C162 930 159 946 159 963 C158 980 158 1000 162 1011 C198 1023 245 1030 285 1034 L335 1037 C349 1038 358 1038 361 1038 L380 1038 Z "/>
<glyph glyph-name="Kcommaaccent" unicode="" horiz-adv-x="1095" d="M942 -20 C871 11 784 79 695 163 C606 247 516 347 441 441 C366 535 307 622 282 682 L282 108 C321 103 357 97 381 92 C385 84 387 66 387 49 C387 32 384 15 377 7 C376 6 372 5 365 4 C350 3 327 1 302 1 C289 0 278 0 267 0 L181 0 C158 0 133 1 111 2 C100 3 90 3 83 4 C68 5 67 9 64 25 C62 32 61 40 61 49 C61 66 63 84 67 92 C91 97 128 103 167 108 L167 1209 C128 1214 91 1221 67 1226 C63 1234 61 1252 61 1269 C61 1286 64 1303 71 1311 C72 1312 76 1313 83 1314 C98 1316 121 1317 146 1318 L181 1318 L267 1318 C288 1318 316 1317 338 1316 C349 1315 358 1315 365 1314 C380 1312 381 1309 385 1294 C386 1286 387 1278 387 1269 C387 1252 385 1234 381 1226 C357 1221 321 1214 282 1209 L282 700 L716 1218 C700 1221 687 1223 676 1226 C672 1234 670 1252 670 1269 C670 1286 673 1303 680 1311 C681 1312 685 1313 692 1314 C707 1316 730 1317 755 1318 L790 1318 L876 1318 C897 1318 925 1317 947 1316 C958 1315 967 1315 974 1314 C989 1312 990 1309 994 1294 C995 1286 996 1278 996 1269 C996 1252 994 1234 990 1226 C957 1219 899 1211 848 1204 L423 695 L425 691 C437 651 474 593 525 528 C576 463 641 391 710 323 C778 255 850 191 917 143 C948 178 979 206 992 213 C1017 208 1043 187 1058 170 C1055 158 1040 127 1018 91 C996 55 967 13 942 -20 L942 -20 Z M494 -86 C494 -62 504 -41 520 -25 C535 -10 556 0 580 0 C597 0 620 -6 637 -21 C654 -36 667 -59 667 -94 C667 -137 647 -181 619 -220 C591 -259 555 -290 523 -307 L491 -266 C515 -225 529 -195 529 -167 C529 -140 518 -118 494 -86 L494 -86 Z "/>
<glyph glyph-name="kcommaaccent" unicode="" horiz-adv-x="946" d="M305 1448 L305 546 L628 932 C597 936 567 941 547 946 C543 954 541 972 541 989 C541 1006 544 1023 551 1031 C552 1032 556 1033 563 1034 C578 1036 601 1037 626 1038 L661 1038 L747 1038 C768 1038 796 1037 818 1036 C829 1035 838 1035 845 1034 C860 1032 861 1029 865 1014 C866 1006 867 998 867 989 C867 972 865 954 861 946 C837 941 800 935 763 930 L434 531 C444 520 458 499 477 469 C514 409 577 329 667 242 C712 199 765 158 828 121 C864 165 906 205 922 213 C947 208 973 187 988 170 C985 158 970 127 948 91 C926 55 897 13 872 -20 C820 -17 760 15 698 63 C636 111 572 174 515 239 C458 303 408 369 370 422 C351 449 335 471 324 490 C313 509 306 521 305 527 L305 108 C344 103 381 97 405 92 C409 84 411 66 411 49 C411 32 408 15 401 7 C400 6 396 5 389 4 C374 3 351 1 326 1 C313 0 302 0 291 0 L205 0 C182 0 157 1 135 2 C124 3 114 3 107 4 C92 5 91 9 88 25 C86 32 85 40 85 49 C85 66 87 84 91 92 C115 97 152 103 191 108 L191 1330 C171 1330 148 1331 129 1332 C110 1333 95 1335 90 1336 C87 1340 84 1356 84 1373 C83 1390 83 1410 87 1421 C123 1433 170 1440 210 1444 L260 1447 C274 1448 283 1448 286 1448 L305 1448 Z M476 -86 C476 -62 486 -41 502 -25 C517 -10 538 0 562 0 C579 0 602 -6 619 -21 C636 -36 649 -59 649 -94 C649 -137 629 -181 601 -220 C573 -259 537 -290 505 -307 L473 -266 C497 -225 511 -195 511 -167 C511 -140 500 -118 476 -86 L476 -86 Z "/>
<glyph glyph-name="Lacute" unicode="" horiz-adv-x="961" d="M382 1790 C423 1767 452 1746 460 1691 C439 1659 374 1607 292 1559 C210 1510 111 1465 23 1448 C7 1463 -5 1497 -10 1537 C89 1581 173 1633 239 1679 C305 1725 354 1766 382 1790 L382 1790 Z M901 48 L901 0 L181 0 C158 0 133 1 111 2 C100 3 90 3 83 4 C68 5 67 9 64 25 C62 32 61 40 61 49 C61 66 63 84 67 92 C91 97 128 103 167 108 L167 1209 C128 1214 91 1221 67 1226 C63 1234 61 1252 61 1269 C61 1286 64 1303 71 1311 C72 1312 76 1313 83 1314 C98 1316 121 1317 146 1318 L181 1318 L267 1318 C288 1318 316 1317 338 1316 C349 1315 358 1315 365 1314 C380 1312 381 1309 385 1294 C386 1286 387 1278 387 1269 C387 1252 385 1234 381 1226 C357 1221 321 1214 282 1209 L282 113 L773 113 C777 149 783 192 788 227 C791 244 794 259 797 272 C800 284 802 292 804 295 C837 298 865 297 888 286 C889 285 890 279 891 270 C893 251 895 221 897 186 C899 151 900 116 901 85 L901 48 Z "/>
<glyph glyph-name="lacute" unicode="" horiz-adv-x="489" d="M381 1791 C422 1768 451 1747 459 1692 C438 1660 373 1608 291 1560 C209 1511 110 1466 22 1449 C6 1464 -6 1498 -11 1538 C88 1582 172 1634 238 1680 C304 1726 353 1767 381 1791 L381 1791 Z M302 1448 L302 108 C341 103 378 97 402 92 C406 84 408 66 408 49 C408 32 405 15 398 7 C397 6 393 5 386 4 C371 3 348 1 323 1 C310 0 299 0 288 0 L202 0 C179 0 154 1 132 2 C121 3 111 3 104 4 C89 5 88 9 85 25 C83 32 82 40 82 49 C82 66 84 84 88 92 C112 97 149 103 188 108 L188 1330 C168 1330 145 1331 126 1332 C107 1333 92 1335 87 1336 C84 1340 81 1356 81 1373 C80 1390 80 1410 84 1421 C120 1433 167 1440 207 1444 L257 1447 C271 1448 280 1448 283 1448 L302 1448 Z "/>
<glyph glyph-name="Lcommaaccent" unicode="" horiz-adv-x="961" d="M901 48 L901 0 L181 0 C158 0 133 1 111 2 C100 3 90 3 83 4 C68 5 67 9 64 25 C62 32 61 40 61 49 C61 66 63 84 67 92 C91 97 128 103 167 108 L167 1209 C128 1214 91 1221 67 1226 C63 1234 61 1252 61 1269 C61 1286 64 1303 71 1311 C72 1312 76 1313 83 1314 C98 1316 121 1317 146 1318 L181 1318 L267 1318 C288 1318 316 1317 338 1316 C349 1315 358 1315 365 1314 C380 1312 381 1309 385 1294 C386 1286 387 1278 387 1269 C387 1252 385 1234 381 1226 C357 1221 321 1214 282 1209 L282 113 L773 113 C777 149 783 192 788 227 C791 244 794 259 797 272 C800 284 802 292 804 295 C837 298 865 297 888 286 C889 285 890 279 891 270 C893 251 895 221 897 186 C899 151 900 116 901 85 L901 48 Z M430 -186 C430 -162 440 -141 456 -125 C471 -110 492 -100 516 -100 C533 -100 556 -106 573 -121 C590 -136 603 -159 603 -194 C603 -237 583 -281 555 -320 C527 -359 491 -390 459 -407 L427 -366 C451 -325 465 -295 465 -267 C465 -240 454 -218 430 -186 L430 -186 Z "/>
<glyph glyph-name="lcommaaccent" unicode="" horiz-adv-x="489" d="M302 1448 L302 108 C341 103 378 97 402 92 C406 84 408 66 408 49 C408 32 405 15 398 7 C397 6 393 5 386 4 C371 3 348 1 323 1 C310 0 299 0 288 0 L202 0 C179 0 154 1 132 2 C121 3 111 3 104 4 C89 5 88 9 85 25 C83 32 82 40 82 49 C82 66 84 84 88 92 C112 97 149 103 188 108 L188 1330 C168 1330 145 1331 126 1332 C107 1333 92 1335 87 1336 C84 1340 81 1356 81 1373 C80 1390 80 1410 84 1421 C120 1433 167 1440 207 1444 L257 1447 C271 1448 280 1448 283 1448 L302 1448 Z M158 -203 C158 -179 168 -158 184 -142 C199 -127 220 -117 244 -117 C261 -117 284 -123 301 -138 C318 -153 331 -176 331 -211 C331 -254 311 -298 283 -337 C255 -376 219 -407 187 -424 L155 -383 C179 -342 193 -312 193 -284 C193 -257 182 -235 158 -203 L158 -203 Z "/>
<glyph glyph-name="Lcaron" unicode="" horiz-adv-x="1020" d="M787 1364 C787 1388 797 1409 813 1425 C828 1440 849 1450 872 1450 C891 1450 913 1444 930 1429 C947 1414 960 1391 960 1356 C960 1313 940 1269 912 1230 C884 1191 848 1160 816 1143 L784 1184 C808 1225 821 1255 821 1283 C821 1310 810 1332 787 1364 L787 1364 Z M901 48 L901 0 L181 0 C158 0 133 1 111 2 C100 3 90 3 83 4 C68 5 67 9 64 25 C62 32 61 40 61 49 C61 66 63 84 67 92 C91 97 128 103 167 108 L167 1209 C128 1214 91 1221 67 1226 C63 1234 61 1252 61 1269 C61 1286 64 1303 71 1311 C72 1312 76 1313 83 1314 C98 1316 121 1317 146 1318 L181 1318 L267 1318 C288 1318 316 1317 338 1316 C349 1315 358 1315 365 1314 C380 1312 381 1309 385 1294 C386 1286 387 1278 387 1269 C387 1252 385 1234 381 1226 C357 1221 321 1214 282 1209 L282 113 L773 113 C777 149 783 192 788 227 C791 244 794 259 797 272 C800 284 802 292 804 295 C837 298 865 297 888 286 C889 285 890 279 891 270 C893 251 895 221 897 186 C899 151 900 116 901 85 L901 48 Z "/>
<glyph glyph-name="lcaron" unicode="" horiz-adv-x="865" d="M302 1448 L302 108 C341 103 378 97 402 92 C406 84 408 66 408 49 C408 32 405 15 398 7 C397 6 393 5 386 4 C371 3 348 1 323 1 C310 0 299 0 288 0 L202 0 C179 0 154 1 132 2 C121 3 111 3 104 4 C89 5 88 9 85 25 C83 32 82 40 82 49 C82 66 84 84 88 92 C112 97 149 103 188 108 L188 1330 C168 1330 145 1331 126 1332 C107 1333 92 1335 87 1336 C84 1340 81 1356 81 1373 C80 1390 80 1410 84 1421 C120 1433 167 1440 207 1444 L257 1447 C271 1448 280 1448 283 1448 L302 1448 Z M592 1362 C592 1386 602 1407 618 1423 C633 1438 654 1448 677 1448 C696 1448 718 1442 735 1427 C752 1412 765 1389 765 1354 C765 1311 745 1267 717 1228 C689 1189 653 1158 621 1141 L589 1182 C613 1223 626 1253 626 1281 C626 1308 615 1330 592 1362 L592 1362 Z "/>
</font>
</svg>
