<?xml version="1.0" encoding="iso-8859-1"?>
<!-- Generator: Adobe Illustrator 16.0.4, SVG Export Plug-In . SVG Version: 6.00 Build 0)  -->
<!DOCTYPE svg PUBLIC "-//W3C//DTD SVG 1.1//EN" "http://www.w3.org/Graphics/SVG/1.1/DTD/svg11.dtd">
<svg version="1.1" id="Layer_1" xmlns="http://www.w3.org/2000/svg" xmlns:xlink="http://www.w3.org/1999/xlink" x="0px" y="0px"
	 width="48.211px" height="43.953px" viewBox="476.122 379.953 48.211 43.953"
	 style="enable-background:new 476.122 379.953 48.211 43.953;" xml:space="preserve">
<polygon style="fill:#E4E4E4;" points="505.051,379.953 519.975,423.906 476.122,423.906 476.122,379.953 "/>
<path style="fill:#333333;" d="M504.468,402.655c-1.001-0.764-1.47,0.005-2.098-0.045c-0.534-0.042-1.035-0.901-1.443-0.697
	c-0.79,0.401,0.312,1.816,0.791,2.105c0.427,0.255,0.962,0.489,1.094,0.548c0.631,0.296,0.882,0.744,0.964,1.443
	c0.018,0.16,0,0.526-0.041,0.694c-0.287,1.226-2.433,2.339-3.665,1.497c-0.58-0.398-1.108-0.911-1.296-1.821
	c-0.33-1.608-1.492-2.792-1.865-4.369c-0.227-0.956-0.395-1.965-0.644-2.927c-0.254-0.994-0.516-1.982-0.724-2.886
	c-0.19-0.839-0.591-2.097-0.879-2.861c-1.178-3.073-1.709-2.849-1.709-2.849s0.429,0.851,1.986,8.382
	c0.065,0.31,0.632,3.624,1.043,4.717c0.148,0.39,0.406,1.226,0.576,1.596c0.495,1.081,1.806,2.716,1.891,4.188
	c0.051,0.854,0.146,1.558,0.169,2.207c0.013,0.188,0.096,0.955,0.219,1.299c0.32,0.898,2.9,3.798,5.638,3.798v-2.198
	c-2.721,0-5.284-1.525-5.346-1.686c-0.04-0.071,0.141-1.111,0.323-1.574c0.357-0.895,1.03-1.717,2.212-1.801
	c1.318-0.096,2.114,0.286,2.81,0.286L504.468,402.655z"/>
<path style="fill:#333333;" d="M492.648,394.676c-0.102,1.645-2.649,3.901-3.448,5.341c-0.391,0.71-0.869,1.929-0.991,2.638
	c-0.34,1.963,0.089,3.186,0.568,4.333c0.845,2.025-0.113,2.765,0.546,2.354c0.815-0.664,0.691-2.216,0.632-3.183
	c-0.046-0.787-0.101-1.681,0.02-2.619c0.228-1.752,1.287-3.632,2.192-4.945C493.244,397.028,492.853,395.405,492.648,394.676"/>
<path style="fill:#333333;" d="M493.161,399.354c0,0,0.271,1.302-0.879,4.655c-3.01,8.775,2.741,9.604,4.376,11.667
	c0,0,0.634-0.891-1.975-3.754c-0.951-1.046-1.811-3.346-1.062-6.635C494.705,400.522,493.161,399.354,493.161,399.354"/>
<path style="fill:#333333;" d="M487.47,393.602c-0.138-0.518-0.18-0.981-0.148-1.396c0.139-2.061,2.01-2.897,2.478-3.205
	c0,0,0.842-0.576,0.949-1.158c0,0,0.864,2.17-1.113,3.413C488.631,391.889,487.951,392.627,487.47,393.602"/>
<path style="fill:#333333;" d="M492.19,391.608c0.107,0.209,0.883,1.346-2.294,3.97c-3.173,2.618-2.181,4.489-2.181,4.489
	s-3.386-1.884,0.514-5.136c3.899-3.251,3.099-3.909,3.099-3.909S491.888,390.994,492.19,391.608"/>
<path style="fill:#333333;" d="M496.315,392.612c0.548,0.07,0.899,1.785,2.169,2.157c0.936,0.271,1.927,0.125,2.148,0.687
	c-0.428,0.226-0.091,0.98,0.341,0.858C501.329,395.315,501.506,391.446,496.315,392.612 M498.025,393.384
	c0.047-0.122,0.115-0.025,0.254-0.112c0.147-0.141,0.3-0.37,0.541-0.449c0.173-0.051,0.41-0.026,0.573,0.035
	c0.106,0.029,0.042,0.303-0.039,0.376c-0.172,0.127-0.681-0.082-0.681,0.298c0.021,0.625,0.845-0.021,1.272-0.002
	C500.157,395.05,497.652,394.634,498.025,393.384"/>
</svg>
