<?xml version="1.0" encoding="UTF-8"?>
<svg xmlns="http://www.w3.org/2000/svg" xmlns:xlink="http://www.w3.org/1999/xlink" version="1.2">
<font id="Flanders Art Serif b2">
<font-face font-family="Flanders Art Serif b2" units-per-em="2048" ascent="1536" descent="-512" font-style="normal" font-weight="400" font-stretch="normal" cap-height="1318" x-height="1038" underline-position="-180" underline-thickness="50"/>
<missing-glyph horiz-adv-x="600" d=""/>
<glyph glyph-name="NULL" d=""/>
<glyph glyph-name="&amp;#x0;" d=""/>
<glyph glyph-name="&amp;#xd;" unicode="" d=""/>
<glyph glyph-name="space" unicode=" " horiz-adv-x="600" d=""/>
<glyph glyph-name="uni0000" d=""/>
<glyph glyph-name="exclam" unicode="!" horiz-adv-x="467" d="M292 406 C310 550 319 1164 319 1428 L155 1428 C155 1164 162 550 180 406 L292 406 Z M120 92 C120 31 171 -20 233 -20 C295 -20 347 31 347 92 C347 153 295 204 233 204 C171 204 120 153 120 92 L120 92 Z "/>
<glyph glyph-name="quotedbl" unicode="&quot;" horiz-adv-x="718" d="M84 1336 C115 1294 129 1262 129 1229 C129 1191 111 1152 80 1099 L122 1045 C206 1090 311 1211 311 1325 C311 1416 244 1448 196 1448 C135 1448 84 1397 84 1336 L84 1336 Z M412 1336 C443 1294 456 1262 456 1229 C456 1191 439 1152 407 1099 L450 1045 C534 1090 638 1211 638 1325 C638 1416 572 1448 524 1448 C463 1448 412 1397 412 1336 L412 1336 Z "/>
<glyph glyph-name="numbersign" unicode="#" horiz-adv-x="1153" d="M1060 791 L1113 935 L1108 941 L956 941 L1018 1173 L879 1224 L873 1221 L798 941 L522 941 L584 1173 L445 1224 L439 1221 L364 941 L134 941 L81 797 L87 791 L324 791 L254 530 L93 530 L40 386 L46 380 L214 380 L148 131 L289 79 L293 81 L372 380 L648 380 L582 131 L723 79 L727 81 L806 380 L1019 380 L1072 524 L1067 530 L846 530 L916 791 L1060 791 Z M688 530 L412 530 L482 791 L758 791 L688 530 Z "/>
<glyph glyph-name="dollar" unicode="$" horiz-adv-x="919" d="M685 341 C685 177 538 124 383 124 C334 124 284 129 238 137 C232 200 221 263 211 308 C202 313 180 316 158 316 C132 316 105 312 97 304 C94 298 90 234 90 178 L90 38 C170 0 264 -20 359 -20 C366 -20 374 -20 382 -19 L382 -149 L536 -149 L536 5 C699 54 829 174 829 375 C829 523 758 590 664 650 C535 732 364 797 295 857 C259 889 238 930 238 995 C238 1155 369 1196 505 1196 C533 1196 562 1194 590 1191 C597 1135 606 1080 616 1041 C625 1036 647 1033 669 1033 C695 1033 722 1037 730 1045 C733 1051 737 1115 737 1171 L737 1303 C675 1321 606 1334 536 1337 L536 1448 L382 1448 L382 1326 C225 1295 97 1194 97 983 C97 865 137 782 201 731 C279 668 466 594 569 528 C643 481 685 429 685 341 L685 341 Z "/>
<glyph glyph-name="percent" unicode="%" horiz-adv-x="1638" d="M80 1000 C80 818 209 668 404 668 C599 668 734 817 734 1005 C734 1187 605 1338 410 1338 C215 1338 80 1188 80 1000 L80 1000 Z M220 1001 C220 1109 297 1195 409 1195 C520 1195 594 1108 594 1005 C594 897 517 811 405 811 C294 811 220 897 220 1001 L220 1001 Z M1078 1165 L432 241 L558 153 L1204 1077 L1078 1165 Z M904 312 C904 130 1033 -20 1228 -20 C1423 -20 1558 129 1558 317 C1558 499 1429 650 1234 650 C1039 650 904 500 904 312 L904 312 Z M1044 313 C1044 421 1121 507 1233 507 C1344 507 1418 420 1418 317 C1418 209 1341 123 1229 123 C1118 123 1044 209 1044 313 L1044 313 Z "/>
<glyph glyph-name="ampersand" unicode="&amp;" horiz-adv-x="1252" d="M986 730 L978 730 C960 624 929 497 874 386 L552 709 C682 771 832 852 832 1051 C832 1248 686 1338 521 1338 C321 1338 196 1208 196 1016 C196 893 246 795 314 725 C155 629 80 521 80 365 C80 122 259 -20 502 -20 C657 -20 790 38 894 150 L1065 -20 L1172 89 L986 275 C1048 381 1093 515 1120 676 L986 730 Z M350 1029 C350 1129 407 1194 525 1194 C612 1194 680 1159 680 1048 C680 902 562 846 475 808 C470 805 464 803 459 801 C403 855 350 931 350 1029 L350 1029 Z M499 124 C330 124 234 220 234 362 C234 496 318 579 409 635 L788 256 C718 177 625 124 499 124 L499 124 Z "/>
<glyph glyph-name="quotesingle" unicode="'" horiz-adv-x="391" d="M84 1336 C115 1294 129 1262 129 1229 C129 1191 111 1152 80 1099 L122 1045 C206 1090 311 1211 311 1325 C311 1416 244 1448 196 1448 C135 1448 84 1397 84 1336 L84 1336 Z "/>
<glyph glyph-name="parenleft" unicode="(" horiz-adv-x="570" d="M336 -20 L450 81 C339 271 289 478 289 686 C289 912 348 1139 450 1350 L339 1448 L335 1448 C197 1207 120 943 120 680 C120 437 186 197 332 -20 L336 -20 Z "/>
<glyph glyph-name="parenright" unicode=")" horiz-adv-x="570" d="M234 -20 L238 -20 C384 197 450 437 450 680 C450 943 373 1207 235 1448 L231 1448 L120 1350 C222 1139 281 912 281 686 C281 478 231 271 120 81 L234 -20 Z "/>
<glyph glyph-name="asterisk" unicode="*" horiz-adv-x="909" d="M747 260 C700 327 639 407 553 498 C677 479 777 475 859 475 L859 639 C776 639 675 633 550 614 C637 706 699 785 747 854 L613 948 C565 880 512 793 455 679 C398 793 344 879 296 948 L162 854 C210 785 273 705 361 613 C235 633 133 639 50 639 L50 475 C132 475 234 479 359 498 C272 407 209 328 162 260 L296 166 C344 234 398 321 455 434 C512 320 565 234 613 166 L747 260 Z M455 446 L371 505 L371 609 L453 668 L538 610 L540 506 L455 446 Z "/>
<glyph glyph-name="plus" unicode="+" horiz-adv-x="1030" d="M592 592 L592 910 L438 910 L438 592 L120 592 L120 438 L438 438 L438 120 L592 120 L592 438 L910 438 L910 592 L592 592 Z "/>
<glyph glyph-name="comma" unicode="," horiz-adv-x="392" d="M85 92 C116 50 130 18 130 -15 C130 -53 112 -92 80 -145 L123 -199 C207 -154 312 -33 312 81 C312 172 245 204 197 204 C136 204 85 153 85 92 L85 92 Z "/>
<glyph glyph-name="hyphen" unicode="-" horiz-adv-x="600" d="M550 618 L50 618 L50 474 L550 474 L550 618 Z "/>
<glyph glyph-name="period" unicode="." horiz-adv-x="387" d="M80 92 C80 31 131 -20 193 -20 C255 -20 307 31 307 92 C307 153 255 204 193 204 C131 204 80 153 80 92 L80 92 Z "/>
<glyph glyph-name="slash" unicode="/" horiz-adv-x="971" d="M852 1395 L708 1448 L120 -168 L264 -221 L852 1395 Z "/>
<glyph glyph-name="zero" unicode="0" horiz-adv-x="1112" d="M1032 646 C1032 1112 832 1338 552 1338 C270 1338 80 1110 80 663 C80 356 187 -20 552 -20 C832 -20 1026 188 1032 646 L1032 646 Z M877 665 C877 254 761 124 553 124 C340 124 235 300 235 662 C235 1022 340 1194 553 1194 C759 1194 877 1048 877 665 L877 665 Z "/>
<glyph glyph-name="one" unicode="1" horiz-adv-x="636" d="M476 0 C527 0 578 4 584 8 C591 16 596 43 596 69 C596 90 593 112 587 121 C557 128 517 135 476 141 L476 1318 L331 1318 C225 1303 114 1268 40 1221 L40 1089 L48 1082 C115 1122 217 1161 322 1175 L322 148 C292 132 249 121 191 121 C185 111 182 89 182 69 C182 43 187 16 194 8 C201 4 264 0 321 0 L476 0 Z "/>
<glyph glyph-name="two" unicode="2" horiz-adv-x="1008" d="M30 0 L928 0 L928 144 C928 200 924 264 921 270 C913 278 886 282 860 282 C838 282 816 279 807 274 C799 239 790 192 784 144 L254 144 C635 427 877 674 877 965 C877 1217 696 1338 488 1338 C366 1338 209 1296 109 1232 C109 1019 113 973 116 967 C134 951 206 952 230 963 C240 992 255 1057 261 1158 C321 1180 388 1193 450 1193 C617 1193 736 1099 736 949 C736 800 616 558 30 144 L30 0 Z "/>
<glyph glyph-name="three" unicode="3" horiz-adv-x="973" d="M92 1150 C92 1094 96 1030 99 1024 C107 1016 134 1012 160 1012 C182 1012 204 1015 213 1020 C222 1057 230 1109 237 1161 C300 1185 365 1197 425 1197 C560 1197 675 1132 675 998 C675 824 504 757 380 757 L224 757 L224 617 L356 617 C550 617 750 550 750 376 C750 230 611 122 432 122 C360 122 268 139 187 169 C181 214 173 256 166 289 C157 294 135 297 113 297 C87 297 60 293 52 285 C49 279 45 215 45 159 L45 91 C158 16 339 -20 453 -20 C646 -20 904 81 904 364 C904 551 800 651 662 702 C753 762 828 858 828 1008 C828 1266 601 1338 448 1338 C342 1338 205 1304 92 1234 L92 1150 Z "/>
<glyph glyph-name="four" unicode="4" horiz-adv-x="970" d="M789 1318 L613 1318 L20 443 L20 300 L635 300 L635 0 L789 0 L789 300 L941 300 L941 443 L789 443 L789 1318 Z M635 1077 L635 443 L203 443 L635 1077 Z "/>
<glyph glyph-name="five" unicode="5" horiz-adv-x="973" d="M202 1318 L202 1291 L133 666 L273 666 C594 666 749 607 749 417 C749 254 635 122 453 122 C387 122 296 138 214 168 C208 218 199 266 191 302 C182 307 160 310 138 310 C112 310 85 306 77 298 C74 292 70 228 70 172 L70 91 C177 18 347 -20 463 -20 C676 -20 904 109 904 412 C904 781 564 806 290 807 L330 1176 L847 1176 L847 1318 L202 1318 Z "/>
<glyph glyph-name="six" unicode="6" horiz-adv-x="968" d="M834 1338 C282 1338 80 868 80 457 C80 198 200 -20 477 -20 C790 -20 889 259 889 424 C889 630 730 807 518 807 C433 807 344 781 258 714 C310 922 450 1194 834 1194 L834 1338 Z M497 662 C617 662 735 570 735 405 C735 272 661 125 500 125 C358 125 228 237 228 458 C228 480 228 516 233 562 C340 632 418 662 497 662 L497 662 Z "/>
<glyph glyph-name="seven" unicode="7" horiz-adv-x="838" d="M818 1318 L50 1318 L50 1308 C50 1095 54 1049 57 1043 C65 1035 92 1031 118 1031 C140 1031 162 1034 171 1039 C181 1083 192 1119 198 1174 L605 1174 L132 0 L286 0 L818 1318 Z "/>
<glyph glyph-name="eight" unicode="8" horiz-adv-x="988" d="M870 1001 C870 1225 683 1338 494 1338 C301 1338 119 1221 119 1001 C119 846 208 757 332 688 C206 631 60 537 60 339 C60 101 275 -20 494 -20 C710 -20 929 98 929 339 C929 528 796 624 657 688 C784 759 870 848 870 1001 L870 1001 Z M715 1001 C715 880 621 813 494 758 C371 812 274 878 274 1002 C274 1134 385 1194 494 1194 C602 1194 715 1134 715 1001 L715 1001 Z M214 333 C214 474 349 539 494 608 C634 542 775 474 775 336 C775 196 633 124 494 124 C353 124 214 198 214 333 L214 333 Z "/>
<glyph glyph-name="nine" unicode="9" horiz-adv-x="968" d="M135 -20 C687 -20 889 450 889 861 C889 1120 769 1338 492 1338 C179 1338 80 1059 80 894 C80 688 239 511 451 511 C536 511 625 536 711 603 C659 395 518 124 135 124 L135 -20 Z M472 656 C352 656 234 748 234 913 C234 1046 308 1193 469 1193 C611 1193 741 1081 741 860 C741 838 740 801 736 756 C629 686 550 656 472 656 L472 656 Z "/>
<glyph glyph-name="colon" unicode=":" horiz-adv-x="387" d="M80 946 C80 885 131 834 193 834 C255 834 307 885 307 946 C307 1007 255 1058 193 1058 C131 1058 80 1007 80 946 L80 946 Z M80 92 C80 31 131 -20 193 -20 C255 -20 307 31 307 92 C307 153 255 204 193 204 C131 204 80 153 80 92 L80 92 Z "/>
<glyph glyph-name="semicolon" unicode=";" horiz-adv-x="392" d="M84 946 C84 885 135 834 197 834 C259 834 311 885 311 946 C311 1007 259 1058 197 1058 C135 1058 84 1007 84 946 L84 946 Z M85 92 C116 50 130 18 130 -15 C130 -53 112 -92 80 -145 L123 -199 C207 -154 312 -33 312 81 C312 172 245 204 197 204 C136 204 85 153 85 92 L85 92 Z "/>
<glyph glyph-name="less" unicode="&lt;" horiz-adv-x="918" d="M798 806 L710 931 L120 518 L710 105 L798 230 L387 518 L798 806 Z "/>
<glyph glyph-name="equal" unicode="=" horiz-adv-x="1030" d="M120 592 L910 592 L910 746 L120 746 L120 592 Z M120 284 L910 284 L910 438 L120 438 L120 284 Z "/>
<glyph glyph-name="greater" unicode="&gt;" horiz-adv-x="918" d="M120 230 L208 105 L798 518 L208 931 L120 806 L531 518 L120 230 Z "/>
<glyph glyph-name="question" unicode="?" horiz-adv-x="975" d="M162 1191 L171 1191 C220 1258 337 1301 453 1301 C617 1301 706 1216 706 1098 C706 853 320 850 320 334 L474 334 C474 816 856 780 856 1107 C856 1342 659 1448 465 1448 C322 1448 185 1390 120 1306 L162 1191 Z M285 92 C285 31 336 -20 398 -20 C460 -20 512 31 512 92 C512 153 460 204 398 204 C336 204 285 153 285 92 L285 92 Z "/>
<glyph glyph-name="at" unicode="@" horiz-adv-x="1422" d="M1322 335 C1193 374 1179 488 1179 597 L1179 860 C1179 1126 1041 1201 774 1201 C429 1201 80 1003 80 535 C80 138 331 -153 737 -153 C887 -153 1053 -113 1166 -6 L1062 88 C981 14 871 -9 737 -9 C422 -9 234 228 234 544 C234 877 444 1058 771 1058 C937 1058 1025 1011 1025 860 L1025 798 C933 806 871 810 816 810 C533 810 420 703 420 509 C420 252 619 190 757 190 C896 190 1004 252 1077 335 C1110 267 1161 214 1234 190 L1322 335 Z M767 334 C657 334 573 393 573 510 C573 652 699 668 922 668 C954 668 989 667 1025 667 L1025 583 C1025 364 845 334 767 334 L767 334 Z "/>
<glyph glyph-name="A" unicode="A" horiz-adv-x="1308" d="M285 0 C342 0 405 4 412 8 C419 16 424 43 424 69 C424 90 421 112 415 121 C385 128 346 135 305 141 L363 307 L945 307 L1002 141 C961 135 923 128 893 121 C887 112 884 90 884 69 C884 43 889 16 896 8 C903 4 966 0 1023 0 L1139 0 C1196 0 1259 4 1266 8 C1273 16 1278 43 1278 69 C1278 90 1275 112 1269 121 C1240 128 1202 135 1162 140 L757 1318 L550 1318 L145 140 C105 135 68 128 39 121 C33 112 30 90 30 69 C30 43 35 16 42 8 C49 4 112 0 169 0 L285 0 Z M896 451 L412 451 L654 1152 L896 451 Z "/>
<glyph glyph-name="B" unicode="B" horiz-adv-x="1106" d="M386 0 C742 0 1046 29 1046 384 C1046 540 982 639 845 694 C919 747 963 832 963 967 C963 1233 775 1318 360 1318 L179 1318 C122 1318 59 1314 52 1310 C45 1302 40 1275 40 1249 C40 1228 43 1206 49 1197 C79 1190 118 1182 160 1176 L160 141 C118 135 79 128 49 121 C43 112 40 90 40 69 C40 43 45 16 52 8 C59 4 122 0 179 0 L386 0 Z M315 751 L315 1174 L380 1174 C656 1174 809 1157 809 952 C809 755 663 751 372 751 L315 751 Z M315 146 L315 605 L463 605 C739 605 891 574 891 370 C891 164 733 146 416 146 L315 146 Z "/>
<glyph glyph-name="C" unicode="C" horiz-adv-x="1081" d="M1041 163 C1041 219 1037 283 1034 289 C1026 297 999 301 973 301 C951 301 929 298 920 293 C910 252 900 194 894 136 C840 129 787 125 745 125 C402 125 234 349 234 660 C234 976 404 1193 745 1193 C787 1193 840 1189 894 1182 C900 1124 910 1066 920 1025 C929 1020 951 1017 973 1017 C999 1017 1026 1021 1034 1029 C1037 1035 1041 1099 1041 1155 L1041 1297 C951 1323 831 1338 737 1338 C297 1338 87 1051 80 680 C80 270 297 -20 737 -20 C831 -20 951 -5 1041 21 L1041 163 Z "/>
<glyph glyph-name="D" unicode="D" horiz-adv-x="1298" d="M549 0 C934 0 1218 277 1218 660 C1218 1043 918 1318 533 1318 L179 1318 C122 1318 59 1314 52 1310 C45 1302 40 1275 40 1249 C40 1228 43 1206 49 1197 C79 1190 118 1182 160 1176 L160 141 C118 135 79 128 49 121 C43 112 40 90 40 69 C40 43 45 16 52 8 C59 4 122 0 179 0 L549 0 Z M315 144 L315 1174 L533 1174 C825 1174 1063 958 1063 644 C1063 351 868 144 549 144 L315 144 Z "/>
<glyph glyph-name="E" unicode="E" horiz-adv-x="998" d="M954 1318 L179 1318 C122 1318 59 1314 52 1310 C45 1302 40 1275 40 1249 C40 1228 43 1206 49 1197 C79 1190 118 1182 160 1176 L160 141 C118 135 79 128 49 121 C43 112 40 90 40 69 C40 43 45 16 52 8 C59 4 122 0 179 0 L954 0 L954 144 C954 200 950 264 947 270 C939 278 912 282 886 282 C864 282 842 279 833 274 C825 239 816 192 810 144 L315 144 L315 587 L706 587 C712 538 721 492 729 457 C738 452 760 449 782 449 C808 449 835 453 843 461 C846 467 850 531 850 587 L850 731 C850 787 846 851 843 857 C835 865 808 869 782 869 C760 869 738 866 729 861 C721 826 712 779 706 731 L315 731 L315 1174 L810 1174 C816 1125 825 1079 833 1044 C842 1039 864 1036 886 1036 C912 1036 939 1040 947 1048 C950 1054 954 1118 954 1174 L954 1318 Z "/>
<glyph glyph-name="F" unicode="F" horiz-adv-x="1011" d="M315 0 C366 0 417 4 423 8 C430 16 435 43 435 69 C435 90 432 112 426 121 C396 128 356 135 315 141 L315 582 L693 582 C699 535 708 490 716 457 C725 452 747 449 769 449 C795 449 822 453 830 461 C833 467 837 531 837 587 L837 731 C837 787 833 851 830 857 C822 865 795 869 769 869 C747 869 725 866 716 861 C708 827 700 783 694 736 L315 736 L315 1174 L822 1174 C828 1125 837 1079 845 1044 C854 1039 876 1036 898 1036 C924 1036 951 1040 959 1048 C962 1054 966 1118 966 1174 L966 1318 L179 1318 C122 1318 59 1314 52 1310 C45 1302 40 1275 40 1249 C40 1228 43 1206 49 1197 C79 1190 118 1182 160 1176 L160 141 C118 135 79 128 49 121 C43 112 40 90 40 69 C40 43 45 16 52 8 C58 4 109 0 160 0 L315 0 Z "/>
<glyph glyph-name="G" unicode="G" horiz-adv-x="1268" d="M1069 -2 L1128 -2 L1128 724 L692 724 L692 569 L977 569 L977 238 C949 203 859 124 703 124 C430 124 235 367 235 676 C235 962 402 1193 745 1193 C787 1193 840 1190 895 1182 C901 1124 911 1066 921 1025 C930 1020 952 1017 974 1017 C1000 1017 1027 1021 1035 1029 C1038 1035 1042 1099 1042 1155 L1042 1297 C952 1323 832 1338 733 1338 C290 1338 80 1035 80 667 C80 272 322 -20 686 -20 C804 -20 892 11 977 69 L1069 -2 Z "/>
<glyph glyph-name="H" unicode="H" horiz-adv-x="1273" d="M160 1318 C109 1317 58 1313 52 1310 C45 1302 40 1275 40 1249 C40 1228 43 1206 49 1197 C79 1190 118 1182 160 1176 L160 141 C118 135 79 128 49 121 C43 112 40 90 40 69 C40 43 45 16 52 8 C58 4 109 0 160 0 L315 0 C366 1 416 4 422 8 C429 16 434 43 434 69 C434 90 431 112 425 121 C395 128 356 135 315 141 L315 582 L958 582 L958 141 C917 135 878 128 848 121 C842 112 839 90 839 69 C839 43 844 16 851 8 C858 4 921 0 978 0 L1095 0 C1152 0 1215 4 1222 8 C1229 16 1234 43 1234 69 C1234 90 1231 112 1225 121 C1194 128 1155 135 1113 141 L1113 1176 C1155 1182 1194 1190 1225 1197 C1231 1206 1234 1228 1234 1249 C1234 1275 1229 1302 1222 1310 C1215 1314 1152 1318 1095 1318 L978 1318 C921 1318 858 1314 851 1310 C844 1302 839 1275 839 1249 C839 1228 842 1206 848 1197 C878 1190 917 1183 958 1177 L958 736 L315 736 L315 1176 C356 1182 396 1190 426 1197 C432 1206 435 1228 435 1249 C435 1275 430 1302 423 1310 C416 1314 353 1318 296 1318 L160 1318 Z "/>
<glyph glyph-name="I" unicode="I" horiz-adv-x="474" d="M295 0 C352 0 415 4 422 8 C429 16 434 43 434 69 C434 90 431 112 425 121 C395 128 355 135 314 141 L314 1176 C355 1182 395 1190 425 1197 C431 1206 434 1228 434 1249 C434 1275 429 1302 422 1310 C415 1314 352 1318 295 1318 L179 1318 C122 1318 59 1314 52 1310 C45 1302 40 1275 40 1249 C40 1228 43 1206 49 1197 C79 1190 118 1182 160 1176 L160 141 C118 135 79 128 49 121 C43 112 40 90 40 69 C40 43 45 16 52 8 C59 4 122 0 179 0 L295 0 Z "/>
<glyph glyph-name="J" unicode="J" horiz-adv-x="701" d="M410 1318 C353 1318 290 1314 283 1310 C276 1302 271 1275 271 1249 C271 1228 274 1206 280 1197 C310 1190 349 1182 391 1176 L391 384 C391 195 310 123 204 123 C197 172 189 219 181 254 C172 259 150 262 128 262 C102 262 75 258 67 250 C64 244 60 180 60 124 L60 -5 C107 -16 153 -20 197 -20 C393 -20 546 95 546 384 L546 1176 C587 1182 627 1190 657 1197 C663 1206 666 1228 666 1249 C666 1275 661 1302 654 1310 C647 1314 584 1318 527 1318 L410 1318 Z "/>
<glyph glyph-name="K" unicode="K" horiz-adv-x="1120" d="M978 0 C1050 93 1094 176 1100 211 C1085 228 1051 259 1017 264 C1005 258 979 236 952 209 C778 341 572 566 506 694 L909 1172 C962 1179 1014 1188 1052 1197 C1058 1206 1061 1228 1061 1249 C1061 1275 1056 1302 1049 1310 C1042 1314 979 1318 922 1318 L805 1318 C748 1318 685 1314 678 1310 C671 1302 666 1275 666 1249 C666 1228 669 1206 675 1197 C689 1193 706 1190 724 1186 L315 700 L315 1176 C356 1182 396 1190 426 1197 C432 1206 435 1228 435 1249 C435 1275 430 1302 423 1310 C416 1314 353 1318 296 1318 L160 1318 C109 1317 58 1313 52 1310 C45 1302 40 1275 40 1249 C40 1228 43 1206 49 1197 C79 1190 118 1182 160 1176 L160 141 C118 135 79 128 49 121 C43 112 40 90 40 69 C40 43 45 16 52 8 C58 4 109 0 160 0 L315 0 C366 0 417 4 423 8 C430 16 435 43 435 69 C435 90 432 112 426 121 C396 128 356 135 315 141 L315 682 C391 503 761 100 972 2 C974 1 977 0 978 0 L978 0 Z "/>
<glyph glyph-name="L" unicode="L" horiz-adv-x="968" d="M179 1318 C122 1318 59 1314 52 1310 C45 1302 40 1275 40 1249 C40 1228 43 1206 49 1197 C77 1190 112 1183 150 1178 L150 140 C112 134 77 127 49 121 C43 112 40 90 40 69 C40 43 45 16 52 8 C59 4 122 0 179 0 L924 0 L924 144 C924 200 920 264 917 270 C909 278 882 282 856 282 C834 282 812 279 803 274 C795 239 786 192 780 144 L305 144 L305 1175 C350 1181 392 1189 425 1197 C431 1206 434 1228 434 1249 C434 1275 429 1302 422 1310 C415 1314 352 1318 295 1318 L179 1318 Z "/>
<glyph glyph-name="M" unicode="M" horiz-adv-x="1413" d="M1244 0 C1301 0 1364 4 1371 8 C1378 16 1383 43 1383 69 C1383 90 1380 112 1374 121 C1343 128 1304 135 1262 141 L1257 1176 C1301 1182 1342 1189 1374 1197 C1380 1206 1383 1228 1383 1249 C1383 1275 1378 1302 1371 1310 C1364 1314 1301 1318 1244 1318 L1052 1318 L715 654 L711 654 L374 1318 L179 1318 C122 1318 59 1314 52 1310 C45 1302 40 1275 40 1249 C40 1228 43 1206 49 1197 C80 1189 121 1182 164 1176 L160 141 C118 135 79 128 49 121 C43 112 40 90 40 69 C40 43 45 16 52 8 C59 4 122 0 179 0 L295 0 C352 0 415 4 422 8 C429 16 434 43 434 69 C434 90 431 112 425 121 C395 128 356 135 315 141 L319 1112 L695 380 L731 380 L1103 1103 L1107 141 C1066 135 1028 128 998 121 C992 112 989 90 989 69 C989 43 994 16 1001 8 C1008 4 1071 0 1128 0 L1244 0 Z "/>
<glyph glyph-name="N" unicode="N" horiz-adv-x="1263" d="M958 299 L321 1318 L179 1318 C122 1318 59 1314 52 1310 C45 1302 40 1275 40 1249 C40 1228 43 1206 49 1197 C79 1190 118 1182 160 1176 L160 141 C118 135 79 128 49 121 C43 112 40 90 40 69 C40 43 45 16 52 8 C59 4 122 0 179 0 L295 0 C352 0 415 4 422 8 C429 16 434 43 434 69 C434 90 431 112 425 121 C395 128 356 135 315 141 L315 1028 L958 0 L1113 0 L1113 1176 C1154 1182 1194 1190 1224 1197 C1230 1206 1233 1228 1233 1249 C1233 1275 1228 1302 1221 1310 C1214 1314 1151 1318 1094 1318 L977 1318 C920 1318 857 1314 850 1310 C843 1302 838 1275 838 1249 C838 1228 841 1206 847 1197 C877 1190 916 1182 958 1176 L958 299 Z "/>
<glyph glyph-name="O" unicode="O" horiz-adv-x="1383" d="M80 660 C80 276 322 -20 687 -20 C1052 -20 1303 277 1303 660 C1303 1043 1063 1338 698 1338 C333 1338 80 1043 80 660 L80 660 Z M234 672 C234 970 405 1194 694 1194 C989 1194 1149 958 1149 648 C1149 347 987 124 699 124 C402 124 234 364 234 672 L234 672 Z "/>
<glyph glyph-name="P" unicode="P" horiz-adv-x="1130" d="M296 0 C353 0 416 4 423 8 C430 16 435 43 435 69 C435 90 432 112 426 121 C396 128 356 135 315 141 L315 424 L410 424 C766 424 1070 535 1070 890 C1070 1193 849 1318 419 1318 L179 1318 C122 1318 59 1314 52 1310 C45 1302 40 1275 40 1249 C40 1228 43 1206 49 1197 C79 1190 118 1182 160 1176 L160 141 C118 135 79 128 49 121 C43 112 40 90 40 69 C40 43 45 16 52 8 C59 4 122 0 179 0 L296 0 Z M315 570 L315 1172 L439 1172 C706 1172 915 1105 915 866 C915 638 728 570 439 570 L315 570 Z "/>
<glyph glyph-name="Q" unicode="Q" horiz-adv-x="1383" d="M1092 -282 C1164 -189 1208 -106 1214 -71 C1199 -54 1165 -23 1131 -18 C1116 -24 1080 -58 1045 -94 C1000 -64 954 -24 918 24 C1153 119 1303 364 1303 660 C1303 1043 1063 1338 698 1338 C333 1338 80 1043 80 660 C80 276 322 -20 687 -20 C714 -20 739 -18 765 -15 C837 -155 991 -269 1092 -282 L1092 -282 Z M232 672 C232 970 405 1194 694 1194 C989 1194 1151 958 1151 648 C1151 347 987 124 699 124 C402 124 232 364 232 672 L232 672 Z "/>
<glyph glyph-name="R" unicode="R" horiz-adv-x="1240" d="M1098 -20 C1170 73 1214 156 1220 191 C1205 208 1171 239 1137 244 C1124 238 1097 214 1068 185 C972 276 880 413 847 502 C987 566 1070 685 1070 887 C1070 1181 922 1318 483 1318 L179 1318 C122 1318 59 1314 52 1310 C45 1302 40 1275 40 1249 C40 1228 43 1206 49 1197 C79 1190 118 1182 160 1176 L160 141 C118 135 79 128 49 121 C43 112 40 90 40 69 C40 43 45 16 52 8 C59 4 122 0 179 0 L296 0 C353 0 416 4 423 8 C430 16 435 43 435 69 C435 90 432 112 426 121 C396 128 356 135 315 141 L315 431 L411 431 C516 431 613 437 698 454 C767 311 942 14 1098 -20 L1098 -20 Z M315 576 L315 1173 L473 1173 C742 1173 918 1114 918 874 C918 647 735 576 448 576 L315 576 Z "/>
<glyph glyph-name="S" unicode="S" horiz-adv-x="919" d="M685 341 C685 177 538 124 383 124 C334 124 284 129 238 137 C232 200 221 263 211 308 C202 313 180 316 158 316 C132 316 105 312 97 304 C94 298 90 234 90 178 L90 38 C170 0 264 -20 359 -20 C593 -20 829 105 829 375 C829 523 758 590 664 650 C535 732 364 797 295 857 C259 889 238 930 238 995 C238 1155 369 1196 505 1196 C533 1196 562 1194 590 1191 C597 1135 606 1080 616 1041 C625 1036 647 1033 669 1033 C695 1033 722 1037 730 1045 C733 1051 737 1115 737 1171 L737 1303 C666 1324 586 1338 505 1338 C298 1338 97 1248 97 983 C97 865 137 782 201 731 C279 668 466 594 569 528 C643 481 685 429 685 341 L685 341 Z "/>
<glyph glyph-name="T" unicode="T" horiz-adv-x="1060" d="M1015 1318 L45 1318 L45 1171 C45 1115 49 1051 52 1045 C60 1037 87 1033 113 1033 C135 1033 157 1036 166 1041 C174 1076 182 1124 189 1174 L453 1174 L453 141 C411 135 372 128 342 121 C336 112 333 90 333 69 C333 43 338 16 345 8 C352 4 415 0 472 0 L588 0 C645 0 708 4 715 8 C722 16 727 43 727 69 C727 90 724 112 718 121 C688 128 648 135 607 141 L607 1174 L870 1174 C877 1124 885 1076 894 1041 C903 1036 925 1033 947 1033 C973 1033 1000 1037 1008 1045 C1011 1051 1015 1115 1015 1171 L1015 1318 Z "/>
<glyph glyph-name="U" unicode="U" horiz-adv-x="1291" d="M174 1318 C117 1318 54 1314 47 1310 C40 1302 35 1275 35 1249 C35 1228 38 1206 44 1197 C74 1190 113 1182 155 1176 L155 490 C155 38 420 -20 643 -20 C869 -20 1136 40 1136 490 L1136 1176 C1177 1182 1217 1190 1247 1197 C1253 1206 1256 1228 1256 1249 C1256 1275 1251 1302 1244 1310 C1237 1314 1174 1318 1117 1318 L1001 1318 C944 1318 881 1314 874 1310 C867 1302 862 1275 862 1249 C862 1228 865 1206 871 1197 C901 1190 940 1182 982 1176 L982 540 C982 153 819 122 642 122 C482 122 309 147 309 540 L309 1176 C350 1182 390 1190 420 1197 C426 1206 429 1228 429 1249 C429 1275 424 1302 417 1310 C410 1314 347 1318 290 1318 L174 1318 Z "/>
<glyph glyph-name="V" unicode="V" horiz-adv-x="1308" d="M654 165 L305 1177 C346 1183 385 1190 415 1197 C421 1206 424 1228 424 1249 C424 1275 419 1302 412 1310 C405 1314 342 1318 285 1318 L169 1318 C112 1318 49 1314 42 1310 C35 1302 30 1275 30 1249 C30 1228 33 1206 39 1197 C68 1190 105 1183 145 1177 L550 0 L757 0 L1163 1177 C1202 1183 1240 1190 1269 1197 C1275 1206 1278 1228 1278 1249 C1278 1275 1273 1302 1266 1310 C1259 1314 1196 1318 1139 1318 L1023 1318 C966 1318 903 1314 896 1310 C889 1302 884 1275 884 1249 C884 1228 887 1206 893 1197 C923 1190 962 1183 1003 1177 L654 165 Z "/>
<glyph glyph-name="W" unicode="W" horiz-adv-x="1866" d="M1310 272 L1011 1318 L855 1318 L555 272 L297 1176 C341 1182 383 1189 415 1197 C421 1206 424 1228 424 1249 C424 1275 419 1302 412 1310 C405 1314 342 1318 285 1318 L169 1318 C112 1318 49 1314 42 1310 C35 1302 30 1275 30 1249 C30 1228 33 1206 39 1197 C67 1190 102 1183 140 1178 L478 0 L634 0 L933 1045 L1232 0 L1388 0 L1726 1178 C1764 1183 1799 1190 1827 1197 C1833 1206 1836 1228 1836 1249 C1836 1275 1831 1302 1824 1310 C1817 1314 1754 1318 1697 1318 L1581 1318 C1524 1318 1461 1314 1454 1310 C1447 1302 1442 1275 1442 1249 C1442 1228 1445 1206 1451 1197 C1483 1189 1524 1182 1568 1176 L1310 272 Z "/>
<glyph glyph-name="X" unicode="X" horiz-adv-x="1242" d="M285 0 C342 0 405 4 412 8 C419 16 424 43 424 69 C424 90 421 112 415 121 L345 135 L621 560 L897 135 L827 121 C821 112 818 90 818 69 C818 43 823 16 830 8 C837 4 900 0 957 0 L1073 0 C1130 0 1193 4 1200 8 C1207 16 1212 43 1212 69 C1212 90 1209 112 1203 121 C1167 129 1120 137 1071 144 L711 699 L1020 1174 C1069 1180 1116 1188 1151 1197 C1157 1206 1160 1228 1160 1249 C1160 1275 1155 1302 1148 1310 C1141 1314 1078 1318 1021 1318 L905 1318 C848 1318 785 1314 778 1310 C771 1302 766 1275 766 1249 C766 1228 769 1206 775 1197 C795 1192 819 1187 845 1183 L621 837 L396 1183 C423 1187 447 1192 468 1197 C474 1206 477 1228 477 1249 C477 1275 472 1302 465 1310 C458 1314 395 1318 338 1318 L222 1318 C165 1318 102 1314 95 1310 C88 1302 83 1275 83 1249 C83 1228 86 1206 92 1197 C127 1189 173 1180 222 1174 L531 699 L171 144 C121 137 74 129 39 121 C33 112 30 90 30 69 C30 43 35 16 42 8 C49 4 112 0 169 0 L285 0 Z "/>
<glyph glyph-name="Y" unicode="Y" horiz-adv-x="1166" d="M641 0 C698 0 761 4 768 8 C775 16 780 43 780 69 C780 90 777 112 771 121 C741 128 701 135 660 141 L660 492 L992 1173 C1042 1180 1091 1188 1127 1197 C1133 1206 1136 1228 1136 1249 C1136 1275 1131 1302 1124 1310 C1117 1314 1054 1318 997 1318 L881 1318 C824 1318 761 1314 754 1310 C747 1302 742 1275 742 1249 C742 1228 745 1206 751 1197 C776 1191 807 1185 841 1180 L583 650 L324 1180 C358 1185 390 1191 415 1197 C421 1206 424 1228 424 1249 C424 1275 419 1302 412 1310 C405 1314 342 1318 285 1318 L169 1318 C112 1318 49 1314 42 1310 C35 1302 30 1275 30 1249 C30 1228 33 1206 39 1197 C75 1188 123 1180 173 1173 L506 492 L506 141 C464 135 425 128 395 121 C389 112 386 90 386 69 C386 43 391 16 398 8 C405 4 468 0 525 0 L641 0 Z "/>
<glyph glyph-name="Z" unicode="Z" horiz-adv-x="960" d="M884 1313 L880 1318 L84 1318 L84 1171 C84 1115 88 1051 91 1045 C99 1037 126 1033 152 1033 C174 1033 196 1036 205 1041 C213 1076 221 1124 228 1174 L658 1174 L65 5 L69 0 L895 0 L895 178 C895 234 891 298 888 304 C880 312 853 316 827 316 C805 316 783 313 774 308 C764 265 753 204 747 144 L288 144 L884 1313 Z "/>
<glyph glyph-name="bracketleft" unicode="[" horiz-adv-x="580" d="M460 1448 L120 1448 L120 0 L460 0 L460 144 L274 144 L274 1304 L460 1304 L460 1448 Z "/>
<glyph glyph-name="backslash" unicode="\" horiz-adv-x="971" d="M708 -221 L852 -168 L264 1448 L120 1395 L708 -221 Z "/>
<glyph glyph-name="bracketright" unicode="]" horiz-adv-x="580" d="M120 0 L460 0 L460 1448 L120 1448 L120 1304 L306 1304 L306 144 L120 144 L120 0 Z "/>
<glyph glyph-name="underscore" unicode="_" horiz-adv-x="800" d="M800 144 L0 144 L0 0 L800 0 L800 144 Z "/>
<glyph glyph-name="grave" unicode="`" horiz-adv-x="667" d="M182 1558 C140 1536 102 1487 94 1433 C136 1370 353 1225 531 1190 C547 1204 569 1265 573 1305 C376 1394 238 1509 182 1558 L182 1558 Z "/>
<glyph glyph-name="a" unicode="a" horiz-adv-x="1022" d="M137 875 C137 819 141 755 144 749 C152 741 179 737 205 737 C227 737 249 740 258 745 C266 782 275 832 282 884 C351 906 417 915 489 915 C597 915 685 872 685 717 L685 588 C593 596 531 600 476 600 C193 600 80 493 80 300 C80 42 279 -20 417 -20 C556 -20 664 42 737 125 C770 57 821 4 894 -20 L982 125 C853 164 839 278 839 387 L839 717 C839 983 688 1058 516 1058 C351 1058 276 1031 137 976 L137 875 Z M405 124 C374 124 233 148 233 300 C233 464 399 459 685 457 L685 373 C684 154 515 124 405 124 L405 124 Z "/>
<glyph glyph-name="b" unicode="b" horiz-adv-x="1110" d="M160 54 C256 14 379 -20 507 -20 C865 -20 1030 232 1030 525 C1030 827 854 1058 582 1058 C475 1058 388 1022 315 967 L315 1448 L309 1448 C291 1448 144 1444 48 1413 C44 1405 41 1387 41 1368 C41 1338 46 1303 52 1301 C57 1297 109 1295 160 1294 L160 54 Z M561 914 C783 914 875 744 875 539 C875 277 725 122 518 122 C451 122 383 128 315 154 L315 801 C368 876 457 914 561 914 L561 914 Z "/>
<glyph glyph-name="c" unicode="c" horiz-adv-x="899" d="M578 124 C389 124 233 252 233 532 C233 810 389 914 578 914 C625 914 679 907 734 894 C740 830 751 764 762 718 C771 713 793 710 815 710 C841 710 868 714 876 722 C879 728 883 792 883 848 L883 984 C777 1037 658 1058 562 1058 C304 1058 80 907 80 526 C80 139 313 -20 562 -20 C658 -20 777 1 883 54 L883 190 C883 246 879 310 876 316 C868 324 841 328 815 328 C793 328 771 325 762 320 C751 274 740 208 734 144 C679 130 625 124 578 124 L578 124 Z "/>
<glyph glyph-name="d" unicode="d" horiz-adv-x="1110" d="M950 1448 L944 1448 C926 1448 779 1444 683 1413 C679 1405 676 1387 676 1368 C676 1338 681 1303 687 1301 C692 1297 744 1295 795 1294 L795 1037 C734 1049 670 1058 603 1058 C245 1058 80 827 80 534 C80 232 256 -19 528 -19 C647 -19 742 25 820 92 L859 -20 L865 -20 C883 -20 1030 -16 1126 15 C1130 23 1133 41 1133 60 C1133 90 1128 125 1122 127 C1114 132 1003 134 950 134 L950 1448 Z M549 125 C327 125 235 316 235 521 C235 783 385 916 592 916 C658 916 726 902 795 875 L795 238 C741 161 652 125 549 125 L549 125 Z "/>
<glyph glyph-name="e" unicode="e" horiz-adv-x="946" d="M881 480 L881 620 C881 817 845 1058 526 1058 C215 1058 80 829 80 532 C80 149 304 -20 562 -20 C658 -20 753 1 860 54 L860 197 L857 198 C763 150 670 124 577 124 C399 124 250 240 234 480 L881 480 Z M523 914 C685 914 727 779 729 620 L241 620 C267 790 366 914 523 914 L523 914 Z "/>
<glyph glyph-name="f" unicode="f" horiz-adv-x="593" d="M622 1295 C628 1224 640 1184 652 1133 C661 1128 683 1125 705 1125 C731 1125 758 1129 766 1137 C769 1143 773 1189 773 1402 C685 1429 598 1448 520 1448 C342 1448 208 1351 208 1042 L208 1038 L40 1038 L40 895 L208 895 L208 147 C178 132 136 121 78 121 C72 111 69 89 69 69 C69 43 74 16 81 8 C88 4 151 0 208 0 L344 0 C401 0 464 4 471 8 C478 16 483 43 483 69 C483 90 480 112 474 121 C444 128 404 135 363 141 L363 895 L572 895 L572 1038 L363 1038 L363 1042 C363 1243 431 1305 536 1305 C562 1305 591 1301 622 1295 L622 1295 Z "/>
<glyph glyph-name="g" unicode="g" horiz-adv-x="1034" d="M98 712 C98 623 127 525 184 465 C135 404 109 340 109 284 C109 226 137 150 194 117 C116 37 70 -64 70 -147 C70 -331 216 -478 454 -478 C713 -478 988 -302 988 -75 C988 81 855 217 569 217 L373 217 C291 217 245 258 245 310 C245 336 256 365 280 395 C334 368 399 350 472 350 C699 350 859 519 859 716 C859 788 837 854 799 909 C867 951 940 975 994 984 L948 1115 C878 1115 772 1076 683 1010 C627 1040 559 1058 482 1058 C256 1058 98 909 98 712 L98 712 Z M478 920 C633 920 713 805 713 701 C713 598 636 487 481 487 C324 487 242 599 242 703 C242 806 324 920 478 920 L478 920 Z M431 84 C650 84 830 70 830 -85 C830 -209 683 -343 474 -343 C291 -343 222 -255 222 -133 C222 -61 258 21 314 84 L431 84 Z "/>
<glyph glyph-name="h" unicode="h" horiz-adv-x="1150" d="M334 1448 L328 1448 C310 1448 163 1444 67 1413 C63 1405 60 1387 60 1368 C60 1338 65 1303 71 1301 C76 1297 128 1295 179 1294 L179 147 C149 132 107 121 49 121 C43 111 40 89 40 69 C40 43 45 16 52 8 C59 4 122 0 179 0 L315 0 C372 0 435 4 442 8 C449 16 454 43 454 69 C454 90 451 112 445 121 C415 128 375 135 334 141 L334 815 C413 864 511 915 608 915 C733 915 835 856 835 656 L835 147 C805 132 763 121 705 121 C699 111 696 89 696 69 C696 43 701 16 708 8 C715 4 778 0 835 0 L971 0 C1028 0 1091 4 1098 8 C1105 16 1110 43 1110 69 C1110 90 1107 112 1101 121 C1071 128 1031 135 990 141 L990 664 C990 957 820 1058 623 1058 C532 1058 418 1007 334 956 L334 1448 Z "/>
<glyph glyph-name="i" unicode="i" horiz-adv-x="494" d="M150 1321 C150 1263 198 1215 257 1215 C316 1215 365 1263 365 1321 C365 1379 316 1428 257 1428 C198 1428 150 1379 150 1321 L150 1321 Z M334 1058 L328 1058 C310 1058 163 1054 67 1023 C63 1015 60 997 60 978 C60 948 65 913 71 911 C76 907 129 905 180 904 L180 148 C150 132 107 121 49 121 C43 111 40 89 40 69 C40 43 45 16 52 8 C59 4 122 0 179 0 L334 0 C385 0 436 4 442 8 C449 16 454 43 454 69 C454 90 451 112 445 121 C415 128 375 135 334 141 L334 1058 Z "/>
<glyph glyph-name="j" unicode="j" horiz-adv-x="540" d="M165 1321 C165 1263 213 1215 272 1215 C331 1215 380 1263 380 1321 C380 1379 331 1428 272 1428 C213 1428 165 1379 165 1321 L165 1321 Z M349 1058 L343 1058 C325 1058 178 1054 82 1023 C78 1015 75 997 75 978 C75 948 80 913 86 911 C91 907 143 905 194 904 L194 -74 C194 -263 113 -335 7 -335 C-21 -335 -51 -330 -82 -320 C-88 -260 -99 -199 -109 -156 C-118 -151 -140 -148 -162 -148 C-188 -148 -215 -152 -223 -160 C-226 -166 -230 -230 -230 -286 L-230 -415 C-143 -455 -55 -478 26 -478 C206 -478 349 -365 349 -74 L349 1058 Z "/>
<glyph glyph-name="k" unicode="k" horiz-adv-x="1029" d="M296 0 C353 0 416 4 423 8 C430 16 435 43 435 69 C435 90 432 112 426 121 C396 128 356 135 315 141 L315 527 C330 477 675 -8 882 -20 C954 73 998 156 1004 191 C989 208 955 239 921 244 C906 237 872 207 839 172 C688 277 516 482 503 536 L805 895 C850 901 892 909 925 917 C931 926 934 948 934 969 C934 995 929 1022 922 1030 C915 1034 852 1038 795 1038 L679 1038 C622 1038 559 1034 552 1030 C545 1022 540 995 540 969 C540 948 543 926 549 917 C568 912 590 908 614 904 L315 546 L315 1448 L309 1448 C291 1448 144 1444 48 1413 C44 1405 41 1387 41 1368 C41 1338 46 1303 52 1301 C57 1297 109 1295 160 1294 L160 147 C130 132 88 121 30 121 C24 111 21 89 21 69 C21 43 26 16 33 8 C40 4 103 0 160 0 L296 0 Z "/>
<glyph glyph-name="l" unicode="l" horiz-adv-x="494" d="M315 0 C372 0 435 4 442 8 C449 16 454 43 454 69 C454 90 451 112 445 121 C415 128 375 135 334 141 L334 1448 L328 1448 C310 1448 163 1444 67 1413 C63 1405 60 1387 60 1368 C60 1338 65 1303 71 1301 C76 1297 129 1295 180 1294 L180 148 C150 132 107 121 49 121 C43 111 40 89 40 69 C40 43 45 16 52 8 C59 4 122 0 179 0 L315 0 Z "/>
<glyph glyph-name="m" unicode="m" horiz-adv-x="1662" d="M265 1058 L259 1058 C241 1058 157 1054 61 1023 C57 1015 54 997 54 978 C54 948 59 913 65 911 C70 907 123 905 174 904 L174 147 C144 132 102 121 44 121 C38 111 35 89 35 69 C35 43 40 16 47 8 C54 4 117 0 174 0 L310 0 C367 0 430 4 437 8 C444 16 449 43 449 69 C449 90 446 112 440 121 C410 128 370 135 329 141 L329 817 C406 875 489 915 575 915 C684 915 766 848 766 656 L766 148 C736 132 693 121 635 121 C629 111 626 89 626 69 C626 43 631 16 638 8 C645 4 708 0 765 0 L901 0 C958 0 1021 4 1028 8 C1035 16 1040 43 1040 69 C1040 90 1037 112 1031 121 C1001 128 961 135 920 141 L920 665 C920 733 911 790 896 838 C967 878 1049 915 1130 915 C1255 915 1357 856 1357 655 L1357 147 C1327 132 1285 121 1227 121 C1221 111 1218 89 1218 69 C1218 43 1223 16 1230 8 C1237 4 1300 0 1357 0 L1493 0 C1550 0 1613 4 1620 8 C1627 16 1632 43 1632 69 C1632 90 1629 112 1623 121 C1593 128 1553 135 1512 141 L1512 664 C1512 957 1342 1058 1145 1058 C1049 1058 925 1000 840 946 C778 1026 689 1058 603 1058 C514 1058 433 1025 307 943 L265 1058 Z "/>
<glyph glyph-name="n" unicode="n" horiz-adv-x="1135" d="M985 0 C1036 0 1087 4 1093 8 C1100 16 1105 43 1105 69 C1105 90 1102 112 1096 121 C1066 128 1026 135 985 141 L985 664 C985 957 815 1058 618 1058 C519 1058 392 998 307 942 L272 1058 L266 1058 C248 1058 157 1054 61 1023 C57 1015 54 997 54 978 C54 948 59 913 65 911 C70 907 123 905 174 904 L174 147 C144 132 102 121 44 121 C38 111 35 89 35 69 C35 43 40 16 47 8 C54 4 117 0 174 0 L329 0 C380 0 431 4 437 8 C444 16 449 43 449 69 C449 90 446 112 440 121 C410 128 370 135 329 141 L329 815 C408 863 506 915 603 915 C728 915 830 856 830 655 L830 147 C800 132 758 121 700 121 C694 111 691 89 691 69 C691 43 696 16 703 8 C710 4 773 0 830 0 L985 0 Z "/>
<glyph glyph-name="o" unicode="o" horiz-adv-x="1112" d="M80 516 C80 221 268 -20 552 -20 C836 -20 1032 220 1032 521 C1032 816 844 1058 560 1058 C278 1058 80 817 80 516 L80 516 Z M235 524 C235 744 348 914 556 914 C771 914 877 733 877 513 C877 291 769 124 561 124 C345 124 235 307 235 524 L235 524 Z "/>
<glyph glyph-name="p" unicode="p" horiz-adv-x="1110" d="M258 1058 L252 1058 C234 1058 143 1054 47 1023 C43 1015 40 997 40 978 C40 948 45 913 51 911 C56 907 109 905 160 904 L160 -310 C130 -325 88 -337 30 -337 C24 -347 21 -369 21 -389 C21 -415 26 -442 33 -450 C40 -454 103 -458 160 -458 L296 -458 C353 -458 416 -454 423 -450 C430 -442 435 -415 435 -389 C435 -368 432 -346 426 -337 C396 -330 356 -322 315 -316 L315 1 C375 -12 440 -20 507 -20 C865 -20 1030 233 1030 526 C1030 828 854 1058 582 1058 C464 1058 370 1015 292 948 L258 1058 Z M561 914 C783 914 875 744 875 539 C875 277 725 122 518 122 C451 122 383 134 315 162 L315 802 C368 877 457 914 561 914 L561 914 Z "/>
<glyph glyph-name="q" unicode="q" horiz-adv-x="1110" d="M931 -458 C988 -458 1051 -454 1058 -450 C1065 -442 1070 -415 1070 -389 C1070 -368 1067 -346 1061 -337 C1031 -330 991 -322 950 -316 L950 984 C854 1024 731 1058 603 1058 C245 1058 80 828 80 535 C80 233 256 -20 528 -20 C634 -20 722 14 795 71 L795 -310 C765 -325 723 -337 665 -337 C659 -347 656 -369 656 -389 C656 -415 661 -442 668 -450 C675 -454 738 -458 795 -458 L931 -458 Z M549 123 C327 123 235 317 235 521 C235 783 385 916 592 916 C658 916 726 909 795 884 L795 236 C741 160 652 123 549 123 L549 123 Z "/>
<glyph glyph-name="r" unicode="r" horiz-adv-x="813" d="M310 1058 L304 1058 C286 1058 195 1054 99 1023 C95 1015 92 997 92 978 C92 948 97 913 103 911 C108 907 161 905 212 904 L212 147 C182 132 140 121 82 121 C76 111 73 89 73 69 C73 43 78 16 85 8 C92 4 155 0 212 0 L348 0 C405 0 468 4 475 8 C482 16 487 43 487 69 C487 90 484 112 478 121 C448 128 408 135 367 141 L367 776 C420 857 492 915 582 915 C624 915 687 902 725 883 L779 1022 C731 1044 658 1058 607 1058 C512 1058 429 1009 352 920 L310 1058 Z "/>
<glyph glyph-name="s" unicode="s" horiz-adv-x="801" d="M576 293 C576 168 410 125 315 125 C284 125 250 128 218 135 C211 196 201 258 191 302 C182 307 160 310 138 310 C112 310 85 306 77 298 C74 292 70 228 70 172 L70 27 C137 -2 218 -20 306 -20 C512 -20 731 88 731 313 C731 654 227 569 227 798 C227 894 317 919 403 919 C448 919 497 913 540 906 C545 867 552 831 559 803 C568 798 590 795 612 795 C638 795 665 799 673 807 C676 813 680 877 680 933 L680 1017 C609 1040 517 1058 426 1058 C248 1058 74 992 74 785 C74 437 576 512 576 293 L576 293 Z "/>
<glyph glyph-name="t" unicode="t" horiz-adv-x="754" d="M734 172 C734 228 730 292 727 298 C719 306 692 310 666 310 C644 310 622 307 613 302 C603 259 592 198 586 137 C555 128 525 123 497 123 C391 123 310 195 310 384 L310 894 L598 894 L598 1038 L310 1038 L310 1251 L300 1251 L155 1224 L155 1038 L40 1038 L40 894 L155 894 L155 384 C155 93 298 -20 478 -20 C559 -20 647 3 734 43 L734 172 Z "/>
<glyph glyph-name="u" unicode="u" horiz-adv-x="1162" d="M960 1058 L954 1058 C936 1058 789 1054 693 1023 C689 1015 686 997 686 978 C686 948 691 913 697 911 C702 907 754 905 805 904 L805 222 C726 174 627 123 531 123 C406 123 304 182 304 383 L304 1058 L298 1058 C280 1058 133 1054 37 1023 C33 1015 30 997 30 978 C30 948 35 913 41 911 C46 907 98 905 149 904 L149 374 C149 81 319 -20 516 -20 C616 -20 746 42 831 99 L868 -20 L874 -20 C892 -20 1039 -16 1135 15 C1139 23 1142 41 1142 60 C1142 90 1137 125 1131 127 C1123 132 1013 134 960 134 L960 1058 Z "/>
<glyph glyph-name="v" unicode="v" horiz-adv-x="1114" d="M829 1038 C772 1038 709 1034 702 1030 C695 1022 690 995 690 969 C690 948 693 926 699 917 C728 910 767 903 808 897 L557 165 L306 897 C347 903 385 910 415 917 C421 926 424 948 424 969 C424 995 419 1022 412 1030 C405 1034 342 1038 285 1038 L169 1038 C112 1038 49 1034 42 1030 C35 1022 30 995 30 969 C30 948 33 926 39 917 C68 910 105 903 145 897 L453 0 L660 0 L968 897 C1008 903 1046 910 1075 917 C1081 926 1084 948 1084 969 C1084 995 1079 1022 1072 1030 C1065 1034 1002 1038 945 1038 L829 1038 Z "/>
<glyph glyph-name="w" unicode="w" horiz-adv-x="1719" d="M1434 1038 C1377 1038 1314 1034 1307 1030 C1300 1022 1295 995 1295 969 C1295 948 1298 926 1304 917 C1334 910 1374 902 1417 896 L1187 171 L930 1038 L788 1038 L531 171 L301 896 C344 902 384 909 415 917 C421 926 424 948 424 969 C424 995 419 1022 412 1030 C405 1034 342 1038 285 1038 L169 1038 C112 1038 49 1034 42 1030 C35 1022 30 995 30 969 C30 948 33 926 39 917 C69 910 109 902 151 896 L435 0 L628 0 L859 790 L1090 0 L1282 0 L1566 896 C1608 902 1649 909 1680 917 C1686 926 1689 948 1689 969 C1689 995 1684 1022 1677 1030 C1670 1034 1607 1038 1550 1038 L1434 1038 Z "/>
<glyph glyph-name="x" unicode="x" horiz-adv-x="1107" d="M285 0 C342 0 405 4 412 8 C419 16 424 43 424 69 C424 90 421 112 415 121 C396 125 374 130 351 134 L553 424 L756 134 C732 130 710 125 692 121 C686 112 683 90 683 69 C683 43 688 16 695 8 C702 4 765 0 822 0 L938 0 C995 0 1058 4 1065 8 C1072 16 1077 43 1077 69 C1077 90 1074 112 1068 121 C1032 129 984 138 934 144 L650 549 L891 893 C941 900 989 908 1025 917 C1031 926 1034 948 1034 969 C1034 995 1029 1022 1022 1030 C1015 1034 952 1038 895 1038 L779 1038 C722 1038 659 1034 652 1030 C645 1022 640 995 640 969 C640 948 643 926 649 917 C667 912 689 908 713 904 L558 682 L403 904 C426 908 448 912 467 917 C473 926 476 948 476 969 C476 995 471 1022 464 1030 C457 1034 394 1038 337 1038 L221 1038 C164 1038 101 1034 94 1030 C87 1022 82 995 82 969 C82 948 85 926 91 917 C127 908 175 900 225 893 L461 556 L173 144 C123 138 75 129 39 121 C33 112 30 90 30 69 C30 43 35 16 42 8 C49 4 112 0 169 0 L285 0 Z "/>
<glyph glyph-name="y" unicode="y" horiz-adv-x="1052" d="M941 1038 L762 1038 C705 1038 642 1034 635 1030 C628 1022 623 995 623 969 C623 948 626 926 632 917 C660 910 695 903 733 898 L480 165 L228 895 C273 901 315 909 348 917 C354 926 357 948 357 969 C357 995 352 1022 345 1030 C338 1034 275 1038 218 1038 L19 1038 L20 1035 C-4 1034 -21 1032 -25 1030 C-32 1022 -37 995 -37 969 C-37 948 -34 926 -28 917 C-1 911 31 904 67 899 L376 0 L424 0 L347 -223 C318 -304 247 -335 177 -335 C148 -335 118 -330 88 -320 C81 -260 71 -199 61 -156 C52 -151 30 -148 8 -148 C-18 -148 -45 -152 -53 -160 C-56 -166 -60 -230 -60 -286 L-60 -415 C26 -454 114 -478 196 -478 C333 -478 440 -413 496 -252 L892 896 C935 902 976 909 1008 917 C1014 926 1017 948 1017 969 C1017 995 1012 1022 1005 1030 C1000 1032 974 1035 940 1036 L941 1038 Z "/>
<glyph glyph-name="z" unicode="z" horiz-adv-x="911" d="M50 5 L55 0 L858 0 L858 144 C858 200 854 264 851 270 C843 278 816 282 790 282 C768 282 746 279 737 274 C729 239 720 192 714 144 L315 144 L861 1032 L856 1038 L66 1038 L66 894 C66 838 70 774 73 768 C81 760 108 756 134 756 C156 756 178 759 187 764 C195 799 203 845 210 894 L596 894 L50 5 Z "/>
<glyph glyph-name="braceleft" unicode="{" horiz-adv-x="810" d="M690 123 L678 123 C570 123 482 166 482 321 L482 445 C482 577 445 662 386 714 C445 766 482 850 482 983 L482 1107 C482 1262 570 1305 678 1305 L690 1305 L690 1447 C677 1447 665 1448 651 1448 C479 1448 328 1373 328 1107 L328 983 C328 828 240 785 132 785 L120 785 L120 643 L140 643 C245 641 328 596 328 445 L328 321 C328 55 479 -20 651 -20 C665 -20 677 -19 690 -19 L690 123 Z "/>
<glyph glyph-name="bar" unicode="|" horiz-adv-x="314" d="M234 1448 L80 1448 L80 -270 L234 -270 L234 1448 Z "/>
<glyph glyph-name="braceright" unicode="}" horiz-adv-x="810" d="M120 123 L120 -19 C133 -19 145 -20 159 -20 C331 -20 482 55 482 321 L482 445 C482 596 565 641 670 643 L690 643 L690 785 L678 785 C570 785 482 828 482 983 L482 1107 C482 1373 331 1448 159 1448 C145 1448 133 1447 120 1447 L120 1305 L132 1305 C240 1305 328 1262 328 1107 L328 983 C328 850 365 766 424 714 C365 662 328 577 328 445 L328 321 C328 166 240 123 132 123 L120 123 Z "/>
<glyph glyph-name="asciitilde" unicode="~" horiz-adv-x="1031" d="M749 654 C749 593 698 565 647 565 C547 565 498 661 382 661 C253 661 136 572 120 439 C166 397 227 400 282 408 L282 415 C282 476 331 504 385 504 C481 504 504 408 644 408 C778 408 895 497 911 630 C865 672 804 669 749 661 L749 654 Z "/>
<glyph glyph-name="exclamdown" unicode="¡" horiz-adv-x="467" d="M347 947 C347 1008 296 1059 234 1059 C172 1059 120 1008 120 947 C120 886 172 835 234 835 C296 835 347 886 347 947 L347 947 Z M175 633 C157 489 148 -125 148 -389 L312 -389 C312 -125 305 489 287 633 L175 633 Z "/>
<glyph glyph-name="cent" unicode="¢" horiz-adv-x="899" d="M578 124 C389 124 233 252 233 532 C233 810 389 914 578 914 C621 914 665 908 709 897 C716 832 727 764 738 718 C747 713 769 710 791 710 C817 710 844 714 852 722 C855 728 859 792 859 848 L859 984 C780 1023 708 1045 637 1053 L637 1208 L483 1208 L483 1053 C260 1024 80 867 80 526 C80 180 266 16 483 -14 L483 -150 L637 -150 L637 -15 C708 -7 780 15 859 54 L859 190 C859 246 855 310 852 316 C844 324 817 328 791 328 C769 328 747 325 738 320 C727 273 716 206 710 141 C665 129 621 124 578 124 L578 124 Z "/>
<glyph glyph-name="sterling" unicode="£" horiz-adv-x="1002" d="M42 0 L962 0 L962 144 C962 200 958 264 955 270 C947 278 920 282 894 282 C872 282 850 279 841 274 C833 239 824 192 818 144 L330 144 C395 214 441 305 441 406 C441 459 428 532 413 609 L742 609 L742 753 L385 753 C374 817 365 879 365 930 C365 1091 451 1193 620 1193 C660 1193 702 1187 743 1176 C750 1126 758 1077 767 1041 C776 1036 798 1033 820 1033 C846 1033 873 1037 881 1045 C884 1051 888 1115 888 1171 L888 1270 C794 1312 677 1338 577 1338 C372 1338 210 1228 210 942 C210 877 218 814 229 753 L40 753 L40 609 L258 609 C272 543 284 481 284 427 C284 239 146 144 42 144 L42 0 Z "/>
<glyph glyph-name="yen" unicode="¥" horiz-adv-x="1010" d="M369 612 L107 612 L107 458 L428 458 L428 373 L107 373 L107 219 L428 219 L428 141 C386 135 347 128 317 121 C311 112 308 90 308 69 C308 43 313 16 320 8 C327 4 390 0 447 0 L563 0 C620 0 683 4 690 8 C697 16 702 43 702 69 C702 90 699 112 693 121 C663 128 623 135 582 141 L582 219 L897 219 L897 373 L582 373 L582 458 L897 458 L897 612 L640 612 L914 1173 C964 1180 1013 1188 1049 1197 C1055 1206 1058 1228 1058 1249 C1058 1275 1053 1302 1046 1310 C1039 1314 976 1318 919 1318 L803 1318 C746 1318 683 1314 676 1310 C669 1302 664 1275 664 1249 C664 1228 667 1206 673 1197 C698 1191 729 1185 763 1180 L505 650 L246 1180 C280 1185 312 1191 337 1197 C343 1206 346 1228 346 1249 C346 1275 341 1302 334 1310 C327 1314 264 1318 207 1318 L91 1318 C34 1318 -29 1314 -36 1310 C-43 1302 -48 1275 -48 1249 C-48 1228 -45 1206 -39 1197 C-3 1188 45 1180 95 1173 L369 612 Z "/>
<glyph glyph-name="brokenbar" unicode="¦" horiz-adv-x="314" d="M80 1448 L80 748 L234 748 L234 1448 L80 1448 Z M234 -270 L234 430 L80 430 L80 -270 L234 -270 Z "/>
<glyph glyph-name="section" unicode="§" horiz-adv-x="930" d="M850 353 C850 777 562 776 386 967 C358 997 335 1031 335 1103 C335 1263 449 1305 567 1305 C640 1305 708 1289 761 1275 L768 1281 L768 1413 C705 1434 634 1448 562 1448 C422 1448 284 1396 227 1249 C126 1113 80 919 80 748 C80 324 368 325 544 134 C572 104 595 70 595 -2 C595 -162 481 -204 363 -204 C290 -204 222 -188 169 -174 L162 -180 L162 -312 C225 -333 296 -347 368 -347 C508 -347 646 -295 703 -148 C803 -12 850 182 850 353 L850 353 Z M293 822 C421 692 707 642 707 326 C707 287 702 242 694 196 C679 227 660 255 637 279 C509 409 223 459 223 775 C223 814 227 858 236 904 C250 873 269 846 293 822 L293 822 Z "/>
<glyph glyph-name="dieresis" unicode="¨" horiz-adv-x="791" d="M99 1302 C99 1241 150 1190 212 1190 C274 1190 326 1241 326 1302 C326 1363 274 1414 212 1414 C150 1414 99 1363 99 1302 L99 1302 Z M465 1302 C465 1241 516 1190 578 1190 C640 1190 692 1241 692 1302 C692 1363 640 1414 578 1414 C516 1414 465 1363 465 1302 L465 1302 Z "/>
<glyph glyph-name="copyright" unicode="©" horiz-adv-x="1604" d="M80 709 C80 914 155 1100 284 1233 C412 1366 595 1448 808 1448 C1023 1448 1202 1366 1327 1234 C1452 1101 1524 917 1524 716 C1524 511 1449 326 1321 193 C1193 60 1011 -22 796 -22 C581 -22 402 60 277 193 C152 325 80 508 80 709 L80 709 Z M223 710 C223 549 281 402 382 296 C483 190 626 123 798 123 C970 123 1115 189 1218 296 C1321 403 1380 551 1380 715 C1380 876 1322 1023 1222 1130 C1121 1237 978 1303 806 1303 C693 1303 590 1274 503 1223 C416 1171 346 1098 298 1011 C250 923 223 819 223 710 L223 710 Z M1054 487 L1054 346 C971 303 899 288 823 288 C727 288 633 319 564 388 C495 456 449 561 449 712 C449 860 493 962 561 1029 C629 1096 723 1125 823 1125 C899 1125 971 1110 1054 1067 L1054 927 L1049 923 C978 955 908 974 841 974 C774 974 716 955 673 914 C629 873 603 809 603 717 C603 621 630 551 674 506 C718 461 780 440 849 440 C914 440 980 457 1049 490 L1054 487 Z "/>
<glyph glyph-name="guillemotleft" unicode="«" horiz-adv-x="1188" d="M676 1372 L544 1449 L120 714 L544 -21 L676 56 L295 714 L676 1372 Z M1068 1372 L936 1449 L512 714 L936 -21 L1068 56 L687 714 L1068 1372 Z "/>
<glyph glyph-name="registered" unicode="®" horiz-adv-x="1218" d="M80 906 C80 611 289 370 605 370 C921 370 1138 610 1138 911 C1138 1206 929 1448 613 1448 C299 1448 80 1207 80 906 L80 906 Z M201 907 C201 1139 370 1325 612 1325 C856 1325 1016 1138 1016 910 C1016 679 849 493 606 493 C362 493 201 679 201 907 L201 907 Z M876 670 L873 677 C820 706 755 792 737 843 C796 872 833 923 833 1010 C833 1136 768 1196 578 1196 L398 1196 L398 626 L506 626 L506 812 L571 812 C594 812 617 814 638 816 C667 754 721 652 796 618 L876 670 Z M506 914 L506 1095 L581 1095 C670 1095 727 1082 727 1003 C727 929 669 914 574 914 L506 914 Z "/>
<glyph glyph-name="macron" unicode="¯" horiz-adv-x="842" d="M722 1338 L120 1338 L120 1194 L722 1194 L722 1338 Z "/>
<glyph glyph-name="degree" unicode="°" horiz-adv-x="814" d="M80 1000 C80 818 209 668 404 668 C599 668 734 817 734 1005 C734 1187 605 1338 410 1338 C215 1338 80 1188 80 1000 L80 1000 Z M220 1001 C220 1109 297 1195 409 1195 C520 1195 594 1108 594 1005 C594 897 517 811 405 811 C294 811 220 897 220 1001 L220 1001 Z "/>
<glyph glyph-name="plusminus" unicode="±" horiz-adv-x="1030" d="M592 720 L592 1038 L438 1038 L438 720 L120 720 L120 566 L438 566 L438 248 L592 248 L592 566 L910 566 L910 720 L592 720 Z M120 0 L910 0 L910 154 L120 154 L120 0 Z "/>
<glyph glyph-name="acute" unicode="´" horiz-adv-x="662" d="M485 1558 C429 1509 291 1394 94 1305 C98 1265 120 1204 136 1190 C314 1225 531 1370 573 1433 C565 1487 527 1536 485 1558 L485 1558 Z "/>
<glyph glyph-name="paragraph" unicode="¶" horiz-adv-x="1334" d="M518 0 L672 0 L672 1193 C718 1193 761 1188 803 1181 L803 0 L964 0 L964 1128 C1028 1096 1083 1053 1128 1002 L1132 1002 L1234 1108 C1152 1237 923 1337 642 1337 C438 1337 80 1284 80 893 C80 572 320 536 518 536 L518 0 Z M224 895 C224 1024 303 1143 518 1181 L518 688 C353 690 224 735 224 895 L224 895 Z "/>
<glyph glyph-name="periodcentered" unicode="·" horiz-adv-x="387" d="M80 518 C80 457 131 406 193 406 C255 406 307 457 307 518 C307 579 255 630 193 630 C131 630 80 579 80 518 L80 518 Z "/>
<glyph glyph-name="cedilla" unicode="¸" horiz-adv-x="543" d="M356 0 L197 0 L197 -159 C261 -159 356 -194 356 -270 C356 -325 302 -353 253 -353 C209 -353 155 -338 113 -320 C86 -340 70 -388 66 -427 C118 -461 180 -478 240 -478 C381 -478 489 -398 489 -272 C489 -184 439 -103 356 -80 L356 0 Z "/>
<glyph glyph-name="guillemotright" unicode="»" horiz-adv-x="1188" d="M120 56 L252 -21 L676 714 L252 1449 L120 1372 L500 714 L120 56 Z M512 56 L644 -21 L1068 714 L644 1449 L512 1372 L892 714 L512 56 Z "/>
<glyph glyph-name="questiondown" unicode="¿" horiz-adv-x="975" d="M691 946 C691 1007 640 1058 578 1058 C516 1058 464 1007 464 946 C464 885 516 834 578 834 C640 834 691 885 691 946 L691 946 Z M814 -153 L805 -153 C756 -220 639 -263 523 -263 C359 -263 270 -178 270 -60 C270 185 656 188 656 704 L502 704 C502 222 120 258 120 -69 C120 -304 317 -410 511 -410 C654 -410 791 -352 856 -268 L814 -153 Z "/>
<glyph glyph-name="Agrave" unicode="À" horiz-adv-x="1308" d="M503 1776 C461 1754 423 1705 415 1651 C457 1588 674 1443 852 1408 C868 1422 890 1483 894 1523 C697 1612 559 1727 503 1776 L503 1776 Z M285 0 C342 0 405 4 412 8 C419 16 424 43 424 69 C424 90 421 112 415 121 C385 128 346 135 305 141 L363 307 L945 307 L1002 141 C961 135 923 128 893 121 C887 112 884 90 884 69 C884 43 889 16 896 8 C903 4 966 0 1023 0 L1139 0 C1196 0 1259 4 1266 8 C1273 16 1278 43 1278 69 C1278 90 1275 112 1269 121 C1240 128 1202 135 1162 140 L757 1318 L550 1318 L145 140 C105 135 68 128 39 121 C33 112 30 90 30 69 C30 43 35 16 42 8 C49 4 112 0 169 0 L285 0 Z M896 451 L412 451 L654 1152 L896 451 Z "/>
<glyph glyph-name="Aacute" unicode="Á" horiz-adv-x="1308" d="M806 1776 C750 1727 612 1612 415 1523 C419 1483 441 1422 457 1408 C635 1443 852 1588 894 1651 C886 1705 848 1754 806 1776 L806 1776 Z M285 0 C342 0 405 4 412 8 C419 16 424 43 424 69 C424 90 421 112 415 121 C385 128 346 135 305 141 L363 307 L945 307 L1002 141 C961 135 923 128 893 121 C887 112 884 90 884 69 C884 43 889 16 896 8 C903 4 966 0 1023 0 L1139 0 C1196 0 1259 4 1266 8 C1273 16 1278 43 1278 69 C1278 90 1275 112 1269 121 C1240 128 1202 135 1162 140 L757 1318 L550 1318 L145 140 C105 135 68 128 39 121 C33 112 30 90 30 69 C30 43 35 16 42 8 C49 4 112 0 169 0 L285 0 Z M896 451 L412 451 L654 1152 L896 451 Z "/>
<glyph glyph-name="Acircumflex" unicode="Â" horiz-adv-x="1308" d="M656 1604 C749 1519 842 1462 953 1408 C970 1422 992 1483 996 1523 C869 1590 763 1672 658 1772 L650 1772 C546 1673 438 1590 312 1523 C316 1483 338 1422 355 1408 C466 1463 558 1518 651 1604 L656 1604 Z M285 0 C342 0 405 4 412 8 C419 16 424 43 424 69 C424 90 421 112 415 121 C385 128 346 135 305 141 L363 307 L945 307 L1002 141 C961 135 923 128 893 121 C887 112 884 90 884 69 C884 43 889 16 896 8 C903 4 966 0 1023 0 L1139 0 C1196 0 1259 4 1266 8 C1273 16 1278 43 1278 69 C1278 90 1275 112 1269 121 C1240 128 1202 135 1162 140 L757 1318 L550 1318 L145 140 C105 135 68 128 39 121 C33 112 30 90 30 69 C30 43 35 16 42 8 C49 4 112 0 169 0 L285 0 Z M896 451 L412 451 L654 1152 L896 451 Z "/>
<glyph glyph-name="Atilde" unicode="Ã" horiz-adv-x="1308" d="M858 1633 C858 1579 813 1555 768 1555 C681 1555 638 1639 537 1639 C424 1639 322 1562 308 1445 C348 1408 402 1411 449 1418 L449 1424 C449 1478 492 1502 540 1502 C623 1502 644 1418 766 1418 C883 1418 985 1495 999 1612 C959 1649 905 1646 858 1639 L858 1633 Z M285 0 C342 0 405 4 412 8 C419 16 424 43 424 69 C424 90 421 112 415 121 C385 128 346 135 305 141 L363 307 L945 307 L1002 141 C961 135 923 128 893 121 C887 112 884 90 884 69 C884 43 889 16 896 8 C903 4 966 0 1023 0 L1139 0 C1196 0 1259 4 1266 8 C1273 16 1278 43 1278 69 C1278 90 1275 112 1269 121 C1240 128 1202 135 1162 140 L757 1318 L550 1318 L145 140 C105 135 68 128 39 121 C33 112 30 90 30 69 C30 43 35 16 42 8 C49 4 112 0 169 0 L285 0 Z M896 451 L412 451 L654 1152 L896 451 Z "/>
<glyph glyph-name="Adieresis" unicode="Ä" horiz-adv-x="1308" d="M358 1520 C358 1459 409 1408 471 1408 C533 1408 585 1459 585 1520 C585 1581 533 1632 471 1632 C409 1632 358 1581 358 1520 L358 1520 Z M724 1520 C724 1459 775 1408 837 1408 C899 1408 951 1459 951 1520 C951 1581 899 1632 837 1632 C775 1632 724 1581 724 1520 L724 1520 Z M285 0 C342 0 405 4 412 8 C419 16 424 43 424 69 C424 90 421 112 415 121 C385 128 346 135 305 141 L363 307 L945 307 L1002 141 C961 135 923 128 893 121 C887 112 884 90 884 69 C884 43 889 16 896 8 C903 4 966 0 1023 0 L1139 0 C1196 0 1259 4 1266 8 C1273 16 1278 43 1278 69 C1278 90 1275 112 1269 121 C1240 128 1202 135 1162 140 L757 1318 L550 1318 L145 140 C105 135 68 128 39 121 C33 112 30 90 30 69 C30 43 35 16 42 8 C49 4 112 0 169 0 L285 0 Z M896 451 L412 451 L654 1152 L896 451 Z "/>
<glyph glyph-name="Aring" unicode="Å" horiz-adv-x="1308" d="M1269 121 C1240 128 1202 135 1162 140 L757 1318 C814 1354 854 1417 854 1487 C854 1594 761 1684 653 1684 C544 1684 453 1594 453 1487 C453 1417 492 1353 550 1318 L145 140 C105 135 68 128 39 121 C33 112 30 90 30 69 C30 43 35 16 42 8 C49 4 112 0 169 0 L285 0 C342 0 405 4 412 8 C419 16 424 43 424 69 C424 90 421 112 415 121 C385 128 346 135 305 141 L363 307 L945 307 L1002 141 C961 135 923 128 893 121 C887 112 884 90 884 69 C884 43 889 16 896 8 C903 4 966 0 1023 0 L1139 0 C1196 0 1259 4 1266 8 C1273 16 1278 43 1278 69 C1278 90 1275 112 1269 121 L1269 121 Z M653 1568 C697 1568 735 1530 735 1487 C735 1443 697 1406 653 1406 C609 1406 572 1443 572 1487 C572 1530 609 1568 653 1568 L653 1568 Z M896 451 L412 451 L654 1152 L896 451 Z "/>
<glyph glyph-name="AE" unicode="Æ" horiz-adv-x="1421" d="M213 0 C270 0 333 4 340 8 C347 16 352 43 352 69 C352 90 349 112 343 121 C313 128 274 135 233 141 L291 307 L873 307 L930 141 C889 135 851 128 821 121 C815 112 812 90 812 69 C812 43 817 16 824 8 C831 4 894 0 951 0 L1376 0 L1376 144 C1376 200 1372 264 1369 270 C1361 278 1334 282 1308 282 C1286 282 1264 279 1255 274 C1247 239 1238 192 1232 144 L1089 144 L936 587 L1128 587 C1134 538 1143 492 1151 457 C1160 452 1182 449 1204 449 C1230 449 1257 453 1265 461 C1268 467 1272 531 1272 587 L1272 731 C1272 787 1268 851 1265 857 C1257 865 1230 869 1204 869 C1182 869 1160 866 1151 861 C1143 826 1134 779 1128 731 L887 731 L734 1174 L1232 1174 C1238 1125 1247 1079 1255 1044 C1264 1039 1286 1036 1308 1036 C1334 1036 1361 1040 1369 1048 C1372 1054 1376 1118 1376 1174 L1376 1318 L478 1318 L73 140 C33 135 -4 128 -33 121 C-39 112 -42 90 -42 69 C-42 43 -37 16 -30 8 C-23 4 40 0 97 0 L213 0 Z M824 451 L340 451 L582 1152 L824 451 Z "/>
<glyph glyph-name="Ccedilla" unicode="Ç" horiz-adv-x="1081" d="M745 1193 C787 1193 840 1189 894 1182 C900 1124 910 1066 920 1025 C929 1020 951 1017 973 1017 C999 1017 1026 1021 1034 1029 C1037 1035 1041 1099 1041 1155 L1041 1297 C951 1323 831 1338 737 1338 C297 1338 87 1051 80 680 C80 297 269 19 653 -16 L653 -159 C717 -159 812 -194 812 -270 C812 -325 758 -353 709 -353 C665 -353 611 -338 569 -320 C542 -340 526 -388 522 -427 C574 -461 636 -478 696 -478 C837 -478 945 -398 945 -272 C945 -184 895 -103 812 -80 L812 -17 C889 -12 974 2 1041 21 L1041 163 C1041 219 1037 283 1034 289 C1026 297 999 301 973 301 C951 301 929 298 920 293 C910 252 900 194 894 136 C840 129 787 125 745 125 C402 125 234 349 234 660 C234 976 404 1193 745 1193 L745 1193 Z "/>
<glyph glyph-name="Egrave" unicode="È" horiz-adv-x="998" d="M413 1776 C371 1754 333 1705 325 1651 C367 1588 584 1443 762 1408 C778 1422 800 1483 804 1523 C607 1612 469 1727 413 1776 L413 1776 Z M954 1318 L179 1318 C122 1318 59 1314 52 1310 C45 1302 40 1275 40 1249 C40 1228 43 1206 49 1197 C79 1190 118 1182 160 1176 L160 141 C118 135 79 128 49 121 C43 112 40 90 40 69 C40 43 45 16 52 8 C59 4 122 0 179 0 L954 0 L954 144 C954 200 950 264 947 270 C939 278 912 282 886 282 C864 282 842 279 833 274 C825 239 816 192 810 144 L315 144 L315 587 L706 587 C712 538 721 492 729 457 C738 452 760 449 782 449 C808 449 835 453 843 461 C846 467 850 531 850 587 L850 731 C850 787 846 851 843 857 C835 865 808 869 782 869 C760 869 738 866 729 861 C721 826 712 779 706 731 L315 731 L315 1174 L810 1174 C816 1125 825 1079 833 1044 C842 1039 864 1036 886 1036 C912 1036 939 1040 947 1048 C950 1054 954 1118 954 1174 L954 1318 Z "/>
<glyph glyph-name="Eacute" unicode="É" horiz-adv-x="998" d="M705 1776 C649 1727 511 1612 314 1523 C318 1483 340 1422 356 1408 C534 1443 751 1588 793 1651 C785 1705 747 1754 705 1776 L705 1776 Z M954 1318 L179 1318 C122 1318 59 1314 52 1310 C45 1302 40 1275 40 1249 C40 1228 43 1206 49 1197 C79 1190 118 1182 160 1176 L160 141 C118 135 79 128 49 121 C43 112 40 90 40 69 C40 43 45 16 52 8 C59 4 122 0 179 0 L954 0 L954 144 C954 200 950 264 947 270 C939 278 912 282 886 282 C864 282 842 279 833 274 C825 239 816 192 810 144 L315 144 L315 587 L706 587 C712 538 721 492 729 457 C738 452 760 449 782 449 C808 449 835 453 843 461 C846 467 850 531 850 587 L850 731 C850 787 846 851 843 857 C835 865 808 869 782 869 C760 869 738 866 729 861 C721 826 712 779 706 731 L315 731 L315 1174 L810 1174 C816 1125 825 1079 833 1044 C842 1039 864 1036 886 1036 C912 1036 939 1040 947 1048 C950 1054 954 1118 954 1174 L954 1318 Z "/>
<glyph glyph-name="Ecircumflex" unicode="Ê" horiz-adv-x="998" d="M585 1604 C678 1519 771 1462 882 1408 C899 1422 921 1483 925 1523 C798 1590 692 1672 587 1772 L579 1772 C475 1673 367 1590 241 1523 C245 1483 267 1422 284 1408 C395 1463 487 1518 580 1604 L585 1604 Z M954 1318 L179 1318 C122 1318 59 1314 52 1310 C45 1302 40 1275 40 1249 C40 1228 43 1206 49 1197 C79 1190 118 1182 160 1176 L160 141 C118 135 79 128 49 121 C43 112 40 90 40 69 C40 43 45 16 52 8 C59 4 122 0 179 0 L954 0 L954 144 C954 200 950 264 947 270 C939 278 912 282 886 282 C864 282 842 279 833 274 C825 239 816 192 810 144 L315 144 L315 587 L706 587 C712 538 721 492 729 457 C738 452 760 449 782 449 C808 449 835 453 843 461 C846 467 850 531 850 587 L850 731 C850 787 846 851 843 857 C835 865 808 869 782 869 C760 869 738 866 729 861 C721 826 712 779 706 731 L315 731 L315 1174 L810 1174 C816 1125 825 1079 833 1044 C842 1039 864 1036 886 1036 C912 1036 939 1040 947 1048 C950 1054 954 1118 954 1174 L954 1318 Z "/>
<glyph glyph-name="Edieresis" unicode="Ë" horiz-adv-x="998" d="M261 1520 C261 1459 312 1408 374 1408 C436 1408 488 1459 488 1520 C488 1581 436 1632 374 1632 C312 1632 261 1581 261 1520 L261 1520 Z M627 1520 C627 1459 678 1408 740 1408 C802 1408 854 1459 854 1520 C854 1581 802 1632 740 1632 C678 1632 627 1581 627 1520 L627 1520 Z M954 1318 L179 1318 C122 1318 59 1314 52 1310 C45 1302 40 1275 40 1249 C40 1228 43 1206 49 1197 C79 1190 118 1182 160 1176 L160 141 C118 135 79 128 49 121 C43 112 40 90 40 69 C40 43 45 16 52 8 C59 4 122 0 179 0 L954 0 L954 144 C954 200 950 264 947 270 C939 278 912 282 886 282 C864 282 842 279 833 274 C825 239 816 192 810 144 L315 144 L315 587 L706 587 C712 538 721 492 729 457 C738 452 760 449 782 449 C808 449 835 453 843 461 C846 467 850 531 850 587 L850 731 C850 787 846 851 843 857 C835 865 808 869 782 869 C760 869 738 866 729 861 C721 826 712 779 706 731 L315 731 L315 1174 L810 1174 C816 1125 825 1079 833 1044 C842 1039 864 1036 886 1036 C912 1036 939 1040 947 1048 C950 1054 954 1118 954 1174 L954 1318 Z "/>
<glyph glyph-name="Igrave" unicode="Ì" horiz-adv-x="474" d="M82 1776 C40 1754 2 1705 -6 1651 C36 1588 253 1443 431 1408 C447 1422 469 1483 473 1523 C276 1612 138 1727 82 1776 L82 1776 Z M295 0 C352 0 415 4 422 8 C429 16 434 43 434 69 C434 90 431 112 425 121 C395 128 355 135 314 141 L314 1176 C355 1182 395 1190 425 1197 C431 1206 434 1228 434 1249 C434 1275 429 1302 422 1310 C415 1314 352 1318 295 1318 L179 1318 C122 1318 59 1314 52 1310 C45 1302 40 1275 40 1249 C40 1228 43 1206 49 1197 C79 1190 118 1182 160 1176 L160 141 C118 135 79 128 49 121 C43 112 40 90 40 69 C40 43 45 16 52 8 C59 4 122 0 179 0 L295 0 Z "/>
<glyph glyph-name="Iacute" unicode="Í" horiz-adv-x="474" d="M391 1776 C335 1727 197 1612 0 1523 C4 1483 26 1422 42 1408 C220 1443 437 1588 479 1651 C471 1705 433 1754 391 1776 L391 1776 Z M295 0 C352 0 415 4 422 8 C429 16 434 43 434 69 C434 90 431 112 425 121 C395 128 355 135 314 141 L314 1176 C355 1182 395 1190 425 1197 C431 1206 434 1228 434 1249 C434 1275 429 1302 422 1310 C415 1314 352 1318 295 1318 L179 1318 C122 1318 59 1314 52 1310 C45 1302 40 1275 40 1249 C40 1228 43 1206 49 1197 C79 1190 118 1182 160 1176 L160 141 C118 135 79 128 49 121 C43 112 40 90 40 69 C40 43 45 16 52 8 C59 4 122 0 179 0 L295 0 Z "/>
<glyph glyph-name="Icircumflex" unicode="Î" horiz-adv-x="474" d="M240 1604 C333 1519 426 1462 537 1408 C554 1422 576 1483 580 1523 C453 1590 347 1672 242 1772 L234 1772 C130 1673 22 1590 -104 1523 C-100 1483 -78 1422 -61 1408 C50 1463 142 1518 235 1604 L240 1604 Z M295 0 C352 0 415 4 422 8 C429 16 434 43 434 69 C434 90 431 112 425 121 C395 128 355 135 314 141 L314 1176 C355 1182 395 1190 425 1197 C431 1206 434 1228 434 1249 C434 1275 429 1302 422 1310 C415 1314 352 1318 295 1318 L179 1318 C122 1318 59 1314 52 1310 C45 1302 40 1275 40 1249 C40 1228 43 1206 49 1197 C79 1190 118 1182 160 1176 L160 141 C118 135 79 128 49 121 C43 112 40 90 40 69 C40 43 45 16 52 8 C59 4 122 0 179 0 L295 0 Z "/>
<glyph glyph-name="Idieresis" unicode="Ï" horiz-adv-x="474" d="M-58 1520 C-58 1459 -7 1408 55 1408 C117 1408 169 1459 169 1520 C169 1581 117 1632 55 1632 C-7 1632 -58 1581 -58 1520 L-58 1520 Z M308 1520 C308 1459 359 1408 421 1408 C483 1408 535 1459 535 1520 C535 1581 483 1632 421 1632 C359 1632 308 1581 308 1520 L308 1520 Z M295 0 C352 0 415 4 422 8 C429 16 434 43 434 69 C434 90 431 112 425 121 C395 128 355 135 314 141 L314 1176 C355 1182 395 1190 425 1197 C431 1206 434 1228 434 1249 C434 1275 429 1302 422 1310 C415 1314 352 1318 295 1318 L179 1318 C122 1318 59 1314 52 1310 C45 1302 40 1275 40 1249 C40 1228 43 1206 49 1197 C79 1190 118 1182 160 1176 L160 141 C118 135 79 128 49 121 C43 112 40 90 40 69 C40 43 45 16 52 8 C59 4 122 0 179 0 L295 0 Z "/>
<glyph glyph-name="Eth" unicode="Ð" horiz-adv-x="1298" d="M160 729 L-12 729 L-12 585 L160 585 L160 141 C118 135 79 128 49 121 C43 112 40 90 40 69 C40 43 45 16 52 8 C59 4 122 0 179 0 L549 0 C934 0 1218 277 1218 660 C1218 1043 918 1318 533 1318 L179 1318 C122 1318 59 1314 52 1310 C45 1302 40 1275 40 1249 C40 1228 43 1206 49 1197 C79 1190 118 1182 160 1176 L160 729 Z M315 729 L315 1174 L533 1174 C825 1174 1063 958 1063 644 C1063 351 868 144 549 144 L315 144 L315 585 L488 585 L488 729 L315 729 Z "/>
<glyph glyph-name="Ntilde" unicode="Ñ" horiz-adv-x="1263" d="M836 1633 C836 1579 791 1555 746 1555 C659 1555 616 1639 515 1639 C402 1639 300 1562 286 1445 C326 1408 380 1411 427 1418 L427 1424 C427 1478 470 1502 518 1502 C601 1502 622 1418 744 1418 C861 1418 963 1495 977 1612 C937 1649 883 1646 836 1639 L836 1633 Z M958 299 L321 1318 L179 1318 C122 1318 59 1314 52 1310 C45 1302 40 1275 40 1249 C40 1228 43 1206 49 1197 C79 1190 118 1182 160 1176 L160 141 C118 135 79 128 49 121 C43 112 40 90 40 69 C40 43 45 16 52 8 C59 4 122 0 179 0 L295 0 C352 0 415 4 422 8 C429 16 434 43 434 69 C434 90 431 112 425 121 C395 128 356 135 315 141 L315 1028 L958 0 L1113 0 L1113 1176 C1154 1182 1194 1190 1224 1197 C1230 1206 1233 1228 1233 1249 C1233 1275 1228 1302 1221 1310 C1214 1314 1151 1318 1094 1318 L977 1318 C920 1318 857 1314 850 1310 C843 1302 838 1275 838 1249 C838 1228 841 1206 847 1197 C877 1190 916 1182 958 1176 L958 299 Z "/>
<glyph glyph-name="Ograve" unicode="Ò" horiz-adv-x="1383" d="M553 1776 C511 1754 473 1705 465 1651 C507 1588 724 1443 902 1408 C918 1422 940 1483 944 1523 C747 1612 609 1727 553 1776 L553 1776 Z M80 660 C80 276 322 -20 687 -20 C1052 -20 1303 277 1303 660 C1303 1043 1063 1338 698 1338 C333 1338 80 1043 80 660 L80 660 Z M234 672 C234 970 405 1194 694 1194 C989 1194 1149 958 1149 648 C1149 347 987 124 699 124 C402 124 234 364 234 672 L234 672 Z "/>
<glyph glyph-name="Oacute" unicode="Ó" horiz-adv-x="1383" d="M852 1776 C796 1727 658 1612 461 1523 C465 1483 487 1422 503 1408 C681 1443 898 1588 940 1651 C932 1705 894 1754 852 1776 L852 1776 Z M80 660 C80 276 322 -20 687 -20 C1052 -20 1303 277 1303 660 C1303 1043 1063 1338 698 1338 C333 1338 80 1043 80 660 L80 660 Z M234 672 C234 970 405 1194 694 1194 C989 1194 1149 958 1149 648 C1149 347 987 124 699 124 C402 124 234 364 234 672 L234 672 Z "/>
<glyph glyph-name="Ocircumflex" unicode="Ô" horiz-adv-x="1383" d="M697 1604 C790 1519 883 1462 994 1408 C1011 1422 1033 1483 1037 1523 C910 1590 804 1672 699 1772 L691 1772 C587 1673 479 1590 353 1523 C357 1483 379 1422 396 1408 C507 1463 599 1518 692 1604 L697 1604 Z M80 660 C80 276 322 -20 687 -20 C1052 -20 1303 277 1303 660 C1303 1043 1063 1338 698 1338 C333 1338 80 1043 80 660 L80 660 Z M234 672 C234 970 405 1194 694 1194 C989 1194 1149 958 1149 648 C1149 347 987 124 699 124 C402 124 234 364 234 672 L234 672 Z "/>
<glyph glyph-name="Otilde" unicode="Õ" horiz-adv-x="1383" d="M896 1633 C896 1579 851 1555 806 1555 C719 1555 676 1639 575 1639 C462 1639 360 1562 346 1445 C386 1408 440 1411 487 1418 L487 1424 C487 1478 530 1502 578 1502 C661 1502 682 1418 804 1418 C921 1418 1023 1495 1037 1612 C997 1649 943 1646 896 1639 L896 1633 Z M80 660 C80 276 322 -20 687 -20 C1052 -20 1303 277 1303 660 C1303 1043 1063 1338 698 1338 C333 1338 80 1043 80 660 L80 660 Z M234 672 C234 970 405 1194 694 1194 C989 1194 1149 958 1149 648 C1149 347 987 124 699 124 C402 124 234 364 234 672 L234 672 Z "/>
<glyph glyph-name="Odieresis" unicode="Ö" horiz-adv-x="1383" d="M397 1520 C397 1459 448 1408 510 1408 C572 1408 624 1459 624 1520 C624 1581 572 1632 510 1632 C448 1632 397 1581 397 1520 L397 1520 Z M763 1520 C763 1459 814 1408 876 1408 C938 1408 990 1459 990 1520 C990 1581 938 1632 876 1632 C814 1632 763 1581 763 1520 L763 1520 Z M80 660 C80 276 322 -20 687 -20 C1052 -20 1303 277 1303 660 C1303 1043 1063 1338 698 1338 C333 1338 80 1043 80 660 L80 660 Z M234 672 C234 970 405 1194 694 1194 C989 1194 1149 958 1149 648 C1149 347 987 124 699 124 C402 124 234 364 234 672 L234 672 Z "/>
<glyph glyph-name="multiply" unicode="×" horiz-adv-x="908" d="M345 515 L120 290 L229 181 L454 406 L679 181 L788 290 L563 515 L788 740 L679 849 L454 624 L229 849 L120 740 L345 515 Z "/>
<glyph glyph-name="Oslash" unicode="Ø" horiz-adv-x="1383" d="M342 -168 L486 -221 L563 -8 C603 -16 644 -20 687 -20 C1052 -20 1303 277 1303 660 C1303 914 1197 1129 1019 1245 L1074 1395 L930 1448 L880 1311 C823 1328 763 1338 698 1338 C333 1338 80 1043 80 660 C80 380 208 148 418 42 L342 -168 Z M234 672 C234 970 405 1194 694 1194 C743 1194 789 1187 830 1174 L469 183 C317 272 234 455 234 672 L234 672 Z M1149 648 C1149 347 987 124 699 124 C669 124 641 126 614 131 L967 1103 C1086 1006 1149 841 1149 648 L1149 648 Z "/>
<glyph glyph-name="Ugrave" unicode="Ù" horiz-adv-x="1291" d="M487 1776 C445 1754 407 1705 399 1651 C441 1588 658 1443 836 1408 C852 1422 874 1483 878 1523 C681 1612 543 1727 487 1776 L487 1776 Z M174 1318 C117 1318 54 1314 47 1310 C40 1302 35 1275 35 1249 C35 1228 38 1206 44 1197 C74 1190 113 1182 155 1176 L155 490 C155 38 420 -20 643 -20 C869 -20 1136 40 1136 490 L1136 1176 C1177 1182 1217 1190 1247 1197 C1253 1206 1256 1228 1256 1249 C1256 1275 1251 1302 1244 1310 C1237 1314 1174 1318 1117 1318 L1001 1318 C944 1318 881 1314 874 1310 C867 1302 862 1275 862 1249 C862 1228 865 1206 871 1197 C901 1190 940 1182 982 1176 L982 540 C982 153 819 122 642 122 C482 122 309 147 309 540 L309 1176 C350 1182 390 1190 420 1197 C426 1206 429 1228 429 1249 C429 1275 424 1302 417 1310 C410 1314 347 1318 290 1318 L174 1318 Z "/>
<glyph glyph-name="Uacute" unicode="Ú" horiz-adv-x="1291" d="M836 1776 C780 1727 642 1612 445 1523 C449 1483 471 1422 487 1408 C665 1443 882 1588 924 1651 C916 1705 878 1754 836 1776 L836 1776 Z M174 1318 C117 1318 54 1314 47 1310 C40 1302 35 1275 35 1249 C35 1228 38 1206 44 1197 C74 1190 113 1182 155 1176 L155 490 C155 38 420 -20 643 -20 C869 -20 1136 40 1136 490 L1136 1176 C1177 1182 1217 1190 1247 1197 C1253 1206 1256 1228 1256 1249 C1256 1275 1251 1302 1244 1310 C1237 1314 1174 1318 1117 1318 L1001 1318 C944 1318 881 1314 874 1310 C867 1302 862 1275 862 1249 C862 1228 865 1206 871 1197 C901 1190 940 1182 982 1176 L982 540 C982 153 819 122 642 122 C482 122 309 147 309 540 L309 1176 C350 1182 390 1190 420 1197 C426 1206 429 1228 429 1249 C429 1275 424 1302 417 1310 C410 1314 347 1318 290 1318 L174 1318 Z "/>
<glyph glyph-name="Ucircumflex" unicode="Û" horiz-adv-x="1291" d="M656 1604 C749 1519 842 1462 953 1408 C970 1422 992 1483 996 1523 C869 1590 763 1672 658 1772 L650 1772 C546 1673 438 1590 312 1523 C316 1483 338 1422 355 1408 C466 1463 558 1518 651 1604 L656 1604 Z M174 1318 C117 1318 54 1314 47 1310 C40 1302 35 1275 35 1249 C35 1228 38 1206 44 1197 C74 1190 113 1182 155 1176 L155 490 C155 38 420 -20 643 -20 C869 -20 1136 40 1136 490 L1136 1176 C1177 1182 1217 1190 1247 1197 C1253 1206 1256 1228 1256 1249 C1256 1275 1251 1302 1244 1310 C1237 1314 1174 1318 1117 1318 L1001 1318 C944 1318 881 1314 874 1310 C867 1302 862 1275 862 1249 C862 1228 865 1206 871 1197 C901 1190 940 1182 982 1176 L982 540 C982 153 819 122 642 122 C482 122 309 147 309 540 L309 1176 C350 1182 390 1190 420 1197 C426 1206 429 1228 429 1249 C429 1275 424 1302 417 1310 C410 1314 347 1318 290 1318 L174 1318 Z "/>
<glyph glyph-name="Udieresis" unicode="Ü" horiz-adv-x="1291" d="M354 1520 C354 1459 405 1408 467 1408 C529 1408 581 1459 581 1520 C581 1581 529 1632 467 1632 C405 1632 354 1581 354 1520 L354 1520 Z M720 1520 C720 1459 771 1408 833 1408 C895 1408 947 1459 947 1520 C947 1581 895 1632 833 1632 C771 1632 720 1581 720 1520 L720 1520 Z M174 1318 C117 1318 54 1314 47 1310 C40 1302 35 1275 35 1249 C35 1228 38 1206 44 1197 C74 1190 113 1182 155 1176 L155 490 C155 38 420 -20 643 -20 C869 -20 1136 40 1136 490 L1136 1176 C1177 1182 1217 1190 1247 1197 C1253 1206 1256 1228 1256 1249 C1256 1275 1251 1302 1244 1310 C1237 1314 1174 1318 1117 1318 L1001 1318 C944 1318 881 1314 874 1310 C867 1302 862 1275 862 1249 C862 1228 865 1206 871 1197 C901 1190 940 1182 982 1176 L982 540 C982 153 819 122 642 122 C482 122 309 147 309 540 L309 1176 C350 1182 390 1190 420 1197 C426 1206 429 1228 429 1249 C429 1275 424 1302 417 1310 C410 1314 347 1318 290 1318 L174 1318 Z "/>
<glyph glyph-name="Yacute" unicode="Ý" horiz-adv-x="1166" d="M789 1776 C733 1727 595 1612 398 1523 C402 1483 424 1422 440 1408 C618 1443 835 1588 877 1651 C869 1705 831 1754 789 1776 L789 1776 Z M641 0 C698 0 761 4 768 8 C775 16 780 43 780 69 C780 90 777 112 771 121 C741 128 701 135 660 141 L660 492 L992 1173 C1042 1180 1091 1188 1127 1197 C1133 1206 1136 1228 1136 1249 C1136 1275 1131 1302 1124 1310 C1117 1314 1054 1318 997 1318 L881 1318 C824 1318 761 1314 754 1310 C747 1302 742 1275 742 1249 C742 1228 745 1206 751 1197 C776 1191 807 1185 841 1180 L583 650 L324 1180 C358 1185 390 1191 415 1197 C421 1206 424 1228 424 1249 C424 1275 419 1302 412 1310 C405 1314 342 1318 285 1318 L169 1318 C112 1318 49 1314 42 1310 C35 1302 30 1275 30 1249 C30 1228 33 1206 39 1197 C75 1188 123 1180 173 1173 L506 492 L506 141 C464 135 425 128 395 121 C389 112 386 90 386 69 C386 43 391 16 398 8 C405 4 468 0 525 0 L641 0 Z "/>
<glyph glyph-name="Thorn" unicode="Þ" horiz-adv-x="600" d=""/>
<glyph glyph-name="germandbls" unicode="ß" horiz-adv-x="1161" d="M315 0 C366 1 416 4 422 8 C429 16 434 43 434 69 C434 90 431 112 425 121 C395 128 356 135 315 141 L315 1026 C315 1167 385 1304 573 1304 C674 1304 779 1265 779 1169 C779 1007 477 1104 477 752 C477 402 936 517 936 288 C936 170 813 125 715 125 C696 125 676 126 655 129 C649 193 638 257 628 302 C619 307 597 310 575 310 C549 310 522 306 514 298 C511 292 507 228 507 172 L507 14 C567 -7 636 -20 706 -20 C915 -20 1091 90 1091 308 C1091 656 639 535 630 758 C641 971 941 859 941 1155 C941 1381 766 1448 573 1448 C323 1448 174 1336 161 1065 C131 1050 88 1038 29 1038 C23 1028 20 1006 20 986 C20 960 25 933 32 925 C39 921 102 917 159 917 L160 917 L160 148 C130 132 87 121 29 121 C23 111 20 89 20 69 C20 43 25 16 32 8 C39 4 102 0 159 0 L315 0 Z "/>
<glyph glyph-name="agrave" unicode="à" horiz-adv-x="1022" d="M359 1558 C317 1536 279 1487 271 1433 C313 1370 530 1225 708 1190 C724 1204 746 1265 750 1305 C553 1394 415 1509 359 1558 L359 1558 Z M137 875 C137 819 141 755 144 749 C152 741 179 737 205 737 C227 737 249 740 258 745 C266 782 275 832 282 884 C351 906 417 915 489 915 C597 915 685 872 685 717 L685 588 C593 596 531 600 476 600 C193 600 80 493 80 300 C80 42 279 -20 417 -20 C556 -20 664 42 737 125 C770 57 821 4 894 -20 L982 125 C853 164 839 278 839 387 L839 717 C839 983 688 1058 516 1058 C351 1058 276 1031 137 976 L137 875 Z M405 124 C374 124 233 148 233 300 C233 464 399 459 685 457 L685 373 C684 154 515 124 405 124 L405 124 Z "/>
<glyph glyph-name="aacute" unicode="á" horiz-adv-x="1022" d="M662 1558 C606 1509 468 1394 271 1305 C275 1265 297 1204 313 1190 C491 1225 708 1370 750 1433 C742 1487 704 1536 662 1558 L662 1558 Z M137 875 C137 819 141 755 144 749 C152 741 179 737 205 737 C227 737 249 740 258 745 C266 782 275 832 282 884 C351 906 417 915 489 915 C597 915 685 872 685 717 L685 588 C593 596 531 600 476 600 C193 600 80 493 80 300 C80 42 279 -20 417 -20 C556 -20 664 42 737 125 C770 57 821 4 894 -20 L982 125 C853 164 839 278 839 387 L839 717 C839 983 688 1058 516 1058 C351 1058 276 1031 137 976 L137 875 Z M405 124 C374 124 233 148 233 300 C233 464 399 459 685 457 L685 373 C684 154 515 124 405 124 L405 124 Z "/>
<glyph glyph-name="acircumflex" unicode="â" horiz-adv-x="1022" d="M486 1386 C579 1301 672 1244 783 1190 C800 1204 822 1265 826 1305 C699 1372 593 1454 488 1554 L480 1554 C376 1455 268 1372 142 1305 C146 1265 168 1204 185 1190 C296 1245 388 1300 481 1386 L486 1386 Z M137 875 C137 819 141 755 144 749 C152 741 179 737 205 737 C227 737 249 740 258 745 C266 782 275 832 282 884 C351 906 417 915 489 915 C597 915 685 872 685 717 L685 588 C593 596 531 600 476 600 C193 600 80 493 80 300 C80 42 279 -20 417 -20 C556 -20 664 42 737 125 C770 57 821 4 894 -20 L982 125 C853 164 839 278 839 387 L839 717 C839 983 688 1058 516 1058 C351 1058 276 1031 137 976 L137 875 Z M405 124 C374 124 233 148 233 300 C233 464 399 459 685 457 L685 373 C684 154 515 124 405 124 L405 124 Z "/>
<glyph glyph-name="atilde" unicode="ã" horiz-adv-x="1022" d="M703 1442 C703 1388 658 1364 613 1364 C526 1364 483 1448 382 1448 C269 1448 167 1371 153 1254 C193 1217 247 1220 294 1227 L294 1233 C294 1287 337 1311 385 1311 C468 1311 489 1227 611 1227 C728 1227 830 1304 844 1421 C804 1458 750 1455 703 1448 L703 1442 Z M137 875 C137 819 141 755 144 749 C152 741 179 737 205 737 C227 737 249 740 258 745 C266 782 275 832 282 884 C351 906 417 915 489 915 C597 915 685 872 685 717 L685 588 C593 596 531 600 476 600 C193 600 80 493 80 300 C80 42 279 -20 417 -20 C556 -20 664 42 737 125 C770 57 821 4 894 -20 L982 125 C853 164 839 278 839 387 L839 717 C839 983 688 1058 516 1058 C351 1058 276 1031 137 976 L137 875 Z M405 124 C374 124 233 148 233 300 C233 464 399 459 685 457 L685 373 C684 154 515 124 405 124 L405 124 Z "/>
<glyph glyph-name="adieresis" unicode="ä" horiz-adv-x="1022" d="M193 1302 C193 1241 244 1190 306 1190 C368 1190 420 1241 420 1302 C420 1363 368 1414 306 1414 C244 1414 193 1363 193 1302 L193 1302 Z M559 1302 C559 1241 610 1190 672 1190 C734 1190 786 1241 786 1302 C786 1363 734 1414 672 1414 C610 1414 559 1363 559 1302 L559 1302 Z M137 875 C137 819 141 755 144 749 C152 741 179 737 205 737 C227 737 249 740 258 745 C266 782 275 832 282 884 C351 906 417 915 489 915 C597 915 685 872 685 717 L685 588 C593 596 531 600 476 600 C193 600 80 493 80 300 C80 42 279 -20 417 -20 C556 -20 664 42 737 125 C770 57 821 4 894 -20 L982 125 C853 164 839 278 839 387 L839 717 C839 983 688 1058 516 1058 C351 1058 276 1031 137 976 L137 875 Z M405 124 C374 124 233 148 233 300 C233 464 399 459 685 457 L685 373 C684 154 515 124 405 124 L405 124 Z "/>
<glyph glyph-name="aring" unicode="å" horiz-adv-x="1022" d="M319 1411 C319 1304 410 1212 519 1212 C627 1212 720 1304 720 1411 C720 1518 627 1608 519 1608 C410 1608 319 1518 319 1411 L319 1411 Z M438 1411 C438 1454 475 1492 519 1492 C563 1492 601 1454 601 1411 C601 1367 563 1330 519 1330 C475 1330 438 1367 438 1411 L438 1411 Z M137 875 C137 819 141 755 144 749 C152 741 179 737 205 737 C227 737 249 740 258 745 C266 782 275 832 282 884 C351 906 417 915 489 915 C597 915 685 872 685 717 L685 588 C593 596 531 600 476 600 C193 600 80 493 80 300 C80 42 279 -20 417 -20 C556 -20 664 42 737 125 C770 57 821 4 894 -20 L982 125 C853 164 839 278 839 387 L839 717 C839 983 688 1058 516 1058 C351 1058 276 1031 137 976 L137 875 Z M405 124 C374 124 233 148 233 300 C233 464 399 459 685 457 L685 373 C684 154 515 124 405 124 L405 124 Z "/>
<glyph glyph-name="ae" unicode="æ" horiz-adv-x="1535" d="M1485 480 L1485 620 C1485 817 1449 1058 1130 1058 C980 1058 871 1005 798 916 C741 1023 634 1058 516 1058 C351 1058 276 1031 137 976 L137 875 C137 819 141 755 144 749 C152 741 179 737 205 737 C227 737 249 740 258 745 C266 782 275 832 282 884 C351 906 417 915 489 915 C597 915 685 872 685 717 L685 588 C593 596 531 600 476 600 C193 600 80 493 80 300 C80 42 279 -20 417 -20 C556 -20 664 42 737 125 C754 145 767 162 776 177 C865 42 1009 -20 1166 -20 C1262 -20 1357 1 1464 54 L1464 197 L1461 198 C1367 150 1274 124 1181 124 C1003 124 854 240 838 480 L1485 480 Z M845 620 C871 790 970 914 1127 914 C1289 914 1331 779 1333 620 L845 620 Z M685 373 C684 154 515 124 405 124 C374 124 233 148 233 300 C233 464 399 459 685 457 L685 373 Z "/>
<glyph glyph-name="ccedilla" unicode="ç" horiz-adv-x="899" d="M578 914 C625 914 679 907 734 894 C740 830 751 764 762 718 C771 713 793 710 815 710 C841 710 868 714 876 722 C879 728 883 792 883 848 L883 984 C777 1037 658 1058 562 1058 C304 1058 80 907 80 526 C80 173 274 10 497 -16 L497 -159 C561 -159 656 -194 656 -270 C656 -325 602 -353 553 -353 C509 -353 455 -338 413 -320 C386 -340 370 -388 366 -427 C418 -461 480 -478 540 -478 C681 -478 789 -398 789 -272 C789 -184 739 -103 656 -80 L656 -14 C730 -4 810 17 883 54 L883 190 C883 246 879 310 876 316 C868 324 841 328 815 328 C793 328 771 325 762 320 C751 274 740 208 734 144 C679 130 625 124 578 124 C389 124 233 252 233 532 C233 810 389 914 578 914 L578 914 Z "/>
<glyph glyph-name="egrave" unicode="è" horiz-adv-x="946" d="M321 1558 C279 1536 241 1487 233 1433 C275 1370 492 1225 670 1190 C686 1204 708 1265 712 1305 C515 1394 377 1509 321 1558 L321 1558 Z M881 480 L881 620 C881 817 845 1058 526 1058 C215 1058 80 829 80 532 C80 149 304 -20 562 -20 C658 -20 753 1 860 54 L860 197 L857 198 C763 150 670 124 577 124 C399 124 250 240 234 480 L881 480 Z M523 914 C685 914 727 779 729 620 L241 620 C267 790 366 914 523 914 L523 914 Z "/>
<glyph glyph-name="eacute" unicode="é" horiz-adv-x="946" d="M624 1558 C568 1509 430 1394 233 1305 C237 1265 259 1204 275 1190 C453 1225 670 1370 712 1433 C704 1487 666 1536 624 1558 L624 1558 Z M881 480 L881 620 C881 817 845 1058 526 1058 C215 1058 80 829 80 532 C80 149 304 -20 562 -20 C658 -20 753 1 860 54 L860 197 L857 198 C763 150 670 124 577 124 C399 124 250 240 234 480 L881 480 Z M523 914 C685 914 727 779 729 620 L241 620 C267 790 366 914 523 914 L523 914 Z "/>
<glyph glyph-name="ecircumflex" unicode="ê" horiz-adv-x="946" d="M523 1386 C616 1301 709 1244 820 1190 C837 1204 859 1265 863 1305 C736 1372 630 1454 525 1554 L517 1554 C413 1455 305 1372 179 1305 C183 1265 205 1204 222 1190 C333 1245 425 1300 518 1386 L523 1386 Z M881 480 L881 620 C881 817 845 1058 526 1058 C215 1058 80 829 80 532 C80 149 304 -20 562 -20 C658 -20 753 1 860 54 L860 197 L857 198 C763 150 670 124 577 124 C399 124 250 240 234 480 L881 480 Z M523 914 C685 914 727 779 729 620 L241 620 C267 790 366 914 523 914 L523 914 Z "/>
<glyph glyph-name="edieresis" unicode="ë" horiz-adv-x="946" d="M176 1302 C176 1241 227 1190 289 1190 C351 1190 403 1241 403 1302 C403 1363 351 1414 289 1414 C227 1414 176 1363 176 1302 L176 1302 Z M542 1302 C542 1241 593 1190 655 1190 C717 1190 769 1241 769 1302 C769 1363 717 1414 655 1414 C593 1414 542 1363 542 1302 L542 1302 Z M881 480 L881 620 C881 817 845 1058 526 1058 C215 1058 80 829 80 532 C80 149 304 -20 562 -20 C658 -20 753 1 860 54 L860 197 L857 198 C763 150 670 124 577 124 C399 124 250 240 234 480 L881 480 Z M523 914 C685 914 727 779 729 620 L241 620 C267 790 366 914 523 914 L523 914 Z "/>
<glyph glyph-name="igrave" unicode="ì" horiz-adv-x="494" d="M96 1558 C54 1536 16 1487 8 1433 C50 1370 267 1225 445 1190 C461 1204 483 1265 487 1305 C290 1394 152 1509 96 1558 L96 1558 Z M334 1058 L328 1058 C310 1058 163 1054 67 1023 C63 1015 60 997 60 978 C60 948 65 913 71 911 C76 907 129 905 180 904 L180 148 C150 132 107 121 49 121 C43 111 40 89 40 69 C40 43 45 16 52 8 C59 4 122 0 179 0 L334 0 C385 0 436 4 442 8 C449 16 454 43 454 69 C454 90 451 112 445 121 C415 128 375 135 334 141 L334 1058 Z "/>
<glyph glyph-name="iacute" unicode="í" horiz-adv-x="494" d="M399 1558 C343 1509 205 1394 8 1305 C12 1265 34 1204 50 1190 C228 1225 445 1370 487 1433 C479 1487 441 1536 399 1558 L399 1558 Z M334 1058 L328 1058 C310 1058 163 1054 67 1023 C63 1015 60 997 60 978 C60 948 65 913 71 911 C76 907 129 905 180 904 L180 148 C150 132 107 121 49 121 C43 111 40 89 40 69 C40 43 45 16 52 8 C59 4 122 0 179 0 L334 0 C385 0 436 4 442 8 C449 16 454 43 454 69 C454 90 451 112 445 121 C415 128 375 135 334 141 L334 1058 Z "/>
<glyph glyph-name="icircumflex" unicode="î" horiz-adv-x="494" d="M249 1386 C342 1301 435 1244 546 1190 C563 1204 585 1265 589 1305 C462 1372 356 1454 251 1554 L243 1554 C139 1455 31 1372 -95 1305 C-91 1265 -69 1204 -52 1190 C59 1245 151 1300 244 1386 L249 1386 Z M334 1058 L328 1058 C310 1058 163 1054 67 1023 C63 1015 60 997 60 978 C60 948 65 913 71 911 C76 907 129 905 180 904 L180 148 C150 132 107 121 49 121 C43 111 40 89 40 69 C40 43 45 16 52 8 C59 4 122 0 179 0 L334 0 C385 0 436 4 442 8 C449 16 454 43 454 69 C454 90 451 112 445 121 C415 128 375 135 334 141 L334 1058 Z "/>
<glyph glyph-name="idieresis" unicode="ï" horiz-adv-x="494" d="M-49 1302 C-49 1241 2 1190 64 1190 C126 1190 178 1241 178 1302 C178 1363 126 1414 64 1414 C2 1414 -49 1363 -49 1302 L-49 1302 Z M317 1302 C317 1241 368 1190 430 1190 C492 1190 544 1241 544 1302 C544 1363 492 1414 430 1414 C368 1414 317 1363 317 1302 L317 1302 Z M334 1058 L328 1058 C310 1058 163 1054 67 1023 C63 1015 60 997 60 978 C60 948 65 913 71 911 C76 907 129 905 180 904 L180 148 C150 132 107 121 49 121 C43 111 40 89 40 69 C40 43 45 16 52 8 C59 4 122 0 179 0 L334 0 C385 0 436 4 442 8 C449 16 454 43 454 69 C454 90 451 112 445 121 C415 128 375 135 334 141 L334 1058 Z "/>
<glyph glyph-name="eth" unicode="ð" horiz-adv-x="968" d="M924 1276 L924 1340 C924 1396 920 1460 917 1466 C909 1474 882 1478 856 1478 C834 1478 812 1475 803 1470 C795 1438 788 1398 782 1355 L605 1290 C494 1374 386 1426 320 1449 L240 1339 C320 1303 388 1267 445 1231 L229 1152 C235 1099 244 1047 253 1009 C262 1004 284 1001 306 1001 C332 1001 359 1005 367 1013 C369 1016 371 1042 372 1074 L567 1145 C638 1085 687 1026 722 968 C671 988 613 998 551 998 C268 998 80 788 80 485 C80 191 257 -20 546 -20 C819 -20 1012 167 1012 521 C1012 822 872 1045 713 1198 L924 1276 Z M235 494 C235 714 338 854 546 854 C761 854 857 703 857 483 C857 260 758 124 553 124 C334 124 235 278 235 494 L235 494 Z "/>
<glyph glyph-name="ntilde" unicode="ñ" horiz-adv-x="1135" d="M772 1442 C772 1388 727 1364 682 1364 C595 1364 552 1448 451 1448 C338 1448 236 1371 222 1254 C262 1217 316 1220 363 1227 L363 1233 C363 1287 406 1311 454 1311 C537 1311 558 1227 680 1227 C797 1227 899 1304 913 1421 C873 1458 819 1455 772 1448 L772 1442 Z M985 0 C1036 0 1087 4 1093 8 C1100 16 1105 43 1105 69 C1105 90 1102 112 1096 121 C1066 128 1026 135 985 141 L985 664 C985 957 815 1058 618 1058 C519 1058 392 998 307 942 L272 1058 L266 1058 C248 1058 157 1054 61 1023 C57 1015 54 997 54 978 C54 948 59 913 65 911 C70 907 123 905 174 904 L174 147 C144 132 102 121 44 121 C38 111 35 89 35 69 C35 43 40 16 47 8 C54 4 117 0 174 0 L329 0 C380 0 431 4 437 8 C444 16 449 43 449 69 C449 90 446 112 440 121 C410 128 370 135 329 141 L329 815 C408 863 506 915 603 915 C728 915 830 856 830 655 L830 147 C800 132 758 121 700 121 C694 111 691 89 691 69 C691 43 696 16 703 8 C710 4 773 0 830 0 L985 0 Z "/>
<glyph glyph-name="ograve" unicode="ò" horiz-adv-x="1112" d="M404 1558 C362 1536 324 1487 316 1433 C358 1370 575 1225 753 1190 C769 1204 791 1265 795 1305 C598 1394 460 1509 404 1558 L404 1558 Z M80 516 C80 221 268 -20 552 -20 C836 -20 1032 220 1032 521 C1032 816 844 1058 560 1058 C278 1058 80 817 80 516 L80 516 Z M235 524 C235 744 348 914 556 914 C771 914 877 733 877 513 C877 291 769 124 561 124 C345 124 235 307 235 524 L235 524 Z "/>
<glyph glyph-name="oacute" unicode="ó" horiz-adv-x="1112" d="M707 1558 C651 1509 513 1394 316 1305 C320 1265 342 1204 358 1190 C536 1225 753 1370 795 1433 C787 1487 749 1536 707 1558 L707 1558 Z M80 516 C80 221 268 -20 552 -20 C836 -20 1032 220 1032 521 C1032 816 844 1058 560 1058 C278 1058 80 817 80 516 L80 516 Z M235 524 C235 744 348 914 556 914 C771 914 877 733 877 513 C877 291 769 124 561 124 C345 124 235 307 235 524 L235 524 Z "/>
<glyph glyph-name="ocircumflex" unicode="ô" horiz-adv-x="1112" d="M558 1386 C651 1301 744 1244 855 1190 C872 1204 894 1265 898 1305 C771 1372 665 1454 560 1554 L552 1554 C448 1455 340 1372 214 1305 C218 1265 240 1204 257 1190 C368 1245 460 1300 553 1386 L558 1386 Z M80 516 C80 221 268 -20 552 -20 C836 -20 1032 220 1032 521 C1032 816 844 1058 560 1058 C278 1058 80 817 80 516 L80 516 Z M235 524 C235 744 348 914 556 914 C771 914 877 733 877 513 C877 291 769 124 561 124 C345 124 235 307 235 524 L235 524 Z "/>
<glyph glyph-name="otilde" unicode="õ" horiz-adv-x="1112" d="M760 1442 C760 1388 715 1364 670 1364 C583 1364 540 1448 439 1448 C326 1448 224 1371 210 1254 C250 1217 304 1220 351 1227 L351 1233 C351 1287 394 1311 442 1311 C525 1311 546 1227 668 1227 C785 1227 887 1304 901 1421 C861 1458 807 1455 760 1448 L760 1442 Z M80 516 C80 221 268 -20 552 -20 C836 -20 1032 220 1032 521 C1032 816 844 1058 560 1058 C278 1058 80 817 80 516 L80 516 Z M235 524 C235 744 348 914 556 914 C771 914 877 733 877 513 C877 291 769 124 561 124 C345 124 235 307 235 524 L235 524 Z "/>
<glyph glyph-name="odieresis" unicode="ö" horiz-adv-x="1112" d="M259 1302 C259 1241 310 1190 372 1190 C434 1190 486 1241 486 1302 C486 1363 434 1414 372 1414 C310 1414 259 1363 259 1302 L259 1302 Z M625 1302 C625 1241 676 1190 738 1190 C800 1190 852 1241 852 1302 C852 1363 800 1414 738 1414 C676 1414 625 1363 625 1302 L625 1302 Z M80 516 C80 221 268 -20 552 -20 C836 -20 1032 220 1032 521 C1032 816 844 1058 560 1058 C278 1058 80 817 80 516 L80 516 Z M235 524 C235 744 348 914 556 914 C771 914 877 733 877 513 C877 291 769 124 561 124 C345 124 235 307 235 524 L235 524 Z "/>
<glyph glyph-name="divide" unicode="÷" horiz-adv-x="1030" d="M401 946 C401 885 452 834 514 834 C576 834 628 885 628 946 C628 1007 576 1058 514 1058 C452 1058 401 1007 401 946 L401 946 Z M120 438 L910 438 L910 592 L120 592 L120 438 Z M401 92 C401 31 452 -20 514 -20 C576 -20 628 31 628 92 C628 153 576 204 514 204 C452 204 401 153 401 92 L401 92 Z "/>
<glyph glyph-name="oslash" unicode="ø" horiz-adv-x="1112" d="M896 1187 L753 1241 L681 1042 C643 1053 602 1058 560 1058 C278 1058 80 817 80 516 C80 313 169 135 317 44 L240 -168 L384 -221 L460 -11 C490 -17 520 -20 552 -20 C836 -20 1032 220 1032 521 C1032 712 953 882 820 977 L896 1187 Z M235 524 C235 744 348 914 556 914 C583 914 608 911 631 906 L370 188 C280 260 235 385 235 524 L235 524 Z M561 124 C544 124 527 125 511 128 L767 831 C840 758 877 642 877 513 C877 291 769 124 561 124 L561 124 Z "/>
<glyph glyph-name="ugrave" unicode="ù" horiz-adv-x="1162" d="M429 1558 C387 1536 349 1487 341 1433 C383 1370 600 1225 778 1190 C794 1204 816 1265 820 1305 C623 1394 485 1509 429 1558 L429 1558 Z M960 1058 L954 1058 C936 1058 789 1054 693 1023 C689 1015 686 997 686 978 C686 948 691 913 697 911 C702 907 754 905 805 904 L805 222 C726 174 627 123 531 123 C406 123 304 182 304 383 L304 1058 L298 1058 C280 1058 133 1054 37 1023 C33 1015 30 997 30 978 C30 948 35 913 41 911 C46 907 98 905 149 904 L149 374 C149 81 319 -20 516 -20 C616 -20 746 42 831 99 L868 -20 L874 -20 C892 -20 1039 -16 1135 15 C1139 23 1142 41 1142 60 C1142 90 1137 125 1131 127 C1123 132 1013 134 960 134 L960 1058 Z "/>
<glyph glyph-name="uacute" unicode="ú" horiz-adv-x="1162" d="M732 1558 C676 1509 538 1394 341 1305 C345 1265 367 1204 383 1190 C561 1225 778 1370 820 1433 C812 1487 774 1536 732 1558 L732 1558 Z M960 1058 L954 1058 C936 1058 789 1054 693 1023 C689 1015 686 997 686 978 C686 948 691 913 697 911 C702 907 754 905 805 904 L805 222 C726 174 627 123 531 123 C406 123 304 182 304 383 L304 1058 L298 1058 C280 1058 133 1054 37 1023 C33 1015 30 997 30 978 C30 948 35 913 41 911 C46 907 98 905 149 904 L149 374 C149 81 319 -20 516 -20 C616 -20 746 42 831 99 L868 -20 L874 -20 C892 -20 1039 -16 1135 15 C1139 23 1142 41 1142 60 C1142 90 1137 125 1131 127 C1123 132 1013 134 960 134 L960 1058 Z "/>
<glyph glyph-name="ucircumflex" unicode="û" horiz-adv-x="1162" d="M583 1386 C676 1301 769 1244 880 1190 C897 1204 919 1265 923 1305 C796 1372 690 1454 585 1554 L577 1554 C473 1455 365 1372 239 1305 C243 1265 265 1204 282 1190 C393 1245 485 1300 578 1386 L583 1386 Z M960 1058 L954 1058 C936 1058 789 1054 693 1023 C689 1015 686 997 686 978 C686 948 691 913 697 911 C702 907 754 905 805 904 L805 222 C726 174 627 123 531 123 C406 123 304 182 304 383 L304 1058 L298 1058 C280 1058 133 1054 37 1023 C33 1015 30 997 30 978 C30 948 35 913 41 911 C46 907 98 905 149 904 L149 374 C149 81 319 -20 516 -20 C616 -20 746 42 831 99 L868 -20 L874 -20 C892 -20 1039 -16 1135 15 C1139 23 1142 41 1142 60 C1142 90 1137 125 1131 127 C1123 132 1013 134 960 134 L960 1058 Z "/>
<glyph glyph-name="udieresis" unicode="ü" horiz-adv-x="1162" d="M284 1302 C284 1241 335 1190 397 1190 C459 1190 511 1241 511 1302 C511 1363 459 1414 397 1414 C335 1414 284 1363 284 1302 L284 1302 Z M650 1302 C650 1241 701 1190 763 1190 C825 1190 877 1241 877 1302 C877 1363 825 1414 763 1414 C701 1414 650 1363 650 1302 L650 1302 Z M960 1058 L954 1058 C936 1058 789 1054 693 1023 C689 1015 686 997 686 978 C686 948 691 913 697 911 C702 907 754 905 805 904 L805 222 C726 174 627 123 531 123 C406 123 304 182 304 383 L304 1058 L298 1058 C280 1058 133 1054 37 1023 C33 1015 30 997 30 978 C30 948 35 913 41 911 C46 907 98 905 149 904 L149 374 C149 81 319 -20 516 -20 C616 -20 746 42 831 99 L868 -20 L874 -20 C892 -20 1039 -16 1135 15 C1139 23 1142 41 1142 60 C1142 90 1137 125 1131 127 C1123 132 1013 134 960 134 L960 1058 Z "/>
<glyph glyph-name="yacute" unicode="ý" horiz-adv-x="1052" d="M677 1558 C621 1509 483 1394 286 1305 C290 1265 312 1204 328 1190 C506 1225 723 1370 765 1433 C757 1487 719 1536 677 1558 L677 1558 Z M941 1038 L762 1038 C705 1038 642 1034 635 1030 C628 1022 623 995 623 969 C623 948 626 926 632 917 C660 910 695 903 733 898 L480 165 L228 895 C273 901 315 909 348 917 C354 926 357 948 357 969 C357 995 352 1022 345 1030 C338 1034 275 1038 218 1038 L19 1038 L20 1035 C-4 1034 -21 1032 -25 1030 C-32 1022 -37 995 -37 969 C-37 948 -34 926 -28 917 C-1 911 31 904 67 899 L376 0 L424 0 L347 -223 C318 -304 247 -335 177 -335 C148 -335 118 -330 88 -320 C81 -260 71 -199 61 -156 C52 -151 30 -148 8 -148 C-18 -148 -45 -152 -53 -160 C-56 -166 -60 -230 -60 -286 L-60 -415 C26 -454 114 -478 196 -478 C333 -478 440 -413 496 -252 L892 896 C935 902 976 909 1008 917 C1014 926 1017 948 1017 969 C1017 995 1012 1022 1005 1030 C1000 1032 974 1035 940 1036 L941 1038 Z "/>
<glyph glyph-name="thorn" unicode="þ" horiz-adv-x="1130" d="M316 -458 C373 -458 436 -454 443 -450 C450 -442 455 -415 455 -389 C455 -368 452 -346 446 -337 C416 -330 376 -322 335 -316 L335 3 C395 -11 460 -20 527 -20 C885 -20 1050 232 1050 525 C1050 827 874 1058 602 1058 C495 1058 408 1022 335 967 L335 1448 L329 1448 C311 1448 164 1444 68 1413 C64 1405 61 1387 61 1368 C61 1338 66 1303 72 1301 C77 1297 129 1295 180 1294 L180 -310 C150 -325 108 -337 50 -337 C44 -347 41 -369 41 -389 C41 -415 46 -442 53 -450 C60 -454 123 -458 180 -458 L316 -458 Z M581 914 C803 914 895 744 895 539 C895 277 745 122 538 122 C471 122 403 134 335 162 L335 802 C388 877 477 914 581 914 L581 914 Z "/>
<glyph glyph-name="ydieresis" unicode="ÿ" horiz-adv-x="1052" d="M187 1302 C187 1241 238 1190 300 1190 C362 1190 414 1241 414 1302 C414 1363 362 1414 300 1414 C238 1414 187 1363 187 1302 L187 1302 Z M553 1302 C553 1241 604 1190 666 1190 C728 1190 780 1241 780 1302 C780 1363 728 1414 666 1414 C604 1414 553 1363 553 1302 L553 1302 Z M941 1038 L762 1038 C705 1038 642 1034 635 1030 C628 1022 623 995 623 969 C623 948 626 926 632 917 C660 910 695 903 733 898 L480 165 L228 895 C273 901 315 909 348 917 C354 926 357 948 357 969 C357 995 352 1022 345 1030 C338 1034 275 1038 218 1038 L19 1038 L20 1035 C-4 1034 -21 1032 -25 1030 C-32 1022 -37 995 -37 969 C-37 948 -34 926 -28 917 C-1 911 31 904 67 899 L376 0 L424 0 L347 -223 C318 -304 247 -335 177 -335 C148 -335 118 -330 88 -320 C81 -260 71 -199 61 -156 C52 -151 30 -148 8 -148 C-18 -148 -45 -152 -53 -160 C-56 -166 -60 -230 -60 -286 L-60 -415 C26 -454 114 -478 196 -478 C333 -478 440 -413 496 -252 L892 896 C935 902 976 909 1008 917 C1014 926 1017 948 1017 969 C1017 995 1012 1022 1005 1030 C1000 1032 974 1035 940 1036 L941 1038 Z "/>
<glyph glyph-name="Amacron" unicode="Ā" horiz-adv-x="1308" d="M955 1554 L353 1554 L353 1410 L955 1410 L955 1554 Z M285 0 C342 0 405 4 412 8 C419 16 424 43 424 69 C424 90 421 112 415 121 C385 128 346 135 305 141 L363 307 L945 307 L1002 141 C961 135 923 128 893 121 C887 112 884 90 884 69 C884 43 889 16 896 8 C903 4 966 0 1023 0 L1139 0 C1196 0 1259 4 1266 8 C1273 16 1278 43 1278 69 C1278 90 1275 112 1269 121 C1240 128 1202 135 1162 140 L757 1318 L550 1318 L145 140 C105 135 68 128 39 121 C33 112 30 90 30 69 C30 43 35 16 42 8 C49 4 112 0 169 0 L285 0 Z M896 451 L412 451 L654 1152 L896 451 Z "/>
<glyph glyph-name="amacron" unicode="ā" horiz-adv-x="1022" d="M812 1338 L210 1338 L210 1194 L812 1194 L812 1338 Z M137 875 C137 819 141 755 144 749 C152 741 179 737 205 737 C227 737 249 740 258 745 C266 782 275 832 282 884 C351 906 417 915 489 915 C597 915 685 872 685 717 L685 588 C593 596 531 600 476 600 C193 600 80 493 80 300 C80 42 279 -20 417 -20 C556 -20 664 42 737 125 C770 57 821 4 894 -20 L982 125 C853 164 839 278 839 387 L839 717 C839 983 688 1058 516 1058 C351 1058 276 1031 137 976 L137 875 Z M405 124 C374 124 233 148 233 300 C233 464 399 459 685 457 L685 373 C684 154 515 124 405 124 L405 124 Z "/>
<glyph glyph-name="Abreve" unicode="Ă" horiz-adv-x="1308" d="M389 1662 C355 1642 315 1587 314 1550 C396 1452 529 1408 657 1408 C781 1408 917 1455 992 1550 C991 1587 951 1642 917 1662 C856 1589 763 1548 648 1548 C534 1548 445 1588 389 1662 L389 1662 Z M285 0 C342 0 405 4 412 8 C419 16 424 43 424 69 C424 90 421 112 415 121 C385 128 346 135 305 141 L363 307 L945 307 L1002 141 C961 135 923 128 893 121 C887 112 884 90 884 69 C884 43 889 16 896 8 C903 4 966 0 1023 0 L1139 0 C1196 0 1259 4 1266 8 C1273 16 1278 43 1278 69 C1278 90 1275 112 1269 121 C1240 128 1202 135 1162 140 L757 1318 L550 1318 L145 140 C105 135 68 128 39 121 C33 112 30 90 30 69 C30 43 35 16 42 8 C49 4 112 0 169 0 L285 0 Z M896 451 L412 451 L654 1152 L896 451 Z "/>
<glyph glyph-name="abreve" unicode="ă" horiz-adv-x="1022" d="M241 1448 C207 1428 167 1373 166 1336 C248 1238 381 1194 509 1194 C633 1194 769 1241 844 1336 C843 1373 803 1428 769 1448 C708 1375 615 1334 500 1334 C386 1334 297 1374 241 1448 L241 1448 Z M137 875 C137 819 141 755 144 749 C152 741 179 737 205 737 C227 737 249 740 258 745 C266 782 275 832 282 884 C351 906 417 915 489 915 C597 915 685 872 685 717 L685 588 C593 596 531 600 476 600 C193 600 80 493 80 300 C80 42 279 -20 417 -20 C556 -20 664 42 737 125 C770 57 821 4 894 -20 L982 125 C853 164 839 278 839 387 L839 717 C839 983 688 1058 516 1058 C351 1058 276 1031 137 976 L137 875 Z M405 124 C374 124 233 148 233 300 C233 464 399 459 685 457 L685 373 C684 154 515 124 405 124 L405 124 Z "/>
<glyph glyph-name="Aogonek" unicode="Ą" horiz-adv-x="1308" d="M1278 69 C1278 90 1275 112 1269 121 C1240 128 1202 135 1162 140 L757 1318 L550 1318 L145 140 C105 135 68 128 39 121 C33 112 30 90 30 69 C30 43 35 16 42 8 C49 4 112 0 169 0 L285 0 C342 0 405 4 412 8 C419 16 424 43 424 69 C424 90 421 112 415 121 C385 128 346 135 305 141 L363 307 L945 307 L1002 141 C961 135 923 128 893 121 C887 112 884 90 884 69 C884 43 889 16 896 8 C901 5 931 3 968 1 C893 -61 838 -141 838 -231 C838 -371 949 -478 1079 -478 C1129 -478 1183 -464 1235 -427 L1235 -296 L1228 -291 C1184 -313 1125 -337 1076 -337 C1025 -337 985 -311 985 -233 C985 -163 1027 -61 1159 0 C1210 1 1260 4 1266 8 C1273 16 1278 43 1278 69 L1278 69 Z M896 451 L412 451 L654 1152 L896 451 Z "/>
<glyph glyph-name="aogonek" unicode="ą" horiz-adv-x="1022" d="M1008 -296 L1001 -291 C957 -313 898 -337 849 -337 C798 -337 758 -311 758 -233 C758 -170 792 -82 894 -20 L982 125 C853 164 839 278 839 387 L839 717 C839 983 688 1058 516 1058 C351 1058 276 1031 137 976 L137 875 C137 819 141 755 144 749 C152 741 179 737 205 737 C227 737 249 740 258 745 C266 782 275 832 282 884 C351 906 417 915 489 915 C597 915 685 872 685 717 L685 588 C593 596 531 600 476 600 C193 600 80 493 80 300 C80 42 279 -20 417 -20 C556 -20 664 42 737 125 C752 93 772 65 795 41 C694 -26 611 -120 611 -231 C611 -371 722 -478 852 -478 C902 -478 956 -464 1008 -427 L1008 -296 Z M685 373 C684 154 515 124 405 124 C374 124 233 148 233 300 C233 464 399 459 685 457 L685 373 Z "/>
<glyph glyph-name="Cacute" unicode="Ć" horiz-adv-x="1081" d="M874 1776 C818 1727 680 1612 483 1523 C487 1483 509 1422 525 1408 C703 1443 920 1588 962 1651 C954 1705 916 1754 874 1776 L874 1776 Z M1041 163 C1041 219 1037 283 1034 289 C1026 297 999 301 973 301 C951 301 929 298 920 293 C910 252 900 194 894 136 C840 129 787 125 745 125 C402 125 234 349 234 660 C234 976 404 1193 745 1193 C787 1193 840 1189 894 1182 C900 1124 910 1066 920 1025 C929 1020 951 1017 973 1017 C999 1017 1026 1021 1034 1029 C1037 1035 1041 1099 1041 1155 L1041 1297 C951 1323 831 1338 737 1338 C297 1338 87 1051 80 680 C80 270 297 -20 737 -20 C831 -20 951 -5 1041 21 L1041 163 Z "/>
<glyph glyph-name="cacute" unicode="ć" horiz-adv-x="899" d="M746 1558 C690 1509 552 1394 355 1305 C359 1265 381 1204 397 1190 C575 1225 792 1370 834 1433 C826 1487 788 1536 746 1558 L746 1558 Z M578 124 C389 124 233 252 233 532 C233 810 389 914 578 914 C625 914 679 907 734 894 C740 830 751 764 762 718 C771 713 793 710 815 710 C841 710 868 714 876 722 C879 728 883 792 883 848 L883 984 C777 1037 658 1058 562 1058 C304 1058 80 907 80 526 C80 139 313 -20 562 -20 C658 -20 777 1 883 54 L883 190 C883 246 879 310 876 316 C868 324 841 328 815 328 C793 328 771 325 762 320 C751 274 740 208 734 144 C679 130 625 124 578 124 L578 124 Z "/>
<glyph glyph-name="Ccircumflex" unicode="Ĉ" horiz-adv-x="1081" d="M717 1604 C810 1519 903 1462 1014 1408 C1031 1422 1053 1483 1057 1523 C930 1590 824 1672 719 1772 L711 1772 C607 1673 499 1590 373 1523 C377 1483 399 1422 416 1408 C527 1463 619 1518 712 1604 L717 1604 Z M1041 163 C1041 219 1037 283 1034 289 C1026 297 999 301 973 301 C951 301 929 298 920 293 C910 252 900 194 894 136 C840 129 787 125 745 125 C402 125 234 349 234 660 C234 976 404 1193 745 1193 C787 1193 840 1189 894 1182 C900 1124 910 1066 920 1025 C929 1020 951 1017 973 1017 C999 1017 1026 1021 1034 1029 C1037 1035 1041 1099 1041 1155 L1041 1297 C951 1323 831 1338 737 1338 C297 1338 87 1051 80 680 C80 270 297 -20 737 -20 C831 -20 951 -5 1041 21 L1041 163 Z "/>
<glyph glyph-name="ccircumflex" unicode="ĉ" horiz-adv-x="899" d="M575 1386 C668 1301 761 1244 872 1190 C889 1204 911 1265 915 1305 C788 1372 682 1454 577 1554 L569 1554 C465 1455 357 1372 231 1305 C235 1265 257 1204 274 1190 C385 1245 477 1300 570 1386 L575 1386 Z M578 124 C389 124 233 252 233 532 C233 810 389 914 578 914 C625 914 679 907 734 894 C740 830 751 764 762 718 C771 713 793 710 815 710 C841 710 868 714 876 722 C879 728 883 792 883 848 L883 984 C777 1037 658 1058 562 1058 C304 1058 80 907 80 526 C80 139 313 -20 562 -20 C658 -20 777 1 883 54 L883 190 C883 246 879 310 876 316 C868 324 841 328 815 328 C793 328 771 325 762 320 C751 274 740 208 734 144 C679 130 625 124 578 124 L578 124 Z "/>
<glyph glyph-name="Ccaron" unicode="Č" horiz-adv-x="1081" d="M729 1576 C636 1662 544 1717 433 1772 C416 1758 394 1697 390 1657 C516 1590 624 1507 728 1408 L736 1408 C841 1508 947 1590 1074 1657 C1070 1697 1048 1758 1031 1772 C920 1718 827 1661 734 1576 L729 1576 Z M1041 163 C1041 219 1037 283 1034 289 C1026 297 999 301 973 301 C951 301 929 298 920 293 C910 252 900 194 894 136 C840 129 787 125 745 125 C402 125 234 349 234 660 C234 976 404 1193 745 1193 C787 1193 840 1189 894 1182 C900 1124 910 1066 920 1025 C929 1020 951 1017 973 1017 C999 1017 1026 1021 1034 1029 C1037 1035 1041 1099 1041 1155 L1041 1297 C951 1323 831 1338 737 1338 C297 1338 87 1051 80 680 C80 270 297 -20 737 -20 C831 -20 951 -5 1041 21 L1041 163 Z "/>
<glyph glyph-name="ccaron" unicode="č" horiz-adv-x="899" d="M571 1358 C478 1444 386 1499 275 1554 C258 1540 236 1479 232 1439 C358 1372 466 1289 570 1190 L578 1190 C683 1290 789 1372 916 1439 C912 1479 890 1540 873 1554 C762 1500 669 1443 576 1358 L571 1358 Z M578 124 C389 124 233 252 233 532 C233 810 389 914 578 914 C625 914 679 907 734 894 C740 830 751 764 762 718 C771 713 793 710 815 710 C841 710 868 714 876 722 C879 728 883 792 883 848 L883 984 C777 1037 658 1058 562 1058 C304 1058 80 907 80 526 C80 139 313 -20 562 -20 C658 -20 777 1 883 54 L883 190 C883 246 879 310 876 316 C868 324 841 328 815 328 C793 328 771 325 762 320 C751 274 740 208 734 144 C679 130 625 124 578 124 L578 124 Z "/>
<glyph glyph-name="Dcaron" unicode="Ď" horiz-adv-x="1298" d="M514 1576 C421 1662 329 1717 218 1772 C201 1758 179 1697 175 1657 C301 1590 409 1507 513 1408 L521 1408 C626 1508 732 1590 859 1657 C855 1697 833 1758 816 1772 C705 1718 612 1661 519 1576 L514 1576 Z M549 0 C934 0 1218 277 1218 660 C1218 1043 918 1318 533 1318 L179 1318 C122 1318 59 1314 52 1310 C45 1302 40 1275 40 1249 C40 1228 43 1206 49 1197 C79 1190 118 1182 160 1176 L160 141 C118 135 79 128 49 121 C43 112 40 90 40 69 C40 43 45 16 52 8 C59 4 122 0 179 0 L549 0 Z M315 144 L315 1174 L533 1174 C825 1174 1063 958 1063 644 C1063 351 868 144 549 144 L315 144 Z "/>
<glyph glyph-name="dcaron" unicode="ď" horiz-adv-x="1501" d="M950 1448 L944 1448 C926 1448 779 1444 683 1413 C679 1405 676 1387 676 1368 C676 1338 681 1303 687 1301 C692 1297 744 1295 795 1294 L795 1037 C734 1049 670 1058 603 1058 C245 1058 80 827 80 534 C80 232 256 -19 528 -19 C647 -19 742 25 820 92 L859 -20 L865 -20 C883 -20 1030 -16 1126 15 C1130 23 1133 41 1133 60 C1133 90 1128 125 1122 127 C1114 132 1003 134 950 134 L950 1448 Z M1194 1336 C1225 1294 1239 1262 1239 1229 C1239 1191 1221 1152 1190 1099 L1232 1045 C1316 1090 1421 1211 1421 1325 C1421 1416 1354 1448 1306 1448 C1245 1448 1194 1397 1194 1336 L1194 1336 Z M549 125 C327 125 235 316 235 521 C235 783 385 916 592 916 C658 916 726 902 795 875 L795 238 C741 161 652 125 549 125 L549 125 Z "/>
<glyph glyph-name="Emacron" unicode="Ē" horiz-adv-x="998" d="M800 1554 L198 1554 L198 1410 L800 1410 L800 1554 Z M954 1318 L179 1318 C122 1318 59 1314 52 1310 C45 1302 40 1275 40 1249 C40 1228 43 1206 49 1197 C79 1190 118 1182 160 1176 L160 141 C118 135 79 128 49 121 C43 112 40 90 40 69 C40 43 45 16 52 8 C59 4 122 0 179 0 L954 0 L954 144 C954 200 950 264 947 270 C939 278 912 282 886 282 C864 282 842 279 833 274 C825 239 816 192 810 144 L315 144 L315 587 L706 587 C712 538 721 492 729 457 C738 452 760 449 782 449 C808 449 835 453 843 461 C846 467 850 531 850 587 L850 731 C850 787 846 851 843 857 C835 865 808 869 782 869 C760 869 738 866 729 861 C721 826 712 779 706 731 L315 731 L315 1174 L810 1174 C816 1125 825 1079 833 1044 C842 1039 864 1036 886 1036 C912 1036 939 1040 947 1048 C950 1054 954 1118 954 1174 L954 1318 Z "/>
<glyph glyph-name="emacron" unicode="ē" horiz-adv-x="946" d="M838 1338 L236 1338 L236 1194 L838 1194 L838 1338 Z M881 480 L881 620 C881 817 845 1058 526 1058 C215 1058 80 829 80 532 C80 149 304 -20 562 -20 C658 -20 753 1 860 54 L860 197 L857 198 C763 150 670 124 577 124 C399 124 250 240 234 480 L881 480 Z M523 914 C685 914 727 779 729 620 L241 620 C267 790 366 914 523 914 L523 914 Z "/>
<glyph glyph-name="Edotaccent" unicode="Ė" horiz-adv-x="998" d="M459 1520 C459 1459 510 1408 572 1408 C634 1408 686 1459 686 1520 C686 1581 634 1632 572 1632 C510 1632 459 1581 459 1520 L459 1520 Z M954 1318 L179 1318 C122 1318 59 1314 52 1310 C45 1302 40 1275 40 1249 C40 1228 43 1206 49 1197 C79 1190 118 1182 160 1176 L160 141 C118 135 79 128 49 121 C43 112 40 90 40 69 C40 43 45 16 52 8 C59 4 122 0 179 0 L954 0 L954 144 C954 200 950 264 947 270 C939 278 912 282 886 282 C864 282 842 279 833 274 C825 239 816 192 810 144 L315 144 L315 587 L706 587 C712 538 721 492 729 457 C738 452 760 449 782 449 C808 449 835 453 843 461 C846 467 850 531 850 587 L850 731 C850 787 846 851 843 857 C835 865 808 869 782 869 C760 869 738 866 729 861 C721 826 712 779 706 731 L315 731 L315 1174 L810 1174 C816 1125 825 1079 833 1044 C842 1039 864 1036 886 1036 C912 1036 939 1040 947 1048 C950 1054 954 1118 954 1174 L954 1318 Z "/>
<glyph glyph-name="edotaccent" unicode="ė" horiz-adv-x="946" d="M410 1302 C410 1241 461 1190 523 1190 C585 1190 637 1241 637 1302 C637 1363 585 1414 523 1414 C461 1414 410 1363 410 1302 L410 1302 Z M881 480 L881 620 C881 817 845 1058 526 1058 C215 1058 80 829 80 532 C80 149 304 -20 562 -20 C658 -20 753 1 860 54 L860 197 L857 198 C763 150 670 124 577 124 C399 124 250 240 234 480 L881 480 Z M523 914 C685 914 727 779 729 620 L241 620 C267 790 366 914 523 914 L523 914 Z "/>
<glyph glyph-name="Eogonek" unicode="Ę" horiz-adv-x="998" d="M1030 -296 L1023 -291 C979 -313 920 -337 871 -337 C820 -337 780 -311 780 -233 C780 -163 822 -61 954 0 L954 144 C954 200 950 264 947 270 C939 278 912 282 886 282 C864 282 842 279 833 274 C825 239 816 192 810 144 L315 144 L315 587 L706 587 C712 538 721 492 729 457 C738 452 760 449 782 449 C808 449 835 453 843 461 C846 467 850 531 850 587 L850 731 C850 787 846 851 843 857 C835 865 808 869 782 869 C760 869 738 866 729 861 C721 826 712 779 706 731 L315 731 L315 1174 L810 1174 C816 1125 825 1079 833 1044 C842 1039 864 1036 886 1036 C912 1036 939 1040 947 1048 C950 1054 954 1118 954 1174 L954 1318 L179 1318 C122 1318 59 1314 52 1310 C45 1302 40 1275 40 1249 C40 1228 43 1206 49 1197 C79 1190 118 1182 160 1176 L160 141 C118 135 79 128 49 121 C43 112 40 90 40 69 C40 43 45 16 52 8 C59 4 122 0 179 0 L762 0 C688 -62 633 -142 633 -231 C633 -371 744 -478 874 -478 C924 -478 978 -464 1030 -427 L1030 -296 Z "/>
<glyph glyph-name="eogonek" unicode="ę" horiz-adv-x="946" d="M881 480 L881 620 C881 817 845 1058 526 1058 C215 1058 80 829 80 532 C80 177 272 6 505 -17 C441 -77 396 -150 396 -231 C396 -371 507 -478 637 -478 C687 -478 741 -464 793 -427 L793 -296 L786 -291 C742 -313 683 -337 634 -337 C583 -337 543 -311 543 -233 C543 -163 585 -62 715 -1 C762 11 810 29 860 54 L860 197 L857 198 C763 150 670 124 577 124 C399 124 250 240 234 480 L881 480 Z M241 620 C267 790 366 914 523 914 C685 914 727 779 729 620 L241 620 Z "/>
<glyph glyph-name="Ecaron" unicode="Ě" horiz-adv-x="998" d="M548 1576 C455 1662 363 1717 252 1772 C235 1758 213 1697 209 1657 C335 1590 443 1507 547 1408 L555 1408 C660 1508 766 1590 893 1657 C889 1697 867 1758 850 1772 C739 1718 646 1661 553 1576 L548 1576 Z M954 1318 L179 1318 C122 1318 59 1314 52 1310 C45 1302 40 1275 40 1249 C40 1228 43 1206 49 1197 C79 1190 118 1182 160 1176 L160 141 C118 135 79 128 49 121 C43 112 40 90 40 69 C40 43 45 16 52 8 C59 4 122 0 179 0 L954 0 L954 144 C954 200 950 264 947 270 C939 278 912 282 886 282 C864 282 842 279 833 274 C825 239 816 192 810 144 L315 144 L315 587 L706 587 C712 538 721 492 729 457 C738 452 760 449 782 449 C808 449 835 453 843 461 C846 467 850 531 850 587 L850 731 C850 787 846 851 843 857 C835 865 808 869 782 869 C760 869 738 866 729 861 C721 826 712 779 706 731 L315 731 L315 1174 L810 1174 C816 1125 825 1079 833 1044 C842 1039 864 1036 886 1036 C912 1036 939 1040 947 1048 C950 1054 954 1118 954 1174 L954 1318 Z "/>
<glyph glyph-name="ecaron" unicode="ě" horiz-adv-x="946" d="M518 1358 C425 1444 333 1499 222 1554 C205 1540 183 1479 179 1439 C305 1372 413 1289 517 1190 L525 1190 C630 1290 736 1372 863 1439 C859 1479 837 1540 820 1554 C709 1500 616 1443 523 1358 L518 1358 Z M881 480 L881 620 C881 817 845 1058 526 1058 C215 1058 80 829 80 532 C80 149 304 -20 562 -20 C658 -20 753 1 860 54 L860 197 L857 198 C763 150 670 124 577 124 C399 124 250 240 234 480 L881 480 Z M523 914 C685 914 727 779 729 620 L241 620 C267 790 366 914 523 914 L523 914 Z "/>
<glyph glyph-name="Gcircumflex" unicode="Ĝ" horiz-adv-x="1268" d="M688 1604 C781 1519 874 1462 985 1408 C1002 1422 1024 1483 1028 1523 C901 1590 795 1672 690 1772 L682 1772 C578 1673 470 1590 344 1523 C348 1483 370 1422 387 1408 C498 1463 590 1518 683 1604 L688 1604 Z M1069 -2 L1128 -2 L1128 724 L692 724 L692 569 L977 569 L977 238 C949 203 859 124 703 124 C430 124 235 367 235 676 C235 962 402 1193 745 1193 C787 1193 840 1190 895 1182 C901 1124 911 1066 921 1025 C930 1020 952 1017 974 1017 C1000 1017 1027 1021 1035 1029 C1038 1035 1042 1099 1042 1155 L1042 1297 C952 1323 832 1338 733 1338 C290 1338 80 1035 80 667 C80 272 322 -20 686 -20 C804 -20 892 11 977 69 L1069 -2 Z "/>
<glyph glyph-name="gcircumflex" unicode="ĝ" horiz-adv-x="1034" d="M519 1386 C612 1301 705 1244 816 1190 C833 1204 855 1265 859 1305 C732 1372 626 1454 521 1554 L513 1554 C409 1455 301 1372 175 1305 C179 1265 201 1204 218 1190 C329 1245 421 1300 514 1386 L519 1386 Z M98 712 C98 623 127 525 184 465 C135 404 109 340 109 284 C109 226 137 150 194 117 C116 37 70 -64 70 -147 C70 -331 216 -478 454 -478 C713 -478 988 -302 988 -75 C988 81 855 217 569 217 L373 217 C291 217 245 258 245 310 C245 336 256 365 280 395 C334 368 399 350 472 350 C699 350 859 519 859 716 C859 788 837 854 799 909 C867 951 940 975 994 984 L948 1115 C878 1115 772 1076 683 1010 C627 1040 559 1058 482 1058 C256 1058 98 909 98 712 L98 712 Z M478 920 C633 920 713 805 713 701 C713 598 636 487 481 487 C324 487 242 599 242 703 C242 806 324 920 478 920 L478 920 Z M431 84 C650 84 830 70 830 -85 C830 -209 683 -343 474 -343 C291 -343 222 -255 222 -133 C222 -61 258 21 314 84 L431 84 Z "/>
<glyph glyph-name="Gbreve" unicode="Ğ" horiz-adv-x="1268" d="M423 1662 C389 1642 349 1587 348 1550 C430 1452 563 1408 691 1408 C815 1408 951 1455 1026 1550 C1025 1587 985 1642 951 1662 C890 1589 797 1548 682 1548 C568 1548 479 1588 423 1662 L423 1662 Z M1069 -2 L1128 -2 L1128 724 L692 724 L692 569 L977 569 L977 238 C949 203 859 124 703 124 C430 124 235 367 235 676 C235 962 402 1193 745 1193 C787 1193 840 1190 895 1182 C901 1124 911 1066 921 1025 C930 1020 952 1017 974 1017 C1000 1017 1027 1021 1035 1029 C1038 1035 1042 1099 1042 1155 L1042 1297 C952 1323 832 1338 733 1338 C290 1338 80 1035 80 667 C80 272 322 -20 686 -20 C804 -20 892 11 977 69 L1069 -2 Z "/>
<glyph glyph-name="gbreve" unicode="ğ" horiz-adv-x="1034" d="M232 1448 C198 1428 158 1373 157 1336 C239 1238 372 1194 500 1194 C624 1194 760 1241 835 1336 C834 1373 794 1428 760 1448 C699 1375 606 1334 491 1334 C377 1334 288 1374 232 1448 L232 1448 Z M98 712 C98 623 127 525 184 465 C135 404 109 340 109 284 C109 226 137 150 194 117 C116 37 70 -64 70 -147 C70 -331 216 -478 454 -478 C713 -478 988 -302 988 -75 C988 81 855 217 569 217 L373 217 C291 217 245 258 245 310 C245 336 256 365 280 395 C334 368 399 350 472 350 C699 350 859 519 859 716 C859 788 837 854 799 909 C867 951 940 975 994 984 L948 1115 C878 1115 772 1076 683 1010 C627 1040 559 1058 482 1058 C256 1058 98 909 98 712 L98 712 Z M478 920 C633 920 713 805 713 701 C713 598 636 487 481 487 C324 487 242 599 242 703 C242 806 324 920 478 920 L478 920 Z M431 84 C650 84 830 70 830 -85 C830 -209 683 -343 474 -343 C291 -343 222 -255 222 -133 C222 -61 258 21 314 84 L431 84 Z "/>
<glyph glyph-name="Gdotaccent" unicode="Ġ" horiz-adv-x="1268" d="M621 1520 C621 1459 672 1408 734 1408 C796 1408 848 1459 848 1520 C848 1581 796 1632 734 1632 C672 1632 621 1581 621 1520 L621 1520 Z M1069 -2 L1128 -2 L1128 724 L692 724 L692 569 L977 569 L977 238 C949 203 859 124 703 124 C430 124 235 367 235 676 C235 962 402 1193 745 1193 C787 1193 840 1190 895 1182 C901 1124 911 1066 921 1025 C930 1020 952 1017 974 1017 C1000 1017 1027 1021 1035 1029 C1038 1035 1042 1099 1042 1155 L1042 1297 C952 1323 832 1338 733 1338 C290 1338 80 1035 80 667 C80 272 322 -20 686 -20 C804 -20 892 11 977 69 L1069 -2 Z "/>
<glyph glyph-name="gdotaccent" unicode="ġ" horiz-adv-x="1034" d="M379 1334 C379 1273 430 1222 492 1222 C554 1222 606 1273 606 1334 C606 1395 554 1446 492 1446 C430 1446 379 1395 379 1334 L379 1334 Z M98 712 C98 623 127 525 184 465 C135 404 109 340 109 284 C109 226 137 150 194 117 C116 37 70 -64 70 -147 C70 -331 216 -478 454 -478 C713 -478 988 -302 988 -75 C988 81 855 217 569 217 L373 217 C291 217 245 258 245 310 C245 336 256 365 280 395 C334 368 399 350 472 350 C699 350 859 519 859 716 C859 788 837 854 799 909 C867 951 940 975 994 984 L948 1115 C878 1115 772 1076 683 1010 C627 1040 559 1058 482 1058 C256 1058 98 909 98 712 L98 712 Z M478 920 C633 920 713 805 713 701 C713 598 636 487 481 487 C324 487 242 599 242 703 C242 806 324 920 478 920 L478 920 Z M431 84 C650 84 830 70 830 -85 C830 -209 683 -343 474 -343 C291 -343 222 -255 222 -133 C222 -61 258 21 314 84 L431 84 Z "/>
<glyph glyph-name="Gcommaaccent" unicode="Ģ" horiz-adv-x="1268" d="M1069 -2 L1128 -2 L1128 724 L692 724 L692 569 L977 569 L977 238 C949 203 859 124 703 124 C430 124 235 367 235 676 C235 962 402 1193 745 1193 C787 1193 840 1190 895 1182 C901 1124 911 1066 921 1025 C930 1020 952 1017 974 1017 C1000 1017 1027 1021 1035 1029 C1038 1035 1042 1099 1042 1155 L1042 1297 C952 1323 832 1338 733 1338 C290 1338 80 1035 80 667 C80 272 322 -20 686 -20 C804 -20 892 11 977 69 L1069 -2 Z M572 -187 C603 -229 617 -261 617 -294 C617 -332 599 -371 568 -424 L610 -478 C694 -433 799 -312 799 -198 C799 -107 732 -75 684 -75 C623 -75 572 -126 572 -187 L572 -187 Z "/>
<glyph glyph-name="gcommaaccent" unicode="ģ" horiz-adv-x="1034" d="M601 1300 C570 1342 557 1374 557 1407 C557 1445 574 1484 606 1537 L563 1591 C479 1546 375 1425 375 1311 C375 1220 441 1188 489 1188 C550 1188 601 1239 601 1300 L601 1300 Z M98 712 C98 623 127 525 184 465 C135 404 109 340 109 284 C109 226 137 150 194 117 C116 37 70 -64 70 -147 C70 -331 216 -478 454 -478 C713 -478 988 -302 988 -75 C988 81 855 217 569 217 L373 217 C291 217 245 258 245 310 C245 336 256 365 280 395 C334 368 399 350 472 350 C699 350 859 519 859 716 C859 788 837 854 799 909 C867 951 940 975 994 984 L948 1115 C878 1115 772 1076 683 1010 C627 1040 559 1058 482 1058 C256 1058 98 909 98 712 L98 712 Z M478 920 C633 920 713 805 713 701 C713 598 636 487 481 487 C324 487 242 599 242 703 C242 806 324 920 478 920 L478 920 Z M431 84 C650 84 830 70 830 -85 C830 -209 683 -343 474 -343 C291 -343 222 -255 222 -133 C222 -61 258 21 314 84 L431 84 Z "/>
<glyph glyph-name="Hcircumflex" unicode="Ĥ" horiz-adv-x="1273" d="M646 1604 C739 1519 832 1462 943 1408 C960 1422 982 1483 986 1523 C859 1590 753 1672 648 1772 L640 1772 C536 1673 428 1590 302 1523 C306 1483 328 1422 345 1408 C456 1463 548 1518 641 1604 L646 1604 Z M160 1318 C109 1317 58 1313 52 1310 C45 1302 40 1275 40 1249 C40 1228 43 1206 49 1197 C79 1190 118 1182 160 1176 L160 141 C118 135 79 128 49 121 C43 112 40 90 40 69 C40 43 45 16 52 8 C58 4 109 0 160 0 L315 0 C366 1 416 4 422 8 C429 16 434 43 434 69 C434 90 431 112 425 121 C395 128 356 135 315 141 L315 582 L958 582 L958 141 C917 135 878 128 848 121 C842 112 839 90 839 69 C839 43 844 16 851 8 C858 4 921 0 978 0 L1095 0 C1152 0 1215 4 1222 8 C1229 16 1234 43 1234 69 C1234 90 1231 112 1225 121 C1194 128 1155 135 1113 141 L1113 1176 C1155 1182 1194 1190 1225 1197 C1231 1206 1234 1228 1234 1249 C1234 1275 1229 1302 1222 1310 C1215 1314 1152 1318 1095 1318 L978 1318 C921 1318 858 1314 851 1310 C844 1302 839 1275 839 1249 C839 1228 842 1206 848 1197 C878 1190 917 1183 958 1177 L958 736 L315 736 L315 1176 C356 1182 396 1190 426 1197 C432 1206 435 1228 435 1249 C435 1275 430 1302 423 1310 C416 1314 353 1318 296 1318 L160 1318 Z "/>
<glyph glyph-name="hcircumflex" unicode="ĥ" horiz-adv-x="1150" d="M263 1644 C356 1559 449 1502 560 1448 C577 1462 599 1523 603 1563 C476 1630 370 1712 265 1812 L257 1812 C153 1713 45 1630 -81 1563 C-77 1523 -55 1462 -38 1448 C73 1503 165 1558 258 1644 L263 1644 Z M334 1448 L328 1448 C310 1448 163 1444 67 1413 C63 1405 60 1387 60 1368 C60 1338 65 1303 71 1301 C76 1297 128 1295 179 1294 L179 147 C149 132 107 121 49 121 C43 111 40 89 40 69 C40 43 45 16 52 8 C59 4 122 0 179 0 L315 0 C372 0 435 4 442 8 C449 16 454 43 454 69 C454 90 451 112 445 121 C415 128 375 135 334 141 L334 815 C413 864 511 915 608 915 C733 915 835 856 835 656 L835 147 C805 132 763 121 705 121 C699 111 696 89 696 69 C696 43 701 16 708 8 C715 4 778 0 835 0 L971 0 C1028 0 1091 4 1098 8 C1105 16 1110 43 1110 69 C1110 90 1107 112 1101 121 C1071 128 1031 135 990 141 L990 664 C990 957 820 1058 623 1058 C532 1058 418 1007 334 956 L334 1448 Z "/>
<glyph glyph-name="Hbar" unicode="Ħ" horiz-adv-x="1274" d="M179 1318 C122 1318 59 1314 52 1310 C45 1302 40 1275 40 1249 C40 1228 43 1206 49 1197 C79 1190 118 1182 160 1176 L160 141 C118 135 79 128 49 121 C43 112 40 90 40 69 C40 43 45 16 52 8 C58 4 109 0 160 0 L315 0 C366 1 416 4 422 8 C429 16 434 43 434 69 C434 90 431 112 425 121 C395 128 356 135 315 141 L315 582 L958 582 L958 141 C917 135 878 128 848 121 C842 112 839 90 839 69 C839 43 844 16 851 8 C857 4 907 1 958 0 L1113 0 C1164 0 1215 4 1222 8 C1229 16 1234 43 1234 69 C1234 90 1231 112 1225 121 C1194 128 1155 135 1113 141 L1113 1176 C1155 1182 1194 1190 1225 1197 C1231 1206 1234 1228 1234 1249 C1234 1275 1229 1302 1222 1310 C1215 1313 1164 1317 1113 1318 L958 1318 C907 1317 857 1313 851 1310 C844 1302 839 1275 839 1249 C839 1228 842 1206 848 1197 C878 1190 917 1183 958 1177 L958 1038 L315 1038 L315 1176 C356 1182 396 1190 426 1197 C432 1206 435 1228 435 1249 C435 1275 430 1302 423 1310 C416 1314 353 1318 296 1318 L179 1318 Z M958 882 L958 736 L315 736 L315 882 L958 882 Z "/>
<glyph glyph-name="hbar" unicode="ħ" d="M617 1238 L334 1238 L334 1448 L328 1448 C310 1448 163 1444 67 1413 C63 1405 60 1387 60 1368 C60 1338 65 1303 71 1301 C76 1297 128 1295 179 1294 L179 1238 L59 1238 L59 1094 L179 1094 L179 147 C149 132 107 121 49 121 C43 111 40 89 40 69 C40 43 45 16 52 8 C59 4 122 0 179 0 L315 0 C372 0 435 4 442 8 C449 16 454 43 454 69 C454 90 451 112 445 121 C415 128 375 135 334 141 L334 815 C413 864 511 915 608 915 C733 915 835 856 835 656 L835 147 C805 132 763 121 705 121 C699 111 696 89 696 69 C696 43 701 16 708 8 C715 4 778 0 835 0 L971 0 C1028 0 1091 4 1098 8 C1105 16 1110 43 1110 69 C1110 90 1107 112 1101 121 C1071 128 1031 135 990 141 L990 664 C990 957 820 1058 623 1058 C532 1058 418 1007 334 956 L334 1094 L617 1094 L617 1238 Z "/>
<glyph glyph-name="Itilde" unicode="Ĩ" horiz-adv-x="474" d="M442 1633 C442 1579 397 1555 352 1555 C265 1555 222 1639 121 1639 C8 1639 -94 1562 -108 1445 C-68 1408 -14 1411 33 1418 L33 1424 C33 1478 76 1502 124 1502 C207 1502 228 1418 350 1418 C467 1418 569 1495 583 1612 C543 1649 489 1646 442 1639 L442 1633 Z M295 0 C352 0 415 4 422 8 C429 16 434 43 434 69 C434 90 431 112 425 121 C395 128 355 135 314 141 L314 1176 C355 1182 395 1190 425 1197 C431 1206 434 1228 434 1249 C434 1275 429 1302 422 1310 C415 1314 352 1318 295 1318 L179 1318 C122 1318 59 1314 52 1310 C45 1302 40 1275 40 1249 C40 1228 43 1206 49 1197 C79 1190 118 1182 160 1176 L160 141 C118 135 79 128 49 121 C43 112 40 90 40 69 C40 43 45 16 52 8 C59 4 122 0 179 0 L295 0 Z "/>
<glyph glyph-name="Imacron" unicode="Ī" horiz-adv-x="474" d="M538 1554 L-64 1554 L-64 1410 L538 1410 L538 1554 Z M295 0 C352 0 415 4 422 8 C429 16 434 43 434 69 C434 90 431 112 425 121 C395 128 355 135 314 141 L314 1176 C355 1182 395 1190 425 1197 C431 1206 434 1228 434 1249 C434 1275 429 1302 422 1310 C415 1314 352 1318 295 1318 L179 1318 C122 1318 59 1314 52 1310 C45 1302 40 1275 40 1249 C40 1228 43 1206 49 1197 C79 1190 118 1182 160 1176 L160 141 C118 135 79 128 49 121 C43 112 40 90 40 69 C40 43 45 16 52 8 C59 4 122 0 179 0 L295 0 Z "/>
<glyph glyph-name="imacron" unicode="ī" horiz-adv-x="494" d="M548 1338 L-54 1338 L-54 1194 L548 1194 L548 1338 Z M334 1058 L328 1058 C310 1058 163 1054 67 1023 C63 1015 60 997 60 978 C60 948 65 913 71 911 C76 907 129 905 180 904 L180 148 C150 132 107 121 49 121 C43 111 40 89 40 69 C40 43 45 16 52 8 C59 4 122 0 179 0 L334 0 C385 0 436 4 442 8 C449 16 454 43 454 69 C454 90 451 112 445 121 C415 128 375 135 334 141 L334 1058 Z "/>
<glyph glyph-name="Ibreve" unicode="Ĭ" horiz-adv-x="474" d="M-27 1662 C-61 1642 -101 1587 -102 1550 C-20 1452 113 1408 241 1408 C365 1408 501 1455 576 1550 C575 1587 535 1642 501 1662 C440 1589 347 1548 232 1548 C118 1548 29 1588 -27 1662 L-27 1662 Z M295 0 C352 0 415 4 422 8 C429 16 434 43 434 69 C434 90 431 112 425 121 C395 128 355 135 314 141 L314 1176 C355 1182 395 1190 425 1197 C431 1206 434 1228 434 1249 C434 1275 429 1302 422 1310 C415 1314 352 1318 295 1318 L179 1318 C122 1318 59 1314 52 1310 C45 1302 40 1275 40 1249 C40 1228 43 1206 49 1197 C79 1190 118 1182 160 1176 L160 141 C118 135 79 128 49 121 C43 112 40 90 40 69 C40 43 45 16 52 8 C59 4 122 0 179 0 L295 0 Z "/>
<glyph glyph-name="ibreve" unicode="ĭ" horiz-adv-x="494" d="M-17 1448 C-51 1428 -91 1373 -92 1336 C-10 1238 123 1194 251 1194 C375 1194 511 1241 586 1336 C585 1373 545 1428 511 1448 C450 1375 357 1334 242 1334 C128 1334 39 1374 -17 1448 L-17 1448 Z M334 1058 L328 1058 C310 1058 163 1054 67 1023 C63 1015 60 997 60 978 C60 948 65 913 71 911 C76 907 129 905 180 904 L180 148 C150 132 107 121 49 121 C43 111 40 89 40 69 C40 43 45 16 52 8 C59 4 122 0 179 0 L334 0 C385 0 436 4 442 8 C449 16 454 43 454 69 C454 90 451 112 445 121 C415 128 375 135 334 141 L334 1058 Z "/>
<glyph glyph-name="Iogonek" unicode="Į" horiz-adv-x="474" d="M314 1176 C355 1182 395 1190 425 1197 C431 1206 434 1228 434 1249 C434 1275 429 1302 422 1310 C415 1314 352 1318 295 1318 L179 1318 C122 1318 59 1314 52 1310 C45 1302 40 1275 40 1249 C40 1228 43 1206 49 1197 C79 1190 118 1182 160 1176 L160 141 C118 135 79 128 49 121 C43 112 40 90 40 69 C40 43 45 16 52 8 C57 5 84 3 119 1 C43 -61 -12 -141 -12 -231 C-12 -371 99 -478 229 -478 C279 -478 333 -464 385 -427 L385 -296 L378 -291 C334 -313 275 -337 226 -337 C175 -337 135 -311 135 -233 C135 -163 177 -61 309 0 C362 1 416 4 422 8 C429 16 434 43 434 69 C434 90 431 112 425 121 C395 128 355 135 314 141 L314 1176 Z "/>
<glyph glyph-name="iogonek" unicode="į" horiz-adv-x="494" d="M257 1215 C316 1215 365 1263 365 1321 C365 1379 316 1428 257 1428 C198 1428 150 1379 150 1321 C150 1263 198 1215 257 1215 L257 1215 Z M516 -296 L509 -291 C465 -313 406 -337 357 -337 C306 -337 266 -311 266 -233 C266 -163 310 -54 440 7 L442 8 C449 16 454 43 454 69 C454 90 451 112 445 121 C415 128 375 135 334 141 L334 1058 L328 1058 C310 1058 163 1054 67 1023 C63 1015 60 997 60 978 C60 948 65 913 71 911 C76 907 129 905 180 904 L180 148 C150 132 107 121 49 121 C43 111 40 89 40 69 C40 43 45 16 52 8 C59 4 122 0 179 0 L243 0 C171 -64 119 -144 119 -231 C119 -371 230 -478 360 -478 C410 -478 464 -464 516 -427 L516 -296 Z "/>
<glyph glyph-name="Idotaccent" unicode="İ" horiz-adv-x="474" d="M123 1520 C123 1459 174 1408 236 1408 C298 1408 350 1459 350 1520 C350 1581 298 1632 236 1632 C174 1632 123 1581 123 1520 L123 1520 Z M295 0 C352 0 415 4 422 8 C429 16 434 43 434 69 C434 90 431 112 425 121 C395 128 355 135 314 141 L314 1176 C355 1182 395 1190 425 1197 C431 1206 434 1228 434 1249 C434 1275 429 1302 422 1310 C415 1314 352 1318 295 1318 L179 1318 C122 1318 59 1314 52 1310 C45 1302 40 1275 40 1249 C40 1228 43 1206 49 1197 C79 1190 118 1182 160 1176 L160 141 C118 135 79 128 49 121 C43 112 40 90 40 69 C40 43 45 16 52 8 C59 4 122 0 179 0 L295 0 Z "/>
<glyph glyph-name="dotlessi" unicode="ı" horiz-adv-x="494" d="M334 1058 L328 1058 C310 1058 163 1054 67 1023 C63 1015 60 997 60 978 C60 948 65 913 71 911 C76 907 129 905 180 904 L180 148 C150 132 107 121 49 121 C43 111 40 89 40 69 C40 43 45 16 52 8 C59 4 122 0 179 0 L334 0 C385 0 436 4 442 8 C449 16 454 43 454 69 C454 90 451 112 445 121 C415 128 375 135 334 141 L334 1058 Z "/>
<glyph glyph-name="IJ" unicode="Ĳ" horiz-adv-x="1124" d="M99 1581 C99 1523 147 1475 206 1475 C265 1475 314 1523 314 1581 C314 1639 265 1688 206 1688 C147 1688 99 1639 99 1581 L99 1581 Z M806 1581 C806 1523 854 1475 913 1475 C972 1475 1021 1523 1021 1581 C1021 1639 972 1688 913 1688 C854 1688 806 1639 806 1581 L806 1581 Z M129 602 L283 602 L283 1176 C324 1182 364 1190 394 1197 C400 1206 403 1228 403 1249 C403 1275 398 1302 391 1310 C384 1314 321 1318 264 1318 L148 1318 C91 1318 28 1314 21 1310 C14 1302 9 1275 9 1249 C9 1228 12 1206 18 1197 C48 1190 87 1182 129 1176 L129 602 Z M836 1318 C785 1317 734 1313 728 1310 C721 1302 716 1275 716 1249 C716 1228 719 1206 725 1197 C755 1190 794 1182 836 1176 L836 540 C836 187 702 118 519 118 C438 118 363 121 264 134 C257 183 249 230 241 265 C232 270 210 273 188 273 C162 273 135 269 127 261 C124 255 120 191 120 135 L120 6 C245 -1 384 -20 513 -20 C770 -20 990 60 990 490 L990 1176 C1032 1182 1071 1190 1102 1197 C1108 1206 1111 1228 1111 1249 C1111 1275 1106 1302 1099 1310 C1092 1313 1041 1317 990 1318 L836 1318 Z "/>
<glyph glyph-name="ij" unicode="ĳ" horiz-adv-x="1181" d="M267 1215 C326 1215 375 1263 375 1321 C375 1379 326 1428 267 1428 C208 1428 160 1379 160 1321 C160 1263 208 1215 267 1215 L267 1215 Z M923 1428 C864 1428 816 1379 816 1321 C816 1263 864 1215 923 1215 C982 1215 1031 1263 1031 1321 C1031 1379 982 1428 923 1428 L923 1428 Z M803 1040 C792 1038 781 1036 771 1033 C768 1033 765 1032 763 1031 L740 1025 C738 1025 735 1024 733 1023 C732 1022 732 1021 732 1021 C731 1019 730 1017 730 1015 C730 1015 729 1014 729 1013 L729 1010 L728 1008 L728 1006 C727 1000 726 993 726 986 L726 978 C726 967 726 956 727 946 C728 941 729 936 729 932 L730 928 C730 927 730 925 731 923 C732 917 734 912 736 911 L737 911 C737 910 738 910 739 910 C741 909 744 909 748 908 C753 908 760 907 767 907 C783 906 802 905 822 905 C825 905 829 905 832 905 L845 904 L845 222 C766 174 667 123 571 123 C446 123 344 182 344 383 L344 1058 L338 1058 C320 1058 173 1054 77 1023 C73 1015 70 997 70 978 C70 948 75 913 81 911 C86 907 138 905 189 904 L189 374 C189 81 359 -20 556 -20 C646 -20 761 30 845 82 L845 -74 C845 -279 708 -336 551 -336 C469 -336 382 -320 306 -302 C299 -247 290 -194 281 -156 C272 -151 250 -148 228 -148 C202 -148 175 -152 167 -160 C164 -166 160 -230 160 -286 L160 -415 C272 -448 417 -478 555 -478 C788 -478 1000 -391 1000 -74 L1000 1058 L994 1058 C980 1058 888 1055 803 1040 L803 1040 Z "/>
<glyph glyph-name="Jcircumflex" unicode="Ĵ" horiz-adv-x="701" d="M470 1604 C563 1519 656 1462 767 1408 C784 1422 806 1483 810 1523 C683 1590 577 1672 472 1772 L464 1772 C360 1673 252 1590 126 1523 C130 1483 152 1422 169 1408 C280 1463 372 1518 465 1604 L470 1604 Z M410 1318 C353 1318 290 1314 283 1310 C276 1302 271 1275 271 1249 C271 1228 274 1206 280 1197 C310 1190 349 1182 391 1176 L391 384 C391 195 310 123 204 123 C197 172 189 219 181 254 C172 259 150 262 128 262 C102 262 75 258 67 250 C64 244 60 180 60 124 L60 -5 C107 -16 153 -20 197 -20 C393 -20 546 95 546 384 L546 1176 C587 1182 627 1190 657 1197 C663 1206 666 1228 666 1249 C666 1275 661 1302 654 1310 C647 1314 584 1318 527 1318 L410 1318 Z "/>
<glyph glyph-name="jcircumflex" unicode="ĵ" horiz-adv-x="540" d="M272 1386 C365 1301 458 1244 569 1190 C586 1204 608 1265 612 1305 C485 1372 379 1454 274 1554 L266 1554 C162 1455 54 1372 -72 1305 C-68 1265 -46 1204 -29 1190 C82 1245 174 1300 267 1386 L272 1386 Z M349 1058 L343 1058 C325 1058 178 1054 82 1023 C78 1015 75 997 75 978 C75 948 80 913 86 911 C91 907 143 905 194 904 L194 -74 C194 -263 113 -335 7 -335 C-21 -335 -51 -330 -82 -320 C-88 -260 -99 -199 -109 -156 C-118 -151 -140 -148 -162 -148 C-188 -148 -215 -152 -223 -160 C-226 -166 -230 -230 -230 -286 L-230 -415 C-143 -455 -55 -478 26 -478 C206 -478 349 -365 349 -74 L349 1058 Z "/>
<glyph glyph-name="Kcommaaccent" unicode="Ķ" horiz-adv-x="1120" d="M978 0 C1050 93 1094 176 1100 211 C1085 228 1051 259 1017 264 C1005 258 979 236 952 209 C778 341 572 566 506 694 L909 1172 C962 1179 1014 1188 1052 1197 C1058 1206 1061 1228 1061 1249 C1061 1275 1056 1302 1049 1310 C1042 1314 979 1318 922 1318 L805 1318 C748 1318 685 1314 678 1310 C671 1302 666 1275 666 1249 C666 1228 669 1206 675 1197 C689 1193 706 1190 724 1186 L315 700 L315 1176 C356 1182 396 1190 426 1197 C432 1206 435 1228 435 1249 C435 1275 430 1302 423 1310 C417 1313 366 1317 315 1318 L160 1318 C109 1317 58 1313 52 1310 C45 1302 40 1275 40 1249 C40 1228 43 1206 49 1197 C79 1190 118 1182 160 1176 L160 141 C118 135 79 128 49 121 C43 112 40 90 40 69 C40 43 45 16 52 8 C58 4 109 0 160 0 L296 0 C353 0 416 4 423 8 C430 16 435 43 435 69 C435 90 432 112 426 121 C396 128 356 135 315 141 L315 682 C391 503 761 100 972 2 C974 1 977 0 978 0 L978 0 Z M456 -187 C487 -229 501 -261 501 -294 C501 -332 483 -371 452 -424 L494 -478 C578 -433 683 -312 683 -198 C683 -107 616 -75 568 -75 C507 -75 456 -126 456 -187 L456 -187 Z "/>
<glyph glyph-name="kcommaaccent" unicode="ķ" horiz-adv-x="1029" d="M296 0 C353 0 416 4 423 8 C430 16 435 43 435 69 C435 90 432 112 426 121 C396 128 356 135 315 141 L315 527 C330 477 675 -8 882 -20 C954 73 998 156 1004 191 C989 208 955 239 921 244 C906 237 872 207 839 172 C688 277 516 482 503 536 L805 895 C850 901 892 909 925 917 C931 926 934 948 934 969 C934 995 929 1022 922 1030 C915 1034 852 1038 795 1038 L679 1038 C622 1038 559 1034 552 1030 C545 1022 540 995 540 969 C540 948 543 926 549 917 C568 912 590 908 614 904 L315 546 L315 1448 L309 1448 C291 1448 144 1444 48 1413 C44 1405 41 1387 41 1368 C41 1338 46 1303 52 1301 C57 1297 109 1295 160 1294 L160 147 C130 132 88 121 30 121 C24 111 21 89 21 69 C21 43 26 16 33 8 C40 4 103 0 160 0 L296 0 Z M418 -187 C449 -229 463 -261 463 -294 C463 -332 445 -371 414 -424 L456 -478 C540 -433 645 -312 645 -198 C645 -107 578 -75 530 -75 C469 -75 418 -126 418 -187 L418 -187 Z "/>
<glyph glyph-name="Lacute" unicode="Ĺ" horiz-adv-x="968" d="M448 1776 C392 1727 254 1612 57 1523 C61 1483 83 1422 99 1408 C277 1443 494 1588 536 1651 C528 1705 490 1754 448 1776 L448 1776 Z M179 1318 C122 1318 59 1314 52 1310 C45 1302 40 1275 40 1249 C40 1228 43 1206 49 1197 C77 1190 112 1183 150 1178 L150 140 C112 134 77 127 49 121 C43 112 40 90 40 69 C40 43 45 16 52 8 C59 4 122 0 179 0 L924 0 L924 144 C924 200 920 264 917 270 C909 278 882 282 856 282 C834 282 812 279 803 274 C795 239 786 192 780 144 L305 144 L305 1175 C350 1181 392 1189 425 1197 C431 1206 434 1228 434 1249 C434 1275 429 1302 422 1310 C415 1314 352 1318 295 1318 L179 1318 Z "/>
<glyph glyph-name="lacute" unicode="ĺ" horiz-adv-x="494" d="M399 1816 C343 1767 205 1652 8 1563 C12 1523 34 1462 50 1448 C228 1483 445 1628 487 1691 C479 1745 441 1794 399 1816 L399 1816 Z M315 0 C372 0 435 4 442 8 C449 16 454 43 454 69 C454 90 451 112 445 121 C415 128 375 135 334 141 L334 1448 L328 1448 C310 1448 163 1444 67 1413 C63 1405 60 1387 60 1368 C60 1338 65 1303 71 1301 C76 1297 129 1295 180 1294 L180 148 C150 132 107 121 49 121 C43 111 40 89 40 69 C40 43 45 16 52 8 C59 4 122 0 179 0 L315 0 Z "/>
<glyph glyph-name="Lcommaaccent" unicode="Ļ" horiz-adv-x="968" d="M924 0 L924 144 C924 200 920 264 917 270 C909 278 882 282 856 282 C834 282 812 279 803 274 C795 239 786 192 780 144 L305 144 L305 1175 C350 1181 392 1189 425 1197 C431 1206 434 1228 434 1249 C434 1275 429 1302 422 1310 C415 1314 352 1318 295 1318 L179 1318 C122 1318 59 1314 52 1310 C45 1302 40 1275 40 1249 C40 1228 43 1206 49 1197 C77 1190 112 1183 150 1178 L150 140 C112 134 77 127 49 121 C43 112 40 90 40 69 C40 43 45 16 52 8 C59 4 122 0 179 0 L924 0 Z M403 -187 C434 -229 448 -261 448 -294 C448 -332 430 -371 399 -424 L441 -478 C525 -433 630 -312 630 -198 C630 -107 563 -75 515 -75 C454 -75 403 -126 403 -187 L403 -187 Z "/>
<glyph glyph-name="lcommaaccent" unicode="ļ" horiz-adv-x="494" d="M315 0 C372 0 435 4 442 8 C449 16 454 43 454 69 C454 90 451 112 445 121 C415 128 375 135 334 141 L334 1448 L328 1448 C310 1448 163 1444 67 1413 C63 1405 60 1387 60 1368 C60 1338 65 1303 71 1301 C76 1297 129 1295 180 1294 L180 148 C150 132 107 121 49 121 C43 111 40 89 40 69 C40 43 45 16 52 8 C59 4 122 0 179 0 L315 0 Z M143 -187 C174 -229 188 -261 188 -294 C188 -332 170 -371 139 -424 L181 -478 C265 -433 370 -312 370 -198 C370 -107 303 -75 255 -75 C194 -75 143 -126 143 -187 L143 -187 Z "/>
<glyph glyph-name="Lcaron" unicode="Ľ" horiz-adv-x="968" d="M671 1336 C702 1294 716 1262 716 1229 C716 1191 698 1152 667 1099 L709 1045 C793 1090 898 1211 898 1325 C898 1416 831 1448 783 1448 C722 1448 671 1397 671 1336 L671 1336 Z M179 1318 C122 1318 59 1314 52 1310 C45 1302 40 1275 40 1249 C40 1228 43 1206 49 1197 C77 1190 112 1183 150 1178 L150 140 C112 134 77 127 49 121 C43 112 40 90 40 69 C40 43 45 16 52 8 C59 4 122 0 179 0 L924 0 L924 144 C924 200 920 264 917 270 C909 278 882 282 856 282 C834 282 812 279 803 274 C795 239 786 192 780 144 L305 144 L305 1175 C350 1181 392 1189 425 1197 C431 1206 434 1228 434 1249 C434 1275 429 1302 422 1310 C415 1314 352 1318 295 1318 L179 1318 Z "/>
<glyph glyph-name="lcaron" unicode="ľ" horiz-adv-x="885" d="M315 0 C372 0 435 4 442 8 C449 16 454 43 454 69 C454 90 451 112 445 121 C415 128 375 135 334 141 L334 1448 L328 1448 C310 1448 163 1444 67 1413 C63 1405 60 1387 60 1368 C60 1338 65 1303 71 1301 C76 1297 129 1295 180 1294 L180 148 C150 132 107 121 49 121 C43 111 40 89 40 69 C40 43 45 16 52 8 C59 4 122 0 179 0 L315 0 Z M578 1336 C609 1294 623 1262 623 1229 C623 1191 605 1152 574 1099 L616 1045 C700 1090 805 1211 805 1325 C805 1416 738 1448 690 1448 C629 1448 578 1397 578 1336 L578 1336 Z "/>
<glyph glyph-name="Ldot" unicode="Ŀ" horiz-adv-x="968" d="M924 0 L924 144 C924 200 920 264 917 270 C909 278 882 282 856 282 C834 282 812 279 803 274 C795 239 786 192 780 144 L305 144 L305 1175 C350 1181 392 1189 425 1197 C431 1206 434 1228 434 1249 C434 1275 429 1302 422 1310 C415 1314 352 1318 295 1318 L179 1318 C122 1318 59 1314 52 1310 C45 1302 40 1275 40 1249 C40 1228 43 1206 49 1197 C77 1190 112 1183 150 1178 L150 140 C112 134 77 127 49 121 C43 112 40 90 40 69 C40 43 45 16 52 8 C59 4 122 0 179 0 L924 0 Z M675 729 C675 668 726 617 788 617 C850 617 902 668 902 729 C902 790 850 841 788 841 C726 841 675 790 675 729 L675 729 Z "/>
<glyph glyph-name="ldot" unicode="ŀ" horiz-adv-x="723" d="M334 1448 L328 1448 C310 1448 163 1444 67 1413 C63 1405 60 1387 60 1368 C60 1338 65 1303 71 1301 C76 1297 129 1295 180 1294 L180 148 C150 132 107 121 49 121 C43 111 40 89 40 69 C40 43 45 16 52 8 C59 4 122 0 179 0 L315 0 C372 0 435 4 442 8 C449 16 454 43 454 69 C454 90 451 112 445 121 C415 128 375 135 334 141 L334 1448 Z M456 729 C456 668 507 617 569 617 C631 617 683 668 683 729 C683 790 631 841 569 841 C507 841 456 790 456 729 L456 729 Z "/>
<glyph glyph-name="lslash" unicode="ł" horiz-adv-x="494" d="M334 866 L534 938 L487 1065 L334 1010 L334 1448 L328 1448 C310 1448 163 1444 67 1413 C63 1405 60 1387 60 1368 C60 1338 65 1303 71 1301 C76 1297 129 1295 180 1294 L180 954 L-50 871 L-3 744 L180 810 L180 148 C150 132 107 121 49 121 C43 111 40 89 40 69 C40 43 45 16 52 8 C59 4 122 0 179 0 L315 0 C372 0 435 4 442 8 C449 16 454 43 454 69 C454 90 451 112 445 121 C415 128 375 135 334 141 L334 866 Z "/>
<glyph glyph-name="Nacute" unicode="Ń" horiz-adv-x="1263" d="M790 1776 C734 1727 596 1612 399 1523 C403 1483 425 1422 441 1408 C619 1443 836 1588 878 1651 C870 1705 832 1754 790 1776 L790 1776 Z M958 299 L321 1318 L179 1318 C122 1318 59 1314 52 1310 C45 1302 40 1275 40 1249 C40 1228 43 1206 49 1197 C79 1190 118 1182 160 1176 L160 141 C118 135 79 128 49 121 C43 112 40 90 40 69 C40 43 45 16 52 8 C59 4 122 0 179 0 L295 0 C352 0 415 4 422 8 C429 16 434 43 434 69 C434 90 431 112 425 121 C395 128 356 135 315 141 L315 1028 L958 0 L1113 0 L1113 1176 C1154 1182 1194 1190 1224 1197 C1230 1206 1233 1228 1233 1249 C1233 1275 1228 1302 1221 1310 C1214 1314 1151 1318 1094 1318 L977 1318 C920 1318 857 1314 850 1310 C843 1302 838 1275 838 1249 C838 1228 841 1206 847 1197 C877 1190 916 1182 958 1176 L958 299 Z "/>
<glyph glyph-name="nacute" unicode="ń" horiz-adv-x="1135" d="M719 1558 C663 1509 525 1394 328 1305 C332 1265 354 1204 370 1190 C548 1225 765 1370 807 1433 C799 1487 761 1536 719 1558 L719 1558 Z M985 0 C1036 0 1087 4 1093 8 C1100 16 1105 43 1105 69 C1105 90 1102 112 1096 121 C1066 128 1026 135 985 141 L985 664 C985 957 815 1058 618 1058 C519 1058 392 998 307 942 L272 1058 L266 1058 C248 1058 157 1054 61 1023 C57 1015 54 997 54 978 C54 948 59 913 65 911 C70 907 123 905 174 904 L174 147 C144 132 102 121 44 121 C38 111 35 89 35 69 C35 43 40 16 47 8 C54 4 117 0 174 0 L329 0 C380 0 431 4 437 8 C444 16 449 43 449 69 C449 90 446 112 440 121 C410 128 370 135 329 141 L329 815 C408 863 506 915 603 915 C728 915 830 856 830 655 L830 147 C800 132 758 121 700 121 C694 111 691 89 691 69 C691 43 696 16 703 8 C710 4 773 0 830 0 L985 0 Z "/>
<glyph glyph-name="Ncommaaccent" unicode="Ņ" horiz-adv-x="1273" d="M958 299 L321 1318 L179 1318 C122 1318 59 1314 52 1310 C45 1302 40 1275 40 1249 C40 1228 43 1206 49 1197 C79 1190 118 1182 160 1176 L160 141 C118 135 79 128 49 121 C43 112 40 90 40 69 C40 43 45 16 52 8 C59 4 122 0 179 0 L295 0 C352 0 415 4 422 8 C429 16 434 43 434 69 C434 90 431 112 425 121 C395 128 356 135 315 141 L315 1028 L958 0 L1113 0 L1113 1176 C1154 1182 1194 1190 1224 1197 C1230 1206 1233 1228 1233 1249 C1233 1275 1228 1302 1221 1310 C1214 1314 1151 1318 1094 1318 L977 1318 C920 1318 857 1314 850 1310 C843 1302 838 1275 838 1249 C838 1228 841 1206 847 1197 C877 1190 916 1182 958 1176 L958 299 Z M535 -187 C566 -229 580 -261 580 -294 C580 -332 562 -371 531 -424 L573 -478 C657 -433 762 -312 762 -198 C762 -107 695 -75 647 -75 C586 -75 535 -126 535 -187 L535 -187 Z "/>
<glyph glyph-name="ncommaaccent" unicode="ņ" horiz-adv-x="1135" d="M985 0 C1036 0 1087 4 1093 8 C1100 16 1105 43 1105 69 C1105 90 1102 112 1096 121 C1066 128 1026 135 985 141 L985 664 C985 957 815 1058 618 1058 C519 1058 392 998 307 942 L272 1058 L266 1058 C248 1058 157 1054 61 1023 C57 1015 54 997 54 978 C54 948 59 913 65 911 C70 907 123 905 174 904 L174 147 C144 132 102 121 44 121 C38 111 35 89 35 69 C35 43 40 16 47 8 C54 4 117 0 174 0 L329 0 C380 0 431 4 437 8 C444 16 449 43 449 69 C449 90 446 112 440 121 C410 128 370 135 329 141 L329 815 C408 863 506 915 603 915 C728 915 830 856 830 655 L830 147 C800 132 758 121 700 121 C694 111 691 89 691 69 C691 43 696 16 703 8 C710 4 773 0 830 0 L985 0 Z M454 -187 C485 -229 499 -261 499 -294 C499 -332 481 -371 450 -424 L492 -478 C576 -433 681 -312 681 -198 C681 -107 614 -75 566 -75 C505 -75 454 -126 454 -187 L454 -187 Z "/>
<glyph glyph-name="Ncaron" unicode="Ň" horiz-adv-x="1263" d="M628 1576 C535 1662 443 1717 332 1772 C315 1758 293 1697 289 1657 C415 1590 523 1507 627 1408 L635 1408 C740 1508 846 1590 973 1657 C969 1697 947 1758 930 1772 C819 1718 726 1661 633 1576 L628 1576 Z M958 299 L321 1318 L179 1318 C122 1318 59 1314 52 1310 C45 1302 40 1275 40 1249 C40 1228 43 1206 49 1197 C79 1190 118 1182 160 1176 L160 141 C118 135 79 128 49 121 C43 112 40 90 40 69 C40 43 45 16 52 8 C59 4 122 0 179 0 L295 0 C352 0 415 4 422 8 C429 16 434 43 434 69 C434 90 431 112 425 121 C395 128 356 135 315 141 L315 1028 L958 0 L1113 0 L1113 1176 C1154 1182 1194 1190 1224 1197 C1230 1206 1233 1228 1233 1249 C1233 1275 1228 1302 1221 1310 C1214 1314 1151 1318 1094 1318 L977 1318 C920 1318 857 1314 850 1310 C843 1302 838 1275 838 1249 C838 1228 841 1206 847 1197 C877 1190 916 1182 958 1176 L958 299 Z "/>
<glyph glyph-name="ncaron" unicode="ň" horiz-adv-x="1135" d="M564 1358 C471 1444 379 1499 268 1554 C251 1540 229 1479 225 1439 C351 1372 459 1289 563 1190 L571 1190 C676 1290 782 1372 909 1439 C905 1479 883 1540 866 1554 C755 1500 662 1443 569 1358 L564 1358 Z M985 0 C1036 0 1087 4 1093 8 C1100 16 1105 43 1105 69 C1105 90 1102 112 1096 121 C1066 128 1026 135 985 141 L985 664 C985 957 815 1058 618 1058 C519 1058 392 998 307 942 L272 1058 L266 1058 C248 1058 157 1054 61 1023 C57 1015 54 997 54 978 C54 948 59 913 65 911 C70 907 123 905 174 904 L174 147 C144 132 102 121 44 121 C38 111 35 89 35 69 C35 43 40 16 47 8 C54 4 117 0 174 0 L329 0 C380 0 431 4 437 8 C444 16 449 43 449 69 C449 90 446 112 440 121 C410 128 370 135 329 141 L329 815 C408 863 506 915 603 915 C728 915 830 856 830 655 L830 147 C800 132 758 121 700 121 C694 111 691 89 691 69 C691 43 696 16 703 8 C710 4 773 0 830 0 L985 0 Z "/>
<glyph glyph-name="Eng" unicode="Ŋ" horiz-adv-x="1273" d="M295 0 C352 0 415 4 422 8 C429 16 434 43 434 69 C434 90 431 112 425 121 C395 128 356 135 315 141 L315 1028 L958 0 L958 -74 C958 -263 877 -335 771 -335 C764 -286 756 -239 748 -204 C739 -199 717 -196 695 -196 C669 -196 642 -200 634 -208 C631 -214 627 -278 627 -334 L627 -463 C674 -474 720 -478 764 -478 C960 -478 1113 -363 1113 -74 L1113 1176 C1154 1182 1194 1190 1224 1197 C1230 1206 1233 1228 1233 1249 C1233 1275 1228 1302 1221 1310 C1214 1314 1151 1318 1094 1318 L977 1318 C920 1318 857 1314 850 1310 C843 1302 838 1275 838 1249 C838 1228 841 1206 847 1197 C877 1190 916 1182 958 1176 L958 299 L321 1318 L179 1318 C122 1318 59 1314 52 1310 C45 1302 40 1275 40 1249 C40 1228 43 1206 49 1197 C79 1190 118 1182 160 1176 L160 141 C118 135 79 128 49 121 C43 112 40 90 40 69 C40 43 45 16 52 8 C59 4 122 0 179 0 L295 0 Z "/>
<glyph glyph-name="eng" unicode="ŋ" horiz-adv-x="1135" d="M985 0 C1036 0 1087 4 1093 8 C1100 16 1105 43 1105 69 C1105 90 1102 112 1096 121 C1066 128 1026 135 985 141 L985 664 C985 957 815 1058 618 1058 C519 1058 392 998 307 942 L272 1058 L266 1058 C248 1058 157 1054 61 1023 C57 1015 54 997 54 978 C54 948 59 913 65 911 C70 907 123 905 174 904 L174 147 C144 132 102 121 44 121 C38 111 35 89 35 69 C35 43 40 16 47 8 C54 4 117 0 174 0 L329 0 C380 0 431 4 437 8 C444 16 449 43 449 69 C449 90 446 112 440 121 C410 128 370 135 329 141 L329 815 C408 863 506 915 603 915 C728 915 830 856 830 655 L830 147 C800 132 758 121 700 121 C694 111 691 89 691 69 C691 43 696 16 703 8 C710 4 773 0 830 0 L985 0 Z "/>
<glyph glyph-name="Omacron" unicode="Ō" horiz-adv-x="1383" d="M992 1554 L390 1554 L390 1410 L992 1410 L992 1554 Z M80 660 C80 276 322 -20 687 -20 C1052 -20 1303 277 1303 660 C1303 1043 1063 1338 698 1338 C333 1338 80 1043 80 660 L80 660 Z M234 672 C234 970 405 1194 694 1194 C989 1194 1149 958 1149 648 C1149 347 987 124 699 124 C402 124 234 364 234 672 L234 672 Z "/>
<glyph glyph-name="omacron" unicode="ō" horiz-adv-x="1112" d="M857 1340 L255 1340 L255 1196 L857 1196 L857 1340 Z M80 516 C80 221 268 -20 552 -20 C836 -20 1032 220 1032 521 C1032 816 844 1058 560 1058 C278 1058 80 817 80 516 L80 516 Z M235 524 C235 744 348 914 556 914 C771 914 877 733 877 513 C877 291 769 124 561 124 C345 124 235 307 235 524 L235 524 Z "/>
<glyph glyph-name="Ohungarumlaut" unicode="Ő" horiz-adv-x="1383" d="M676 1865 C638 1800 543 1649 382 1503 C399 1467 439 1416 458 1408 C616 1495 777 1701 799 1773 C775 1822 723 1856 676 1865 L676 1865 Z M1037 1865 C998 1800 903 1649 743 1503 C759 1467 799 1416 818 1408 C977 1495 1138 1701 1160 1773 C1135 1822 1083 1856 1037 1865 L1037 1865 Z M80 660 C80 276 322 -20 687 -20 C1052 -20 1303 277 1303 660 C1303 1043 1063 1338 698 1338 C333 1338 80 1043 80 660 L80 660 Z M234 672 C234 970 405 1194 694 1194 C989 1194 1149 958 1149 648 C1149 347 987 124 699 124 C402 124 234 364 234 672 L234 672 Z "/>
<glyph glyph-name="ohungarumlaut" unicode="ő" horiz-adv-x="1112" d="M575 1647 C537 1582 442 1431 281 1285 C298 1249 338 1198 357 1190 C515 1277 676 1483 698 1555 C674 1604 622 1638 575 1647 L575 1647 Z M936 1647 C897 1582 802 1431 642 1285 C658 1249 698 1198 717 1190 C876 1277 1037 1483 1059 1555 C1034 1604 982 1638 936 1647 L936 1647 Z M80 516 C80 221 268 -20 552 -20 C836 -20 1032 220 1032 521 C1032 816 844 1058 560 1058 C278 1058 80 817 80 516 L80 516 Z M235 524 C235 744 348 914 556 914 C771 914 877 733 877 513 C877 291 769 124 561 124 C345 124 235 307 235 524 L235 524 Z "/>
<glyph glyph-name="OE" unicode="Œ" horiz-adv-x="1696" d="M1012 1174 L1507 1174 C1513 1125 1522 1079 1530 1044 C1539 1039 1561 1036 1583 1036 C1609 1036 1636 1040 1644 1048 C1647 1054 1651 1118 1651 1174 L1651 1318 L876 1318 L858 1318 C808 1331 754 1338 698 1338 C333 1338 80 1043 80 660 C80 276 322 -20 687 -20 C743 -20 796 -13 846 0 L876 0 L1651 0 L1651 144 C1651 200 1647 264 1644 270 C1636 278 1609 282 1583 282 C1561 282 1539 279 1530 274 C1522 239 1513 192 1507 144 L1012 144 L1012 587 L1403 587 C1409 538 1418 492 1426 457 C1435 452 1457 449 1479 449 C1505 449 1532 453 1540 461 C1543 467 1547 531 1547 587 L1547 731 C1547 787 1543 851 1540 857 C1532 865 1505 869 1479 869 C1457 869 1435 866 1426 861 C1418 826 1409 779 1403 731 L1012 731 L1012 1174 Z M234 672 C234 970 405 1194 694 1194 C754 1194 808 1184 857 1166 L857 150 C810 133 757 124 699 124 C402 124 234 364 234 672 L234 672 Z "/>
<glyph glyph-name="oe" unicode="œ" horiz-adv-x="1728" d="M1678 480 L1678 620 C1678 817 1642 1058 1323 1058 C1136 1058 1012 975 944 844 C862 974 728 1058 560 1058 C278 1058 80 817 80 516 C80 221 268 -20 552 -20 C726 -20 867 70 950 209 C1036 52 1190 -20 1359 -20 C1455 -20 1550 1 1657 54 L1657 197 L1654 198 C1560 150 1467 124 1374 124 C1196 124 1047 240 1031 480 L1678 480 Z M561 124 C345 124 235 307 235 524 C235 744 348 914 556 914 C771 914 877 733 877 513 C877 291 769 124 561 124 L561 124 Z M1038 620 C1064 790 1163 914 1320 914 C1482 914 1524 779 1526 620 L1038 620 Z "/>
<glyph glyph-name="Racute" unicode="Ŕ" horiz-adv-x="1240" d="M727 1776 C671 1727 533 1612 336 1523 C340 1483 362 1422 378 1408 C556 1443 773 1588 815 1651 C807 1705 769 1754 727 1776 L727 1776 Z M1098 -20 C1170 73 1214 156 1220 191 C1205 208 1171 239 1137 244 C1124 238 1097 214 1068 185 C972 276 880 413 847 502 C987 566 1070 685 1070 887 C1070 1181 922 1318 483 1318 L179 1318 C122 1318 59 1314 52 1310 C45 1302 40 1275 40 1249 C40 1228 43 1206 49 1197 C79 1190 118 1182 160 1176 L160 141 C118 135 79 128 49 121 C43 112 40 90 40 69 C40 43 45 16 52 8 C59 4 122 0 179 0 L296 0 C353 0 416 4 423 8 C430 16 435 43 435 69 C435 90 432 112 426 121 C396 128 356 135 315 141 L315 431 L411 431 C516 431 613 437 698 454 C767 311 942 14 1098 -20 L1098 -20 Z M315 576 L315 1173 L473 1173 C742 1173 918 1114 918 874 C918 647 735 576 448 576 L315 576 Z "/>
<glyph glyph-name="racute" unicode="ŕ" horiz-adv-x="813" d="M558 1558 C502 1509 364 1394 167 1305 C171 1265 193 1204 209 1190 C387 1225 604 1370 646 1433 C638 1487 600 1536 558 1558 L558 1558 Z M310 1058 L304 1058 C286 1058 195 1054 99 1023 C95 1015 92 997 92 978 C92 948 97 913 103 911 C108 907 161 905 212 904 L212 147 C182 132 140 121 82 121 C76 111 73 89 73 69 C73 43 78 16 85 8 C92 4 155 0 212 0 L348 0 C405 0 468 4 475 8 C482 16 487 43 487 69 C487 90 484 112 478 121 C448 128 408 135 367 141 L367 776 C420 857 492 915 582 915 C624 915 687 902 725 883 L779 1022 C731 1044 658 1058 607 1058 C512 1058 429 1009 352 920 L310 1058 Z "/>
<glyph glyph-name="Rcommaaccent" unicode="Ŗ" horiz-adv-x="1240" d="M1098 -20 C1170 73 1214 156 1220 191 C1205 208 1171 239 1137 244 C1124 238 1097 214 1068 185 C972 276 880 413 847 502 C987 566 1070 685 1070 887 C1070 1181 922 1318 483 1318 L179 1318 C122 1318 59 1314 52 1310 C45 1302 40 1275 40 1249 C40 1228 43 1206 49 1197 C79 1190 118 1182 160 1176 L160 141 C118 135 79 128 49 121 C43 112 40 90 40 69 C40 43 45 16 52 8 C59 4 122 0 179 0 L296 0 C353 0 416 4 423 8 C430 16 435 43 435 69 C435 90 432 112 426 121 C396 128 356 135 315 141 L315 431 L411 431 C516 431 613 437 698 454 C767 311 942 14 1098 -20 L1098 -20 Z M315 576 L315 1173 L473 1173 C742 1173 918 1114 918 874 C918 647 735 576 448 576 L315 576 Z M495 -187 C526 -229 540 -261 540 -294 C540 -332 522 -371 491 -424 L533 -478 C617 -433 722 -312 722 -198 C722 -107 655 -75 607 -75 C546 -75 495 -126 495 -187 L495 -187 Z "/>
<glyph glyph-name="rcommaaccent" unicode="ŗ" horiz-adv-x="813" d="M310 1058 L304 1058 C286 1058 195 1054 99 1023 C95 1015 92 997 92 978 C92 948 97 913 103 911 C108 907 161 905 212 904 L212 147 C182 132 140 121 82 121 C76 111 73 89 73 69 C73 43 78 16 85 8 C92 4 155 0 212 0 L348 0 C405 0 468 4 475 8 C482 16 487 43 487 69 C487 90 484 112 478 121 C448 128 408 135 367 141 L367 776 C420 857 492 915 582 915 C624 915 687 902 725 883 L779 1022 C731 1044 658 1058 607 1058 C512 1058 429 1009 352 920 L310 1058 Z M177 -187 C208 -229 222 -261 222 -294 C222 -332 204 -371 173 -424 L215 -478 C299 -433 404 -312 404 -198 C404 -107 337 -75 289 -75 C228 -75 177 -126 177 -187 L177 -187 Z "/>
<glyph glyph-name="Rcaron" unicode="Ř" horiz-adv-x="1240" d="M526 1576 C433 1662 341 1717 230 1772 C213 1758 191 1697 187 1657 C313 1590 421 1507 525 1408 L533 1408 C638 1508 744 1590 871 1657 C867 1697 845 1758 828 1772 C717 1718 624 1661 531 1576 L526 1576 Z M1098 -20 C1170 73 1214 156 1220 191 C1205 208 1171 239 1137 244 C1124 238 1097 214 1068 185 C972 276 880 413 847 502 C987 566 1070 685 1070 887 C1070 1181 922 1318 483 1318 L179 1318 C122 1318 59 1314 52 1310 C45 1302 40 1275 40 1249 C40 1228 43 1206 49 1197 C79 1190 118 1182 160 1176 L160 141 C118 135 79 128 49 121 C43 112 40 90 40 69 C40 43 45 16 52 8 C59 4 122 0 179 0 L296 0 C353 0 416 4 423 8 C430 16 435 43 435 69 C435 90 432 112 426 121 C396 128 356 135 315 141 L315 431 L411 431 C516 431 613 437 698 454 C767 311 942 14 1098 -20 L1098 -20 Z M315 576 L315 1173 L473 1173 C742 1173 918 1114 918 874 C918 647 735 576 448 576 L315 576 Z "/>
<glyph glyph-name="rcaron" unicode="ř" horiz-adv-x="813" d="M404 1358 C311 1444 219 1499 108 1554 C91 1540 69 1479 65 1439 C191 1372 299 1289 403 1190 L411 1190 C516 1290 622 1372 749 1439 C745 1479 723 1540 706 1554 C595 1500 502 1443 409 1358 L404 1358 Z M310 1058 L304 1058 C286 1058 195 1054 99 1023 C95 1015 92 997 92 978 C92 948 97 913 103 911 C108 907 161 905 212 904 L212 147 C182 132 140 121 82 121 C76 111 73 89 73 69 C73 43 78 16 85 8 C92 4 155 0 212 0 L348 0 C405 0 468 4 475 8 C482 16 487 43 487 69 C487 90 484 112 478 121 C448 128 408 135 367 141 L367 776 C420 857 492 915 582 915 C624 915 687 902 725 883 L779 1022 C731 1044 658 1058 607 1058 C512 1058 429 1009 352 920 L310 1058 Z "/>
<glyph glyph-name="Sacute" unicode="Ś" horiz-adv-x="919" d="M679 1776 C623 1727 485 1612 288 1523 C292 1483 314 1422 330 1408 C508 1443 725 1588 767 1651 C759 1705 721 1754 679 1776 L679 1776 Z M685 341 C685 177 538 124 383 124 C334 124 284 129 238 137 C232 200 221 263 211 308 C202 313 180 316 158 316 C132 316 105 312 97 304 C94 298 90 234 90 178 L90 38 C170 0 264 -20 359 -20 C593 -20 829 105 829 375 C829 523 758 590 664 650 C535 732 364 797 295 857 C259 889 238 930 238 995 C238 1155 369 1196 505 1196 C533 1196 562 1194 590 1191 C597 1135 606 1080 616 1041 C625 1036 647 1033 669 1033 C695 1033 722 1037 730 1045 C733 1051 737 1115 737 1171 L737 1303 C666 1324 586 1338 505 1338 C298 1338 97 1248 97 983 C97 865 137 782 201 731 C279 668 466 594 569 528 C643 481 685 429 685 341 L685 341 Z "/>
<glyph glyph-name="sacute" unicode="ś" horiz-adv-x="801" d="M552 1558 C496 1509 358 1394 161 1305 C165 1265 187 1204 203 1190 C381 1225 598 1370 640 1433 C632 1487 594 1536 552 1558 L552 1558 Z M576 293 C576 168 410 125 315 125 C284 125 250 128 218 135 C211 196 201 258 191 302 C182 307 160 310 138 310 C112 310 85 306 77 298 C74 292 70 228 70 172 L70 27 C137 -2 218 -20 306 -20 C512 -20 731 88 731 313 C731 654 227 569 227 798 C227 894 317 919 403 919 C448 919 497 913 540 906 C545 867 552 831 559 803 C568 798 590 795 612 795 C638 795 665 799 673 807 C676 813 680 877 680 933 L680 1017 C609 1040 517 1058 426 1058 C248 1058 74 992 74 785 C74 437 576 512 576 293 L576 293 Z "/>
<glyph glyph-name="Scircumflex" unicode="Ŝ" horiz-adv-x="919" d="M497 1604 C590 1519 683 1462 794 1408 C811 1422 833 1483 837 1523 C710 1590 604 1672 499 1772 L491 1772 C387 1673 279 1590 153 1523 C157 1483 179 1422 196 1408 C307 1463 399 1518 492 1604 L497 1604 Z M685 341 C685 177 538 124 383 124 C334 124 284 129 238 137 C232 200 221 263 211 308 C202 313 180 316 158 316 C132 316 105 312 97 304 C94 298 90 234 90 178 L90 38 C170 0 264 -20 359 -20 C593 -20 829 105 829 375 C829 523 758 590 664 650 C535 732 364 797 295 857 C259 889 238 930 238 995 C238 1155 369 1196 505 1196 C533 1196 562 1194 590 1191 C597 1135 606 1080 616 1041 C625 1036 647 1033 669 1033 C695 1033 722 1037 730 1045 C733 1051 737 1115 737 1171 L737 1303 C666 1324 586 1338 505 1338 C298 1338 97 1248 97 983 C97 865 137 782 201 731 C279 668 466 594 569 528 C643 481 685 429 685 341 L685 341 Z "/>
<glyph glyph-name="scircumflex" unicode="ŝ" horiz-adv-x="801" d="M427 1386 C520 1301 613 1244 724 1190 C741 1204 763 1265 767 1305 C640 1372 534 1454 429 1554 L421 1554 C317 1455 209 1372 83 1305 C87 1265 109 1204 126 1190 C237 1245 329 1300 422 1386 L427 1386 Z M576 293 C576 168 410 125 315 125 C284 125 250 128 218 135 C211 196 201 258 191 302 C182 307 160 310 138 310 C112 310 85 306 77 298 C74 292 70 228 70 172 L70 27 C137 -2 218 -20 306 -20 C512 -20 731 88 731 313 C731 654 227 569 227 798 C227 894 317 919 403 919 C448 919 497 913 540 906 C545 867 552 831 559 803 C568 798 590 795 612 795 C638 795 665 799 673 807 C676 813 680 877 680 933 L680 1017 C609 1040 517 1058 426 1058 C248 1058 74 992 74 785 C74 437 576 512 576 293 L576 293 Z "/>
<glyph glyph-name="Scedilla" unicode="Ş" horiz-adv-x="919" d="M685 341 C685 177 538 124 383 124 C334 124 284 129 238 137 C232 200 221 263 211 308 C202 313 180 316 158 316 C132 316 105 312 97 304 C94 298 90 234 90 178 L90 38 C170 0 264 -20 359 -20 C593 -20 829 105 829 375 C829 523 758 590 664 650 C535 732 364 797 295 857 C259 889 238 930 238 995 C238 1155 369 1196 505 1196 C533 1196 562 1194 590 1191 C597 1135 606 1080 616 1041 C625 1036 647 1033 669 1033 C695 1033 722 1037 730 1045 C733 1051 737 1115 737 1171 L737 1303 C666 1324 586 1338 505 1338 C298 1338 97 1248 97 983 C97 865 137 782 201 731 C279 668 466 594 569 528 C643 481 685 429 685 341 L685 341 Z M354 -187 C385 -229 399 -261 399 -294 C399 -332 381 -371 350 -424 L392 -478 C476 -433 581 -312 581 -198 C581 -107 514 -75 466 -75 C405 -75 354 -126 354 -187 L354 -187 Z "/>
<glyph glyph-name="scedilla" unicode="ş" horiz-adv-x="801" d="M576 293 C576 168 410 125 315 125 C284 125 250 128 218 135 C211 196 201 258 191 302 C182 307 160 310 138 310 C112 310 85 306 77 298 C74 292 70 228 70 172 L70 27 C137 -2 218 -20 306 -20 C512 -20 731 88 731 313 C731 654 227 569 227 798 C227 894 317 919 403 919 C448 919 497 913 540 906 C545 867 552 831 559 803 C568 798 590 795 612 795 C638 795 665 799 673 807 C676 813 680 877 680 933 L680 1017 C609 1040 517 1058 426 1058 C248 1058 74 992 74 785 C74 437 576 512 576 293 L576 293 Z M287 -187 C318 -229 332 -261 332 -294 C332 -332 314 -371 283 -424 L325 -478 C409 -433 514 -312 514 -198 C514 -107 447 -75 399 -75 C338 -75 287 -126 287 -187 L287 -187 Z "/>
<glyph glyph-name="Scaron" unicode="Š" horiz-adv-x="919" d="M456 1576 C363 1662 271 1717 160 1772 C143 1758 121 1697 117 1657 C243 1590 351 1507 455 1408 L463 1408 C568 1508 674 1590 801 1657 C797 1697 775 1758 758 1772 C647 1718 554 1661 461 1576 L456 1576 Z M685 341 C685 177 538 124 383 124 C334 124 284 129 238 137 C232 200 221 263 211 308 C202 313 180 316 158 316 C132 316 105 312 97 304 C94 298 90 234 90 178 L90 38 C170 0 264 -20 359 -20 C593 -20 829 105 829 375 C829 523 758 590 664 650 C535 732 364 797 295 857 C259 889 238 930 238 995 C238 1155 369 1196 505 1196 C533 1196 562 1194 590 1191 C597 1135 606 1080 616 1041 C625 1036 647 1033 669 1033 C695 1033 722 1037 730 1045 C733 1051 737 1115 737 1171 L737 1303 C666 1324 586 1338 505 1338 C298 1338 97 1248 97 983 C97 865 137 782 201 731 C279 668 466 594 569 528 C643 481 685 429 685 341 L685 341 Z "/>
<glyph glyph-name="scaron" unicode="š" horiz-adv-x="801" d="M419 1358 C326 1444 234 1499 123 1554 C106 1540 84 1479 80 1439 C206 1372 314 1289 418 1190 L426 1190 C531 1290 637 1372 764 1439 C760 1479 738 1540 721 1554 C610 1500 517 1443 424 1358 L419 1358 Z M576 293 C576 168 410 125 315 125 C284 125 250 128 218 135 C211 196 201 258 191 302 C182 307 160 310 138 310 C112 310 85 306 77 298 C74 292 70 228 70 172 L70 27 C137 -2 218 -20 306 -20 C512 -20 731 88 731 313 C731 654 227 569 227 798 C227 894 317 919 403 919 C448 919 497 913 540 906 C545 867 552 831 559 803 C568 798 590 795 612 795 C638 795 665 799 673 807 C676 813 680 877 680 933 L680 1017 C609 1040 517 1058 426 1058 C248 1058 74 992 74 785 C74 437 576 512 576 293 L576 293 Z "/>
<glyph glyph-name="Tcedilla" unicode="Ţ" horiz-adv-x="1060" d="M1015 1318 L45 1318 L45 1171 C45 1115 49 1051 52 1045 C60 1037 87 1033 113 1033 C135 1033 157 1036 166 1041 C174 1076 182 1124 189 1174 L453 1174 L453 141 C411 135 372 128 342 121 C336 112 333 90 333 69 C333 43 338 16 345 8 C352 4 415 0 472 0 L588 0 C645 0 708 4 715 8 C722 16 727 43 727 69 C727 90 724 112 718 121 C688 128 648 135 607 141 L607 1174 L870 1174 C877 1124 885 1076 894 1041 C903 1036 925 1033 947 1033 C973 1033 1000 1037 1008 1045 C1011 1051 1015 1115 1015 1171 L1015 1318 Z M416 -187 C447 -229 461 -261 461 -294 C461 -332 443 -371 412 -424 L454 -478 C538 -433 643 -312 643 -198 C643 -107 576 -75 528 -75 C467 -75 416 -126 416 -187 L416 -187 Z "/>
<glyph glyph-name="tcedilla" unicode="ţ" horiz-adv-x="754" d="M734 172 C734 228 730 292 727 298 C719 306 692 310 666 310 C644 310 622 307 613 302 C603 259 592 198 586 137 C555 128 525 123 497 123 C391 123 310 195 310 384 L310 894 L598 894 L598 1038 L310 1038 L310 1251 L300 1251 L155 1224 L155 1038 L40 1038 L40 894 L155 894 L155 384 C155 93 298 -20 478 -20 C559 -20 647 3 734 43 L734 172 Z "/>
<glyph glyph-name="Tcaron" unicode="Ť" horiz-adv-x="1060" d="M527 1576 C434 1662 342 1717 231 1772 C214 1758 192 1697 188 1657 C314 1590 422 1507 526 1408 L534 1408 C639 1508 745 1590 872 1657 C868 1697 846 1758 829 1772 C718 1718 625 1661 532 1576 L527 1576 Z M1015 1318 L45 1318 L45 1171 C45 1115 49 1051 52 1045 C60 1037 87 1033 113 1033 C135 1033 157 1036 166 1041 C174 1076 182 1124 189 1174 L453 1174 L453 141 C411 135 372 128 342 121 C336 112 333 90 333 69 C333 43 338 16 345 8 C352 4 415 0 472 0 L588 0 C645 0 708 4 715 8 C722 16 727 43 727 69 C727 90 724 112 718 121 C688 128 648 135 607 141 L607 1174 L870 1174 C877 1124 885 1076 894 1041 C903 1036 925 1033 947 1033 C973 1033 1000 1037 1008 1045 C1011 1051 1015 1115 1015 1171 L1015 1318 Z "/>
<glyph glyph-name="tcaron" unicode="ť" horiz-adv-x="1145" d="M838 1336 C869 1294 883 1262 883 1229 C883 1191 865 1152 834 1099 L876 1045 C960 1090 1065 1211 1065 1325 C1065 1416 998 1448 950 1448 C889 1448 838 1397 838 1336 L838 1336 Z M734 172 C734 228 730 292 727 298 C719 306 692 310 666 310 C644 310 622 307 613 302 C603 259 592 198 586 137 C555 128 525 123 497 123 C391 123 310 195 310 384 L310 894 L598 894 L598 1038 L310 1038 L310 1251 L300 1251 L155 1224 L155 1038 L40 1038 L40 894 L155 894 L155 384 C155 93 298 -20 478 -20 C559 -20 647 3 734 43 L734 172 Z "/>
<glyph glyph-name="Tbar" unicode="Ŧ" horiz-adv-x="1060" d="M453 755 L247 755 L247 611 L453 611 L453 141 C411 135 372 128 342 121 C336 112 333 90 333 69 C333 43 338 16 345 8 C352 4 415 0 472 0 L588 0 C645 0 708 4 715 8 C722 16 727 43 727 69 C727 90 724 112 718 121 C688 128 648 135 607 141 L607 611 L805 611 L805 755 L607 755 L607 1174 L870 1174 C877 1124 885 1076 894 1041 C903 1036 925 1033 947 1033 C973 1033 1000 1037 1008 1045 C1011 1051 1015 1115 1015 1171 L1015 1318 L45 1318 L45 1171 C45 1115 49 1051 52 1045 C60 1037 87 1033 113 1033 C135 1033 157 1036 166 1041 C174 1076 182 1124 189 1174 L453 1174 L453 755 Z "/>
<glyph glyph-name="tbar" unicode="ŧ" d="M734 172 C734 228 730 292 727 298 C719 306 692 310 666 310 C644 310 622 307 613 302 C603 259 592 198 586 137 C555 128 525 123 497 123 C391 123 310 195 310 384 L310 611 L598 611 L598 755 L310 755 L310 894 L598 894 L598 1038 L310 1038 L310 1251 L300 1251 L155 1224 L155 1038 L40 1038 L40 894 L155 894 L155 755 L40 755 L40 611 L155 611 L155 384 C155 93 298 -20 478 -20 C559 -20 647 3 734 43 L734 172 Z "/>
<glyph glyph-name="Utilde" unicode="Ũ" horiz-adv-x="1291" d="M850 1633 C850 1579 805 1555 760 1555 C673 1555 630 1639 529 1639 C416 1639 314 1562 300 1445 C340 1408 394 1411 441 1418 L441 1424 C441 1478 484 1502 532 1502 C615 1502 636 1418 758 1418 C875 1418 977 1495 991 1612 C951 1649 897 1646 850 1639 L850 1633 Z M174 1318 C117 1318 54 1314 47 1310 C40 1302 35 1275 35 1249 C35 1228 38 1206 44 1197 C74 1190 113 1182 155 1176 L155 490 C155 38 420 -20 643 -20 C869 -20 1136 40 1136 490 L1136 1176 C1177 1182 1217 1190 1247 1197 C1253 1206 1256 1228 1256 1249 C1256 1275 1251 1302 1244 1310 C1237 1314 1174 1318 1117 1318 L1001 1318 C944 1318 881 1314 874 1310 C867 1302 862 1275 862 1249 C862 1228 865 1206 871 1197 C901 1190 940 1182 982 1176 L982 540 C982 153 819 122 642 122 C482 122 309 147 309 540 L309 1176 C350 1182 390 1190 420 1197 C426 1206 429 1228 429 1249 C429 1275 424 1302 417 1310 C410 1314 347 1318 290 1318 L174 1318 Z "/>
<glyph glyph-name="utilde" unicode="ũ" horiz-adv-x="1162" d="M785 1442 C785 1388 740 1364 695 1364 C608 1364 565 1448 464 1448 C351 1448 249 1371 235 1254 C275 1217 329 1220 376 1227 L376 1233 C376 1287 419 1311 467 1311 C550 1311 571 1227 693 1227 C810 1227 912 1304 926 1421 C886 1458 832 1455 785 1448 L785 1442 Z M960 1058 L954 1058 C936 1058 789 1054 693 1023 C689 1015 686 997 686 978 C686 948 691 913 697 911 C702 907 754 905 805 904 L805 222 C726 174 627 123 531 123 C406 123 304 182 304 383 L304 1058 L298 1058 C280 1058 133 1054 37 1023 C33 1015 30 997 30 978 C30 948 35 913 41 911 C46 907 98 905 149 904 L149 374 C149 81 319 -20 516 -20 C616 -20 746 42 831 99 L868 -20 L874 -20 C892 -20 1039 -16 1135 15 C1139 23 1142 41 1142 60 C1142 90 1137 125 1131 127 C1123 132 1013 134 960 134 L960 1058 Z "/>
<glyph glyph-name="Umacron" unicode="Ū" horiz-adv-x="1291" d="M946 1554 L344 1554 L344 1410 L946 1410 L946 1554 Z M174 1318 C117 1318 54 1314 47 1310 C40 1302 35 1275 35 1249 C35 1228 38 1206 44 1197 C74 1190 113 1182 155 1176 L155 490 C155 38 420 -20 643 -20 C869 -20 1136 40 1136 490 L1136 1176 C1177 1182 1217 1190 1247 1197 C1253 1206 1256 1228 1256 1249 C1256 1275 1251 1302 1244 1310 C1237 1314 1174 1318 1117 1318 L1001 1318 C944 1318 881 1314 874 1310 C867 1302 862 1275 862 1249 C862 1228 865 1206 871 1197 C901 1190 940 1182 982 1176 L982 540 C982 153 819 122 642 122 C482 122 309 147 309 540 L309 1176 C350 1182 390 1190 420 1197 C426 1206 429 1228 429 1249 C429 1275 424 1302 417 1310 C410 1314 347 1318 290 1318 L174 1318 Z "/>
<glyph glyph-name="umacron" unicode="ū" horiz-adv-x="1162" d="M882 1338 L280 1338 L280 1194 L882 1194 L882 1338 Z M960 1058 L954 1058 C936 1058 789 1054 693 1023 C689 1015 686 997 686 978 C686 948 691 913 697 911 C702 907 754 905 805 904 L805 222 C726 174 627 123 531 123 C406 123 304 182 304 383 L304 1058 L298 1058 C280 1058 133 1054 37 1023 C33 1015 30 997 30 978 C30 948 35 913 41 911 C46 907 98 905 149 904 L149 374 C149 81 319 -20 516 -20 C616 -20 746 42 831 99 L868 -20 L874 -20 C892 -20 1039 -16 1135 15 C1139 23 1142 41 1142 60 C1142 90 1137 125 1131 127 C1123 132 1013 134 960 134 L960 1058 Z "/>
<glyph glyph-name="Uring" unicode="Ů" horiz-adv-x="1291" d="M445 1607 C445 1500 536 1408 645 1408 C753 1408 846 1500 846 1607 C846 1714 753 1804 645 1804 C536 1804 445 1714 445 1607 L445 1607 Z M564 1607 C564 1650 601 1688 645 1688 C689 1688 727 1650 727 1607 C727 1563 689 1526 645 1526 C601 1526 564 1563 564 1607 L564 1607 Z M174 1318 C117 1318 54 1314 47 1310 C40 1302 35 1275 35 1249 C35 1228 38 1206 44 1197 C74 1190 113 1182 155 1176 L155 490 C155 38 420 -20 643 -20 C869 -20 1136 40 1136 490 L1136 1176 C1177 1182 1217 1190 1247 1197 C1253 1206 1256 1228 1256 1249 C1256 1275 1251 1302 1244 1310 C1237 1314 1174 1318 1117 1318 L1001 1318 C944 1318 881 1314 874 1310 C867 1302 862 1275 862 1249 C862 1228 865 1206 871 1197 C901 1190 940 1182 982 1176 L982 540 C982 153 819 122 642 122 C482 122 309 147 309 540 L309 1176 C350 1182 390 1190 420 1197 C426 1206 429 1228 429 1249 C429 1275 424 1302 417 1310 C410 1314 347 1318 290 1318 L174 1318 Z "/>
<glyph glyph-name="uring" unicode="ů" horiz-adv-x="1162" d="M380 1411 C380 1304 471 1212 580 1212 C688 1212 781 1304 781 1411 C781 1518 688 1608 580 1608 C471 1608 380 1518 380 1411 L380 1411 Z M499 1411 C499 1454 536 1492 580 1492 C624 1492 662 1454 662 1411 C662 1367 624 1330 580 1330 C536 1330 499 1367 499 1411 L499 1411 Z M960 1058 L954 1058 C936 1058 789 1054 693 1023 C689 1015 686 997 686 978 C686 948 691 913 697 911 C702 907 754 905 805 904 L805 222 C726 174 627 123 531 123 C406 123 304 182 304 383 L304 1058 L298 1058 C280 1058 133 1054 37 1023 C33 1015 30 997 30 978 C30 948 35 913 41 911 C46 907 98 905 149 904 L149 374 C149 81 319 -20 516 -20 C616 -20 746 42 831 99 L868 -20 L874 -20 C892 -20 1039 -16 1135 15 C1139 23 1142 41 1142 60 C1142 90 1137 125 1131 127 C1123 132 1013 134 960 134 L960 1058 Z "/>
<glyph glyph-name="Uhungarumlaut" unicode="Ű" horiz-adv-x="1291" d="M606 1865 C568 1800 473 1649 312 1503 C329 1467 369 1416 388 1408 C546 1495 707 1701 729 1773 C705 1822 653 1856 606 1865 L606 1865 Z M967 1865 C928 1800 833 1649 673 1503 C689 1467 729 1416 748 1408 C907 1495 1068 1701 1090 1773 C1065 1822 1013 1856 967 1865 L967 1865 Z M174 1318 C117 1318 54 1314 47 1310 C40 1302 35 1275 35 1249 C35 1228 38 1206 44 1197 C74 1190 113 1182 155 1176 L155 490 C155 38 420 -20 643 -20 C869 -20 1136 40 1136 490 L1136 1176 C1177 1182 1217 1190 1247 1197 C1253 1206 1256 1228 1256 1249 C1256 1275 1251 1302 1244 1310 C1237 1314 1174 1318 1117 1318 L1001 1318 C944 1318 881 1314 874 1310 C867 1302 862 1275 862 1249 C862 1228 865 1206 871 1197 C901 1190 940 1182 982 1176 L982 540 C982 153 819 122 642 122 C482 122 309 147 309 540 L309 1176 C350 1182 390 1190 420 1197 C426 1206 429 1228 429 1249 C429 1275 424 1302 417 1310 C410 1314 347 1318 290 1318 L174 1318 Z "/>
<glyph glyph-name="uhungarumlaut" unicode="ű" horiz-adv-x="1162" d="M486 1647 C448 1582 353 1431 192 1285 C209 1249 249 1198 268 1190 C426 1277 587 1483 609 1555 C585 1604 533 1638 486 1647 L486 1647 Z M847 1647 C808 1582 713 1431 553 1285 C569 1249 609 1198 628 1190 C787 1277 948 1483 970 1555 C945 1604 893 1638 847 1647 L847 1647 Z M960 1058 L954 1058 C936 1058 789 1054 693 1023 C689 1015 686 997 686 978 C686 948 691 913 697 911 C702 907 754 905 805 904 L805 222 C726 174 627 123 531 123 C406 123 304 182 304 383 L304 1058 L298 1058 C280 1058 133 1054 37 1023 C33 1015 30 997 30 978 C30 948 35 913 41 911 C46 907 98 905 149 904 L149 374 C149 81 319 -20 516 -20 C616 -20 746 42 831 99 L868 -20 L874 -20 C892 -20 1039 -16 1135 15 C1139 23 1142 41 1142 60 C1142 90 1137 125 1131 127 C1123 132 1013 134 960 134 L960 1058 Z "/>
<glyph glyph-name="Uogonek" unicode="Ų" horiz-adv-x="1291" d="M1244 1310 C1237 1314 1174 1318 1117 1318 L1001 1318 C944 1318 881 1314 874 1310 C867 1302 862 1275 862 1249 C862 1228 865 1206 871 1197 C901 1190 940 1182 982 1176 L982 540 C982 153 819 122 642 122 C482 122 309 147 309 540 L309 1176 C350 1182 390 1190 420 1197 C426 1206 429 1228 429 1249 C429 1275 424 1302 417 1310 C410 1314 347 1318 290 1318 L174 1318 C117 1318 54 1314 47 1310 C40 1302 35 1275 35 1249 C35 1228 38 1206 44 1197 C74 1190 113 1182 155 1176 L155 490 C155 57 398 -14 615 -20 C552 -79 508 -151 508 -231 C508 -371 619 -478 749 -478 C799 -478 853 -464 905 -427 L905 -296 L898 -291 C854 -313 795 -337 746 -337 C695 -337 655 -311 655 -233 C655 -163 697 -62 827 -1 C993 40 1136 160 1136 490 L1136 1176 C1177 1182 1217 1190 1247 1197 C1253 1206 1256 1228 1256 1249 C1256 1275 1251 1302 1244 1310 L1244 1310 Z "/>
<glyph glyph-name="uogonek" unicode="ų" horiz-adv-x="1162" d="M1158 -296 L1151 -291 C1107 -313 1048 -337 999 -337 C948 -337 908 -311 908 -233 C908 -163 952 -60 1083 2 C1101 5 1119 10 1135 15 C1139 23 1142 41 1142 60 C1142 90 1137 125 1131 127 C1123 132 1013 134 960 134 L960 1058 L954 1058 C936 1058 789 1054 693 1023 C689 1015 686 997 686 978 C686 948 691 913 697 911 C702 907 754 905 805 904 L805 222 C726 174 627 123 531 123 C406 123 304 182 304 383 L304 1058 L298 1058 C280 1058 133 1054 37 1023 C33 1015 30 997 30 978 C30 948 35 913 41 911 C46 907 98 905 149 904 L149 374 C149 81 319 -20 516 -20 C616 -20 746 42 831 99 L868 -20 C805 -79 761 -151 761 -231 C761 -371 872 -478 1002 -478 C1052 -478 1106 -464 1158 -427 L1158 -296 Z "/>
<glyph glyph-name="Wcircumflex" unicode="Ŵ" horiz-adv-x="1866" d="M935 1604 C1028 1519 1121 1462 1232 1408 C1249 1422 1271 1483 1275 1523 C1148 1590 1042 1672 937 1772 L929 1772 C825 1673 717 1590 591 1523 C595 1483 617 1422 634 1408 C745 1463 837 1518 930 1604 L935 1604 Z M1310 272 L1011 1318 L855 1318 L555 272 L297 1176 C341 1182 383 1189 415 1197 C421 1206 424 1228 424 1249 C424 1275 419 1302 412 1310 C405 1314 342 1318 285 1318 L169 1318 C112 1318 49 1314 42 1310 C35 1302 30 1275 30 1249 C30 1228 33 1206 39 1197 C67 1190 102 1183 140 1178 L478 0 L634 0 L933 1045 L1232 0 L1388 0 L1726 1178 C1764 1183 1799 1190 1827 1197 C1833 1206 1836 1228 1836 1249 C1836 1275 1831 1302 1824 1310 C1817 1314 1754 1318 1697 1318 L1581 1318 C1524 1318 1461 1314 1454 1310 C1447 1302 1442 1275 1442 1249 C1442 1228 1445 1206 1451 1197 C1483 1189 1524 1182 1568 1176 L1310 272 Z "/>
<glyph glyph-name="wcircumflex" unicode="ŵ" horiz-adv-x="1719" d="M861 1386 C954 1301 1047 1244 1158 1190 C1175 1204 1197 1265 1201 1305 C1074 1372 968 1454 863 1554 L855 1554 C751 1455 643 1372 517 1305 C521 1265 543 1204 560 1190 C671 1245 763 1300 856 1386 L861 1386 Z M1434 1038 C1377 1038 1314 1034 1307 1030 C1300 1022 1295 995 1295 969 C1295 948 1298 926 1304 917 C1334 910 1374 902 1417 896 L1187 171 L930 1038 L788 1038 L531 171 L301 896 C344 902 384 909 415 917 C421 926 424 948 424 969 C424 995 419 1022 412 1030 C405 1034 342 1038 285 1038 L169 1038 C112 1038 49 1034 42 1030 C35 1022 30 995 30 969 C30 948 33 926 39 917 C69 910 109 902 151 896 L435 0 L628 0 L859 790 L1090 0 L1282 0 L1566 896 C1608 902 1649 909 1680 917 C1686 926 1689 948 1689 969 C1689 995 1684 1022 1677 1030 C1670 1034 1607 1038 1550 1038 L1434 1038 Z "/>
<glyph glyph-name="Ycircumflex" unicode="Ŷ" horiz-adv-x="1166" d="M587 1604 C680 1519 773 1462 884 1408 C901 1422 923 1483 927 1523 C800 1590 694 1672 589 1772 L581 1772 C477 1673 369 1590 243 1523 C247 1483 269 1422 286 1408 C397 1463 489 1518 582 1604 L587 1604 Z M641 0 C698 0 761 4 768 8 C775 16 780 43 780 69 C780 90 777 112 771 121 C741 128 701 135 660 141 L660 492 L992 1173 C1042 1180 1091 1188 1127 1197 C1133 1206 1136 1228 1136 1249 C1136 1275 1131 1302 1124 1310 C1117 1314 1054 1318 997 1318 L881 1318 C824 1318 761 1314 754 1310 C747 1302 742 1275 742 1249 C742 1228 745 1206 751 1197 C776 1191 807 1185 841 1180 L583 650 L324 1180 C358 1185 390 1191 415 1197 C421 1206 424 1228 424 1249 C424 1275 419 1302 412 1310 C405 1314 342 1318 285 1318 L169 1318 C112 1318 49 1314 42 1310 C35 1302 30 1275 30 1249 C30 1228 33 1206 39 1197 C75 1188 123 1180 173 1173 L506 492 L506 141 C464 135 425 128 395 121 C389 112 386 90 386 69 C386 43 391 16 398 8 C405 4 468 0 525 0 L641 0 Z "/>
<glyph glyph-name="ycircumflex" unicode="ŷ" horiz-adv-x="1052" d="M480 1386 C573 1301 666 1244 777 1190 C794 1204 816 1265 820 1305 C693 1372 587 1454 482 1554 L474 1554 C370 1455 262 1372 136 1305 C140 1265 162 1204 179 1190 C290 1245 382 1300 475 1386 L480 1386 Z M941 1038 L762 1038 C705 1038 642 1034 635 1030 C628 1022 623 995 623 969 C623 948 626 926 632 917 C660 910 695 903 733 898 L480 165 L228 895 C273 901 315 909 348 917 C354 926 357 948 357 969 C357 995 352 1022 345 1030 C338 1034 275 1038 218 1038 L19 1038 L20 1035 C-4 1034 -21 1032 -25 1030 C-32 1022 -37 995 -37 969 C-37 948 -34 926 -28 917 C-1 911 31 904 67 899 L376 0 L424 0 L347 -223 C318 -304 247 -335 177 -335 C148 -335 118 -330 88 -320 C81 -260 71 -199 61 -156 C52 -151 30 -148 8 -148 C-18 -148 -45 -152 -53 -160 C-56 -166 -60 -230 -60 -286 L-60 -415 C26 -454 114 -478 196 -478 C333 -478 440 -413 496 -252 L892 896 C935 902 976 909 1008 917 C1014 926 1017 948 1017 969 C1017 995 1012 1022 1005 1030 C1000 1032 974 1035 940 1036 L941 1038 Z "/>
<glyph glyph-name="Ydieresis" unicode="Ÿ" horiz-adv-x="1166" d="M289 1520 C289 1459 340 1408 402 1408 C464 1408 516 1459 516 1520 C516 1581 464 1632 402 1632 C340 1632 289 1581 289 1520 L289 1520 Z M655 1520 C655 1459 706 1408 768 1408 C830 1408 882 1459 882 1520 C882 1581 830 1632 768 1632 C706 1632 655 1581 655 1520 L655 1520 Z M641 0 C698 0 761 4 768 8 C775 16 780 43 780 69 C780 90 777 112 771 121 C741 128 701 135 660 141 L660 492 L992 1173 C1042 1180 1091 1188 1127 1197 C1133 1206 1136 1228 1136 1249 C1136 1275 1131 1302 1124 1310 C1117 1314 1054 1318 997 1318 L881 1318 C824 1318 761 1314 754 1310 C747 1302 742 1275 742 1249 C742 1228 745 1206 751 1197 C776 1191 807 1185 841 1180 L583 650 L324 1180 C358 1185 390 1191 415 1197 C421 1206 424 1228 424 1249 C424 1275 419 1302 412 1310 C405 1314 342 1318 285 1318 L169 1318 C112 1318 49 1314 42 1310 C35 1302 30 1275 30 1249 C30 1228 33 1206 39 1197 C75 1188 123 1180 173 1173 L506 492 L506 141 C464 135 425 128 395 121 C389 112 386 90 386 69 C386 43 391 16 398 8 C405 4 468 0 525 0 L641 0 Z "/>
<glyph glyph-name="Zacute" unicode="Ź" horiz-adv-x="960" d="M637 1776 C581 1727 443 1612 246 1523 C250 1483 272 1422 288 1408 C466 1443 683 1588 725 1651 C717 1705 679 1754 637 1776 L637 1776 Z M884 1313 L880 1318 L84 1318 L84 1171 C84 1115 88 1051 91 1045 C99 1037 126 1033 152 1033 C174 1033 196 1036 205 1041 C213 1076 221 1124 228 1174 L658 1174 L65 5 L69 0 L895 0 L895 178 C895 234 891 298 888 304 C880 312 853 316 827 316 C805 316 783 313 774 308 C764 265 753 204 747 144 L288 144 L884 1313 Z "/>
<glyph glyph-name="zacute" unicode="ź" horiz-adv-x="911" d="M646 1558 C590 1509 452 1394 255 1305 C259 1265 281 1204 297 1190 C475 1225 692 1370 734 1433 C726 1487 688 1536 646 1558 L646 1558 Z M50 5 L55 0 L858 0 L858 144 C858 200 854 264 851 270 C843 278 816 282 790 282 C768 282 746 279 737 274 C729 239 720 192 714 144 L315 144 L861 1032 L856 1038 L66 1038 L66 894 C66 838 70 774 73 768 C81 760 108 756 134 756 C156 756 178 759 187 764 C195 799 203 845 210 894 L596 894 L50 5 Z "/>
<glyph glyph-name="Zdotaccent" unicode="Ż" horiz-adv-x="960" d="M378 1520 C378 1459 429 1408 491 1408 C553 1408 605 1459 605 1520 C605 1581 553 1632 491 1632 C429 1632 378 1581 378 1520 L378 1520 Z M884 1313 L880 1318 L84 1318 L84 1171 C84 1115 88 1051 91 1045 C99 1037 126 1033 152 1033 C174 1033 196 1036 205 1041 C213 1076 221 1124 228 1174 L658 1174 L65 5 L69 0 L895 0 L895 178 C895 234 891 298 888 304 C880 312 853 316 827 316 C805 316 783 313 774 308 C764 265 753 204 747 144 L288 144 L884 1313 Z "/>
<glyph glyph-name="zdotaccent" unicode="ż" horiz-adv-x="911" d="M355 1302 C355 1241 406 1190 468 1190 C530 1190 582 1241 582 1302 C582 1363 530 1414 468 1414 C406 1414 355 1363 355 1302 L355 1302 Z M50 5 L55 0 L858 0 L858 144 C858 200 854 264 851 270 C843 278 816 282 790 282 C768 282 746 279 737 274 C729 239 720 192 714 144 L315 144 L861 1032 L856 1038 L66 1038 L66 894 C66 838 70 774 73 768 C81 760 108 756 134 756 C156 756 178 759 187 764 C195 799 203 845 210 894 L596 894 L50 5 Z "/>
<glyph glyph-name="Zcaron" unicode="Ž" horiz-adv-x="960" d="M489 1576 C396 1662 304 1717 193 1772 C176 1758 154 1697 150 1657 C276 1590 384 1507 488 1408 L496 1408 C601 1508 707 1590 834 1657 C830 1697 808 1758 791 1772 C680 1718 587 1661 494 1576 L489 1576 Z M884 1313 L880 1318 L84 1318 L84 1171 C84 1115 88 1051 91 1045 C99 1037 126 1033 152 1033 C174 1033 196 1036 205 1041 C213 1076 221 1124 228 1174 L658 1174 L65 5 L69 0 L895 0 L895 178 C895 234 891 298 888 304 C880 312 853 316 827 316 C805 316 783 313 774 308 C764 265 753 204 747 144 L288 144 L884 1313 Z "/>
<glyph glyph-name="zcaron" unicode="ž" horiz-adv-x="911" d="M476 1358 C383 1444 291 1499 180 1554 C163 1540 141 1479 137 1439 C263 1372 371 1289 475 1190 L483 1190 C588 1290 694 1372 821 1439 C817 1479 795 1540 778 1554 C667 1500 574 1443 481 1358 L476 1358 Z M50 5 L55 0 L858 0 L858 144 C858 200 854 264 851 270 C843 278 816 282 790 282 C768 282 746 279 737 274 C729 239 720 192 714 144 L315 144 L861 1032 L856 1038 L66 1038 L66 894 C66 838 70 774 73 768 C81 760 108 756 134 756 C156 756 178 759 187 764 C195 799 203 845 210 894 L596 894 L50 5 Z "/>
<glyph glyph-name="florin" unicode="ƒ" horiz-adv-x="627" d="M596 1297 C602 1226 614 1184 626 1133 C635 1128 657 1125 679 1125 C705 1125 732 1129 740 1137 C743 1143 747 1191 747 1404 C662 1431 579 1448 504 1448 C325 1448 194 1349 194 1042 L194 1038 L26 1038 L26 895 L194 895 L194 -74 C194 -263 113 -335 7 -335 C-21 -335 -51 -330 -82 -320 C-88 -260 -99 -199 -109 -156 C-118 -151 -140 -148 -162 -148 C-188 -148 -215 -152 -223 -160 C-226 -166 -230 -230 -230 -286 L-230 -415 C-143 -455 -55 -478 26 -478 C206 -478 349 -365 349 -74 L349 895 L584 895 L584 1038 L349 1038 L349 1042 C349 1243 417 1305 522 1305 C545 1305 570 1302 596 1297 L596 1297 Z "/>
<glyph glyph-name="lbar" unicode="ƚ" horiz-adv-x="587" d="M207 939 L10 868 L53 753 L207 809 L207 148 C177 132 134 121 76 121 C70 111 67 89 67 69 C67 43 72 16 79 8 C86 4 149 0 206 0 L342 0 C399 0 462 4 469 8 C476 16 481 43 481 69 C481 90 478 112 472 121 C442 128 402 135 361 141 L361 865 L577 943 L534 1058 L361 995 L361 1448 L355 1448 C337 1448 190 1444 94 1413 C90 1405 87 1387 87 1368 C87 1338 92 1303 98 1301 C103 1297 156 1295 207 1294 L207 939 Z "/>
<glyph glyph-name="AEacute" unicode="Ǽ" horiz-adv-x="1421" d="M1026 1706 C970 1657 832 1542 635 1453 C639 1413 661 1352 677 1338 C855 1373 1072 1518 1114 1581 C1106 1635 1068 1684 1026 1706 L1026 1706 Z M213 0 C270 0 333 4 340 8 C347 16 352 43 352 69 C352 90 349 112 343 121 C313 128 274 135 233 141 L291 307 L873 307 L930 141 C889 135 851 128 821 121 C815 112 812 90 812 69 C812 43 817 16 824 8 C831 4 894 0 951 0 L1376 0 L1376 144 C1376 200 1372 264 1369 270 C1361 278 1334 282 1308 282 C1286 282 1264 279 1255 274 C1247 239 1238 192 1232 144 L1089 144 L936 587 L1128 587 C1134 538 1143 492 1151 457 C1160 452 1182 449 1204 449 C1230 449 1257 453 1265 461 C1268 467 1272 531 1272 587 L1272 731 C1272 787 1268 851 1265 857 C1257 865 1230 869 1204 869 C1182 869 1160 866 1151 861 C1143 826 1134 779 1128 731 L887 731 L734 1174 L1232 1174 C1238 1125 1247 1079 1255 1044 C1264 1039 1286 1036 1308 1036 C1334 1036 1361 1040 1369 1048 C1372 1054 1376 1118 1376 1174 L1376 1318 L478 1318 L73 140 C33 135 -4 128 -33 121 C-39 112 -42 90 -42 69 C-42 43 -37 16 -30 8 C-23 4 40 0 97 0 L213 0 Z M824 451 L340 451 L582 1152 L824 451 Z "/>
<glyph glyph-name="Oslashacute" unicode="Ǿ" horiz-adv-x="1383" d="M843 1838 C787 1789 649 1674 452 1585 C456 1545 478 1484 494 1470 C672 1505 889 1650 931 1713 C923 1767 885 1816 843 1838 L843 1838 Z M342 -168 L486 -221 L563 -8 C603 -16 644 -20 687 -20 C1052 -20 1303 277 1303 660 C1303 914 1197 1129 1019 1245 L1074 1395 L930 1448 L880 1311 C823 1328 763 1338 698 1338 C333 1338 80 1043 80 660 C80 380 208 148 418 42 L342 -168 Z M234 672 C234 970 405 1194 694 1194 C743 1194 789 1187 830 1174 L469 183 C317 272 234 455 234 672 L234 672 Z M1149 648 C1149 347 987 124 699 124 C669 124 641 126 614 131 L967 1103 C1086 1006 1149 841 1149 648 L1149 648 Z "/>
<glyph glyph-name="oslashacute" unicode="ǿ" horiz-adv-x="1112" d="M358 1190 C536 1225 753 1370 795 1433 C787 1487 749 1536 707 1558 C651 1509 513 1394 316 1305 C320 1265 342 1204 358 1190 L358 1190 Z M896 1187 L753 1241 L681 1042 C643 1053 602 1058 560 1058 C278 1058 80 817 80 516 C80 313 169 135 317 44 L240 -168 L384 -221 L460 -11 C490 -17 520 -20 552 -20 C836 -20 1032 220 1032 521 C1032 712 953 882 820 977 L896 1187 Z M235 524 C235 744 348 914 556 914 C583 914 608 911 631 906 L370 188 C280 260 235 385 235 524 L235 524 Z M561 124 C544 124 527 125 511 128 L767 831 C840 758 877 642 877 513 C877 291 769 124 561 124 L561 124 Z "/>
<glyph glyph-name="uni023D" unicode="Ƚ" horiz-adv-x="968" d="M924 0 L924 144 C924 200 920 264 917 270 C909 278 882 282 856 282 C834 282 812 279 803 274 C795 239 786 192 780 144 L305 144 L305 855 L534 938 L487 1065 L305 999 L305 1175 C350 1181 392 1189 425 1197 C431 1206 434 1228 434 1249 C434 1275 429 1302 422 1310 C415 1314 352 1318 295 1318 L179 1318 C122 1318 59 1314 52 1310 C45 1302 40 1275 40 1249 C40 1228 43 1206 49 1197 C77 1190 112 1183 150 1178 L150 943 L-50 871 L-3 744 L150 799 L150 140 C112 134 77 127 49 121 C43 112 40 90 40 69 C40 43 45 16 52 8 C59 4 122 0 179 0 L924 0 Z "/>
<glyph glyph-name="circumflex" unicode="ˆ" horiz-adv-x="892" d="M448 1386 C541 1301 634 1244 745 1190 C762 1204 784 1265 788 1305 C661 1372 555 1454 450 1554 L442 1554 C338 1455 230 1372 104 1305 C108 1265 130 1204 147 1190 C258 1245 350 1300 443 1386 L448 1386 Z "/>
<glyph glyph-name="caron" unicode="ˇ" horiz-adv-x="892" d="M443 1358 C350 1444 258 1499 147 1554 C130 1540 108 1479 104 1439 C230 1372 338 1289 442 1190 L450 1190 C555 1290 661 1372 788 1439 C784 1479 762 1540 745 1554 C634 1500 541 1443 448 1358 L443 1358 Z "/>
<glyph glyph-name="breve" unicode="˘" horiz-adv-x="918" d="M195 1580 C161 1560 121 1505 120 1468 C202 1370 335 1326 463 1326 C587 1326 723 1373 798 1468 C797 1505 757 1560 723 1580 C662 1507 569 1466 454 1466 C340 1466 251 1506 195 1580 L195 1580 Z "/>
<glyph glyph-name="dotaccent" unicode="˙" horiz-adv-x="347" d="M60 1302 C60 1241 111 1190 173 1190 C235 1190 287 1241 287 1302 C287 1363 235 1414 173 1414 C111 1414 60 1363 60 1302 L60 1302 Z "/>
<glyph glyph-name="ring" unicode="˚" horiz-adv-x="603" d="M101 1411 C101 1304 192 1212 301 1212 C409 1212 502 1304 502 1411 C502 1518 409 1608 301 1608 C192 1608 101 1518 101 1411 L101 1411 Z M220 1411 C220 1454 257 1492 301 1492 C345 1492 383 1454 383 1411 C383 1367 345 1330 301 1330 C257 1330 220 1367 220 1411 L220 1411 Z "/>
<glyph glyph-name="ogonek" unicode="˛" horiz-adv-x="554" d="M374 101 C231 41 77 -81 77 -231 C77 -371 188 -478 318 -478 C368 -478 422 -464 474 -427 L474 -296 L467 -291 C423 -313 364 -337 315 -337 C264 -337 224 -311 224 -233 C224 -163 266 -61 398 0 L374 101 Z "/>
<glyph glyph-name="tilde" unicode="˜" horiz-adv-x="892" d="M651 1442 C651 1388 606 1364 561 1364 C474 1364 431 1448 330 1448 C217 1448 115 1371 101 1254 C141 1217 195 1220 242 1227 L242 1233 C242 1287 285 1311 333 1311 C416 1311 437 1227 559 1227 C676 1227 778 1304 792 1421 C752 1458 698 1455 651 1448 L651 1442 Z "/>
<glyph glyph-name="hungarumlaut" unicode="˝" horiz-adv-x="993" d="M402 1647 C364 1582 269 1431 108 1285 C125 1249 165 1198 184 1190 C342 1277 503 1483 525 1555 C501 1604 449 1638 402 1647 L402 1647 Z M763 1647 C724 1582 629 1431 469 1285 C485 1249 525 1198 544 1190 C703 1277 864 1483 886 1555 C861 1604 809 1638 763 1647 L763 1647 Z "/>
<glyph glyph-name="Ygrave" unicode="Ỳ" horiz-adv-x="1166" d="M391 1776 C349 1754 311 1705 303 1651 C345 1588 562 1443 740 1408 C756 1422 778 1483 782 1523 C585 1612 447 1727 391 1776 L391 1776 Z M641 0 C698 0 761 4 768 8 C775 16 780 43 780 69 C780 90 777 112 771 121 C741 128 701 135 660 141 L660 492 L992 1173 C1042 1180 1091 1188 1127 1197 C1133 1206 1136 1228 1136 1249 C1136 1275 1131 1302 1124 1310 C1117 1314 1054 1318 997 1318 L881 1318 C824 1318 761 1314 754 1310 C747 1302 742 1275 742 1249 C742 1228 745 1206 751 1197 C776 1191 807 1185 841 1180 L583 650 L324 1180 C358 1185 390 1191 415 1197 C421 1206 424 1228 424 1249 C424 1275 419 1302 412 1310 C405 1314 342 1318 285 1318 L169 1318 C112 1318 49 1314 42 1310 C35 1302 30 1275 30 1249 C30 1228 33 1206 39 1197 C75 1188 123 1180 173 1173 L506 492 L506 141 C464 135 425 128 395 121 C389 112 386 90 386 69 C386 43 391 16 398 8 C405 4 468 0 525 0 L641 0 Z "/>
<glyph glyph-name="ygrave" unicode="ỳ" horiz-adv-x="1052" d="M374 1558 C332 1536 294 1487 286 1433 C328 1370 545 1225 723 1190 C739 1204 761 1265 765 1305 C568 1394 430 1509 374 1558 L374 1558 Z M941 1038 L762 1038 C705 1038 642 1034 635 1030 C628 1022 623 995 623 969 C623 948 626 926 632 917 C660 910 695 903 733 898 L480 165 L228 895 C273 901 315 909 348 917 C354 926 357 948 357 969 C357 995 352 1022 345 1030 C338 1034 275 1038 218 1038 L19 1038 L20 1035 C-4 1034 -21 1032 -25 1030 C-32 1022 -37 995 -37 969 C-37 948 -34 926 -28 917 C-1 911 31 904 67 899 L376 0 L424 0 L347 -223 C318 -304 247 -335 177 -335 C148 -335 118 -330 88 -320 C81 -260 71 -199 61 -156 C52 -151 30 -148 8 -148 C-18 -148 -45 -152 -53 -160 C-56 -166 -60 -230 -60 -286 L-60 -415 C26 -454 114 -478 196 -478 C333 -478 440 -413 496 -252 L892 896 C935 902 976 909 1008 917 C1014 926 1017 948 1017 969 C1017 995 1012 1022 1005 1030 C1000 1032 974 1035 940 1036 L941 1038 Z "/>
<glyph glyph-name="endash" unicode="–" horiz-adv-x="1052" d="M1002 618 L50 618 L50 474 L1002 474 L1002 618 Z "/>
<glyph glyph-name="emdash" unicode="—" horiz-adv-x="1201" d="M1151 618 L50 618 L50 474 L1151 474 L1151 618 Z "/>
<glyph glyph-name="quoteleft" unicode="‘" horiz-adv-x="391" d="M306 1157 C275 1199 262 1231 262 1264 C262 1302 279 1341 311 1394 L268 1448 C184 1403 80 1282 80 1168 C80 1077 146 1045 194 1045 C255 1045 306 1096 306 1157 L306 1157 Z "/>
<glyph glyph-name="quoteright" unicode="’" horiz-adv-x="391" d="M84 1336 C115 1294 129 1262 129 1229 C129 1191 111 1152 80 1099 L122 1045 C206 1090 311 1211 311 1325 C311 1416 244 1448 196 1448 C135 1448 84 1397 84 1336 L84 1336 Z "/>
<glyph glyph-name="quotesinglbase" unicode="‚" horiz-adv-x="391" d="M306 92 C275 134 262 166 262 199 C262 237 279 276 311 329 L268 383 C184 338 80 217 80 103 C80 12 146 -20 194 -20 C255 -20 306 31 306 92 L306 92 Z "/>
<glyph glyph-name="quotedblleft" unicode="“" horiz-adv-x="718" d="M306 1157 C275 1199 262 1231 262 1264 C262 1302 279 1341 311 1394 L268 1448 C184 1403 80 1282 80 1168 C80 1077 146 1045 194 1045 C255 1045 306 1096 306 1157 L306 1157 Z M634 1157 C603 1199 589 1231 589 1264 C589 1302 607 1341 638 1394 L596 1448 C512 1403 407 1282 407 1168 C407 1077 474 1045 522 1045 C583 1045 634 1096 634 1157 L634 1157 Z "/>
<glyph glyph-name="quotedblright" unicode="”" horiz-adv-x="718" d="M84 1336 C115 1294 129 1262 129 1229 C129 1191 111 1152 80 1099 L122 1045 C206 1090 311 1211 311 1325 C311 1416 244 1448 196 1448 C135 1448 84 1397 84 1336 L84 1336 Z M412 1336 C443 1294 456 1262 456 1229 C456 1191 439 1152 407 1099 L450 1045 C534 1090 638 1211 638 1325 C638 1416 572 1448 524 1448 C463 1448 412 1397 412 1336 L412 1336 Z "/>
<glyph glyph-name="quotedblbase" unicode="„" horiz-adv-x="718" d="M306 92 C275 134 262 166 262 199 C262 237 279 276 311 329 L268 383 C184 338 80 217 80 103 C80 12 146 -20 194 -20 C255 -20 306 31 306 92 L306 92 Z M634 92 C603 134 589 166 589 199 C589 237 607 276 638 329 L596 383 C512 338 407 217 407 103 C407 12 474 -20 522 -20 C583 -20 634 31 634 92 L634 92 Z "/>
<glyph glyph-name="dagger" unicode="†" horiz-adv-x="890" d="M385 1448 C364 1318 358 1213 358 1128 L522 1128 C522 1213 517 1318 497 1448 L385 1448 Z M50 884 L840 884 L840 1038 L50 1038 L50 884 Z M495 -268 C513 -124 522 540 522 804 L358 804 C358 540 365 -124 383 -268 L495 -268 Z "/>
<glyph glyph-name="daggerdbl" unicode="‡" horiz-adv-x="890" d="M390 1448 C369 1318 363 1213 363 1128 L527 1128 C527 1213 522 1318 502 1448 L390 1448 Z M50 884 L840 884 L840 1038 L50 1038 L50 884 Z M502 519 C522 649 527 754 527 839 L363 839 C363 754 369 649 390 519 C369 389 363 284 363 199 L527 199 C527 284 522 389 502 519 L502 519 Z M50 0 L840 0 L840 154 L50 154 L50 0 Z M502 -410 C522 -280 527 -175 527 -90 L363 -90 C363 -175 369 -280 390 -410 L502 -410 Z "/>
<glyph glyph-name="bullet" unicode="•" horiz-adv-x="771" d="M80 518 C80 355 215 214 385 214 C553 214 691 355 691 518 C691 681 553 822 385 822 C215 822 80 681 80 518 L80 518 Z "/>
<glyph glyph-name="ellipsis" unicode="…" horiz-adv-x="1161" d="M80 92 C80 31 131 -20 193 -20 C255 -20 307 31 307 92 C307 153 255 204 193 204 C131 204 80 153 80 92 L80 92 Z M467 92 C467 31 518 -20 580 -20 C642 -20 694 31 694 92 C694 153 642 204 580 204 C518 204 467 153 467 92 L467 92 Z M854 92 C854 31 905 -20 967 -20 C1029 -20 1081 31 1081 92 C1081 153 1029 204 967 204 C905 204 854 153 854 92 L854 92 Z "/>
<glyph glyph-name="perthousand" unicode="‰" horiz-adv-x="2382" d="M80 1000 C80 818 209 668 404 668 C599 668 734 817 734 1005 C734 1187 605 1338 410 1338 C215 1338 80 1188 80 1000 L80 1000 Z M220 1001 C220 1109 297 1195 409 1195 C520 1195 594 1108 594 1005 C594 897 517 811 405 811 C294 811 220 897 220 1001 L220 1001 Z M1078 1165 L432 241 L558 153 L1204 1077 L1078 1165 Z M904 312 C904 130 1033 -20 1228 -20 C1423 -20 1558 129 1558 317 C1558 499 1429 650 1234 650 C1039 650 904 500 904 312 L904 312 Z M1648 312 C1648 130 1777 -20 1972 -20 C2167 -20 2302 129 2302 317 C2302 499 2173 650 1978 650 C1783 650 1648 500 1648 312 L1648 312 Z M1044 313 C1044 421 1121 507 1233 507 C1344 507 1418 420 1418 317 C1418 209 1341 123 1229 123 C1118 123 1044 209 1044 313 L1044 313 Z M1788 313 C1788 421 1865 507 1977 507 C2088 507 2162 420 2162 317 C2162 209 2085 123 1973 123 C1862 123 1788 209 1788 313 L1788 313 Z "/>
<glyph glyph-name="guilsinglleft" unicode="‹" horiz-adv-x="796" d="M676 1372 L544 1449 L120 714 L544 -21 L676 56 L295 714 L676 1372 Z "/>
<glyph glyph-name="guilsinglright" unicode="›" horiz-adv-x="796" d="M120 56 L252 -21 L676 714 L252 1449 L120 1372 L500 714 L120 56 Z "/>
<glyph glyph-name="fraction" unicode="⁄" horiz-adv-x="1012" d="M766 1165 L120 241 L246 153 L892 1077 L766 1165 Z "/>
<glyph glyph-name="uni2063" unicode="⁣" horiz-adv-x="600" d=""/>
<glyph glyph-name="Euro" unicode="€" horiz-adv-x="1189" d="M1139 144 C1139 200 1135 264 1132 270 C1124 278 1097 282 1071 282 C1049 282 1027 279 1018 274 C1010 239 1002 193 995 144 C943 132 892 126 843 126 C624 126 443 242 372 450 L859 450 L911 590 L907 601 L341 601 C339 619 339 638 339 658 C339 681 340 704 342 726 L957 726 L1009 866 L1005 870 L371 870 C443 1082 628 1193 864 1193 C909 1193 956 1188 1004 1180 C1011 1129 1019 1080 1028 1044 C1037 1039 1059 1036 1081 1036 C1107 1036 1134 1040 1142 1048 C1145 1054 1149 1118 1149 1174 L1149 1297 C1057 1329 958 1338 880 1338 C553 1338 291 1176 210 870 L92 870 L40 730 L44 726 L187 726 C185 704 185 682 185 660 C185 640 185 620 187 601 L92 601 L40 454 L44 450 L211 450 C289 153 535 -20 826 -20 C927 -20 1033 1 1139 45 L1139 144 Z "/>
<glyph glyph-name="trademark" unicode="™" horiz-adv-x="1404" d="M570 1337 L45 1337 L45 1225 L249 1225 L249 678 L366 678 L366 1225 L570 1225 L570 1337 Z M1149 1337 L980 1005 L978 1005 L810 1337 L665 1337 L663 678 L780 678 L782 1168 L936 868 L1021 868 L1174 1166 L1177 678 L1294 678 L1291 1337 L1149 1337 Z "/>
<glyph glyph-name="estimated" unicode="℮" horiz-adv-x="1712" d="M410 627 L1622 627 C1622 839 1552 1011 1411 1142 C1271 1273 1090 1339 869 1339 C648 1339 462 1277 313 1154 C164 1031 90 866 90 661 C90 456 165 291 314 166 C463 42 644 -20 855 -20 C1120 -20 1326 58 1474 213 L1474 268 L1321 268 C1204 128 1067 65 870 65 C679 65 526 130 410 261 L410 627 Z M1314 713 L410 713 L410 1051 C545 1192 661 1251 858 1255 C1060 1252 1174 1195 1314 1051 L1314 713 Z "/>
<glyph glyph-name="minus" unicode="−" horiz-adv-x="1030" d="M120 438 L910 438 L910 592 L120 592 L120 438 Z "/>
<glyph glyph-name="approxequal" unicode="≈" horiz-adv-x="1033" d="M749 807 C749 746 698 718 647 718 C547 718 498 814 382 814 C253 814 136 725 120 592 C166 550 227 553 282 561 L282 568 C282 629 331 657 385 657 C481 657 504 561 644 561 C778 561 895 650 911 783 C865 825 804 822 749 814 L749 807 Z M749 499 C749 438 698 410 647 410 C547 410 498 506 382 506 C253 506 136 417 120 284 C166 242 227 245 282 253 L282 260 C282 321 331 349 385 349 C481 349 504 253 644 253 C778 253 895 342 911 475 C865 517 804 514 749 506 L749 499 Z "/>
<glyph glyph-name="notequal" unicode="≠" horiz-adv-x="1030" d="M623 592 L910 592 L910 746 L679 746 L735 899 L591 952 L516 746 L120 746 L120 592 L460 592 L404 438 L120 438 L120 284 L348 284 L281 100 L425 47 L511 284 L910 284 L910 438 L567 438 L623 592 Z "/>
<glyph glyph-name="lessequal" unicode="≤" horiz-adv-x="1030" d="M854 933 L766 1058 L176 645 L766 232 L854 357 L443 645 L854 933 Z M120 0 L910 0 L910 154 L120 154 L120 0 Z "/>
<glyph glyph-name="greaterequal" unicode="≥" horiz-adv-x="1030" d="M176 357 L264 232 L854 645 L264 1058 L176 933 L587 645 L176 357 Z M120 0 L910 0 L910 154 L120 154 L120 0 Z "/>
<glyph glyph-name="fi" unicode="ﬁ" horiz-adv-x="1145" d="M344 0 C401 0 464 4 471 8 C478 16 483 43 483 69 C483 90 480 112 474 121 C444 128 404 135 363 141 L363 895 L831 895 L831 148 C801 132 758 121 700 121 C694 111 691 89 691 69 C691 43 696 16 703 8 C710 4 773 0 830 0 L966 0 C1023 0 1086 4 1093 8 C1100 16 1105 43 1105 69 C1105 90 1102 112 1096 121 C1066 128 1026 135 985 141 L985 1038 L363 1038 L363 1042 C363 1249 429 1305 544 1305 C630 1305 750 1274 836 1247 C843 1203 852 1171 861 1133 C870 1128 892 1125 914 1125 C940 1125 967 1129 975 1137 C978 1142 981 1181 982 1349 C932 1365 721 1448 534 1448 C339 1448 208 1357 208 1042 L208 1038 L40 1038 L40 895 L208 895 L208 147 C178 132 136 121 78 121 C72 111 69 89 69 69 C69 43 74 16 81 8 C88 4 151 0 208 0 L344 0 Z "/>
<glyph glyph-name="fl" unicode="ﬂ" horiz-adv-x="1140" d="M961 0 C1018 0 1081 4 1088 8 C1095 16 1100 43 1100 69 C1100 90 1097 112 1091 121 C1061 128 1021 135 980 141 L980 1448 L970 1448 L826 1428 C730 1441 633 1448 563 1448 C353 1448 208 1386 208 1050 L208 1038 L40 1038 L40 894 L208 894 L208 147 C178 132 136 121 78 121 C72 111 69 89 69 69 C69 43 74 16 81 8 C88 4 151 0 208 0 L344 0 C401 0 464 4 471 8 C478 16 483 43 483 69 C483 90 480 112 474 121 C444 128 404 135 363 141 L363 894 L597 894 L597 1038 L363 1038 L363 1050 C363 1265 464 1306 606 1306 C665 1306 747 1299 826 1289 L826 148 C796 132 753 121 695 121 C689 111 686 89 686 69 C686 43 691 16 698 8 C705 4 768 0 825 0 L961 0 Z "/>
</font>
</svg>
