<?xml version="1.0" encoding="iso-8859-1"?>
<!-- Generator: Adobe Illustrator 16.0.4, SVG Export Plug-In . SVG Version: 6.00 Build 0)  -->
<!DOCTYPE svg PUBLIC "-//W3C//DTD SVG 1.1//EN" "http://www.w3.org/Graphics/SVG/1.1/DTD/svg11.dtd">
<svg version="1.1" id="Layer_1" xmlns="http://www.w3.org/2000/svg" xmlns:xlink="http://www.w3.org/1999/xlink" x="0px" y="0px"
	 width="231px" height="52px" viewBox="7.5 17.5 231 52" style="enable-background:new 7.5 17.5 231 52;" xml:space="preserve">
<polygon style="fill:#FFFFFF;" points="28.107,41.701 20.717,41.701 16.964,34.19 16.747,51.609 9.333,51.609 9.747,19.682 
	17.159,19.682 24.376,34.265 31.523,19.682 38.938,19.682 39.445,51.609 32.032,51.609 31.741,34.289 "/>
<rect x="45.259" y="19.681" style="fill:#FFFFFF;" width="7.412" height="31.929"/>
<polygon style="fill:#FFFFFF;" points="66.117,51.607 58.727,51.607 58.727,19.681 66.117,19.681 78.034,38.722 78.034,19.681 
	85.421,19.681 85.421,51.607 78.034,51.607 66.117,32.591 "/>
<path style="fill:#FFFFFF;" d="M109.721,38.963l-4.119-12.016l-4.117,12.016H109.721z M99.085,45.916l-1.963,5.691h-7.823
	l10.973-31.928h10.804l10.998,31.928h-7.97l-1.963-5.691H99.085z"/>
<g>
	<path style="fill:#FFFFFF;" d="M11.292,61.26c0.351-0.223,0.681-0.424,1.005-0.564c0.324-0.135,0.641-0.215,0.984-0.215
		c0.594,0,1.193,0.234,1.599,0.771c0.323-0.207,0.667-0.402,1.038-0.545c0.37-0.133,0.748-0.229,1.145-0.229
		c0.533,0,1.093,0.162,1.524,0.525c0.426,0.361,0.722,0.926,0.722,1.711v4.145c0.263,0.033,0.512,0.076,0.674,0.109
		c0.027,0.053,0.041,0.174,0.041,0.287c0,0.115-0.02,0.229-0.067,0.281c-0.007,0.01-0.034,0.016-0.081,0.021
		c-0.101,0.006-0.257,0.021-0.425,0.021c-0.088,0.006-0.162,0.006-0.236,0.006h-0.58c-0.155,0-0.324-0.006-0.472-0.014
		c-0.074-0.008-0.142-0.008-0.189-0.014c-0.101-0.008-0.108-0.035-0.128-0.141c-0.013-0.049-0.021-0.104-0.021-0.162
		c0-0.113,0.014-0.234,0.041-0.289c0.162-0.033,0.412-0.074,0.674-0.107v-3.861c0-0.619-0.196-1.068-0.492-1.357
		c-0.303-0.289-0.707-0.422-1.133-0.422c-0.593,0-1.227,0.26-1.746,0.604c0.094,0.256,0.142,0.551,0.142,0.895v4.145
		c0.263,0.033,0.512,0.074,0.674,0.107c0.027,0.055,0.04,0.176,0.04,0.289s-0.02,0.229-0.067,0.281
		c-0.007,0.008-0.034,0.014-0.081,0.02c-0.101,0.006-0.256,0.021-0.425,0.021c-0.088,0.008-0.162,0.008-0.236,0.008h-0.579
		c-0.155,0-0.324-0.008-0.472-0.014c-0.074-0.01-0.142-0.01-0.189-0.016c-0.101-0.006-0.108-0.033-0.128-0.139
		c-0.014-0.049-0.021-0.104-0.021-0.164c0-0.113,0.014-0.234,0.041-0.287c0.161-0.033,0.411-0.076,0.674-0.109v-3.861
		c0-0.617-0.162-1.066-0.418-1.357c-0.256-0.287-0.607-0.422-0.984-0.422c-0.317,0-0.627,0.094-0.938,0.242
		c-0.31,0.146-0.613,0.354-0.889,0.562v4.836c0.263,0.033,0.512,0.076,0.673,0.109c0.027,0.053,0.041,0.174,0.041,0.287
		c0,0.115-0.02,0.229-0.067,0.281c-0.007,0.01-0.034,0.016-0.081,0.021c-0.101,0.006-0.256,0.021-0.425,0.021
		c-0.088,0.006-0.162,0.006-0.236,0.006h-0.58c-0.155,0-0.324-0.006-0.472-0.014c-0.074-0.008-0.141-0.008-0.188-0.014
		c-0.101-0.008-0.109-0.035-0.129-0.141c-0.013-0.049-0.02-0.104-0.02-0.162c0-0.113,0.013-0.234,0.04-0.289
		c0.163-0.033,0.412-0.074,0.675-0.107v-5.59c-0.135,0-0.284-0.006-0.411-0.012c-0.128-0.008-0.229-0.021-0.264-0.027
		c-0.02-0.027-0.04-0.135-0.04-0.25c-0.007-0.113-0.007-0.248,0.02-0.322c0.195-0.061,0.438-0.105,0.661-0.135
		c0.115-0.012,0.216-0.025,0.317-0.031c0.094-0.008,0.175-0.008,0.236-0.014L11.292,61.26z"/>
	<path style="fill:#FFFFFF;" d="M23.083,58.889c0-0.156,0.068-0.291,0.175-0.396c0.108-0.102,0.25-0.168,0.404-0.168
		c0.156,0,0.297,0.066,0.405,0.168c0.108,0.105,0.176,0.24,0.176,0.396c0,0.154-0.068,0.287-0.176,0.387
		c-0.108,0.109-0.249,0.178-0.405,0.178c-0.154,0-0.296-0.068-0.404-0.178C23.149,59.176,23.083,59.043,23.083,58.889
		 M24.045,60.479v6.381c0.263,0.033,0.513,0.074,0.674,0.109c0.027,0.053,0.041,0.174,0.041,0.287c0,0.115-0.021,0.229-0.068,0.283
		c-0.006,0.008-0.033,0.014-0.081,0.02c-0.101,0.006-0.255,0.021-0.424,0.021c-0.088,0.008-0.162,0.008-0.237,0.008h-0.579
		c-0.156,0-0.324-0.008-0.472-0.014c-0.074-0.01-0.141-0.01-0.189-0.016c-0.101-0.006-0.108-0.033-0.128-0.139
		c-0.014-0.049-0.02-0.104-0.02-0.164c0-0.113,0.013-0.234,0.04-0.287c0.162-0.035,0.411-0.076,0.675-0.109v-5.588
		c-0.136,0-0.291-0.008-0.418-0.014c-0.128-0.006-0.229-0.021-0.264-0.027c-0.02-0.025-0.04-0.133-0.04-0.248
		c-0.007-0.113-0.007-0.248,0.02-0.322c0.243-0.08,0.56-0.127,0.829-0.154l0.338-0.021c0.094-0.006,0.155-0.006,0.175-0.006H24.045z
		"/>
	<path style="fill:#FFFFFF;" d="M28.828,57.859v9c0.263,0.033,0.512,0.074,0.674,0.109c0.027,0.053,0.04,0.174,0.04,0.287
		c0,0.115-0.02,0.229-0.067,0.283c-0.007,0.008-0.034,0.014-0.081,0.02c-0.101,0.006-0.256,0.021-0.425,0.021
		c-0.088,0.008-0.162,0.008-0.236,0.008h-0.579c-0.156,0-0.324-0.008-0.472-0.014c-0.074-0.01-0.142-0.01-0.189-0.016
		c-0.101-0.006-0.108-0.033-0.128-0.141c-0.014-0.047-0.021-0.102-0.021-0.162c0-0.113,0.014-0.234,0.041-0.287
		c0.162-0.035,0.411-0.076,0.674-0.109v-8.207c-0.135,0-0.29-0.008-0.418-0.014c-0.128-0.008-0.229-0.021-0.263-0.027
		c-0.02-0.025-0.04-0.135-0.04-0.246c-0.008-0.115-0.008-0.25,0.02-0.324c0.242-0.08,0.559-0.127,0.829-0.154l0.337-0.021
		c0.095-0.006,0.155-0.006,0.176-0.006H28.828z"/>
	<path style="fill:#FFFFFF;" d="M32.679,58.889c0-0.156,0.068-0.291,0.175-0.396c0.108-0.102,0.25-0.168,0.404-0.168
		c0.156,0,0.297,0.066,0.405,0.168c0.108,0.105,0.176,0.24,0.176,0.396c0,0.154-0.068,0.287-0.176,0.387
		c-0.108,0.109-0.249,0.178-0.405,0.178c-0.154,0-0.296-0.068-0.404-0.178C32.747,59.176,32.679,59.043,32.679,58.889
		 M33.643,60.479v6.381c0.263,0.033,0.513,0.074,0.674,0.109c0.027,0.053,0.041,0.174,0.041,0.287c0,0.115-0.021,0.229-0.068,0.283
		c-0.006,0.008-0.033,0.014-0.081,0.02c-0.101,0.006-0.256,0.021-0.424,0.021c-0.088,0.008-0.162,0.008-0.237,0.008h-0.579
		c-0.156,0-0.324-0.008-0.472-0.014c-0.075-0.01-0.142-0.01-0.189-0.016c-0.101-0.006-0.108-0.033-0.128-0.139
		c-0.014-0.049-0.02-0.104-0.02-0.164c0-0.113,0.013-0.234,0.04-0.287c0.162-0.035,0.411-0.076,0.675-0.109v-5.588
		c-0.136,0-0.291-0.008-0.418-0.014c-0.129-0.006-0.23-0.021-0.264-0.027c-0.02-0.025-0.041-0.133-0.041-0.248
		c-0.006-0.113-0.006-0.248,0.021-0.322c0.243-0.08,0.56-0.127,0.83-0.154l0.337-0.021c0.094-0.006,0.155-0.006,0.175-0.006H33.643z
		"/>
	<path style="fill:#FFFFFF;" d="M39.672,61.219c-0.648,0-1.127,0.24-1.464,0.646c-0.337,0.408-0.532,0.986-0.593,1.639h3.573
		c0-0.598-0.06-1.168-0.276-1.592C40.689,61.484,40.312,61.219,39.672,61.219 M41.992,64.262h-4.403
		c0.034,0.92,0.323,1.6,0.776,2.049c0.451,0.457,1.051,0.682,1.726,0.682c0.344,0,0.633-0.043,0.93-0.131
		c0.297-0.078,0.586-0.209,0.93-0.377l0.027,0.021v0.719c-0.721,0.357-1.355,0.496-2.002,0.496c-0.87,0-1.665-0.287-2.239-0.893
		c-0.573-0.604-0.937-1.523-0.937-2.814c0-0.994,0.195-1.887,0.654-2.518c0.458-0.635,1.18-1.016,2.231-1.016
		c0.702,0,1.181,0.188,1.524,0.482c0.344,0.303,0.533,0.705,0.641,1.156c0.108,0.449,0.135,0.934,0.142,1.383V64.262z"/>
	<path style="fill:#FFFFFF;" d="M50.451,60.479v6.381h0.27c0.216,0,0.431,0.016,0.593,0.021c0.162,0.008,0.155-0.006,0.182,0.148
		c0.014,0.078,0.02,0.16,0.02,0.24c0,0.113-0.013,0.201-0.047,0.256c-0.27,0.08-0.6,0.135-0.883,0.16
		c-0.141,0.016-0.27,0.021-0.371,0.027c-0.108,0.006-0.176,0.006-0.196,0.006h-0.04l-0.243-0.791
		c-0.33,0.215-0.687,0.416-1.065,0.557c-0.378,0.143-0.776,0.234-1.16,0.234c-0.539,0-1.105-0.166-1.531-0.529
		c-0.431-0.361-0.727-0.92-0.727-1.705v-4.213c-0.136,0-0.284-0.008-0.412-0.014s-0.229-0.021-0.263-0.027
		c-0.02-0.025-0.04-0.133-0.04-0.248c-0.007-0.113-0.007-0.248,0.02-0.322c0.242-0.08,0.559-0.127,0.829-0.154l0.337-0.021
		c0.095-0.006,0.155-0.006,0.176-0.006h0.128v4.723c0,0.617,0.195,1.068,0.492,1.357c0.296,0.295,0.702,0.432,1.126,0.432
		c0.358,0,0.728-0.098,1.079-0.25c0.344-0.154,0.674-0.35,0.95-0.564v-4.904c-0.134,0-0.282-0.006-0.41-0.012
		c-0.129-0.008-0.23-0.021-0.264-0.027c-0.02-0.025-0.04-0.135-0.04-0.25c-0.007-0.111-0.007-0.248,0.02-0.32
		c0.243-0.08,0.56-0.127,0.83-0.154l0.337-0.021c0.094-0.006,0.155-0.006,0.175-0.006h0.128V60.479z"/>
	<path style="fill:#FFFFFF;" d="M60.875,60.652c0,0.369,0.102,0.68,0.264,0.947c0.154,0.277,0.357,0.525,0.572,0.74
		c0.736-0.322,1.174-0.664,1.423-0.988c0.25-0.322,0.311-0.631,0.311-0.893c0-0.438-0.21-0.729-0.479-0.9
		c-0.27-0.174-0.607-0.242-0.876-0.242C61.359,59.316,60.875,59.82,60.875,60.652 M62.148,66.98c0.856,0,1.571-0.32,2.111-0.938
		l-2.866-2.85c-0.331,0.207-0.654,0.449-0.89,0.766c-0.243,0.322-0.398,0.713-0.398,1.195c0,0.531,0.183,0.988,0.533,1.311
		C60.988,66.789,61.501,66.98,62.148,66.98 M65.643,62.77l0.674,0.277c-0.087,0.537-0.243,1.088-0.425,1.592
		c-0.182,0.502-0.391,0.953-0.6,1.311l1.201,1.215l-0.547,0.559l-1.153-1.143c-0.701,0.76-1.591,1.143-2.643,1.143
		c-0.816,0-1.53-0.242-2.036-0.686c-0.506-0.443-0.809-1.088-0.809-1.9c0-1.049,0.505-1.775,1.578-2.42
		c-0.459-0.477-0.796-1.115-0.796-1.98c0-0.625,0.175-1.162,0.526-1.537c0.344-0.377,0.856-0.6,1.537-0.6
		c0.513,0,1.038,0.127,1.436,0.424c0.398,0.295,0.661,0.76,0.661,1.432c0,0.689-0.263,1.176-0.654,1.551
		c-0.391,0.377-0.904,0.639-1.369,0.875l2.502,2.49c0.209-0.396,0.398-0.854,0.546-1.311c0.148-0.451,0.256-0.893,0.317-1.289h0.054
		V62.77z"/>
	<path style="fill:#FFFFFF;" d="M79.713,67.586c-0.155,0-0.323-0.006-0.472-0.012c-0.074-0.01-0.141-0.01-0.189-0.016
		c-0.101-0.006-0.107-0.033-0.128-0.141c-0.014-0.047-0.02-0.102-0.02-0.162c0-0.113,0.014-0.234,0.041-0.287
		c0.161-0.033,0.41-0.076,0.674-0.109v-3.861c0-0.617-0.196-1.066-0.493-1.357c-0.296-0.287-0.7-0.422-1.126-0.422
		c-0.357,0-0.727,0.094-1.071,0.24c-0.351,0.148-0.682,0.352-0.958,0.564v4.836c0.263,0.033,0.513,0.076,0.674,0.109
		c0.027,0.053,0.041,0.174,0.041,0.287c0,0.115-0.021,0.229-0.068,0.281c-0.006,0.01-0.033,0.016-0.081,0.021
		c-0.101,0.006-0.256,0.021-0.424,0.021c-0.088,0.006-0.162,0.006-0.236,0.006h-0.58c-0.156,0-0.324-0.006-0.473-0.014
		c-0.074-0.008-0.14-0.008-0.188-0.014c-0.101-0.006-0.108-0.033-0.128-0.141c-0.014-0.049-0.02-0.104-0.02-0.162
		c0-0.113,0.013-0.234,0.04-0.289c0.162-0.033,0.411-0.074,0.675-0.107v-5.59c-0.136,0-0.284-0.006-0.412-0.012
		c-0.128-0.008-0.229-0.021-0.263-0.027c-0.02-0.027-0.04-0.135-0.04-0.248c-0.007-0.115-0.007-0.25,0.02-0.324
		c0.195-0.061,0.438-0.105,0.66-0.133c0.115-0.014,0.216-0.027,0.317-0.033c0.095-0.008,0.176-0.008,0.237-0.014l0.229,0.779
		c0.667-0.432,1.389-0.779,2.178-0.779c0.539,0,1.105,0.16,1.537,0.523c0.424,0.361,0.721,0.928,0.721,1.713v4.145
		c0.263,0.033,0.513,0.074,0.675,0.107c0.027,0.055,0.04,0.176,0.04,0.289s-0.02,0.229-0.067,0.281
		c-0.007,0.008-0.034,0.016-0.082,0.02c-0.101,0.006-0.255,0.021-0.424,0.021c-0.088,0.006-0.162,0.006-0.236,0.006h-0.58V67.586z"
		/>
	<path style="fill:#FFFFFF;" d="M87.826,64.342c-0.249-0.027-0.451-0.047-0.62-0.053c-0.088,0-0.162,0-0.236-0.008h-0.223
		c-0.269,0-0.606,0-0.93,0.049c-0.324,0.053-0.647,0.146-0.883,0.336c-0.236,0.188-0.391,0.463-0.391,0.871
		c0,0.396,0.135,0.754,0.404,1.016c0.264,0.27,0.641,0.438,1.127,0.438c0.748,0,1.341-0.369,1.752-1.154V64.342z M84.232,60.977
		c0.654-0.301,1.429-0.496,2.131-0.496c0.599,0,1.159,0.141,1.571,0.496c0.404,0.355,0.66,0.936,0.66,1.799v2.475
		c0,0.41,0.081,0.801,0.257,1.107c0.175,0.311,0.445,0.553,0.822,0.641l-0.439,0.723c-0.512-0.166-0.902-0.576-1.118-1.086
		c-0.182,0.314-0.459,0.584-0.816,0.779c-0.358,0.193-0.796,0.307-1.288,0.307c-0.304,0-0.668-0.045-0.998-0.172
		c-0.33-0.127-0.647-0.33-0.883-0.654c-0.236-0.312-0.385-0.738-0.385-1.322c0-0.65,0.189-1.152,0.621-1.496
		c0.431-0.346,1.106-0.518,2.056-0.518c0.358,0,0.782,0.027,1.402,0.078v-0.965c0-0.539-0.189-0.908-0.465-1.137
		s-0.661-0.314-1.045-0.314c-0.351,0-0.782,0.072-1.233,0.207c-0.028,0.242-0.068,0.51-0.102,0.738
		c-0.02,0.113-0.034,0.215-0.047,0.303c-0.02,0.088-0.034,0.141-0.047,0.168c-0.155,0.027-0.412,0.014-0.566-0.059
		c-0.007-0.027-0.014-0.109-0.021-0.242c-0.02-0.271-0.04-0.625-0.053-0.961C84.238,61.205,84.232,61.078,84.232,60.977"/>
	<path style="fill:#FFFFFF;" d="M96.229,67.393c-0.465,0.182-0.904,0.328-1.443,0.328c-0.506,0-1.018-0.135-1.403-0.49
		c-0.384-0.355-0.647-0.939-0.647-1.854v-4.002h-0.762v-0.76h0.762v-1.264l0.694-0.127h0.082v1.391h1.719v0.76h-1.719v3.586
		c0,0.73,0.128,1.236,0.363,1.553c0.237,0.322,0.567,0.457,0.972,0.457c0.169,0,0.337-0.021,0.505-0.066
		c0.027-0.242,0.074-0.551,0.115-0.82c0.02-0.133,0.041-0.254,0.061-0.355s0.034-0.162,0.046-0.193
		c0.156-0.029,0.412-0.014,0.567,0.061c0.007,0.021,0.007,0.066,0.014,0.141l0.02,0.289c0.013,0.221,0.027,0.496,0.033,0.752
		c0.007,0.129,0.007,0.248,0.014,0.355C96.229,67.244,96.229,67.332,96.229,67.393"/>
	<path style="fill:#FFFFFF;" d="M104.419,60.479v6.381h0.27c0.216,0,0.431,0.016,0.593,0.021c0.162,0.008,0.155-0.006,0.182,0.148
		c0.014,0.078,0.02,0.16,0.02,0.24c0,0.113-0.013,0.201-0.047,0.256c-0.27,0.08-0.6,0.135-0.883,0.16
		c-0.141,0.016-0.27,0.021-0.371,0.027c-0.108,0.006-0.175,0.006-0.195,0.006h-0.041l-0.243-0.791
		c-0.33,0.215-0.687,0.416-1.065,0.557c-0.378,0.143-0.776,0.234-1.159,0.234c-0.54,0-1.106-0.166-1.531-0.529
		c-0.432-0.361-0.728-0.92-0.728-1.705v-4.213c-0.136,0-0.284-0.008-0.412-0.014s-0.229-0.021-0.263-0.027
		c-0.02-0.025-0.04-0.133-0.04-0.248c-0.007-0.113-0.007-0.248,0.02-0.322c0.243-0.08,0.559-0.127,0.829-0.154l0.338-0.021
		c0.094-0.006,0.154-0.006,0.175-0.006h0.128v4.723c0,0.617,0.195,1.068,0.492,1.357c0.296,0.295,0.702,0.432,1.126,0.432
		c0.358,0,0.729-0.098,1.079-0.25c0.344-0.154,0.674-0.35,0.95-0.564v-4.904c-0.134,0-0.283-0.006-0.41-0.012
		c-0.129-0.008-0.23-0.021-0.264-0.027c-0.02-0.025-0.041-0.135-0.041-0.25c-0.006-0.111-0.006-0.248,0.021-0.32
		c0.243-0.08,0.56-0.127,0.83-0.154l0.337-0.021c0.094-0.006,0.155-0.006,0.175-0.006h0.128V60.479z"/>
	<path style="fill:#FFFFFF;" d="M113.659,60.479v6.381h0.27c0.216,0,0.431,0.016,0.593,0.021c0.162,0.008,0.155-0.006,0.182,0.148
		c0.014,0.078,0.02,0.16,0.02,0.24c0,0.113-0.013,0.201-0.047,0.256c-0.27,0.08-0.6,0.135-0.883,0.16
		c-0.141,0.016-0.27,0.021-0.371,0.027c-0.108,0.006-0.176,0.006-0.195,0.006h-0.041l-0.243-0.791
		c-0.33,0.215-0.687,0.416-1.065,0.557c-0.378,0.143-0.776,0.234-1.159,0.234c-0.54,0-1.106-0.166-1.531-0.529
		c-0.432-0.361-0.728-0.92-0.728-1.705v-4.213c-0.136,0-0.284-0.008-0.412-0.014s-0.229-0.021-0.262-0.027
		c-0.021-0.025-0.041-0.133-0.041-0.248c-0.006-0.113-0.006-0.248,0.02-0.322c0.243-0.08,0.559-0.127,0.829-0.154l0.337-0.021
		c0.095-0.006,0.155-0.006,0.176-0.006h0.128v4.723c0,0.617,0.195,1.068,0.492,1.357c0.296,0.295,0.702,0.432,1.126,0.432
		c0.358,0,0.729-0.098,1.079-0.25c0.344-0.154,0.674-0.35,0.95-0.564v-4.904c-0.134,0-0.282-0.006-0.41-0.012
		c-0.128-0.008-0.229-0.021-0.264-0.027c-0.02-0.025-0.04-0.135-0.04-0.25c-0.007-0.111-0.007-0.248,0.02-0.32
		c0.243-0.08,0.56-0.127,0.83-0.154l0.337-0.021c0.094-0.006,0.155-0.006,0.175-0.006h0.128V60.479z"/>
	<path style="fill:#FFFFFF;" d="M118.587,61.332c0.519-0.564,1.126-0.854,1.746-0.854c0.344,0,0.64,0.074,0.958,0.207
		c0,0.197-0.014,0.566-0.034,0.902c-0.014,0.166-0.028,0.322-0.034,0.457c-0.007,0.133-0.013,0.215-0.021,0.24
		c-0.154,0.074-0.411,0.088-0.566,0.061c-0.027-0.053-0.06-0.215-0.087-0.43c-0.034-0.207-0.074-0.457-0.101-0.691
		c-0.061-0.006-0.121-0.014-0.183-0.014c-0.68,0-1.2,0.336-1.685,0.973v4.676c0.263,0.033,0.512,0.074,0.674,0.109
		c0.027,0.053,0.041,0.174,0.041,0.287c0,0.115-0.021,0.229-0.068,0.283c-0.006,0.008-0.033,0.014-0.081,0.02
		c-0.101,0.006-0.256,0.021-0.424,0.021c-0.088,0.008-0.162,0.008-0.236,0.008h-0.581c-0.155,0-0.323-0.008-0.472-0.014
		c-0.074-0.01-0.141-0.01-0.188-0.016c-0.102-0.006-0.108-0.033-0.129-0.139c-0.013-0.049-0.019-0.104-0.019-0.164
		c0-0.113,0.013-0.234,0.04-0.287c0.162-0.035,0.411-0.076,0.674-0.109v-5.588c-0.135,0-0.283-0.008-0.411-0.014
		s-0.222-0.02-0.257-0.027c-0.019-0.025-0.04-0.133-0.04-0.248c-0.006-0.113-0.006-0.248,0.021-0.322
		c0.195-0.061,0.438-0.107,0.66-0.135c0.115-0.014,0.216-0.025,0.317-0.031c0.094-0.01,0.175-0.01,0.236-0.016L118.587,61.332z"/>
	<path style="fill:#FFFFFF;" d="M129.462,37.229h3.208c3.476,0,6.298-0.433,8.276-1.544c1.978-1.109,3.064-2.919,3.064-5.645
		c0-2.896-1.037-4.706-2.919-5.79c-1.882-1.062-4.561-1.424-7.817-1.424h-3.812V37.229L129.462,37.229z M125.725,19.329h7.792
		c5.308,0,8.83,0.819,11.049,2.532c2.221,1.736,3.113,4.319,3.113,7.865c0,2.438-0.483,4.366-1.424,5.887
		c-0.94,1.544-2.29,2.63-3.955,3.401c0.384,0.991,1.061,2.244,1.929,3.522c0.844,1.278,1.858,2.582,2.943,3.644
		c1.061,1.086,2.171,1.979,3.233,2.387l-2.051,3.041c-1.254-0.264-2.557-1.229-3.788-2.557c-1.253-1.328-2.436-2.943-3.449-4.559
		c-1.014-1.618-1.859-3.163-2.413-4.32c-2.051,0.412-4.391,0.555-6.925,0.555h-2.315v10.4h-3.739V19.329z"/>
</g>
<path style="fill:#FFFFFF;" d="M171.5,40.245l-5.839-16.912l-5.837,16.912H171.5z M158.642,43.719l-2.559,7.406h-3.859
	l10.927-31.797h4.995L179.1,51.125h-3.861l-2.556-7.406H158.642z"/>
<path style="fill:#FFFFFF;" d="M199.591,40.245l-5.839-16.912l-5.837,16.912H199.591z M186.733,43.719l-2.559,7.406h-3.859
	l10.93-31.797h4.992l10.954,31.797h-3.861l-2.556-7.406H186.733z"/>
<g>
	<path style="fill:#FFFFFF;" d="M215.404,47.65h5.645c3.861,0,6.949-1.254,9.096-3.376c2.125-2.126,3.307-5.14,3.307-8.686
		c0-3.788-1.447-6.997-3.766-9.24c-2.316-2.244-5.523-3.547-9.021-3.547h-5.26V47.65z M211.664,19.329h9
		c4.631,0,8.779,1.664,11.748,4.463c2.967,2.823,4.777,6.778,4.777,11.411c0,4.632-1.715,8.612-4.584,11.411
		c-2.871,2.824-6.924,4.514-11.559,4.514h-9.385V19.329H211.664z"/>
</g>
</svg>
