<?xml version="1.0" encoding="utf-8"?>
<!-- Generator: Adobe Illustrator 16.0.0, SVG Export Plug-In . SVG Version: 6.00 Build 0)  -->
<!DOCTYPE svg PUBLIC "-//W3C//DTD SVG 1.1//EN" "http://www.w3.org/Graphics/SVG/1.1/DTD/svg11.dtd">
<svg version="1.1" xmlns="http://www.w3.org/2000/svg" xmlns:xlink="http://www.w3.org/1999/xlink" x="0px" y="0px" width="420px"
	 height="90px" viewBox="0 0 420 90" enable-background="new 0 0 420 90" xml:space="preserve">
<g id="Layer_1" display="none">
	<polygon display="inline" fill="#4AA894" points="28.774,42.034 21.384,42.034 17.631,34.524 17.413,51.943 10,51.943 
		10.413,20.015 17.825,20.015 25.043,34.598 32.19,20.015 39.604,20.015 40.112,51.943 32.698,51.943 32.407,34.622 	"/>
	<rect x="45.926" y="20.014" display="inline" fill="#4AA894" width="7.412" height="31.929"/>
	<polygon display="inline" fill="#4AA894" points="66.783,51.941 59.393,51.941 59.393,20.014 66.783,20.014 78.7,39.055 
		78.7,20.014 86.088,20.014 86.088,51.941 78.7,51.941 66.783,32.925 	"/>
	<path display="inline" fill="#4AA894" d="M110.387,39.297l-4.119-12.016l-4.117,12.016H110.387z M99.752,46.249l-1.963,5.692
		h-7.823l10.973-31.928h10.804l10.998,31.928h-7.97l-1.963-5.692H99.752z"/>
	<g display="inline">
		<path fill="#2E94BD" d="M11.959,61.593c0.351-0.222,0.681-0.424,1.005-0.563c0.324-0.135,0.641-0.215,0.984-0.215
			c0.594,0,1.193,0.233,1.599,0.771c0.323-0.208,0.667-0.402,1.038-0.545c0.37-0.134,0.748-0.229,1.145-0.229
			c0.533,0,1.093,0.162,1.524,0.524c0.426,0.361,0.722,0.927,0.722,1.712v4.145c0.263,0.033,0.512,0.076,0.674,0.108
			c0.027,0.054,0.041,0.175,0.041,0.288c0,0.114-0.02,0.229-0.067,0.281c-0.007,0.009-0.034,0.015-0.081,0.021
			c-0.101,0.006-0.257,0.021-0.425,0.021c-0.088,0.007-0.162,0.007-0.236,0.007h-0.58c-0.155,0-0.324-0.007-0.472-0.014
			c-0.074-0.008-0.142-0.008-0.189-0.014c-0.101-0.008-0.108-0.035-0.128-0.141c-0.013-0.049-0.021-0.104-0.021-0.163
			c0-0.112,0.014-0.233,0.041-0.288c0.162-0.033,0.412-0.074,0.674-0.107v-3.862c0-0.618-0.196-1.067-0.492-1.356
			c-0.303-0.289-0.707-0.423-1.133-0.423c-0.593,0-1.227,0.261-1.746,0.604c0.094,0.256,0.142,0.551,0.142,0.894v4.146
			c0.263,0.033,0.512,0.074,0.674,0.107c0.027,0.055,0.04,0.176,0.04,0.288c0,0.114-0.02,0.229-0.067,0.281
			c-0.007,0.009-0.034,0.015-0.081,0.021c-0.101,0.006-0.256,0.021-0.425,0.021c-0.088,0.007-0.162,0.007-0.236,0.007h-0.579
			c-0.155,0-0.324-0.007-0.472-0.014c-0.074-0.009-0.142-0.009-0.189-0.015c-0.101-0.006-0.108-0.033-0.128-0.14
			c-0.014-0.049-0.021-0.103-0.021-0.163c0-0.113,0.014-0.234,0.041-0.288c0.161-0.032,0.411-0.075,0.674-0.108v-3.861
			c0-0.618-0.162-1.066-0.418-1.357c-0.256-0.287-0.607-0.422-0.984-0.422c-0.317,0-0.627,0.094-0.938,0.241
			c-0.31,0.147-0.613,0.354-0.889,0.563v4.836c0.263,0.033,0.512,0.076,0.673,0.108c0.027,0.054,0.041,0.175,0.041,0.288
			c0,0.114-0.02,0.229-0.067,0.281c-0.007,0.009-0.034,0.016-0.081,0.021c-0.101,0.006-0.256,0.021-0.425,0.021
			c-0.088,0.007-0.162,0.007-0.236,0.007h-0.58c-0.155,0-0.324-0.007-0.472-0.014c-0.074-0.008-0.141-0.008-0.188-0.014
			c-0.101-0.008-0.109-0.035-0.129-0.141c-0.013-0.049-0.02-0.104-0.02-0.163c0-0.112,0.013-0.233,0.04-0.288
			c0.163-0.033,0.412-0.074,0.675-0.107v-5.59c-0.135,0-0.284-0.006-0.411-0.013c-0.128-0.007-0.229-0.021-0.264-0.026
			c-0.02-0.027-0.04-0.135-0.04-0.25c-0.007-0.113-0.007-0.248,0.02-0.322c0.195-0.061,0.438-0.105,0.661-0.135
			c0.115-0.012,0.216-0.026,0.317-0.032c0.094-0.007,0.175-0.007,0.236-0.013L11.959,61.593z"/>
		<path fill="#2E94BD" d="M23.749,59.223c0-0.156,0.068-0.291,0.175-0.396c0.108-0.102,0.25-0.169,0.404-0.169
			c0.156,0,0.297,0.067,0.405,0.169c0.108,0.105,0.176,0.24,0.176,0.396c0,0.153-0.068,0.287-0.176,0.387
			c-0.108,0.108-0.249,0.177-0.405,0.177c-0.154,0-0.296-0.067-0.404-0.177C23.816,59.51,23.749,59.376,23.749,59.223
			 M24.712,60.812v6.381c0.263,0.033,0.513,0.074,0.674,0.108c0.027,0.054,0.041,0.175,0.041,0.288c0,0.115-0.021,0.229-0.068,0.282
			c-0.006,0.008-0.033,0.014-0.081,0.021c-0.101,0.006-0.255,0.021-0.424,0.021c-0.088,0.007-0.162,0.007-0.237,0.007h-0.579
			c-0.156,0-0.324-0.007-0.472-0.013c-0.074-0.01-0.141-0.01-0.189-0.016c-0.101-0.006-0.108-0.033-0.128-0.14
			c-0.014-0.048-0.02-0.103-0.02-0.163c0-0.113,0.013-0.234,0.04-0.288c0.162-0.034,0.411-0.075,0.675-0.108v-5.588
			c-0.136,0-0.291-0.008-0.418-0.014c-0.128-0.007-0.229-0.021-0.264-0.027c-0.02-0.025-0.04-0.133-0.04-0.248
			c-0.007-0.113-0.007-0.248,0.02-0.322c0.243-0.08,0.56-0.127,0.829-0.154l0.338-0.021c0.094-0.006,0.155-0.006,0.175-0.006H24.712
			L24.712,60.812z"/>
		<path fill="#2E94BD" d="M29.494,58.193v9c0.263,0.033,0.512,0.074,0.674,0.108c0.027,0.054,0.04,0.175,0.04,0.288
			c0,0.115-0.02,0.229-0.067,0.282c-0.007,0.008-0.034,0.014-0.081,0.021c-0.101,0.006-0.256,0.021-0.425,0.021
			c-0.088,0.007-0.162,0.007-0.236,0.007H28.82c-0.156,0-0.324-0.007-0.472-0.013c-0.074-0.01-0.142-0.01-0.189-0.016
			c-0.101-0.006-0.108-0.033-0.128-0.141c-0.014-0.047-0.021-0.102-0.021-0.162c0-0.113,0.014-0.234,0.041-0.288
			c0.162-0.034,0.411-0.075,0.674-0.108v-8.207c-0.135,0-0.29-0.008-0.418-0.014c-0.128-0.009-0.229-0.021-0.263-0.027
			c-0.02-0.026-0.04-0.135-0.04-0.247c-0.008-0.115-0.008-0.249,0.02-0.324c0.242-0.079,0.559-0.127,0.829-0.153l0.337-0.021
			c0.095-0.006,0.155-0.006,0.176-0.006H29.494z"/>
		<path fill="#2E94BD" d="M33.345,59.223c0-0.156,0.068-0.291,0.175-0.396c0.108-0.102,0.25-0.169,0.404-0.169
			c0.156,0,0.297,0.067,0.405,0.169c0.108,0.105,0.176,0.24,0.176,0.396c0,0.153-0.068,0.287-0.176,0.387
			c-0.108,0.108-0.249,0.177-0.405,0.177c-0.154,0-0.296-0.067-0.404-0.177C33.413,59.51,33.345,59.376,33.345,59.223
			 M34.309,60.812v6.381c0.263,0.033,0.513,0.074,0.674,0.108c0.027,0.054,0.041,0.175,0.041,0.288c0,0.115-0.021,0.229-0.068,0.282
			c-0.006,0.008-0.033,0.014-0.081,0.021c-0.101,0.006-0.256,0.021-0.424,0.021c-0.088,0.007-0.162,0.007-0.237,0.007h-0.579
			c-0.156,0-0.324-0.007-0.472-0.013c-0.075-0.01-0.142-0.01-0.189-0.016c-0.101-0.006-0.108-0.033-0.128-0.14
			c-0.014-0.048-0.02-0.103-0.02-0.163c0-0.113,0.013-0.234,0.04-0.288c0.162-0.034,0.411-0.075,0.675-0.108v-5.588
			c-0.136,0-0.291-0.008-0.418-0.014c-0.129-0.007-0.23-0.021-0.264-0.027c-0.02-0.025-0.041-0.133-0.041-0.248
			c-0.006-0.113-0.006-0.248,0.021-0.322c0.243-0.08,0.56-0.127,0.83-0.154l0.337-0.021c0.094-0.006,0.155-0.006,0.175-0.006H34.309
			L34.309,60.812z"/>
		<path fill="#2E94BD" d="M40.339,61.553c-0.648,0-1.127,0.24-1.464,0.646c-0.337,0.408-0.532,0.986-0.593,1.638h3.573
			c0-0.597-0.06-1.168-0.276-1.592C41.356,61.818,40.979,61.553,40.339,61.553 M42.658,64.596h-4.403
			c0.034,0.92,0.323,1.6,0.776,2.049c0.451,0.457,1.051,0.681,1.726,0.681c0.344,0,0.633-0.042,0.93-0.13
			c0.297-0.079,0.586-0.209,0.93-0.377l0.027,0.021v0.719c-0.721,0.356-1.355,0.496-2.002,0.496c-0.87,0-1.665-0.287-2.239-0.893
			c-0.573-0.604-0.937-1.523-0.937-2.814c0-0.994,0.195-1.888,0.654-2.519c0.458-0.634,1.18-1.015,2.231-1.015
			c0.702,0,1.181,0.188,1.524,0.482c0.344,0.303,0.533,0.705,0.641,1.156c0.108,0.449,0.135,0.934,0.142,1.383V64.596z"/>
		<path fill="#2E94BD" d="M51.117,60.812v6.381h0.27c0.216,0,0.431,0.016,0.593,0.021c0.162,0.008,0.155-0.006,0.182,0.148
			c0.014,0.078,0.02,0.16,0.02,0.24c0,0.113-0.013,0.201-0.047,0.256c-0.27,0.08-0.6,0.135-0.883,0.16
			c-0.141,0.016-0.27,0.021-0.371,0.027c-0.108,0.006-0.176,0.006-0.196,0.006h-0.04l-0.243-0.791
			c-0.33,0.215-0.687,0.416-1.065,0.557c-0.378,0.142-0.776,0.234-1.16,0.234c-0.539,0-1.105-0.167-1.531-0.529
			c-0.431-0.362-0.727-0.92-0.727-1.705v-4.213c-0.136,0-0.284-0.008-0.412-0.014c-0.128-0.007-0.229-0.021-0.263-0.027
			c-0.02-0.025-0.04-0.133-0.04-0.248c-0.007-0.113-0.007-0.248,0.02-0.322c0.242-0.08,0.559-0.127,0.829-0.154l0.337-0.021
			c0.095-0.006,0.155-0.006,0.176-0.006h0.128v4.723c0,0.617,0.195,1.068,0.492,1.357c0.296,0.295,0.702,0.432,1.126,0.432
			c0.358,0,0.728-0.098,1.079-0.25c0.344-0.155,0.674-0.35,0.95-0.564v-4.904c-0.134,0-0.282-0.006-0.41-0.013
			c-0.129-0.007-0.23-0.021-0.264-0.026c-0.02-0.026-0.04-0.135-0.04-0.25c-0.007-0.112-0.007-0.248,0.02-0.321
			c0.243-0.08,0.56-0.127,0.83-0.154l0.337-0.021c0.094-0.006,0.155-0.006,0.175-0.006h0.128V60.812z"/>
		<path fill="#2E94BD" d="M61.541,60.986c0,0.369,0.102,0.68,0.264,0.947c0.154,0.276,0.357,0.524,0.572,0.739
			c0.736-0.321,1.174-0.664,1.423-0.987c0.25-0.322,0.311-0.631,0.311-0.894c0-0.437-0.21-0.728-0.479-0.899
			c-0.27-0.175-0.607-0.242-0.876-0.242C62.026,59.65,61.541,60.154,61.541,60.986 M62.815,67.314c0.856,0,1.571-0.321,2.111-0.938
			l-2.866-2.849c-0.331,0.207-0.654,0.449-0.89,0.766c-0.243,0.321-0.398,0.712-0.398,1.195c0,0.531,0.183,0.988,0.533,1.31
			C61.655,67.122,62.168,67.314,62.815,67.314 M66.309,63.104l0.674,0.276c-0.087,0.538-0.243,1.089-0.425,1.593
			c-0.182,0.502-0.391,0.953-0.6,1.31l1.201,1.216l-0.547,0.559l-1.153-1.143c-0.701,0.759-1.591,1.143-2.643,1.143
			c-0.816,0-1.53-0.242-2.036-0.687c-0.506-0.442-0.809-1.088-0.809-1.899c0-1.049,0.505-1.775,1.578-2.42
			c-0.459-0.477-0.796-1.115-0.796-1.98c0-0.625,0.175-1.162,0.526-1.538c0.344-0.376,0.856-0.599,1.537-0.599
			c0.513,0,1.038,0.127,1.436,0.424c0.398,0.295,0.661,0.759,0.661,1.431c0,0.69-0.263,1.176-0.654,1.552
			c-0.391,0.376-0.904,0.639-1.369,0.874l2.502,2.491c0.209-0.396,0.398-0.854,0.546-1.311c0.148-0.451,0.256-0.893,0.317-1.289
			h0.054V63.104z"/>
		<path fill="#2E94BD" d="M80.38,67.92c-0.155,0-0.323-0.006-0.472-0.013c-0.074-0.009-0.141-0.009-0.189-0.015
			c-0.101-0.006-0.107-0.033-0.128-0.141c-0.014-0.048-0.02-0.102-0.02-0.162c0-0.113,0.014-0.234,0.041-0.288
			c0.161-0.032,0.41-0.075,0.674-0.108v-3.861c0-0.618-0.196-1.066-0.493-1.357c-0.296-0.287-0.7-0.422-1.126-0.422
			c-0.357,0-0.727,0.094-1.071,0.24c-0.351,0.148-0.682,0.352-0.958,0.564v4.836c0.263,0.033,0.513,0.076,0.674,0.108
			c0.027,0.054,0.041,0.175,0.041,0.288c0,0.114-0.021,0.229-0.068,0.281c-0.006,0.009-0.033,0.016-0.081,0.021
			c-0.101,0.006-0.256,0.021-0.424,0.021c-0.088,0.006-0.162,0.006-0.236,0.006h-0.58c-0.156,0-0.324-0.006-0.473-0.013
			c-0.074-0.008-0.14-0.008-0.188-0.014c-0.101-0.007-0.108-0.033-0.128-0.142c-0.014-0.048-0.02-0.103-0.02-0.162
			c0-0.112,0.013-0.233,0.04-0.288c0.162-0.033,0.411-0.074,0.675-0.107v-5.59c-0.136,0-0.284-0.006-0.412-0.013
			s-0.229-0.021-0.263-0.026c-0.02-0.027-0.04-0.135-0.04-0.248c-0.007-0.115-0.007-0.25,0.02-0.324
			c0.195-0.061,0.438-0.105,0.66-0.133c0.115-0.014,0.216-0.028,0.317-0.034c0.095-0.007,0.176-0.007,0.237-0.013l0.229,0.778
			c0.667-0.431,1.389-0.778,2.178-0.778c0.539,0,1.105,0.16,1.537,0.522c0.424,0.362,0.721,0.929,0.721,1.713v4.146
			c0.263,0.033,0.513,0.074,0.675,0.107c0.027,0.055,0.04,0.176,0.04,0.288c0,0.114-0.02,0.229-0.067,0.281
			c-0.007,0.009-0.034,0.016-0.082,0.021c-0.101,0.006-0.255,0.021-0.424,0.021c-0.088,0.006-0.162,0.006-0.236,0.006h-0.58V67.92z"
			/>
		<path fill="#2E94BD" d="M88.492,64.676c-0.249-0.027-0.451-0.047-0.62-0.053c-0.088,0-0.162,0-0.236-0.009h-0.223
			c-0.269,0-0.606,0-0.93,0.049c-0.324,0.054-0.647,0.147-0.883,0.336c-0.236,0.188-0.391,0.463-0.391,0.872
			c0,0.396,0.135,0.754,0.404,1.015c0.264,0.269,0.641,0.438,1.127,0.438c0.748,0,1.341-0.37,1.752-1.155V64.676z M84.899,61.311
			c0.654-0.302,1.429-0.496,2.131-0.496c0.599,0,1.159,0.141,1.571,0.496c0.404,0.355,0.66,0.935,0.66,1.799v2.475
			c0,0.409,0.081,0.8,0.257,1.107c0.175,0.31,0.445,0.552,0.822,0.64l-0.439,0.724c-0.512-0.166-0.902-0.576-1.118-1.087
			c-0.182,0.314-0.459,0.584-0.816,0.779c-0.358,0.194-0.796,0.308-1.288,0.308c-0.304,0-0.668-0.046-0.998-0.173
			c-0.33-0.127-0.647-0.33-0.883-0.653c-0.236-0.313-0.385-0.738-0.385-1.322c0-0.65,0.189-1.153,0.621-1.497
			c0.431-0.345,1.106-0.517,2.056-0.517c0.358,0,0.782,0.026,1.402,0.078v-0.966c0-0.539-0.189-0.907-0.465-1.136
			s-0.661-0.314-1.045-0.314c-0.351,0-0.782,0.072-1.233,0.207c-0.028,0.241-0.068,0.51-0.102,0.738
			c-0.02,0.113-0.034,0.215-0.047,0.302c-0.02,0.089-0.034,0.142-0.047,0.169c-0.155,0.027-0.412,0.014-0.566-0.06
			c-0.007-0.027-0.014-0.109-0.021-0.242c-0.02-0.271-0.04-0.625-0.053-0.96C84.905,61.539,84.899,61.411,84.899,61.311"/>
		<path fill="#2E94BD" d="M96.896,67.727c-0.465,0.182-0.904,0.328-1.443,0.328c-0.506,0-1.018-0.135-1.403-0.49
			c-0.384-0.355-0.647-0.939-0.647-1.854v-4.003h-0.762v-0.76h0.762v-1.263l0.694-0.127h0.082v1.39h1.719v0.76h-1.719v3.586
			c0,0.731,0.128,1.237,0.363,1.554c0.237,0.322,0.567,0.457,0.972,0.457c0.169,0,0.337-0.021,0.505-0.066
			c0.027-0.242,0.074-0.551,0.115-0.82c0.02-0.134,0.041-0.255,0.061-0.355c0.02-0.103,0.034-0.162,0.046-0.194
			c0.156-0.028,0.412-0.013,0.567,0.062c0.007,0.021,0.007,0.065,0.014,0.141l0.02,0.289c0.013,0.221,0.027,0.496,0.033,0.752
			c0.007,0.129,0.007,0.248,0.014,0.354C96.896,67.578,96.896,67.665,96.896,67.727"/>
		<path fill="#2E94BD" d="M105.086,60.812v6.381h0.27c0.216,0,0.431,0.016,0.593,0.021c0.162,0.008,0.155-0.006,0.182,0.148
			c0.014,0.078,0.02,0.16,0.02,0.24c0,0.113-0.013,0.201-0.047,0.256c-0.27,0.08-0.6,0.135-0.883,0.16
			c-0.141,0.016-0.27,0.021-0.371,0.027c-0.108,0.006-0.175,0.006-0.195,0.006h-0.041l-0.243-0.791
			c-0.33,0.215-0.687,0.416-1.065,0.557c-0.378,0.142-0.776,0.234-1.159,0.234c-0.54,0-1.106-0.167-1.531-0.529
			c-0.432-0.362-0.728-0.92-0.728-1.705v-4.213c-0.136,0-0.284-0.008-0.412-0.014c-0.128-0.007-0.229-0.021-0.263-0.027
			c-0.02-0.025-0.04-0.133-0.04-0.248c-0.007-0.113-0.007-0.248,0.02-0.322c0.243-0.08,0.559-0.127,0.829-0.154l0.338-0.021
			c0.094-0.006,0.154-0.006,0.175-0.006h0.128v4.723c0,0.617,0.195,1.068,0.492,1.357c0.296,0.295,0.702,0.432,1.126,0.432
			c0.358,0,0.729-0.098,1.079-0.25c0.344-0.155,0.674-0.35,0.95-0.564v-4.904c-0.134,0-0.283-0.006-0.41-0.013
			c-0.129-0.007-0.23-0.021-0.264-0.026c-0.02-0.026-0.041-0.135-0.041-0.25c-0.006-0.112-0.006-0.248,0.021-0.321
			c0.243-0.08,0.56-0.127,0.83-0.154l0.337-0.021c0.094-0.006,0.155-0.006,0.175-0.006h0.128V60.812z"/>
		<path fill="#2E94BD" d="M114.325,60.812v6.381h0.27c0.216,0,0.431,0.016,0.593,0.021c0.162,0.008,0.155-0.006,0.182,0.148
			c0.014,0.078,0.02,0.16,0.02,0.24c0,0.113-0.013,0.201-0.047,0.256c-0.27,0.08-0.6,0.135-0.883,0.16
			c-0.141,0.016-0.27,0.021-0.371,0.027c-0.108,0.006-0.176,0.006-0.195,0.006h-0.041l-0.243-0.791
			c-0.33,0.215-0.687,0.416-1.065,0.557c-0.378,0.142-0.776,0.234-1.159,0.234c-0.54,0-1.106-0.167-1.531-0.529
			c-0.432-0.362-0.728-0.92-0.728-1.705v-4.213c-0.136,0-0.284-0.008-0.412-0.014c-0.128-0.007-0.229-0.021-0.262-0.027
			c-0.021-0.025-0.041-0.133-0.041-0.248c-0.006-0.113-0.006-0.248,0.02-0.322c0.243-0.08,0.559-0.127,0.829-0.154l0.337-0.021
			c0.095-0.006,0.155-0.006,0.176-0.006h0.128v4.723c0,0.617,0.195,1.068,0.492,1.357c0.296,0.295,0.702,0.432,1.126,0.432
			c0.358,0,0.729-0.098,1.079-0.25c0.344-0.155,0.674-0.35,0.95-0.564v-4.904c-0.134,0-0.282-0.006-0.41-0.013
			c-0.128-0.007-0.229-0.021-0.264-0.026c-0.02-0.026-0.04-0.135-0.04-0.25c-0.007-0.112-0.007-0.248,0.02-0.321
			c0.243-0.08,0.56-0.127,0.83-0.154l0.337-0.021c0.094-0.006,0.155-0.006,0.175-0.006h0.128V60.812z"/>
		<path fill="#2E94BD" d="M119.254,61.666c0.519-0.564,1.126-0.854,1.746-0.854c0.344,0,0.64,0.073,0.958,0.207
			c0,0.196-0.014,0.565-0.034,0.901c-0.014,0.167-0.028,0.322-0.034,0.457c-0.007,0.134-0.013,0.215-0.021,0.241
			c-0.154,0.074-0.411,0.087-0.566,0.061c-0.027-0.053-0.06-0.216-0.087-0.431c-0.034-0.207-0.074-0.457-0.101-0.69
			c-0.061-0.007-0.121-0.015-0.183-0.015c-0.68,0-1.2,0.336-1.685,0.974v4.676c0.263,0.033,0.512,0.074,0.674,0.108
			c0.027,0.054,0.041,0.175,0.041,0.288c0,0.115-0.021,0.229-0.068,0.282c-0.006,0.008-0.033,0.015-0.081,0.021
			c-0.101,0.006-0.256,0.021-0.424,0.021c-0.088,0.007-0.162,0.007-0.236,0.007h-0.581c-0.155,0-0.323-0.007-0.472-0.013
			c-0.074-0.01-0.141-0.01-0.188-0.016c-0.102-0.006-0.108-0.033-0.129-0.14c-0.013-0.048-0.019-0.103-0.019-0.163
			c0-0.113,0.013-0.234,0.04-0.288c0.162-0.034,0.411-0.075,0.674-0.108v-5.588c-0.135,0-0.283-0.008-0.411-0.014
			c-0.128-0.007-0.222-0.021-0.257-0.027c-0.019-0.025-0.04-0.133-0.04-0.248c-0.006-0.113-0.006-0.248,0.021-0.322
			c0.195-0.061,0.438-0.107,0.66-0.135c0.115-0.014,0.216-0.026,0.317-0.032c0.094-0.009,0.175-0.009,0.236-0.015L119.254,61.666z"
			/>
		<path fill="#2E94BD" d="M130.129,37.562h3.208c3.476,0,6.298-0.433,8.276-1.544c1.978-1.109,3.064-2.919,3.064-5.645
			c0-2.896-1.037-4.706-2.919-5.79c-1.882-1.062-4.561-1.424-7.817-1.424h-3.812V37.562L130.129,37.562z M126.391,19.662h7.792
			c5.308,0,8.83,0.819,11.049,2.532c2.221,1.736,3.113,4.319,3.113,7.865c0,2.438-0.483,4.366-1.424,5.887
			c-0.94,1.544-2.29,2.63-3.955,3.401c0.384,0.991,1.061,2.244,1.929,3.522c0.844,1.278,1.858,2.582,2.943,3.645
			c1.061,1.086,2.171,1.979,3.233,2.387l-2.051,3.041c-1.254-0.265-2.557-1.229-3.788-2.558c-1.253-1.327-2.436-2.942-3.449-4.559
			c-1.014-1.618-1.859-3.163-2.413-4.32c-2.051,0.412-4.391,0.555-6.925,0.555h-2.315v10.4h-3.739V19.662L126.391,19.662z"/>
	</g>
	<path display="inline" fill="#2E94BD" d="M172.166,40.578l-5.839-16.912l-5.837,16.912H172.166z M159.308,44.053l-2.559,7.406
		h-3.859l10.927-31.798h4.995l10.954,31.798h-3.861l-2.556-7.406H159.308z"/>
	<path display="inline" fill="#2E94BD" d="M200.258,40.578l-5.839-16.912l-5.837,16.912H200.258z M187.4,44.053l-2.559,7.406h-3.859
		l10.93-31.798h4.992l10.954,31.798h-3.861l-2.556-7.406H187.4z"/>
	<g display="inline">
		<path fill="#2E94BD" d="M216.07,47.984h5.645c3.861,0,6.949-1.254,9.096-3.376c2.125-2.126,3.308-5.14,3.308-8.686
			c0-3.788-1.448-6.997-3.767-9.24c-2.315-2.244-5.522-3.547-9.021-3.547h-5.26V47.984L216.07,47.984z M212.33,19.662h9
			c4.631,0,8.779,1.664,11.748,4.463c2.968,2.823,4.777,6.778,4.777,11.411c0,4.632-1.715,8.612-4.584,11.411
			c-2.871,2.824-6.924,4.514-11.558,4.514h-9.385L212.33,19.662L212.33,19.662z"/>
	</g>
	<polygon display="inline" fill="#4AA894" points="317.154,30.275 312.389,44.105 309.555,44.105 304.791,30.275 307.354,30.275 
		310.973,40.776 314.589,30.275 	"/>
	<polygon display="inline" fill="#4AA894" points="320.918,28.931 321.229,28.931 321.229,43.9 318.809,43.9 318.809,29.139 	"/>
	<g display="inline">
		<path fill="#4AA894" d="M332.031,44.106c-0.787,0-1.611-0.248-2.406-1.129c-0.425,0.32-0.8,0.601-1.242,0.799
			c-0.457,0.206-0.961,0.33-1.656,0.33c-0.74,0-1.621-0.146-2.314-0.641c-0.702-0.497-1.221-1.345-1.221-2.783
			c0-0.938,0.229-1.694,0.808-2.2s1.521-0.785,2.957-0.785c0.579,0,1.25,0,2.202,0.084v-0.537c0-0.747-0.235-1.263-0.618-1.573
			c-0.384-0.309-0.901-0.435-1.479-0.435c-0.918,0-2.007,0.332-2.873,0.732l-0.57-2.105c1.129-0.539,2.566-0.91,3.919-0.91
			c1.065,0,2.056,0.227,2.802,0.784c0.734,0.558,1.2,1.438,1.2,2.751v3.988c0,0.508,0.164,0.86,0.454,1.107
			c0.279,0.25,0.672,0.404,1.139,0.495L332.031,44.106z M329.146,39.56c-1.125,0-2.004-0.021-2.604,0.121
			c-0.602,0.146-0.934,0.458-0.934,1.086c0,0.881,0.634,1.366,1.511,1.366c0.302,0,0.806-0.062,1.241-0.334
			c0.436-0.264,0.783-0.752,0.783-1.59V39.56H329.146z"/>
		<path fill="#4AA894" d="M342.689,44.106c-0.787,0-1.61-0.248-2.406-1.129c-0.424,0.32-0.799,0.601-1.241,0.799
			c-0.457,0.206-0.961,0.33-1.653,0.33c-0.744,0-1.625-0.146-2.318-0.641c-0.701-0.497-1.221-1.345-1.221-2.783
			c0-0.938,0.229-1.694,0.811-2.2c0.578-0.506,1.52-0.785,2.955-0.785c0.578,0,1.25,0,2.201,0.084v-0.537
			c0-0.747-0.235-1.263-0.619-1.573c-0.385-0.309-0.898-0.435-1.479-0.435c-0.92,0-2.008,0.332-2.875,0.732l-0.57-2.105
			c1.131-0.539,2.566-0.91,3.92-0.91c1.066,0,2.057,0.227,2.803,0.784c0.732,0.558,1.199,1.438,1.199,2.751v3.988
			c0,0.508,0.166,0.86,0.453,1.107c0.281,0.25,0.674,0.404,1.14,0.495L342.689,44.106z M339.805,39.56
			c-1.125,0-2.004-0.021-2.604,0.121c-0.6,0.146-0.93,0.458-0.93,1.086c0,0.881,0.631,1.366,1.508,1.366
			c0.302,0,0.806-0.062,1.24-0.334c0.436-0.264,0.785-0.752,0.785-1.59V39.56L339.805,39.56z"/>
		<path fill="#4AA894" d="M345.232,33.17h2.047l0.236,0.836c0.991-0.662,2.225-1.046,3.424-1.046c1.021,0,2.006,0.28,2.72,0.899
			c0.714,0.623,1.177,1.563,1.177,2.918V43.9h-2.418v-6.409c0-0.796-0.29-1.355-0.734-1.706c-0.443-0.353-1.043-0.495-1.693-0.495
			c-0.828,0-1.678,0.245-2.336,0.658V43.9h-2.42V33.17H345.232z"/>
		<path fill="#4AA894" d="M366.418,43.899h-1.829l-0.438-0.807c-0.823,0.62-1.694,1.015-2.881,1.015c-1.541,0-2.69-0.62-3.444-1.572
			c-0.752-0.951-1.125-2.232-1.125-3.557c0-2.026,0.608-3.536,1.62-4.539c1.015-0.991,2.441-1.479,4.097-1.479
			c0.485,0,1.015,0.035,1.582,0.104v-3.926l2.049-0.209h0.371L366.418,43.899L366.418,43.899z M363.998,35.442
			c-0.609-0.152-1.229-0.225-1.717-0.225c-0.92,0-1.694,0.269-2.232,0.824c-0.538,0.56-0.85,1.387-0.85,2.503
			c0,0.815,0.23,1.611,0.662,2.225c0.437,0.609,1.074,1.014,1.933,1.014c0.737,0,1.554-0.263,2.204-0.663V35.442z"/>
		<path fill="#4AA894" d="M376.963,41.12v2.346c-0.951,0.465-2.131,0.642-3.051,0.642c-1.488,0-2.863-0.467-3.875-1.387
			c-1.016-0.92-1.656-2.325-1.656-4.188c0-1.808,0.6-3.194,1.51-4.145c0.899-0.94,2.108-1.426,3.318-1.426
			c0.342,0,0.949,0.039,1.583,0.259c0.63,0.217,1.322,0.63,1.841,1.342c0.518,0.713,0.877,1.771,0.877,3.258v1.612h-6.512
			c0.195,0.869,0.641,1.459,1.219,1.828c0.569,0.374,1.26,0.53,1.955,0.53c0.907,0,1.87-0.259,2.698-0.703L376.963,41.12z
			 M375.297,37.521c-0.051-0.786-0.33-1.347-0.701-1.716c-0.373-0.361-0.849-0.518-1.313-0.518c-0.495,0-1.001,0.166-1.416,0.526
			c-0.425,0.372-0.746,0.933-0.898,1.707L375.297,37.521L375.297,37.521z"/>
		<path fill="#4AA894" d="M385.822,35.836c-0.609-0.371-1.211-0.537-1.82-0.537c-0.787,0-1.508,0.29-2.16,0.784V43.9h-2.42V33.168
			h2.048l0.247,0.88c0.746-0.631,1.654-1.086,2.732-1.086c0.287,0,0.689,0.021,1.084,0.091c0.394,0.075,0.775,0.179,1.056,0.332
			L385.822,35.836z"/>
		<path fill="#4AA894" d="M395.789,41.12v2.346c-0.95,0.465-2.131,0.642-3.049,0.642c-1.49,0-2.865-0.467-3.877-1.387
			c-1.016-0.92-1.656-2.325-1.656-4.188c0-1.808,0.602-3.194,1.511-4.145c0.899-0.94,2.108-1.426,3.319-1.426
			c0.341,0,0.949,0.039,1.582,0.259c0.629,0.217,1.322,0.63,1.84,1.342c0.518,0.713,0.878,1.771,0.878,3.258v1.612h-6.513
			c0.195,0.869,0.642,1.459,1.221,1.828c0.568,0.374,1.259,0.53,1.953,0.53c0.908,0,1.871-0.259,2.699-0.703L395.789,41.12z
			 M394.123,37.521c-0.051-0.786-0.329-1.347-0.7-1.716c-0.373-0.361-0.849-0.518-1.315-0.518c-0.494,0-1,0.166-1.416,0.526
			c-0.424,0.372-0.743,0.933-0.896,1.707L394.123,37.521L394.123,37.521z"/>
		<path fill="#4AA894" d="M398.249,33.17h2.046l0.237,0.836c0.991-0.662,2.224-1.046,3.424-1.046c1.022,0,2.005,0.28,2.718,0.899
			c0.715,0.623,1.178,1.563,1.178,2.918V43.9h-2.418v-6.409c0-0.796-0.291-1.355-0.732-1.706c-0.444-0.353-1.043-0.495-1.696-0.495
			c-0.825,0-1.676,0.245-2.335,0.658V43.9h-2.42L398.249,33.17L398.249,33.17z"/>
	</g>
	
		<rect x="259.404" y="44.676" transform="matrix(-0.322 -0.9467 0.9467 -0.322 345.9337 337.4224)" display="inline" fill="#4AA894" width="68.768" height="0.334"/>
	<g display="inline">
		<path fill="#4AA894" d="M283.008,44.722c-1.598-1.219-2.346,0.009-3.35-0.072c-0.852-0.067-1.65-1.438-2.305-1.111
			c-1.258,0.638,0.5,2.896,1.265,3.359c0.679,0.406,1.536,0.779,1.743,0.875c1.008,0.473,1.41,1.187,1.537,2.303
			c0.028,0.255,0,0.839-0.064,1.107c-0.459,1.955-3.884,3.731-5.848,2.391c-0.928-0.639-1.771-1.455-2.066-2.907
			c-0.527-2.567-2.383-4.454-2.977-6.972c-0.361-1.524-0.629-3.136-1.027-4.672c-0.404-1.587-0.822-3.163-1.154-4.605
			c-0.303-1.34-0.941-3.345-1.402-4.566c-1.879-4.904-2.727-4.546-2.727-4.546s0.684,1.356,3.17,13.375
			c0.104,0.493,1.008,5.785,1.666,7.529c0.234,0.624,0.647,1.957,0.918,2.547c0.791,1.724,2.881,4.333,3.018,6.685
			c0.082,1.36,0.234,2.486,0.269,3.52c0.021,0.301,0.152,1.525,0.349,2.073c0.511,1.433,4.627,6.062,8.996,6.062v-3.509
			c-4.341,0-8.433-2.435-8.533-2.69c-0.062-0.112,0.227-1.772,0.521-2.512c0.567-1.428,1.642-2.738,3.527-2.876
			c2.104-0.149,3.374,0.46,4.485,0.46L283.008,44.722z"/>
		<path fill="#4AA894" d="M264.148,31.986c-0.162,2.626-4.228,6.223-5.502,8.524c-0.623,1.134-1.388,3.079-1.582,4.207
			c-0.541,3.135,0.143,5.084,0.908,6.917c1.348,3.229-0.183,4.41,0.87,3.759c1.302-1.062,1.104-3.537,1.009-5.082
			c-0.074-1.254-0.16-2.681,0.03-4.177c0.36-2.795,2.054-5.797,3.5-7.896C265.1,35.738,264.475,33.149,264.148,31.986"/>
		<path fill="#4AA894" d="M264.967,39.45c0,0,0.434,2.082-1.402,7.435c-4.803,14,4.373,15.325,6.984,18.615
			c0,0,1.01-1.422-3.152-5.988c-1.518-1.669-2.889-5.342-1.694-10.59C267.43,41.32,264.967,39.45,264.967,39.45"/>
		<path fill="#4AA894" d="M255.885,30.271c-0.221-0.826-0.287-1.567-0.238-2.225c0.222-3.289,3.209-4.625,3.955-5.115
			c0,0,1.342-0.92,1.515-1.847c0,0,1.377,3.463-1.776,5.446C257.738,27.536,256.652,28.716,255.885,30.271"/>
		<path fill="#4AA894" d="M263.418,27.091c0.17,0.334,1.408,2.146-3.662,6.334c-5.062,4.179-3.48,7.167-3.48,7.167
			s-5.401-3.007,0.82-8.199c6.223-5.187,4.945-6.237,4.945-6.237S262.934,26.11,263.418,27.091"/>
		<path fill="#4AA894" d="M270.001,28.692c0.875,0.114,1.435,2.849,3.46,3.443c1.491,0.432,3.073,0.199,3.426,1.095
			c-0.684,0.362-0.145,1.564,0.545,1.368C277.998,33.005,278.282,26.832,270.001,28.692 M272.729,29.923
			c0.076-0.196,0.183-0.04,0.404-0.177c0.237-0.226,0.479-0.592,0.863-0.716c0.275-0.081,0.654-0.044,0.914,0.055
			c0.169,0.046,0.066,0.484-0.064,0.6c-0.272,0.201-1.082-0.131-1.082,0.475c0.033,0.996,1.346-0.031,2.029-0.004
			C276.128,32.582,272.135,31.917,272.729,29.923"/>
		<path fill="#4AA894" d="M308.562,52.066h0.908v6.133h-0.908V52.066z M308.386,50.393c0-0.354,0.278-0.633,0.634-0.633
			c0.353,0,0.638,0.278,0.638,0.633c0,0.344-0.296,0.629-0.638,0.629C308.688,51.021,308.386,50.725,308.386,50.393"/>
		<path fill="#4AA894" d="M311.084,57.186l0.034-0.031c0.39,0.154,0.97,0.309,1.413,0.309c0.645,0,1.543-0.297,1.543-0.995
			c0-0.323-0.184-0.536-0.461-0.707c-0.367-0.229-1.006-0.415-1.566-0.717c-0.645-0.343-0.939-0.838-0.939-1.481
			c0-1.17,0.969-1.612,2.086-1.612c0.449,0,0.888,0.069,1.248,0.17v0.829l-0.037,0.016c-0.323-0.089-0.928-0.193-1.354-0.193
			c-0.537,0-1.039,0.158-1.039,0.715c0,0.337,0.195,0.566,0.479,0.744c0.385,0.256,1.116,0.468,1.708,0.77
			c0.626,0.324,0.791,0.698,0.791,1.354c0,0.66-0.325,1.156-0.797,1.481c-0.479,0.324-1.106,0.485-1.715,0.485
			c-0.52,0-0.992-0.107-1.395-0.277V57.186z"/>
		<path fill="#4AA894" d="M320.422,55.104c0,0.639,0.158,1.235,0.484,1.66c0.324,0.432,0.803,0.703,1.441,0.703
			c0.615,0,1.08-0.246,1.395-0.656c0.312-0.406,0.474-0.986,0.474-1.643c0-0.645-0.159-1.24-0.474-1.673
			c-0.312-0.433-0.785-0.697-1.424-0.697c-0.615,0-1.088,0.25-1.406,0.663C320.593,53.874,320.422,54.46,320.422,55.104
			 M319.506,55.15c0-0.893,0.295-1.689,0.797-2.27c0.498-0.579,1.206-0.936,2.04-0.936c0.833,0,1.541,0.361,2.026,0.936
			c0.484,0.571,0.762,1.366,0.762,2.238c0,0.893-0.289,1.686-0.785,2.265c-0.502,0.579-1.218,0.935-2.051,0.935
			c-0.844,0-1.537-0.361-2.021-0.935C319.789,56.816,319.506,56.025,319.506,55.15"/>
		<path fill="#4AA894" d="M330.979,58.199h-0.91V54.32c0-0.563-0.117-0.948-0.318-1.191c-0.201-0.236-0.484-0.336-0.811-0.336
			c-0.515,0-1,0.23-1.455,0.579v4.827h-0.916v-6.133h0.58l0.207,0.561c0.371-0.243,0.681-0.408,0.957-0.521
			c0.277-0.11,0.531-0.158,0.791-0.158c0.516,0,1.029,0.188,1.401,0.66c0.254-0.158,0.562-0.323,0.88-0.447
			c0.319-0.123,0.639-0.213,0.924-0.213c0.584,0,1.123,0.146,1.523,0.514c0.396,0.367,0.645,0.945,0.645,1.814v3.932h-0.916v-3.878
			c0-0.591-0.153-0.978-0.391-1.212c-0.242-0.235-0.579-0.324-0.951-0.324c-0.479,0-0.957,0.219-1.383,0.455
			c0.088,0.281,0.143,0.621,0.143,1.021V58.199L330.979,58.199z"/>
		<path fill="#4AA894" d="M338.216,52.762c-0.456,0-0.806,0.174-1.04,0.413c-0.236,0.243-0.355,0.563-0.355,0.871
			s0.123,0.626,0.361,0.869c0.234,0.239,0.584,0.405,1.051,0.405c0.455,0,0.8-0.166,1.029-0.405c0.23-0.238,0.344-0.551,0.344-0.856
			c0-0.309-0.119-0.634-0.35-0.884C339.02,52.928,338.671,52.762,338.216,52.762 M337.246,57.702
			c-0.332,0.379-0.543,0.856-0.543,1.284c0,0.359,0.1,0.673,0.336,0.892c0.236,0.22,0.607,0.349,1.152,0.349
			c0.613,0,1.141-0.201,1.52-0.49c0.371-0.282,0.585-0.66,0.585-1.033c0-0.456-0.267-0.703-0.69-0.846
			c-0.433-0.137-1.022-0.154-1.668-0.154L337.246,57.702L337.246,57.702z M338.754,56.918c0.846,0,1.465,0.193,1.871,0.514
			c0.404,0.319,0.604,0.758,0.604,1.213c0,0.668-0.408,1.266-1.004,1.688c-0.598,0.433-1.392,0.692-2.152,0.692
			c-0.701,0-1.271-0.221-1.66-0.575c-0.389-0.349-0.607-0.839-0.607-1.382c0-0.498,0.266-1.088,0.732-1.562
			c-0.166-0.095-0.289-0.254-0.373-0.437c-0.082-0.185-0.129-0.377-0.129-0.551c0-0.33,0.152-0.709,0.441-1.068
			c-0.164-0.172-0.295-0.409-0.379-0.668c-0.08-0.254-0.129-0.532-0.129-0.791c0-0.586,0.231-1.096,0.633-1.459
			c0.401-0.367,0.969-0.586,1.637-0.586c0.455,0,0.856,0.1,1.188,0.281c0.26-0.193,0.557-0.353,0.827-0.459
			c0.271-0.107,0.531-0.16,0.738-0.16l0.272,0.772c-0.326,0.056-0.752,0.188-1.152,0.444c0.229,0.331,0.354,0.714,0.354,1.141
			c0,0.584-0.237,1.123-0.639,1.52c-0.407,0.396-0.979,0.644-1.649,0.644c-0.431,0-0.808-0.104-1.134-0.266
			c-0.135,0.173-0.207,0.343-0.207,0.502c0,0.308,0.267,0.551,0.757,0.551L338.754,56.918L338.754,56.918z"/>
		<path fill="#4AA894" d="M345.389,54.537c-0.012-0.958-0.26-1.74-1.217-1.74c-0.963,0-1.52,0.758-1.666,1.74H345.389z
			 M346.287,55.363h-3.822c0.082,1.281,0.855,2.104,2.026,2.104c0.549,0,1.093-0.154,1.655-0.438l0.017,0.006v0.845
			c-0.638,0.313-1.194,0.438-1.761,0.438c-1.779,0-2.848-1.262-2.848-3.264c0-1.779,0.825-3.106,2.635-3.106
			c1.572,0,2.098,1.176,2.098,2.589V55.363L346.287,55.363z"/>
	</g>
	<polygon display="inline" fill="#4AA894" points="352.361,52.066 350.252,58.199 349.027,58.199 346.925,52.066 347.869,52.066 
		349.645,57.225 351.416,52.066 	"/>
	<g display="inline">
		<path fill="#4AA894" d="M353.672,52.066h0.91v6.133h-0.91V52.066z M353.494,50.393c0-0.354,0.277-0.633,0.633-0.633
			c0.354,0,0.637,0.278,0.637,0.633c0,0.344-0.295,0.629-0.637,0.629C353.795,51.021,353.494,50.725,353.494,50.393"/>
		<path fill="#4AA894" d="M356.664,52.066h0.615l0.172,0.566c0.254-0.166,0.561-0.338,0.887-0.467
			c0.324-0.13,0.662-0.221,0.951-0.221c0.584,0,1.123,0.147,1.523,0.515c0.396,0.367,0.645,0.944,0.645,1.813v3.925h-0.916v-3.87
			c0-0.592-0.152-0.977-0.389-1.212c-0.244-0.235-0.58-0.324-0.953-0.324c-0.283,0-0.572,0.077-0.852,0.188
			c-0.275,0.111-0.531,0.259-0.769,0.401v4.815h-0.916L356.664,52.066L356.664,52.066z"/>
		<path fill="#4AA894" d="M365.188,52.762c-0.455,0-0.805,0.174-1.039,0.413c-0.236,0.243-0.354,0.563-0.354,0.871
			s0.124,0.626,0.36,0.869c0.234,0.239,0.584,0.405,1.051,0.405c0.455,0,0.799-0.166,1.029-0.405
			c0.229-0.238,0.344-0.551,0.344-0.856c0-0.309-0.119-0.634-0.35-0.884C365.992,52.928,365.645,52.762,365.188,52.762
			 M364.221,57.702c-0.332,0.379-0.545,0.856-0.545,1.284c0,0.359,0.1,0.673,0.336,0.892c0.236,0.22,0.609,0.349,1.152,0.349
			c0.615,0,1.143-0.201,1.52-0.49c0.373-0.282,0.586-0.66,0.586-1.033c0-0.456-0.267-0.703-0.69-0.846
			c-0.433-0.137-1.022-0.154-1.668-0.154L364.221,57.702L364.221,57.702z M365.727,56.918c0.844,0,1.465,0.193,1.873,0.514
			c0.402,0.319,0.604,0.758,0.604,1.213c0,0.668-0.409,1.266-1.006,1.688c-0.598,0.433-1.391,0.692-2.151,0.692
			c-0.702,0-1.271-0.221-1.659-0.575c-0.391-0.349-0.609-0.839-0.609-1.382c0-0.498,0.267-1.088,0.732-1.562
			c-0.166-0.095-0.289-0.254-0.371-0.437c-0.084-0.185-0.131-0.377-0.131-0.551c0-0.33,0.152-0.709,0.443-1.068
			c-0.166-0.172-0.297-0.409-0.377-0.668c-0.084-0.254-0.131-0.532-0.131-0.791c0-0.586,0.229-1.096,0.633-1.459
			c0.4-0.367,0.968-0.586,1.636-0.586c0.454,0,0.856,0.1,1.188,0.281c0.26-0.193,0.555-0.353,0.826-0.459
			c0.271-0.107,0.531-0.16,0.738-0.16l0.271,0.772c-0.325,0.056-0.752,0.188-1.151,0.444c0.229,0.331,0.354,0.714,0.354,1.141
			c0,0.584-0.237,1.123-0.64,1.52c-0.407,0.396-0.981,0.644-1.647,0.644c-0.433,0-0.811-0.104-1.135-0.266
			c-0.137,0.173-0.209,0.343-0.209,0.502c0,0.308,0.266,0.551,0.758,0.551L365.727,56.918L365.727,56.918z"/>
	</g>
</g>
<g id="Layer_2">
	<g>
		<polygon fill="#49A894" points="339.397,31.968 335.69,42.726 333.487,42.726 329.78,31.968 331.775,31.968 334.59,40.137 
			337.403,31.968 339.397,31.968 		"/>
		<polygon fill="#49A894" points="342.324,30.922 342.565,30.922 342.565,42.566 340.684,42.566 340.684,31.083 342.324,30.922 		
			"/>
		<path fill="#49A894" d="M350.969,42.727c-0.611,0-1.254-0.193-1.874-0.877c-0.328,0.249-0.619,0.467-0.965,0.619
			c-0.354,0.161-0.747,0.258-1.287,0.258c-0.577,0-1.262-0.113-1.8-0.499c-0.547-0.386-0.95-1.045-0.95-2.164
			c0-0.73,0.178-1.318,0.628-1.712c0.45-0.394,1.183-0.611,2.3-0.611c0.45,0,0.974,0,1.713,0.065v-0.419
			c0-0.579-0.185-0.981-0.482-1.222c-0.297-0.241-0.7-0.337-1.15-0.337c-0.715,0-1.56,0.258-2.235,0.57l-0.441-1.64
			c0.876-0.418,1.994-0.708,3.047-0.708c0.829,0,1.599,0.176,2.18,0.611c0.571,0.434,0.933,1.118,0.933,2.139v3.103
			c0,0.395,0.128,0.667,0.354,0.862c0.217,0.192,0.523,0.313,0.885,0.385L350.969,42.727L350.969,42.727z M348.725,39.189
			c-0.877,0-1.56-0.017-2.025,0.096c-0.467,0.111-0.725,0.354-0.725,0.844c0,0.684,0.491,1.061,1.175,1.061
			c0.233,0,0.627-0.048,0.964-0.257c0.339-0.208,0.611-0.586,0.611-1.237V39.189L348.725,39.189z"/>
		<path fill="#49A894" d="M359.259,42.727c-0.611,0-1.254-0.193-1.873-0.877c-0.329,0.249-0.62,0.467-0.966,0.619
			c-0.354,0.161-0.747,0.258-1.285,0.258c-0.579,0-1.264-0.113-1.802-0.499c-0.546-0.386-0.949-1.045-0.949-2.164
			c0-0.73,0.177-1.318,0.628-1.712c0.451-0.394,1.182-0.611,2.3-0.611c0.449,0,0.973,0,1.712,0.065v-0.419
			c0-0.579-0.185-0.981-0.482-1.222c-0.299-0.241-0.698-0.337-1.148-0.337c-0.716,0-1.562,0.258-2.237,0.57l-0.442-1.64
			c0.877-0.418,1.995-0.708,3.048-0.708c0.829,0,1.6,0.176,2.18,0.611c0.57,0.434,0.933,1.118,0.933,2.139v3.103
			c0,0.395,0.128,0.667,0.354,0.862c0.218,0.192,0.523,0.313,0.886,0.385L359.259,42.727L359.259,42.727z M357.015,39.189
			c-0.877,0-1.559-0.017-2.025,0.096c-0.466,0.111-0.723,0.354-0.723,0.844c0,0.684,0.489,1.061,1.172,1.061
			c0.234,0,0.628-0.048,0.965-0.257c0.339-0.208,0.611-0.586,0.611-1.237V39.189L357.015,39.189z"/>
		<path fill="#49A894" d="M361.237,34.219h1.592l0.184,0.651c0.771-0.515,1.73-0.812,2.664-0.812c0.795,0,1.559,0.218,2.113,0.7
			c0.555,0.483,0.916,1.215,0.916,2.268v5.541h-1.88v-4.985c0-0.62-0.227-1.055-0.571-1.327c-0.346-0.274-0.812-0.385-1.319-0.385
			c-0.643,0-1.303,0.192-1.816,0.513v6.185h-1.882V34.219L361.237,34.219z"/>
		<path fill="#49A894" d="M377.714,42.565h-1.423l-0.339-0.628c-0.644,0.484-1.319,0.789-2.244,0.789
			c-1.197,0-2.09-0.483-2.677-1.223c-0.587-0.74-0.876-1.737-0.876-2.766c0-1.576,0.475-2.75,1.261-3.529
			c0.79-0.772,1.898-1.151,3.186-1.151c0.379,0,0.789,0.025,1.23,0.081v-3.056l1.593-0.161h0.289V42.565L377.714,42.565z
			 M375.832,35.987c-0.475-0.12-0.957-0.176-1.336-0.176c-0.715,0-1.317,0.209-1.736,0.643c-0.417,0.435-0.659,1.078-0.659,1.946
			c0,0.634,0.178,1.254,0.515,1.729c0.339,0.475,0.836,0.789,1.504,0.789c0.571,0,1.207-0.203,1.713-0.515V35.987L375.832,35.987z"
			/>
		<path fill="#49A894" d="M385.916,40.403v1.825c-0.739,0.362-1.658,0.499-2.374,0.499c-1.157,0-2.227-0.362-3.014-1.078
			c-0.789-0.716-1.287-1.809-1.287-3.257c0-1.407,0.467-2.484,1.174-3.223c0.699-0.733,1.641-1.11,2.581-1.11
			c0.266,0,0.739,0.032,1.23,0.201c0.49,0.168,1.03,0.49,1.432,1.045c0.402,0.554,0.683,1.375,0.683,2.532v1.255h-5.065
			c0.153,0.674,0.498,1.133,0.948,1.422c0.444,0.291,0.981,0.41,1.521,0.41c0.706,0,1.456-0.199,2.099-0.546L385.916,40.403
			L385.916,40.403z M384.62,37.604c-0.04-0.611-0.257-1.046-0.546-1.335c-0.289-0.281-0.66-0.402-1.021-0.402
			c-0.385,0-0.78,0.128-1.101,0.41c-0.331,0.289-0.58,0.724-0.7,1.327H384.62L384.62,37.604z"/>
		<path fill="#49A894" d="M392.806,36.293c-0.474-0.289-0.94-0.418-1.415-0.418c-0.61,0-1.174,0.226-1.681,0.611v6.08h-1.881v-8.347
			h1.592l0.193,0.683c0.579-0.49,1.287-0.844,2.123-0.844c0.225,0,0.539,0.017,0.843,0.072c0.307,0.056,0.604,0.137,0.822,0.257
			L392.806,36.293L392.806,36.293z"/>
		<path fill="#49A894" d="M400.559,40.403v1.825c-0.739,0.362-1.657,0.499-2.373,0.499c-1.157,0-2.228-0.362-3.015-1.078
			c-0.788-0.716-1.287-1.809-1.287-3.257c0-1.407,0.467-2.484,1.175-3.223c0.699-0.733,1.641-1.11,2.581-1.11
			c0.265,0,0.738,0.032,1.229,0.201c0.491,0.168,1.03,0.49,1.433,1.045c0.401,0.554,0.683,1.375,0.683,2.532v1.255h-5.065
			c0.152,0.674,0.498,1.133,0.948,1.422c0.442,0.291,0.981,0.41,1.52,0.41c0.707,0,1.456-0.199,2.1-0.546L400.559,40.403
			L400.559,40.403z M399.264,37.604c-0.04-0.611-0.258-1.046-0.547-1.335c-0.289-0.281-0.659-0.402-1.021-0.402
			c-0.386,0-0.78,0.128-1.101,0.41c-0.331,0.289-0.579,0.724-0.699,1.327H399.264L399.264,37.604z"/>
		<path fill="#49A894" d="M402.472,34.219h1.592l0.185,0.651c0.771-0.515,1.729-0.812,2.663-0.812c0.796,0,1.56,0.218,2.114,0.7
			c0.555,0.483,0.915,1.215,0.915,2.268v5.541h-1.881v-4.985c0-0.62-0.226-1.055-0.571-1.327c-0.347-0.274-0.812-0.385-1.318-0.385
			c-0.643,0-1.304,0.192-1.816,0.513v6.185h-1.882V34.219L402.472,34.219z"/>
		<polygon fill="#49A894" points="329.712,68.67 312.488,18.03 312.733,17.948 329.957,68.586 329.712,68.67 		"/>
		<path fill="#49A894" d="M312.838,43.204c-1.242-0.948-1.823,0.007-2.604-0.056c-0.662-0.052-1.282-1.119-1.793-0.864
			c-0.978,0.497,0.391,2.253,0.984,2.612c0.528,0.316,1.195,0.608,1.354,0.683c0.785,0.366,1.097,0.922,1.196,1.789
			c0.024,0.198,0,0.652-0.051,0.862c-0.356,1.521-3.02,2.902-4.548,1.857c-0.721-0.493-1.378-1.132-1.605-2.259
			c-0.411-1.999-1.854-3.467-2.316-5.422c-0.28-1.188-0.488-2.44-0.8-3.635c-0.313-1.236-0.639-2.46-0.897-3.582
			c-0.235-1.043-0.732-2.603-1.092-3.554c-1.46-3.813-2.12-3.535-2.12-3.535s0.532,1.057,2.466,10.404
			c0.08,0.381,0.783,4.499,1.297,5.854c0.183,0.485,0.504,1.523,0.714,1.982c0.615,1.339,2.239,3.37,2.348,5.199
			c0.062,1.058,0.181,1.934,0.207,2.734c0.016,0.234,0.118,1.188,0.271,1.612c0.396,1.116,3.598,4.719,6.998,4.719v-2.729
			c-3.378,0-6.561-1.894-6.639-2.093c-0.049-0.089,0.176-1.381,0.404-1.955c0.443-1.111,1.277-2.127,2.745-2.236
			c1.637-0.117,2.623,0.357,3.489,0.357L312.838,43.204L312.838,43.204z"/>
		<path fill="#49A894" d="M298.17,33.299c-0.124,2.044-3.287,4.839-4.278,6.63c-0.486,0.882-1.079,2.395-1.231,3.271
			c-0.42,2.438,0.112,3.954,0.707,5.38c1.048,2.51-0.142,3.431,0.678,2.923c1.013-0.826,0.858-2.75,0.784-3.953
			c-0.06-0.975-0.126-2.084,0.023-3.247c0.281-2.175,1.598-4.511,2.723-6.142C298.909,36.216,298.425,34.202,298.17,33.299"/>
		<path fill="#49A894" d="M298.807,39.104c0,0,0.338,1.619-1.091,5.782c-3.735,10.889,3.4,11.921,5.433,14.481
			c0,0,0.786-1.108-2.451-4.658c-1.182-1.298-2.248-4.156-1.319-8.238C300.722,40.56,298.807,39.104,298.807,39.104"/>
		<path fill="#49A894" d="M291.742,31.964c-0.17-0.643-0.223-1.218-0.186-1.731c0.174-2.559,2.497-3.595,3.076-3.977
			c0,0,1.046-0.715,1.179-1.438c0,0,1.07,2.694-1.382,4.237C293.184,29.838,292.339,30.756,291.742,31.964"/>
		<path fill="#49A894" d="M297.603,29.492c0.133,0.26,1.096,1.668-2.849,4.925c-3.938,3.251-2.708,5.575-2.708,5.575
			s-4.201-2.337,0.639-6.376c4.839-4.034,3.847-4.853,3.847-4.853S297.226,28.729,297.603,29.492"/>
		<path fill="#49A894" d="M302.723,30.738c0.682,0.089,1.115,2.214,2.69,2.677c1.159,0.337,2.392,0.154,2.665,0.852
			c-0.532,0.282-0.112,1.217,0.423,1.062C308.941,34.089,309.164,29.29,302.723,30.738 M304.845,31.694
			c0.058-0.153,0.141-0.03,0.312-0.138c0.185-0.175,0.374-0.459,0.673-0.556c0.214-0.064,0.509-0.034,0.709,0.043
			c0.133,0.034,0.053,0.377-0.048,0.465c-0.214,0.157-0.842-0.102-0.842,0.369c0.026,0.775,1.044-0.023,1.578-0.001
			C307.488,33.763,304.381,33.244,304.845,31.694"/>
		<path fill="#49A894" d="M333.449,48.89v4.798h-0.712V48.89H333.449L333.449,48.89z M332.599,47.582
			c0-0.277,0.218-0.495,0.495-0.495c0.276,0,0.499,0.218,0.499,0.495c0,0.268-0.231,0.489-0.499,0.489
			C332.834,48.071,332.599,47.84,332.599,47.582L332.599,47.582z"/>
		<path fill="#49A894" d="M334.633,52.868c0.305,0.121,0.758,0.241,1.104,0.241c0.505,0,1.207-0.231,1.207-0.776
			c0-0.254-0.144-0.421-0.361-0.555c-0.286-0.181-0.784-0.323-1.224-0.56c-0.505-0.268-0.735-0.656-0.735-1.16
			c0-0.915,0.758-1.262,1.632-1.262c0.352,0,0.693,0.056,0.975,0.134v0.647l-0.027,0.014c-0.254-0.069-0.726-0.152-1.059-0.152
			c-0.421,0-0.813,0.125-0.813,0.559c0,0.265,0.152,0.444,0.374,0.583c0.301,0.198,0.874,0.365,1.336,0.601
			c0.49,0.255,0.619,0.546,0.619,1.059c0,0.518-0.254,0.906-0.624,1.16c-0.374,0.255-0.863,0.379-1.34,0.379
			c-0.406,0-0.776-0.083-1.091-0.217v-0.671L334.633,52.868L334.633,52.868z"/>
		<path fill="#49A894" d="M341.696,51.266c0,0.499,0.125,0.966,0.379,1.298c0.254,0.338,0.629,0.551,1.128,0.551
			c0.48,0,0.846-0.194,1.091-0.514c0.245-0.318,0.369-0.771,0.369-1.284c0-0.504-0.124-0.971-0.369-1.309
			c-0.245-0.337-0.615-0.545-1.114-0.545c-0.48,0-0.851,0.193-1.1,0.518C341.831,50.304,341.696,50.762,341.696,51.266
			L341.696,51.266z M340.979,51.302c0-0.697,0.231-1.321,0.624-1.774c0.389-0.453,0.943-0.73,1.595-0.73s1.206,0.282,1.586,0.73
			c0.379,0.448,0.596,1.067,0.596,1.752c0,0.698-0.226,1.317-0.614,1.77c-0.394,0.453-0.952,0.73-1.604,0.73
			c-0.661,0-1.202-0.281-1.581-0.73C341.201,52.605,340.979,51.986,340.979,51.302L340.979,51.302z"/>
		<path fill="#49A894" d="M349.128,53.688v-3.032c0-0.443-0.093-0.744-0.25-0.934c-0.157-0.186-0.379-0.264-0.634-0.264
			c-0.401,0-0.78,0.181-1.137,0.453v3.776h-0.716V48.89h0.452l0.162,0.439c0.291-0.189,0.532-0.319,0.749-0.407
			s0.416-0.125,0.619-0.125c0.402,0,0.805,0.147,1.096,0.518c0.198-0.124,0.438-0.254,0.688-0.352
			c0.25-0.097,0.499-0.166,0.721-0.166c0.458,0,0.878,0.115,1.192,0.402c0.31,0.286,0.504,0.739,0.504,1.419v3.073h-0.717v-3.032
			c0-0.461-0.119-0.762-0.305-0.946c-0.188-0.186-0.452-0.255-0.744-0.255c-0.374,0-0.748,0.171-1.081,0.356
			c0.069,0.221,0.11,0.485,0.11,0.799v3.074H349.128L349.128,53.688z"/>
		<path fill="#49A894" d="M355.379,49.436c-0.356,0-0.63,0.134-0.813,0.323c-0.186,0.189-0.277,0.439-0.277,0.679
			c0,0.24,0.097,0.49,0.281,0.68s0.457,0.319,0.823,0.319c0.355,0,0.624-0.13,0.804-0.319c0.181-0.185,0.269-0.43,0.269-0.67
			s-0.093-0.495-0.273-0.688C356.007,49.564,355.734,49.436,355.379,49.436L355.379,49.436z M354.62,53.299
			c-0.259,0.296-0.425,0.67-0.425,1.003c0,0.282,0.078,0.526,0.264,0.697c0.185,0.172,0.476,0.273,0.901,0.273
			c0.48,0,0.892-0.157,1.188-0.383c0.291-0.223,0.458-0.519,0.458-0.81c0-0.355-0.209-0.55-0.541-0.661
			c-0.338-0.106-0.8-0.12-1.304-0.12H354.62L354.62,53.299z M355.799,52.684c0.661,0,1.146,0.152,1.466,0.402
			c0.314,0.25,0.471,0.592,0.471,0.947c0,0.522-0.318,0.989-0.785,1.322c-0.467,0.338-1.086,0.541-1.683,0.541
			c-0.55,0-0.994-0.171-1.299-0.448c-0.305-0.272-0.477-0.657-0.477-1.082c0-0.388,0.208-0.85,0.574-1.22
			c-0.13-0.074-0.227-0.199-0.292-0.343c-0.064-0.144-0.102-0.295-0.102-0.429c0-0.26,0.12-0.555,0.347-0.838
			c-0.129-0.133-0.23-0.318-0.296-0.521c-0.064-0.199-0.102-0.416-0.102-0.619c0-0.458,0.181-0.855,0.495-1.142
			c0.313-0.287,0.758-0.458,1.28-0.458c0.355,0,0.67,0.078,0.929,0.223c0.203-0.153,0.435-0.278,0.647-0.361
			c0.212-0.083,0.415-0.125,0.577-0.125l0.213,0.606c-0.254,0.041-0.587,0.147-0.901,0.346c0.181,0.26,0.277,0.56,0.277,0.893
			c0,0.458-0.186,0.878-0.499,1.188c-0.319,0.31-0.768,0.503-1.29,0.503c-0.337,0-0.633-0.083-0.887-0.207
			c-0.106,0.133-0.162,0.267-0.162,0.392c0,0.24,0.208,0.43,0.591,0.43H355.799L355.799,52.684z"/>
		<path fill="#49A894" d="M360.874,50.821c-0.01-0.749-0.204-1.358-0.952-1.358c-0.754,0-1.188,0.592-1.304,1.358H360.874
			L360.874,50.821z M361.576,51.469h-2.99c0.064,1.003,0.67,1.646,1.585,1.646c0.43,0,0.855-0.12,1.294-0.343l0.015,0.005v0.661
			c-0.499,0.245-0.935,0.342-1.378,0.342c-1.391,0-2.229-0.984-2.229-2.551c0-1.392,0.648-2.432,2.062-2.432
			c1.229,0,1.641,0.92,1.641,2.024V51.469L361.576,51.469z"/>
		<polygon fill="#49A894" points="364.566,53.688 363.609,53.688 361.964,48.89 362.703,48.89 364.091,52.925 365.477,48.89 
			366.216,48.89 364.566,53.688 		"/>
		<path fill="#49A894" d="M367.843,48.89v4.798h-0.712V48.89H367.843L367.843,48.89z M366.992,47.582
			c0-0.277,0.218-0.495,0.494-0.495c0.277,0,0.499,0.218,0.499,0.495c0,0.268-0.23,0.489-0.499,0.489
			C367.228,48.071,366.992,47.84,366.992,47.582L366.992,47.582z"/>
		<path fill="#49A894" d="M369.85,48.89l0.135,0.443c0.198-0.129,0.438-0.264,0.692-0.365s0.518-0.171,0.744-0.171
			c0.457,0,0.878,0.115,1.192,0.402c0.31,0.286,0.504,0.739,0.504,1.419v3.069H372.4v-3.028c0-0.461-0.119-0.762-0.305-0.946
			c-0.189-0.186-0.453-0.255-0.744-0.255c-0.222,0-0.448,0.06-0.666,0.148c-0.217,0.088-0.416,0.203-0.601,0.314v3.767h-0.716V48.89
			H369.85L369.85,48.89z"/>
		<path fill="#49A894" d="M375.922,49.436c-0.356,0-0.629,0.134-0.813,0.323s-0.277,0.439-0.277,0.679c0,0.24,0.097,0.49,0.282,0.68
			c0.185,0.189,0.457,0.319,0.822,0.319c0.356,0,0.624-0.13,0.804-0.319c0.181-0.185,0.269-0.43,0.269-0.67
			s-0.093-0.495-0.272-0.688C376.551,49.564,376.278,49.436,375.922,49.436L375.922,49.436z M375.164,53.299
			c-0.259,0.296-0.426,0.67-0.426,1.003c0,0.282,0.078,0.526,0.264,0.697c0.185,0.172,0.476,0.273,0.901,0.273
			c0.481,0,0.893-0.157,1.188-0.383c0.29-0.223,0.456-0.519,0.456-0.81c0-0.355-0.207-0.55-0.54-0.661
			c-0.338-0.106-0.799-0.12-1.304-0.12H375.164L375.164,53.299z M376.343,52.684c0.661,0,1.146,0.152,1.465,0.402
			c0.314,0.25,0.471,0.592,0.471,0.947c0,0.522-0.318,0.989-0.785,1.322c-0.467,0.338-1.086,0.541-1.683,0.541
			c-0.55,0-0.994-0.171-1.299-0.448c-0.305-0.272-0.476-0.657-0.476-1.082c0-0.388,0.208-0.85,0.573-1.22
			c-0.13-0.074-0.227-0.199-0.291-0.343s-0.103-0.295-0.103-0.429c0-0.26,0.12-0.555,0.347-0.838
			c-0.129-0.133-0.23-0.318-0.296-0.521c-0.064-0.199-0.102-0.416-0.102-0.619c0-0.458,0.181-0.855,0.495-1.142
			c0.314-0.287,0.758-0.458,1.279-0.458c0.356,0,0.671,0.078,0.93,0.223c0.203-0.153,0.435-0.278,0.646-0.361
			c0.213-0.083,0.416-0.125,0.578-0.125l0.214,0.606c-0.255,0.041-0.588,0.147-0.902,0.346c0.181,0.26,0.277,0.56,0.277,0.893
			c0,0.458-0.185,0.878-0.499,1.188c-0.318,0.31-0.768,0.503-1.29,0.503c-0.337,0-0.633-0.083-0.887-0.207
			c-0.106,0.133-0.161,0.267-0.161,0.392c0,0.24,0.208,0.43,0.591,0.43H376.343L376.343,52.684z"/>
		<path fill="#49A894" d="M378.791,52.868c0.306,0.121,0.759,0.241,1.105,0.241c0.503,0,1.206-0.231,1.206-0.776
			c0-0.254-0.144-0.421-0.36-0.555c-0.287-0.181-0.786-0.323-1.226-0.56c-0.503-0.268-0.734-0.656-0.734-1.16
			c0-0.915,0.758-1.262,1.632-1.262c0.352,0,0.693,0.056,0.975,0.134v0.647l-0.027,0.014c-0.254-0.069-0.726-0.152-1.059-0.152
			c-0.421,0-0.813,0.125-0.813,0.559c0,0.265,0.152,0.444,0.374,0.583c0.301,0.198,0.874,0.365,1.336,0.601
			c0.49,0.255,0.62,0.546,0.62,1.059c0,0.518-0.255,0.906-0.624,1.16c-0.375,0.255-0.865,0.379-1.341,0.379
			c-0.407,0-0.776-0.083-1.091-0.217v-0.671L378.791,52.868L378.791,52.868z"/>
		<path fill="#49A894" d="M383.547,52.976c0.314,0.125,0.624,0.147,0.938,0.147c1.031,0,1.65-0.79,1.65-1.928
			c0-0.979-0.448-1.732-1.451-1.732c-0.48,0-0.893,0.171-1.138,0.522V52.976L383.547,52.976z M383.501,46.994h0.046v2.224
			c0.338-0.259,0.735-0.421,1.234-0.421c1.304,0,2.07,1.114,2.07,2.464c0,1.469-0.859,2.519-2.417,2.519
			c-0.596,0-1.16-0.156-1.604-0.342v-6.351L383.501,46.994L383.501,46.994z"/>
		<path fill="#49A894" d="M390.493,50.821c-0.009-0.749-0.203-1.358-0.952-1.358c-0.753,0-1.188,0.592-1.303,1.358H390.493
			L390.493,50.821z M391.196,51.469h-2.991c0.065,1.003,0.67,1.646,1.586,1.646c0.43,0,0.855-0.12,1.294-0.343l0.015,0.005v0.661
			c-0.5,0.245-0.935,0.342-1.378,0.342c-1.391,0-2.229-0.984-2.229-2.551c0-1.392,0.647-2.432,2.062-2.432
			c1.23,0,1.642,0.92,1.642,2.024V51.469L391.196,51.469z"/>
		<polygon fill="#49A894" points="397.014,53.688 396.127,53.688 395.06,50.035 393.991,53.688 393.1,53.688 391.584,48.89 
			392.277,48.89 393.543,52.897 394.73,48.89 395.388,48.89 396.575,52.897 397.846,48.89 398.535,48.89 397.014,53.688 		"/>
		<path fill="#49A894" d="M402.562,53.688l-0.143-0.458c-0.199,0.129-0.444,0.269-0.702,0.375c-0.259,0.105-0.527,0.175-0.754,0.175
			c-0.457,0-0.878-0.12-1.188-0.406c-0.314-0.287-0.509-0.735-0.509-1.414V48.89h0.717v3.027c0,0.462,0.12,0.763,0.31,0.947
			c0.185,0.185,0.448,0.254,0.739,0.254c0.222,0,0.443-0.055,0.661-0.147c0.217-0.088,0.42-0.199,0.605-0.311V48.89h0.716v4.798
			H402.562L402.562,53.688z"/>
		<path fill="#49A894" d="M404.055,52.868c0.306,0.121,0.759,0.241,1.105,0.241c0.504,0,1.206-0.231,1.206-0.776
			c0-0.254-0.144-0.421-0.36-0.555c-0.287-0.181-0.786-0.323-1.226-0.56c-0.503-0.268-0.734-0.656-0.734-1.16
			c0-0.915,0.758-1.262,1.631-1.262c0.353,0,0.694,0.056,0.977,0.134v0.647l-0.028,0.014c-0.254-0.069-0.726-0.152-1.059-0.152
			c-0.42,0-0.813,0.125-0.813,0.559c0,0.265,0.153,0.444,0.374,0.583c0.301,0.198,0.874,0.365,1.336,0.601
			c0.49,0.255,0.62,0.546,0.62,1.059c0,0.518-0.254,0.906-0.625,1.16c-0.374,0.255-0.863,0.379-1.34,0.379
			c-0.407,0-0.776-0.083-1.091-0.217v-0.671L404.055,52.868L404.055,52.868z"/>
		<path fill="#49A894" d="M408.071,48.89V48.03l0.671-0.126h0.046v0.985h1.331v0.665h-1.331v2.357c0,0.439,0.097,0.735,0.249,0.929
			c0.153,0.195,0.37,0.277,0.615,0.277c0.277,0,0.587-0.105,0.901-0.286l0.193,0.656c-0.406,0.186-0.808,0.291-1.183,0.291
			c-0.421,0-0.786-0.129-1.058-0.43c-0.273-0.296-0.436-0.767-0.436-1.438v-2.357h-0.531V48.89H408.071L408.071,48.89z"/>
		<polygon fill="#49A894" points="30.806,42.119 22.249,42.119 17.902,33.423 17.649,53.593 9.065,53.593 9.542,16.621 
			18.126,16.621 26.485,33.508 34.761,16.621 43.345,16.621 43.934,53.593 35.35,53.593 35.013,33.536 30.806,42.119 		"/>
		<polygon fill="#49A894" points="59.25,16.621 59.25,53.593 50.666,53.593 50.666,16.621 59.25,16.621 		"/>
		<polygon fill="#49A894" points="74.818,53.593 66.262,53.593 66.262,16.621 74.818,16.621 88.619,38.669 88.619,16.621 
			97.174,16.621 97.174,53.593 88.619,53.593 74.818,31.572 74.818,53.593 		"/>
		<path fill="#49A894" d="M125.312,38.95l-4.769-13.914l-4.77,13.914H125.312L125.312,38.95z M112.997,47.001l-2.272,6.592h-9.061
			l12.707-36.972h12.511l12.736,36.972h-9.23l-2.272-6.592H112.997L112.997,47.001z"/>
		<path fill="#2E93BC" d="M11.33,61.014c0.405-0.256,0.787-0.489,1.161-0.652c0.374-0.155,0.74-0.248,1.137-0.248
			c0.686,0,1.38,0.271,1.847,0.893c0.374-0.24,0.771-0.466,1.2-0.629c0.429-0.155,0.865-0.264,1.325-0.264
			c0.615,0,1.262,0.187,1.76,0.605c0.491,0.419,0.834,1.072,0.834,1.98v4.792c0.304,0.039,0.592,0.086,0.779,0.124
			c0.031,0.062,0.047,0.202,0.047,0.335c0,0.132-0.023,0.264-0.078,0.326c-0.007,0.007-0.039,0.016-0.093,0.022
			c-0.117,0.009-0.296,0.024-0.491,0.024c-0.101,0.007-0.187,0.007-0.272,0.007h-0.67c-0.179,0-0.374-0.007-0.545-0.016
			c-0.085-0.007-0.164-0.007-0.218-0.016c-0.116-0.007-0.125-0.038-0.147-0.162c-0.016-0.055-0.024-0.117-0.024-0.187
			c0-0.133,0.016-0.272,0.047-0.335c0.187-0.038,0.476-0.085,0.779-0.124v-4.466c0-0.714-0.226-1.234-0.569-1.568
			c-0.351-0.334-0.818-0.49-1.31-0.49c-0.686,0-1.417,0.304-2.018,0.699c0.109,0.295,0.164,0.637,0.164,1.033v4.792
			c0.304,0.039,0.592,0.086,0.779,0.124c0.031,0.062,0.046,0.202,0.046,0.335c0,0.132-0.023,0.264-0.077,0.326
			c-0.008,0.007-0.04,0.016-0.094,0.022c-0.117,0.009-0.297,0.024-0.491,0.024c-0.101,0.007-0.187,0.007-0.273,0.007h-0.669
			c-0.18,0-0.374-0.007-0.546-0.016c-0.085-0.007-0.163-0.007-0.218-0.016c-0.117-0.007-0.125-0.038-0.148-0.162
			c-0.016-0.055-0.023-0.117-0.023-0.187c0-0.133,0.015-0.272,0.046-0.335c0.187-0.038,0.476-0.085,0.779-0.124v-4.466
			c0-0.714-0.187-1.234-0.482-1.568c-0.297-0.334-0.702-0.49-1.138-0.49c-0.366,0-0.725,0.109-1.083,0.28s-0.709,0.412-1.028,0.652
			v5.592c0.303,0.039,0.592,0.086,0.779,0.124c0.031,0.062,0.047,0.202,0.047,0.335c0,0.132-0.023,0.264-0.078,0.326
			c-0.008,0.007-0.04,0.016-0.094,0.022c-0.117,0.009-0.296,0.024-0.491,0.024c-0.102,0.007-0.187,0.007-0.273,0.007h-0.67
			c-0.179,0-0.374-0.007-0.545-0.016c-0.086-0.007-0.164-0.007-0.218-0.016c-0.117-0.007-0.125-0.038-0.148-0.162
			c-0.015-0.055-0.023-0.117-0.023-0.187c0-0.133,0.016-0.272,0.046-0.335c0.188-0.038,0.475-0.085,0.779-0.124v-6.462
			c-0.156,0-0.327-0.008-0.475-0.016s-0.266-0.022-0.304-0.031c-0.023-0.03-0.046-0.154-0.046-0.287
			c-0.008-0.132-0.008-0.287,0.023-0.372c0.226-0.069,0.507-0.125,0.764-0.156c0.132-0.015,0.25-0.03,0.366-0.038
			c0.109-0.008,0.202-0.008,0.272-0.016L11.33,61.014L11.33,61.014z"/>
		<path fill="#2E93BC" d="M24.983,58.272c0-0.179,0.078-0.334,0.202-0.459c0.125-0.116,0.289-0.193,0.468-0.193
			s0.343,0.077,0.468,0.193c0.125,0.125,0.202,0.28,0.202,0.459s-0.078,0.334-0.202,0.45c-0.125,0.124-0.289,0.202-0.468,0.202
			s-0.343-0.078-0.468-0.202C25.061,58.606,24.983,58.451,24.983,58.272L24.983,58.272z M26.098,67.491
			c0.304,0.039,0.592,0.086,0.779,0.124c0.031,0.062,0.046,0.202,0.046,0.335c0,0.132-0.023,0.264-0.078,0.326
			c-0.008,0.007-0.039,0.016-0.093,0.022c-0.117,0.009-0.297,0.024-0.491,0.024c-0.101,0.007-0.187,0.007-0.273,0.007h-0.669
			c-0.179,0-0.374-0.007-0.546-0.016c-0.085-0.007-0.163-0.007-0.218-0.016c-0.117-0.007-0.125-0.038-0.147-0.162
			c-0.016-0.055-0.023-0.117-0.023-0.187c0-0.133,0.015-0.272,0.046-0.335c0.187-0.038,0.476-0.085,0.779-0.124v-6.462
			c-0.156,0-0.335-0.008-0.482-0.016c-0.148-0.008-0.266-0.022-0.304-0.031c-0.024-0.03-0.047-0.154-0.047-0.287
			c-0.008-0.132-0.008-0.287,0.023-0.372c0.281-0.094,0.647-0.148,0.959-0.18c0.148-0.007,0.28-0.015,0.39-0.022
			c0.109-0.008,0.179-0.008,0.202-0.008h0.148V67.491L26.098,67.491z"/>
		<path fill="#2E93BC" d="M31.65,57.084v10.407c0.304,0.039,0.592,0.086,0.779,0.124c0.031,0.062,0.047,0.202,0.047,0.335
			c0,0.132-0.023,0.264-0.078,0.326c-0.007,0.007-0.039,0.016-0.093,0.022c-0.117,0.009-0.296,0.024-0.491,0.024
			c-0.101,0.007-0.187,0.007-0.272,0.007h-0.67c-0.18,0-0.374-0.007-0.546-0.016c-0.085-0.007-0.164-0.007-0.218-0.016
			c-0.117-0.007-0.125-0.038-0.148-0.162c-0.016-0.055-0.023-0.117-0.023-0.187c0-0.133,0.015-0.272,0.046-0.335
			c0.187-0.038,0.476-0.085,0.779-0.124V58c-0.156,0-0.335-0.008-0.483-0.015c-0.148-0.009-0.265-0.023-0.304-0.031
			c-0.023-0.031-0.046-0.155-0.046-0.288c-0.008-0.132-0.008-0.287,0.023-0.372c0.281-0.094,0.646-0.147,0.958-0.179
			c0.148-0.008,0.28-0.016,0.39-0.023c0.108-0.008,0.179-0.008,0.202-0.008H31.65L31.65,57.084z"/>
		<path fill="#2E93BC" d="M36.112,58.272c0-0.179,0.078-0.334,0.203-0.459c0.125-0.116,0.288-0.193,0.467-0.193
			c0.18,0,0.343,0.077,0.468,0.193c0.125,0.125,0.203,0.28,0.203,0.459s-0.078,0.334-0.203,0.45
			c-0.125,0.124-0.288,0.202-0.468,0.202c-0.179,0-0.343-0.078-0.467-0.202C36.189,58.606,36.112,58.451,36.112,58.272
			L36.112,58.272z M37.226,67.491c0.304,0.039,0.592,0.086,0.779,0.124c0.031,0.062,0.047,0.202,0.047,0.335
			c0,0.132-0.024,0.264-0.079,0.326c-0.007,0.007-0.038,0.016-0.093,0.022c-0.117,0.009-0.295,0.024-0.49,0.024
			c-0.102,0.007-0.187,0.007-0.272,0.007h-0.671c-0.179,0-0.374-0.007-0.545-0.016c-0.086-0.007-0.164-0.007-0.218-0.016
			c-0.117-0.007-0.125-0.038-0.148-0.162c-0.016-0.055-0.024-0.117-0.024-0.187c0-0.133,0.016-0.272,0.047-0.335
			c0.187-0.038,0.475-0.085,0.779-0.124v-6.462c-0.156,0-0.335-0.008-0.484-0.016c-0.148-0.008-0.265-0.022-0.304-0.031
			c-0.023-0.03-0.046-0.154-0.046-0.287c-0.008-0.132-0.008-0.287,0.023-0.372c0.281-0.094,0.646-0.148,0.958-0.18
			c0.148-0.007,0.281-0.015,0.39-0.022s0.179-0.008,0.203-0.008h0.148V67.491L37.226,67.491z"/>
		<path fill="#2E93BC" d="M44.212,60.967c-0.748,0-1.301,0.28-1.691,0.746c-0.389,0.474-0.615,1.142-0.686,1.895h4.13
			c0-0.69-0.07-1.351-0.32-1.84C45.389,61.278,44.953,60.967,44.212,60.967L44.212,60.967z M46.893,64.486h-5.089
			c0.04,1.064,0.375,1.849,0.896,2.368c0.522,0.528,1.216,0.785,1.995,0.785c0.398,0,0.733-0.047,1.076-0.148
			c0.343-0.093,0.678-0.24,1.075-0.435l0.031,0.023v0.831c-0.834,0.412-1.566,0.575-2.314,0.575c-1.005,0-1.925-0.334-2.587-1.033
			c-0.663-0.699-1.083-1.764-1.083-3.254c0-1.15,0.226-2.184,0.756-2.913c0.53-0.73,1.364-1.173,2.58-1.173
			c0.81,0,1.363,0.217,1.761,0.559c0.397,0.35,0.615,0.816,0.74,1.336c0.125,0.521,0.156,1.08,0.164,1.6V64.486L46.893,64.486z"/>
		<path fill="#2E93BC" d="M56.686,60.113v7.378c0.079,0,0.179,0,0.312,0c0.25,0,0.499,0.016,0.686,0.023
			c0.187,0.009,0.179-0.008,0.211,0.171c0.015,0.094,0.023,0.187,0.023,0.28c0,0.132-0.016,0.232-0.055,0.295
			c-0.312,0.093-0.693,0.155-1.021,0.187c-0.163,0.016-0.312,0.022-0.428,0.031c-0.125,0.008-0.203,0.008-0.226,0.008h-0.046
			l-0.281-0.917c-0.382,0.248-0.795,0.481-1.231,0.645s-0.896,0.272-1.34,0.272c-0.623,0-1.278-0.194-1.769-0.614
			c-0.499-0.419-0.841-1.064-0.841-1.973v-4.87c-0.155,0-0.327-0.008-0.475-0.016s-0.265-0.022-0.304-0.031
			c-0.023-0.03-0.046-0.154-0.046-0.287c-0.007-0.132-0.007-0.287,0.023-0.372c0.281-0.094,0.647-0.148,0.958-0.18
			c0.148-0.007,0.281-0.015,0.39-0.022c0.109-0.008,0.18-0.008,0.203-0.008h0.147v5.46c0,0.715,0.226,1.234,0.569,1.569
			c0.343,0.342,0.811,0.497,1.301,0.497c0.414,0,0.842-0.109,1.247-0.288c0.398-0.179,0.779-0.404,1.099-0.652v-5.67
			c-0.156,0-0.327-0.008-0.476-0.016c-0.148-0.008-0.264-0.022-0.304-0.031c-0.023-0.03-0.047-0.154-0.047-0.287
			c-0.007-0.132-0.007-0.287,0.024-0.372c0.281-0.094,0.646-0.148,0.958-0.18c0.148-0.007,0.281-0.015,0.39-0.022
			c0.109-0.008,0.18-0.008,0.203-0.008H56.686L56.686,60.113z"/>
		<path fill="#2E93BC" d="M68.784,60.314c0,0.428,0.117,0.785,0.304,1.096c0.179,0.318,0.413,0.605,0.662,0.854
			c0.85-0.373,1.356-0.77,1.645-1.142c0.288-0.373,0.358-0.729,0.358-1.033c0-0.505-0.241-0.839-0.553-1.041
			c-0.312-0.202-0.702-0.279-1.014-0.279C69.345,58.77,68.784,59.352,68.784,60.314L68.784,60.314z M70.256,67.631
			c0.99,0,1.816-0.372,2.44-1.087l-3.312-3.293c-0.382,0.241-0.756,0.521-1.028,0.885c-0.281,0.373-0.459,0.823-0.459,1.383
			c0,0.614,0.21,1.143,0.615,1.515C68.917,67.406,69.509,67.631,70.256,67.631L70.256,67.631z M74.293,62.762l0.779,0.318
			c-0.101,0.621-0.28,1.258-0.491,1.841c-0.21,0.582-0.452,1.103-0.693,1.515l1.387,1.405l-0.631,0.646l-1.333-1.321
			c-0.81,0.878-1.839,1.321-3.055,1.321c-0.943,0-1.769-0.28-2.353-0.793c-0.585-0.513-0.935-1.258-0.935-2.197
			c0-1.212,0.584-2.051,1.823-2.797c-0.53-0.552-0.919-1.289-0.919-2.291c0-0.723,0.203-1.344,0.608-1.778
			c0.396-0.436,0.989-0.691,1.776-0.691c0.592,0,1.201,0.147,1.661,0.489c0.459,0.342,0.763,0.877,0.763,1.654
			c0,0.8-0.304,1.359-0.756,1.794c-0.452,0.436-1.044,0.737-1.582,1.01l2.892,2.881c0.241-0.457,0.459-0.985,0.63-1.514
			c0.172-0.521,0.297-1.033,0.367-1.491H74.293L74.293,62.762z"/>
		<path fill="#2E93BC" d="M90.607,68.33c-0.179,0-0.375-0.007-0.545-0.016c-0.086-0.007-0.164-0.007-0.219-0.016
			c-0.117-0.007-0.124-0.038-0.148-0.162c-0.015-0.055-0.023-0.117-0.023-0.187c0-0.133,0.016-0.272,0.047-0.335
			c0.187-0.038,0.475-0.085,0.779-0.124v-4.466c0-0.714-0.226-1.234-0.569-1.568c-0.343-0.334-0.81-0.49-1.301-0.49
			c-0.413,0-0.841,0.109-1.239,0.28c-0.405,0.171-0.787,0.403-1.106,0.652v5.592c0.304,0.039,0.592,0.086,0.779,0.124
			c0.031,0.062,0.046,0.202,0.046,0.335c0,0.132-0.023,0.264-0.077,0.326c-0.008,0.007-0.039,0.016-0.093,0.022
			c-0.117,0.009-0.297,0.024-0.492,0.024c-0.101,0.007-0.187,0.007-0.273,0.007h-0.669c-0.18,0-0.374-0.007-0.546-0.016
			c-0.085-0.007-0.164-0.007-0.218-0.016c-0.117-0.007-0.125-0.038-0.148-0.162c-0.015-0.055-0.023-0.117-0.023-0.187
			c0-0.133,0.016-0.272,0.046-0.335c0.187-0.038,0.476-0.085,0.779-0.124v-6.462c-0.155,0-0.327-0.008-0.475-0.016
			c-0.148-0.008-0.265-0.022-0.304-0.031c-0.023-0.03-0.046-0.154-0.046-0.287c-0.007-0.132-0.007-0.287,0.023-0.372
			c0.227-0.069,0.507-0.125,0.764-0.156c0.132-0.015,0.249-0.03,0.366-0.038c0.108-0.008,0.202-0.008,0.272-0.016l0.265,0.9
			c0.772-0.497,1.605-0.9,2.518-0.9c0.623,0,1.278,0.187,1.776,0.605c0.491,0.419,0.834,1.072,0.834,1.98v4.792
			c0.303,0.039,0.592,0.086,0.779,0.124c0.031,0.062,0.047,0.202,0.047,0.335c0,0.132-0.023,0.264-0.078,0.326
			c-0.007,0.007-0.039,0.016-0.093,0.022c-0.117,0.009-0.296,0.024-0.491,0.024c-0.102,0.007-0.187,0.007-0.273,0.007H90.607
			L90.607,68.33z"/>
		<path fill="#2E93BC" d="M100.019,64.579c-0.289-0.031-0.522-0.055-0.717-0.062c-0.102,0-0.187,0-0.273-0.009
			c-0.086,0-0.171,0-0.257,0c-0.312,0-0.702,0-1.076,0.055c-0.374,0.062-0.749,0.171-1.021,0.389
			c-0.272,0.218-0.452,0.535-0.452,1.01c0,0.458,0.156,0.87,0.467,1.172c0.304,0.311,0.741,0.506,1.302,0.506
			c0.865,0,1.55-0.428,2.026-1.336V64.579L100.019,64.579z M95.865,60.688c0.756-0.35,1.652-0.574,2.462-0.574
			c0.694,0,1.341,0.163,1.816,0.574c0.467,0.412,0.763,1.08,0.763,2.082v2.857c0,0.475,0.093,0.925,0.296,1.282
			c0.202,0.357,0.514,0.638,0.95,0.737l-0.506,0.84c-0.592-0.194-1.044-0.669-1.293-1.259c-0.21,0.365-0.53,0.676-0.943,0.9
			c-0.413,0.226-0.919,0.358-1.488,0.358c-0.351,0-0.771-0.055-1.153-0.203c-0.382-0.146-0.748-0.38-1.02-0.753
			c-0.273-0.365-0.445-0.854-0.445-1.53c0-0.753,0.218-1.336,0.717-1.731c0.499-0.396,1.278-0.598,2.377-0.598
			c0.413,0,0.904,0.03,1.621,0.093v-1.119c0-0.621-0.218-1.048-0.538-1.312c-0.32-0.265-0.764-0.366-1.208-0.366
			c-0.405,0-0.903,0.086-1.426,0.241c-0.031,0.28-0.078,0.591-0.117,0.854c-0.023,0.132-0.039,0.249-0.055,0.35
			c-0.023,0.101-0.039,0.163-0.054,0.194c-0.18,0.031-0.476,0.016-0.654-0.07c-0.008-0.031-0.016-0.124-0.023-0.279
			c-0.024-0.311-0.047-0.723-0.062-1.11C95.874,60.952,95.865,60.805,95.865,60.688L95.865,60.688z"/>
		<path fill="#2E93BC" d="M109.766,68.105c-0.538,0.209-1.044,0.381-1.668,0.381c-0.584,0-1.176-0.156-1.621-0.567
			c-0.444-0.412-0.748-1.087-0.748-2.144v-4.629h-0.88v-0.878h0.88v-1.461l0.803-0.147h0.093v1.608h1.987v0.878h-1.987v4.147
			c0,0.846,0.149,1.429,0.421,1.794c0.272,0.372,0.654,0.527,1.122,0.527c0.195,0,0.39-0.022,0.583-0.077
			c0.032-0.279,0.086-0.637,0.133-0.947c0.023-0.155,0.047-0.296,0.071-0.412c0.023-0.116,0.038-0.186,0.054-0.226
			c0.179-0.03,0.476-0.016,0.655,0.07c0.008,0.023,0.008,0.078,0.016,0.163c0.007,0.093,0.015,0.202,0.023,0.334
			c0.015,0.256,0.031,0.575,0.039,0.87c0.008,0.147,0.008,0.287,0.016,0.411C109.766,67.935,109.766,68.035,109.766,68.105
			L109.766,68.105z"/>
		<path fill="#2E93BC" d="M119.247,60.113v7.378c0.077,0,0.179,0,0.312,0c0.25,0,0.499,0.016,0.686,0.023
			c0.188,0.009,0.179-0.008,0.21,0.171c0.015,0.094,0.023,0.187,0.023,0.28c0,0.132-0.015,0.232-0.054,0.295
			c-0.312,0.093-0.694,0.155-1.021,0.187c-0.164,0.016-0.312,0.022-0.429,0.031c-0.125,0.008-0.203,0.008-0.226,0.008h-0.047
			l-0.281-0.917c-0.382,0.248-0.794,0.481-1.23,0.645c-0.437,0.163-0.896,0.272-1.34,0.272c-0.623,0-1.278-0.194-1.769-0.614
			c-0.499-0.419-0.841-1.064-0.841-1.973v-4.87c-0.156,0-0.328-0.008-0.476-0.016s-0.265-0.022-0.304-0.031
			c-0.024-0.03-0.047-0.154-0.047-0.287c-0.008-0.132-0.008-0.287,0.023-0.372c0.281-0.094,0.647-0.148,0.959-0.18
			c0.148-0.007,0.28-0.015,0.39-0.022c0.109-0.008,0.179-0.008,0.202-0.008h0.148v5.46c0,0.715,0.226,1.234,0.569,1.569
			c0.343,0.342,0.81,0.497,1.301,0.497c0.413,0,0.841-0.109,1.247-0.288c0.397-0.179,0.779-0.404,1.098-0.652v-5.67
			c-0.156,0-0.327-0.008-0.475-0.016c-0.148-0.008-0.266-0.022-0.305-0.031c-0.023-0.03-0.046-0.154-0.046-0.287
			c-0.008-0.132-0.008-0.287,0.023-0.372c0.281-0.094,0.647-0.148,0.959-0.18c0.148-0.007,0.28-0.015,0.389-0.022
			s0.179-0.008,0.203-0.008H119.247L119.247,60.113z"/>
		<path fill="#2E93BC" d="M129.96,60.113v7.378c0.078,0,0.18,0,0.312,0c0.249,0,0.499,0.016,0.686,0.023
			c0.187,0.009,0.179-0.008,0.21,0.171c0.016,0.094,0.023,0.187,0.023,0.28c0,0.132-0.016,0.232-0.055,0.295
			c-0.312,0.093-0.694,0.155-1.021,0.187c-0.164,0.016-0.312,0.022-0.429,0.031c-0.124,0.008-0.202,0.008-0.225,0.008h-0.047
			l-0.281-0.917c-0.381,0.248-0.793,0.481-1.23,0.645c-0.436,0.163-0.896,0.272-1.34,0.272c-0.623,0-1.278-0.194-1.769-0.614
			c-0.499-0.419-0.842-1.064-0.842-1.973v-4.87c-0.156,0-0.327-0.008-0.475-0.016c-0.148-0.008-0.265-0.022-0.304-0.031
			c-0.023-0.03-0.046-0.154-0.046-0.287c-0.008-0.132-0.008-0.287,0.023-0.372c0.28-0.094,0.647-0.148,0.959-0.18
			c0.148-0.007,0.28-0.015,0.39-0.022c0.109-0.008,0.179-0.008,0.203-0.008h0.148v5.46c0,0.715,0.226,1.234,0.569,1.569
			c0.343,0.342,0.81,0.497,1.302,0.497c0.413,0,0.841-0.109,1.246-0.288c0.397-0.179,0.779-0.404,1.099-0.652v-5.67
			c-0.156,0-0.327-0.008-0.475-0.016c-0.148-0.008-0.266-0.022-0.304-0.031c-0.024-0.03-0.047-0.154-0.047-0.287
			c-0.008-0.132-0.008-0.287,0.023-0.372c0.28-0.094,0.646-0.148,0.959-0.18c0.147-0.007,0.28-0.015,0.39-0.022
			c0.109-0.008,0.179-0.008,0.202-0.008H129.96L129.96,60.113z"/>
		<path fill="#2E93BC" d="M135.694,61.1c0.601-0.652,1.302-0.986,2.019-0.986c0.398,0,0.741,0.085,1.106,0.24
			c0,0.226-0.015,0.652-0.039,1.041c-0.016,0.194-0.031,0.373-0.039,0.528s-0.016,0.249-0.023,0.279
			c-0.18,0.085-0.475,0.101-0.654,0.071c-0.032-0.063-0.07-0.25-0.102-0.498c-0.039-0.241-0.085-0.528-0.117-0.8
			c-0.07-0.009-0.14-0.016-0.21-0.016c-0.787,0-1.387,0.388-1.948,1.126v5.405c0.303,0.039,0.592,0.086,0.779,0.124
			c0.031,0.062,0.046,0.202,0.046,0.335c0,0.132-0.023,0.264-0.078,0.326c-0.009,0.007-0.039,0.016-0.093,0.022
			c-0.117,0.009-0.297,0.024-0.491,0.024c-0.101,0.007-0.187,0.007-0.274,0.007h-0.669c-0.179,0-0.374-0.007-0.546-0.016
			c-0.085-0.007-0.163-0.007-0.218-0.016c-0.117-0.007-0.125-0.038-0.148-0.162c-0.015-0.055-0.023-0.117-0.023-0.187
			c0-0.133,0.016-0.272,0.046-0.335c0.188-0.038,0.476-0.085,0.779-0.124v-6.462c-0.156,0-0.326-0.008-0.475-0.016
			s-0.257-0.022-0.296-0.031c-0.023-0.03-0.046-0.154-0.046-0.287c-0.008-0.132-0.008-0.287,0.023-0.372
			c0.226-0.069,0.506-0.125,0.763-0.156c0.133-0.015,0.249-0.03,0.366-0.038c0.109-0.008,0.203-0.008,0.273-0.016L135.694,61.1
			L135.694,61.1z"/>
		<path fill="#2E93BC" d="M148.173,36.942h3.715c4.023,0,7.292-0.503,9.583-1.789c2.291-1.285,3.548-3.38,3.548-6.537
			c0-3.353-1.201-5.448-3.38-6.705c-2.179-1.229-5.28-1.648-9.052-1.648h-4.414V36.942L148.173,36.942z M143.842,16.212h9.023
			c6.146,0,10.226,0.95,12.795,2.934c2.57,2.011,3.605,5.001,3.605,9.107c0,2.822-0.56,5.057-1.649,6.817
			c-1.09,1.788-2.654,3.045-4.582,3.939c0.446,1.145,1.229,2.598,2.235,4.079c0.978,1.481,2.151,2.989,3.408,4.219
			c1.229,1.257,2.515,2.29,3.743,2.765l-2.374,3.521c-1.453-0.308-2.961-1.425-4.387-2.961c-1.453-1.537-2.821-3.408-3.995-5.28
			c-1.173-1.872-2.151-3.66-2.793-5.001c-2.375,0.475-5.084,0.643-8.018,0.643h-2.682v12.041h-4.331V16.212L143.842,16.212z"/>
		<path fill="#2E93BC" d="M196.851,40.435L190.09,20.85l-6.761,19.584H196.851L196.851,40.435z M181.96,44.458l-2.962,8.577h-4.47
			l12.655-36.822h5.783l12.684,36.822h-4.47l-2.962-8.577H181.96L181.96,44.458z"/>
		<path fill="#2E93BC" d="M229.381,40.435L222.62,20.85l-6.761,19.584H229.381L229.381,40.435z M214.49,44.458l-2.961,8.577h-4.47
			l12.656-36.822h5.783l12.684,36.822h-4.471l-2.961-8.577H214.49L214.49,44.458z"/>
		<path fill="#2E93BC" d="M247.69,49.011h6.537c4.47,0,8.046-1.452,10.532-3.911c2.459-2.458,3.827-5.951,3.827-10.058
			c0-4.386-1.676-8.102-4.357-10.7c-2.683-2.598-6.398-4.107-10.449-4.107h-6.09V49.011L247.69,49.011z M243.359,16.212h10.421
			c5.364,0,10.169,1.928,13.605,5.168c3.437,3.269,5.532,7.851,5.532,13.214c0,5.364-1.984,9.974-5.309,13.215
			c-3.324,3.268-8.018,5.224-13.382,5.224h-10.868V16.212L243.359,16.212z"/>
	</g>
</g>
</svg>
