<?xml version="1.0" encoding="iso-8859-1"?>
<!-- Generator: Adobe Illustrator 16.0.4, SVG Export Plug-In . SVG Version: 6.00 Build 0)  -->
<!DOCTYPE svg PUBLIC "-//W3C//DTD SVG 1.1//EN" "http://www.w3.org/Graphics/SVG/1.1/DTD/svg11.dtd">
<svg version="1.1" id="Layer_1" xmlns="http://www.w3.org/2000/svg" xmlns:xlink="http://www.w3.org/1999/xlink" x="0px" y="0px"
	 width="420px" height="90px" viewBox="0 0 420 90" style="enable-background:new 0 0 420 90;" xml:space="preserve">
<polygon style="fill:#4AA894;" points="28.774,42.034 21.384,42.034 17.631,34.524 17.413,51.943 10,51.943 10.413,20.015 
	17.825,20.015 25.043,34.598 32.19,20.015 39.604,20.015 40.112,51.943 32.698,51.943 32.407,34.622 "/>
<rect x="45.926" y="20.014" style="fill:#4AA894;" width="7.412" height="31.929"/>
<polygon style="fill:#4AA894;" points="66.783,51.941 59.393,51.941 59.393,20.014 66.783,20.014 78.7,39.055 78.7,20.014 
	86.088,20.014 86.088,51.941 78.7,51.941 66.783,32.925 "/>
<path style="fill:#4AA894;" d="M110.387,39.297l-4.119-12.016l-4.117,12.016H110.387z M99.752,46.249l-1.963,5.693h-7.823
	l10.973-31.929h10.804l10.998,31.929h-7.97l-1.963-5.693H99.752z"/>
<g>
	<path style="fill:#2E94BD;" d="M11.959,61.593c0.351-0.222,0.681-0.424,1.005-0.564c0.324-0.135,0.641-0.215,0.984-0.215
		c0.594,0,1.193,0.234,1.599,0.772c0.323-0.208,0.667-0.402,1.038-0.545c0.37-0.134,0.748-0.228,1.145-0.228
		c0.533,0,1.093,0.161,1.524,0.524c0.426,0.361,0.722,0.927,0.722,1.712v4.145c0.263,0.033,0.512,0.075,0.674,0.108
		c0.027,0.054,0.041,0.175,0.041,0.288c0,0.114-0.02,0.229-0.067,0.281c-0.007,0.009-0.034,0.015-0.081,0.021
		c-0.101,0.006-0.257,0.021-0.425,0.021c-0.088,0.007-0.162,0.007-0.236,0.007h-0.58c-0.155,0-0.324-0.007-0.472-0.014
		c-0.074-0.008-0.142-0.008-0.189-0.014c-0.101-0.007-0.108-0.034-0.128-0.14c-0.013-0.049-0.021-0.103-0.021-0.163
		c0-0.113,0.014-0.234,0.041-0.288c0.162-0.033,0.412-0.075,0.674-0.108v-3.862c0-0.618-0.196-1.067-0.492-1.357
		c-0.303-0.288-0.707-0.422-1.133-0.422c-0.593,0-1.227,0.261-1.746,0.604c0.094,0.256,0.142,0.551,0.142,0.894v4.145
		c0.263,0.033,0.512,0.075,0.674,0.108c0.027,0.054,0.04,0.175,0.04,0.288c0,0.114-0.02,0.229-0.067,0.281
		c-0.007,0.009-0.034,0.015-0.081,0.021c-0.101,0.006-0.256,0.021-0.425,0.021c-0.088,0.007-0.162,0.007-0.236,0.007h-0.579
		c-0.155,0-0.324-0.007-0.472-0.014c-0.074-0.008-0.142-0.008-0.189-0.014c-0.101-0.007-0.108-0.034-0.128-0.14
		c-0.014-0.049-0.021-0.103-0.021-0.163c0-0.113,0.014-0.234,0.041-0.288c0.161-0.033,0.411-0.075,0.674-0.108v-3.862
		c0-0.618-0.162-1.067-0.418-1.357c-0.256-0.288-0.607-0.422-0.984-0.422c-0.317,0-0.627,0.094-0.938,0.241
		c-0.31,0.147-0.613,0.355-0.889,0.564v4.836c0.263,0.033,0.512,0.075,0.673,0.108c0.027,0.054,0.041,0.175,0.041,0.288
		c0,0.114-0.02,0.229-0.067,0.281c-0.007,0.009-0.034,0.015-0.081,0.021c-0.101,0.006-0.256,0.021-0.425,0.021
		c-0.088,0.007-0.162,0.007-0.236,0.007h-0.58c-0.155,0-0.324-0.007-0.472-0.014c-0.074-0.008-0.141-0.008-0.188-0.014
		c-0.101-0.007-0.109-0.034-0.129-0.14c-0.013-0.049-0.02-0.103-0.02-0.163c0-0.113,0.013-0.234,0.04-0.288
		c0.163-0.033,0.412-0.075,0.675-0.108v-5.589c-0.135,0-0.284-0.007-0.411-0.013c-0.128-0.007-0.229-0.021-0.264-0.027
		c-0.02-0.027-0.04-0.134-0.04-0.249c-0.007-0.114-0.007-0.248,0.02-0.323c0.195-0.06,0.438-0.106,0.661-0.134
		c0.115-0.012,0.216-0.027,0.317-0.033c0.094-0.006,0.175-0.006,0.236-0.013L11.959,61.593z"/>
	<path style="fill:#2E94BD;" d="M23.749,59.222c0-0.155,0.068-0.29,0.175-0.396c0.108-0.101,0.25-0.169,0.404-0.169
		c0.156,0,0.297,0.068,0.405,0.169c0.108,0.106,0.176,0.241,0.176,0.396c0,0.154-0.068,0.288-0.176,0.388
		c-0.108,0.108-0.249,0.176-0.405,0.176c-0.154,0-0.296-0.067-0.404-0.176C23.816,59.51,23.749,59.376,23.749,59.222 M24.712,60.813
		v6.381c0.263,0.033,0.513,0.074,0.674,0.108c0.027,0.054,0.041,0.175,0.041,0.288c0,0.115-0.021,0.229-0.068,0.282
		c-0.006,0.008-0.033,0.014-0.081,0.021c-0.101,0.006-0.255,0.021-0.424,0.021c-0.088,0.007-0.162,0.007-0.237,0.007h-0.579
		c-0.156,0-0.324-0.007-0.472-0.013c-0.074-0.009-0.141-0.009-0.189-0.015c-0.101-0.007-0.108-0.034-0.128-0.14
		c-0.014-0.048-0.02-0.103-0.02-0.163c0-0.113,0.013-0.234,0.04-0.288c0.162-0.034,0.411-0.075,0.675-0.108v-5.589
		c-0.136,0-0.291-0.007-0.418-0.013c-0.128-0.007-0.229-0.021-0.264-0.027c-0.02-0.026-0.04-0.134-0.04-0.249
		c-0.007-0.113-0.007-0.248,0.02-0.322c0.243-0.08,0.56-0.127,0.829-0.154l0.338-0.021c0.094-0.006,0.155-0.006,0.175-0.006H24.712z
		"/>
	<path style="fill:#2E94BD;" d="M29.494,58.193v9.001c0.263,0.033,0.512,0.074,0.674,0.108c0.027,0.054,0.04,0.175,0.04,0.288
		c0,0.115-0.02,0.229-0.067,0.282c-0.007,0.008-0.034,0.014-0.081,0.021c-0.101,0.006-0.256,0.021-0.425,0.021
		c-0.088,0.007-0.162,0.007-0.236,0.007H28.82c-0.156,0-0.324-0.007-0.472-0.013c-0.074-0.009-0.142-0.009-0.189-0.015
		c-0.101-0.007-0.108-0.033-0.128-0.141c-0.014-0.047-0.021-0.101-0.021-0.162c0-0.113,0.014-0.234,0.041-0.288
		c0.162-0.034,0.411-0.075,0.674-0.108v-8.208c-0.135,0-0.29-0.007-0.418-0.014c-0.128-0.008-0.229-0.021-0.263-0.026
		c-0.02-0.027-0.04-0.136-0.04-0.248c-0.008-0.115-0.008-0.249,0.02-0.324c0.242-0.079,0.559-0.127,0.829-0.154l0.337-0.021
		c0.095-0.006,0.155-0.006,0.176-0.006H29.494z"/>
	<path style="fill:#2E94BD;" d="M33.345,59.222c0-0.155,0.068-0.29,0.175-0.396c0.108-0.101,0.25-0.169,0.404-0.169
		c0.156,0,0.297,0.068,0.405,0.169c0.108,0.106,0.176,0.241,0.176,0.396c0,0.154-0.068,0.288-0.176,0.388
		c-0.108,0.108-0.249,0.176-0.405,0.176c-0.154,0-0.296-0.067-0.404-0.176C33.413,59.51,33.345,59.376,33.345,59.222 M34.309,60.813
		v6.381c0.263,0.033,0.513,0.074,0.674,0.108c0.027,0.054,0.041,0.175,0.041,0.288c0,0.115-0.021,0.229-0.068,0.282
		c-0.006,0.008-0.033,0.014-0.081,0.021c-0.101,0.006-0.256,0.021-0.424,0.021c-0.088,0.007-0.162,0.007-0.237,0.007h-0.579
		c-0.156,0-0.324-0.007-0.472-0.013c-0.075-0.009-0.142-0.009-0.189-0.015c-0.101-0.007-0.108-0.034-0.128-0.14
		c-0.014-0.048-0.02-0.103-0.02-0.163c0-0.113,0.013-0.234,0.04-0.288c0.162-0.034,0.411-0.075,0.675-0.108v-5.589
		c-0.136,0-0.291-0.007-0.418-0.013c-0.129-0.007-0.23-0.021-0.264-0.027c-0.02-0.026-0.041-0.134-0.041-0.249
		c-0.006-0.113-0.006-0.248,0.021-0.322c0.243-0.08,0.56-0.127,0.83-0.154l0.337-0.021c0.094-0.006,0.155-0.006,0.175-0.006H34.309z
		"/>
	<path style="fill:#2E94BD;" d="M40.339,61.553c-0.648,0-1.127,0.24-1.464,0.646c-0.337,0.408-0.532,0.986-0.593,1.638h3.573
		c0-0.597-0.06-1.168-0.276-1.592C41.356,61.819,40.979,61.553,40.339,61.553 M42.658,64.596h-4.403
		c0.034,0.92,0.323,1.599,0.776,2.048c0.451,0.457,1.051,0.681,1.726,0.681c0.344,0,0.633-0.042,0.93-0.13
		c0.297-0.079,0.586-0.208,0.93-0.376l0.027,0.021v0.719c-0.721,0.356-1.355,0.496-2.002,0.496c-0.87,0-1.665-0.288-2.239-0.893
		c-0.573-0.604-0.937-1.524-0.937-2.814c0-0.995,0.195-1.888,0.654-2.519c0.458-0.633,1.18-1.015,2.231-1.015
		c0.702,0,1.181,0.188,1.524,0.483c0.344,0.302,0.533,0.705,0.641,1.156c0.108,0.449,0.135,0.933,0.142,1.383V64.596z"/>
	<path style="fill:#2E94BD;" d="M51.117,60.813v6.381h0.27c0.216,0,0.431,0.015,0.593,0.021c0.162,0.007,0.155-0.006,0.182,0.148
		c0.014,0.079,0.02,0.16,0.02,0.241c0,0.113-0.013,0.201-0.047,0.255c-0.27,0.081-0.6,0.135-0.883,0.161
		c-0.141,0.015-0.27,0.021-0.371,0.027c-0.108,0.006-0.176,0.006-0.196,0.006h-0.04l-0.243-0.791
		c-0.33,0.215-0.687,0.416-1.065,0.557c-0.378,0.141-0.776,0.234-1.16,0.234c-0.539,0-1.105-0.167-1.531-0.53
		c-0.431-0.362-0.727-0.92-0.727-1.705v-4.213c-0.136,0-0.284-0.007-0.412-0.013c-0.128-0.007-0.229-0.021-0.263-0.027
		c-0.02-0.026-0.04-0.134-0.04-0.249c-0.007-0.113-0.007-0.248,0.02-0.322c0.242-0.08,0.559-0.127,0.829-0.154l0.337-0.021
		c0.095-0.006,0.155-0.006,0.176-0.006h0.128v4.722c0,0.617,0.195,1.068,0.492,1.358c0.296,0.294,0.702,0.431,1.126,0.431
		c0.358,0,0.728-0.097,1.079-0.25c0.344-0.155,0.674-0.35,0.95-0.564v-4.904c-0.134,0-0.282-0.007-0.41-0.013
		c-0.129-0.007-0.23-0.021-0.264-0.027c-0.02-0.026-0.04-0.134-0.04-0.249c-0.007-0.113-0.007-0.248,0.02-0.322
		c0.243-0.08,0.56-0.127,0.83-0.154l0.337-0.021c0.094-0.006,0.155-0.006,0.175-0.006H51.117z"/>
	<path style="fill:#2E94BD;" d="M61.541,60.987c0,0.369,0.102,0.679,0.264,0.947c0.154,0.276,0.357,0.524,0.572,0.739
		c0.736-0.322,1.174-0.664,1.423-0.987c0.25-0.323,0.311-0.632,0.311-0.894c0-0.437-0.21-0.727-0.479-0.899
		c-0.27-0.175-0.607-0.242-0.876-0.242C62.026,59.651,61.541,60.154,61.541,60.987 M62.815,67.315c0.856,0,1.571-0.322,2.111-0.939
		l-2.866-2.849c-0.331,0.208-0.654,0.45-0.89,0.766c-0.243,0.321-0.398,0.712-0.398,1.195c0,0.531,0.183,0.988,0.533,1.31
		C61.655,67.122,62.168,67.315,62.815,67.315 M66.309,63.104l0.674,0.276c-0.087,0.538-0.243,1.089-0.425,1.592
		c-0.182,0.503-0.391,0.954-0.6,1.31l1.201,1.216l-0.547,0.558l-1.153-1.142c-0.701,0.759-1.591,1.142-2.643,1.142
		c-0.816,0-1.53-0.242-2.036-0.686c-0.506-0.442-0.809-1.088-0.809-1.9c0-1.048,0.505-1.774,1.578-2.419
		c-0.459-0.477-0.796-1.115-0.796-1.981c0-0.624,0.175-1.162,0.526-1.538c0.344-0.376,0.856-0.599,1.537-0.599
		c0.513,0,1.038,0.127,1.436,0.424c0.398,0.296,0.661,0.759,0.661,1.431c0,0.691-0.263,1.176-0.654,1.552s-0.904,0.639-1.369,0.874
		l2.502,2.491c0.209-0.396,0.398-0.853,0.546-1.31c0.148-0.451,0.256-0.893,0.317-1.29H66.309z"/>
	<path style="fill:#2E94BD;" d="M80.38,67.92c-0.155,0-0.323-0.006-0.472-0.013c-0.074-0.008-0.141-0.008-0.189-0.014
		c-0.101-0.006-0.107-0.033-0.128-0.141c-0.014-0.048-0.02-0.102-0.02-0.162c0-0.113,0.014-0.234,0.041-0.288
		c0.161-0.033,0.41-0.075,0.674-0.108v-3.862c0-0.618-0.196-1.067-0.493-1.357c-0.296-0.288-0.7-0.422-1.126-0.422
		c-0.357,0-0.727,0.094-1.071,0.24c-0.351,0.148-0.682,0.351-0.958,0.565v4.836c0.263,0.033,0.513,0.075,0.674,0.108
		c0.027,0.054,0.041,0.175,0.041,0.288c0,0.114-0.021,0.229-0.068,0.281c-0.006,0.009-0.033,0.016-0.081,0.021
		c-0.101,0.006-0.256,0.021-0.424,0.021c-0.088,0.006-0.162,0.006-0.236,0.006h-0.58c-0.156,0-0.324-0.006-0.473-0.013
		c-0.074-0.008-0.14-0.008-0.188-0.014c-0.101-0.006-0.108-0.033-0.128-0.141c-0.014-0.048-0.02-0.102-0.02-0.162
		c0-0.113,0.013-0.234,0.04-0.288c0.162-0.033,0.411-0.075,0.675-0.108v-5.589c-0.136,0-0.284-0.006-0.412-0.013
		s-0.229-0.021-0.263-0.027c-0.02-0.027-0.04-0.134-0.04-0.248c-0.007-0.115-0.007-0.249,0.02-0.324
		c0.195-0.06,0.438-0.105,0.66-0.133c0.115-0.013,0.216-0.028,0.317-0.034c0.095-0.006,0.176-0.006,0.237-0.013l0.229,0.779
		c0.667-0.431,1.389-0.779,2.178-0.779c0.539,0,1.105,0.161,1.537,0.523c0.424,0.362,0.721,0.928,0.721,1.713v4.145
		c0.263,0.033,0.513,0.075,0.675,0.108c0.027,0.054,0.04,0.175,0.04,0.288c0,0.114-0.02,0.229-0.067,0.281
		c-0.007,0.009-0.034,0.016-0.082,0.021c-0.101,0.006-0.255,0.021-0.424,0.021c-0.088,0.006-0.162,0.006-0.236,0.006H80.38z"/>
	<path style="fill:#2E94BD;" d="M88.492,64.676c-0.249-0.027-0.451-0.047-0.62-0.053c-0.088,0-0.162,0-0.236-0.009h-0.223
		c-0.269,0-0.606,0-0.93,0.049c-0.324,0.054-0.647,0.147-0.883,0.336c-0.236,0.188-0.391,0.463-0.391,0.872
		c0,0.396,0.135,0.754,0.404,1.015c0.264,0.269,0.641,0.438,1.127,0.438c0.748,0,1.341-0.37,1.752-1.155V64.676z M84.899,61.311
		c0.654-0.302,1.429-0.497,2.131-0.497c0.599,0,1.159,0.141,1.571,0.497c0.404,0.355,0.66,0.934,0.66,1.799v2.474
		c0,0.409,0.081,0.8,0.257,1.107c0.175,0.31,0.445,0.552,0.822,0.64l-0.439,0.724c-0.512-0.167-0.902-0.576-1.118-1.087
		c-0.182,0.314-0.459,0.584-0.816,0.779c-0.358,0.194-0.796,0.308-1.288,0.308c-0.304,0-0.668-0.046-0.998-0.173
		s-0.647-0.33-0.883-0.653c-0.236-0.314-0.385-0.739-0.385-1.323c0-0.65,0.189-1.153,0.621-1.497
		c0.431-0.344,1.106-0.517,2.056-0.517c0.358,0,0.782,0.027,1.402,0.079v-0.966c0-0.539-0.189-0.908-0.465-1.136
		c-0.276-0.229-0.661-0.315-1.045-0.315c-0.351,0-0.782,0.073-1.233,0.207c-0.028,0.242-0.068,0.511-0.102,0.739
		c-0.02,0.113-0.034,0.215-0.047,0.302c-0.02,0.088-0.034,0.142-0.047,0.169c-0.155,0.027-0.412,0.013-0.566-0.06
		c-0.007-0.027-0.014-0.109-0.021-0.242c-0.02-0.27-0.04-0.625-0.053-0.96C84.905,61.539,84.899,61.411,84.899,61.311"/>
	<path style="fill:#2E94BD;" d="M96.896,67.727c-0.465,0.181-0.904,0.328-1.443,0.328c-0.506,0-1.018-0.135-1.403-0.49
		c-0.384-0.356-0.647-0.94-0.647-1.854v-4.003h-0.762v-0.76h0.762v-1.262l0.694-0.128h0.082v1.39h1.719v0.76h-1.719v3.586
		c0,0.732,0.128,1.237,0.363,1.553c0.237,0.323,0.567,0.457,0.972,0.457c0.169,0,0.337-0.021,0.505-0.066
		c0.027-0.242,0.074-0.551,0.115-0.82c0.02-0.134,0.041-0.255,0.061-0.356c0.02-0.102,0.034-0.161,0.046-0.194
		c0.156-0.028,0.412-0.013,0.567,0.061c0.007,0.021,0.007,0.066,0.014,0.142l0.02,0.288c0.013,0.221,0.027,0.497,0.033,0.753
		c0.007,0.128,0.007,0.248,0.014,0.354C96.896,67.578,96.896,67.665,96.896,67.727"/>
	<path style="fill:#2E94BD;" d="M105.086,60.813v6.381h0.27c0.216,0,0.431,0.015,0.593,0.021c0.162,0.007,0.155-0.006,0.182,0.148
		c0.014,0.079,0.02,0.16,0.02,0.241c0,0.113-0.013,0.201-0.047,0.255c-0.27,0.081-0.6,0.135-0.883,0.161
		c-0.141,0.015-0.27,0.021-0.371,0.027c-0.108,0.006-0.175,0.006-0.195,0.006h-0.041l-0.243-0.791
		c-0.33,0.215-0.687,0.416-1.065,0.557s-0.776,0.234-1.159,0.234c-0.54,0-1.106-0.167-1.531-0.53
		c-0.432-0.362-0.728-0.92-0.728-1.705v-4.213c-0.136,0-0.284-0.007-0.412-0.013c-0.128-0.007-0.229-0.021-0.263-0.027
		c-0.02-0.026-0.04-0.134-0.04-0.249c-0.007-0.113-0.007-0.248,0.02-0.322c0.243-0.08,0.559-0.127,0.829-0.154l0.338-0.021
		c0.094-0.006,0.154-0.006,0.175-0.006h0.128v4.722c0,0.617,0.195,1.068,0.492,1.358c0.296,0.294,0.702,0.431,1.126,0.431
		c0.358,0,0.729-0.097,1.079-0.25c0.344-0.155,0.674-0.35,0.95-0.564v-4.904c-0.134,0-0.283-0.007-0.41-0.013
		c-0.129-0.007-0.23-0.021-0.264-0.027c-0.02-0.026-0.041-0.134-0.041-0.249c-0.006-0.113-0.006-0.248,0.021-0.322
		c0.243-0.08,0.56-0.127,0.83-0.154l0.337-0.021c0.094-0.006,0.155-0.006,0.175-0.006H105.086z"/>
	<path style="fill:#2E94BD;" d="M114.325,60.813v6.381h0.27c0.216,0,0.431,0.015,0.593,0.021c0.162,0.007,0.155-0.006,0.182,0.148
		c0.014,0.079,0.02,0.16,0.02,0.241c0,0.113-0.013,0.201-0.047,0.255c-0.27,0.081-0.6,0.135-0.883,0.161
		c-0.141,0.015-0.27,0.021-0.371,0.027c-0.108,0.006-0.176,0.006-0.195,0.006h-0.041l-0.243-0.791
		c-0.33,0.215-0.687,0.416-1.065,0.557s-0.776,0.234-1.159,0.234c-0.54,0-1.106-0.167-1.531-0.53
		c-0.432-0.362-0.728-0.92-0.728-1.705v-4.213c-0.136,0-0.284-0.007-0.412-0.013c-0.128-0.007-0.229-0.021-0.262-0.027
		c-0.021-0.026-0.041-0.134-0.041-0.249c-0.006-0.113-0.006-0.248,0.02-0.322c0.243-0.08,0.559-0.127,0.829-0.154l0.337-0.021
		c0.095-0.006,0.155-0.006,0.176-0.006h0.128v4.722c0,0.617,0.195,1.068,0.492,1.358c0.296,0.294,0.702,0.431,1.126,0.431
		c0.358,0,0.729-0.097,1.079-0.25c0.344-0.155,0.674-0.35,0.95-0.564v-4.904c-0.134,0-0.282-0.007-0.41-0.013
		c-0.128-0.007-0.229-0.021-0.264-0.027c-0.02-0.026-0.04-0.134-0.04-0.249c-0.007-0.113-0.007-0.248,0.02-0.322
		c0.243-0.08,0.56-0.127,0.83-0.154l0.337-0.021c0.094-0.006,0.155-0.006,0.175-0.006H114.325z"/>
	<path style="fill:#2E94BD;" d="M119.254,61.666c0.519-0.564,1.126-0.853,1.746-0.853c0.344,0,0.64,0.073,0.958,0.207
		c0,0.196-0.014,0.565-0.034,0.901c-0.014,0.167-0.028,0.322-0.034,0.457c-0.007,0.134-0.013,0.215-0.021,0.241
		c-0.154,0.074-0.411,0.087-0.566,0.06c-0.027-0.052-0.06-0.215-0.087-0.43c-0.034-0.207-0.074-0.457-0.101-0.691
		c-0.061-0.006-0.121-0.014-0.183-0.014c-0.68,0-1.2,0.336-1.685,0.974v4.676c0.263,0.033,0.512,0.074,0.674,0.108
		c0.027,0.054,0.041,0.175,0.041,0.288c0,0.115-0.021,0.229-0.068,0.282c-0.006,0.008-0.033,0.014-0.081,0.021
		c-0.101,0.006-0.256,0.021-0.424,0.021c-0.088,0.007-0.162,0.007-0.236,0.007h-0.581c-0.155,0-0.323-0.007-0.472-0.013
		c-0.074-0.009-0.141-0.009-0.188-0.015c-0.102-0.007-0.108-0.034-0.129-0.14c-0.013-0.048-0.019-0.103-0.019-0.163
		c0-0.113,0.013-0.234,0.04-0.288c0.162-0.034,0.411-0.075,0.674-0.108v-5.589c-0.135,0-0.283-0.007-0.411-0.013
		c-0.128-0.007-0.222-0.021-0.257-0.027c-0.019-0.026-0.04-0.134-0.04-0.249c-0.006-0.113-0.006-0.248,0.021-0.322
		c0.195-0.061,0.438-0.107,0.66-0.135c0.115-0.013,0.216-0.026,0.317-0.032c0.094-0.008,0.175-0.008,0.236-0.014L119.254,61.666z"/>
	<path style="fill:#2E94BD;" d="M130.129,37.562h3.208c3.476,0,6.298-0.433,8.276-1.544c1.978-1.109,3.064-2.919,3.064-5.645
		c0-2.896-1.037-4.706-2.919-5.79c-1.882-1.062-4.561-1.424-7.817-1.424h-3.812V37.562z M126.391,19.662h7.792
		c5.308,0,8.83,0.819,11.049,2.532c2.221,1.736,3.113,4.319,3.113,7.865c0,2.438-0.483,4.366-1.424,5.887
		c-0.94,1.544-2.29,2.63-3.955,3.401c0.384,0.991,1.061,2.244,1.929,3.522c0.844,1.278,1.858,2.582,2.943,3.644
		c1.061,1.086,2.171,1.979,3.233,2.388l-2.051,3.041c-1.254-0.265-2.557-1.229-3.788-2.558c-1.253-1.327-2.436-2.943-3.449-4.559
		c-1.014-1.618-1.859-3.163-2.413-4.32c-2.051,0.412-4.391,0.555-6.925,0.555h-2.315v10.4h-3.739V19.662z"/>
</g>
<path style="fill:#2E94BD;" d="M172.166,40.578l-5.839-16.912l-5.837,16.912H172.166z M159.308,44.053l-2.559,7.406h-3.859
	l10.927-31.798h4.995l10.954,31.798h-3.861l-2.556-7.406H159.308z"/>
<path style="fill:#2E94BD;" d="M200.258,40.578l-5.839-16.912l-5.837,16.912H200.258z M187.4,44.053l-2.559,7.406h-3.859
	l10.93-31.798h4.992l10.954,31.798h-3.861l-2.556-7.406H187.4z"/>
<g>
	<path style="fill:#2E94BD;" d="M216.07,47.984h5.645c3.861,0,6.949-1.253,9.095-3.376c2.125-2.126,3.308-5.14,3.308-8.686
		c0-3.788-1.448-6.997-3.767-9.24c-2.315-2.244-5.522-3.547-9.021-3.547h-5.26V47.984z M212.33,19.662h9
		c4.631,0,8.779,1.664,11.748,4.463c2.968,2.823,4.777,6.778,4.777,11.411c0,4.632-1.714,8.612-4.584,11.411
		c-2.871,2.824-6.924,4.514-11.557,4.514h-9.385V19.662z"/>
</g>
<polygon style="fill:#4AA894;" points="317.154,30.275 312.388,44.105 309.555,44.105 304.791,30.275 307.353,30.275 
	310.973,40.776 314.589,30.275 "/>
<polygon style="fill:#4AA894;" points="320.918,28.931 321.229,28.931 321.229,43.9 318.809,43.9 318.809,29.139 "/>
<g>
	<path style="fill:#4AA894;" d="M332.031,44.106c-0.787,0-1.611-0.248-2.406-1.129c-0.425,0.32-0.8,0.601-1.242,0.799
		c-0.457,0.206-0.961,0.33-1.656,0.33c-0.741,0-1.621-0.146-2.315-0.641c-0.702-0.497-1.22-1.345-1.22-2.783
		c0-0.938,0.229-1.694,0.807-2.2s1.521-0.785,2.957-0.785c0.579,0,1.25,0,2.202,0.084v-0.537c0-0.747-0.235-1.263-0.618-1.573
		c-0.384-0.309-0.902-0.435-1.48-0.435c-0.918,0-2.006,0.332-2.873,0.732l-0.57-2.105c1.129-0.539,2.566-0.91,3.919-0.91
		c1.066,0,2.056,0.227,2.802,0.784c0.734,0.558,1.2,1.438,1.2,2.751v3.988c0,0.508,0.164,0.86,0.454,1.107
		c0.28,0.25,0.672,0.404,1.139,0.495L332.031,44.106z M329.146,39.56c-1.125,0-2.003-0.021-2.603,0.121
		c-0.601,0.146-0.934,0.458-0.934,1.086c0,0.881,0.634,1.366,1.511,1.366c0.302,0,0.806-0.062,1.241-0.334
		c0.436-0.264,0.784-0.752,0.784-1.59V39.56z"/>
	<path style="fill:#4AA894;" d="M342.689,44.106c-0.786,0-1.61-0.248-2.406-1.129c-0.424,0.32-0.799,0.601-1.241,0.799
		c-0.457,0.206-0.961,0.33-1.653,0.33c-0.744,0-1.625-0.146-2.318-0.641c-0.702-0.497-1.221-1.345-1.221-2.783
		c0-0.938,0.229-1.694,0.81-2.2c0.578-0.506,1.519-0.785,2.955-0.785c0.579,0,1.25,0,2.202,0.084v-0.537
		c0-0.747-0.236-1.263-0.619-1.573c-0.385-0.309-0.899-0.435-1.479-0.435c-0.92,0-2.008,0.332-2.875,0.732l-0.57-2.105
		c1.13-0.539,2.566-0.91,3.92-0.91c1.066,0,2.056,0.227,2.802,0.784c0.733,0.558,1.2,1.438,1.2,2.751v3.988
		c0,0.508,0.165,0.86,0.453,1.107c0.281,0.25,0.673,0.404,1.139,0.495L342.689,44.106z M339.805,39.56
		c-1.125,0-2.004-0.021-2.604,0.121c-0.6,0.146-0.93,0.458-0.93,1.086c0,0.881,0.631,1.366,1.509,1.366
		c0.301,0,0.805-0.062,1.239-0.334c0.436-0.264,0.785-0.752,0.785-1.59V39.56z"/>
	<path style="fill:#4AA894;" d="M345.233,33.17h2.046l0.236,0.836c0.992-0.662,2.225-1.046,3.424-1.046
		c1.022,0,2.007,0.28,2.72,0.899c0.714,0.623,1.177,1.563,1.177,2.918V43.9h-2.418v-6.409c0-0.796-0.29-1.355-0.734-1.706
		c-0.444-0.353-1.043-0.495-1.694-0.495c-0.828,0-1.677,0.245-2.336,0.658V43.9h-2.42V33.17z"/>
	<path style="fill:#4AA894;" d="M366.418,43.899h-1.829l-0.438-0.807c-0.824,0.62-1.695,1.015-2.882,1.015
		c-1.54,0-2.69-0.62-3.444-1.572c-0.752-0.951-1.125-2.232-1.125-3.557c0-2.026,0.609-3.536,1.621-4.539
		c1.014-0.991,2.44-1.479,4.096-1.479c0.486,0,1.014,0.035,1.582,0.104v-3.926l2.049-0.209h0.371V43.899z M363.998,35.442
		c-0.609-0.152-1.229-0.225-1.717-0.225c-0.92,0-1.694,0.269-2.232,0.824c-0.538,0.56-0.85,1.387-0.85,2.503
		c0,0.815,0.23,1.611,0.662,2.225c0.437,0.609,1.074,1.014,1.933,1.014c0.737,0,1.554-0.263,2.204-0.663V35.442z"/>
	<path style="fill:#4AA894;" d="M376.963,41.12v2.346c-0.951,0.465-2.131,0.642-3.051,0.642c-1.488,0-2.863-0.467-3.875-1.387
		c-1.016-0.92-1.656-2.325-1.656-4.188c0-1.808,0.6-3.194,1.51-4.145c0.899-0.94,2.108-1.426,3.318-1.426
		c0.342,0,0.949,0.039,1.583,0.259c0.63,0.217,1.322,0.63,1.841,1.342c0.517,0.713,0.877,1.771,0.877,3.258v1.612h-6.512
		c0.196,0.869,0.641,1.459,1.219,1.828c0.569,0.374,1.26,0.53,1.955,0.53c0.907,0,1.87-0.259,2.698-0.703L376.963,41.12z
		 M375.297,37.521c-0.051-0.786-0.33-1.347-0.701-1.716c-0.373-0.361-0.849-0.518-1.314-0.518c-0.495,0-1.001,0.166-1.416,0.526
		c-0.425,0.372-0.746,0.933-0.898,1.707H375.297z"/>
	<path style="fill:#4AA894;" d="M385.822,35.836c-0.609-0.371-1.211-0.537-1.82-0.537c-0.787,0-1.508,0.29-2.16,0.784V43.9h-2.42
		V33.168h2.048l0.247,0.88c0.746-0.631,1.654-1.086,2.732-1.086c0.287,0,0.69,0.021,1.084,0.091
		c0.394,0.075,0.776,0.179,1.056,0.332L385.822,35.836z"/>
	<path style="fill:#4AA894;" d="M395.789,41.12v2.346c-0.95,0.465-2.131,0.642-3.049,0.642c-1.49,0-2.865-0.467-3.877-1.387
		c-1.016-0.92-1.656-2.325-1.656-4.188c0-1.808,0.601-3.194,1.511-4.145c0.899-0.94,2.108-1.426,3.319-1.426
		c0.341,0,0.949,0.039,1.582,0.259c0.629,0.217,1.322,0.63,1.84,1.342c0.518,0.713,0.878,1.771,0.878,3.258v1.612h-6.513
		c0.196,0.869,0.642,1.459,1.221,1.828c0.568,0.374,1.259,0.53,1.953,0.53c0.908,0,1.871-0.259,2.699-0.703L395.789,41.12z
		 M394.123,37.521c-0.051-0.786-0.329-1.347-0.7-1.716c-0.373-0.361-0.849-0.518-1.315-0.518c-0.494,0-1.001,0.166-1.416,0.526
		c-0.425,0.372-0.744,0.933-0.897,1.707H394.123z"/>
	<path style="fill:#4AA894;" d="M398.249,33.17h2.046l0.237,0.836c0.992-0.662,2.224-1.046,3.424-1.046
		c1.022,0,2.005,0.28,2.718,0.899c0.715,0.623,1.178,1.563,1.178,2.918V43.9h-2.418v-6.409c0-0.796-0.291-1.355-0.733-1.706
		c-0.444-0.353-1.043-0.495-1.696-0.495c-0.826,0-1.676,0.245-2.335,0.658V43.9h-2.42V33.17z"/>
</g>
<rect x="259.401" y="44.688" transform="matrix(0.322 0.9467 -0.9467 0.322 241.6528 -247.7281)" style="fill:#4AA894;" width="68.771" height="0.334"/>
<g>
	<path style="fill:#4AA894;" d="M283.008,44.722c-1.598-1.219-2.346,0.009-3.35-0.072c-0.852-0.067-1.65-1.438-2.305-1.111
		c-1.258,0.638,0.501,2.897,1.265,3.359c0.679,0.406,1.537,0.78,1.743,0.876c1.008,0.472,1.41,1.186,1.537,2.302
		c0.029,0.255,0,0.839-0.064,1.108c-0.459,1.954-3.884,3.731-5.848,2.39c-0.928-0.639-1.771-1.455-2.066-2.907
		c-0.527-2.568-2.383-4.454-2.976-6.972c-0.362-1.524-0.629-3.136-1.028-4.672c-0.404-1.587-0.822-3.163-1.154-4.605
		c-0.303-1.34-0.942-3.345-1.403-4.566c-1.879-4.904-2.726-4.546-2.726-4.546s0.684,1.356,3.17,13.375
		c0.103,0.493,1.007,5.785,1.666,7.529c0.234,0.624,0.647,1.957,0.918,2.547c0.791,1.723,2.881,4.333,3.017,6.684
		c0.082,1.361,0.235,2.487,0.269,3.52c0.02,0.301,0.152,1.526,0.349,2.073c0.51,1.433,4.626,6.062,8.996,6.062v-3.509
		c-4.341,0-8.433-2.434-8.534-2.69c-0.062-0.113,0.227-1.773,0.521-2.512c0.568-1.428,1.642-2.738,3.527-2.876
		c2.104-0.149,3.374,0.46,4.485,0.46L283.008,44.722z"/>
	<path style="fill:#4AA894;" d="M264.148,31.986c-0.161,2.626-4.227,6.223-5.502,8.524c-0.623,1.134-1.387,3.079-1.582,4.207
		c-0.541,3.135,0.143,5.084,0.908,6.917c1.349,3.229-0.182,4.41,0.871,3.759c1.301-1.062,1.104-3.537,1.008-5.083
		c-0.073-1.253-0.16-2.68,0.031-4.176c0.36-2.795,2.053-5.797,3.5-7.896C265.1,35.738,264.475,33.149,264.148,31.986"/>
	<path style="fill:#4AA894;" d="M264.967,39.45c0,0,0.433,2.082-1.403,7.435c-4.802,14,4.373,15.325,6.985,18.615
		c0,0,1.01-1.422-3.153-5.988c-1.517-1.669-2.888-5.342-1.694-10.59C267.43,41.32,264.967,39.45,264.967,39.45"/>
	<path style="fill:#4AA894;" d="M255.885,30.271c-0.221-0.826-0.287-1.567-0.238-2.225c0.221-3.289,3.209-4.625,3.955-5.115
		c0,0,1.342-0.92,1.514-1.847c0,0,1.377,3.463-1.776,5.446C257.738,27.536,256.652,28.716,255.885,30.271"/>
	<path style="fill:#4AA894;" d="M263.418,27.091c0.17,0.334,1.408,2.146-3.662,6.334c-5.063,4.179-3.481,7.167-3.481,7.167
		s-5.401-3.007,0.821-8.199c6.223-5.187,4.945-6.237,4.945-6.237S262.933,26.11,263.418,27.091"/>
	<path style="fill:#4AA894;" d="M270.001,28.692c0.875,0.114,1.435,2.849,3.46,3.443c1.491,0.432,3.073,0.199,3.426,1.095
		c-0.684,0.362-0.145,1.564,0.545,1.368C277.998,33.005,278.282,26.832,270.001,28.692 M272.729,29.923
		c0.076-0.196,0.182-0.04,0.404-0.177c0.237-0.226,0.479-0.592,0.863-0.716c0.275-0.081,0.654-0.044,0.914,0.055
		c0.169,0.046,0.066,0.484-0.064,0.6c-0.273,0.201-1.082-0.131-1.082,0.475c0.033,0.996,1.345-0.031,2.029-0.004
		C276.128,32.582,272.135,31.917,272.729,29.923"/>
	<path style="fill:#4AA894;" d="M308.562,52.066h0.909v6.133h-0.909V52.066z M308.386,50.393c0-0.354,0.278-0.633,0.633-0.633
		c0.353,0,0.638,0.278,0.638,0.633c0,0.343-0.295,0.628-0.638,0.628C308.688,51.021,308.386,50.725,308.386,50.393"/>
	<path style="fill:#4AA894;" d="M311.084,57.185l0.034-0.03c0.39,0.153,0.97,0.308,1.413,0.308c0.645,0,1.543-0.297,1.543-0.995
		c0-0.323-0.184-0.537-0.461-0.707c-0.367-0.23-1.005-0.416-1.566-0.717c-0.645-0.343-0.94-0.838-0.94-1.481
		c0-1.171,0.969-1.613,2.087-1.613c0.449,0,0.887,0.07,1.247,0.17v0.829l-0.036,0.016c-0.324-0.089-0.928-0.193-1.354-0.193
		c-0.537,0-1.039,0.158-1.039,0.715c0,0.336,0.195,0.566,0.479,0.744c0.385,0.255,1.117,0.467,1.708,0.769
		c0.626,0.324,0.791,0.698,0.791,1.354c0,0.659-0.325,1.156-0.797,1.481c-0.479,0.324-1.106,0.486-1.714,0.486
		c-0.52,0-0.993-0.108-1.395-0.278V57.185z"/>
	<path style="fill:#4AA894;" d="M320.422,55.104c0,0.638,0.158,1.235,0.484,1.66c0.324,0.432,0.803,0.703,1.441,0.703
		c0.616,0,1.081-0.247,1.395-0.656c0.313-0.406,0.474-0.987,0.474-1.643c0-0.644-0.16-1.24-0.474-1.673
		c-0.313-0.432-0.785-0.697-1.424-0.697c-0.615,0-1.088,0.25-1.406,0.663C320.593,53.874,320.422,54.46,320.422,55.104
		 M319.506,55.15c0-0.892,0.295-1.689,0.797-2.269c0.498-0.579,1.206-0.935,2.04-0.935c0.833,0,1.541,0.36,2.026,0.935
		c0.485,0.571,0.762,1.366,0.762,2.238c0,0.893-0.289,1.686-0.785,2.265c-0.502,0.579-1.218,0.934-2.051,0.934
		c-0.844,0-1.537-0.361-2.021-0.934C319.789,56.817,319.506,56.025,319.506,55.15"/>
	<path style="fill:#4AA894;" d="M330.979,58.199h-0.91v-3.878c0-0.564-0.118-0.949-0.319-1.192c-0.201-0.236-0.485-0.336-0.81-0.336
		c-0.515,0-1,0.23-1.455,0.579v4.827h-0.916v-6.133h0.58l0.207,0.561c0.371-0.243,0.68-0.408,0.957-0.521
		c0.277-0.111,0.531-0.159,0.791-0.159c0.515,0,1.029,0.189,1.401,0.661c0.254-0.159,0.562-0.324,0.88-0.448
		c0.319-0.123,0.639-0.213,0.924-0.213c0.584,0,1.123,0.147,1.523,0.514c0.396,0.367,0.645,0.945,0.645,1.814v3.932h-0.916v-3.878
		c0-0.591-0.154-0.977-0.391-1.212c-0.243-0.235-0.579-0.324-0.951-0.324c-0.479,0-0.957,0.219-1.383,0.455
		c0.088,0.282,0.143,0.621,0.143,1.022V58.199z"/>
	<path style="fill:#4AA894;" d="M338.216,52.762c-0.456,0-0.806,0.174-1.04,0.413c-0.237,0.243-0.355,0.563-0.355,0.871
		c0,0.307,0.123,0.626,0.36,0.869c0.235,0.24,0.585,0.406,1.052,0.406c0.455,0,0.799-0.166,1.029-0.406
		c0.23-0.238,0.343-0.551,0.343-0.857c0-0.308-0.118-0.633-0.349-0.883C339.019,52.928,338.671,52.762,338.216,52.762
		 M337.246,57.702c-0.332,0.379-0.543,0.857-0.543,1.284c0,0.359,0.1,0.673,0.336,0.892c0.236,0.22,0.608,0.349,1.152,0.349
		c0.614,0,1.141-0.201,1.52-0.49c0.371-0.283,0.585-0.661,0.585-1.034c0-0.456-0.267-0.703-0.691-0.845
		c-0.432-0.137-1.022-0.155-1.667-0.155H337.246z M338.754,56.918c0.845,0,1.465,0.194,1.871,0.513
		c0.404,0.32,0.604,0.758,0.604,1.213c0,0.668-0.409,1.266-1.005,1.689c-0.597,0.433-1.391,0.692-2.152,0.692
		c-0.701,0-1.27-0.221-1.66-0.575c-0.389-0.348-0.608-0.838-0.608-1.382c0-0.497,0.267-1.088,0.733-1.561
		c-0.166-0.095-0.289-0.254-0.373-0.436c-0.082-0.185-0.129-0.378-0.129-0.551c0-0.331,0.152-0.71,0.442-1.069
		c-0.165-0.171-0.296-0.409-0.379-0.668c-0.081-0.254-0.129-0.532-0.129-0.791c0-0.586,0.231-1.095,0.632-1.459
		c0.402-0.367,0.969-0.586,1.637-0.586c0.455,0,0.857,0.1,1.188,0.282c0.26-0.194,0.556-0.353,0.827-0.46s0.531-0.159,0.738-0.159
		l0.272,0.772c-0.325,0.055-0.751,0.189-1.151,0.444c0.229,0.331,0.354,0.714,0.354,1.141c0,0.584-0.237,1.123-0.639,1.519
		c-0.407,0.396-0.98,0.644-1.649,0.644c-0.431,0-0.808-0.104-1.134-0.266c-0.135,0.173-0.207,0.343-0.207,0.502
		c0,0.308,0.266,0.551,0.757,0.551H338.754z"/>
	<path style="fill:#4AA894;" d="M345.389,54.537c-0.012-0.958-0.26-1.74-1.217-1.74c-0.963,0-1.519,0.757-1.666,1.74H345.389z
		 M346.287,55.363h-3.822c0.082,1.282,0.856,2.104,2.026,2.104c0.549,0,1.093-0.154,1.655-0.437l0.017,0.005v0.845
		c-0.638,0.313-1.194,0.439-1.761,0.439c-1.779,0-2.848-1.262-2.848-3.265c0-1.778,0.826-3.106,2.635-3.106
		c1.572,0,2.098,1.176,2.098,2.589V55.363z"/>
</g>
<polygon style="fill:#4AA894;" points="352.361,52.066 350.252,58.199 349.027,58.199 346.925,52.066 347.869,52.066 
	349.644,57.224 351.416,52.066 "/>
<g>
	<path style="fill:#4AA894;" d="M353.672,52.066h0.91v6.133h-0.91V52.066z M353.494,50.393c0-0.354,0.278-0.633,0.633-0.633
		c0.354,0,0.637,0.278,0.637,0.633c0,0.343-0.295,0.628-0.637,0.628C353.795,51.021,353.494,50.725,353.494,50.393"/>
	<path style="fill:#4AA894;" d="M356.664,52.066h0.615l0.172,0.567c0.254-0.166,0.561-0.338,0.887-0.467
		c0.324-0.13,0.662-0.22,0.951-0.22c0.584,0,1.123,0.147,1.524,0.514c0.396,0.367,0.644,0.945,0.644,1.813v3.925h-0.916v-3.87
		c0-0.591-0.153-0.977-0.389-1.212c-0.244-0.235-0.58-0.324-0.953-0.324c-0.283,0-0.572,0.077-0.851,0.188
		c-0.276,0.112-0.532,0.259-0.769,0.402v4.815h-0.916V52.066z"/>
	<path style="fill:#4AA894;" d="M365.188,52.762c-0.456,0-0.805,0.174-1.04,0.413c-0.236,0.243-0.354,0.563-0.354,0.871
		c0,0.307,0.124,0.626,0.36,0.869c0.235,0.24,0.584,0.406,1.051,0.406c0.455,0,0.799-0.166,1.029-0.406
		c0.23-0.238,0.344-0.551,0.344-0.857c0-0.308-0.119-0.633-0.35-0.883C365.992,52.928,365.644,52.762,365.188,52.762 M364.22,57.702
		c-0.332,0.379-0.544,0.857-0.544,1.284c0,0.359,0.1,0.673,0.336,0.892c0.236,0.22,0.609,0.349,1.152,0.349
		c0.615,0,1.142-0.201,1.52-0.49c0.372-0.283,0.585-0.661,0.585-1.034c0-0.456-0.266-0.703-0.69-0.845
		c-0.433-0.137-1.023-0.155-1.668-0.155H364.22z M365.727,56.918c0.844,0,1.465,0.194,1.872,0.513
		c0.403,0.32,0.604,0.758,0.604,1.213c0,0.668-0.409,1.266-1.006,1.689c-0.597,0.433-1.39,0.692-2.151,0.692
		c-0.702,0-1.271-0.221-1.659-0.575c-0.391-0.348-0.609-0.838-0.609-1.382c0-0.497,0.266-1.088,0.732-1.561
		c-0.166-0.095-0.289-0.254-0.372-0.436c-0.083-0.185-0.13-0.378-0.13-0.551c0-0.331,0.152-0.71,0.443-1.069
		c-0.166-0.171-0.297-0.409-0.377-0.668c-0.084-0.254-0.131-0.532-0.131-0.791c0-0.586,0.23-1.095,0.633-1.459
		c0.4-0.367,0.968-0.586,1.636-0.586c0.454,0,0.856,0.1,1.188,0.282c0.26-0.194,0.555-0.353,0.826-0.46s0.532-0.159,0.739-0.159
		l0.272,0.772c-0.326,0.055-0.752,0.189-1.152,0.444c0.23,0.331,0.355,0.714,0.355,1.141c0,0.584-0.238,1.123-0.64,1.519
		c-0.407,0.396-0.981,0.644-1.647,0.644c-0.433,0-0.811-0.104-1.136-0.266c-0.136,0.173-0.208,0.343-0.208,0.502
		c0,0.308,0.266,0.551,0.758,0.551H365.727z"/>
</g>
</svg>
